<svg width="224" height="49" viewBox="0 0 224 49" fill="none" xmlns="http://www.w3.org/2000/svg">
<path d="M2.21 22.08L2.98 2.06H14.46L22.93 0.939998L22.37 6.75H7.53L7.11 18.23H8.23C13.41 18.23 17.4467 19.35 20.34 21.59C23.28 23.7833 24.75 26.8633 24.75 30.83C24.75 35.9633 22.58 40.07 18.24 43.15C13.9467 46.23 8.06667 47.8867 0.6 48.12L0.32 43.99C6.15333 43.57 10.61 42.2867 13.69 40.14C16.77 37.9933 18.31 35.1933 18.31 31.74C18.31 28.24 17.3767 25.72 15.51 24.18C13.6433 22.64 10.75 21.87 6.83 21.87C5.29 21.87 3.75 21.94 2.21 22.08ZM49.0138 41.05C43.9738 41.05 40.1238 39.2533 37.4638 35.66C34.8038 32.02 33.4738 27.33 33.4738 21.59C33.4738 15.8033 34.8271 11.0433 37.5338 7.31C40.2871 3.57666 44.1838 1.71 49.2238 1.71C54.3104 1.71 58.1838 3.53 60.8438 7.17C63.5038 10.81 64.8338 15.5 64.8338 21.24C64.8338 26.98 63.4571 31.7167 60.7038 35.45C57.9504 39.1833 54.0538 41.05 49.0138 41.05ZM49.2238 6.33C46.0038 6.33 43.5304 7.75333 41.8038 10.6C40.1238 13.4 39.2838 17.04 39.2838 21.52C39.2838 26 40.1004 29.6167 41.7338 32.37C43.3671 35.0767 45.7938 36.43 49.0138 36.43C52.2804 36.43 54.7538 35.03 56.4338 32.23C58.1604 29.43 59.0238 25.7667 59.0238 21.24C59.0238 16.7133 58.2071 13.0967 56.5738 10.39C54.9404 7.68333 52.4904 6.33 49.2238 6.33ZM85.1075 41.05C80.0675 41.05 76.2175 39.2533 73.5575 35.66C70.8975 32.02 69.5675 27.33 69.5675 21.59C69.5675 15.8033 70.9208 11.0433 73.6275 7.31C76.3808 3.57666 80.2775 1.71 85.3175 1.71C90.4042 1.71 94.2775 3.53 96.9375 7.17C99.5975 10.81 100.928 15.5 100.928 21.24C100.928 26.98 99.5508 31.7167 96.7975 35.45C94.0442 39.1833 90.1475 41.05 85.1075 41.05ZM85.3175 6.33C82.0975 6.33 79.6242 7.75333 77.8975 10.6C76.2175 13.4 75.3775 17.04 75.3775 21.52C75.3775 26 76.1942 29.6167 77.8275 32.37C79.4608 35.0767 81.8875 36.43 85.1075 36.43C88.3742 36.43 90.8475 35.03 92.5275 32.23C94.2542 29.43 95.1175 25.7667 95.1175 21.24C95.1175 16.7133 94.3008 13.0967 92.6675 10.39C91.0342 7.68333 88.5842 6.33 85.3175 6.33ZM135.899 41.05C130.859 41.05 127.009 39.2533 124.349 35.66C121.689 32.02 120.359 27.33 120.359 21.59C120.359 15.8033 121.712 11.0433 124.419 7.31C127.172 3.57666 131.069 1.71 136.109 1.71C141.195 1.71 145.069 3.53 147.729 7.17C150.389 10.81 151.719 15.5 151.719 21.24C151.719 26.98 150.342 31.7167 147.589 35.45C144.835 39.1833 140.939 41.05 135.899 41.05ZM136.109 6.33C132.889 6.33 130.415 7.75333 128.689 10.6C127.009 13.4 126.169 17.04 126.169 21.52C126.169 26 126.985 29.6167 128.619 32.37C130.252 35.0767 132.679 36.43 135.899 36.43C139.165 36.43 141.639 35.03 143.319 32.23C145.045 29.43 145.909 25.7667 145.909 21.24C145.909 16.7133 145.092 13.0967 143.459 10.39C141.825 7.68333 139.375 6.33 136.109 6.33ZM171.992 41.05C166.952 41.05 163.102 39.2533 160.442 35.66C157.782 32.02 156.452 27.33 156.452 21.59C156.452 15.8033 157.806 11.0433 160.512 7.31C163.266 3.57666 167.162 1.71 172.202 1.71C177.289 1.71 181.162 3.53 183.822 7.17C186.482 10.81 187.812 15.5 187.812 21.24C187.812 26.98 186.436 31.7167 183.682 35.45C180.929 39.1833 177.032 41.05 171.992 41.05ZM172.202 6.33C168.982 6.33 166.509 7.75333 164.782 10.6C163.102 13.4 162.262 17.04 162.262 21.52C162.262 26 163.079 29.6167 164.712 32.37C166.346 35.0767 168.772 36.43 171.992 36.43C175.259 36.43 177.732 35.03 179.412 32.23C181.139 29.43 182.002 25.7667 182.002 21.24C182.002 16.7133 181.186 13.0967 179.552 10.39C177.919 7.68333 175.469 6.33 172.202 6.33ZM208.086 41.05C203.046 41.05 199.196 39.2533 196.536 35.66C193.876 32.02 192.546 27.33 192.546 21.59C192.546 15.8033 193.899 11.0433 196.606 7.31C199.359 3.57666 203.256 1.71 208.296 1.71C213.383 1.71 217.256 3.53 219.916 7.17C222.576 10.81 223.906 15.5 223.906 21.24C223.906 26.98 222.529 31.7167 219.776 35.45C217.023 39.1833 213.126 41.05 208.086 41.05ZM208.296 6.33C205.076 6.33 202.603 7.75333 200.876 10.6C199.196 13.4 198.356 17.04 198.356 21.52C198.356 26 199.173 29.6167 200.806 32.37C202.439 35.0767 204.866 36.43 208.086 36.43C211.353 36.43 213.826 35.03 215.506 32.23C217.233 29.43 218.096 25.7667 218.096 21.24C218.096 16.7133 217.279 13.0967 215.646 10.39C214.013 7.68333 211.563 6.33 208.296 6.33Z" fill="#655D54"/>
</svg>
