<svg width="52" height="52" viewBox="0 0 52 52" fill="none" xmlns="http://www.w3.org/2000/svg">
<path d="M33.5833 30.3333H31.8717L31.265 29.7483C33.4619 27.2005 34.6693 23.9475 34.6667 20.5833C34.6667 17.7979 33.8407 15.0751 32.2932 12.7591C30.7457 10.4431 28.5462 8.63797 25.9728 7.57204C23.3994 6.5061 20.5677 6.22721 17.8358 6.77061C15.1039 7.31402 12.5945 8.65533 10.6249 10.6249C8.65533 12.5945 7.31402 15.1039 6.77061 17.8358C6.22721 20.5677 6.5061 23.3994 7.57204 25.9728C8.63797 28.5462 10.4431 30.7457 12.7591 32.2932C15.0751 33.8407 17.7979 34.6667 20.5833 34.6667C24.0717 34.6667 27.2783 33.3883 29.7483 31.265L30.3333 31.8717V33.5833L41.1667 44.395L44.395 41.1667L33.5833 30.3333ZM20.5833 30.3333C15.1883 30.3333 10.8333 25.9783 10.8333 20.5833C10.8333 15.1883 15.1883 10.8333 20.5833 10.8333C25.9783 10.8333 30.3333 15.1883 30.3333 20.5833C30.3333 25.9783 25.9783 30.3333 20.5833 30.3333Z" fill="#C0B0A1"/>
</svg>
