<svg width="48" height="24" viewBox="0 0 48 24" fill="none" xmlns="http://www.w3.org/2000/svg">
<path d="M28.5999 9.46304V2.87666C28.5999 1.39223 28.2526 1.09463 26.3459 1.09463L20.941 1.00018C19.2574 1.00018 18.4156 1.00018 18.0752 1.42252C17.7348 1.84486 18.112 2.42402 18.8641 3.57878C19.2827 4.22031 19.5081 4.68542 19.5081 5.40536V10.1456C19.5081 11.6425 19.5081 12.3927 18.7721 12.6155C18.0361 12.8364 17.4266 12.3339 16.203 11.3288C13.213 8.8625 11.6536 5.78315 10.6301 2.4258C10.4185 1.73081 10.3127 1.38332 9.99532 1.19086C9.67792 0.998398 9.22483 1.00018 8.32323 1.00018H3.26326C2.15467 1.00018 1.60037 1.00018 1.25307 1.30313C0.908074 1.60785 0.974773 1.99633 1.10817 2.77152C2.32257 9.76955 10.2644 21.244 24.936 22.3382C27.535 22.5307 28.5999 21.9872 28.5999 19.781C28.5999 18.53 28.5654 16.5092 30.5963 16.2437C31.6612 16.1047 32.3765 16.3987 33.5656 17.1703C35.6264 18.5104 36.7074 20.1463 37.4595 21.3884C37.9586 22.2117 38.3289 22.3845 39.5018 22.3845H44.272C46.6824 22.3845 47.3379 21.9283 46.2638 20.1748C45.0499 18.2083 43.3313 16.4541 41.213 15.0194C39.7502 14.0446 39.0212 13.5581 38.9821 13.1982C38.9384 12.84 39.4743 12.3321 40.546 11.3164C42.616 9.35256 45.4358 6.27143 46.7514 3.0014C47.4046 1.37975 46.7905 1.00018 44.6722 1.00018H40.3873C38.3105 1.00018 38.3128 0.944937 37.8229 2.76974C37.0271 5.72969 34.4235 8.57559 31.9763 10.5127C30.8148 11.4322 30.1133 11.9864 29.3888 11.7601C28.6643 11.5338 28.5999 10.8459 28.5999 9.46304Z" stroke="#A09081" stroke-width="1.5" stroke-linecap="round" stroke-linejoin="round"/>
</svg>
