<svg width="17" height="14" viewBox="0 0 17 14" fill="none" xmlns="http://www.w3.org/2000/svg">
<path d="M8.4999 10.8162L3.97881 13.006C3.84596 13.0586 3.72266 13.0799 3.60891 13.07C3.49598 13.0593 3.38597 13.028 3.27886 12.976C3.17091 12.9228 3.08954 12.8475 3.03474 12.7503C2.97994 12.653 2.97496 12.5468 3.0198 12.4316L4.22293 8.32568L0.243627 5.55843C0.131534 5.48517 0.0576359 5.39759 0.0219322 5.29569C-0.0137714 5.19379 -0.00588335 5.09622 0.0455964 5.00298C0.0970761 4.90974 0.165577 4.83315 0.2511 4.77321C0.337453 4.71527 0.453698 4.67597 0.599834 4.65533L5.85077 4.28769L7.89833 0.399562C7.95479 0.289672 8.03616 0.210417 8.14244 0.161798C8.24872 0.11318 8.36787 0.088871 8.4999 0.088871C8.63192 0.088871 8.75148 0.11318 8.85859 0.161798C8.9657 0.210417 9.04666 0.289672 9.10146 0.399562L11.149 4.28769L16.3987 4.65533C16.5457 4.67531 16.6623 4.71493 16.7487 4.77421C16.835 4.83282 16.904 4.90907 16.9554 5.00298C17.0061 5.09622 17.0136 5.19379 16.9779 5.29569C16.9422 5.39759 16.8683 5.48517 16.7562 5.55843L12.7769 8.32568L13.98 12.4316C14.0265 12.5455 14.0219 12.6514 13.9663 12.7493C13.9107 12.8472 13.8289 12.9224 13.7209 12.975C13.6147 13.0283 13.5046 13.06 13.3909 13.07C13.278 13.0799 13.1551 13.0586 13.0222 13.006L8.4999 10.8162Z" fill="#FF0000"/>
</svg>
