<svg width="115" height="14" viewBox="0 0 115 14" fill="none" xmlns="http://www.w3.org/2000/svg">
<path d="M0.969 13L0.765 12.422L1.156 12.32C1.58667 12.1953 1.87567 12.031 2.023 11.827C2.17033 11.623 2.244 11.2603 2.244 10.739V2.341C2.244 2.069 2.11933 1.933 1.87 1.933H0.884L0.68 1.304C0.974667 1.19067 1.34867 1.07733 1.802 0.964C2.26667 0.850666 2.76533 0.754333 3.298 0.675C3.842 0.595666 4.37467 0.555999 4.896 0.555999C5.99533 0.555999 6.87933 0.708999 7.548 1.015C8.228 1.30967 8.721 1.712 9.027 2.222C9.34433 2.732 9.503 3.293 9.503 3.905C9.503 4.50567 9.35567 5.06667 9.061 5.588C8.77767 6.10933 8.33 6.51733 7.718 6.812C8.48867 7.06133 9.08367 7.44667 9.503 7.968C9.92233 8.478 10.132 9.039 10.132 9.651C10.132 10.297 9.98467 10.875 9.69 11.385C9.40667 11.8837 8.942 12.2803 8.296 12.575C7.65 12.8583 6.78867 13 5.712 13H0.969ZM5.814 12.116C6.63 12.116 7.259 11.878 7.701 11.402C8.143 10.9147 8.364 10.3027 8.364 9.566C8.364 9.13533 8.25633 8.74433 8.041 8.393C7.82567 8.03033 7.514 7.74133 7.106 7.526C6.70933 7.31067 6.22767 7.203 5.661 7.203C5.457 7.203 5.253 7.18033 5.049 7.135C4.845 7.08967 4.68067 7.03867 4.556 6.982C4.46533 6.93667 4.39733 6.88 4.352 6.812C4.318 6.744 4.301 6.676 4.301 6.608C4.301 6.404 4.38033 6.302 4.539 6.302C4.607 6.302 4.69767 6.32467 4.811 6.37C4.93567 6.404 5.12833 6.421 5.389 6.421C6.171 6.421 6.77167 6.18867 7.191 5.724C7.61033 5.25933 7.82 4.66433 7.82 3.939C7.82 3.24767 7.58767 2.66967 7.123 2.205C6.65833 1.74033 5.97267 1.508 5.066 1.508C4.726 1.508 4.47667 1.55333 4.318 1.644C4.15933 1.72333 4.05167 1.82533 3.995 1.95C3.94967 2.07467 3.927 2.188 3.927 2.29V9.889C3.927 10.4217 3.98933 10.841 4.114 11.147C4.25 11.4417 4.42 11.6627 4.624 11.81C4.828 11.946 5.032 12.031 5.236 12.065C5.45133 12.099 5.644 12.116 5.814 12.116ZM11.0052 13L10.8012 12.422L11.1922 12.32C11.4982 12.2407 11.7419 12.1443 11.9232 12.031C12.1046 11.9177 12.2576 11.7647 12.3822 11.572C12.5182 11.368 12.6429 11.0903 12.7562 10.739L15.4252 3.055C15.4819 2.87367 15.5272 2.72067 15.5612 2.596C15.5952 2.46 15.6122 2.33533 15.6122 2.222C15.6122 2.00667 15.5499 1.848 15.4252 1.746C15.3006 1.63267 15.1079 1.542 14.8472 1.474L14.4562 1.372L14.6602 0.793999H17.9412L21.3582 10.654C21.4942 11.028 21.6302 11.334 21.7662 11.572C21.9136 11.81 22.0779 12.014 22.2592 12.184C22.4406 12.354 22.6502 12.5353 22.8882 12.728L22.6672 13H18.8422L18.6382 12.422L19.0292 12.32C19.2899 12.252 19.4826 12.167 19.6072 12.065C19.7319 11.9517 19.7942 11.7873 19.7942 11.572C19.7942 11.4587 19.7772 11.3397 19.7432 11.215C19.7092 11.079 19.6639 10.9203 19.6072 10.739L18.7912 8.359H14.8642L14.4562 9.6C14.3316 9.98533 14.2352 10.3197 14.1672 10.603C14.0992 10.8863 14.0652 11.147 14.0652 11.385C14.0652 11.7703 14.1446 12.116 14.3032 12.422L14.4562 12.728L14.1332 13H11.0052ZM15.2212 7.305H18.4342L16.8022 2.545L15.2212 7.305ZM23.9602 13L23.7562 12.422L24.1642 12.32C24.4475 12.2293 24.6628 12.133 24.8102 12.031C24.9688 11.929 25.0765 11.7817 25.1332 11.589C25.2012 11.385 25.2352 11.1017 25.2352 10.739V3.055C25.2352 2.52233 25.1615 2.154 25.0142 1.95C24.8668 1.746 24.5835 1.58733 24.1642 1.474L23.7562 1.372L23.9602 0.793999H27.7002L27.9212 1.066L27.7002 1.372C27.4395 1.75733 27.2468 2.15967 27.1222 2.579C26.9975 2.987 26.9352 3.531 26.9352 4.211V10.739C26.9352 11.283 27.0032 11.6343 27.1392 11.793C27.2752 11.9517 27.5642 12.031 28.0062 12.031H30.4882C30.9415 12.031 31.2475 11.9517 31.4062 11.793C31.5648 11.6343 31.6442 11.283 31.6442 10.739V3.055C31.6442 2.52233 31.5705 2.154 31.4232 1.95C31.2758 1.746 30.9868 1.58733 30.5562 1.474L30.1482 1.372L30.3692 0.793999H34.0412L34.2452 1.066L34.0412 1.372C33.7578 1.746 33.5538 2.14267 33.4292 2.562C33.3045 2.98133 33.2422 3.531 33.2422 4.211V10.858C33.2422 11.334 33.2988 11.6513 33.4122 11.81C33.5255 11.9573 33.7578 12.031 34.1092 12.031H36.8972C37.3392 12.031 37.6282 11.9517 37.7642 11.793C37.9002 11.6343 37.9682 11.283 37.9682 10.739V3.055C37.9682 2.52233 37.8945 2.154 37.7472 1.95C37.6112 1.746 37.3278 1.58733 36.8972 1.474L36.4892 1.372L36.6762 0.793999H40.4162L40.6372 1.066L40.4162 1.372C40.1555 1.75733 39.9628 2.15967 39.8382 2.579C39.7248 2.987 39.6682 3.531 39.6682 4.211V10.858C39.6682 11.3567 39.7362 11.7023 39.8722 11.895C40.0082 12.0877 40.2802 12.2407 40.6882 12.354L41.0452 12.456L40.8582 13H23.9602ZM55.4434 13.425L55.3074 13.238C55.1827 13.0793 54.9447 13 54.5934 13H47.4364L47.2494 12.456L47.6064 12.354C48.0144 12.2293 48.2864 12.0763 48.4224 11.895C48.5697 11.7023 48.6434 11.3567 48.6434 10.858V4.211C48.6434 3.51967 48.581 2.97 48.4564 2.562C48.343 2.154 48.1504 1.75733 47.8784 1.372L47.6574 1.066L47.8784 0.793999H53.0804C54.055 0.793999 54.701 0.674999 55.0184 0.437L55.3244 0.215999L55.5964 0.437V3.463L55.0184 3.667L54.9164 3.276C54.8144 2.868 54.6954 2.55633 54.5594 2.341C54.4234 2.12567 54.242 1.97833 54.0154 1.899C53.7887 1.80833 53.4714 1.763 53.0634 1.763H51.4144C50.9724 1.763 50.6777 1.848 50.5304 2.018C50.3944 2.17667 50.3264 2.52233 50.3264 3.055V6.319H52.4854C52.746 6.319 52.9784 6.26233 53.1824 6.149C53.3977 6.03567 53.613 5.83167 53.8284 5.537L53.9644 5.35L54.3044 5.537V8.444L53.7264 8.648L53.6244 8.257C53.5224 7.86033 53.3354 7.59967 53.0634 7.475C52.8027 7.35033 52.372 7.288 51.7714 7.288H50.3264V10.739C50.3264 11.2603 50.3944 11.606 50.5304 11.776C50.6777 11.946 50.9724 12.031 51.4144 12.031H53.2504C53.6584 12.031 53.9757 11.9913 54.2024 11.912C54.429 11.8213 54.6104 11.6683 54.7464 11.453C54.8824 11.2263 55.0014 10.9147 55.1034 10.518L55.2054 10.127L55.7834 10.331V13.238L55.4434 13.425ZM62.103 8.716C62.103 8.512 62.137 8.29667 62.205 8.07C62.273 7.832 62.3863 7.65067 62.545 7.526L67.016 7.356C67.016 7.56 66.982 7.781 66.914 8.019C66.8573 8.24567 66.744 8.42133 66.574 8.546L62.103 8.716ZM72.7086 13L72.5216 12.422L72.9126 12.32C73.3433 12.1953 73.6436 12.031 73.8136 11.827C73.9836 11.623 74.0856 11.2603 74.1196 10.739L74.5786 4.007C74.5899 3.96167 74.6013 3.854 74.6126 3.684C74.6239 3.50267 74.6353 3.31567 74.6466 3.123C74.6579 2.93033 74.6636 2.78867 74.6636 2.698C74.6636 2.30133 74.5899 2.02367 74.4426 1.865C74.3066 1.695 74.0516 1.56467 73.6776 1.474L73.2866 1.372L73.4736 0.793999H76.5676L80.0696 9.345L83.6736 0.793999H86.1216L86.3766 1.066L86.1726 1.372C85.9573 1.678 85.7986 1.99533 85.6966 2.324C85.6059 2.64133 85.5606 3.038 85.5606 3.514C85.5606 3.582 85.5663 3.72367 85.5776 3.939C85.5889 4.15433 85.6003 4.36967 85.6116 4.585C85.6343 4.80033 85.6456 4.95333 85.6456 5.044L85.9856 9.702C86.0423 10.3933 86.1556 10.977 86.3256 11.453C86.4956 11.9177 86.7733 12.3427 87.1586 12.728L86.9376 13H83.2146L83.0106 12.422L83.4016 12.32C83.7643 12.2067 84.0136 12.065 84.1496 11.895C84.2969 11.7137 84.3706 11.4473 84.3706 11.096C84.3706 11.0167 84.3649 10.9147 84.3536 10.79C84.3536 10.6653 84.3479 10.5577 84.3366 10.467L83.8436 3.378L80.2906 11.776H79.3726L75.8196 3.378L75.4456 8.614C75.4343 8.80667 75.4173 9.022 75.3946 9.26C75.3833 9.498 75.3719 9.71333 75.3606 9.906C75.3493 10.0873 75.3436 10.212 75.3436 10.28C75.3436 10.756 75.3889 11.1583 75.4796 11.487C75.5816 11.8043 75.7403 12.116 75.9556 12.422L76.1596 12.728L75.9046 13H72.7086ZM87.8539 13L87.6499 12.422L88.0409 12.32C88.3469 12.2407 88.5905 12.1443 88.7719 12.031C88.9532 11.9177 89.1062 11.7647 89.2309 11.572C89.3669 11.368 89.4915 11.0903 89.6049 10.739L92.2739 3.055C92.3305 2.87367 92.3759 2.72067 92.4099 2.596C92.4439 2.46 92.4609 2.33533 92.4609 2.222C92.4609 2.00667 92.3985 1.848 92.2739 1.746C92.1492 1.63267 91.9565 1.542 91.6959 1.474L91.3049 1.372L91.5089 0.793999H94.7899L98.2069 10.654C98.3429 11.028 98.4789 11.334 98.6149 11.572C98.7622 11.81 98.9265 12.014 99.1079 12.184C99.2892 12.354 99.4989 12.5353 99.7369 12.728L99.5159 13H95.6909L95.4869 12.422L95.8779 12.32C96.1385 12.252 96.3312 12.167 96.4559 12.065C96.5805 11.9517 96.6429 11.7873 96.6429 11.572C96.6429 11.4587 96.6259 11.3397 96.5919 11.215C96.5579 11.079 96.5125 10.9203 96.4559 10.739L95.6399 8.359H91.7129L91.3049 9.6C91.1802 9.98533 91.0839 10.3197 91.0159 10.603C90.9479 10.8863 90.9139 11.147 90.9139 11.385C90.9139 11.7703 90.9932 12.116 91.1519 12.422L91.3049 12.728L90.9819 13H87.8539ZM92.0699 7.305H95.2829L93.6509 2.545L92.0699 7.305ZM100.809 13L100.605 12.422L100.996 12.32C101.426 12.2067 101.715 12.048 101.863 11.844C102.01 11.6287 102.084 11.2603 102.084 10.739V3.055C102.084 2.52233 102.01 2.154 101.863 1.95C101.715 1.746 101.426 1.58733 100.996 1.474L100.605 1.372L100.809 0.793999H104.532L104.753 1.066L104.532 1.372C104.26 1.75733 104.061 2.154 103.937 2.562C103.823 2.97 103.767 3.51967 103.767 4.211V10.858C103.767 11.3567 103.835 11.7023 103.971 11.895C104.118 12.0763 104.396 12.2293 104.804 12.354L105.161 12.456L104.974 13H100.809ZM114.52 13.425L114.384 13.238C114.259 13.0793 114.021 13 113.67 13H106.87L106.683 12.456L107.04 12.354C107.448 12.2293 107.72 12.0763 107.856 11.895C108.003 11.7023 108.077 11.3567 108.077 10.858V3.055C108.077 2.52233 108.003 2.154 107.856 1.95C107.709 1.746 107.42 1.58733 106.989 1.474L106.598 1.372L106.802 0.793999H110.525L110.746 1.066L110.525 1.372C110.253 1.75733 110.055 2.154 109.93 2.562C109.817 2.97 109.76 3.51967 109.76 4.211V10.739C109.76 11.2603 109.828 11.606 109.964 11.776C110.111 11.946 110.406 12.031 110.848 12.031H112.327C112.735 12.031 113.052 11.9913 113.279 11.912C113.506 11.8213 113.687 11.6683 113.823 11.453C113.959 11.2263 114.078 10.9147 114.18 10.518L114.282 10.127L114.86 10.331V13.238L114.52 13.425Z" fill="#A09081"/>
</svg>
