<svg width="186" height="18" viewBox="0 0 186 18" fill="none" xmlns="http://www.w3.org/2000/svg">
<path d="M0.969 13L0.765 12.422L1.156 12.32C1.58667 12.1953 1.87567 12.031 2.023 11.827C2.17033 11.623 2.244 11.2603 2.244 10.739V2.341C2.244 2.069 2.11933 1.933 1.87 1.933H0.884L0.68 1.304C0.974667 1.19067 1.34867 1.07733 1.802 0.964C2.26667 0.850666 2.76533 0.754333 3.298 0.675C3.842 0.595666 4.37467 0.555999 4.896 0.555999C5.99533 0.555999 6.87933 0.708999 7.548 1.015C8.228 1.30967 8.721 1.712 9.027 2.222C9.34433 2.732 9.503 3.293 9.503 3.905C9.503 4.50567 9.35567 5.06667 9.061 5.588C8.77767 6.10933 8.33 6.51733 7.718 6.812C8.48867 7.06133 9.08367 7.44667 9.503 7.968C9.92233 8.478 10.132 9.039 10.132 9.651C10.132 10.297 9.98467 10.875 9.69 11.385C9.40667 11.8837 8.942 12.2803 8.296 12.575C7.65 12.8583 6.78867 13 5.712 13H0.969ZM5.814 12.116C6.63 12.116 7.259 11.878 7.701 11.402C8.143 10.9147 8.364 10.3027 8.364 9.566C8.364 9.13533 8.25633 8.74433 8.041 8.393C7.82567 8.03033 7.514 7.74133 7.106 7.526C6.70933 7.31067 6.22767 7.203 5.661 7.203C5.457 7.203 5.253 7.18033 5.049 7.135C4.845 7.08967 4.68067 7.03867 4.556 6.982C4.46533 6.93667 4.39733 6.88 4.352 6.812C4.318 6.744 4.301 6.676 4.301 6.608C4.301 6.404 4.38033 6.302 4.539 6.302C4.607 6.302 4.69767 6.32467 4.811 6.37C4.93567 6.404 5.12833 6.421 5.389 6.421C6.171 6.421 6.77167 6.18867 7.191 5.724C7.61033 5.25933 7.82 4.66433 7.82 3.939C7.82 3.24767 7.58767 2.66967 7.123 2.205C6.65833 1.74033 5.97267 1.508 5.066 1.508C4.726 1.508 4.47667 1.55333 4.318 1.644C4.15933 1.72333 4.05167 1.82533 3.995 1.95C3.94967 2.07467 3.927 2.188 3.927 2.29V9.889C3.927 10.4217 3.98933 10.841 4.114 11.147C4.25 11.4417 4.42 11.6627 4.624 11.81C4.828 11.946 5.032 12.031 5.236 12.065C5.45133 12.099 5.644 12.116 5.814 12.116ZM15.9352 13.238C15.1419 13.238 14.4336 13.0453 13.8102 12.66C13.1982 12.2747 12.7166 11.7477 12.3652 11.079C12.0139 10.4103 11.8382 9.651 11.8382 8.801C11.8382 7.89433 12.0082 7.10667 12.3482 6.438C12.6882 5.76933 13.1642 5.25367 13.7762 4.891C14.3996 4.517 15.1249 4.33 15.9522 4.33C16.8249 4.33 17.5389 4.54533 18.0942 4.976C18.6609 5.39533 18.9442 5.93933 18.9442 6.608C18.9442 7.09533 18.7856 7.49767 18.4682 7.815C18.1622 8.121 17.7656 8.274 17.2782 8.274C17.0629 8.274 16.9552 8.21167 16.9552 8.087C16.9552 8.03033 16.9892 7.95667 17.0572 7.866C17.1252 7.77533 17.1932 7.63933 17.2612 7.458C17.3292 7.26533 17.3632 7.01033 17.3632 6.693C17.3632 6.23967 17.2159 5.88267 16.9212 5.622C16.6379 5.35 16.2526 5.214 15.7652 5.214C15.1192 5.214 14.5979 5.53133 14.2012 6.166C13.8046 6.80067 13.6062 7.63367 13.6062 8.665C13.6062 9.719 13.8386 10.5577 14.3032 11.181C14.7792 11.793 15.4196 12.099 16.2242 12.099C17.0402 12.099 17.7882 11.8157 18.4682 11.249C18.5022 11.215 18.5532 11.198 18.6212 11.198C18.7119 11.198 18.8026 11.249 18.8932 11.351C18.9952 11.453 19.0462 11.5607 19.0462 11.674C19.0462 11.742 19.0292 11.793 18.9952 11.827C18.5986 12.2803 18.1339 12.6317 17.6012 12.881C17.0799 13.119 16.5246 13.238 15.9352 13.238ZM24.3977 13.238C23.6043 13.238 22.913 13.0567 22.3237 12.694C21.7457 12.3313 21.2923 11.827 20.9637 11.181C20.6463 10.5237 20.4877 9.75867 20.4877 8.886C20.4877 7.968 20.669 7.169 21.0317 6.489C21.3943 5.809 21.9043 5.282 22.5617 4.908C23.2303 4.52267 24.0067 4.33 24.8907 4.33C25.548 4.33 26.0863 4.449 26.5057 4.687C26.9363 4.925 27.2537 5.23667 27.4577 5.622C27.673 5.996 27.7807 6.39833 27.7807 6.829C27.7807 7.29367 27.656 7.747 27.4067 8.189C27.1687 8.631 26.806 8.99367 26.3187 9.277C25.8427 9.56033 25.2477 9.702 24.5337 9.702C24.4203 9.702 24.256 9.69067 24.0407 9.668C23.8367 9.634 23.627 9.58867 23.4117 9.532C23.2077 9.464 23.032 9.379 22.8847 9.277C22.7373 9.175 22.6637 9.05033 22.6637 8.903C22.6637 8.81233 22.6863 8.72733 22.7317 8.648C22.7883 8.56867 22.8507 8.529 22.9187 8.529C23.0093 8.529 23.1227 8.56867 23.2587 8.648C23.406 8.716 23.6553 8.75 24.0067 8.75C24.494 8.75 24.8963 8.65933 25.2137 8.478C25.531 8.28533 25.769 8.04167 25.9277 7.747C26.0863 7.441 26.1657 7.12933 26.1657 6.812C26.1657 6.39267 26.0297 6.01867 25.7577 5.69C25.4857 5.35 25.0833 5.18 24.5507 5.18C23.8253 5.18 23.2587 5.49733 22.8507 6.132C22.4427 6.76667 22.2387 7.68467 22.2387 8.886C22.2387 9.88333 22.4483 10.671 22.8677 11.249C23.2983 11.827 23.9273 12.116 24.7547 12.116C25.2307 12.116 25.6783 12.0367 26.0977 11.878C26.517 11.7193 26.8967 11.4757 27.2367 11.147C27.282 11.1017 27.333 11.079 27.3897 11.079C27.4803 11.079 27.5767 11.1357 27.6787 11.249C27.7807 11.351 27.8317 11.4587 27.8317 11.572C27.8317 11.6287 27.809 11.6797 27.7637 11.725C26.891 12.7337 25.769 13.238 24.3977 13.238ZM34.3883 13L34.1673 12.728L34.3883 12.422C34.6717 12.048 34.8643 11.657 34.9663 11.249C35.0797 10.8297 35.1363 10.2743 35.1363 9.583V7.985C35.1363 7.28233 35.0797 6.72133 34.9663 6.302C34.8643 5.88267 34.6717 5.49733 34.3883 5.146L34.1673 4.806L34.3883 4.551H42.8033L43.0243 4.806L42.8033 5.146C42.52 5.49733 42.3217 5.88267 42.2083 6.302C42.1063 6.72133 42.0553 7.28233 42.0553 7.985V10.858C42.0553 11.3567 42.1233 11.7023 42.2593 11.895C42.3953 12.0877 42.6673 12.2407 43.0753 12.354L43.4493 12.456L43.2453 13H39.2503L39.0293 12.422L39.4373 12.32C39.7207 12.2293 39.936 12.133 40.0833 12.031C40.242 11.929 40.3497 11.7817 40.4063 11.589C40.4743 11.385 40.5083 11.1017 40.5083 10.739V6.795C40.5083 6.26233 40.4347 5.911 40.2873 5.741C40.1513 5.571 39.868 5.486 39.4373 5.486H37.7543C37.3123 5.486 37.0177 5.571 36.8703 5.741C36.7343 5.911 36.6663 6.26233 36.6663 6.795V10.739C36.6663 11.1017 36.6947 11.385 36.7513 11.589C36.8193 11.7817 36.9327 11.929 37.0913 12.031C37.25 12.133 37.471 12.2293 37.7543 12.32L38.1623 12.422L37.9413 13H34.3883ZM45.417 17.522L45.213 17.267L45.417 16.995C45.621 16.7003 45.7626 16.3943 45.842 16.077C45.9213 15.7597 45.961 15.3347 45.961 14.802V6.523C45.961 6.353 45.9383 6.22833 45.893 6.149C45.8476 6.05833 45.7513 5.996 45.604 5.962L44.72 5.775V5.214C44.8446 5.10067 45.043 4.993 45.315 4.891C45.5983 4.789 45.8986 4.704 46.216 4.636C46.5446 4.568 46.8336 4.534 47.083 4.534C47.355 4.534 47.491 4.79467 47.491 5.316V5.401C48.2276 4.687 49.0436 4.33 49.939 4.33C50.653 4.33 51.282 4.50567 51.826 4.857C52.37 5.20833 52.795 5.69567 53.101 6.319C53.407 6.931 53.56 7.63933 53.56 8.444C53.56 9.362 53.3956 10.1837 53.067 10.909C52.7496 11.623 52.3076 12.1897 51.741 12.609C51.1856 13.0283 50.5453 13.238 49.82 13.238C49.1513 13.238 48.5846 13.085 48.12 12.779C48.018 12.711 47.967 12.609 47.967 12.473C47.967 12.371 47.984 12.2747 48.018 12.184C48.0633 12.0933 48.1313 12.048 48.222 12.048C48.3126 12.048 48.4373 12.0933 48.596 12.184C48.766 12.2747 49.0436 12.32 49.429 12.32C49.8823 12.32 50.2846 12.167 50.636 11.861C50.9873 11.555 51.2593 11.1357 51.452 10.603C51.656 10.0703 51.758 9.464 51.758 8.784C51.758 8.12667 51.656 7.54867 51.452 7.05C51.2593 6.55133 50.9816 6.16033 50.619 5.877C50.2676 5.59367 49.8596 5.452 49.395 5.452C48.7036 5.452 48.069 5.673 47.491 6.115V15.635C47.491 16.0543 47.5363 16.3547 47.627 16.536C47.729 16.7173 47.9216 16.842 48.205 16.91L48.562 16.995L48.375 17.522H45.417ZM58.1283 13.238C57.5956 13.238 57.097 13.085 56.6323 12.779C56.1676 12.473 55.7936 12.014 55.5103 11.402C55.227 10.79 55.0853 10.025 55.0853 9.107C55.0853 8.121 55.261 7.271 55.6123 6.557C55.975 5.843 56.485 5.29333 57.1423 4.908C57.811 4.52267 58.593 4.33 59.4883 4.33C60.021 4.33 60.5763 4.39233 61.1543 4.517C61.7323 4.63033 62.3103 4.70967 62.8883 4.755L63.0753 4.976L62.8713 5.282C62.8033 5.384 62.7466 5.486 62.7013 5.588C62.6673 5.67867 62.6503 5.79767 62.6503 5.945V11.504C62.6503 11.8553 62.8203 12.031 63.1603 12.031C63.4436 12.031 63.727 11.929 64.0103 11.725L64.3333 12.167C64.0386 12.4957 63.7213 12.7563 63.3813 12.949C63.0526 13.1417 62.741 13.238 62.4463 13.238C61.9816 13.238 61.6473 13.0963 61.4433 12.813C61.2393 12.5297 61.1373 12.0707 61.1373 11.436C60.65 12.1273 60.157 12.6033 59.6583 12.864C59.171 13.1133 58.661 13.238 58.1283 13.238ZM58.8083 11.929C59.239 11.929 59.6526 11.8043 60.0493 11.555C60.4573 11.3057 60.82 10.9147 61.1373 10.382V5.792C60.616 5.44067 60.0606 5.265 59.4713 5.265C58.644 5.265 58.0036 5.57667 57.5503 6.2C57.097 6.812 56.8703 7.67333 56.8703 8.784C56.8703 9.55467 56.961 10.1723 57.1423 10.637C57.3236 11.0903 57.5616 11.419 57.8563 11.623C58.1623 11.827 58.4796 11.929 58.8083 11.929ZM65.0561 13L64.8861 12.456L65.2261 12.354C65.6227 12.2293 65.8891 12.0763 66.0251 11.895C66.1611 11.7137 66.2291 11.3793 66.2291 10.892V5.979C66.2291 5.83167 66.2007 5.73533 66.1441 5.69C66.0987 5.64467 66.0194 5.622 65.9061 5.622H64.9881L64.8011 5.027C65.0844 4.91367 65.4471 4.806 65.8891 4.704C66.3424 4.602 66.8297 4.517 67.3511 4.449C67.8837 4.381 68.4051 4.347 68.9151 4.347C70.3317 4.347 71.3631 4.55667 72.0091 4.976C72.6551 5.384 72.9781 5.945 72.9781 6.659C72.9781 7.07833 72.8704 7.458 72.6551 7.798C72.4397 8.138 72.1507 8.41 71.7881 8.614C72.3547 8.77267 72.7911 9.022 73.0971 9.362C73.4031 9.702 73.5561 10.1213 73.5561 10.62C73.5561 11.4473 73.2217 12.0537 72.5531 12.439C71.8844 12.813 70.9267 13 69.6801 13H65.0561ZM69.7141 12.15C70.0427 12.15 70.3657 12.099 70.6831 11.997C71.0004 11.8837 71.2611 11.708 71.4651 11.47C71.6804 11.232 71.7881 10.926 71.7881 10.552C71.7881 10.0873 71.6011 9.73033 71.2271 9.481C70.8644 9.22033 70.3771 9.09 69.7651 9.09H69.6461C69.3061 9.09 69.0114 9.04467 68.7621 8.954C68.5127 8.86333 68.3881 8.733 68.3881 8.563C68.3881 8.359 68.4504 8.257 68.5751 8.257C68.6317 8.257 68.7167 8.27967 68.8301 8.325C68.9547 8.359 69.1361 8.376 69.3741 8.376C69.9861 8.376 70.4621 8.24 70.8021 7.968C71.1421 7.68467 71.3121 7.29933 71.3121 6.812C71.3121 6.336 71.1307 5.95633 70.7681 5.673C70.4054 5.37833 69.8387 5.231 69.0681 5.231C68.6827 5.231 68.3937 5.27067 68.2011 5.35C68.0197 5.42933 67.9007 5.52567 67.8441 5.639C67.7987 5.741 67.7761 5.843 67.7761 5.945V10.144C67.7761 10.6313 67.8441 11.011 67.9801 11.283C68.1161 11.555 68.2861 11.7533 68.4901 11.878C68.6941 12.0027 68.9037 12.082 69.1191 12.116C69.3457 12.1387 69.5441 12.15 69.7141 12.15ZM78.1 13.238C77.5673 13.238 77.0687 13.085 76.604 12.779C76.1393 12.473 75.7653 12.014 75.482 11.402C75.1987 10.79 75.057 10.025 75.057 9.107C75.057 8.121 75.2327 7.271 75.584 6.557C75.9467 5.843 76.4567 5.29333 77.114 4.908C77.7827 4.52267 78.5647 4.33 79.46 4.33C79.9927 4.33 80.548 4.39233 81.126 4.517C81.704 4.63033 82.282 4.70967 82.86 4.755L83.047 4.976L82.843 5.282C82.775 5.384 82.7183 5.486 82.673 5.588C82.639 5.67867 82.622 5.79767 82.622 5.945V11.504C82.622 11.8553 82.792 12.031 83.132 12.031C83.4153 12.031 83.6987 11.929 83.982 11.725L84.305 12.167C84.0103 12.4957 83.693 12.7563 83.353 12.949C83.0243 13.1417 82.7127 13.238 82.418 13.238C81.9533 13.238 81.619 13.0963 81.415 12.813C81.211 12.5297 81.109 12.0707 81.109 11.436C80.6217 12.1273 80.1287 12.6033 79.63 12.864C79.1427 13.1133 78.6327 13.238 78.1 13.238ZM78.78 11.929C79.2107 11.929 79.6243 11.8043 80.021 11.555C80.429 11.3057 80.7917 10.9147 81.109 10.382V5.792C80.5877 5.44067 80.0323 5.265 79.443 5.265C78.6157 5.265 77.9753 5.57667 77.522 6.2C77.0687 6.812 76.842 7.67333 76.842 8.784C76.842 9.55467 76.9327 10.1723 77.114 10.637C77.2953 11.0903 77.5333 11.419 77.828 11.623C78.134 11.827 78.4513 11.929 78.78 11.929ZM93.1264 13.238C92.5597 13.238 92.0271 13.1587 91.5284 13C91.0297 12.8413 90.6274 12.6033 90.3214 12.286C90.0154 11.9687 89.8624 11.5777 89.8624 11.113C89.8624 10.7617 89.9814 10.4727 90.2194 10.246C90.4687 10.008 90.7691 9.889 91.1204 9.889C91.2111 9.889 91.2961 9.906 91.3754 9.94C91.4547 9.96267 91.4944 10.008 91.4944 10.076C91.4944 10.178 91.4661 10.2913 91.4094 10.416C91.3527 10.5407 91.3244 10.7503 91.3244 11.045C91.3244 11.4643 91.4887 11.7817 91.8174 11.997C92.1461 12.2123 92.5824 12.32 93.1264 12.32C93.7724 12.32 94.2654 12.184 94.6054 11.912C94.9454 11.6287 95.1154 11.1753 95.1154 10.552C95.1154 10.0193 94.9057 9.617 94.4864 9.345C94.0784 9.06167 93.5401 8.91433 92.8714 8.903H92.7014C92.5541 8.903 92.4521 8.87467 92.3954 8.818C92.3501 8.75 92.3274 8.67633 92.3274 8.597C92.3274 8.461 92.4011 8.36467 92.5484 8.308C92.7071 8.24 92.9337 8.17767 93.2284 8.121C93.9084 8.00767 94.3674 7.82067 94.6054 7.56C94.8434 7.288 94.9624 6.94233 94.9624 6.523C94.9624 6.19433 94.8151 5.89967 94.5204 5.639C94.2371 5.37833 93.7951 5.248 93.1944 5.248C92.6957 5.248 92.2481 5.37833 91.8514 5.639C91.4661 5.88833 91.1771 6.336 90.9844 6.982L90.8654 7.339L90.3724 7.169V4.381L90.5934 4.16L90.8654 4.381C90.9674 4.449 91.0637 4.49433 91.1544 4.517C91.2564 4.53967 91.3641 4.551 91.4774 4.551C91.6927 4.551 91.9364 4.517 92.2084 4.449C92.4804 4.381 92.8147 4.347 93.2114 4.347C94.3334 4.347 95.1494 4.534 95.6594 4.908C96.1807 5.27067 96.4414 5.76933 96.4414 6.404C96.4414 7.424 95.8691 8.104 94.7244 8.444C95.4724 8.65933 95.9994 8.97667 96.3054 9.396C96.6114 9.804 96.7644 10.2347 96.7644 10.688C96.7644 11.1073 96.6284 11.5153 96.3564 11.912C96.0957 12.2973 95.6934 12.6147 95.1494 12.864C94.6167 13.1133 93.9424 13.238 93.1264 13.238ZM101.16 13.238C100.627 13.238 100.128 13.085 99.6636 12.779C99.1989 12.473 98.8249 12.014 98.5416 11.402C98.2582 10.79 98.1166 10.025 98.1166 9.107C98.1166 8.121 98.2922 7.271 98.6436 6.557C99.0062 5.843 99.5162 5.29333 100.174 4.908C100.842 4.52267 101.624 4.33 102.52 4.33C103.052 4.33 103.608 4.39233 104.186 4.517C104.764 4.63033 105.342 4.70967 105.92 4.755L106.107 4.976L105.903 5.282C105.835 5.384 105.778 5.486 105.733 5.588C105.699 5.67867 105.682 5.79767 105.682 5.945V11.504C105.682 11.8553 105.852 12.031 106.192 12.031C106.475 12.031 106.758 11.929 107.042 11.725L107.365 12.167C107.07 12.4957 106.753 12.7563 106.413 12.949C106.084 13.1417 105.772 13.238 105.478 13.238C105.013 13.238 104.679 13.0963 104.475 12.813C104.271 12.5297 104.169 12.0707 104.169 11.436C103.681 12.1273 103.188 12.6033 102.69 12.864C102.202 13.1133 101.692 13.238 101.16 13.238ZM101.84 11.929C102.27 11.929 102.684 11.8043 103.081 11.555C103.489 11.3057 103.851 10.9147 104.169 10.382V5.792C103.647 5.44067 103.092 5.265 102.503 5.265C101.675 5.265 101.035 5.57667 100.582 6.2C100.128 6.812 99.9016 7.67333 99.9016 8.784C99.9016 9.55467 99.9922 10.1723 100.174 10.637C100.355 11.0903 100.593 11.419 100.888 11.623C101.194 11.827 101.511 11.929 101.84 11.929ZM122.707 16.06L122.622 15.686C122.407 14.7793 122.135 14.105 121.806 13.663C121.489 13.221 120.973 13 120.259 13H108.563L108.376 12.473L108.75 12.371C109.147 12.2803 109.408 12.1387 109.532 11.946C109.657 11.7533 109.719 11.4133 109.719 10.926V6.625C109.719 6.13767 109.657 5.80333 109.532 5.622C109.408 5.44067 109.147 5.29333 108.75 5.18L108.376 5.061L108.563 4.551H111.997L112.167 4.806L111.997 5.061C111.737 5.41233 111.55 5.78067 111.436 6.166C111.323 6.55133 111.266 7.06133 111.266 7.696V10.926C111.266 11.4133 111.334 11.7363 111.47 11.895C111.606 12.0423 111.878 12.116 112.286 12.116H113.901C114.309 12.116 114.593 12.0423 114.751 11.895C114.91 11.7363 114.989 11.4133 114.989 10.926V6.625C114.989 6.13767 114.916 5.80333 114.768 5.622C114.632 5.44067 114.366 5.29333 113.969 5.18L113.629 5.061L113.799 4.551H117.165L117.369 4.806L117.165 5.061C116.905 5.41233 116.718 5.78067 116.604 6.166C116.502 6.55133 116.451 7.06133 116.451 7.696V11.045C116.451 11.5097 116.514 11.8043 116.638 11.929C116.774 12.0537 117.041 12.116 117.437 12.116H119.154C119.574 12.116 119.846 12.0423 119.97 11.895C120.095 11.7363 120.157 11.4133 120.157 10.926V6.625C120.157 6.13767 120.089 5.80333 119.953 5.622C119.817 5.44067 119.551 5.29333 119.154 5.18L118.797 5.061L118.967 4.551H122.418L122.622 4.806L122.418 5.061C122.158 5.41233 121.971 5.78067 121.857 6.166C121.755 6.55133 121.704 7.06133 121.704 7.696V11.368C121.704 11.708 121.857 11.9573 122.163 12.116C122.469 12.2633 122.832 12.337 123.251 12.337V15.856L122.707 16.06ZM124.617 13L124.447 12.473L124.787 12.354C125.183 12.2407 125.444 12.099 125.569 11.929C125.705 11.7477 125.773 11.4133 125.773 10.926V6.625C125.773 6.13767 125.705 5.80333 125.569 5.622C125.444 5.44067 125.183 5.29333 124.787 5.18L124.447 5.061L124.617 4.551H128.034L128.238 4.789L128.034 5.061C127.784 5.41233 127.603 5.78067 127.49 6.166C127.376 6.54 127.32 7.05 127.32 7.696V10.093L131.417 6.217C131.36 5.85433 131.258 5.61067 131.111 5.486C130.975 5.36133 130.776 5.25933 130.516 5.18L130.176 5.061L130.346 4.551H133.763L133.95 4.789L133.763 5.061C133.513 5.41233 133.332 5.78067 133.219 6.166C133.105 6.54 133.049 7.05 133.049 7.696V11.045C133.049 11.3623 133.077 11.606 133.134 11.776C133.19 11.9347 133.287 12.0593 133.423 12.15C133.57 12.2293 133.763 12.3087 134.001 12.388L134.341 12.49L134.171 13H130.346L130.176 12.473L130.516 12.354C130.912 12.2407 131.179 12.099 131.315 11.929C131.451 11.7477 131.519 11.4133 131.519 10.926V7.509L127.405 11.368C127.461 11.742 127.558 11.9913 127.694 12.116C127.841 12.2407 128.039 12.3313 128.289 12.388L128.612 12.49L128.459 13H124.617ZM150.2 16.06L150.115 15.686C149.899 14.7793 149.627 14.105 149.299 13.663C148.981 13.221 148.466 13 147.752 13H136.056L135.869 12.473L136.243 12.371C136.639 12.2803 136.9 12.1387 137.025 11.946C137.149 11.7533 137.212 11.4133 137.212 10.926V6.625C137.212 6.13767 137.149 5.80333 137.025 5.622C136.9 5.44067 136.639 5.29333 136.243 5.18L135.869 5.061L136.056 4.551H139.49L139.66 4.806L139.49 5.061C139.229 5.41233 139.042 5.78067 138.929 6.166C138.815 6.55133 138.759 7.06133 138.759 7.696V10.926C138.759 11.4133 138.827 11.7363 138.963 11.895C139.099 12.0423 139.371 12.116 139.779 12.116H141.394C141.802 12.116 142.085 12.0423 142.244 11.895C142.402 11.7363 142.482 11.4133 142.482 10.926V6.625C142.482 6.13767 142.408 5.80333 142.261 5.622C142.125 5.44067 141.858 5.29333 141.462 5.18L141.122 5.061L141.292 4.551H144.658L144.862 4.806L144.658 5.061C144.397 5.41233 144.21 5.78067 144.097 6.166C143.995 6.55133 143.944 7.06133 143.944 7.696V11.045C143.944 11.5097 144.006 11.8043 144.131 11.929C144.267 12.0537 144.533 12.116 144.93 12.116H146.647C147.066 12.116 147.338 12.0423 147.463 11.895C147.587 11.7363 147.65 11.4133 147.65 10.926V6.625C147.65 6.13767 147.582 5.80333 147.446 5.622C147.31 5.44067 147.043 5.29333 146.647 5.18L146.29 5.061L146.46 4.551H149.911L150.115 4.806L149.911 5.061C149.65 5.41233 149.463 5.78067 149.35 6.166C149.248 6.55133 149.197 7.06133 149.197 7.696V11.368C149.197 11.708 149.35 11.9573 149.656 12.116C149.962 12.2633 150.324 12.337 150.744 12.337V15.856L150.2 16.06ZM155.849 13.238C155.055 13.238 154.364 13.0567 153.775 12.694C153.197 12.3313 152.743 11.827 152.415 11.181C152.097 10.5237 151.939 9.75867 151.939 8.886C151.939 7.968 152.12 7.169 152.483 6.489C152.845 5.809 153.355 5.282 154.013 4.908C154.681 4.52267 155.458 4.33 156.342 4.33C156.999 4.33 157.537 4.449 157.957 4.687C158.387 4.925 158.705 5.23667 158.909 5.622C159.124 5.996 159.232 6.39833 159.232 6.829C159.232 7.29367 159.107 7.747 158.858 8.189C158.62 8.631 158.257 8.99367 157.77 9.277C157.294 9.56033 156.699 9.702 155.985 9.702C155.871 9.702 155.707 9.69067 155.492 9.668C155.288 9.634 155.078 9.58867 154.863 9.532C154.659 9.464 154.483 9.379 154.336 9.277C154.188 9.175 154.115 9.05033 154.115 8.903C154.115 8.81233 154.137 8.72733 154.183 8.648C154.239 8.56867 154.302 8.529 154.37 8.529C154.46 8.529 154.574 8.56867 154.71 8.648C154.857 8.716 155.106 8.75 155.458 8.75C155.945 8.75 156.347 8.65933 156.665 8.478C156.982 8.28533 157.22 8.04167 157.379 7.747C157.537 7.441 157.617 7.12933 157.617 6.812C157.617 6.39267 157.481 6.01867 157.209 5.69C156.937 5.35 156.534 5.18 156.002 5.18C155.276 5.18 154.71 5.49733 154.302 6.132C153.894 6.76667 153.69 7.68467 153.69 8.886C153.69 9.88333 153.899 10.671 154.319 11.249C154.749 11.827 155.378 12.116 156.206 12.116C156.682 12.116 157.129 12.0367 157.549 11.878C157.968 11.7193 158.348 11.4757 158.688 11.147C158.733 11.1017 158.784 11.079 158.841 11.079C158.931 11.079 159.028 11.1357 159.13 11.249C159.232 11.351 159.283 11.4587 159.283 11.572C159.283 11.6287 159.26 11.6797 159.215 11.725C158.342 12.7337 157.22 13.238 155.849 13.238ZM161.124 13L160.937 12.473L161.277 12.354C161.674 12.2407 161.94 12.099 162.076 11.929C162.212 11.7477 162.28 11.4133 162.28 10.926V6.625C162.28 6.13767 162.212 5.80333 162.076 5.622C161.94 5.44067 161.674 5.29333 161.277 5.18L160.937 5.061L161.124 4.551H164.507L164.711 4.789L164.507 5.061C164.258 5.401 164.076 5.76933 163.963 6.166C163.861 6.55133 163.81 7.06133 163.81 7.696V8.257H167.907V6.625C167.907 6.13767 167.839 5.80333 167.703 5.622C167.567 5.44067 167.301 5.29333 166.904 5.18L166.53 5.061L166.734 4.551H170.117L170.338 4.789L170.117 5.061C169.868 5.401 169.692 5.76933 169.59 6.166C169.488 6.55133 169.437 7.06133 169.437 7.696V11.045C169.437 11.5097 169.499 11.8213 169.624 11.98C169.76 12.1387 170.009 12.2747 170.372 12.388L170.678 12.49L170.525 13H166.734L166.53 12.473L166.904 12.354C167.301 12.2407 167.567 12.099 167.703 11.929C167.839 11.7477 167.907 11.4133 167.907 10.926V9.243H163.81V11.045C163.81 11.5097 163.878 11.8213 164.014 11.98C164.15 12.1387 164.399 12.2747 164.762 12.388L165.102 12.49L164.932 13H161.124ZM172.396 13L172.209 12.473L172.566 12.354C172.94 12.2407 173.195 12.0933 173.331 11.912C173.479 11.7307 173.552 11.402 173.552 10.926V6.625C173.552 6.16033 173.479 5.83167 173.331 5.639C173.195 5.44633 172.94 5.29333 172.566 5.18L172.209 5.061L172.396 4.551H175.796L176 4.789L175.796 5.061C175.547 5.41233 175.366 5.78067 175.252 6.166C175.139 6.55133 175.082 7.06133 175.082 7.696V9.855C175.082 10.4103 175.145 10.8467 175.269 11.164C175.394 11.4813 175.553 11.7137 175.745 11.861C175.949 11.997 176.165 12.082 176.391 12.116C176.618 12.15 176.833 12.167 177.037 12.167C177.536 12.167 177.944 12.0083 178.261 11.691C178.59 11.3623 178.754 10.943 178.754 10.433C178.754 9.96833 178.573 9.57733 178.21 9.26C177.859 8.93133 177.4 8.767 176.833 8.767C176.459 8.767 176.199 8.79533 176.051 8.852C175.915 8.90867 175.796 8.937 175.694 8.937C175.626 8.937 175.575 8.903 175.541 8.835C175.507 8.75567 175.49 8.67633 175.49 8.597C175.49 8.44967 175.575 8.33633 175.745 8.257C175.915 8.16633 176.125 8.104 176.374 8.07C176.624 8.02467 176.873 8.002 177.122 8.002C177.859 8.002 178.477 8.121 178.975 8.359C179.474 8.58567 179.854 8.886 180.114 9.26C180.375 9.634 180.505 10.042 180.505 10.484C180.505 11.2207 180.216 11.827 179.638 12.303C179.06 12.7677 178.097 13 176.748 13H172.396ZM181.151 13L180.998 12.473L181.355 12.354C181.752 12.2407 182.013 12.099 182.137 11.929C182.273 11.7477 182.341 11.4133 182.341 10.926V6.625C182.341 6.13767 182.273 5.80333 182.137 5.622C182.013 5.44067 181.752 5.29333 181.355 5.18L180.998 5.061L181.151 4.551H184.602L184.789 4.789L184.602 5.061C184.342 5.401 184.155 5.76933 184.041 6.166C183.939 6.55133 183.888 7.06133 183.888 7.696V11.045C183.888 11.5097 183.951 11.8213 184.075 11.98C184.211 12.1387 184.461 12.2747 184.823 12.388L185.146 12.49L184.993 13H181.151Z" fill="#A09081"/>
</svg>
