<svg width="80" height="14" viewBox="0 0 80 14" fill="none" xmlns="http://www.w3.org/2000/svg">
<path d="M0.901 13L0.68 12.728L0.901 12.422C1.173 12.0367 1.37133 11.64 1.496 11.232C1.62067 10.824 1.683 10.2743 1.683 9.583V4.211C1.683 3.531 1.62067 2.987 1.496 2.579C1.37133 2.15967 1.173 1.75733 0.901 1.372L0.68 1.066L0.901 0.793999H5.916C6.868 0.793999 7.50833 0.680666 7.837 0.453999L8.16 0.232999L8.432 0.453999V3.463L7.837 3.667L7.752 3.276C7.66133 2.85667 7.548 2.53933 7.412 2.324C7.276 2.10867 7.089 1.96133 6.851 1.882C6.62433 1.79133 6.307 1.746 5.899 1.746H4.437C3.995 1.746 3.70033 1.831 3.553 2.001C3.417 2.171 3.349 2.52233 3.349 3.055V10.739C3.349 11.1017 3.37733 11.385 3.434 11.589C3.502 11.7817 3.61533 11.929 3.774 12.031C3.93267 12.133 4.15367 12.2293 4.437 12.32L4.845 12.422L4.641 13H0.901ZM10.1454 13.238C9.68075 13.238 9.26708 13.0963 8.90441 12.813C8.55308 12.5297 8.37741 12.1047 8.37741 11.538C8.37741 11.198 8.46241 10.9373 8.63241 10.756C8.79108 10.5747 8.97808 10.484 9.19341 10.484C9.45408 10.484 9.63541 10.688 9.73741 11.096C9.78275 11.2887 9.85641 11.47 9.95841 11.64C10.0604 11.81 10.2077 11.895 10.4004 11.895C10.8424 11.895 11.2164 11.606 11.5224 11.028C11.8284 10.45 12.0947 9.515 12.3214 8.223C12.5594 6.91967 12.7747 5.20267 12.9674 3.072C13.0127 2.57333 12.9221 2.19933 12.6954 1.95C12.4801 1.70067 12.1684 1.53633 11.7604 1.457L11.3524 1.372L11.5734 0.793999H19.2064L19.4104 1.066L19.2064 1.372C18.9231 1.746 18.7191 2.14267 18.5944 2.562C18.4811 2.98133 18.4244 3.531 18.4244 4.211V10.858C18.4244 11.3567 18.4924 11.7023 18.6284 11.895C18.7644 12.0763 19.0421 12.2293 19.4614 12.354L19.8014 12.456L19.6314 13H15.4664L15.2624 12.422L15.6534 12.32C15.9367 12.2293 16.1577 12.133 16.3164 12.031C16.4751 11.929 16.5827 11.7817 16.6394 11.589C16.7074 11.385 16.7414 11.1017 16.7414 10.739V3.055C16.7414 2.52233 16.6677 2.171 16.5204 2.001C16.3844 1.831 16.0954 1.746 15.6534 1.746H15.1604C14.8544 1.746 14.6051 1.79133 14.4124 1.882C14.2311 1.96133 14.1291 2.14267 14.1064 2.426C13.9591 4.20533 13.7891 5.71833 13.5964 6.965C13.4037 8.21167 13.1884 9.24867 12.9504 10.076C12.7237 10.892 12.4631 11.5323 12.1684 11.997C11.8851 12.4503 11.5734 12.7733 11.2334 12.966C10.9047 13.1473 10.5421 13.238 10.1454 13.238ZM20.0365 13L19.8325 12.422L20.2235 12.32C20.5295 12.2407 20.7732 12.1443 20.9545 12.031C21.1358 11.9177 21.2888 11.7647 21.4135 11.572C21.5495 11.368 21.6742 11.0903 21.7875 10.739L24.4565 3.055C24.5132 2.87367 24.5585 2.72067 24.5925 2.596C24.6265 2.46 24.6435 2.33533 24.6435 2.222C24.6435 2.00667 24.5812 1.848 24.4565 1.746C24.3318 1.63267 24.1392 1.542 23.8785 1.474L23.4875 1.372L23.6915 0.793999H26.9725L30.3895 10.654C30.5255 11.028 30.6615 11.334 30.7975 11.572C30.9448 11.81 31.1092 12.014 31.2905 12.184C31.4718 12.354 31.6815 12.5353 31.9195 12.728L31.6985 13H27.8735L27.6695 12.422L28.0605 12.32C28.3212 12.252 28.5138 12.167 28.6385 12.065C28.7632 11.9517 28.8255 11.7873 28.8255 11.572C28.8255 11.4587 28.8085 11.3397 28.7745 11.215C28.7405 11.079 28.6952 10.9203 28.6385 10.739L27.8225 8.359H23.8955L23.4875 9.6C23.3628 9.98533 23.2665 10.3197 23.1985 10.603C23.1305 10.8863 23.0965 11.147 23.0965 11.385C23.0965 11.7703 23.1758 12.116 23.3345 12.422L23.4875 12.728L23.1645 13H20.0365ZM24.2525 7.305H27.4655L25.8335 2.545L24.2525 7.305ZM33.0764 13L32.8724 12.422L33.2634 12.32C33.6941 12.1953 33.9831 12.031 34.1304 11.827C34.2778 11.623 34.3514 11.2603 34.3514 10.739V2.341C34.3514 2.069 34.2268 1.933 33.9774 1.933H32.9914L32.7874 1.304C33.0821 1.19067 33.4561 1.07733 33.9094 0.964C34.3741 0.850666 34.8728 0.754333 35.4054 0.675C35.9494 0.595666 36.4821 0.555999 37.0034 0.555999C38.1028 0.555999 38.9868 0.708999 39.6554 1.015C40.3354 1.30967 40.8284 1.712 41.1344 2.222C41.4518 2.732 41.6104 3.293 41.6104 3.905C41.6104 4.50567 41.4631 5.06667 41.1684 5.588C40.8851 6.10933 40.4374 6.51733 39.8254 6.812C40.5961 7.06133 41.1911 7.44667 41.6104 7.968C42.0298 8.478 42.2394 9.039 42.2394 9.651C42.2394 10.297 42.0921 10.875 41.7974 11.385C41.5141 11.8837 41.0494 12.2803 40.4034 12.575C39.7574 12.8583 38.8961 13 37.8194 13H33.0764ZM37.9214 12.116C38.7374 12.116 39.3664 11.878 39.8084 11.402C40.2504 10.9147 40.4714 10.3027 40.4714 9.566C40.4714 9.13533 40.3638 8.74433 40.1484 8.393C39.9331 8.03033 39.6214 7.74133 39.2134 7.526C38.8168 7.31067 38.3351 7.203 37.7684 7.203C37.5644 7.203 37.3604 7.18033 37.1564 7.135C36.9524 7.08967 36.7881 7.03867 36.6634 6.982C36.5728 6.93667 36.5048 6.88 36.4594 6.812C36.4254 6.744 36.4084 6.676 36.4084 6.608C36.4084 6.404 36.4878 6.302 36.6464 6.302C36.7144 6.302 36.8051 6.32467 36.9184 6.37C37.0431 6.404 37.2358 6.421 37.4964 6.421C38.2784 6.421 38.8791 6.18867 39.2984 5.724C39.7178 5.25933 39.9274 4.66433 39.9274 3.939C39.9274 3.24767 39.6951 2.66967 39.2304 2.205C38.7658 1.74033 38.0801 1.508 37.1734 1.508C36.8334 1.508 36.5841 1.55333 36.4254 1.644C36.2668 1.72333 36.1591 1.82533 36.1024 1.95C36.0571 2.07467 36.0344 2.188 36.0344 2.29V9.889C36.0344 10.4217 36.0968 10.841 36.2214 11.147C36.3574 11.4417 36.5274 11.6627 36.7314 11.81C36.9354 11.946 37.1394 12.031 37.3434 12.065C37.5588 12.099 37.7514 12.116 37.9214 12.116ZM44.0647 13L43.8607 12.422L44.2517 12.32C44.6823 12.1953 44.9713 12.031 45.1187 11.827C45.266 11.623 45.3397 11.2603 45.3397 10.739V3.055C45.3397 2.52233 45.266 2.15967 45.1187 1.967C44.9713 1.763 44.6823 1.59867 44.2517 1.474L43.8607 1.372L44.0647 0.793999H47.7877L48.0087 1.066L47.7877 1.372C47.5043 1.746 47.306 2.14267 47.1927 2.562C47.0793 2.97 47.0227 3.51967 47.0227 4.211V6.285H52.5817V3.055C52.5817 2.52233 52.508 2.15967 52.3607 1.967C52.2133 1.763 51.9243 1.59867 51.4937 1.474L51.1027 1.372L51.3067 0.793999H55.0297L55.2507 1.066L55.0297 1.372C54.7463 1.746 54.548 2.14267 54.4347 2.562C54.3213 2.97 54.2647 3.51967 54.2647 4.211V10.858C54.2647 11.3567 54.3327 11.7023 54.4687 11.895C54.616 12.0763 54.8937 12.2293 55.3017 12.354L55.6587 12.456L55.4717 13H51.3067L51.1027 12.422L51.4937 12.32C51.9243 12.1953 52.2133 12.031 52.3607 11.827C52.508 11.623 52.5817 11.2603 52.5817 10.739V7.322H47.0227V10.858C47.0227 11.3567 47.0907 11.7023 47.2267 11.895C47.374 12.0763 47.6517 12.2293 48.0597 12.354L48.4167 12.456L48.2297 13H44.0647ZM56.3607 13L56.1567 12.422L56.5477 12.32C56.8537 12.2407 57.0974 12.1443 57.2787 12.031C57.46 11.9177 57.613 11.7647 57.7377 11.572C57.8737 11.368 57.9984 11.0903 58.1117 10.739L60.7807 3.055C60.8374 2.87367 60.8827 2.72067 60.9167 2.596C60.9507 2.46 60.9677 2.33533 60.9677 2.222C60.9677 2.00667 60.9054 1.848 60.7807 1.746C60.656 1.63267 60.4634 1.542 60.2027 1.474L59.8117 1.372L60.0157 0.793999H63.2967L66.7137 10.654C66.8497 11.028 66.9857 11.334 67.1217 11.572C67.269 11.81 67.4334 12.014 67.6147 12.184C67.796 12.354 68.0057 12.5353 68.2437 12.728L68.0227 13H64.1977L63.9937 12.422L64.3847 12.32C64.6454 12.252 64.838 12.167 64.9627 12.065C65.0874 11.9517 65.1497 11.7873 65.1497 11.572C65.1497 11.4587 65.1327 11.3397 65.0987 11.215C65.0647 11.079 65.0194 10.9203 64.9627 10.739L64.1467 8.359H60.2197L59.8117 9.6C59.687 9.98533 59.5907 10.3197 59.5227 10.603C59.4547 10.8863 59.4207 11.147 59.4207 11.385C59.4207 11.7703 59.5 12.116 59.6587 12.422L59.8117 12.728L59.4887 13H56.3607ZM60.5767 7.305H63.7897L62.1577 2.545L60.5767 7.305ZM70.1656 13.238C69.8936 13.238 69.6273 13.187 69.3666 13.085C69.106 12.983 68.851 12.8073 68.6016 12.558L68.8736 12.065C69.0096 12.1557 69.1286 12.218 69.2306 12.252C69.3326 12.286 69.4403 12.303 69.5536 12.303C69.701 12.303 69.8256 12.252 69.9276 12.15C70.0296 12.0367 70.1203 11.9177 70.1996 11.793L72.0526 8.563C72.1433 8.38167 72.234 8.223 72.3246 8.087C72.4266 7.951 72.557 7.83767 72.7156 7.747C71.8203 7.52033 71.163 7.084 70.7436 6.438C70.3243 5.792 70.1146 5.07233 70.1146 4.279C70.1146 3.58767 70.2733 2.96433 70.5906 2.409C70.9193 1.85367 71.4406 1.41167 72.1546 1.083C72.8686 0.743 73.8036 0.573 74.9596 0.573C75.4923 0.573 76.025 0.612666 76.5576 0.691999C77.0903 0.771333 77.5833 0.867666 78.0366 0.981C78.5013 1.09433 78.881 1.20767 79.1756 1.321L78.9546 1.967H77.9686C77.844 1.967 77.7476 1.99533 77.6796 2.052C77.623 2.09733 77.5946 2.19933 77.5946 2.358V10.739C77.5946 11.2603 77.6683 11.6287 77.8156 11.844C77.9743 12.048 78.269 12.2067 78.6996 12.32L79.0566 12.422L78.8696 13H75.1636L74.9596 12.728L75.1636 12.422C75.4243 12.048 75.617 11.657 75.7416 11.249C75.8663 10.841 75.9286 10.2857 75.9286 9.583V2.29C75.9286 2.188 75.9003 2.08033 75.8436 1.967C75.787 1.84233 75.6623 1.73467 75.4696 1.644C75.2883 1.55333 74.9993 1.508 74.6026 1.508C74.002 1.508 73.4976 1.63833 73.0896 1.899C72.6816 2.14833 72.3756 2.48833 72.1716 2.919C71.9676 3.33833 71.8656 3.81433 71.8656 4.347C71.8656 5.129 72.0866 5.76367 72.5286 6.251C72.982 6.73833 73.6223 6.982 74.4496 6.982C74.7103 6.982 74.8973 6.965 75.0106 6.931C75.1353 6.897 75.226 6.88 75.2826 6.88C75.3733 6.88 75.4356 6.91967 75.4696 6.999C75.5036 7.07833 75.5206 7.169 75.5206 7.271C75.5206 7.32767 75.5036 7.39567 75.4696 7.475C75.4356 7.55433 75.3506 7.62233 75.2146 7.679C74.8973 7.79233 74.6593 7.90567 74.5006 8.019C74.342 8.121 74.1946 8.28533 74.0586 8.512L72.5286 11.249C72.302 11.657 72.081 12.014 71.8656 12.32C71.6616 12.6147 71.4236 12.8413 71.1516 13C70.891 13.1587 70.5623 13.238 70.1656 13.238Z" fill="#A09081"/>
</svg>
