<svg width="110" height="17" viewBox="0 0 110 17" fill="none" xmlns="http://www.w3.org/2000/svg">
<path d="M0.595 16.281L0.017 16.077V12.269C0.742333 12.167 1.32033 11.8837 1.751 11.419C2.18167 10.9543 2.51033 10.3197 2.737 9.515C2.975 8.71033 3.15067 7.75267 3.264 6.642C3.38867 5.53133 3.49633 4.279 3.587 2.885C3.60967 2.42033 3.50767 2.09167 3.281 1.899C3.06567 1.695 2.79367 1.55333 2.465 1.474L2.091 1.372L2.295 0.793999H10.591L10.778 1.066L10.591 1.372C10.3077 1.746 10.1037 2.14267 9.979 2.562C9.85433 2.98133 9.792 3.531 9.792 4.211V11.215C9.792 11.4643 9.88267 11.6683 10.064 11.827C10.2453 11.9857 10.4777 12.1047 10.761 12.184C11.0443 12.252 11.339 12.286 11.645 12.286V16.077L11.067 16.281L10.965 15.873C10.8063 15.2723 10.6307 14.7567 10.438 14.326C10.2453 13.8953 9.99033 13.5667 9.673 13.34C9.367 13.1133 8.95333 13 8.432 13H3.23C2.72 13 2.30633 13.1133 1.989 13.34C1.683 13.5667 1.428 13.8953 1.224 14.326C1.03133 14.7567 0.85 15.2723 0.68 15.873L0.595 16.281ZM2.363 12.031H7.021C7.47433 12.031 7.769 11.9517 7.905 11.793C8.05233 11.6343 8.126 11.283 8.126 10.739V3.055C8.126 2.52233 8.05233 2.171 7.905 2.001C7.769 1.831 7.47433 1.746 7.021 1.746H5.984C5.66667 1.746 5.41167 1.79133 5.219 1.882C5.02633 1.96133 4.91867 2.14267 4.896 2.426C4.71467 5.19133 4.437 7.36733 4.063 8.954C3.689 10.5407 3.12233 11.5663 2.363 12.031ZM17.7269 13.238C16.4575 13.238 15.4035 12.9547 14.5649 12.388C13.7375 11.8213 13.1199 11.062 12.7119 10.11C12.3039 9.14667 12.0999 8.08133 12.0999 6.914C12.0999 6.04133 12.2132 5.21967 12.4399 4.449C12.6665 3.67833 13.0122 3.004 13.4769 2.426C13.9529 1.83667 14.5422 1.37767 15.2449 1.049C15.9475 0.720333 16.7749 0.555999 17.7269 0.555999C18.6789 0.555999 19.5062 0.720333 20.2089 1.049C20.9115 1.37767 21.4952 1.83667 21.9599 2.426C22.4359 3.004 22.7872 3.67833 23.0139 4.449C23.2519 5.21967 23.3709 6.04133 23.3709 6.914C23.3709 8.08133 23.1612 9.14667 22.7419 10.11C22.3339 11.062 21.7105 11.8213 20.8719 12.388C20.0445 12.9547 18.9962 13.238 17.7269 13.238ZM17.6589 12.235C18.4749 12.235 19.1719 12.0027 19.7499 11.538C20.3279 11.062 20.7642 10.4273 21.0589 9.634C21.3649 8.82933 21.5179 7.93967 21.5179 6.965C21.5179 6.54567 21.4782 6.09233 21.3989 5.605C21.3309 5.10633 21.2119 4.619 21.0419 4.143C20.8719 3.65567 20.6452 3.21933 20.3619 2.834C20.0785 2.43733 19.7272 2.12 19.3079 1.882C18.8885 1.644 18.3899 1.525 17.8119 1.525C16.9845 1.525 16.2819 1.78 15.7039 2.29C15.1259 2.78867 14.6839 3.45733 14.3779 4.296C14.0832 5.12333 13.9359 6.04133 13.9359 7.05C13.9359 8.01333 14.0719 8.886 14.3439 9.668C14.6272 10.45 15.0465 11.0733 15.6019 11.538C16.1572 12.0027 16.8429 12.235 17.6589 12.235ZM33.3907 13.238C32.858 13.238 32.4103 13.0963 32.0477 12.813C31.6963 12.5183 31.3903 12.1047 31.1297 11.572L29.5827 8.478C29.4013 8.104 29.169 7.815 28.8857 7.611C28.6023 7.407 28.268 7.24267 27.8827 7.118C27.826 7.09533 27.7977 7.033 27.7977 6.931C27.7977 6.84033 27.8203 6.74967 27.8657 6.659C27.911 6.56833 28.0073 6.523 28.1547 6.523H28.5457L31.3167 2.987C31.5093 2.749 31.6113 2.47133 31.6227 2.154C31.6453 1.83667 31.5717 1.56467 31.4017 1.338L31.2147 1.066L31.5207 0.793999H34.4447L34.6487 1.372L34.2407 1.474C33.9913 1.51933 33.7647 1.61567 33.5607 1.763C33.3567 1.899 33.1413 2.10867 32.9147 2.392L29.4807 6.778C30.036 6.88 30.495 7.07833 30.8577 7.373C31.2203 7.66767 31.5433 8.087 31.8267 8.631L33.4247 11.793C33.5153 11.9517 33.6117 12.0763 33.7137 12.167C33.8157 12.2577 33.9403 12.303 34.0877 12.303C34.201 12.303 34.3087 12.286 34.4107 12.252C34.524 12.218 34.6373 12.1557 34.7507 12.065L35.0227 12.558C34.7847 12.8073 34.5297 12.983 34.2577 13.085C33.9857 13.187 33.6967 13.238 33.3907 13.238ZM24.4317 13L24.2277 12.422L24.6357 12.32C24.919 12.2293 25.14 12.133 25.2987 12.031C25.4573 11.929 25.565 11.7817 25.6217 11.589C25.6897 11.385 25.7237 11.1017 25.7237 10.739V3.055C25.7237 2.52233 25.65 2.154 25.5027 1.95C25.3553 1.746 25.0663 1.58733 24.6357 1.474L24.2277 1.372L24.4317 0.793999H28.1717L28.3927 1.066L28.1717 1.372C27.8883 1.746 27.69 2.14267 27.5767 2.562C27.4633 2.98133 27.4067 3.531 27.4067 4.211V10.858C27.4067 11.3567 27.4747 11.7023 27.6107 11.895C27.758 12.0763 28.03 12.2293 28.4267 12.354L28.7837 12.456L28.6137 13H24.4317ZM38.2723 13.238C37.683 13.238 37.2126 13.0963 36.8613 12.813C36.51 12.5183 36.3343 12.1387 36.3343 11.674C36.3343 11.2773 36.4703 10.9203 36.7423 10.603C37.0143 10.2743 37.36 10.11 37.7793 10.11C38.0173 10.11 38.1363 10.1837 38.1363 10.331C38.1363 10.4103 38.0966 10.5407 38.0173 10.722C37.938 10.9033 37.8983 11.1243 37.8983 11.385C37.8983 11.6343 37.955 11.8327 38.0683 11.98C38.1816 12.1273 38.3403 12.201 38.5443 12.201C38.873 12.201 39.162 12.0367 39.4113 11.708C39.672 11.3793 39.9723 10.841 40.3123 10.093L40.5843 9.481L36.5893 3.208C36.1926 2.58467 35.847 2.10867 35.5523 1.78C35.269 1.45133 34.9516 1.21333 34.6003 1.066L34.6683 0.793999H38.9523L39.1563 1.372L38.7823 1.474C38.3176 1.58733 38.091 1.81967 38.1023 2.171C38.125 2.511 38.261 2.885 38.5103 3.293L41.3833 7.713L43.0323 4.041C43.327 3.37233 43.4233 2.80567 43.3213 2.341C43.2306 1.865 42.9586 1.576 42.5053 1.474L42.1313 1.372L42.3353 0.793999H45.5823L45.7693 1.066L45.5313 1.372C45.3273 1.65533 45.1516 1.933 45.0043 2.205C44.8683 2.46567 44.7323 2.75467 44.5963 3.072L41.4853 10.144C40.9753 11.3113 40.4653 12.1217 39.9553 12.575C39.4453 13.017 38.8843 13.238 38.2723 13.238ZM45.8141 13L45.6271 12.422L46.0181 12.32C46.4487 12.1953 46.7491 12.031 46.9191 11.827C47.0891 11.623 47.1911 11.2603 47.2251 10.739L47.6841 4.007C47.6954 3.96167 47.7067 3.854 47.7181 3.684C47.7294 3.50267 47.7407 3.31567 47.7521 3.123C47.7634 2.93033 47.7691 2.78867 47.7691 2.698C47.7691 2.30133 47.6954 2.02367 47.5481 1.865C47.4121 1.695 47.1571 1.56467 46.7831 1.474L46.3921 1.372L46.5791 0.793999H49.6731L53.1751 9.345L56.7791 0.793999H59.2271L59.4821 1.066L59.2781 1.372C59.0627 1.678 58.9041 1.99533 58.8021 2.324C58.7114 2.64133 58.6661 3.038 58.6661 3.514C58.6661 3.582 58.6717 3.72367 58.6831 3.939C58.6944 4.15433 58.7057 4.36967 58.7171 4.585C58.7397 4.80033 58.7511 4.95333 58.7511 5.044L59.0911 9.702C59.1477 10.3933 59.2611 10.977 59.4311 11.453C59.6011 11.9177 59.8787 12.3427 60.2641 12.728L60.0431 13H56.3201L56.1161 12.422L56.5071 12.32C56.8697 12.2067 57.1191 12.065 57.2551 11.895C57.4024 11.7137 57.4761 11.4473 57.4761 11.096C57.4761 11.0167 57.4704 10.9147 57.4591 10.79C57.4591 10.6653 57.4534 10.5577 57.4421 10.467L56.9491 3.378L53.3961 11.776H52.4781L48.9251 3.378L48.5511 8.614C48.5397 8.80667 48.5227 9.022 48.5001 9.26C48.4887 9.498 48.4774 9.71333 48.4661 9.906C48.4547 10.0873 48.4491 10.212 48.4491 10.28C48.4491 10.756 48.4944 11.1583 48.5851 11.487C48.6871 11.8043 48.8457 12.116 49.0611 12.422L49.2651 12.728L49.0101 13H45.8141ZM69.9863 13.425L69.8503 13.238C69.7257 13.0793 69.4877 13 69.1363 13H61.9793L61.7923 12.456L62.1493 12.354C62.5573 12.2293 62.8293 12.0763 62.9653 11.895C63.1127 11.7023 63.1863 11.3567 63.1863 10.858V4.211C63.1863 3.51967 63.124 2.97 62.9993 2.562C62.886 2.154 62.6933 1.75733 62.4213 1.372L62.2003 1.066L62.4213 0.793999H67.6233C68.598 0.793999 69.244 0.674999 69.5613 0.437L69.8673 0.215999L70.1393 0.437V3.463L69.5613 3.667L69.4593 3.276C69.3573 2.868 69.2383 2.55633 69.1023 2.341C68.9663 2.12567 68.785 1.97833 68.5583 1.899C68.3317 1.80833 68.0143 1.763 67.6063 1.763H65.9573C65.5153 1.763 65.2207 1.848 65.0733 2.018C64.9373 2.17667 64.8693 2.52233 64.8693 3.055V6.319H67.0283C67.289 6.319 67.5213 6.26233 67.7253 6.149C67.9407 6.03567 68.156 5.83167 68.3713 5.537L68.5073 5.35L68.8473 5.537V8.444L68.2693 8.648L68.1673 8.257C68.0653 7.86033 67.8783 7.59967 67.6063 7.475C67.3457 7.35033 66.915 7.288 66.3143 7.288H64.8693V10.739C64.8693 11.2603 64.9373 11.606 65.0733 11.776C65.2207 11.946 65.5153 12.031 65.9573 12.031H67.7933C68.2013 12.031 68.5187 11.9913 68.7453 11.912C68.972 11.8213 69.1533 11.6683 69.2893 11.453C69.4253 11.2263 69.5443 10.9147 69.6463 10.518L69.7483 10.127L70.3263 10.331V13.238L69.9863 13.425ZM72.2873 13L72.0833 12.422L72.4743 12.32C72.905 12.1953 73.194 12.031 73.3413 11.827C73.4887 11.623 73.5623 11.2603 73.5623 10.739V3.055C73.5623 2.52233 73.4887 2.15967 73.3413 1.967C73.194 1.763 72.905 1.59867 72.4743 1.474L72.0833 1.372L72.2873 0.793999H76.0103L76.2313 1.066L76.0103 1.372C75.727 1.746 75.5287 2.14267 75.4153 2.562C75.302 2.97 75.2453 3.51967 75.2453 4.211V6.285H80.8043V3.055C80.8043 2.52233 80.7307 2.15967 80.5833 1.967C80.436 1.763 80.147 1.59867 79.7163 1.474L79.3253 1.372L79.5293 0.793999H83.2523L83.4733 1.066L83.2523 1.372C82.969 1.746 82.7707 2.14267 82.6573 2.562C82.544 2.97 82.4873 3.51967 82.4873 4.211V10.858C82.4873 11.3567 82.5553 11.7023 82.6913 11.895C82.8387 12.0763 83.1163 12.2293 83.5243 12.354L83.8813 12.456L83.6943 13H79.5293L79.3253 12.422L79.7163 12.32C80.147 12.1953 80.436 12.031 80.5833 11.827C80.7307 11.623 80.8043 11.2603 80.8043 10.739V7.322H75.2453V10.858C75.2453 11.3567 75.3133 11.7023 75.4493 11.895C75.5967 12.0763 75.8743 12.2293 76.2823 12.354L76.6393 12.456L76.4523 13H72.2873ZM88.1024 13L87.8814 12.728L88.1024 12.422C88.3857 12.048 88.584 11.657 88.6974 11.249C88.8107 10.8297 88.8674 10.2743 88.8674 9.583V3.055C88.8674 2.52233 88.8277 2.17667 88.7484 2.018C88.6804 1.848 88.5274 1.763 88.2894 1.763H87.5244C87.1277 1.763 86.8104 1.80833 86.5724 1.899C86.3457 1.97833 86.1644 2.12567 86.0284 2.341C85.9037 2.55633 85.7847 2.868 85.6714 3.276L85.5694 3.667L84.9914 3.463V0.437L85.2634 0.215999L85.5694 0.437C85.8867 0.674999 86.5327 0.793999 87.5074 0.793999H91.9104C92.885 0.793999 93.531 0.674999 93.8484 0.437L94.1544 0.215999L94.4264 0.437V3.463L93.8484 3.667L93.7464 3.276C93.6444 2.868 93.5254 2.55633 93.3894 2.341C93.2534 2.12567 93.072 1.97833 92.8454 1.899C92.6187 1.80833 92.3014 1.763 91.8934 1.763H91.1284C90.8904 1.763 90.7317 1.848 90.6524 2.018C90.5844 2.17667 90.5504 2.52233 90.5504 3.055V10.739C90.5504 11.2603 90.624 11.623 90.7714 11.827C90.93 12.031 91.219 12.1953 91.6384 12.32L92.0294 12.422L91.8254 13H88.1024ZM95.6457 13L95.4417 12.422L95.8497 12.32C96.2691 12.2067 96.5524 12.048 96.6997 11.844C96.8471 11.6287 96.9207 11.2603 96.9207 10.739V3.055C96.9207 2.545 96.8471 2.18233 96.6997 1.967C96.5524 1.75167 96.2691 1.58733 95.8497 1.474L95.4417 1.372L95.6457 0.793999H99.3857L99.6067 1.066L99.3857 1.372C99.1024 1.75733 98.9041 2.15967 98.7907 2.579C98.6774 2.987 98.6207 3.531 98.6207 4.211V9.889C98.6207 10.4217 98.6831 10.841 98.8077 11.147C98.9437 11.453 99.1137 11.674 99.3177 11.81C99.5217 11.946 99.7257 12.031 99.9297 12.065C100.145 12.099 100.338 12.116 100.508 12.116C101.21 12.116 101.766 11.8553 102.174 11.334C102.593 10.8127 102.803 10.1497 102.803 9.345C102.803 8.85767 102.695 8.41567 102.48 8.019C102.264 7.62233 101.97 7.305 101.596 7.067C101.222 6.829 100.802 6.71 100.338 6.71C99.9864 6.71 99.7371 6.73833 99.5897 6.795C99.4424 6.84033 99.3177 6.863 99.2157 6.863C99.1364 6.863 99.0741 6.82333 99.0287 6.744C98.9947 6.66467 98.9777 6.574 98.9777 6.472C98.9777 6.25667 99.1477 6.10367 99.4877 6.013C99.8277 5.92233 100.207 5.877 100.627 5.877C101.42 5.877 102.111 6.04133 102.701 6.37C103.29 6.69867 103.749 7.135 104.078 7.679C104.406 8.21167 104.571 8.79533 104.571 9.43C104.571 10.1213 104.429 10.739 104.146 11.283C103.862 11.8157 103.415 12.235 102.803 12.541C102.191 12.847 101.386 13 100.389 13H95.6457ZM105.54 13L105.353 12.422L105.744 12.32C106.163 12.1953 106.452 12.0367 106.611 11.844C106.769 11.6513 106.849 11.283 106.849 10.739V3.055C106.849 2.52233 106.769 2.154 106.611 1.95C106.452 1.746 106.163 1.58733 105.744 1.474L105.353 1.372L105.54 0.793999H109.297L109.501 1.066L109.297 1.372C109.013 1.746 108.809 2.14267 108.685 2.562C108.571 2.98133 108.515 3.531 108.515 4.211V10.858C108.515 11.3567 108.583 11.7023 108.719 11.895C108.866 12.0763 109.138 12.2293 109.535 12.354L109.909 12.456L109.722 13H105.54Z" fill="#A09081"/>
</svg>
