<svg width="233" height="14" viewBox="0 0 233 14" fill="none" xmlns="http://www.w3.org/2000/svg">
<path d="M15.9785 13H9.29004V12.3145C9.43652 12.3027 9.65039 12.2852 9.93164 12.2617C10.2129 12.2324 10.4062 12.1943 10.5117 12.1475C10.7285 12.0596 10.8779 11.9453 10.96 11.8047C11.042 11.6582 11.083 11.4736 11.083 11.251V3.96484L5.47559 10.9258C5.47559 11.3301 5.51367 11.5967 5.58984 11.7256C5.67188 11.8545 5.82129 11.9688 6.03809 12.0684C6.16113 12.1211 6.35449 12.1738 6.61816 12.2266C6.88184 12.2734 7.09863 12.3027 7.26855 12.3145V13H0.606445V12.3145C0.75293 12.3086 0.966797 12.291 1.24805 12.2617C1.53516 12.2266 1.74316 12.1855 1.87207 12.1387C2.08301 12.0625 2.22949 11.9482 2.31152 11.7959C2.39355 11.6377 2.43457 11.4531 2.43457 11.2422V2.41797C2.43457 2.21289 2.39648 2.04004 2.32031 1.89941C2.25 1.75879 2.10059 1.63574 1.87207 1.53027C1.70215 1.4541 1.47949 1.38672 1.2041 1.32812C0.928711 1.26367 0.729492 1.22559 0.606445 1.21387V0.52832H7.29492V1.21387C7.11328 1.22559 6.89648 1.25488 6.64453 1.30176C6.39258 1.34863 6.19922 1.39258 6.06445 1.43359C5.83594 1.50977 5.68359 1.63281 5.60742 1.80273C5.53711 1.9668 5.50195 2.14258 5.50195 2.33008V9.4668L11.1094 2.50586C11.1094 2.20117 11.0654 1.9873 10.9775 1.86426C10.8896 1.73535 10.7432 1.62402 10.5381 1.53027C10.3682 1.44824 10.1602 1.38086 9.91406 1.32812C9.67383 1.27539 9.47461 1.2373 9.31641 1.21387V0.52832H15.9785V1.21387C15.791 1.22559 15.5801 1.25195 15.3457 1.29297C15.1113 1.32812 14.9004 1.375 14.7129 1.43359C14.4902 1.50977 14.3408 1.62988 14.2646 1.79395C14.1885 1.95801 14.1504 2.13672 14.1504 2.33008V11.1631C14.1504 11.374 14.1885 11.5527 14.2646 11.6992C14.3408 11.8457 14.4902 11.9688 14.7129 12.0684C14.8535 12.127 15.0557 12.1797 15.3193 12.2266C15.5889 12.2734 15.8086 12.3027 15.9785 12.3145V13ZM23.9854 10.4512C23.9854 9.98242 23.8447 9.5957 23.5635 9.29102C23.2822 8.98633 22.8369 8.83398 22.2275 8.83398C21.9873 8.83398 21.7998 8.83984 21.665 8.85156C21.5303 8.86328 21.4131 8.86914 21.3135 8.86914V11.6729C21.3135 11.9072 21.3867 12.0889 21.5332 12.2178C21.6797 12.3408 21.917 12.4023 22.2451 12.4023C22.585 12.4023 22.8721 12.3467 23.1064 12.2354C23.3408 12.124 23.5225 11.9717 23.6514 11.7783C23.7744 11.5908 23.8594 11.3887 23.9062 11.1719C23.959 10.9492 23.9854 10.709 23.9854 10.4512ZM27.1143 10.6006C27.1143 11.04 27.0117 11.418 26.8066 11.7344C26.6016 12.0449 26.3174 12.2969 25.9541 12.4902C25.5615 12.6953 25.1338 12.8418 24.6709 12.9297C24.2139 13.0117 23.6719 13.0527 23.0449 13.0527C21.5625 13.0527 20.417 13.0439 19.6084 13.0264C18.7998 13.0088 17.9766 13 17.1387 13V12.3584C17.2852 12.3467 17.4316 12.332 17.5781 12.3145C17.7305 12.291 17.8594 12.2617 17.9648 12.2266C18.1523 12.1621 18.2812 12.0625 18.3516 11.9277C18.4219 11.793 18.457 11.6172 18.457 11.4004V5.88086C18.457 5.67578 18.4189 5.50293 18.3428 5.3623C18.2725 5.21582 18.1465 5.11328 17.9648 5.05469C17.8125 5.00781 17.6719 4.97852 17.543 4.9668C17.4141 4.94922 17.2793 4.93457 17.1387 4.92285V4.28125C18.3633 4.28125 19.4238 4.27539 20.3203 4.26367C21.2168 4.24609 22.0957 4.2373 22.957 4.2373C23.4492 4.2373 23.918 4.27246 24.3633 4.34277C24.8145 4.40723 25.207 4.51562 25.541 4.66797C25.875 4.82031 26.1416 5.02832 26.3408 5.29199C26.5459 5.55566 26.6484 5.88086 26.6484 6.26758C26.6484 6.84766 26.458 7.31055 26.0771 7.65625C25.6963 7.99609 25.1719 8.22754 24.5039 8.35059V8.48242C24.8379 8.52344 25.1631 8.59082 25.4795 8.68457C25.8018 8.77246 26.0801 8.89551 26.3145 9.05371C26.5664 9.22363 26.7627 9.43457 26.9033 9.68652C27.0439 9.93848 27.1143 10.2432 27.1143 10.6006ZM23.6514 6.33789C23.6514 6.03906 23.6045 5.79883 23.5107 5.61719C23.4229 5.42969 23.3115 5.28906 23.1768 5.19531C23.0244 5.08984 22.8545 5.01953 22.667 4.98438C22.4854 4.94922 22.3066 4.93164 22.1309 4.93164C22.002 4.93164 21.8701 4.9375 21.7354 4.94922C21.6006 4.95508 21.46 4.96094 21.3135 4.9668V8.11328H22.0254C22.3359 8.11328 22.6025 8.06934 22.8252 7.98145C23.0479 7.89355 23.2178 7.76465 23.335 7.59473C23.4463 7.44824 23.5254 7.26953 23.5723 7.05859C23.625 6.84766 23.6514 6.60742 23.6514 6.33789ZM38.2939 12.8154C38.0361 12.9268 37.7314 13.0293 37.3799 13.123C37.0283 13.2168 36.6562 13.2637 36.2637 13.2637C35.543 13.2637 35.0127 13.1582 34.6729 12.9473C34.333 12.7305 34.1016 12.4229 33.9785 12.0244H33.9258C33.7266 12.2236 33.5332 12.3936 33.3457 12.5342C33.1641 12.6748 32.9678 12.7949 32.7568 12.8945C32.4814 13.0234 32.2148 13.1172 31.957 13.1758C31.7051 13.2402 31.3506 13.2725 30.8936 13.2725C30.2139 13.2725 29.6338 13.0732 29.1533 12.6748C28.6729 12.2705 28.4326 11.7373 28.4326 11.0752C28.4326 10.6943 28.4854 10.3721 28.5908 10.1084C28.6963 9.83887 28.8457 9.60156 29.0391 9.39648C29.2148 9.20898 29.417 9.05371 29.6455 8.93066C29.8799 8.80762 30.1348 8.69336 30.4102 8.58789C30.9375 8.39453 31.5703 8.19531 32.3086 7.99023C33.0469 7.7793 33.5859 7.5918 33.9258 7.42773V6.58398C33.9258 6.4375 33.9141 6.24414 33.8906 6.00391C33.8672 5.76367 33.8174 5.56152 33.7412 5.39746C33.6592 5.20996 33.5303 5.05176 33.3545 4.92285C33.1787 4.79395 32.9473 4.72949 32.6602 4.72949C32.4023 4.72949 32.1855 4.76758 32.0098 4.84375C31.8398 4.91406 31.7021 4.9873 31.5967 5.06348C31.6143 5.18066 31.6641 5.35938 31.7461 5.59961C31.8281 5.83984 31.8691 6.07129 31.8691 6.29395C31.8691 6.39355 31.8428 6.51953 31.79 6.67188C31.7373 6.81836 31.6611 6.93555 31.5615 7.02344C31.4268 7.14062 31.2744 7.23145 31.1045 7.2959C30.9404 7.36035 30.6855 7.39258 30.3398 7.39258C29.8477 7.39258 29.4756 7.27539 29.2236 7.04102C28.9717 6.80078 28.8457 6.49023 28.8457 6.10938C28.8457 5.78125 28.9746 5.48828 29.2324 5.23047C29.4961 4.9668 29.8154 4.75 30.1904 4.58008C30.5596 4.4043 30.9844 4.26953 31.4648 4.17578C31.9453 4.07617 32.3906 4.02637 32.8008 4.02637C33.3691 4.02637 33.8906 4.06152 34.3652 4.13184C34.8398 4.19629 35.2676 4.33398 35.6484 4.54492C36.0117 4.75 36.2988 5.04883 36.5098 5.44141C36.7266 5.82812 36.835 6.33496 36.835 6.96191C36.835 7.62402 36.8203 8.40918 36.791 9.31738C36.7676 10.2256 36.7559 10.8232 36.7559 11.1104C36.7559 11.374 36.7939 11.582 36.8701 11.7344C36.9521 11.8867 37.0752 12.001 37.2393 12.0771C37.3389 12.124 37.4941 12.1533 37.7051 12.165C37.9219 12.1709 38.1182 12.1738 38.2939 12.1738V12.8154ZM33.9258 8.23633C33.5977 8.34766 33.2725 8.47656 32.9502 8.62305C32.6279 8.76367 32.3643 8.91309 32.1592 9.07129C31.9424 9.23535 31.7725 9.44629 31.6494 9.7041C31.5264 9.95605 31.4648 10.2549 31.4648 10.6006C31.4648 11.0576 31.5674 11.3887 31.7725 11.5938C31.9834 11.7988 32.2412 11.9014 32.5459 11.9014C32.8682 11.9014 33.1318 11.8369 33.3369 11.708C33.5479 11.5732 33.7324 11.4092 33.8906 11.2158L33.9258 8.23633ZM50.6953 13H45.3516V12.3584C45.4512 12.3408 45.5742 12.3203 45.7207 12.2969C45.8672 12.2676 45.999 12.2178 46.1162 12.1475C46.2568 12.0654 46.3535 11.9658 46.4062 11.8486C46.4648 11.7256 46.4941 11.5498 46.4941 11.3213V8.79883H43.207V11.3213C43.207 11.5264 43.2363 11.6963 43.2949 11.8311C43.3535 11.9658 43.4502 12.0713 43.585 12.1475C43.6787 12.2002 43.793 12.2441 43.9277 12.2793C44.0684 12.3145 44.209 12.3408 44.3496 12.3584V13H39.0059V12.3584C39.1523 12.3467 39.2988 12.332 39.4453 12.3145C39.5977 12.291 39.7266 12.2617 39.832 12.2266C40.0195 12.1621 40.1484 12.0625 40.2188 11.9277C40.2891 11.793 40.3242 11.6172 40.3242 11.4004V5.88086C40.3242 5.67578 40.2861 5.50293 40.21 5.3623C40.1396 5.21582 40.0137 5.11328 39.832 5.05469C39.6797 5.00781 39.5391 4.97852 39.4102 4.9668C39.2812 4.94922 39.1465 4.93457 39.0059 4.92285V4.28125H44.3496V4.92285C44.209 4.94043 44.0771 4.96387 43.9541 4.99316C43.8369 5.0166 43.7139 5.06348 43.585 5.13379C43.4443 5.20996 43.3447 5.31836 43.2861 5.45898C43.2334 5.59961 43.207 5.7666 43.207 5.95996V7.98145H46.4941V5.95996C46.4941 5.7666 46.4678 5.60254 46.415 5.46777C46.3623 5.32715 46.2627 5.21582 46.1162 5.13379C46.0049 5.06934 45.876 5.02246 45.7295 4.99316C45.5889 4.96387 45.4629 4.94043 45.3516 4.92285V4.28125H50.6953V4.92285C50.5195 4.93457 50.373 4.94922 50.2559 4.9668C50.1387 4.98438 50.0098 5.01367 49.8691 5.05469C49.6992 5.10742 49.5732 5.2041 49.4912 5.34473C49.415 5.47949 49.377 5.6582 49.377 5.88086V11.4004C49.377 11.6113 49.4121 11.79 49.4824 11.9365C49.5586 12.0771 49.6875 12.1738 49.8691 12.2266C50.0098 12.2676 50.1328 12.2969 50.2383 12.3145C50.3496 12.332 50.502 12.3467 50.6953 12.3584V13ZM60.7236 5.31836C61.1572 5.72266 61.4883 6.20605 61.7168 6.76855C61.9453 7.33105 62.0596 7.94043 62.0596 8.59668C62.0596 9.24707 61.9453 9.8623 61.7168 10.4424C61.4941 11.0166 61.166 11.5088 60.7324 11.9189C60.2695 12.3584 59.7158 12.6953 59.0713 12.9297C58.4326 13.1641 57.7002 13.2812 56.874 13.2812C56.1592 13.2812 55.5 13.1787 54.8965 12.9736C54.2988 12.7686 53.7686 12.4609 53.3057 12.0508C52.8604 11.6582 52.5088 11.1748 52.251 10.6006C51.9932 10.0205 51.8643 9.37305 51.8643 8.6582C51.8643 7.95508 51.9756 7.33105 52.1982 6.78613C52.4268 6.23535 52.7666 5.74609 53.2178 5.31836C53.6514 4.9082 54.1846 4.5918 54.8174 4.36914C55.4561 4.14062 56.168 4.02637 56.9531 4.02637C57.7734 4.02637 58.4941 4.14062 59.1152 4.36914C59.7422 4.5918 60.2783 4.9082 60.7236 5.31836ZM58.4736 11.4092C58.6025 11.0811 58.6963 10.6826 58.7549 10.2139C58.8193 9.74512 58.8516 9.2002 58.8516 8.5791C58.8516 8.16895 58.8223 7.7002 58.7637 7.17285C58.7051 6.64551 58.6172 6.22949 58.5 5.9248C58.3594 5.55566 58.1631 5.26562 57.9111 5.05469C57.665 4.84375 57.3516 4.73828 56.9707 4.73828C56.5547 4.73828 56.2207 4.85254 55.9688 5.08105C55.7227 5.30957 55.5322 5.60547 55.3975 5.96875C55.2744 6.30273 55.1895 6.69531 55.1426 7.14648C55.0957 7.5918 55.0723 8.05762 55.0723 8.54395C55.0723 9.18262 55.0928 9.71289 55.1338 10.1348C55.1748 10.5508 55.2744 10.9697 55.4326 11.3916C55.5674 11.7549 55.7607 12.042 56.0127 12.2529C56.2646 12.4639 56.584 12.5693 56.9707 12.5693C57.3223 12.5693 57.624 12.4727 57.876 12.2793C58.1279 12.0801 58.3271 11.79 58.4736 11.4092ZM70.0752 10.4512C70.0752 9.98242 69.9346 9.5957 69.6533 9.29102C69.3721 8.98633 68.9268 8.83398 68.3174 8.83398C68.0771 8.83398 67.8896 8.83984 67.7549 8.85156C67.6201 8.86328 67.5029 8.86914 67.4033 8.86914V11.6729C67.4033 11.9072 67.4766 12.0889 67.623 12.2178C67.7695 12.3408 68.0068 12.4023 68.335 12.4023C68.6748 12.4023 68.9619 12.3467 69.1963 12.2354C69.4307 12.124 69.6123 11.9717 69.7412 11.7783C69.8643 11.5908 69.9492 11.3887 69.9961 11.1719C70.0488 10.9492 70.0752 10.709 70.0752 10.4512ZM73.2041 10.6006C73.2041 11.04 73.1016 11.418 72.8965 11.7344C72.6914 12.0449 72.4072 12.2969 72.0439 12.4902C71.6514 12.6953 71.2236 12.8418 70.7607 12.9297C70.3037 13.0117 69.7617 13.0527 69.1348 13.0527C67.6523 13.0527 66.5068 13.0439 65.6982 13.0264C64.8896 13.0088 64.0664 13 63.2285 13V12.3584C63.375 12.3467 63.5215 12.332 63.668 12.3145C63.8203 12.291 63.9492 12.2617 64.0547 12.2266C64.2422 12.1621 64.3711 12.0625 64.4414 11.9277C64.5117 11.793 64.5469 11.6172 64.5469 11.4004V5.88086C64.5469 5.67578 64.5088 5.50293 64.4326 5.3623C64.3623 5.21582 64.2363 5.11328 64.0547 5.05469C63.9023 5.00781 63.7617 4.97852 63.6328 4.9668C63.5039 4.94922 63.3691 4.93457 63.2285 4.92285V4.28125C64.4531 4.28125 65.5137 4.27539 66.4102 4.26367C67.3066 4.24609 68.1855 4.2373 69.0469 4.2373C69.5391 4.2373 70.0078 4.27246 70.4531 4.34277C70.9043 4.40723 71.2969 4.51562 71.6309 4.66797C71.9648 4.82031 72.2314 5.02832 72.4307 5.29199C72.6357 5.55566 72.7383 5.88086 72.7383 6.26758C72.7383 6.84766 72.5479 7.31055 72.167 7.65625C71.7861 7.99609 71.2617 8.22754 70.5938 8.35059V8.48242C70.9277 8.52344 71.2529 8.59082 71.5693 8.68457C71.8916 8.77246 72.1699 8.89551 72.4043 9.05371C72.6562 9.22363 72.8525 9.43457 72.9932 9.68652C73.1338 9.93848 73.2041 10.2432 73.2041 10.6006ZM69.7412 6.33789C69.7412 6.03906 69.6943 5.79883 69.6006 5.61719C69.5127 5.42969 69.4014 5.28906 69.2666 5.19531C69.1143 5.08984 68.9443 5.01953 68.7568 4.98438C68.5752 4.94922 68.3965 4.93164 68.2207 4.93164C68.0918 4.93164 67.96 4.9375 67.8252 4.94922C67.6904 4.95508 67.5498 4.96094 67.4033 4.9668V8.11328H68.1152C68.4258 8.11328 68.6924 8.06934 68.915 7.98145C69.1377 7.89355 69.3076 7.76465 69.4248 7.59473C69.5361 7.44824 69.6152 7.26953 69.6621 7.05859C69.7148 6.84766 69.7412 6.60742 69.7412 6.33789ZM94.377 13H87.6885V12.3145C87.835 12.3027 88.0488 12.2852 88.3301 12.2617C88.6113 12.2324 88.8047 12.1943 88.9102 12.1475C89.127 12.0596 89.2764 11.9453 89.3584 11.8047C89.4404 11.6582 89.4814 11.4736 89.4814 11.251V3.96484L83.874 10.9258C83.874 11.3301 83.9121 11.5967 83.9883 11.7256C84.0703 11.8545 84.2197 11.9688 84.4365 12.0684C84.5596 12.1211 84.7529 12.1738 85.0166 12.2266C85.2803 12.2734 85.4971 12.3027 85.667 12.3145V13H79.0049V12.3145C79.1514 12.3086 79.3652 12.291 79.6465 12.2617C79.9336 12.2266 80.1416 12.1855 80.2705 12.1387C80.4814 12.0625 80.6279 11.9482 80.71 11.7959C80.792 11.6377 80.833 11.4531 80.833 11.2422V2.41797C80.833 2.21289 80.7949 2.04004 80.7188 1.89941C80.6484 1.75879 80.499 1.63574 80.2705 1.53027C80.1006 1.4541 79.8779 1.38672 79.6025 1.32812C79.3271 1.26367 79.1279 1.22559 79.0049 1.21387V0.52832H85.6934V1.21387C85.5117 1.22559 85.2949 1.25488 85.043 1.30176C84.791 1.34863 84.5977 1.39258 84.4629 1.43359C84.2344 1.50977 84.082 1.63281 84.0059 1.80273C83.9355 1.9668 83.9004 2.14258 83.9004 2.33008V9.4668L89.5078 2.50586C89.5078 2.20117 89.4639 1.9873 89.376 1.86426C89.2881 1.73535 89.1416 1.62402 88.9365 1.53027C88.7666 1.44824 88.5586 1.38086 88.3125 1.32812C88.0723 1.27539 87.873 1.2373 87.7148 1.21387V0.52832H94.377V1.21387C94.1895 1.22559 93.9785 1.25195 93.7441 1.29297C93.5098 1.32812 93.2988 1.375 93.1113 1.43359C92.8887 1.50977 92.7393 1.62988 92.6631 1.79395C92.5869 1.95801 92.5488 2.13672 92.5488 2.33008V11.1631C92.5488 11.374 92.5869 11.5527 92.6631 11.6992C92.7393 11.8457 92.8887 11.9688 93.1113 12.0684C93.252 12.127 93.4541 12.1797 93.7178 12.2266C93.9873 12.2734 94.207 12.3027 94.377 12.3145V13ZM102.384 10.4512C102.384 9.98242 102.243 9.5957 101.962 9.29102C101.681 8.98633 101.235 8.83398 100.626 8.83398C100.386 8.83398 100.198 8.83984 100.063 8.85156C99.9287 8.86328 99.8115 8.86914 99.7119 8.86914V11.6729C99.7119 11.9072 99.7852 12.0889 99.9316 12.2178C100.078 12.3408 100.315 12.4023 100.644 12.4023C100.983 12.4023 101.271 12.3467 101.505 12.2354C101.739 12.124 101.921 11.9717 102.05 11.7783C102.173 11.5908 102.258 11.3887 102.305 11.1719C102.357 10.9492 102.384 10.709 102.384 10.4512ZM105.513 10.6006C105.513 11.04 105.41 11.418 105.205 11.7344C105 12.0449 104.716 12.2969 104.353 12.4902C103.96 12.6953 103.532 12.8418 103.069 12.9297C102.612 13.0117 102.07 13.0527 101.443 13.0527C99.9609 13.0527 98.8154 13.0439 98.0068 13.0264C97.1982 13.0088 96.375 13 95.5371 13V12.3584C95.6836 12.3467 95.8301 12.332 95.9766 12.3145C96.1289 12.291 96.2578 12.2617 96.3633 12.2266C96.5508 12.1621 96.6797 12.0625 96.75 11.9277C96.8203 11.793 96.8555 11.6172 96.8555 11.4004V5.88086C96.8555 5.67578 96.8174 5.50293 96.7412 5.3623C96.6709 5.21582 96.5449 5.11328 96.3633 5.05469C96.2109 5.00781 96.0703 4.97852 95.9414 4.9668C95.8125 4.94922 95.6777 4.93457 95.5371 4.92285V4.28125C96.7617 4.28125 97.8223 4.27539 98.7188 4.26367C99.6152 4.24609 100.494 4.2373 101.355 4.2373C101.848 4.2373 102.316 4.27246 102.762 4.34277C103.213 4.40723 103.605 4.51562 103.939 4.66797C104.273 4.82031 104.54 5.02832 104.739 5.29199C104.944 5.55566 105.047 5.88086 105.047 6.26758C105.047 6.84766 104.856 7.31055 104.476 7.65625C104.095 7.99609 103.57 8.22754 102.902 8.35059V8.48242C103.236 8.52344 103.562 8.59082 103.878 8.68457C104.2 8.77246 104.479 8.89551 104.713 9.05371C104.965 9.22363 105.161 9.43457 105.302 9.68652C105.442 9.93848 105.513 10.2432 105.513 10.6006ZM102.05 6.33789C102.05 6.03906 102.003 5.79883 101.909 5.61719C101.821 5.42969 101.71 5.28906 101.575 5.19531C101.423 5.08984 101.253 5.01953 101.065 4.98438C100.884 4.94922 100.705 4.93164 100.529 4.93164C100.4 4.93164 100.269 4.9375 100.134 4.94922C99.999 4.95508 99.8584 4.96094 99.7119 4.9668V8.11328H100.424C100.734 8.11328 101.001 8.06934 101.224 7.98145C101.446 7.89355 101.616 7.76465 101.733 7.59473C101.845 7.44824 101.924 7.26953 101.971 7.05859C102.023 6.84766 102.05 6.60742 102.05 6.33789ZM116.692 12.8154C116.435 12.9268 116.13 13.0293 115.778 13.123C115.427 13.2168 115.055 13.2637 114.662 13.2637C113.941 13.2637 113.411 13.1582 113.071 12.9473C112.731 12.7305 112.5 12.4229 112.377 12.0244H112.324C112.125 12.2236 111.932 12.3936 111.744 12.5342C111.562 12.6748 111.366 12.7949 111.155 12.8945C110.88 13.0234 110.613 13.1172 110.355 13.1758C110.104 13.2402 109.749 13.2725 109.292 13.2725C108.612 13.2725 108.032 13.0732 107.552 12.6748C107.071 12.2705 106.831 11.7373 106.831 11.0752C106.831 10.6943 106.884 10.3721 106.989 10.1084C107.095 9.83887 107.244 9.60156 107.438 9.39648C107.613 9.20898 107.815 9.05371 108.044 8.93066C108.278 8.80762 108.533 8.69336 108.809 8.58789C109.336 8.39453 109.969 8.19531 110.707 7.99023C111.445 7.7793 111.984 7.5918 112.324 7.42773V6.58398C112.324 6.4375 112.312 6.24414 112.289 6.00391C112.266 5.76367 112.216 5.56152 112.14 5.39746C112.058 5.20996 111.929 5.05176 111.753 4.92285C111.577 4.79395 111.346 4.72949 111.059 4.72949C110.801 4.72949 110.584 4.76758 110.408 4.84375C110.238 4.91406 110.101 4.9873 109.995 5.06348C110.013 5.18066 110.062 5.35938 110.145 5.59961C110.227 5.83984 110.268 6.07129 110.268 6.29395C110.268 6.39355 110.241 6.51953 110.188 6.67188C110.136 6.81836 110.06 6.93555 109.96 7.02344C109.825 7.14062 109.673 7.23145 109.503 7.2959C109.339 7.36035 109.084 7.39258 108.738 7.39258C108.246 7.39258 107.874 7.27539 107.622 7.04102C107.37 6.80078 107.244 6.49023 107.244 6.10938C107.244 5.78125 107.373 5.48828 107.631 5.23047C107.895 4.9668 108.214 4.75 108.589 4.58008C108.958 4.4043 109.383 4.26953 109.863 4.17578C110.344 4.07617 110.789 4.02637 111.199 4.02637C111.768 4.02637 112.289 4.06152 112.764 4.13184C113.238 4.19629 113.666 4.33398 114.047 4.54492C114.41 4.75 114.697 5.04883 114.908 5.44141C115.125 5.82812 115.233 6.33496 115.233 6.96191C115.233 7.62402 115.219 8.40918 115.189 9.31738C115.166 10.2256 115.154 10.8232 115.154 11.1104C115.154 11.374 115.192 11.582 115.269 11.7344C115.351 11.8867 115.474 12.001 115.638 12.0771C115.737 12.124 115.893 12.1533 116.104 12.165C116.32 12.1709 116.517 12.1738 116.692 12.1738V12.8154ZM112.324 8.23633C111.996 8.34766 111.671 8.47656 111.349 8.62305C111.026 8.76367 110.763 8.91309 110.558 9.07129C110.341 9.23535 110.171 9.44629 110.048 9.7041C109.925 9.95605 109.863 10.2549 109.863 10.6006C109.863 11.0576 109.966 11.3887 110.171 11.5938C110.382 11.7988 110.64 11.9014 110.944 11.9014C111.267 11.9014 111.53 11.8369 111.735 11.708C111.946 11.5732 112.131 11.4092 112.289 11.2158L112.324 8.23633ZM129.094 13H123.75V12.3584C123.85 12.3408 123.973 12.3203 124.119 12.2969C124.266 12.2676 124.397 12.2178 124.515 12.1475C124.655 12.0654 124.752 11.9658 124.805 11.8486C124.863 11.7256 124.893 11.5498 124.893 11.3213V8.79883H121.605V11.3213C121.605 11.5264 121.635 11.6963 121.693 11.8311C121.752 11.9658 121.849 12.0713 121.983 12.1475C122.077 12.2002 122.191 12.2441 122.326 12.2793C122.467 12.3145 122.607 12.3408 122.748 12.3584V13H117.404V12.3584C117.551 12.3467 117.697 12.332 117.844 12.3145C117.996 12.291 118.125 12.2617 118.23 12.2266C118.418 12.1621 118.547 12.0625 118.617 11.9277C118.688 11.793 118.723 11.6172 118.723 11.4004V5.88086C118.723 5.67578 118.685 5.50293 118.608 5.3623C118.538 5.21582 118.412 5.11328 118.23 5.05469C118.078 5.00781 117.938 4.97852 117.809 4.9668C117.68 4.94922 117.545 4.93457 117.404 4.92285V4.28125H122.748V4.92285C122.607 4.94043 122.476 4.96387 122.353 4.99316C122.235 5.0166 122.112 5.06348 121.983 5.13379C121.843 5.20996 121.743 5.31836 121.685 5.45898C121.632 5.59961 121.605 5.7666 121.605 5.95996V7.98145H124.893V5.95996C124.893 5.7666 124.866 5.60254 124.813 5.46777C124.761 5.32715 124.661 5.21582 124.515 5.13379C124.403 5.06934 124.274 5.02246 124.128 4.99316C123.987 4.96387 123.861 4.94043 123.75 4.92285V4.28125H129.094V4.92285C128.918 4.93457 128.771 4.94922 128.654 4.9668C128.537 4.98438 128.408 5.01367 128.268 5.05469C128.098 5.10742 127.972 5.2041 127.89 5.34473C127.813 5.47949 127.775 5.6582 127.775 5.88086V11.4004C127.775 11.6113 127.811 11.79 127.881 11.9365C127.957 12.0771 128.086 12.1738 128.268 12.2266C128.408 12.2676 128.531 12.2969 128.637 12.3145C128.748 12.332 128.9 12.3467 129.094 12.3584V13ZM150.188 13H143.499V12.3145C143.646 12.3027 143.859 12.2852 144.141 12.2617C144.422 12.2324 144.615 12.1943 144.721 12.1475C144.938 12.0596 145.087 11.9453 145.169 11.8047C145.251 11.6582 145.292 11.4736 145.292 11.251V3.96484L139.685 10.9258C139.685 11.3301 139.723 11.5967 139.799 11.7256C139.881 11.8545 140.03 11.9688 140.247 12.0684C140.37 12.1211 140.563 12.1738 140.827 12.2266C141.091 12.2734 141.308 12.3027 141.478 12.3145V13H134.815V12.3145C134.962 12.3086 135.176 12.291 135.457 12.2617C135.744 12.2266 135.952 12.1855 136.081 12.1387C136.292 12.0625 136.438 11.9482 136.521 11.7959C136.603 11.6377 136.644 11.4531 136.644 11.2422V2.41797C136.644 2.21289 136.605 2.04004 136.529 1.89941C136.459 1.75879 136.31 1.63574 136.081 1.53027C135.911 1.4541 135.688 1.38672 135.413 1.32812C135.138 1.26367 134.938 1.22559 134.815 1.21387V0.52832H141.504V1.21387C141.322 1.22559 141.105 1.25488 140.854 1.30176C140.602 1.34863 140.408 1.39258 140.273 1.43359C140.045 1.50977 139.893 1.63281 139.816 1.80273C139.746 1.9668 139.711 2.14258 139.711 2.33008V9.4668L145.318 2.50586C145.318 2.20117 145.274 1.9873 145.187 1.86426C145.099 1.73535 144.952 1.62402 144.747 1.53027C144.577 1.44824 144.369 1.38086 144.123 1.32812C143.883 1.27539 143.684 1.2373 143.525 1.21387V0.52832H150.188V1.21387C150 1.22559 149.789 1.25195 149.555 1.29297C149.32 1.32812 149.109 1.375 148.922 1.43359C148.699 1.50977 148.55 1.62988 148.474 1.79395C148.397 1.95801 148.359 2.13672 148.359 2.33008V11.1631C148.359 11.374 148.397 11.5527 148.474 11.6992C148.55 11.8457 148.699 11.9688 148.922 12.0684C149.062 12.127 149.265 12.1797 149.528 12.2266C149.798 12.2734 150.018 12.3027 150.188 12.3145V13ZM158.194 10.4512C158.194 9.98242 158.054 9.5957 157.772 9.29102C157.491 8.98633 157.046 8.83398 156.437 8.83398C156.196 8.83398 156.009 8.83984 155.874 8.85156C155.739 8.86328 155.622 8.86914 155.522 8.86914V11.6729C155.522 11.9072 155.596 12.0889 155.742 12.2178C155.889 12.3408 156.126 12.4023 156.454 12.4023C156.794 12.4023 157.081 12.3467 157.315 12.2354C157.55 12.124 157.731 11.9717 157.86 11.7783C157.983 11.5908 158.068 11.3887 158.115 11.1719C158.168 10.9492 158.194 10.709 158.194 10.4512ZM161.323 10.6006C161.323 11.04 161.221 11.418 161.016 11.7344C160.811 12.0449 160.526 12.2969 160.163 12.4902C159.771 12.6953 159.343 12.8418 158.88 12.9297C158.423 13.0117 157.881 13.0527 157.254 13.0527C155.771 13.0527 154.626 13.0439 153.817 13.0264C153.009 13.0088 152.186 13 151.348 13V12.3584C151.494 12.3467 151.641 12.332 151.787 12.3145C151.939 12.291 152.068 12.2617 152.174 12.2266C152.361 12.1621 152.49 12.0625 152.561 11.9277C152.631 11.793 152.666 11.6172 152.666 11.4004V5.88086C152.666 5.67578 152.628 5.50293 152.552 5.3623C152.481 5.21582 152.355 5.11328 152.174 5.05469C152.021 5.00781 151.881 4.97852 151.752 4.9668C151.623 4.94922 151.488 4.93457 151.348 4.92285V4.28125C152.572 4.28125 153.633 4.27539 154.529 4.26367C155.426 4.24609 156.305 4.2373 157.166 4.2373C157.658 4.2373 158.127 4.27246 158.572 4.34277C159.023 4.40723 159.416 4.51562 159.75 4.66797C160.084 4.82031 160.351 5.02832 160.55 5.29199C160.755 5.55566 160.857 5.88086 160.857 6.26758C160.857 6.84766 160.667 7.31055 160.286 7.65625C159.905 7.99609 159.381 8.22754 158.713 8.35059V8.48242C159.047 8.52344 159.372 8.59082 159.688 8.68457C160.011 8.77246 160.289 8.89551 160.523 9.05371C160.775 9.22363 160.972 9.43457 161.112 9.68652C161.253 9.93848 161.323 10.2432 161.323 10.6006ZM157.86 6.33789C157.86 6.03906 157.813 5.79883 157.72 5.61719C157.632 5.42969 157.521 5.28906 157.386 5.19531C157.233 5.08984 157.063 5.01953 156.876 4.98438C156.694 4.94922 156.516 4.93164 156.34 4.93164C156.211 4.93164 156.079 4.9375 155.944 4.94922C155.81 4.95508 155.669 4.96094 155.522 4.9668V8.11328H156.234C156.545 8.11328 156.812 8.06934 157.034 7.98145C157.257 7.89355 157.427 7.76465 157.544 7.59473C157.655 7.44824 157.734 7.26953 157.781 7.05859C157.834 6.84766 157.86 6.60742 157.86 6.33789ZM172.503 12.8154C172.245 12.9268 171.94 13.0293 171.589 13.123C171.237 13.2168 170.865 13.2637 170.473 13.2637C169.752 13.2637 169.222 13.1582 168.882 12.9473C168.542 12.7305 168.311 12.4229 168.188 12.0244H168.135C167.936 12.2236 167.742 12.3936 167.555 12.5342C167.373 12.6748 167.177 12.7949 166.966 12.8945C166.69 13.0234 166.424 13.1172 166.166 13.1758C165.914 13.2402 165.56 13.2725 165.103 13.2725C164.423 13.2725 163.843 13.0732 163.362 12.6748C162.882 12.2705 162.642 11.7373 162.642 11.0752C162.642 10.6943 162.694 10.3721 162.8 10.1084C162.905 9.83887 163.055 9.60156 163.248 9.39648C163.424 9.20898 163.626 9.05371 163.854 8.93066C164.089 8.80762 164.344 8.69336 164.619 8.58789C165.146 8.39453 165.779 8.19531 166.518 7.99023C167.256 7.7793 167.795 7.5918 168.135 7.42773V6.58398C168.135 6.4375 168.123 6.24414 168.1 6.00391C168.076 5.76367 168.026 5.56152 167.95 5.39746C167.868 5.20996 167.739 5.05176 167.563 4.92285C167.388 4.79395 167.156 4.72949 166.869 4.72949C166.611 4.72949 166.395 4.76758 166.219 4.84375C166.049 4.91406 165.911 4.9873 165.806 5.06348C165.823 5.18066 165.873 5.35938 165.955 5.59961C166.037 5.83984 166.078 6.07129 166.078 6.29395C166.078 6.39355 166.052 6.51953 165.999 6.67188C165.946 6.81836 165.87 6.93555 165.771 7.02344C165.636 7.14062 165.483 7.23145 165.313 7.2959C165.149 7.36035 164.895 7.39258 164.549 7.39258C164.057 7.39258 163.685 7.27539 163.433 7.04102C163.181 6.80078 163.055 6.49023 163.055 6.10938C163.055 5.78125 163.184 5.48828 163.441 5.23047C163.705 4.9668 164.024 4.75 164.399 4.58008C164.769 4.4043 165.193 4.26953 165.674 4.17578C166.154 4.07617 166.6 4.02637 167.01 4.02637C167.578 4.02637 168.1 4.06152 168.574 4.13184C169.049 4.19629 169.477 4.33398 169.857 4.54492C170.221 4.75 170.508 5.04883 170.719 5.44141C170.936 5.82812 171.044 6.33496 171.044 6.96191C171.044 7.62402 171.029 8.40918 171 9.31738C170.977 10.2256 170.965 10.8232 170.965 11.1104C170.965 11.374 171.003 11.582 171.079 11.7344C171.161 11.8867 171.284 12.001 171.448 12.0771C171.548 12.124 171.703 12.1533 171.914 12.165C172.131 12.1709 172.327 12.1738 172.503 12.1738V12.8154ZM168.135 8.23633C167.807 8.34766 167.481 8.47656 167.159 8.62305C166.837 8.76367 166.573 8.91309 166.368 9.07129C166.151 9.23535 165.981 9.44629 165.858 9.7041C165.735 9.95605 165.674 10.2549 165.674 10.6006C165.674 11.0576 165.776 11.3887 165.981 11.5938C166.192 11.7988 166.45 11.9014 166.755 11.9014C167.077 11.9014 167.341 11.8369 167.546 11.708C167.757 11.5732 167.941 11.4092 168.1 11.2158L168.135 8.23633ZM184.904 13H179.561V12.3584C179.66 12.3408 179.783 12.3203 179.93 12.2969C180.076 12.2676 180.208 12.2178 180.325 12.1475C180.466 12.0654 180.562 11.9658 180.615 11.8486C180.674 11.7256 180.703 11.5498 180.703 11.3213V8.79883H177.416V11.3213C177.416 11.5264 177.445 11.6963 177.504 11.8311C177.562 11.9658 177.659 12.0713 177.794 12.1475C177.888 12.2002 178.002 12.2441 178.137 12.2793C178.277 12.3145 178.418 12.3408 178.559 12.3584V13H173.215V12.3584C173.361 12.3467 173.508 12.332 173.654 12.3145C173.807 12.291 173.936 12.2617 174.041 12.2266C174.229 12.1621 174.357 12.0625 174.428 11.9277C174.498 11.793 174.533 11.6172 174.533 11.4004V5.88086C174.533 5.67578 174.495 5.50293 174.419 5.3623C174.349 5.21582 174.223 5.11328 174.041 5.05469C173.889 5.00781 173.748 4.97852 173.619 4.9668C173.49 4.94922 173.355 4.93457 173.215 4.92285V4.28125H178.559V4.92285C178.418 4.94043 178.286 4.96387 178.163 4.99316C178.046 5.0166 177.923 5.06348 177.794 5.13379C177.653 5.20996 177.554 5.31836 177.495 5.45898C177.442 5.59961 177.416 5.7666 177.416 5.95996V7.98145H180.703V5.95996C180.703 5.7666 180.677 5.60254 180.624 5.46777C180.571 5.32715 180.472 5.21582 180.325 5.13379C180.214 5.06934 180.085 5.02246 179.938 4.99316C179.798 4.96387 179.672 4.94043 179.561 4.92285V4.28125H184.904V4.92285C184.729 4.93457 184.582 4.94922 184.465 4.9668C184.348 4.98438 184.219 5.01367 184.078 5.05469C183.908 5.10742 183.782 5.2041 183.7 5.34473C183.624 5.47949 183.586 5.6582 183.586 5.88086V11.4004C183.586 11.6113 183.621 11.79 183.691 11.9365C183.768 12.0771 183.896 12.1738 184.078 12.2266C184.219 12.2676 184.342 12.2969 184.447 12.3145C184.559 12.332 184.711 12.3467 184.904 12.3584V13ZM194.933 5.31836C195.366 5.72266 195.697 6.20605 195.926 6.76855C196.154 7.33105 196.269 7.94043 196.269 8.59668C196.269 9.24707 196.154 9.8623 195.926 10.4424C195.703 11.0166 195.375 11.5088 194.941 11.9189C194.479 12.3584 193.925 12.6953 193.28 12.9297C192.642 13.1641 191.909 13.2812 191.083 13.2812C190.368 13.2812 189.709 13.1787 189.105 12.9736C188.508 12.7686 187.978 12.4609 187.515 12.0508C187.069 11.6582 186.718 11.1748 186.46 10.6006C186.202 10.0205 186.073 9.37305 186.073 8.6582C186.073 7.95508 186.185 7.33105 186.407 6.78613C186.636 6.23535 186.976 5.74609 187.427 5.31836C187.86 4.9082 188.394 4.5918 189.026 4.36914C189.665 4.14062 190.377 4.02637 191.162 4.02637C191.982 4.02637 192.703 4.14062 193.324 4.36914C193.951 4.5918 194.487 4.9082 194.933 5.31836ZM192.683 11.4092C192.812 11.0811 192.905 10.6826 192.964 10.2139C193.028 9.74512 193.061 9.2002 193.061 8.5791C193.061 8.16895 193.031 7.7002 192.973 7.17285C192.914 6.64551 192.826 6.22949 192.709 5.9248C192.568 5.55566 192.372 5.26562 192.12 5.05469C191.874 4.84375 191.561 4.73828 191.18 4.73828C190.764 4.73828 190.43 4.85254 190.178 5.08105C189.932 5.30957 189.741 5.60547 189.606 5.96875C189.483 6.30273 189.398 6.69531 189.352 7.14648C189.305 7.5918 189.281 8.05762 189.281 8.54395C189.281 9.18262 189.302 9.71289 189.343 10.1348C189.384 10.5508 189.483 10.9697 189.642 11.3916C189.776 11.7549 189.97 12.042 190.222 12.2529C190.474 12.4639 190.793 12.5693 191.18 12.5693C191.531 12.5693 191.833 12.4727 192.085 12.2793C192.337 12.0801 192.536 11.79 192.683 11.4092ZM204.284 10.4512C204.284 9.98242 204.144 9.5957 203.862 9.29102C203.581 8.98633 203.136 8.83398 202.526 8.83398C202.286 8.83398 202.099 8.83984 201.964 8.85156C201.829 8.86328 201.712 8.86914 201.612 8.86914V11.6729C201.612 11.9072 201.686 12.0889 201.832 12.2178C201.979 12.3408 202.216 12.4023 202.544 12.4023C202.884 12.4023 203.171 12.3467 203.405 12.2354C203.64 12.124 203.821 11.9717 203.95 11.7783C204.073 11.5908 204.158 11.3887 204.205 11.1719C204.258 10.9492 204.284 10.709 204.284 10.4512ZM207.413 10.6006C207.413 11.04 207.311 11.418 207.105 11.7344C206.9 12.0449 206.616 12.2969 206.253 12.4902C205.86 12.6953 205.433 12.8418 204.97 12.9297C204.513 13.0117 203.971 13.0527 203.344 13.0527C201.861 13.0527 200.716 13.0439 199.907 13.0264C199.099 13.0088 198.275 13 197.438 13V12.3584C197.584 12.3467 197.73 12.332 197.877 12.3145C198.029 12.291 198.158 12.2617 198.264 12.2266C198.451 12.1621 198.58 12.0625 198.65 11.9277C198.721 11.793 198.756 11.6172 198.756 11.4004V5.88086C198.756 5.67578 198.718 5.50293 198.642 5.3623C198.571 5.21582 198.445 5.11328 198.264 5.05469C198.111 5.00781 197.971 4.97852 197.842 4.9668C197.713 4.94922 197.578 4.93457 197.438 4.92285V4.28125C198.662 4.28125 199.723 4.27539 200.619 4.26367C201.516 4.24609 202.395 4.2373 203.256 4.2373C203.748 4.2373 204.217 4.27246 204.662 4.34277C205.113 4.40723 205.506 4.51562 205.84 4.66797C206.174 4.82031 206.44 5.02832 206.64 5.29199C206.845 5.55566 206.947 5.88086 206.947 6.26758C206.947 6.84766 206.757 7.31055 206.376 7.65625C205.995 7.99609 205.471 8.22754 204.803 8.35059V8.48242C205.137 8.52344 205.462 8.59082 205.778 8.68457C206.101 8.77246 206.379 8.89551 206.613 9.05371C206.865 9.22363 207.062 9.43457 207.202 9.68652C207.343 9.93848 207.413 10.2432 207.413 10.6006ZM203.95 6.33789C203.95 6.03906 203.903 5.79883 203.81 5.61719C203.722 5.42969 203.61 5.28906 203.476 5.19531C203.323 5.08984 203.153 5.01953 202.966 4.98438C202.784 4.94922 202.605 4.93164 202.43 4.93164C202.301 4.93164 202.169 4.9375 202.034 4.94922C201.899 4.95508 201.759 4.96094 201.612 4.9668V8.11328H202.324C202.635 8.11328 202.901 8.06934 203.124 7.98145C203.347 7.89355 203.517 7.76465 203.634 7.59473C203.745 7.44824 203.824 7.26953 203.871 7.05859C203.924 6.84766 203.95 6.60742 203.95 6.33789ZM220.403 13H215.095V12.3584C215.194 12.3408 215.317 12.3203 215.464 12.2969C215.61 12.2676 215.742 12.2178 215.859 12.1475C216 12.0654 216.097 11.9658 216.149 11.8486C216.208 11.7256 216.237 11.5498 216.237 11.3213V7.18164L212.722 11.3389V11.3652C212.722 11.5762 212.748 11.7461 212.801 11.875C212.859 11.998 212.959 12.0977 213.1 12.1738C213.193 12.2266 213.311 12.2676 213.451 12.2969C213.598 12.3203 213.744 12.3408 213.891 12.3584V13H208.582V12.3584C208.729 12.3467 208.875 12.332 209.021 12.3145C209.174 12.291 209.303 12.2617 209.408 12.2266C209.596 12.1621 209.725 12.0625 209.795 11.9277C209.865 11.793 209.9 11.6172 209.9 11.4004V5.88086C209.9 5.67578 209.862 5.50293 209.786 5.3623C209.716 5.21582 209.59 5.11328 209.408 5.05469C209.256 5.00781 209.115 4.97852 208.986 4.9668C208.857 4.94922 208.723 4.93457 208.582 4.92285V4.28125H213.891V4.92285C213.75 4.94043 213.618 4.96387 213.495 4.99316C213.378 5.0166 213.255 5.06348 213.126 5.13379C212.985 5.20996 212.886 5.31836 212.827 5.45898C212.774 5.59961 212.748 5.7666 212.748 5.95996V10.0996L216.264 5.94238V5.91602C216.264 5.70508 216.234 5.53809 216.176 5.41504C216.123 5.28613 216.026 5.18359 215.886 5.10742C215.774 5.04297 215.64 5.00195 215.481 4.98438C215.329 4.96094 215.2 4.94043 215.095 4.92285V4.28125H220.403V4.92285C220.228 4.93457 220.081 4.94922 219.964 4.9668C219.847 4.98438 219.718 5.01367 219.577 5.05469C219.407 5.10742 219.281 5.2041 219.199 5.34473C219.123 5.47949 219.085 5.6582 219.085 5.88086V11.4004C219.085 11.6113 219.12 11.79 219.19 11.9365C219.267 12.0771 219.396 12.1738 219.577 12.2266C219.718 12.2676 219.841 12.2969 219.946 12.3145C220.058 12.332 220.21 12.3467 220.403 12.3584V13ZM232.409 13H226.872V12.3584C227.019 12.3467 227.168 12.332 227.32 12.3145C227.473 12.291 227.602 12.2617 227.707 12.2266C227.895 12.1621 228.023 12.0625 228.094 11.9277C228.17 11.793 228.208 11.6172 228.208 11.4004V9.26465C227.751 9.56348 227.297 9.80957 226.846 10.0029C226.4 10.1904 225.896 10.2842 225.334 10.2842C224.291 10.2842 223.532 10.0615 223.058 9.61621C222.583 9.1709 222.346 8.48242 222.346 7.55078V5.90723C222.346 5.69629 222.313 5.5293 222.249 5.40625C222.19 5.27734 222.059 5.16895 221.854 5.08105C221.719 5.02246 221.581 4.9873 221.44 4.97559C221.3 4.95801 221.156 4.94043 221.01 4.92285V4.28125H226.362V4.92285C226.222 4.94043 226.09 4.96387 225.967 4.99316C225.85 5.0166 225.727 5.06348 225.598 5.13379C225.457 5.20996 225.357 5.31836 225.299 5.45898C225.246 5.59961 225.22 5.7666 225.22 5.95996V7.03223C225.22 7.36035 225.243 7.62109 225.29 7.81445C225.343 8.00781 225.445 8.18652 225.598 8.35059C225.738 8.50293 225.914 8.61719 226.125 8.69336C226.336 8.76953 226.617 8.80762 226.969 8.80762C227.162 8.80762 227.367 8.78418 227.584 8.7373C227.807 8.68457 228.015 8.62305 228.208 8.55273V5.95996C228.208 5.7666 228.182 5.60254 228.129 5.46777C228.076 5.32715 227.977 5.21582 227.83 5.13379C227.719 5.06934 227.59 5.02246 227.443 4.99316C227.303 4.96387 227.177 4.94043 227.065 4.92285V4.28125H232.409V4.92285C232.233 4.93457 232.087 4.94922 231.97 4.9668C231.853 4.98438 231.724 5.01367 231.583 5.05469C231.413 5.10742 231.287 5.2041 231.205 5.34473C231.129 5.47949 231.091 5.6582 231.091 5.88086V11.4004C231.091 11.6113 231.126 11.79 231.196 11.9365C231.272 12.0771 231.401 12.1738 231.583 12.2266C231.724 12.2676 231.847 12.2969 231.952 12.3145C232.063 12.332 232.216 12.3467 232.409 12.3584V13Z" fill="white"/>
</svg>
