<svg width="114" height="34" viewBox="0 0 114 34" fill="none" xmlns="http://www.w3.org/2000/svg">
<path d="M0.780273 13L0.912109 12.4199C1.05859 12.4082 1.2666 12.3906 1.53613 12.3672C1.80566 12.3438 1.99609 12.3086 2.10742 12.2617C2.3125 12.1855 2.4707 12.0742 2.58203 11.9277C2.69336 11.7812 2.77246 11.5996 2.81934 11.3828L4.91992 2.29492C4.93164 2.24805 4.94043 2.20117 4.94629 2.1543C4.95215 2.10156 4.95508 2.04883 4.95508 1.99609C4.95508 1.86719 4.92871 1.75586 4.87598 1.66211C4.8291 1.56836 4.74121 1.48633 4.6123 1.41602C4.47168 1.33984 4.2959 1.27246 4.08496 1.21387C3.87402 1.15527 3.68652 1.12012 3.52246 1.1084L3.6543 0.52832H8.81348L8.68164 1.1084C8.51758 1.11426 8.30957 1.14063 8.05762 1.1875C7.80566 1.23437 7.61523 1.27832 7.48633 1.31934C7.25781 1.39551 7.09375 1.51562 6.99414 1.67969C6.89453 1.84375 6.82129 2.01953 6.77441 2.20703L5.03418 9.71289L12.7861 2.33887C12.792 2.30371 12.8008 2.24805 12.8125 2.17188C12.8242 2.0957 12.8301 2.02832 12.8301 1.96973C12.8301 1.84668 12.8037 1.73535 12.751 1.63574C12.6982 1.53613 12.6074 1.4541 12.4785 1.38965C12.3555 1.3252 12.1709 1.2666 11.9248 1.21387C11.6787 1.16113 11.4824 1.12598 11.3359 1.1084L11.4678 0.52832H16.627L16.4951 1.1084C16.3311 1.11426 16.126 1.14063 15.8799 1.1875C15.6338 1.23437 15.4463 1.27832 15.3174 1.31934C15.0889 1.39551 14.9248 1.51562 14.8252 1.67969C14.7256 1.84375 14.6523 2.01953 14.6055 2.20703L12.5137 11.2861C12.502 11.333 12.4932 11.3857 12.4873 11.4443C12.4814 11.5029 12.4785 11.5527 12.4785 11.5938C12.4785 11.7168 12.5049 11.8252 12.5576 11.9189C12.6104 12.0127 12.6953 12.0977 12.8125 12.1738C12.9004 12.2266 13.0586 12.2793 13.2871 12.332C13.5215 12.3848 13.7207 12.4141 13.8848 12.4199L13.7529 13H8.59375L8.72559 12.4199C8.87207 12.4082 9.08301 12.3906 9.3584 12.3672C9.63379 12.3438 9.82715 12.3086 9.93848 12.2617C10.1436 12.1855 10.3018 12.0742 10.4131 11.9277C10.5244 11.7812 10.6035 11.5996 10.6504 11.3828L12.4434 3.68359L4.68262 11.0664C4.65918 11.1426 4.63867 11.2334 4.62109 11.3389C4.60352 11.4443 4.59473 11.5264 4.59473 11.585C4.59473 11.7139 4.61816 11.8281 4.66504 11.9277C4.71777 12.0273 4.81152 12.1094 4.94629 12.1738C5.06934 12.2324 5.24512 12.2852 5.47363 12.332C5.70801 12.3789 5.90723 12.4082 6.07129 12.4199L5.93945 13H0.780273ZM24.3262 5.91602C24.3262 6.47852 24.127 6.9707 23.7285 7.39258C23.3359 7.80859 22.7324 8.11328 21.918 8.30664L21.9092 8.40332C22.542 8.44434 23.0576 8.62012 23.4561 8.93066C23.8604 9.24121 24.0625 9.65723 24.0625 10.1787C24.0625 11.0869 23.6699 11.8281 22.8848 12.4023C22.1055 12.9766 21.0508 13.2637 19.7207 13.2637C18.6309 13.2637 17.8281 12.9941 17.3125 12.4551C16.8027 11.916 16.5479 11.1426 16.5479 10.1348C16.5479 9.30859 16.6533 8.53809 16.8643 7.82324C17.0752 7.10254 17.3916 6.46387 17.8135 5.90723C18.2236 5.36816 18.751 4.9375 19.3955 4.61523C20.04 4.29297 20.7695 4.13184 21.584 4.13184C21.9824 4.13184 22.3369 4.16406 22.6475 4.22852C22.9639 4.29297 23.2539 4.40137 23.5176 4.55371C23.7695 4.7002 23.9658 4.88477 24.1064 5.10742C24.2529 5.32422 24.3262 5.59375 24.3262 5.91602ZM22.6475 6.05664C22.6475 5.65234 22.5127 5.33594 22.2432 5.10742C21.9736 4.87305 21.6309 4.75586 21.2148 4.75586C20.8047 4.75586 20.4414 4.8584 20.125 5.06348C19.8145 5.26855 19.5391 5.55859 19.2988 5.93359C19.0703 6.28516 18.8887 6.66895 18.7539 7.08496C18.625 7.50098 18.5166 7.91992 18.4287 8.3418L20.0371 8.16602C20.5586 8.10742 20.9951 8.01074 21.3467 7.87598C21.6982 7.74121 21.9678 7.58301 22.1553 7.40137C22.3369 7.21973 22.4629 7.02051 22.5332 6.80371C22.6094 6.58105 22.6475 6.33203 22.6475 6.05664ZM22.3047 10.1699C22.3047 9.74219 22.1465 9.40234 21.8301 9.15039C21.5195 8.89844 21.0068 8.77246 20.292 8.77246C19.9756 8.77246 19.6182 8.79883 19.2197 8.85156C18.8213 8.9043 18.5195 8.94824 18.3145 8.9834C18.2852 9.17676 18.2646 9.3877 18.2529 9.61621C18.2471 9.84473 18.2441 10.0352 18.2441 10.1875C18.2441 10.6445 18.2969 11.0312 18.4023 11.3477C18.5137 11.6641 18.6514 11.916 18.8154 12.1035C18.9795 12.2852 19.1699 12.4199 19.3867 12.5078C19.6035 12.5957 19.8232 12.6396 20.0459 12.6396C20.4619 12.6396 20.8164 12.5635 21.1094 12.4111C21.4082 12.2588 21.6455 12.0566 21.8213 11.8047C21.9854 11.5703 22.1055 11.3125 22.1816 11.0312C22.2637 10.7441 22.3047 10.457 22.3047 10.1699ZM31.1289 11.8398H31.0674C30.9385 11.9453 30.7832 12.0801 30.6016 12.2441C30.4258 12.4023 30.2178 12.5547 29.9775 12.7012C29.749 12.8477 29.5 12.9736 29.2305 13.0791C28.9609 13.1904 28.668 13.2461 28.3516 13.2461C27.502 13.2461 26.834 12.9414 26.3477 12.332C25.8672 11.7227 25.627 10.8906 25.627 9.83594C25.627 9.10938 25.7617 8.40332 26.0312 7.71777C26.3008 7.03223 26.6729 6.41699 27.1475 5.87207C27.5986 5.35059 28.1348 4.93164 28.7559 4.61523C29.377 4.29297 30.0156 4.13184 30.6719 4.13184C31.0879 4.13184 31.4834 4.1875 31.8584 4.29883C32.2393 4.41016 32.5381 4.53613 32.7549 4.67676L34.3633 4.26367L34.4688 4.39551L33.1328 10.0645C33.0859 10.2461 33.0361 10.4688 32.9834 10.7324C32.9365 10.9902 32.9131 11.1807 32.9131 11.3037C32.9131 11.6377 32.9834 11.8633 33.124 11.9805C33.2646 12.0977 33.502 12.1562 33.8359 12.1562C33.9473 12.1562 34.1055 12.1387 34.3105 12.1035C34.5156 12.0684 34.6738 12.0303 34.7852 11.9893L34.6533 12.5518C34.126 12.7627 33.7334 12.915 33.4756 13.0088C33.2178 13.1025 32.9043 13.1494 32.5352 13.1494C32.1133 13.1494 31.7793 13.0264 31.5332 12.7803C31.2871 12.5342 31.1523 12.2207 31.1289 11.8398ZM32.3857 6.28516C32.3857 6.0918 32.3652 5.90723 32.3242 5.73145C32.2832 5.55566 32.1982 5.3916 32.0693 5.23926C31.9521 5.09277 31.791 4.97559 31.5859 4.8877C31.3809 4.7998 31.123 4.75586 30.8125 4.75586C30.3848 4.75586 29.9688 4.89648 29.5645 5.17773C29.1602 5.45898 28.7969 5.83691 28.4746 6.31152C28.1699 6.75684 27.9209 7.2959 27.7275 7.92871C27.5342 8.56152 27.4375 9.20312 27.4375 9.85352C27.4375 10.2109 27.458 10.5273 27.499 10.8027C27.54 11.0781 27.6191 11.3301 27.7363 11.5586C27.8477 11.7812 28.0088 11.9541 28.2197 12.0771C28.4307 12.2002 28.6973 12.2617 29.0195 12.2617C29.3477 12.2617 29.6904 12.1709 30.0479 11.9893C30.4111 11.8018 30.8184 11.4766 31.2695 11.0137L32.3857 6.28516ZM39.0654 8.05176H42.5986L43.46 4.36914L44.9893 4.26367L45.0947 4.39551L43.7852 10.0557C43.7441 10.2256 43.6943 10.4482 43.6357 10.7236C43.583 10.9932 43.5566 11.1836 43.5566 11.2949C43.5566 11.6289 43.6299 11.8574 43.7764 11.9805C43.9229 12.0977 44.1631 12.1562 44.4971 12.1562C44.6084 12.1562 44.7666 12.1387 44.9717 12.1035C45.1826 12.0625 45.3438 12.0215 45.4551 11.9805L45.3232 12.543C44.7959 12.7539 44.3857 12.9062 44.0928 13C43.7998 13.0996 43.5039 13.1494 43.2051 13.1494C42.7363 13.1494 42.3848 13.0293 42.1504 12.7891C41.916 12.543 41.7988 12.2412 41.7988 11.8838C41.7988 11.7549 41.8105 11.6143 41.834 11.4619C41.8633 11.3037 41.9014 11.1104 41.9482 10.8818L42.4404 8.75488H38.9072L37.9404 13H36.2969L37.6064 7.30469C37.6475 7.11719 37.6914 6.90332 37.7383 6.66309C37.7852 6.41699 37.8086 6.21191 37.8086 6.04785C37.8086 5.71973 37.7529 5.50293 37.6416 5.39746C37.5361 5.28613 37.3164 5.23047 36.9824 5.23047C36.8535 5.23047 36.6895 5.25391 36.4902 5.30078C36.291 5.34766 36.1357 5.38574 36.0244 5.41504L36.1562 4.85254C36.6133 4.64746 37.0146 4.49219 37.3604 4.38672C37.7119 4.28125 37.9932 4.22852 38.2041 4.22852C38.6729 4.22852 39.0156 4.33984 39.2324 4.5625C39.4551 4.7793 39.5664 5.08984 39.5664 5.49414C39.5664 5.58789 39.5547 5.73145 39.5312 5.9248C39.5078 6.1123 39.4697 6.32031 39.417 6.54883L39.0654 8.05176ZM55.0088 7.58594C55.0088 8.27734 54.8916 8.96875 54.6572 9.66016C54.4229 10.3516 54.083 10.958 53.6377 11.4795C53.1865 12.0186 52.6416 12.4521 52.0029 12.7803C51.3701 13.1025 50.6348 13.2637 49.7969 13.2637C48.8242 13.2637 48.0332 12.9502 47.4238 12.3232C46.8203 11.6963 46.5186 10.8525 46.5186 9.79199C46.5186 9.0127 46.6475 8.28613 46.9053 7.6123C47.1631 6.93848 47.5088 6.34668 47.9424 5.83691C48.3818 5.32715 48.9238 4.91699 49.5684 4.60645C50.2188 4.29004 50.9219 4.13184 51.6777 4.13184C52.7207 4.13184 53.5352 4.45117 54.1211 5.08984C54.7129 5.72266 55.0088 6.55469 55.0088 7.58594ZM53.2158 7.25195C53.2158 6.41992 53.0664 5.7959 52.7676 5.37988C52.4746 4.96387 52.0498 4.75586 51.4932 4.75586C51.0068 4.75586 50.5469 4.90527 50.1133 5.2041C49.6855 5.50293 49.3164 5.98926 49.0059 6.66309C48.7656 7.17285 48.5898 7.74121 48.4785 8.36816C48.3672 8.98926 48.3115 9.56348 48.3115 10.0908C48.3115 10.9287 48.4551 11.5645 48.7422 11.998C49.0352 12.4258 49.4746 12.6396 50.0605 12.6396C50.582 12.6396 51.0449 12.4756 51.4492 12.1475C51.8535 11.8193 52.1816 11.4033 52.4336 10.8994C52.6855 10.4072 52.8789 9.84473 53.0137 9.21191C53.1484 8.57324 53.2158 7.91992 53.2158 7.25195ZM64.1934 5.91602C64.1934 6.47852 63.9941 6.9707 63.5957 7.39258C63.2031 7.80859 62.5996 8.11328 61.7852 8.30664L61.7764 8.40332C62.4092 8.44434 62.9248 8.62012 63.3232 8.93066C63.7275 9.24121 63.9297 9.65723 63.9297 10.1787C63.9297 11.0869 63.5371 11.8281 62.752 12.4023C61.9727 12.9766 60.918 13.2637 59.5879 13.2637C58.498 13.2637 57.6953 12.9941 57.1797 12.4551C56.6699 11.916 56.415 11.1426 56.415 10.1348C56.415 9.30859 56.5205 8.53809 56.7314 7.82324C56.9424 7.10254 57.2588 6.46387 57.6807 5.90723C58.0908 5.36816 58.6182 4.9375 59.2627 4.61523C59.9072 4.29297 60.6367 4.13184 61.4512 4.13184C61.8496 4.13184 62.2041 4.16406 62.5146 4.22852C62.8311 4.29297 63.1211 4.40137 63.3848 4.55371C63.6367 4.7002 63.833 4.88477 63.9736 5.10742C64.1201 5.32422 64.1934 5.59375 64.1934 5.91602ZM62.5146 6.05664C62.5146 5.65234 62.3799 5.33594 62.1104 5.10742C61.8408 4.87305 61.498 4.75586 61.082 4.75586C60.6719 4.75586 60.3086 4.8584 59.9922 5.06348C59.6816 5.26855 59.4062 5.55859 59.166 5.93359C58.9375 6.28516 58.7559 6.66895 58.6211 7.08496C58.4922 7.50098 58.3838 7.91992 58.2959 8.3418L59.9043 8.16602C60.4258 8.10742 60.8623 8.01074 61.2139 7.87598C61.5654 7.74121 61.835 7.58301 62.0225 7.40137C62.2041 7.21973 62.3301 7.02051 62.4004 6.80371C62.4766 6.58105 62.5146 6.33203 62.5146 6.05664ZM62.1719 10.1699C62.1719 9.74219 62.0137 9.40234 61.6973 9.15039C61.3867 8.89844 60.874 8.77246 60.1592 8.77246C59.8428 8.77246 59.4854 8.79883 59.0869 8.85156C58.6885 8.9043 58.3867 8.94824 58.1816 8.9834C58.1523 9.17676 58.1318 9.3877 58.1201 9.61621C58.1143 9.84473 58.1113 10.0352 58.1113 10.1875C58.1113 10.6445 58.1641 11.0312 58.2695 11.3477C58.3809 11.6641 58.5186 11.916 58.6826 12.1035C58.8467 12.2852 59.0371 12.4199 59.2539 12.5078C59.4707 12.5957 59.6904 12.6396 59.9131 12.6396C60.3291 12.6396 60.6836 12.5635 60.9766 12.4111C61.2754 12.2588 61.5127 12.0566 61.6885 11.8047C61.8525 11.5703 61.9727 11.3125 62.0488 11.0312C62.1309 10.7441 62.1719 10.457 62.1719 10.1699ZM69.001 13L69.1328 12.4199C69.2793 12.4082 69.4873 12.3906 69.7568 12.3672C70.0264 12.3438 70.2168 12.3086 70.3281 12.2617C70.5332 12.1855 70.6914 12.0742 70.8027 11.9277C70.9141 11.7812 70.9932 11.5996 71.04 11.3828L73.1406 2.29492C73.1523 2.24805 73.1611 2.20117 73.167 2.1543C73.1729 2.10156 73.1758 2.04883 73.1758 1.99609C73.1758 1.86719 73.1494 1.75586 73.0967 1.66211C73.0498 1.56836 72.9619 1.48633 72.833 1.41602C72.6924 1.33984 72.5166 1.27246 72.3057 1.21387C72.0947 1.15527 71.9072 1.12012 71.7432 1.1084L71.875 0.52832H77.0342L76.9023 1.1084C76.7383 1.11426 76.5303 1.14063 76.2783 1.1875C76.0264 1.23437 75.8359 1.27832 75.707 1.31934C75.4785 1.39551 75.3145 1.51562 75.2148 1.67969C75.1152 1.84375 75.042 2.01953 74.9951 2.20703L73.2549 9.71289L81.0068 2.33887C81.0127 2.30371 81.0215 2.24805 81.0332 2.17188C81.0449 2.0957 81.0508 2.02832 81.0508 1.96973C81.0508 1.84668 81.0244 1.73535 80.9717 1.63574C80.9189 1.53613 80.8281 1.4541 80.6992 1.38965C80.5762 1.3252 80.3916 1.2666 80.1455 1.21387C79.8994 1.16113 79.7031 1.12598 79.5566 1.1084L79.6885 0.52832H84.8477L84.7158 1.1084C84.5518 1.11426 84.3467 1.14063 84.1006 1.1875C83.8545 1.23437 83.667 1.27832 83.5381 1.31934C83.3096 1.39551 83.1455 1.51562 83.0459 1.67969C82.9463 1.84375 82.873 2.01953 82.8262 2.20703L80.7344 11.2861C80.7227 11.333 80.7139 11.3857 80.708 11.4443C80.7021 11.5029 80.6992 11.5527 80.6992 11.5938C80.6992 11.7168 80.7256 11.8252 80.7783 11.9189C80.8311 12.0127 80.916 12.0977 81.0332 12.1738C81.1211 12.2266 81.2793 12.2793 81.5078 12.332C81.7422 12.3848 81.9414 12.4141 82.1055 12.4199L81.9736 13H76.8145L76.9463 12.4199C77.0928 12.4082 77.3037 12.3906 77.5791 12.3672C77.8545 12.3438 78.0479 12.3086 78.1592 12.2617C78.3643 12.1855 78.5225 12.0742 78.6338 11.9277C78.7451 11.7812 78.8242 11.5996 78.8711 11.3828L80.6641 3.68359L72.9033 11.0664C72.8799 11.1426 72.8594 11.2334 72.8418 11.3389C72.8242 11.4443 72.8154 11.5264 72.8154 11.585C72.8154 11.7139 72.8389 11.8281 72.8857 11.9277C72.9385 12.0273 73.0322 12.1094 73.167 12.1738C73.29 12.2324 73.4658 12.2852 73.6943 12.332C73.9287 12.3789 74.1279 12.4082 74.292 12.4199L74.1602 13H69.001ZM92.5469 5.91602C92.5469 6.47852 92.3477 6.9707 91.9492 7.39258C91.5566 7.80859 90.9531 8.11328 90.1387 8.30664L90.1299 8.40332C90.7627 8.44434 91.2783 8.62012 91.6768 8.93066C92.0811 9.24121 92.2832 9.65723 92.2832 10.1787C92.2832 11.0869 91.8906 11.8281 91.1055 12.4023C90.3262 12.9766 89.2715 13.2637 87.9414 13.2637C86.8516 13.2637 86.0488 12.9941 85.5332 12.4551C85.0234 11.916 84.7686 11.1426 84.7686 10.1348C84.7686 9.30859 84.874 8.53809 85.085 7.82324C85.2959 7.10254 85.6123 6.46387 86.0342 5.90723C86.4443 5.36816 86.9717 4.9375 87.6162 4.61523C88.2607 4.29297 88.9902 4.13184 89.8047 4.13184C90.2031 4.13184 90.5576 4.16406 90.8682 4.22852C91.1846 4.29297 91.4746 4.40137 91.7383 4.55371C91.9902 4.7002 92.1865 4.88477 92.3271 5.10742C92.4736 5.32422 92.5469 5.59375 92.5469 5.91602ZM90.8682 6.05664C90.8682 5.65234 90.7334 5.33594 90.4639 5.10742C90.1943 4.87305 89.8516 4.75586 89.4355 4.75586C89.0254 4.75586 88.6621 4.8584 88.3457 5.06348C88.0352 5.26855 87.7598 5.55859 87.5195 5.93359C87.291 6.28516 87.1094 6.66895 86.9746 7.08496C86.8457 7.50098 86.7373 7.91992 86.6494 8.3418L88.2578 8.16602C88.7793 8.10742 89.2158 8.01074 89.5674 7.87598C89.9189 7.74121 90.1885 7.58301 90.376 7.40137C90.5576 7.21973 90.6836 7.02051 90.7539 6.80371C90.8301 6.58105 90.8682 6.33203 90.8682 6.05664ZM90.5254 10.1699C90.5254 9.74219 90.3672 9.40234 90.0508 9.15039C89.7402 8.89844 89.2275 8.77246 88.5127 8.77246C88.1963 8.77246 87.8389 8.79883 87.4404 8.85156C87.042 8.9043 86.7402 8.94824 86.5352 8.9834C86.5059 9.17676 86.4854 9.3877 86.4736 9.61621C86.4678 9.84473 86.4648 10.0352 86.4648 10.1875C86.4648 10.6445 86.5176 11.0312 86.623 11.3477C86.7344 11.6641 86.8721 11.916 87.0361 12.1035C87.2002 12.2852 87.3906 12.4199 87.6074 12.5078C87.8242 12.5957 88.0439 12.6396 88.2666 12.6396C88.6826 12.6396 89.0371 12.5635 89.3301 12.4111C89.6289 12.2588 89.8662 12.0566 90.042 11.8047C90.2061 11.5703 90.3262 11.3125 90.4023 11.0312C90.4844 10.7441 90.5254 10.457 90.5254 10.1699ZM99.3496 11.8398H99.2881C99.1592 11.9453 99.0039 12.0801 98.8223 12.2441C98.6465 12.4023 98.4385 12.5547 98.1982 12.7012C97.9697 12.8477 97.7207 12.9736 97.4512 13.0791C97.1816 13.1904 96.8887 13.2461 96.5723 13.2461C95.7227 13.2461 95.0547 12.9414 94.5684 12.332C94.0879 11.7227 93.8477 10.8906 93.8477 9.83594C93.8477 9.10938 93.9824 8.40332 94.252 7.71777C94.5215 7.03223 94.8936 6.41699 95.3682 5.87207C95.8193 5.35059 96.3555 4.93164 96.9766 4.61523C97.5977 4.29297 98.2363 4.13184 98.8926 4.13184C99.3086 4.13184 99.7041 4.1875 100.079 4.29883C100.46 4.41016 100.759 4.53613 100.976 4.67676L102.584 4.26367L102.689 4.39551L101.354 10.0645C101.307 10.2461 101.257 10.4688 101.204 10.7324C101.157 10.9902 101.134 11.1807 101.134 11.3037C101.134 11.6377 101.204 11.8633 101.345 11.9805C101.485 12.0977 101.723 12.1562 102.057 12.1562C102.168 12.1562 102.326 12.1387 102.531 12.1035C102.736 12.0684 102.895 12.0303 103.006 11.9893L102.874 12.5518C102.347 12.7627 101.954 12.915 101.696 13.0088C101.438 13.1025 101.125 13.1494 100.756 13.1494C100.334 13.1494 100 13.0264 99.7539 12.7803C99.5078 12.5342 99.373 12.2207 99.3496 11.8398ZM100.606 6.28516C100.606 6.0918 100.586 5.90723 100.545 5.73145C100.504 5.55566 100.419 5.3916 100.29 5.23926C100.173 5.09277 100.012 4.97559 99.8066 4.8877C99.6016 4.7998 99.3438 4.75586 99.0332 4.75586C98.6055 4.75586 98.1895 4.89648 97.7852 5.17773C97.3809 5.45898 97.0176 5.83691 96.6953 6.31152C96.3906 6.75684 96.1416 7.2959 95.9482 7.92871C95.7549 8.56152 95.6582 9.20312 95.6582 9.85352C95.6582 10.2109 95.6787 10.5273 95.7197 10.8027C95.7607 11.0781 95.8398 11.3301 95.957 11.5586C96.0684 11.7812 96.2295 11.9541 96.4404 12.0771C96.6514 12.2002 96.918 12.2617 97.2402 12.2617C97.5684 12.2617 97.9111 12.1709 98.2686 11.9893C98.6318 11.8018 99.0391 11.4766 99.4902 11.0137L100.606 6.28516ZM107.286 8.05176H110.819L111.681 4.36914L113.21 4.26367L113.315 4.39551L112.006 10.0557C111.965 10.2256 111.915 10.4482 111.856 10.7236C111.804 10.9932 111.777 11.1836 111.777 11.2949C111.777 11.6289 111.851 11.8574 111.997 11.9805C112.144 12.0977 112.384 12.1562 112.718 12.1562C112.829 12.1562 112.987 12.1387 113.192 12.1035C113.403 12.0625 113.564 12.0215 113.676 11.9805L113.544 12.543C113.017 12.7539 112.606 12.9062 112.313 13C112.021 13.0996 111.725 13.1494 111.426 13.1494C110.957 13.1494 110.605 13.0293 110.371 12.7891C110.137 12.543 110.02 12.2412 110.02 11.8838C110.02 11.7549 110.031 11.6143 110.055 11.4619C110.084 11.3037 110.122 11.1104 110.169 10.8818L110.661 8.75488H107.128L106.161 13H104.518L105.827 7.30469C105.868 7.11719 105.912 6.90332 105.959 6.66309C106.006 6.41699 106.029 6.21191 106.029 6.04785C106.029 5.71973 105.974 5.50293 105.862 5.39746C105.757 5.28613 105.537 5.23047 105.203 5.23047C105.074 5.23047 104.91 5.25391 104.711 5.30078C104.512 5.34766 104.356 5.38574 104.245 5.41504L104.377 4.85254C104.834 4.64746 105.235 4.49219 105.581 4.38672C105.933 4.28125 106.214 4.22852 106.425 4.22852C106.894 4.22852 107.236 4.33984 107.453 4.5625C107.676 4.7793 107.787 5.08984 107.787 5.49414C107.787 5.58789 107.775 5.73145 107.752 5.9248C107.729 6.1123 107.69 6.32031 107.638 6.54883L107.286 8.05176ZM0.780273 33L0.912109 32.4199C1.05859 32.4082 1.2666 32.3906 1.53613 32.3672C1.80566 32.3438 1.99609 32.3086 2.10742 32.2617C2.3125 32.1855 2.4707 32.0742 2.58203 31.9277C2.69336 31.7812 2.77246 31.5996 2.81934 31.3828L4.91992 22.2949C4.93164 22.248 4.94043 22.2012 4.94629 22.1543C4.95215 22.1016 4.95508 22.0488 4.95508 21.9961C4.95508 21.8672 4.92871 21.7559 4.87598 21.6621C4.8291 21.5684 4.74121 21.4863 4.6123 21.416C4.47168 21.3398 4.2959 21.2725 4.08496 21.2139C3.87402 21.1553 3.68652 21.1201 3.52246 21.1084L3.6543 20.5283H8.81348L8.68164 21.1084C8.51758 21.1143 8.30957 21.1406 8.05762 21.1875C7.80566 21.2344 7.61523 21.2783 7.48633 21.3193C7.25781 21.3955 7.09375 21.5156 6.99414 21.6797C6.89453 21.8438 6.82129 22.0195 6.77441 22.207L5.03418 29.7129L12.7861 22.3389C12.792 22.3037 12.8008 22.248 12.8125 22.1719C12.8242 22.0957 12.8301 22.0283 12.8301 21.9697C12.8301 21.8467 12.8037 21.7354 12.751 21.6357C12.6982 21.5361 12.6074 21.4541 12.4785 21.3896C12.3555 21.3252 12.1709 21.2666 11.9248 21.2139C11.6787 21.1611 11.4824 21.126 11.3359 21.1084L11.4678 20.5283H16.627L16.4951 21.1084C16.3311 21.1143 16.126 21.1406 15.8799 21.1875C15.6338 21.2344 15.4463 21.2783 15.3174 21.3193C15.0889 21.3955 14.9248 21.5156 14.8252 21.6797C14.7256 21.8438 14.6523 22.0195 14.6055 22.207L12.5137 31.2861C12.502 31.333 12.4932 31.3857 12.4873 31.4443C12.4814 31.5029 12.4785 31.5527 12.4785 31.5938C12.4785 31.7168 12.5049 31.8252 12.5576 31.9189C12.6104 32.0127 12.6953 32.0977 12.8125 32.1738C12.9004 32.2266 13.0586 32.2793 13.2871 32.332C13.5215 32.3848 13.7207 32.4141 13.8848 32.4199L13.7529 33H8.59375L8.72559 32.4199C8.87207 32.4082 9.08301 32.3906 9.3584 32.3672C9.63379 32.3438 9.82715 32.3086 9.93848 32.2617C10.1436 32.1855 10.3018 32.0742 10.4131 31.9277C10.5244 31.7812 10.6035 31.5996 10.6504 31.3828L12.4434 23.6836L4.68262 31.0664C4.65918 31.1426 4.63867 31.2334 4.62109 31.3389C4.60352 31.4443 4.59473 31.5264 4.59473 31.585C4.59473 31.7139 4.61816 31.8281 4.66504 31.9277C4.71777 32.0273 4.81152 32.1094 4.94629 32.1738C5.06934 32.2324 5.24512 32.2852 5.47363 32.332C5.70801 32.3789 5.90723 32.4082 6.07129 32.4199L5.93945 33H0.780273ZM24.3262 25.916C24.3262 26.4785 24.127 26.9707 23.7285 27.3926C23.3359 27.8086 22.7324 28.1133 21.918 28.3066L21.9092 28.4033C22.542 28.4443 23.0576 28.6201 23.4561 28.9307C23.8604 29.2412 24.0625 29.6572 24.0625 30.1787C24.0625 31.0869 23.6699 31.8281 22.8848 32.4023C22.1055 32.9766 21.0508 33.2637 19.7207 33.2637C18.6309 33.2637 17.8281 32.9941 17.3125 32.4551C16.8027 31.916 16.5479 31.1426 16.5479 30.1348C16.5479 29.3086 16.6533 28.5381 16.8643 27.8232C17.0752 27.1025 17.3916 26.4639 17.8135 25.9072C18.2236 25.3682 18.751 24.9375 19.3955 24.6152C20.04 24.293 20.7695 24.1318 21.584 24.1318C21.9824 24.1318 22.3369 24.1641 22.6475 24.2285C22.9639 24.293 23.2539 24.4014 23.5176 24.5537C23.7695 24.7002 23.9658 24.8848 24.1064 25.1074C24.2529 25.3242 24.3262 25.5938 24.3262 25.916ZM22.6475 26.0566C22.6475 25.6523 22.5127 25.3359 22.2432 25.1074C21.9736 24.873 21.6309 24.7559 21.2148 24.7559C20.8047 24.7559 20.4414 24.8584 20.125 25.0635C19.8145 25.2686 19.5391 25.5586 19.2988 25.9336C19.0703 26.2852 18.8887 26.6689 18.7539 27.085C18.625 27.501 18.5166 27.9199 18.4287 28.3418L20.0371 28.166C20.5586 28.1074 20.9951 28.0107 21.3467 27.876C21.6982 27.7412 21.9678 27.583 22.1553 27.4014C22.3369 27.2197 22.4629 27.0205 22.5332 26.8037C22.6094 26.5811 22.6475 26.332 22.6475 26.0566ZM22.3047 30.1699C22.3047 29.7422 22.1465 29.4023 21.8301 29.1504C21.5195 28.8984 21.0068 28.7725 20.292 28.7725C19.9756 28.7725 19.6182 28.7988 19.2197 28.8516C18.8213 28.9043 18.5195 28.9482 18.3145 28.9834C18.2852 29.1768 18.2646 29.3877 18.2529 29.6162C18.2471 29.8447 18.2441 30.0352 18.2441 30.1875C18.2441 30.6445 18.2969 31.0312 18.4023 31.3477C18.5137 31.6641 18.6514 31.916 18.8154 32.1035C18.9795 32.2852 19.1699 32.4199 19.3867 32.5078C19.6035 32.5957 19.8232 32.6396 20.0459 32.6396C20.4619 32.6396 20.8164 32.5635 21.1094 32.4111C21.4082 32.2588 21.6455 32.0566 21.8213 31.8047C21.9854 31.5703 22.1055 31.3125 22.1816 31.0312C22.2637 30.7441 22.3047 30.457 22.3047 30.1699ZM31.1289 31.8398H31.0674C30.9385 31.9453 30.7832 32.0801 30.6016 32.2441C30.4258 32.4023 30.2178 32.5547 29.9775 32.7012C29.749 32.8477 29.5 32.9736 29.2305 33.0791C28.9609 33.1904 28.668 33.2461 28.3516 33.2461C27.502 33.2461 26.834 32.9414 26.3477 32.332C25.8672 31.7227 25.627 30.8906 25.627 29.8359C25.627 29.1094 25.7617 28.4033 26.0312 27.7178C26.3008 27.0322 26.6729 26.417 27.1475 25.8721C27.5986 25.3506 28.1348 24.9316 28.7559 24.6152C29.377 24.293 30.0156 24.1318 30.6719 24.1318C31.0879 24.1318 31.4834 24.1875 31.8584 24.2988C32.2393 24.4102 32.5381 24.5361 32.7549 24.6768L34.3633 24.2637L34.4688 24.3955L33.1328 30.0645C33.0859 30.2461 33.0361 30.4688 32.9834 30.7324C32.9365 30.9902 32.9131 31.1807 32.9131 31.3037C32.9131 31.6377 32.9834 31.8633 33.124 31.9805C33.2646 32.0977 33.502 32.1562 33.8359 32.1562C33.9473 32.1562 34.1055 32.1387 34.3105 32.1035C34.5156 32.0684 34.6738 32.0303 34.7852 31.9893L34.6533 32.5518C34.126 32.7627 33.7334 32.915 33.4756 33.0088C33.2178 33.1025 32.9043 33.1494 32.5352 33.1494C32.1133 33.1494 31.7793 33.0264 31.5332 32.7803C31.2871 32.5342 31.1523 32.2207 31.1289 31.8398ZM32.3857 26.2852C32.3857 26.0918 32.3652 25.9072 32.3242 25.7314C32.2832 25.5557 32.1982 25.3916 32.0693 25.2393C31.9521 25.0928 31.791 24.9756 31.5859 24.8877C31.3809 24.7998 31.123 24.7559 30.8125 24.7559C30.3848 24.7559 29.9688 24.8965 29.5645 25.1777C29.1602 25.459 28.7969 25.8369 28.4746 26.3115C28.1699 26.7568 27.9209 27.2959 27.7275 27.9287C27.5342 28.5615 27.4375 29.2031 27.4375 29.8535C27.4375 30.2109 27.458 30.5273 27.499 30.8027C27.54 31.0781 27.6191 31.3301 27.7363 31.5586C27.8477 31.7812 28.0088 31.9541 28.2197 32.0771C28.4307 32.2002 28.6973 32.2617 29.0195 32.2617C29.3477 32.2617 29.6904 32.1709 30.0479 31.9893C30.4111 31.8018 30.8184 31.4766 31.2695 31.0137L32.3857 26.2852ZM39.0654 28.0518H42.5986L43.46 24.3691L44.9893 24.2637L45.0947 24.3955L43.7852 30.0557C43.7441 30.2256 43.6943 30.4482 43.6357 30.7236C43.583 30.9932 43.5566 31.1836 43.5566 31.2949C43.5566 31.6289 43.6299 31.8574 43.7764 31.9805C43.9229 32.0977 44.1631 32.1562 44.4971 32.1562C44.6084 32.1562 44.7666 32.1387 44.9717 32.1035C45.1826 32.0625 45.3438 32.0215 45.4551 31.9805L45.3232 32.543C44.7959 32.7539 44.3857 32.9062 44.0928 33C43.7998 33.0996 43.5039 33.1494 43.2051 33.1494C42.7363 33.1494 42.3848 33.0293 42.1504 32.7891C41.916 32.543 41.7988 32.2412 41.7988 31.8838C41.7988 31.7549 41.8105 31.6143 41.834 31.4619C41.8633 31.3037 41.9014 31.1104 41.9482 30.8818L42.4404 28.7549H38.9072L37.9404 33H36.2969L37.6064 27.3047C37.6475 27.1172 37.6914 26.9033 37.7383 26.6631C37.7852 26.417 37.8086 26.2119 37.8086 26.0479C37.8086 25.7197 37.7529 25.5029 37.6416 25.3975C37.5361 25.2861 37.3164 25.2305 36.9824 25.2305C36.8535 25.2305 36.6895 25.2539 36.4902 25.3008C36.291 25.3477 36.1357 25.3857 36.0244 25.415L36.1562 24.8525C36.6133 24.6475 37.0146 24.4922 37.3604 24.3867C37.7119 24.2812 37.9932 24.2285 38.2041 24.2285C38.6729 24.2285 39.0156 24.3398 39.2324 24.5625C39.4551 24.7793 39.5664 25.0898 39.5664 25.4941C39.5664 25.5879 39.5547 25.7314 39.5312 25.9248C39.5078 26.1123 39.4697 26.3203 39.417 26.5488L39.0654 28.0518ZM55.0088 27.5859C55.0088 28.2773 54.8916 28.9688 54.6572 29.6602C54.4229 30.3516 54.083 30.958 53.6377 31.4795C53.1865 32.0186 52.6416 32.4521 52.0029 32.7803C51.3701 33.1025 50.6348 33.2637 49.7969 33.2637C48.8242 33.2637 48.0332 32.9502 47.4238 32.3232C46.8203 31.6963 46.5186 30.8525 46.5186 29.792C46.5186 29.0127 46.6475 28.2861 46.9053 27.6123C47.1631 26.9385 47.5088 26.3467 47.9424 25.8369C48.3818 25.3271 48.9238 24.917 49.5684 24.6064C50.2188 24.29 50.9219 24.1318 51.6777 24.1318C52.7207 24.1318 53.5352 24.4512 54.1211 25.0898C54.7129 25.7227 55.0088 26.5547 55.0088 27.5859ZM53.2158 27.252C53.2158 26.4199 53.0664 25.7959 52.7676 25.3799C52.4746 24.9639 52.0498 24.7559 51.4932 24.7559C51.0068 24.7559 50.5469 24.9053 50.1133 25.2041C49.6855 25.5029 49.3164 25.9893 49.0059 26.6631C48.7656 27.1729 48.5898 27.7412 48.4785 28.3682C48.3672 28.9893 48.3115 29.5635 48.3115 30.0908C48.3115 30.9287 48.4551 31.5645 48.7422 31.998C49.0352 32.4258 49.4746 32.6396 50.0605 32.6396C50.582 32.6396 51.0449 32.4756 51.4492 32.1475C51.8535 31.8193 52.1816 31.4033 52.4336 30.8994C52.6855 30.4072 52.8789 29.8447 53.0137 29.2119C53.1484 28.5732 53.2158 27.9199 53.2158 27.252ZM64.1934 25.916C64.1934 26.4785 63.9941 26.9707 63.5957 27.3926C63.2031 27.8086 62.5996 28.1133 61.7852 28.3066L61.7764 28.4033C62.4092 28.4443 62.9248 28.6201 63.3232 28.9307C63.7275 29.2412 63.9297 29.6572 63.9297 30.1787C63.9297 31.0869 63.5371 31.8281 62.752 32.4023C61.9727 32.9766 60.918 33.2637 59.5879 33.2637C58.498 33.2637 57.6953 32.9941 57.1797 32.4551C56.6699 31.916 56.415 31.1426 56.415 30.1348C56.415 29.3086 56.5205 28.5381 56.7314 27.8232C56.9424 27.1025 57.2588 26.4639 57.6807 25.9072C58.0908 25.3682 58.6182 24.9375 59.2627 24.6152C59.9072 24.293 60.6367 24.1318 61.4512 24.1318C61.8496 24.1318 62.2041 24.1641 62.5146 24.2285C62.8311 24.293 63.1211 24.4014 63.3848 24.5537C63.6367 24.7002 63.833 24.8848 63.9736 25.1074C64.1201 25.3242 64.1934 25.5938 64.1934 25.916ZM62.5146 26.0566C62.5146 25.6523 62.3799 25.3359 62.1104 25.1074C61.8408 24.873 61.498 24.7559 61.082 24.7559C60.6719 24.7559 60.3086 24.8584 59.9922 25.0635C59.6816 25.2686 59.4062 25.5586 59.166 25.9336C58.9375 26.2852 58.7559 26.6689 58.6211 27.085C58.4922 27.501 58.3838 27.9199 58.2959 28.3418L59.9043 28.166C60.4258 28.1074 60.8623 28.0107 61.2139 27.876C61.5654 27.7412 61.835 27.583 62.0225 27.4014C62.2041 27.2197 62.3301 27.0205 62.4004 26.8037C62.4766 26.5811 62.5146 26.332 62.5146 26.0566ZM62.1719 30.1699C62.1719 29.7422 62.0137 29.4023 61.6973 29.1504C61.3867 28.8984 60.874 28.7725 60.1592 28.7725C59.8428 28.7725 59.4854 28.7988 59.0869 28.8516C58.6885 28.9043 58.3867 28.9482 58.1816 28.9834C58.1523 29.1768 58.1318 29.3877 58.1201 29.6162C58.1143 29.8447 58.1113 30.0352 58.1113 30.1875C58.1113 30.6445 58.1641 31.0312 58.2695 31.3477C58.3809 31.6641 58.5186 31.916 58.6826 32.1035C58.8467 32.2852 59.0371 32.4199 59.2539 32.5078C59.4707 32.5957 59.6904 32.6396 59.9131 32.6396C60.3291 32.6396 60.6836 32.5635 60.9766 32.4111C61.2754 32.2588 61.5127 32.0566 61.6885 31.8047C61.8525 31.5703 61.9727 31.3125 62.0488 31.0312C62.1309 30.7441 62.1719 30.457 62.1719 30.1699ZM71.0928 31.7695H71.04C70.7705 31.9863 70.5127 32.1855 70.2666 32.3672C70.0205 32.5488 69.7773 32.7012 69.5371 32.8242C69.2559 32.9648 69.001 33.0645 68.7725 33.123C68.5439 33.1875 68.2451 33.2197 67.876 33.2197C67.3135 33.2197 66.877 33.0586 66.5664 32.7363C66.2559 32.4082 66.1006 31.9805 66.1006 31.4531C66.1006 31.3125 66.1123 31.1455 66.1357 30.9521C66.1592 30.7588 66.2148 30.4717 66.3027 30.0908L66.9883 27.3047C67.0469 27.0469 67.0938 26.8184 67.1289 26.6191C67.1699 26.4199 67.1904 26.2295 67.1904 26.0479C67.1904 25.7197 67.1348 25.5029 67.0234 25.3975C66.918 25.2861 66.6982 25.2305 66.3643 25.2305C66.2354 25.2305 66.0713 25.2539 65.8721 25.3008C65.6729 25.3477 65.5176 25.3857 65.4062 25.415L65.5381 24.8525C65.9951 24.6475 66.3965 24.4922 66.7422 24.3867C67.0938 24.2812 67.375 24.2285 67.5859 24.2285C68.0547 24.2285 68.3975 24.3398 68.6143 24.5625C68.8369 24.7793 68.9482 25.0898 68.9482 25.4941C68.9482 25.5996 68.9365 25.7432 68.9131 25.9248C68.8896 26.1064 68.8545 26.2881 68.8076 26.4697L68.0254 29.7217C67.9668 29.9678 67.917 30.1992 67.876 30.416C67.8408 30.627 67.8232 30.7881 67.8232 30.8994C67.8232 31.292 67.9082 31.6025 68.0781 31.8311C68.248 32.0596 68.5176 32.1738 68.8867 32.1738C69.2617 32.1738 69.6455 32.0771 70.0381 31.8838C70.4365 31.6846 70.835 31.3857 71.2334 30.9873L72.7715 24.3691L74.3008 24.2637L74.4062 24.3955L73.0967 30.0557C73.0381 30.2959 72.9854 30.5391 72.9385 30.7852C72.8916 31.0254 72.8682 31.1953 72.8682 31.2949C72.8682 31.6289 72.9385 31.8574 73.0791 31.9805C73.2256 32.0977 73.4658 32.1562 73.7998 32.1562C73.9111 32.1562 74.0693 32.1387 74.2744 32.1035C74.4795 32.0684 74.6377 32.0303 74.749 31.9893L74.6172 32.5518C74.1309 32.751 73.7236 32.9004 73.3955 33C73.0732 33.0996 72.7744 33.1494 72.499 33.1494C72.0244 33.1494 71.6699 33.0117 71.4355 32.7363C71.207 32.4609 71.0928 32.1387 71.0928 31.7695ZM77.3682 25.96C77.3682 25.6787 77.3271 25.4854 77.2451 25.3799C77.1631 25.2744 76.9375 25.2217 76.5684 25.2217C76.4395 25.2217 76.2666 25.248 76.0498 25.3008C75.8389 25.3477 75.6777 25.3857 75.5664 25.415L75.6982 24.8525C76.1553 24.6475 76.5625 24.4922 76.9199 24.3867C77.2832 24.2812 77.5703 24.2285 77.7812 24.2285C78.2148 24.2285 78.5342 24.334 78.7393 24.5449C78.9502 24.75 79.0557 25.0371 79.0557 25.4062C79.0557 25.7402 78.9883 26.1826 78.8535 26.7334C78.7188 27.2842 78.6514 27.6357 78.6514 27.7881C78.6514 28.1396 78.7393 28.415 78.915 28.6143C79.0908 28.8135 79.3691 28.9131 79.75 28.9131C80.1191 28.9131 80.4941 28.8223 80.875 28.6406C81.2617 28.4531 81.6426 28.1836 82.0176 27.832L82.8262 24.3691L84.3555 24.2637L84.4609 24.3955L83.1426 30.0557C83.1016 30.2256 83.0518 30.4482 82.9932 30.7236C82.9404 30.9932 82.9141 31.1836 82.9141 31.2949C82.9141 31.6289 82.9873 31.8574 83.1338 31.9805C83.2803 32.0977 83.5205 32.1562 83.8545 32.1562C83.9658 32.1562 84.124 32.1387 84.3291 32.1035C84.54 32.0625 84.7012 32.0215 84.8125 31.9805L84.6807 32.543C84.1533 32.7539 83.7432 32.9062 83.4502 33C83.1572 33.0996 82.8613 33.1494 82.5625 33.1494C82.0938 33.1494 81.7422 33.0293 81.5078 32.7891C81.2734 32.543 81.1562 32.2412 81.1562 31.8838C81.1562 31.7549 81.168 31.6143 81.1914 31.4619C81.2207 31.3037 81.2588 31.1104 81.3057 30.8818L81.833 28.667H81.7803C81.2998 29.0713 80.8193 29.3877 80.3389 29.6162C79.8643 29.8447 79.3369 29.959 78.7568 29.959C78.1943 29.959 77.7549 29.8037 77.4385 29.4932C77.1221 29.1768 76.9639 28.7842 76.9639 28.3154C76.9639 28.0869 77.0312 27.6738 77.166 27.0762C77.3008 26.4785 77.3682 26.1064 77.3682 25.96Z" fill="white"/>
</svg>
