<svg width="236" height="25" viewBox="0 0 236 25" fill="none" xmlns="http://www.w3.org/2000/svg">
<path d="M0.416992 5.37207H2.78516V16.4072C2.78516 17.8721 2.74447 19.166 2.66309 20.2891H2.76074L4.15234 17.7744L11.3301 5.37207H13.8691V24H11.501V12.9893C11.501 11.557 11.5579 10.2712 11.6719 9.13184H11.5498L10.1826 11.5977L2.95605 24H0.416992V5.37207ZM18.6787 24V5.37207H21.6816L25.4902 14.918C25.7507 15.6016 26.0843 16.5293 26.4912 17.7012C26.8981 18.8568 27.1341 19.516 27.1992 19.6787H27.2969C27.3783 19.4346 27.9723 17.8477 29.0791 14.918L32.8389 5.37207H35.8906V24H33.5225V14.1855C33.5225 12.623 33.612 10.735 33.791 8.52148H33.6934L32.6191 11.5L28.249 22.7305H26.3203L21.9502 11.5L20.8271 8.49707H20.7295C20.9411 11.0361 21.0469 12.9323 21.0469 14.1855V24H18.6787ZM40.6758 24V5.37207H52.5166V7.39844H43.0439V13.3799H51.5889V15.3574H43.0439V21.9736H52.7363V24H40.6758ZM42.4092 2.66211V0.0498047H45.168V2.66211H42.4092ZM47.7559 2.66211V0.0498047H50.4902V2.66211H47.7559ZM56.0322 24V5.37207H58.4004V13.4287H66.9941V5.37207H69.3623V24H66.9941V15.4062H58.4004V24H56.0322ZM80.2754 24V5.37207H87.209C89.0645 5.37207 90.4723 5.81152 91.4326 6.69043C92.3929 7.55306 92.873 8.72493 92.873 10.2061C92.873 11.1663 92.6289 11.9883 92.1406 12.6719C91.6686 13.3555 91.0583 13.8682 90.3096 14.21C91.2048 14.4867 91.9697 15.0319 92.6045 15.8457C93.2393 16.6432 93.5566 17.6035 93.5566 18.7266C93.5566 20.1914 93.0765 21.4365 92.1162 22.4619C91.1559 23.4873 89.8213 24 88.1123 24H80.2754ZM82.6436 21.9736H87.5996C88.5924 21.9736 89.4225 21.6888 90.0898 21.1191C90.7734 20.5495 91.1152 19.7601 91.1152 18.751C91.1152 17.7907 90.7897 16.9932 90.1387 16.3584C89.4876 15.7236 88.6087 15.4062 87.502 15.4062H82.6436V21.9736ZM82.6436 13.4287H86.8672C87.8926 13.4287 88.7389 13.1764 89.4062 12.6719C90.0898 12.151 90.4316 11.3861 90.4316 10.377C90.4316 9.48177 90.1549 8.76562 89.6016 8.22852C89.0482 7.67513 88.1693 7.39844 86.9648 7.39844H82.6436V13.4287ZM101.149 24.3174V22.291C101.67 22.3724 102.232 22.4131 102.834 22.4131C103.794 22.4131 104.535 21.7458 105.056 20.4111C105.593 19.0602 106.024 16.7246 106.35 13.4043L107.131 5.37207H117.336V24H114.943V7.42285H109.255L108.669 13.7461C108.295 17.6686 107.684 20.4355 106.838 22.0469C105.992 23.6419 104.689 24.4395 102.932 24.4395C102.476 24.4395 101.882 24.3988 101.149 24.3174ZM122.146 24V5.37207H133.986V7.39844H124.514V13.3799H133.059V15.3574H124.514V21.9736H134.206V24H122.146ZM135.378 7.39844V5.37207H148.879V7.39844H143.312V24H140.944V7.39844H135.378ZM150.295 14.6982C150.295 11.7686 151.003 9.40853 152.419 7.61816C153.851 5.8278 155.756 4.93262 158.132 4.93262C160.524 4.93262 162.421 5.8278 163.82 7.61816C165.236 9.40853 165.944 11.7767 165.944 14.7227C165.944 17.6849 165.228 20.0449 163.796 21.8027C162.38 23.5605 160.492 24.4395 158.132 24.4395C155.756 24.4395 153.851 23.5605 152.419 21.8027C151.003 20.0286 150.295 17.6605 150.295 14.6982ZM152.736 14.6982C152.736 17.0583 153.216 18.93 154.177 20.3135C155.153 21.6969 156.472 22.3887 158.132 22.3887C159.776 22.3887 161.078 21.7132 162.038 20.3623C163.015 18.9951 163.503 17.1152 163.503 14.7227C163.503 12.3626 163.031 10.4827 162.087 9.08301C161.143 7.66699 159.825 6.95898 158.132 6.95898C156.472 6.95898 155.153 7.65885 154.177 9.05859C153.216 10.4583 152.736 12.3382 152.736 14.6982ZM169.533 24V5.37207H182.399V24H180.007V7.42285H171.901V24H169.533ZM187.209 5.37207H189.577V16.4072C189.577 17.8721 189.536 19.166 189.455 20.2891H189.553L190.944 17.7744L198.122 5.37207H200.661V24H198.293V12.9893C198.293 11.557 198.35 10.2712 198.464 9.13184H198.342L196.975 11.5977L189.748 24H187.209V5.37207ZM204.25 14.6982C204.25 11.6872 204.991 9.31087 206.472 7.56934C207.969 5.81152 209.914 4.93262 212.307 4.93262C213.804 4.93262 215.082 5.34766 216.14 6.17773C217.198 6.99154 217.987 7.98438 218.508 9.15625L216.481 9.83984C215.391 7.91927 213.983 6.95898 212.258 6.95898C210.549 6.95898 209.19 7.66699 208.181 9.08301C207.188 10.4827 206.691 12.3545 206.691 14.6982C206.691 17.0745 207.196 18.9544 208.205 20.3379C209.23 21.7051 210.581 22.3887 212.258 22.3887C213.332 22.3887 214.268 22.0876 215.065 21.4854C215.879 20.8669 216.481 20.11 216.872 19.2148L218.996 19.8984C218.752 20.4518 218.443 20.9727 218.068 21.4609C217.71 21.9492 217.263 22.4294 216.726 22.9014C216.188 23.3734 215.537 23.7477 214.772 24.0244C214.024 24.3011 213.202 24.4395 212.307 24.4395C209.947 24.4395 208.01 23.5768 206.496 21.8516C204.999 20.1263 204.25 17.7419 204.25 14.6982ZM222.048 5.37207H224.416V16.4072C224.416 17.8721 224.375 19.166 224.294 20.2891H224.392L225.783 17.7744L232.961 5.37207H235.5V24H233.132V12.9893C233.132 11.557 233.189 10.2712 233.303 9.13184H233.181L231.813 11.5977L224.587 24H222.048V5.37207Z" fill="#968E85"/>
</svg>
