<svg width="81" height="14" viewBox="0 0 81 14" fill="none" xmlns="http://www.w3.org/2000/svg">
<path d="M0.391 13L0.187 12.422L0.595 12.32C0.878333 12.2293 1.09933 12.133 1.258 12.031C1.41667 11.929 1.52433 11.7817 1.581 11.589C1.649 11.385 1.683 11.1017 1.683 10.739V3.055C1.683 2.52233 1.60933 2.154 1.462 1.95C1.31467 1.746 1.02567 1.58733 0.595 1.474L0.187 1.372L0.391 0.793999H4.131L4.352 1.066L4.131 1.372C3.84767 1.746 3.64933 2.14267 3.536 2.562C3.42267 2.98133 3.366 3.531 3.366 4.211V9.141L9.095 2.919C9.08367 2.443 8.99867 2.10867 8.84 1.916C8.69267 1.72333 8.415 1.576 8.007 1.474L7.633 1.372L7.837 0.793999H11.543L11.798 1.066L11.543 1.372C11.2483 1.73467 11.0443 2.13133 10.931 2.562C10.8177 2.98133 10.761 3.531 10.761 4.211V10.858C10.761 11.3567 10.8347 11.7023 10.982 11.895C11.1293 12.0877 11.4127 12.2407 11.832 12.354L12.172 12.456L12.002 13H7.837L7.633 12.422L8.007 12.32C8.43767 12.2067 8.72667 12.0537 8.874 11.861C9.02133 11.657 9.095 11.283 9.095 10.739V4.296L3.366 10.535V10.858C3.366 11.3567 3.434 11.7023 3.57 11.895C3.71733 12.0763 3.98933 12.2293 4.386 12.354L4.743 12.456L4.573 13H0.391ZM18.4696 13.238C17.5516 13.238 16.7526 13.0737 16.0726 12.745C15.3926 12.4163 14.8259 11.963 14.3726 11.385C13.9192 10.807 13.5792 10.1383 13.3526 9.379C13.1372 8.60833 13.0296 7.78667 13.0296 6.914C13.0296 6.04133 13.1372 5.21967 13.3526 4.449C13.5792 3.67833 13.9192 3.004 14.3726 2.426C14.8259 1.83667 15.3982 1.37767 16.0896 1.049C16.7809 0.720333 17.5912 0.555999 18.5206 0.555999C19.2686 0.555999 19.9316 0.663666 20.5096 0.878999C21.0876 1.083 21.5352 1.372 21.8526 1.746C22.1812 2.12 22.3456 2.55633 22.3456 3.055C22.3456 3.64433 22.1699 4.126 21.8186 4.5C21.4786 4.86267 21.0479 5.044 20.5266 5.044C20.2886 5.044 20.1696 4.976 20.1696 4.84C20.1696 4.78333 20.2092 4.69833 20.2886 4.585C20.3792 4.46033 20.4642 4.296 20.5436 4.092C20.6342 3.87667 20.6796 3.61033 20.6796 3.293C20.6796 2.76033 20.4812 2.32967 20.0846 2.001C19.6879 1.67233 19.1666 1.508 18.5206 1.508C17.8519 1.508 17.2909 1.66667 16.8376 1.984C16.3842 2.30133 16.0159 2.72633 15.7326 3.259C15.4606 3.78033 15.2622 4.364 15.1376 5.01C15.0129 5.64467 14.9506 6.27933 14.9506 6.914C14.9506 7.85467 15.0979 8.716 15.3926 9.498C15.6872 10.28 16.1066 10.9033 16.6506 11.368C17.2059 11.8327 17.8632 12.065 18.6226 12.065C19.3706 12.065 20.0109 11.929 20.5436 11.657C21.0762 11.3737 21.5012 10.9997 21.8186 10.535C21.8526 10.4897 21.8922 10.467 21.9376 10.467C22.0396 10.467 22.1529 10.518 22.2776 10.62C22.4136 10.722 22.4816 10.8297 22.4816 10.943C22.4816 10.977 22.4646 11.0223 22.4306 11.079C21.9886 11.7363 21.4446 12.2633 20.7986 12.66C20.1526 13.0453 19.3762 13.238 18.4696 13.238ZM26.3778 13L26.1568 12.728L26.3778 12.422C26.6611 12.048 26.8594 11.657 26.9728 11.249C27.0861 10.8297 27.1428 10.2743 27.1428 9.583V3.055C27.1428 2.52233 27.1031 2.17667 27.0238 2.018C26.9558 1.848 26.8028 1.763 26.5648 1.763H25.7998C25.4031 1.763 25.0858 1.80833 24.8478 1.899C24.6211 1.97833 24.4398 2.12567 24.3038 2.341C24.1791 2.55633 24.0601 2.868 23.9468 3.276L23.8448 3.667L23.2668 3.463V0.437L23.5388 0.215999L23.8448 0.437C24.1621 0.674999 24.8081 0.793999 25.7828 0.793999H30.1858C31.1604 0.793999 31.8064 0.674999 32.1238 0.437L32.4298 0.215999L32.7018 0.437V3.463L32.1238 3.667L32.0218 3.276C31.9198 2.868 31.8008 2.55633 31.6648 2.341C31.5288 2.12567 31.3474 1.97833 31.1208 1.899C30.8941 1.80833 30.5768 1.763 30.1688 1.763H29.4038C29.1658 1.763 29.0071 1.848 28.9278 2.018C28.8598 2.17667 28.8258 2.52233 28.8258 3.055V10.739C28.8258 11.2603 28.8994 11.623 29.0468 11.827C29.2054 12.031 29.4944 12.1953 29.9138 12.32L30.3048 12.422L30.1008 13H26.3778ZM39.2591 13.238C37.9898 13.238 36.9358 12.9547 36.0971 12.388C35.2698 11.8213 34.6521 11.062 34.2441 10.11C33.8361 9.14667 33.6321 8.08133 33.6321 6.914C33.6321 6.04133 33.7454 5.21967 33.9721 4.449C34.1988 3.67833 34.5444 3.004 35.0091 2.426C35.4851 1.83667 36.0744 1.37767 36.7771 1.049C37.4798 0.720333 38.3071 0.555999 39.2591 0.555999C40.2111 0.555999 41.0384 0.720333 41.7411 1.049C42.4438 1.37767 43.0274 1.83667 43.4921 2.426C43.9681 3.004 44.3194 3.67833 44.5461 4.449C44.7841 5.21967 44.9031 6.04133 44.9031 6.914C44.9031 8.08133 44.6934 9.14667 44.2741 10.11C43.8661 11.062 43.2428 11.8213 42.4041 12.388C41.5768 12.9547 40.5284 13.238 39.2591 13.238ZM39.1911 12.235C40.0071 12.235 40.7041 12.0027 41.2821 11.538C41.8601 11.062 42.2964 10.4273 42.5911 9.634C42.8971 8.82933 43.0501 7.93967 43.0501 6.965C43.0501 6.54567 43.0104 6.09233 42.9311 5.605C42.8631 5.10633 42.7441 4.619 42.5741 4.143C42.4041 3.65567 42.1774 3.21933 41.8941 2.834C41.6108 2.43733 41.2594 2.12 40.8401 1.882C40.4208 1.644 39.9221 1.525 39.3441 1.525C38.5168 1.525 37.8141 1.78 37.2361 2.29C36.6581 2.78867 36.2161 3.45733 35.9101 4.296C35.6154 5.12333 35.4681 6.04133 35.4681 7.05C35.4681 8.01333 35.6041 8.886 35.8761 9.668C36.1594 10.45 36.5788 11.0733 37.1341 11.538C37.6894 12.0027 38.3751 12.235 39.1911 12.235ZM46.3889 13L46.1849 12.422L46.5759 12.32C47.0065 12.2067 47.2955 12.048 47.4429 11.844C47.5902 11.6287 47.6639 11.2603 47.6639 10.739V2.341C47.6639 2.069 47.5392 1.933 47.2899 1.933H46.3039L46.0999 1.304C46.3945 1.19067 46.7685 1.07733 47.2219 0.964C47.6865 0.850666 48.1852 0.754333 48.7179 0.675C49.2619 0.595666 49.8002 0.555999 50.3329 0.555999C51.5115 0.555999 52.4635 0.742999 53.1889 1.117C53.9255 1.47967 54.4582 1.967 54.7869 2.579C55.1269 3.191 55.2969 3.86533 55.2969 4.602C55.2969 5.30467 55.1495 5.962 54.8549 6.574C54.5715 7.17467 54.1296 7.65633 53.5289 8.019C52.9282 8.38167 52.1575 8.563 51.2169 8.563C50.8315 8.563 50.4859 8.51767 50.1799 8.427C49.8739 8.325 49.7209 8.172 49.7209 7.968C49.7209 7.866 49.7435 7.77533 49.7889 7.696C49.8342 7.60533 49.9022 7.56 49.9929 7.56C50.0609 7.56 50.1515 7.58267 50.2649 7.628C50.3895 7.662 50.5765 7.679 50.8259 7.679C51.6985 7.679 52.3672 7.40133 52.8319 6.846C53.2965 6.29067 53.5289 5.55967 53.5289 4.653C53.5289 4.06367 53.4212 3.531 53.2059 3.055C52.9905 2.579 52.6675 2.205 52.2369 1.933C51.8062 1.64967 51.2735 1.508 50.6389 1.508C50.2535 1.508 49.9702 1.55333 49.7889 1.644C49.6075 1.72333 49.4885 1.82533 49.4319 1.95C49.3752 2.07467 49.3469 2.188 49.3469 2.29V9.583C49.3469 10.2743 49.4035 10.8297 49.5169 11.249C49.6302 11.657 49.8285 12.048 50.1119 12.422L50.3329 12.728L50.1119 13H46.3889ZM56.0228 13L55.8188 12.422L56.2268 12.32C56.5102 12.2293 56.7312 12.133 56.8898 12.031C57.0485 11.929 57.1562 11.7817 57.2128 11.589C57.2808 11.385 57.3148 11.1017 57.3148 10.739V3.055C57.3148 2.52233 57.2412 2.154 57.0938 1.95C56.9465 1.746 56.6575 1.58733 56.2268 1.474L55.8188 1.372L56.0228 0.793999H59.7628L59.9838 1.066L59.7628 1.372C59.4795 1.746 59.2812 2.14267 59.1678 2.562C59.0545 2.98133 58.9978 3.531 58.9978 4.211V9.141L64.7268 2.919C64.7155 2.443 64.6305 2.10867 64.4718 1.916C64.3245 1.72333 64.0468 1.576 63.6388 1.474L63.2648 1.372L63.4688 0.793999H67.1748L67.4298 1.066L67.1748 1.372C66.8802 1.73467 66.6762 2.13133 66.5628 2.562C66.4495 2.98133 66.3928 3.531 66.3928 4.211V10.858C66.3928 11.3567 66.4665 11.7023 66.6138 11.895C66.7612 12.0877 67.0445 12.2407 67.4638 12.354L67.8038 12.456L67.6338 13H63.4688L63.2648 12.422L63.6388 12.32C64.0695 12.2067 64.3585 12.0537 64.5058 11.861C64.6532 11.657 64.7268 11.283 64.7268 10.739V4.296L58.9978 10.535V10.858C58.9978 11.3567 59.0658 11.7023 59.2018 11.895C59.3492 12.0763 59.6212 12.2293 60.0178 12.354L60.3748 12.456L60.2048 13H56.0228ZM68.4574 13L68.2534 12.422L68.6614 12.32C68.9447 12.2293 69.1657 12.133 69.3244 12.031C69.4831 11.929 69.5907 11.7817 69.6474 11.589C69.7154 11.385 69.7494 11.1017 69.7494 10.739V3.055C69.7494 2.52233 69.6757 2.154 69.5284 1.95C69.3811 1.746 69.0921 1.58733 68.6614 1.474L68.2534 1.372L68.4574 0.793999H72.1974L72.4184 1.066L72.1974 1.372C71.9141 1.746 71.7157 2.14267 71.6024 2.562C71.4891 2.98133 71.4324 3.531 71.4324 4.211V9.141L77.1614 2.919C77.1501 2.443 77.0651 2.10867 76.9064 1.916C76.7591 1.72333 76.4814 1.576 76.0734 1.474L75.6994 1.372L75.9034 0.793999H79.6094L79.8644 1.066L79.6094 1.372C79.3147 1.73467 79.1107 2.13133 78.9974 2.562C78.8841 2.98133 78.8274 3.531 78.8274 4.211V10.858C78.8274 11.3567 78.9011 11.7023 79.0484 11.895C79.1957 12.0877 79.4791 12.2407 79.8984 12.354L80.2384 12.456L80.0684 13H75.9034L75.6994 12.422L76.0734 12.32C76.5041 12.2067 76.7931 12.0537 76.9404 11.861C77.0877 11.657 77.1614 11.283 77.1614 10.739V4.296L71.4324 10.535V10.858C71.4324 11.3567 71.5004 11.7023 71.6364 11.895C71.7837 12.0763 72.0557 12.2293 72.4524 12.354L72.8094 12.456L72.6394 13H68.4574Z" fill="#A09081"/>
</svg>
