<svg width="250" height="37" viewBox="0 0 250 37" fill="none" xmlns="http://www.w3.org/2000/svg">
<path d="M36.4277 36H22.0967V34.2666C22.4873 34.234 23.057 34.1852 23.8057 34.1201C24.5706 34.055 25.0915 33.9574 25.3682 33.8271C25.8564 33.6318 26.2145 33.3389 26.4424 32.9482C26.6702 32.5413 26.7842 32.0205 26.7842 31.3857V9.7793L10.0361 30.6777V31.2393C10.0361 31.8089 10.1257 32.2728 10.3047 32.6309C10.5 32.9727 10.8743 33.29 11.4277 33.583C11.7044 33.7295 12.2171 33.876 12.9658 34.0225C13.7145 34.1689 14.3005 34.2503 14.7236 34.2666V36H0.392578V34.2666C0.783203 34.234 1.34473 34.1852 2.07715 34.1201C2.82585 34.055 3.33854 33.9574 3.61523 33.8271C4.10352 33.6318 4.46159 33.3389 4.68945 32.9482C4.91732 32.5413 5.03125 32.0205 5.03125 31.3857V6.38574C5.03125 5.86491 4.92546 5.3929 4.71387 4.96973C4.50228 4.53027 4.13607 4.18848 3.61523 3.94434C3.17578 3.73275 2.63867 3.54557 2.00391 3.38281C1.38542 3.22005 0.848307 3.1224 0.392578 3.08984V1.35645H14.7236V3.08984C14.2679 3.10612 13.6982 3.17936 13.0146 3.30957C12.3473 3.43978 11.8509 3.56185 11.5254 3.67578C10.972 3.87109 10.5977 4.19661 10.4023 4.65234C10.2233 5.10807 10.1338 5.60449 10.1338 6.1416V27.2109L26.8818 6.33691C26.8818 5.75098 26.776 5.27083 26.5645 4.89648C26.3529 4.50586 25.9867 4.18848 25.4658 3.94434C25.0589 3.74902 24.4974 3.56999 23.7812 3.40723C23.0651 3.22819 22.5036 3.1224 22.0967 3.08984V1.35645H36.4277V3.08984C35.972 3.10612 35.4105 3.17936 34.7432 3.30957C34.0921 3.43978 33.6038 3.56185 33.2783 3.67578C32.7249 3.87109 32.3506 4.19661 32.1553 4.65234C31.9762 5.10807 31.8867 5.60449 31.8867 6.1416V31.1172C31.8867 31.6868 31.9762 32.167 32.1553 32.5576C32.3506 32.9482 32.7249 33.29 33.2783 33.583C33.555 33.7295 34.0433 33.876 34.7432 34.0225C35.4593 34.1689 36.0208 34.2503 36.4277 34.2666V36ZM56.5693 36.8057C54.5023 36.8057 52.5166 36.3988 50.6123 35.585C48.7243 34.7712 47.0479 33.5993 45.583 32.0693C44.1344 30.5394 42.9788 28.6758 42.1162 26.4785C41.2536 24.265 40.8223 21.7747 40.8223 19.0078C40.8223 16.2409 41.2454 13.7344 42.0918 11.4883C42.9382 9.22591 44.11 7.28092 45.6074 5.65332C47.0885 4.04199 48.8382 2.79688 50.8564 1.91797C52.8747 1.03906 55.0312 0.599609 57.3262 0.599609C59.0352 0.599609 60.5814 0.811198 61.9648 1.23438C63.3483 1.65755 64.6667 2.25163 65.9199 3.0166L66.9209 1.35645H68.874L69.0938 13.71H67.0918C66.8314 12.5055 66.4408 11.2035 65.9199 9.80371C65.3991 8.3877 64.7887 7.19141 64.0889 6.21484C63.3076 5.10807 62.3799 4.24544 61.3057 3.62695C60.2314 2.99219 59.0026 2.6748 57.6191 2.6748C56.0404 2.6748 54.5674 3.02474 53.2002 3.72461C51.8493 4.42448 50.6774 5.45801 49.6846 6.8252C48.7406 8.14355 48 9.81999 47.4629 11.8545C46.9258 13.889 46.6572 16.1595 46.6572 18.666C46.6572 20.8796 46.9339 22.9141 47.4873 24.7695C48.057 26.6087 48.8626 28.2282 49.9043 29.6279C50.946 31.0114 52.1748 32.0938 53.5908 32.875C55.0231 33.6562 56.6182 34.0469 58.376 34.0469C59.6943 34.0469 60.9069 33.8434 62.0137 33.4365C63.1204 33.0133 64.0807 32.46 64.8945 31.7764C65.7083 31.0602 66.4245 30.2464 67.043 29.335C67.6615 28.4235 68.166 27.4307 68.5566 26.3564L70.3877 27.2354C68.988 30.6696 67.1325 33.1273 64.8213 34.6084C62.5101 36.0732 59.7594 36.8057 56.5693 36.8057ZM101.589 10.7559H99.9043C99.7578 10.1699 99.4893 9.47819 99.0986 8.68066C98.7243 7.86686 98.3011 7.10189 97.8291 6.38574C97.3408 5.63704 96.8037 4.986 96.2178 4.43262C95.6481 3.86296 95.0947 3.53743 94.5576 3.45605C94.0531 3.39095 93.4183 3.34212 92.6533 3.30957C91.8883 3.27702 91.1803 3.26074 90.5293 3.26074H89.1133V30.9707C89.1133 31.5078 89.2272 32.0042 89.4551 32.46C89.6829 32.8994 90.0817 33.2412 90.6514 33.4854C90.9443 33.5993 91.5547 33.7539 92.4824 33.9492C93.4264 34.1445 94.1589 34.2503 94.6797 34.2666V36H78.3223V34.2666C78.778 34.234 79.4697 34.1689 80.3975 34.0713C81.3415 33.9736 81.9925 33.8516 82.3506 33.7051C82.8877 33.4935 83.2783 33.1924 83.5225 32.8018C83.7829 32.3949 83.9131 31.8577 83.9131 31.1904V3.26074H82.4971C81.9925 3.26074 81.3659 3.27702 80.6172 3.30957C79.8685 3.32585 79.1523 3.37467 78.4688 3.45605C77.9316 3.52116 77.3701 3.84668 76.7842 4.43262C76.2145 5.00228 75.6855 5.65332 75.1973 6.38574C74.709 7.11816 74.2777 7.89941 73.9033 8.72949C73.529 9.54329 73.2686 10.2188 73.1221 10.7559H71.4131V1.35645H101.589V10.7559ZM132.375 5.45801C133.905 7.05306 135.101 8.98177 135.964 11.2441C136.826 13.4902 137.258 15.9805 137.258 18.7148C137.258 21.4655 136.818 23.9639 135.939 26.21C135.061 28.4561 133.84 30.3685 132.277 31.9473C130.764 33.5098 129.006 34.7142 127.004 35.5605C125.002 36.4069 122.87 36.8301 120.607 36.8301C118.199 36.8301 115.969 36.3825 113.918 35.4873C111.883 34.5758 110.134 33.3145 108.669 31.7031C107.204 30.1243 106.049 28.2119 105.202 25.9658C104.372 23.7035 103.957 21.2865 103.957 18.7148C103.957 15.8991 104.396 13.3926 105.275 11.1953C106.154 8.98177 107.367 7.06934 108.913 5.45801C110.443 3.86296 112.217 2.64225 114.235 1.7959C116.27 0.949544 118.394 0.526367 120.607 0.526367C122.902 0.526367 125.067 0.957682 127.102 1.82031C129.136 2.68294 130.894 3.89551 132.375 5.45801ZM128.737 30.0186C129.649 28.5374 130.308 26.861 130.715 24.9893C131.138 23.1175 131.35 21.026 131.35 18.7148C131.35 16.3385 131.114 14.1576 130.642 12.1719C130.186 10.1862 129.51 8.49349 128.615 7.09375C127.72 5.71029 126.597 4.63607 125.246 3.87109C123.895 3.08984 122.349 2.69922 120.607 2.69922C118.654 2.69922 116.994 3.14681 115.627 4.04199C114.26 4.93717 113.145 6.13346 112.282 7.63086C111.468 9.06315 110.858 10.7396 110.451 12.6602C110.061 14.5807 109.865 16.599 109.865 18.7148C109.865 21.0586 110.077 23.1745 110.5 25.0625C110.923 26.9505 111.59 28.627 112.502 30.0918C113.381 31.5241 114.488 32.6471 115.822 33.4609C117.157 34.2585 118.752 34.6572 120.607 34.6572C122.349 34.6572 123.92 34.2503 125.319 33.4365C126.719 32.6227 127.858 31.4834 128.737 30.0186ZM168.117 9.90137C168.117 11.708 167.759 13.3112 167.043 14.7109C166.343 16.0944 165.367 17.2419 164.113 18.1533C162.876 19.0648 161.517 19.7321 160.036 20.1553C158.555 20.5785 156.984 20.79 155.324 20.79H151.442V31.2881C151.442 31.8577 151.532 32.3623 151.711 32.8018C151.906 33.2249 152.297 33.5505 152.883 33.7783C153.176 33.8923 153.688 33.998 154.421 34.0957C155.17 34.1934 155.853 34.2503 156.472 34.2666V36H141.604V34.2666C141.994 34.234 142.556 34.1771 143.288 34.0957C144.037 34.0143 144.558 33.9085 144.851 33.7783C145.339 33.5667 145.689 33.2575 145.9 32.8506C146.128 32.4437 146.242 31.9229 146.242 31.2881V6.28809C146.242 5.71842 146.161 5.20573 145.998 4.75C145.835 4.29427 145.453 3.95247 144.851 3.72461C144.232 3.51302 143.614 3.36654 142.995 3.28516C142.393 3.1875 141.872 3.1224 141.433 3.08984V1.35645H157.253C160.476 1.35645 163.088 2.1377 165.09 3.7002C167.108 5.24642 168.117 7.31348 168.117 9.90137ZM160.695 15.8096C161.249 15.0283 161.615 14.2227 161.794 13.3926C161.973 12.5462 162.062 11.7894 162.062 11.1221C162.062 10.1943 161.949 9.25033 161.721 8.29004C161.509 7.32975 161.135 6.49154 160.598 5.77539C160.028 5.01042 159.279 4.41634 158.352 3.99316C157.424 3.56999 156.268 3.3584 154.885 3.3584H151.442V18.666H153.933C155.69 18.666 157.115 18.3975 158.205 17.8604C159.312 17.307 160.142 16.6234 160.695 15.8096ZM208.156 36H193.825V34.2666C194.216 34.234 194.785 34.1852 195.534 34.1201C196.299 34.055 196.82 33.9574 197.097 33.8271C197.585 33.6318 197.943 33.3389 198.171 32.9482C198.399 32.5413 198.513 32.0205 198.513 31.3857V9.7793L181.765 30.6777V31.2393C181.765 31.8089 181.854 32.2728 182.033 32.6309C182.229 32.9727 182.603 33.29 183.156 33.583C183.433 33.7295 183.946 33.876 184.694 34.0225C185.443 34.1689 186.029 34.2503 186.452 34.2666V36H172.121V34.2666C172.512 34.234 173.073 34.1852 173.806 34.1201C174.554 34.055 175.067 33.9574 175.344 33.8271C175.832 33.6318 176.19 33.3389 176.418 32.9482C176.646 32.5413 176.76 32.0205 176.76 31.3857V6.38574C176.76 5.86491 176.654 5.3929 176.442 4.96973C176.231 4.53027 175.865 4.18848 175.344 3.94434C174.904 3.73275 174.367 3.54557 173.732 3.38281C173.114 3.22005 172.577 3.1224 172.121 3.08984V1.35645H186.452V3.08984C185.996 3.10612 185.427 3.17936 184.743 3.30957C184.076 3.43978 183.579 3.56185 183.254 3.67578C182.701 3.87109 182.326 4.19661 182.131 4.65234C181.952 5.10807 181.862 5.60449 181.862 6.1416V27.2109L198.61 6.33691C198.61 5.75098 198.505 5.27083 198.293 4.89648C198.081 4.50586 197.715 4.18848 197.194 3.94434C196.787 3.74902 196.226 3.56999 195.51 3.40723C194.794 3.22819 194.232 3.1224 193.825 3.08984V1.35645H208.156V3.08984C207.701 3.10612 207.139 3.17936 206.472 3.30957C205.821 3.43978 205.332 3.56185 205.007 3.67578C204.453 3.87109 204.079 4.19661 203.884 4.65234C203.705 5.10807 203.615 5.60449 203.615 6.1416V31.1172C203.615 31.6868 203.705 32.167 203.884 32.5576C204.079 32.9482 204.453 33.29 205.007 33.583C205.284 33.7295 205.772 33.876 206.472 34.0225C207.188 34.1689 207.749 34.2503 208.156 34.2666V36ZM249.074 36H234.743V34.2666C235.134 34.234 235.703 34.1852 236.452 34.1201C237.217 34.055 237.738 33.9574 238.015 33.8271C238.503 33.6318 238.861 33.3389 239.089 32.9482C239.317 32.5413 239.431 32.0205 239.431 31.3857V9.7793L222.683 30.6777V31.2393C222.683 31.8089 222.772 32.2728 222.951 32.6309C223.146 32.9727 223.521 33.29 224.074 33.583C224.351 33.7295 224.864 33.876 225.612 34.0225C226.361 34.1689 226.947 34.2503 227.37 34.2666V36H213.039V34.2666C213.43 34.234 213.991 34.1852 214.724 34.1201C215.472 34.055 215.985 33.9574 216.262 33.8271C216.75 33.6318 217.108 33.3389 217.336 32.9482C217.564 32.5413 217.678 32.0205 217.678 31.3857V6.38574C217.678 5.86491 217.572 5.3929 217.36 4.96973C217.149 4.53027 216.783 4.18848 216.262 3.94434C215.822 3.73275 215.285 3.54557 214.65 3.38281C214.032 3.22005 213.495 3.1224 213.039 3.08984V1.35645H227.37V3.08984C226.914 3.10612 226.345 3.17936 225.661 3.30957C224.994 3.43978 224.497 3.56185 224.172 3.67578C223.618 3.87109 223.244 4.19661 223.049 4.65234C222.87 5.10807 222.78 5.60449 222.78 6.1416V27.2109L239.528 6.33691C239.528 5.75098 239.423 5.27083 239.211 4.89648C238.999 4.50586 238.633 4.18848 238.112 3.94434C237.705 3.74902 237.144 3.56999 236.428 3.40723C235.712 3.22819 235.15 3.1224 234.743 3.08984V1.35645H249.074V3.08984C248.618 3.10612 248.057 3.17936 247.39 3.30957C246.739 3.43978 246.25 3.56185 245.925 3.67578C245.371 3.87109 244.997 4.19661 244.802 4.65234C244.623 5.10807 244.533 5.60449 244.533 6.1416V31.1172C244.533 31.6868 244.623 32.167 244.802 32.5576C244.997 32.9482 245.371 33.29 245.925 33.583C246.201 33.7295 246.69 33.876 247.39 34.0225C248.106 34.1689 248.667 34.2503 249.074 34.2666V36Z" fill="#655D54"/>
</svg>
