<svg width="607" height="41" viewBox="0 0 607 41" fill="none" xmlns="http://www.w3.org/2000/svg">
<path d="M19.39 34.49C18.2933 34.49 17.3717 34.1983 16.625 33.615C15.9017 33.0083 15.2717 32.1567 14.735 31.06L11.55 24.69C11.1767 23.92 10.6983 23.325 10.115 22.905C9.53167 22.485 8.84333 22.1467 8.05 21.89C7.93333 21.8433 7.875 21.715 7.875 21.505C7.875 21.3183 7.92167 21.1317 8.015 20.945C8.10833 20.7583 8.30667 20.665 8.61 20.665H9.415L15.12 13.385C15.5167 12.895 15.7267 12.3233 15.75 11.67C15.7967 11.0167 15.645 10.4567 15.295 9.99L14.91 9.43L15.54 8.87H21.56L21.98 10.06L21.14 10.27C20.6267 10.3633 20.16 10.5617 19.74 10.865C19.32 11.145 18.8767 11.5767 18.41 12.16L11.34 21.19C12.4833 21.4 13.4283 21.8083 14.175 22.415C14.9217 23.0217 15.5867 23.885 16.17 25.005L19.46 31.515C19.6467 31.8417 19.845 32.0983 20.055 32.285C20.265 32.4717 20.5217 32.565 20.825 32.565C21.0583 32.565 21.28 32.53 21.49 32.46C21.7233 32.39 21.9567 32.2617 22.19 32.075L22.75 33.09C22.26 33.6033 21.735 33.965 21.175 34.175C20.615 34.385 20.02 34.49 19.39 34.49ZM0.945 34L0.525 32.81L1.365 32.6C1.94833 32.4133 2.40333 32.215 2.73 32.005C3.05667 31.795 3.27833 31.4917 3.395 31.095C3.535 30.675 3.605 30.0917 3.605 29.345V13.525C3.605 12.4283 3.45333 11.67 3.15 11.25C2.84667 10.83 2.25167 10.5033 1.365 10.27L0.525 10.06L0.945 8.87H8.645L9.1 9.43L8.645 10.06C8.06167 10.83 7.65333 11.6467 7.42 12.51C7.18667 13.3733 7.07 14.505 7.07 15.905V29.59C7.07 30.6167 7.21 31.3283 7.49 31.725C7.79333 32.0983 8.35333 32.4133 9.17 32.67L9.905 32.88L9.555 34H0.945ZM22.9655 34L22.5455 32.81L23.3505 32.6C23.9805 32.4367 24.4821 32.2383 24.8555 32.005C25.2288 31.7717 25.5438 31.4567 25.8005 31.06C26.0805 30.64 26.3371 30.0683 26.5705 29.345L32.0655 13.525C32.1821 13.1517 32.2755 12.8367 32.3455 12.58C32.4155 12.3 32.4505 12.0433 32.4505 11.81C32.4505 11.3667 32.3221 11.04 32.0655 10.83C31.8088 10.5967 31.4121 10.41 30.8755 10.27L30.0705 10.06L30.4905 8.87H37.2455L44.2805 29.17C44.5605 29.94 44.8405 30.57 45.1205 31.06C45.4238 31.55 45.7621 31.97 46.1355 32.32C46.5088 32.67 46.9405 33.0433 47.4305 33.44L46.9755 34H39.1005L38.6805 32.81L39.4855 32.6C40.0221 32.46 40.4188 32.285 40.6755 32.075C40.9321 31.8417 41.0605 31.5033 41.0605 31.06C41.0605 30.8267 41.0255 30.5817 40.9555 30.325C40.8855 30.045 40.7921 29.7183 40.6755 29.345L38.9955 24.445H30.9105L30.0705 27C29.8138 27.7933 29.6155 28.4817 29.4755 29.065C29.3355 29.6483 29.2655 30.185 29.2655 30.675C29.2655 31.4683 29.4288 32.18 29.7555 32.81L30.0705 33.44L29.4055 34H22.9655ZM31.6455 22.275H38.2605L34.9005 12.475L31.6455 22.275ZM79.6674 34.49C78.5707 34.49 77.6491 34.1983 76.9024 33.615C76.1791 33.0317 75.5374 32.18 74.9774 31.06L71.8274 24.69C71.4541 23.92 70.9757 23.325 70.3924 22.905C69.8091 22.485 69.1207 22.1467 68.3274 21.89C68.2574 21.8667 68.2107 21.82 68.1874 21.75C68.1641 21.6567 68.1524 21.575 68.1524 21.505C68.1524 21.3183 68.1874 21.1317 68.2574 20.945C68.3507 20.7583 68.5607 20.665 68.8874 20.665H69.6574L75.3974 13.385C75.7941 12.8717 76.0041 12.3 76.0274 11.67C76.0741 11.0167 75.9224 10.4567 75.5724 9.99L75.1874 9.43L75.8174 8.87H81.8374L82.2224 10.06L81.4174 10.27C80.9041 10.3633 80.4374 10.5617 80.0174 10.865C79.5974 11.145 79.1541 11.5767 78.6874 12.16L71.6174 21.19C72.7374 21.4 73.6707 21.8083 74.4174 22.415C75.1874 23.0217 75.8524 23.885 76.4124 25.005L79.7374 31.515C79.9241 31.8417 80.1224 32.0983 80.3324 32.285C80.5424 32.4717 80.7991 32.565 81.1024 32.565C81.3357 32.565 81.5574 32.53 81.7674 32.46C82.0007 32.39 82.2341 32.2617 82.4674 32.075L83.0274 33.09C82.5374 33.6033 82.0124 33.965 81.4524 34.175C80.8924 34.385 80.2974 34.49 79.6674 34.49ZM51.5274 34.49C50.8974 34.49 50.3024 34.385 49.7424 34.175C49.1824 33.965 48.6574 33.6033 48.1674 33.09L48.7274 32.075C48.984 32.2617 49.2174 32.39 49.4274 32.46C49.6374 32.53 49.859 32.565 50.0924 32.565C50.419 32.565 50.6874 32.4717 50.8974 32.285C51.1074 32.0983 51.294 31.8417 51.4574 31.515L54.7824 25.005C55.3424 23.885 55.9957 23.0217 56.7424 22.415C57.5124 21.8083 58.4574 21.4 59.5774 21.19L52.5074 12.16C52.064 11.5767 51.6207 11.145 51.1774 10.865C50.7574 10.5617 50.2907 10.3633 49.7774 10.27L48.9724 10.06L49.3574 8.87H55.3774L56.0074 9.43L55.6224 9.99C55.2724 10.4567 55.109 11.0167 55.1324 11.67C55.179 12.3 55.4007 12.8717 55.7974 13.385L61.5374 20.665H62.3074C62.6341 20.665 62.8324 20.7583 62.9024 20.945C62.9957 21.1317 63.0424 21.3183 63.0424 21.505C63.0424 21.575 63.0307 21.6567 63.0074 21.75C62.9841 21.82 62.9374 21.8667 62.8674 21.89C62.0741 22.1467 61.3857 22.485 60.8024 22.905C60.2424 23.325 59.764 23.92 59.3674 24.69L56.2174 31.06C55.6574 32.18 55.004 33.0317 54.2574 33.615C53.534 34.1983 52.624 34.49 51.5274 34.49ZM61.9924 34L61.6074 32.81L62.3424 32.6C62.9491 32.3433 63.3574 32.0167 63.5674 31.62C63.7774 31.2233 63.8824 30.465 63.8824 29.345V13.525C63.8824 12.4283 63.8007 11.67 63.6374 11.25C63.4974 10.83 63.1941 10.5033 62.7274 10.27L61.9924 10.06L62.3424 8.87H68.5724L68.9924 9.43L68.5724 10.06C68.1291 10.83 67.8141 11.6467 67.6274 12.51C67.4407 13.3733 67.3474 14.505 67.3474 15.905V29.59C67.3474 30.6167 67.4407 31.3283 67.6274 31.725C67.8141 32.0983 68.1757 32.4133 68.7124 32.67L69.4474 32.88L69.0624 34H61.9924ZM84.5893 40.755L83.3993 40.335V32.495C84.8926 32.285 86.0826 31.7017 86.9693 30.745C87.8559 29.7883 88.5326 28.4817 88.9993 26.825C89.4893 25.1683 89.8509 23.1967 90.0843 20.91C90.3409 18.6233 90.5626 16.045 90.7493 13.175C90.7959 12.2183 90.5859 11.5417 90.1193 11.145C89.6759 10.725 89.1159 10.4333 88.4393 10.27L87.6693 10.06L88.0893 8.87H105.169L105.554 9.43L105.169 10.06C104.586 10.83 104.166 11.6467 103.909 12.51C103.653 13.3733 103.524 14.505 103.524 15.905V30.325C103.524 30.8383 103.711 31.2583 104.084 31.585C104.458 31.9117 104.936 32.1567 105.519 32.32C106.103 32.46 106.709 32.53 107.339 32.53V40.335L106.149 40.755L105.939 39.915C105.613 38.6783 105.251 37.6167 104.854 36.73C104.458 35.8433 103.933 35.1667 103.279 34.7C102.649 34.2333 101.798 34 100.724 34H90.0143C88.9643 34 88.1126 34.2333 87.4593 34.7C86.8293 35.1667 86.3043 35.8433 85.8843 36.73C85.4876 37.6167 85.1143 38.6783 84.7643 39.915L84.5893 40.755ZM88.2293 32.005H97.8193C98.7526 32.005 99.3593 31.8417 99.6393 31.515C99.9426 31.1883 100.094 30.465 100.094 29.345V13.525C100.094 12.4283 99.9426 11.705 99.6393 11.355C99.3593 11.005 98.7526 10.83 97.8193 10.83H95.6843C95.0309 10.83 94.5059 10.9233 94.1093 11.11C93.7126 11.2733 93.4909 11.6467 93.4443 12.23C93.0709 17.9233 92.4993 22.4033 91.7293 25.67C90.9593 28.9367 89.7926 31.0483 88.2293 32.005ZM119.861 34.49C117.247 34.49 115.077 33.9067 113.351 32.74C111.647 31.5733 110.376 30.01 109.536 28.05C108.696 26.0667 108.276 23.8733 108.276 21.47C108.276 19.6733 108.509 17.9817 108.976 16.395C109.442 14.8083 110.154 13.42 111.111 12.23C112.091 11.0167 113.304 10.0717 114.751 9.395C116.197 8.71833 117.901 8.38 119.861 8.38C121.821 8.38 123.524 8.71833 124.971 9.395C126.417 10.0717 127.619 11.0167 128.576 12.23C129.556 13.42 130.279 14.8083 130.746 16.395C131.236 17.9817 131.481 19.6733 131.481 21.47C131.481 23.8733 131.049 26.0667 130.186 28.05C129.346 30.01 128.062 31.5733 126.336 32.74C124.632 33.9067 122.474 34.49 119.861 34.49ZM119.721 32.425C121.401 32.425 122.836 31.9467 124.026 30.99C125.216 30.01 126.114 28.7033 126.721 27.07C127.351 25.4133 127.666 23.5817 127.666 21.575C127.666 20.7117 127.584 19.7783 127.421 18.775C127.281 17.7483 127.036 16.745 126.686 15.765C126.336 14.7617 125.869 13.8633 125.286 13.07C124.702 12.2533 123.979 11.6 123.116 11.11C122.252 10.62 121.226 10.375 120.036 10.375C118.332 10.375 116.886 10.9 115.696 11.95C114.506 12.9767 113.596 14.3533 112.966 16.08C112.359 17.7833 112.056 19.6733 112.056 21.75C112.056 23.7333 112.336 25.53 112.896 27.14C113.479 28.75 114.342 30.0333 115.486 30.99C116.629 31.9467 118.041 32.425 119.721 32.425ZM151.165 34.875L150.885 34.49C150.628 34.1633 150.138 34 149.415 34H134.68L134.295 32.88L135.03 32.67C135.87 32.4133 136.43 32.0983 136.71 31.725C137.013 31.3283 137.165 30.6167 137.165 29.59V15.905C137.165 14.4817 137.036 13.35 136.78 12.51C136.546 11.67 136.15 10.8533 135.59 10.06L135.135 9.43L135.59 8.87H146.3C148.306 8.87 149.636 8.625 150.29 8.135L150.92 7.68L151.48 8.135V14.365L150.29 14.785L150.08 13.98C149.87 13.14 149.625 12.4983 149.345 12.055C149.065 11.6117 148.691 11.3083 148.225 11.145C147.758 10.9583 147.105 10.865 146.265 10.865H142.87C141.96 10.865 141.353 11.04 141.05 11.39C140.77 11.7167 140.63 12.4283 140.63 13.525V20.245H145.075C145.611 20.245 146.09 20.1283 146.51 19.895C146.953 19.6617 147.396 19.2417 147.84 18.635L148.12 18.25L148.82 18.635V24.62L147.63 25.04L147.42 24.235C147.21 23.4183 146.825 22.8817 146.265 22.625C145.728 22.3683 144.841 22.24 143.605 22.24H140.63V29.345C140.63 30.4183 140.77 31.13 141.05 31.48C141.353 31.83 141.96 32.005 142.87 32.005H146.65C147.49 32.005 148.143 31.9233 148.61 31.76C149.076 31.5733 149.45 31.2583 149.73 30.815C150.01 30.3483 150.255 29.7067 150.465 28.89L150.675 28.085L151.865 28.505V34.49L151.165 34.875ZM164.526 34L164.106 32.81L164.946 32.6C165.529 32.4133 165.984 32.215 166.311 32.005C166.637 31.795 166.859 31.4917 166.976 31.095C167.116 30.675 167.186 30.0917 167.186 29.345V13.525C167.186 12.4283 167.034 11.67 166.731 11.25C166.427 10.83 165.832 10.5033 164.946 10.27L164.106 10.06L164.526 8.87H172.226L172.681 9.43L172.226 10.06C171.642 10.83 171.234 11.6467 171.001 12.51C170.767 13.3733 170.651 14.505 170.651 15.905V26.055L182.446 13.245C182.422 12.265 182.247 11.5767 181.921 11.18C181.617 10.7833 181.046 10.48 180.206 10.27L179.436 10.06L179.856 8.87H187.486L188.011 9.43L187.486 10.06C186.879 10.8067 186.459 11.6233 186.226 12.51C185.992 13.3733 185.876 14.505 185.876 15.905V29.59C185.876 30.6167 186.027 31.3283 186.331 31.725C186.634 32.1217 187.217 32.4367 188.081 32.67L188.781 32.88L188.431 34H179.856L179.436 32.81L180.206 32.6C181.092 32.3667 181.687 32.0517 181.991 31.655C182.294 31.235 182.446 30.465 182.446 29.345V16.08L170.651 28.925V29.59C170.651 30.6167 170.791 31.3283 171.071 31.725C171.374 32.0983 171.934 32.4133 172.751 32.67L173.486 32.88L173.136 34H164.526ZM190.231 34L189.846 32.81L190.651 32.6C191.538 32.3433 192.156 32.005 192.506 31.585C192.856 31.165 193.066 30.4183 193.136 29.345L194.081 15.485C194.105 15.3917 194.128 15.17 194.151 14.82C194.175 14.4467 194.198 14.0617 194.221 13.665C194.245 13.2683 194.256 12.9767 194.256 12.79C194.256 11.9733 194.105 11.4017 193.801 11.075C193.521 10.725 192.996 10.4567 192.226 10.27L191.421 10.06L191.806 8.87H198.176L205.386 26.475L212.806 8.87H217.846L218.371 9.43L217.951 10.06C217.508 10.69 217.181 11.3433 216.971 12.02C216.785 12.6733 216.691 13.49 216.691 14.47C216.691 14.61 216.703 14.9017 216.726 15.345C216.75 15.7883 216.773 16.2317 216.796 16.675C216.843 17.1183 216.866 17.4333 216.866 17.62L217.566 27.21C217.683 28.6333 217.916 29.835 218.266 30.815C218.616 31.7717 219.188 32.6467 219.981 33.44L219.526 34H211.861L211.441 32.81L212.246 32.6C212.993 32.3667 213.506 32.075 213.786 31.725C214.09 31.3517 214.241 30.8033 214.241 30.08C214.241 29.9167 214.23 29.7067 214.206 29.45C214.206 29.1933 214.195 28.9717 214.171 28.785L213.156 14.19L205.841 31.48H203.951L196.636 14.19L195.866 24.97C195.843 25.3667 195.808 25.81 195.761 26.3C195.738 26.79 195.715 27.2333 195.691 27.63C195.668 28.0033 195.656 28.26 195.656 28.4C195.656 29.38 195.75 30.2083 195.936 30.885C196.146 31.5383 196.473 32.18 196.916 32.81L197.336 33.44L196.811 34H190.231ZM225.123 34.49C224.563 34.49 224.014 34.385 223.478 34.175C222.941 33.965 222.416 33.6033 221.903 33.09L222.463 32.075C222.743 32.2617 222.988 32.39 223.198 32.46C223.408 32.53 223.629 32.565 223.863 32.565C224.166 32.565 224.423 32.46 224.633 32.25C224.843 32.0167 225.029 31.7717 225.193 31.515L229.008 24.865C229.194 24.4917 229.381 24.165 229.568 23.885C229.778 23.605 230.046 23.3717 230.373 23.185C228.529 22.7183 227.176 21.82 226.313 20.49C225.449 19.16 225.018 17.6783 225.018 16.045C225.018 14.6217 225.344 13.3383 225.998 12.195C226.674 11.0517 227.748 10.1417 229.218 9.465C230.688 8.765 232.613 8.415 234.993 8.415C236.089 8.415 237.186 8.49667 238.283 8.66C239.379 8.82333 240.394 9.02167 241.328 9.255C242.284 9.48833 243.066 9.72167 243.673 9.955L243.218 11.285H241.188C240.931 11.285 240.733 11.3433 240.593 11.46C240.476 11.5533 240.418 11.7633 240.418 12.09V29.345C240.418 30.4183 240.569 31.1767 240.873 31.62C241.199 32.04 241.806 32.3667 242.693 32.6L243.428 32.81L243.043 34H235.413L234.993 33.44L235.413 32.81C235.949 32.04 236.346 31.235 236.603 30.395C236.859 29.555 236.988 28.4117 236.988 26.965V11.95C236.988 11.74 236.929 11.5183 236.813 11.285C236.696 11.0283 236.439 10.8067 236.043 10.62C235.669 10.4333 235.074 10.34 234.258 10.34C233.021 10.34 231.983 10.6083 231.143 11.145C230.303 11.6583 229.673 12.3583 229.253 13.245C228.833 14.1083 228.623 15.0883 228.623 16.185C228.623 17.795 229.078 19.1017 229.988 20.105C230.921 21.1083 232.239 21.61 233.943 21.61C234.479 21.61 234.864 21.575 235.098 21.505C235.354 21.435 235.541 21.4 235.658 21.4C235.844 21.4 235.973 21.4817 236.043 21.645C236.113 21.8083 236.148 21.995 236.148 22.205C236.148 22.3217 236.113 22.4617 236.043 22.625C235.973 22.7883 235.798 22.9283 235.518 23.045C234.864 23.2783 234.374 23.5117 234.048 23.745C233.721 23.955 233.418 24.2933 233.138 24.76L229.988 30.395C229.521 31.235 229.066 31.97 228.623 32.6C228.203 33.2067 227.713 33.6733 227.153 34C226.616 34.3267 225.939 34.49 225.123 34.49ZM256.033 25.18C256.033 24.76 256.103 24.3167 256.243 23.85C256.383 23.36 256.616 22.9867 256.943 22.73L266.148 22.38C266.148 22.8 266.078 23.255 265.938 23.745C265.821 24.2117 265.588 24.5733 265.238 24.83L256.033 25.18ZM278.953 34L278.533 32.81L279.338 32.6C280.225 32.3433 280.82 32.005 281.123 31.585C281.426 31.165 281.578 30.4183 281.578 29.345V12.055C281.578 11.495 281.321 11.215 280.808 11.215H278.778L278.358 9.92C278.965 9.68667 279.735 9.45333 280.668 9.22C281.625 8.98667 282.651 8.78833 283.748 8.625C284.868 8.46167 285.965 8.38 287.038 8.38C289.301 8.38 291.121 8.695 292.498 9.325C293.898 9.93167 294.913 10.76 295.543 11.81C296.196 12.86 296.523 14.015 296.523 15.275C296.523 16.5117 296.22 17.6667 295.613 18.74C295.03 19.8133 294.108 20.6533 292.848 21.26C294.435 21.7733 295.66 22.5667 296.523 23.64C297.386 24.69 297.818 25.845 297.818 27.105C297.818 28.435 297.515 29.625 296.908 30.675C296.325 31.7017 295.368 32.5183 294.038 33.125C292.708 33.7083 290.935 34 288.718 34H278.953ZM288.928 32.18C290.608 32.18 291.903 31.69 292.813 30.71C293.723 29.7067 294.178 28.4467 294.178 26.93C294.178 26.0433 293.956 25.2383 293.513 24.515C293.07 23.7683 292.428 23.1733 291.588 22.73C290.771 22.2867 289.78 22.065 288.613 22.065C288.193 22.065 287.773 22.0183 287.353 21.925C286.933 21.8317 286.595 21.7267 286.338 21.61C286.151 21.5167 286.011 21.4 285.918 21.26C285.848 21.12 285.813 20.98 285.813 20.84C285.813 20.42 285.976 20.21 286.303 20.21C286.443 20.21 286.63 20.2567 286.863 20.35C287.12 20.42 287.516 20.455 288.053 20.455C289.663 20.455 290.9 19.9767 291.763 19.02C292.626 18.0633 293.058 16.8383 293.058 15.345C293.058 13.9217 292.58 12.7317 291.623 11.775C290.666 10.8183 289.255 10.34 287.388 10.34C286.688 10.34 286.175 10.4333 285.848 10.62C285.521 10.7833 285.3 10.9933 285.183 11.25C285.09 11.5067 285.043 11.74 285.043 11.95V27.595C285.043 28.6917 285.171 29.555 285.428 30.185C285.708 30.7917 286.058 31.2467 286.478 31.55C286.898 31.83 287.318 32.005 287.738 32.075C288.181 32.145 288.578 32.18 288.928 32.18ZM311.215 34L310.795 32.81L311.6 32.6C312.486 32.3433 313.081 32.005 313.385 31.585C313.688 31.165 313.84 30.4183 313.84 29.345V13.525C313.84 12.4283 313.688 11.6817 313.385 11.285C313.081 10.865 312.486 10.5267 311.6 10.27L310.795 10.06L311.215 8.87H318.88L319.335 9.43L318.88 10.06C318.296 10.83 317.888 11.6467 317.655 12.51C317.421 13.35 317.305 14.4817 317.305 15.905V20.175H328.75V13.525C328.75 12.4283 328.598 11.6817 328.295 11.285C327.991 10.865 327.396 10.5267 326.51 10.27L325.705 10.06L326.125 8.87H333.79L334.245 9.43L333.79 10.06C333.206 10.83 332.798 11.6467 332.565 12.51C332.331 13.35 332.215 14.4817 332.215 15.905V29.59C332.215 30.6167 332.355 31.3283 332.635 31.725C332.938 32.0983 333.51 32.4133 334.35 32.67L335.085 32.88L334.7 34H326.125L325.705 32.81L326.51 32.6C327.396 32.3433 327.991 32.005 328.295 31.585C328.598 31.165 328.75 30.4183 328.75 29.345V22.31H317.305V29.59C317.305 30.6167 317.445 31.3283 317.725 31.725C318.028 32.0983 318.6 32.4133 319.44 32.67L320.175 32.88L319.79 34H311.215ZM336.53 34L336.11 32.81L336.915 32.6C337.545 32.4367 338.047 32.2383 338.42 32.005C338.793 31.7717 339.108 31.4567 339.365 31.06C339.645 30.64 339.902 30.0683 340.135 29.345L345.63 13.525C345.747 13.1517 345.84 12.8367 345.91 12.58C345.98 12.3 346.015 12.0433 346.015 11.81C346.015 11.3667 345.887 11.04 345.63 10.83C345.373 10.5967 344.977 10.41 344.44 10.27L343.635 10.06L344.055 8.87H350.81L357.845 29.17C358.125 29.94 358.405 30.57 358.685 31.06C358.988 31.55 359.327 31.97 359.7 32.32C360.073 32.67 360.505 33.0433 360.995 33.44L360.54 34H352.665L352.245 32.81L353.05 32.6C353.587 32.46 353.983 32.285 354.24 32.075C354.497 31.8417 354.625 31.5033 354.625 31.06C354.625 30.8267 354.59 30.5817 354.52 30.325C354.45 30.045 354.357 29.7183 354.24 29.345L352.56 24.445H344.475L343.635 27C343.378 27.7933 343.18 28.4817 343.04 29.065C342.9 29.6483 342.83 30.185 342.83 30.675C342.83 31.4683 342.993 32.18 343.32 32.81L343.635 33.44L342.97 34H336.53ZM345.21 22.275H351.825L348.465 12.475L345.21 22.275ZM363.202 34L362.782 32.81L363.622 32.6C364.205 32.4133 364.649 32.215 364.952 32.005C365.279 31.795 365.5 31.4917 365.617 31.095C365.757 30.675 365.827 30.0917 365.827 29.345V13.525C365.827 12.4283 365.675 11.67 365.372 11.25C365.069 10.83 364.485 10.5033 363.622 10.27L362.782 10.06L363.202 8.87H370.902L371.357 9.43L370.902 10.06C370.365 10.8533 369.969 11.6817 369.712 12.545C369.455 13.385 369.327 14.505 369.327 15.905V29.345C369.327 30.465 369.467 31.1883 369.747 31.515C370.027 31.8417 370.622 32.005 371.532 32.005H376.642C377.575 32.005 378.205 31.8417 378.532 31.515C378.859 31.1883 379.022 30.465 379.022 29.345V13.525C379.022 12.4283 378.87 11.67 378.567 11.25C378.264 10.83 377.669 10.5033 376.782 10.27L375.942 10.06L376.397 8.87H383.957L384.377 9.43L383.957 10.06C383.374 10.83 382.954 11.6467 382.697 12.51C382.44 13.3733 382.312 14.505 382.312 15.905V29.59C382.312 30.57 382.429 31.2233 382.662 31.55C382.895 31.8533 383.374 32.005 384.097 32.005H389.837C390.747 32.005 391.342 31.8417 391.622 31.515C391.902 31.1883 392.042 30.465 392.042 29.345V13.525C392.042 12.4283 391.89 11.67 391.587 11.25C391.307 10.83 390.724 10.5033 389.837 10.27L388.997 10.06L389.382 8.87H397.082L397.537 9.43L397.082 10.06C396.545 10.8533 396.149 11.6817 395.892 12.545C395.659 13.385 395.542 14.505 395.542 15.905V29.59C395.542 30.6167 395.682 31.3283 395.962 31.725C396.242 32.1217 396.802 32.4367 397.642 32.67L398.377 32.88L397.992 34H363.202ZM418.382 34.875L418.102 34.49C417.845 34.1633 417.355 34 416.632 34H401.897L401.512 32.88L402.247 32.67C403.087 32.4133 403.647 32.0983 403.927 31.725C404.23 31.3283 404.382 30.6167 404.382 29.59V15.905C404.382 14.4817 404.253 13.35 403.997 12.51C403.763 11.67 403.367 10.8533 402.807 10.06L402.352 9.43L402.807 8.87H413.517C415.523 8.87 416.853 8.625 417.507 8.135L418.137 7.68L418.697 8.135V14.365L417.507 14.785L417.297 13.98C417.087 13.14 416.842 12.4983 416.562 12.055C416.282 11.6117 415.908 11.3083 415.442 11.145C414.975 10.9583 414.322 10.865 413.482 10.865H410.087C409.177 10.865 408.57 11.04 408.267 11.39C407.987 11.7167 407.847 12.4283 407.847 13.525V20.245H412.292C412.828 20.245 413.307 20.1283 413.727 19.895C414.17 19.6617 414.613 19.2417 415.057 18.635L415.337 18.25L416.037 18.635V24.62L414.847 25.04L414.637 24.235C414.427 23.4183 414.042 22.8817 413.482 22.625C412.945 22.3683 412.058 22.24 410.822 22.24H407.847V29.345C407.847 30.4183 407.987 31.13 408.267 31.48C408.57 31.83 409.177 32.005 410.087 32.005H413.867C414.707 32.005 415.36 31.9233 415.827 31.76C416.293 31.5733 416.667 31.2583 416.947 30.815C417.227 30.3483 417.472 29.7067 417.682 28.89L417.892 28.085L419.082 28.505V34.49L418.382 34.875ZM422.104 34L421.684 32.81L422.524 32.6C423.107 32.4133 423.562 32.215 423.889 32.005C424.215 31.795 424.437 31.4917 424.554 31.095C424.694 30.675 424.764 30.0917 424.764 29.345V13.525C424.764 12.4283 424.612 11.67 424.309 11.25C424.005 10.83 423.41 10.5033 422.524 10.27L421.684 10.06L422.104 8.87H429.804L430.259 9.43L429.804 10.06C429.22 10.83 428.812 11.6467 428.579 12.51C428.345 13.3733 428.229 14.505 428.229 15.905V26.055L440.024 13.245C440 12.265 439.825 11.5767 439.499 11.18C439.195 10.7833 438.624 10.48 437.784 10.27L437.014 10.06L437.434 8.87H445.064L445.589 9.43L445.064 10.06C444.457 10.8067 444.037 11.6233 443.804 12.51C443.57 13.3733 443.454 14.505 443.454 15.905V29.59C443.454 30.6167 443.605 31.3283 443.909 31.725C444.212 32.1217 444.795 32.4367 445.659 32.67L446.359 32.88L446.009 34H437.434L437.014 32.81L437.784 32.6C438.67 32.3667 439.265 32.0517 439.569 31.655C439.872 31.235 440.024 30.465 440.024 29.345V16.08L428.229 28.925V29.59C428.229 30.6167 428.369 31.3283 428.649 31.725C428.952 32.0983 429.512 32.4133 430.329 32.67L431.064 32.88L430.714 34H422.104ZM434.039 5.93C432.195 5.93 430.714 5.66167 429.594 5.125C428.474 4.565 427.914 3.74833 427.914 2.675C427.914 1.905 428.205 1.29833 428.789 0.854999C429.372 0.411666 430.025 0.189999 430.749 0.189999C430.959 0.189999 431.134 0.248333 431.274 0.364999C431.414 0.458333 431.484 0.563333 431.484 0.679999C431.484 0.843332 431.39 1.04166 431.204 1.275C431.017 1.50833 430.924 1.92833 430.924 2.535C430.924 3.04833 431.134 3.50333 431.554 3.9C431.997 4.27333 432.825 4.46 434.039 4.46C435.205 4.46 436.022 4.285 436.489 3.935C436.979 3.56166 437.224 3.11833 437.224 2.605C437.224 1.975 437.119 1.54333 436.909 1.31C436.722 1.05333 436.629 0.843332 436.629 0.679999C436.629 0.563333 436.699 0.458333 436.839 0.364999C436.979 0.248333 437.165 0.189999 437.399 0.189999C438.099 0.189999 438.729 0.411666 439.289 0.854999C439.849 1.29833 440.129 1.905 440.129 2.675C440.129 3.74833 439.58 4.565 438.484 5.125C437.387 5.66167 435.905 5.93 434.039 5.93ZM457.623 34L457.168 33.44L457.623 32.81C458.206 32.04 458.615 31.235 458.848 30.395C459.105 29.5317 459.233 28.3883 459.233 26.965V15.905C459.233 14.505 459.105 13.3733 458.848 12.51C458.615 11.6467 458.206 10.83 457.623 10.06L457.168 9.43L457.623 8.87H478.133L478.588 9.43L478.133 10.06C477.55 10.83 477.13 11.6467 476.873 12.51C476.64 13.3733 476.523 14.505 476.523 15.905V29.59C476.523 30.6167 476.663 31.3283 476.943 31.725C477.246 32.0983 477.818 32.4133 478.658 32.67L479.428 32.88L479.043 34H470.503L470.048 32.81L470.818 32.6C471.425 32.4133 471.891 32.215 472.218 32.005C472.545 31.795 472.766 31.4917 472.883 31.095C473.023 30.675 473.093 30.0917 473.093 29.345V13.525C473.093 12.4283 472.941 11.705 472.638 11.355C472.358 11.005 471.751 10.83 470.818 10.83H464.903C463.993 10.83 463.386 11.005 463.083 11.355C462.803 11.705 462.663 12.4283 462.663 13.525V29.345C462.663 30.0917 462.721 30.675 462.838 31.095C462.978 31.4917 463.211 31.795 463.538 32.005C463.865 32.215 464.32 32.4133 464.903 32.6L465.743 32.81L465.323 34H457.623ZM479.914 34L479.494 32.81L480.299 32.6C480.929 32.4367 481.43 32.2383 481.804 32.005C482.177 31.7717 482.492 31.4567 482.749 31.06C483.029 30.64 483.285 30.0683 483.519 29.345L489.014 13.525C489.13 13.1517 489.224 12.8367 489.294 12.58C489.364 12.3 489.399 12.0433 489.399 11.81C489.399 11.3667 489.27 11.04 489.014 10.83C488.757 10.5967 488.36 10.41 487.824 10.27L487.019 10.06L487.439 8.87H494.194L501.229 29.17C501.509 29.94 501.789 30.57 502.069 31.06C502.372 31.55 502.71 31.97 503.084 32.32C503.457 32.67 503.889 33.0433 504.379 33.44L503.924 34H496.049L495.629 32.81L496.434 32.6C496.97 32.46 497.367 32.285 497.624 32.075C497.88 31.8417 498.009 31.5033 498.009 31.06C498.009 30.8267 497.974 30.5817 497.904 30.325C497.834 30.045 497.74 29.7183 497.624 29.345L495.944 24.445H487.859L487.019 27C486.762 27.7933 486.564 28.4817 486.424 29.065C486.284 29.6483 486.214 30.185 486.214 30.675C486.214 31.4683 486.377 32.18 486.704 32.81L487.019 33.44L486.354 34H479.914ZM488.594 22.275H495.209L491.849 12.475L488.594 22.275ZM505.676 34L505.291 32.81L506.096 32.6C506.982 32.3433 507.601 32.005 507.951 31.585C508.301 31.165 508.511 30.4183 508.581 29.345L509.526 15.485C509.549 15.3917 509.572 15.17 509.596 14.82C509.619 14.4467 509.642 14.0617 509.666 13.665C509.689 13.2683 509.701 12.9767 509.701 12.79C509.701 11.9733 509.549 11.4017 509.246 11.075C508.966 10.725 508.441 10.4567 507.671 10.27L506.866 10.06L507.251 8.87H513.621L520.831 26.475L528.251 8.87H533.291L533.816 9.43L533.396 10.06C532.952 10.69 532.626 11.3433 532.416 12.02C532.229 12.6733 532.136 13.49 532.136 14.47C532.136 14.61 532.147 14.9017 532.171 15.345C532.194 15.7883 532.217 16.2317 532.241 16.675C532.287 17.1183 532.311 17.4333 532.311 17.62L533.011 27.21C533.127 28.6333 533.361 29.835 533.711 30.815C534.061 31.7717 534.632 32.6467 535.426 33.44L534.971 34H527.306L526.886 32.81L527.691 32.6C528.437 32.3667 528.951 32.075 529.231 31.725C529.534 31.3517 529.686 30.8033 529.686 30.08C529.686 29.9167 529.674 29.7067 529.651 29.45C529.651 29.1933 529.639 28.9717 529.616 28.785L528.601 14.19L521.286 31.48H519.396L512.081 14.19L511.311 24.97C511.287 25.3667 511.252 25.81 511.206 26.3C511.182 26.79 511.159 27.2333 511.136 27.63C511.112 28.0033 511.101 28.26 511.101 28.4C511.101 29.38 511.194 30.2083 511.381 30.885C511.591 31.5383 511.917 32.18 512.361 32.81L512.781 33.44L512.256 34H505.676ZM540.567 34.49C540.007 34.49 539.459 34.385 538.922 34.175C538.385 33.965 537.86 33.6033 537.347 33.09L537.907 32.075C538.187 32.2617 538.432 32.39 538.642 32.46C538.852 32.53 539.074 32.565 539.307 32.565C539.61 32.565 539.867 32.46 540.077 32.25C540.287 32.0167 540.474 31.7717 540.637 31.515L544.452 24.865C544.639 24.4917 544.825 24.165 545.012 23.885C545.222 23.605 545.49 23.3717 545.817 23.185C543.974 22.7183 542.62 21.82 541.757 20.49C540.894 19.16 540.462 17.6783 540.462 16.045C540.462 14.6217 540.789 13.3383 541.442 12.195C542.119 11.0517 543.192 10.1417 544.662 9.465C546.132 8.765 548.057 8.415 550.437 8.415C551.534 8.415 552.63 8.49667 553.727 8.66C554.824 8.82333 555.839 9.02167 556.772 9.255C557.729 9.48833 558.51 9.72167 559.117 9.955L558.662 11.285H556.632C556.375 11.285 556.177 11.3433 556.037 11.46C555.92 11.5533 555.862 11.7633 555.862 12.09V29.345C555.862 30.4183 556.014 31.1767 556.317 31.62C556.644 32.04 557.25 32.3667 558.137 32.6L558.872 32.81L558.487 34H550.857L550.437 33.44L550.857 32.81C551.394 32.04 551.79 31.235 552.047 30.395C552.304 29.555 552.432 28.4117 552.432 26.965V11.95C552.432 11.74 552.374 11.5183 552.257 11.285C552.14 11.0283 551.884 10.8067 551.487 10.62C551.114 10.4333 550.519 10.34 549.702 10.34C548.465 10.34 547.427 10.6083 546.587 11.145C545.747 11.6583 545.117 12.3583 544.697 13.245C544.277 14.1083 544.067 15.0883 544.067 16.185C544.067 17.795 544.522 19.1017 545.432 20.105C546.365 21.1083 547.684 21.61 549.387 21.61C549.924 21.61 550.309 21.575 550.542 21.505C550.799 21.435 550.985 21.4 551.102 21.4C551.289 21.4 551.417 21.4817 551.487 21.645C551.557 21.8083 551.592 21.995 551.592 22.205C551.592 22.3217 551.557 22.4617 551.487 22.625C551.417 22.7883 551.242 22.9283 550.962 23.045C550.309 23.2783 549.819 23.5117 549.492 23.745C549.165 23.955 548.862 24.2933 548.582 24.76L545.432 30.395C544.965 31.235 544.51 31.97 544.067 32.6C543.647 33.2067 543.157 33.6733 542.597 34C542.06 34.3267 541.384 34.49 540.567 34.49ZM567.789 34L567.334 33.44L567.789 32.81C568.372 32.04 568.78 31.235 569.014 30.395C569.247 29.5317 569.364 28.3883 569.364 26.965V13.525C569.364 12.4283 569.282 11.7167 569.119 11.39C568.979 11.04 568.664 10.865 568.174 10.865H566.599C565.782 10.865 565.129 10.9583 564.639 11.145C564.172 11.3083 563.799 11.6117 563.519 12.055C563.262 12.4983 563.017 13.14 562.784 13.98L562.574 14.785L561.384 14.365V8.135L561.944 7.68L562.574 8.135C563.227 8.625 564.557 8.87 566.564 8.87H575.629C577.635 8.87 578.965 8.625 579.619 8.135L580.249 7.68L580.809 8.135V14.365L579.619 14.785L579.409 13.98C579.199 13.14 578.954 12.4983 578.674 12.055C578.394 11.6117 578.02 11.3083 577.554 11.145C577.087 10.9583 576.434 10.865 575.594 10.865H574.019C573.529 10.865 573.202 11.04 573.039 11.39C572.899 11.7167 572.829 12.4283 572.829 13.525V29.345C572.829 30.4183 572.98 31.165 573.284 31.585C573.61 32.005 574.205 32.3433 575.069 32.6L575.874 32.81L575.454 34H567.789ZM582.304 34L581.884 32.81L582.724 32.6C583.307 32.4133 583.762 32.215 584.089 32.005C584.416 31.795 584.637 31.4917 584.754 31.095C584.894 30.675 584.964 30.0917 584.964 29.345V13.525C584.964 12.4283 584.812 11.67 584.509 11.25C584.206 10.83 583.611 10.5033 582.724 10.27L581.884 10.06L582.304 8.87H590.004L590.459 9.43L590.004 10.06C589.421 10.83 589.012 11.6467 588.779 12.51C588.546 13.3733 588.429 14.505 588.429 15.905V26.055L600.224 13.245C600.201 12.265 600.026 11.5767 599.699 11.18C599.396 10.7833 598.824 10.48 597.984 10.27L597.214 10.06L597.634 8.87H605.264L605.789 9.43L605.264 10.06C604.657 10.8067 604.237 11.6233 604.004 12.51C603.771 13.3733 603.654 14.505 603.654 15.905V29.59C603.654 30.6167 603.806 31.3283 604.109 31.725C604.412 32.1217 604.996 32.4367 605.859 32.67L606.559 32.88L606.209 34H597.634L597.214 32.81L597.984 32.6C598.871 32.3667 599.466 32.0517 599.769 31.655C600.072 31.235 600.224 30.465 600.224 29.345V16.08L588.429 28.925V29.59C588.429 30.6167 588.569 31.3283 588.849 31.725C589.152 32.0983 589.712 32.4133 590.529 32.67L591.264 32.88L590.914 34H582.304Z" fill="#655D54"/>
</svg>
