<svg width="56" height="14" viewBox="0 0 56 14" fill="none" xmlns="http://www.w3.org/2000/svg">
<path d="M9.418 13.238C8.88533 13.238 8.43767 13.0963 8.075 12.813C7.72367 12.5183 7.41767 12.1047 7.157 11.572L5.61 8.478C5.42867 8.104 5.19633 7.815 4.913 7.611C4.62967 7.407 4.29533 7.24267 3.91 7.118C3.85333 7.09533 3.825 7.033 3.825 6.931C3.825 6.84033 3.84767 6.74967 3.893 6.659C3.93833 6.56833 4.03467 6.523 4.182 6.523H4.573L7.344 2.987C7.53667 2.749 7.63867 2.47133 7.65 2.154C7.67267 1.83667 7.599 1.56467 7.429 1.338L7.242 1.066L7.548 0.793999H10.472L10.676 1.372L10.268 1.474C10.0187 1.51933 9.792 1.61567 9.588 1.763C9.384 1.899 9.16867 2.10867 8.942 2.392L5.508 6.778C6.06333 6.88 6.52233 7.07833 6.885 7.373C7.24767 7.66767 7.57067 8.087 7.854 8.631L9.452 11.793C9.54267 11.9517 9.639 12.0763 9.741 12.167C9.843 12.2577 9.96767 12.303 10.115 12.303C10.2283 12.303 10.336 12.286 10.438 12.252C10.5513 12.218 10.6647 12.1557 10.778 12.065L11.05 12.558C10.812 12.8073 10.557 12.983 10.285 13.085C10.013 13.187 9.724 13.238 9.418 13.238ZM0.459 13L0.255 12.422L0.663 12.32C0.946333 12.2293 1.16733 12.133 1.326 12.031C1.48467 11.929 1.59233 11.7817 1.649 11.589C1.717 11.385 1.751 11.1017 1.751 10.739V3.055C1.751 2.52233 1.67733 2.154 1.53 1.95C1.38267 1.746 1.09367 1.58733 0.663 1.474L0.255 1.372L0.459 0.793999H4.199L4.42 1.066L4.199 1.372C3.91567 1.746 3.71733 2.14267 3.604 2.562C3.49067 2.98133 3.434 3.531 3.434 4.211V10.858C3.434 11.3567 3.502 11.7023 3.638 11.895C3.78533 12.0763 4.05733 12.2293 4.454 12.354L4.811 12.456L4.641 13H0.459ZM11.1547 13L10.9507 12.422L11.3417 12.32C11.6477 12.2407 11.8913 12.1443 12.0727 12.031C12.254 11.9177 12.407 11.7647 12.5317 11.572C12.6677 11.368 12.7923 11.0903 12.9057 10.739L15.5747 3.055C15.6313 2.87367 15.6767 2.72067 15.7107 2.596C15.7447 2.46 15.7617 2.33533 15.7617 2.222C15.7617 2.00667 15.6993 1.848 15.5747 1.746C15.45 1.63267 15.2573 1.542 14.9967 1.474L14.6057 1.372L14.8097 0.793999H18.0907L21.5077 10.654C21.6437 11.028 21.7797 11.334 21.9157 11.572C22.063 11.81 22.2273 12.014 22.4087 12.184C22.59 12.354 22.7997 12.5353 23.0377 12.728L22.8167 13H18.9917L18.7877 12.422L19.1787 12.32C19.4393 12.252 19.632 12.167 19.7567 12.065C19.8813 11.9517 19.9437 11.7873 19.9437 11.572C19.9437 11.4587 19.9267 11.3397 19.8927 11.215C19.8587 11.079 19.8133 10.9203 19.7567 10.739L18.9407 8.359H15.0137L14.6057 9.6C14.481 9.98533 14.3847 10.3197 14.3167 10.603C14.2487 10.8863 14.2147 11.147 14.2147 11.385C14.2147 11.7703 14.294 12.116 14.4527 12.422L14.6057 12.728L14.2827 13H11.1547ZM15.3707 7.305H18.5837L16.9517 2.545L15.3707 7.305ZM24.1096 13L23.9056 12.422L24.2966 12.32C24.7273 12.2067 25.0163 12.048 25.1636 11.844C25.3109 11.6287 25.3846 11.2603 25.3846 10.739V2.341C25.3846 2.069 25.2599 1.933 25.0106 1.933H24.0246L23.8206 1.304C24.1153 1.19067 24.4893 1.07733 24.9426 0.964C25.4073 0.850666 25.9059 0.754333 26.4386 0.675C26.9826 0.595666 27.5209 0.555999 28.0536 0.555999C29.2323 0.555999 30.1843 0.742999 30.9096 1.117C31.6463 1.47967 32.1789 1.967 32.5076 2.579C32.8476 3.191 33.0176 3.86533 33.0176 4.602C33.0176 5.30467 32.8703 5.962 32.5756 6.574C32.2923 7.17467 31.8503 7.65633 31.2496 8.019C30.6489 8.38167 29.8783 8.563 28.9376 8.563C28.5523 8.563 28.2066 8.51767 27.9006 8.427C27.5946 8.325 27.4416 8.172 27.4416 7.968C27.4416 7.866 27.4643 7.77533 27.5096 7.696C27.5549 7.60533 27.6229 7.56 27.7136 7.56C27.7816 7.56 27.8723 7.58267 27.9856 7.628C28.1103 7.662 28.2973 7.679 28.5466 7.679C29.4193 7.679 30.0879 7.40133 30.5526 6.846C31.0173 6.29067 31.2496 5.55967 31.2496 4.653C31.2496 4.06367 31.1419 3.531 30.9266 3.055C30.7113 2.579 30.3883 2.205 29.9576 1.933C29.5269 1.64967 28.9943 1.508 28.3596 1.508C27.9743 1.508 27.6909 1.55333 27.5096 1.644C27.3283 1.72333 27.2093 1.82533 27.1526 1.95C27.0959 2.07467 27.0676 2.188 27.0676 2.29V9.583C27.0676 10.2743 27.1243 10.8297 27.2376 11.249C27.3509 11.657 27.5493 12.048 27.8326 12.422L28.0536 12.728L27.8326 13H24.1096ZM36.8035 13L36.5825 12.728L36.8035 12.422C37.0869 12.048 37.2852 11.657 37.3985 11.249C37.5119 10.8297 37.5685 10.2743 37.5685 9.583V3.055C37.5685 2.52233 37.5289 2.17667 37.4495 2.018C37.3815 1.848 37.2285 1.763 36.9905 1.763H36.2255C35.8289 1.763 35.5115 1.80833 35.2735 1.899C35.0469 1.97833 34.8655 2.12567 34.7295 2.341C34.6049 2.55633 34.4859 2.868 34.3725 3.276L34.2705 3.667L33.6925 3.463V0.437L33.9645 0.215999L34.2705 0.437C34.5879 0.674999 35.2339 0.793999 36.2085 0.793999H40.6115C41.5862 0.793999 42.2322 0.674999 42.5495 0.437L42.8555 0.215999L43.1275 0.437V3.463L42.5495 3.667L42.4475 3.276C42.3455 2.868 42.2265 2.55633 42.0905 2.341C41.9545 2.12567 41.7732 1.97833 41.5465 1.899C41.3199 1.80833 41.0025 1.763 40.5945 1.763H39.8295C39.5915 1.763 39.4329 1.848 39.3535 2.018C39.2855 2.17667 39.2515 2.52233 39.2515 3.055V10.739C39.2515 11.2603 39.3252 11.623 39.4725 11.827C39.6312 12.031 39.9202 12.1953 40.3395 12.32L40.7305 12.422L40.5265 13H36.8035ZM43.3949 13L43.1909 12.422L43.5819 12.32C43.8879 12.2407 44.1316 12.1443 44.3129 12.031C44.4942 11.9177 44.6472 11.7647 44.7719 11.572C44.9079 11.368 45.0326 11.0903 45.1459 10.739L47.8149 3.055C47.8716 2.87367 47.9169 2.72067 47.9509 2.596C47.9849 2.46 48.0019 2.33533 48.0019 2.222C48.0019 2.00667 47.9396 1.848 47.8149 1.746C47.6902 1.63267 47.4976 1.542 47.2369 1.474L46.8459 1.372L47.0499 0.793999H50.3309L53.7479 10.654C53.8839 11.028 54.0199 11.334 54.1559 11.572C54.3032 11.81 54.4676 12.014 54.6489 12.184C54.8302 12.354 55.0399 12.5353 55.2779 12.728L55.0569 13H51.2319L51.0279 12.422L51.4189 12.32C51.6796 12.252 51.8722 12.167 51.9969 12.065C52.1216 11.9517 52.1839 11.7873 52.1839 11.572C52.1839 11.4587 52.1669 11.3397 52.1329 11.215C52.0989 11.079 52.0536 10.9203 51.9969 10.739L51.1809 8.359H47.2539L46.8459 9.6C46.7212 9.98533 46.6249 10.3197 46.5569 10.603C46.4889 10.8863 46.4549 11.147 46.4549 11.385C46.4549 11.7703 46.5342 12.116 46.6929 12.422L46.8459 12.728L46.5229 13H43.3949ZM47.6109 7.305H50.8239L49.1919 2.545L47.6109 7.305Z" fill="#A09081"/>
</svg>
