<svg width="59" height="15" viewBox="0 0 59 15" fill="none" xmlns="http://www.w3.org/2000/svg">
<path d="M9.972 14.252C9.408 14.252 8.934 14.102 8.55 13.802C8.178 13.49 7.854 13.052 7.578 12.488L5.94 9.212C5.748 8.816 5.502 8.51 5.202 8.294C4.902 8.078 4.548 7.904 4.14 7.772C4.08 7.748 4.05 7.682 4.05 7.574C4.05 7.478 4.074 7.382 4.122 7.286C4.17 7.19 4.272 7.142 4.428 7.142H4.842L7.776 3.398C7.98 3.146 8.088 2.852 8.1 2.516C8.124 2.18 8.046 1.892 7.866 1.652L7.668 1.364L7.992 1.076H11.088L11.304 1.688L10.872 1.796C10.608 1.844 10.368 1.946 10.152 2.102C9.936 2.246 9.708 2.468 9.468 2.768L5.832 7.412C6.42 7.52 6.906 7.73 7.29 8.042C7.674 8.354 8.016 8.798 8.316 9.374L10.008 12.722C10.104 12.89 10.206 13.022 10.314 13.118C10.422 13.214 10.554 13.262 10.71 13.262C10.83 13.262 10.944 13.244 11.052 13.208C11.172 13.172 11.292 13.106 11.412 13.01L11.7 13.532C11.448 13.796 11.178 13.982 10.89 14.09C10.602 14.198 10.296 14.252 9.972 14.252ZM0.486 14L0.27 13.388L0.702 13.28C1.002 13.184 1.236 13.082 1.404 12.974C1.572 12.866 1.686 12.71 1.746 12.506C1.818 12.29 1.854 11.99 1.854 11.606V3.47C1.854 2.906 1.776 2.516 1.62 2.3C1.464 2.084 1.158 1.916 0.702 1.796L0.27 1.688L0.486 1.076H4.446L4.68 1.364L4.446 1.688C4.146 2.084 3.936 2.504 3.816 2.948C3.696 3.392 3.636 3.974 3.636 4.694V11.732C3.636 12.26 3.708 12.626 3.852 12.83C4.008 13.022 4.296 13.184 4.716 13.316L5.094 13.424L4.914 14H0.486ZM11.8108 14L11.5948 13.388L12.0088 13.28C12.3328 13.196 12.5908 13.094 12.7828 12.974C12.9748 12.854 13.1368 12.692 13.2688 12.488C13.4128 12.272 13.5448 11.978 13.6648 11.606L16.4908 3.47C16.5508 3.278 16.5988 3.116 16.6348 2.984C16.6708 2.84 16.6888 2.708 16.6888 2.588C16.6888 2.36 16.6228 2.192 16.4908 2.084C16.3588 1.964 16.1548 1.868 15.8788 1.796L15.4648 1.688L15.6808 1.076H19.1548L22.7728 11.516C22.9168 11.912 23.0608 12.236 23.2048 12.488C23.3608 12.74 23.5348 12.956 23.7268 13.136C23.9188 13.316 24.1408 13.508 24.3928 13.712L24.1588 14H20.1088L19.8928 13.388L20.3068 13.28C20.5828 13.208 20.7868 13.118 20.9188 13.01C21.0508 12.89 21.1168 12.716 21.1168 12.488C21.1168 12.368 21.0988 12.242 21.0628 12.11C21.0268 11.966 20.9788 11.798 20.9188 11.606L20.0548 9.086H15.8968L15.4648 10.4C15.3328 10.808 15.2308 11.162 15.1588 11.462C15.0868 11.762 15.0508 12.038 15.0508 12.29C15.0508 12.698 15.1348 13.064 15.3028 13.388L15.4648 13.712L15.1228 14H11.8108ZM16.2748 7.97H19.6768L17.9488 2.93L16.2748 7.97ZM25.5278 14L25.3118 13.388L25.7258 13.28C26.1818 13.16 26.4878 12.992 26.6438 12.776C26.7998 12.548 26.8778 12.158 26.8778 11.606V2.714C26.8778 2.426 26.7458 2.282 26.4818 2.282H25.4378L25.2218 1.616C25.5338 1.496 25.9298 1.376 26.4098 1.256C26.9018 1.136 27.4298 1.034 27.9938 0.95C28.5698 0.865999 29.1398 0.823999 29.7038 0.823999C30.9518 0.823999 31.9598 1.022 32.7278 1.418C33.5078 1.802 34.0718 2.318 34.4198 2.966C34.7798 3.614 34.9598 4.328 34.9598 5.108C34.9598 5.852 34.8038 6.548 34.4918 7.196C34.1918 7.832 33.7238 8.342 33.0878 8.726C32.4518 9.11 31.6358 9.302 30.6398 9.302C30.2318 9.302 29.8658 9.254 29.5418 9.158C29.2178 9.05 29.0558 8.888 29.0558 8.672C29.0558 8.564 29.0798 8.468 29.1278 8.384C29.1758 8.288 29.2478 8.24 29.3438 8.24C29.4158 8.24 29.5118 8.264 29.6318 8.312C29.7638 8.348 29.9618 8.366 30.2258 8.366C31.1498 8.366 31.8578 8.072 32.3498 7.484C32.8418 6.896 33.0878 6.122 33.0878 5.162C33.0878 4.538 32.9738 3.974 32.7458 3.47C32.5178 2.966 32.1758 2.57 31.7198 2.282C31.2638 1.982 30.6998 1.832 30.0278 1.832C29.6198 1.832 29.3198 1.88 29.1278 1.976C28.9358 2.06 28.8098 2.168 28.7498 2.3C28.6898 2.432 28.6598 2.552 28.6598 2.66V10.382C28.6598 11.114 28.7198 11.702 28.8398 12.146C28.9598 12.578 29.1698 12.992 29.4698 13.388L29.7038 13.712L29.4698 14H25.5278ZM38.9685 14L38.7345 13.712L38.9685 13.388C39.2685 12.992 39.4785 12.578 39.5985 12.146C39.7185 11.702 39.7785 11.114 39.7785 10.382V3.47C39.7785 2.906 39.7365 2.54 39.6525 2.372C39.5805 2.192 39.4185 2.102 39.1665 2.102H38.3565C37.9365 2.102 37.6005 2.15 37.3485 2.246C37.1085 2.33 36.9165 2.486 36.7725 2.714C36.6405 2.942 36.5145 3.272 36.3945 3.704L36.2865 4.118L35.6745 3.902V0.698L35.9625 0.463999L36.2865 0.698C36.6225 0.949999 37.3065 1.076 38.3385 1.076H43.0005C44.0325 1.076 44.7165 0.949999 45.0525 0.698L45.3765 0.463999L45.6645 0.698V3.902L45.0525 4.118L44.9445 3.704C44.8365 3.272 44.7105 2.942 44.5665 2.714C44.4225 2.486 44.2305 2.33 43.9905 2.246C43.7505 2.15 43.4145 2.102 42.9825 2.102H42.1725C41.9205 2.102 41.7525 2.192 41.6685 2.372C41.5965 2.54 41.5605 2.906 41.5605 3.47V11.606C41.5605 12.158 41.6385 12.542 41.7945 12.758C41.9625 12.974 42.2685 13.148 42.7125 13.28L43.1265 13.388L42.9105 14H38.9685ZM45.9475 14L45.7315 13.388L46.1455 13.28C46.4695 13.196 46.7275 13.094 46.9195 12.974C47.1115 12.854 47.2735 12.692 47.4055 12.488C47.5495 12.272 47.6815 11.978 47.8015 11.606L50.6275 3.47C50.6875 3.278 50.7355 3.116 50.7715 2.984C50.8075 2.84 50.8255 2.708 50.8255 2.588C50.8255 2.36 50.7595 2.192 50.6275 2.084C50.4955 1.964 50.2915 1.868 50.0155 1.796L49.6015 1.688L49.8175 1.076H53.2915L56.9095 11.516C57.0535 11.912 57.1975 12.236 57.3415 12.488C57.4975 12.74 57.6715 12.956 57.8635 13.136C58.0555 13.316 58.2775 13.508 58.5295 13.712L58.2955 14H54.2455L54.0295 13.388L54.4435 13.28C54.7195 13.208 54.9235 13.118 55.0555 13.01C55.1875 12.89 55.2535 12.716 55.2535 12.488C55.2535 12.368 55.2355 12.242 55.1995 12.11C55.1635 11.966 55.1155 11.798 55.0555 11.606L54.1915 9.086H50.0335L49.6015 10.4C49.4695 10.808 49.3675 11.162 49.2955 11.462C49.2235 11.762 49.1875 12.038 49.1875 12.29C49.1875 12.698 49.2715 13.064 49.4395 13.388L49.6015 13.712L49.2595 14H45.9475ZM50.4115 7.97H53.8135L52.0855 2.93L50.4115 7.97Z" fill="#655D54"/>
</svg>
