<svg width="538" height="39" viewBox="0 0 538 39" fill="none" xmlns="http://www.w3.org/2000/svg">
<path d="M22.16 31.56C20.9067 31.56 19.8533 31.2267 19 30.56C18.1733 29.8667 17.4533 28.8933 16.84 27.64L13.2 20.36C12.7733 19.48 12.2267 18.8 11.56 18.32C10.8933 17.84 10.1067 17.4533 9.2 17.16C9.06667 17.1067 9 16.96 9 16.72C9 16.5067 9.05333 16.2933 9.16 16.08C9.26667 15.8667 9.49333 15.76 9.84 15.76H10.76L17.28 7.44C17.7333 6.88 17.9733 6.22667 18 5.48C18.0533 4.73333 17.88 4.09333 17.48 3.56L17.04 2.92L17.76 2.28H24.64L25.12 3.64L24.16 3.88C23.5733 3.98667 23.04 4.21333 22.56 4.56C22.08 4.88 21.5733 5.37333 21.04 6.04L12.96 16.36C14.2667 16.6 15.3467 17.0667 16.2 17.76C17.0533 18.4533 17.8133 19.44 18.48 20.72L22.24 28.16C22.4533 28.5333 22.68 28.8267 22.92 29.04C23.16 29.2533 23.4533 29.36 23.8 29.36C24.0667 29.36 24.32 29.32 24.56 29.24C24.8267 29.16 25.0933 29.0133 25.36 28.8L26 29.96C25.44 30.5467 24.84 30.96 24.2 31.2C23.56 31.44 22.88 31.56 22.16 31.56ZM1.08 31L0.6 29.64L1.56 29.4C2.22667 29.1867 2.74667 28.96 3.12 28.72C3.49333 28.48 3.74667 28.1333 3.88 27.68C4.04 27.2 4.12 26.5333 4.12 25.68V7.6C4.12 6.34667 3.94667 5.48 3.6 5C3.25333 4.52 2.57333 4.14667 1.56 3.88L0.6 3.64L1.08 2.28H9.88L10.4 2.92L9.88 3.64C9.21333 4.52 8.74667 5.45333 8.48 6.44C8.21333 7.42667 8.08 8.72 8.08 10.32V25.96C8.08 27.1333 8.24 27.9467 8.56 28.4C8.90667 28.8267 9.54667 29.1867 10.48 29.48L11.32 29.72L10.92 31H1.08ZM26.2462 31L25.7662 29.64L26.6863 29.4C27.4063 29.2133 27.9796 28.9867 28.4063 28.72C28.8329 28.4533 29.1929 28.0933 29.4863 27.64C29.8063 27.16 30.0996 26.5067 30.3663 25.68L36.6463 7.6C36.7796 7.17333 36.8863 6.81333 36.9662 6.52C37.0463 6.2 37.0863 5.90667 37.0863 5.64C37.0863 5.13333 36.9396 4.76 36.6463 4.52C36.3529 4.25333 35.8996 4.04 35.2863 3.88L34.3663 3.64L34.8463 2.28H42.5663L50.6063 25.48C50.9263 26.36 51.2463 27.08 51.5663 27.64C51.9129 28.2 52.2996 28.68 52.7263 29.08C53.1529 29.48 53.6463 29.9067 54.2063 30.36L53.6863 31H44.6863L44.2063 29.64L45.1263 29.4C45.7396 29.24 46.1929 29.04 46.4863 28.8C46.7796 28.5333 46.9263 28.1467 46.9263 27.64C46.9263 27.3733 46.8863 27.0933 46.8063 26.8C46.7263 26.48 46.6196 26.1067 46.4863 25.68L44.5663 20.08H35.3263L34.3663 23C34.0729 23.9067 33.8463 24.6933 33.6863 25.36C33.5263 26.0267 33.4463 26.64 33.4463 27.2C33.4463 28.1067 33.6329 28.92 34.0063 29.64L34.3663 30.36L33.6063 31H26.2462ZM36.1663 17.6H43.7263L39.8863 6.4L36.1663 17.6ZM91.0484 31.56C89.7951 31.56 88.7418 31.2267 87.8884 30.56C87.0618 29.8933 86.3284 28.92 85.6884 27.64L82.0884 20.36C81.6618 19.48 81.1151 18.8 80.4484 18.32C79.7818 17.84 78.9951 17.4533 78.0884 17.16C78.0084 17.1333 77.9551 17.08 77.9284 17C77.9018 16.8933 77.8884 16.8 77.8884 16.72C77.8884 16.5067 77.9284 16.2933 78.0084 16.08C78.1151 15.8667 78.3551 15.76 78.7284 15.76H79.6084L86.1684 7.44C86.6218 6.85333 86.8618 6.2 86.8884 5.48C86.9418 4.73333 86.7684 4.09333 86.3684 3.56L85.9284 2.92L86.6484 2.28H93.5284L93.9684 3.64L93.0484 3.88C92.4618 3.98667 91.9284 4.21333 91.4484 4.56C90.9684 4.88 90.4618 5.37333 89.9284 6.04L81.8484 16.36C83.1284 16.6 84.1951 17.0667 85.0484 17.76C85.9284 18.4533 86.6884 19.44 87.3284 20.72L91.1284 28.16C91.3418 28.5333 91.5684 28.8267 91.8084 29.04C92.0484 29.2533 92.3418 29.36 92.6884 29.36C92.9551 29.36 93.2084 29.32 93.4484 29.24C93.7151 29.16 93.9818 29.0133 94.2484 28.8L94.8884 29.96C94.3284 30.5467 93.7284 30.96 93.0884 31.2C92.4484 31.44 91.7684 31.56 91.0484 31.56ZM58.8884 31.56C58.1684 31.56 57.4884 31.44 56.8484 31.2C56.2084 30.96 55.6084 30.5467 55.0484 29.96L55.6884 28.8C55.9818 29.0133 56.2484 29.16 56.4884 29.24C56.7284 29.32 56.9818 29.36 57.2484 29.36C57.6218 29.36 57.9284 29.2533 58.1684 29.04C58.4084 28.8267 58.6218 28.5333 58.8084 28.16L62.6084 20.72C63.2484 19.44 63.9951 18.4533 64.8484 17.76C65.7284 17.0667 66.8084 16.6 68.0884 16.36L60.0084 6.04C59.5018 5.37333 58.9951 4.88 58.4884 4.56C58.0084 4.21333 57.4751 3.98667 56.8884 3.88L55.9684 3.64L56.4084 2.28H63.2884L64.0084 2.92L63.5684 3.56C63.1684 4.09333 62.9818 4.73333 63.0084 5.48C63.0618 6.2 63.3151 6.85333 63.7684 7.44L70.3284 15.76H71.2084C71.5818 15.76 71.8084 15.8667 71.8884 16.08C71.9951 16.2933 72.0484 16.5067 72.0484 16.72C72.0484 16.8 72.0351 16.8933 72.0084 17C71.9818 17.08 71.9284 17.1333 71.8484 17.16C70.9418 17.4533 70.1551 17.84 69.4884 18.32C68.8484 18.8 68.3018 19.48 67.8484 20.36L64.2484 27.64C63.6084 28.92 62.8618 29.8933 62.0084 30.56C61.1818 31.2267 60.1418 31.56 58.8884 31.56ZM70.8484 31L70.4084 29.64L71.2484 29.4C71.9418 29.1067 72.4084 28.7333 72.6484 28.28C72.8884 27.8267 73.0084 26.96 73.0084 25.68V7.6C73.0084 6.34667 72.9151 5.48 72.7284 5C72.5684 4.52 72.2218 4.14667 71.6884 3.88L70.8484 3.64L71.2484 2.28H78.3684L78.8484 2.92L78.3684 3.64C77.8618 4.52 77.5018 5.45333 77.2884 6.44C77.0751 7.42667 76.9684 8.72 76.9684 10.32V25.96C76.9684 27.1333 77.0751 27.9467 77.2884 28.4C77.5018 28.8267 77.9151 29.1867 78.5284 29.48L79.3684 29.72L78.9284 31H70.8484ZM96.6734 38.72L95.3134 38.24V29.28C97.0201 29.04 98.3801 28.3733 99.3934 27.28C100.407 26.1867 101.18 24.6933 101.713 22.8C102.273 20.9067 102.687 18.6533 102.953 16.04C103.247 13.4267 103.5 10.48 103.713 7.2C103.767 6.10667 103.527 5.33333 102.993 4.88C102.487 4.4 101.847 4.06667 101.073 3.88L100.193 3.64L100.673 2.28H120.193L120.633 2.92L120.193 3.64C119.527 4.52 119.047 5.45333 118.753 6.44C118.46 7.42667 118.313 8.72 118.313 10.32V26.8C118.313 27.3867 118.527 27.8667 118.953 28.24C119.38 28.6133 119.927 28.8933 120.593 29.08C121.26 29.24 121.953 29.32 122.673 29.32V38.24L121.313 38.72L121.073 37.76C120.7 36.3467 120.287 35.1333 119.833 34.12C119.38 33.1067 118.78 32.3333 118.033 31.8C117.313 31.2667 116.34 31 115.113 31H102.873C101.673 31 100.7 31.2667 99.9534 31.8C99.2334 32.3333 98.6334 33.1067 98.1534 34.12C97.7001 35.1333 97.2734 36.3467 96.8734 37.76L96.6734 38.72ZM100.833 28.72H111.793C112.86 28.72 113.553 28.5333 113.873 28.16C114.22 27.7867 114.393 26.96 114.393 25.68V7.6C114.393 6.34667 114.22 5.52 113.873 5.12C113.553 4.72 112.86 4.52 111.793 4.52H109.353C108.607 4.52 108.007 4.62666 107.553 4.84C107.1 5.02667 106.847 5.45333 106.793 6.12C106.367 12.6267 105.713 17.7467 104.833 21.48C103.953 25.2133 102.62 27.6267 100.833 28.72ZM122.184 31L121.704 29.64L122.624 29.4C123.344 29.2133 123.917 28.9867 124.344 28.72C124.77 28.4533 125.13 28.0933 125.424 27.64C125.744 27.16 126.037 26.5067 126.304 25.68L132.584 7.6C132.717 7.17333 132.824 6.81333 132.904 6.52C132.984 6.2 133.024 5.90667 133.024 5.64C133.024 5.13333 132.877 4.76 132.584 4.52C132.29 4.25333 131.837 4.04 131.224 3.88L130.304 3.64L130.784 2.28H138.504L146.544 25.48C146.864 26.36 147.184 27.08 147.504 27.64C147.85 28.2 148.237 28.68 148.664 29.08C149.09 29.48 149.584 29.9067 150.144 30.36L149.624 31H140.624L140.144 29.64L141.064 29.4C141.677 29.24 142.13 29.04 142.424 28.8C142.717 28.5333 142.864 28.1467 142.864 27.64C142.864 27.3733 142.824 27.0933 142.744 26.8C142.664 26.48 142.557 26.1067 142.424 25.68L140.504 20.08H131.264L130.304 23C130.01 23.9067 129.784 24.6933 129.624 25.36C129.464 26.0267 129.384 26.64 129.384 27.2C129.384 28.1067 129.57 28.92 129.944 29.64L130.304 30.36L129.544 31H122.184ZM132.104 17.6H139.664L135.824 6.4L132.104 17.6ZM154.666 31.56C154.026 31.56 153.399 31.44 152.786 31.2C152.173 30.96 151.573 30.5467 150.986 29.96L151.626 28.8C151.946 29.0133 152.226 29.16 152.466 29.24C152.706 29.32 152.959 29.36 153.226 29.36C153.573 29.36 153.866 29.24 154.106 29C154.346 28.7333 154.559 28.4533 154.746 28.16L159.106 20.56C159.319 20.1333 159.533 19.76 159.746 19.44C159.986 19.12 160.293 18.8533 160.666 18.64C158.559 18.1067 157.013 17.08 156.026 15.56C155.039 14.04 154.546 12.3467 154.546 10.48C154.546 8.85333 154.919 7.38667 155.666 6.08C156.439 4.77333 157.666 3.73333 159.346 2.96C161.026 2.16 163.226 1.76 165.946 1.76C167.199 1.76 168.453 1.85333 169.706 2.04C170.959 2.22667 172.119 2.45333 173.186 2.72C174.279 2.98667 175.173 3.25333 175.866 3.52L175.346 5.04H173.026C172.733 5.04 172.506 5.10666 172.346 5.24C172.213 5.34666 172.146 5.58666 172.146 5.96V25.68C172.146 26.9067 172.319 27.7733 172.666 28.28C173.039 28.76 173.733 29.1333 174.746 29.4L175.586 29.64L175.146 31H166.426L165.946 30.36L166.426 29.64C167.039 28.76 167.493 27.84 167.786 26.88C168.079 25.92 168.226 24.6133 168.226 22.96V5.8C168.226 5.56 168.159 5.30666 168.026 5.04C167.893 4.74667 167.599 4.49333 167.146 4.28C166.719 4.06666 166.039 3.96 165.106 3.96C163.693 3.96 162.506 4.26666 161.546 4.88C160.586 5.46666 159.866 6.26666 159.386 7.28C158.906 8.26666 158.666 9.38667 158.666 10.64C158.666 12.48 159.186 13.9733 160.226 15.12C161.293 16.2667 162.799 16.84 164.746 16.84C165.359 16.84 165.799 16.8 166.066 16.72C166.359 16.64 166.573 16.6 166.706 16.6C166.919 16.6 167.066 16.6933 167.146 16.88C167.226 17.0667 167.266 17.28 167.266 17.52C167.266 17.6533 167.226 17.8133 167.146 18C167.066 18.1867 166.866 18.3467 166.546 18.48C165.799 18.7467 165.239 19.0133 164.866 19.28C164.493 19.52 164.146 19.9067 163.826 20.44L160.226 26.88C159.693 27.84 159.173 28.68 158.666 29.4C158.186 30.0933 157.626 30.6267 156.986 31C156.373 31.3733 155.599 31.56 154.666 31.56ZM225.072 31.56C223.819 31.56 222.765 31.2267 221.912 30.56C221.085 29.8933 220.352 28.92 219.712 27.64L216.112 20.36C215.685 19.48 215.139 18.8 214.472 18.32C213.805 17.84 213.019 17.4533 212.112 17.16C212.032 17.1333 211.979 17.08 211.952 17C211.925 16.8933 211.912 16.8 211.912 16.72C211.912 16.5067 211.952 16.2933 212.032 16.08C212.139 15.8667 212.379 15.76 212.752 15.76H213.632L220.192 7.44C220.645 6.85333 220.885 6.2 220.912 5.48C220.965 4.73333 220.792 4.09333 220.392 3.56L219.952 2.92L220.672 2.28H227.552L227.992 3.64L227.072 3.88C226.485 3.98667 225.952 4.21333 225.472 4.56C224.992 4.88 224.485 5.37333 223.952 6.04L215.872 16.36C217.152 16.6 218.219 17.0667 219.072 17.76C219.952 18.4533 220.712 19.44 221.352 20.72L225.152 28.16C225.365 28.5333 225.592 28.8267 225.832 29.04C226.072 29.2533 226.365 29.36 226.712 29.36C226.979 29.36 227.232 29.32 227.472 29.24C227.739 29.16 228.005 29.0133 228.272 28.8L228.912 29.96C228.352 30.5467 227.752 30.96 227.112 31.2C226.472 31.44 225.792 31.56 225.072 31.56ZM192.912 31.56C192.192 31.56 191.512 31.44 190.872 31.2C190.232 30.96 189.632 30.5467 189.072 29.96L189.712 28.8C190.005 29.0133 190.272 29.16 190.512 29.24C190.752 29.32 191.005 29.36 191.272 29.36C191.645 29.36 191.952 29.2533 192.192 29.04C192.432 28.8267 192.645 28.5333 192.832 28.16L196.632 20.72C197.272 19.44 198.019 18.4533 198.872 17.76C199.752 17.0667 200.832 16.6 202.112 16.36L194.032 6.04C193.525 5.37333 193.019 4.88 192.512 4.56C192.032 4.21333 191.499 3.98667 190.912 3.88L189.992 3.64L190.432 2.28H197.312L198.032 2.92L197.592 3.56C197.192 4.09333 197.005 4.73333 197.032 5.48C197.085 6.2 197.339 6.85333 197.792 7.44L204.352 15.76H205.232C205.605 15.76 205.832 15.8667 205.912 16.08C206.019 16.2933 206.072 16.5067 206.072 16.72C206.072 16.8 206.059 16.8933 206.032 17C206.005 17.08 205.952 17.1333 205.872 17.16C204.965 17.4533 204.179 17.84 203.512 18.32C202.872 18.8 202.325 19.48 201.872 20.36L198.272 27.64C197.632 28.92 196.885 29.8933 196.032 30.56C195.205 31.2267 194.165 31.56 192.912 31.56ZM204.872 31L204.432 29.64L205.272 29.4C205.965 29.1067 206.432 28.7333 206.672 28.28C206.912 27.8267 207.032 26.96 207.032 25.68V7.6C207.032 6.34667 206.939 5.48 206.752 5C206.592 4.52 206.245 4.14667 205.712 3.88L204.872 3.64L205.272 2.28H212.392L212.872 2.92L212.392 3.64C211.885 4.52 211.525 5.45333 211.312 6.44C211.099 7.42667 210.992 8.72 210.992 10.32V25.96C210.992 27.1333 211.099 27.9467 211.312 28.4C211.525 28.8267 211.939 29.1867 212.552 29.48L213.392 29.72L212.952 31H204.872ZM230.217 31L229.737 29.64L230.697 29.4C231.364 29.1867 231.884 28.96 232.257 28.72C232.63 28.48 232.884 28.1333 233.017 27.68C233.177 27.2 233.257 26.5333 233.257 25.68V7.6C233.257 6.34667 233.084 5.48 232.737 5C232.39 4.52 231.71 4.14667 230.697 3.88L229.737 3.64L230.217 2.28H239.017L239.537 2.92L239.017 3.64C238.35 4.52 237.884 5.45333 237.617 6.44C237.35 7.42667 237.217 8.72 237.217 10.32V21.92L250.697 7.28C250.67 6.16 250.47 5.37333 250.097 4.92C249.75 4.46667 249.097 4.12 248.137 3.88L247.257 3.64L247.737 2.28H256.457L257.057 2.92L256.457 3.64C255.764 4.49333 255.284 5.42667 255.017 6.44C254.75 7.42667 254.617 8.72 254.617 10.32V25.96C254.617 27.1333 254.79 27.9467 255.137 28.4C255.484 28.8533 256.15 29.2133 257.137 29.48L257.937 29.72L257.537 31H247.737L247.257 29.64L248.137 29.4C249.15 29.1333 249.83 28.7733 250.177 28.32C250.524 27.84 250.697 26.96 250.697 25.68V10.52L237.217 25.2V25.96C237.217 27.1333 237.377 27.9467 237.697 28.4C238.044 28.8267 238.684 29.1867 239.617 29.48L240.457 29.72L240.057 31H230.217ZM268.795 31.56C267.195 31.56 265.688 31.32 264.275 30.84C262.861 30.36 261.701 29.64 260.795 28.68C259.915 27.72 259.475 26.52 259.475 25.08C259.475 23.8267 259.861 22.8133 260.635 22.04C261.408 21.2667 262.368 20.88 263.515 20.88C263.808 20.88 264.021 20.9067 264.155 20.96C264.288 20.9867 264.355 21.12 264.355 21.36C264.355 21.5467 264.195 21.8933 263.875 22.4C263.581 22.9067 263.435 23.6933 263.435 24.76C263.435 26.1733 263.861 27.28 264.715 28.08C265.568 28.88 266.888 29.28 268.675 29.28C270.621 29.28 272.141 28.76 273.235 27.72C274.328 26.68 274.875 25.2267 274.875 23.36C274.875 22.1867 274.661 21.1067 274.235 20.12C273.808 19.1067 273.128 18.2933 272.195 17.68C271.288 17.0667 270.088 16.76 268.595 16.76C267.928 16.76 267.421 16.8 267.075 16.88C266.728 16.96 266.435 17 266.195 17C265.875 17 265.715 16.7333 265.715 16.2C265.715 15.8 265.901 15.52 266.275 15.36C266.648 15.1733 267.248 15 268.075 14.84C269.568 14.5467 270.701 14.1333 271.475 13.6C272.248 13.04 272.768 12.3733 273.035 11.6C273.328 10.8 273.475 9.92 273.475 8.96C273.475 7.38667 273.048 6.16 272.195 5.28C271.341 4.4 270.208 3.96 268.795 3.96C267.675 3.96 266.688 4.10666 265.835 4.4C265.008 4.69333 264.301 5.22667 263.715 6C263.155 6.74667 262.701 7.85333 262.355 9.32L262.155 10.2L260.835 9.76V1.8L261.475 1.32L262.155 1.8C262.395 1.98667 262.635 2.12 262.875 2.2C263.141 2.25333 263.408 2.28 263.675 2.28C264.341 2.28 265.088 2.18666 265.915 2C266.768 1.81333 267.901 1.72 269.315 1.72C270.808 1.72 272.195 1.97333 273.475 2.48C274.781 2.98667 275.835 3.76 276.635 4.8C277.435 5.84 277.835 7.16 277.835 8.76C277.835 10.3867 277.341 11.76 276.355 12.88C275.368 14 273.955 14.88 272.115 15.52C274.755 16.08 276.595 17.04 277.635 18.4C278.701 19.76 279.235 21.5067 279.235 23.64C279.235 25.1867 278.795 26.56 277.915 27.76C277.061 28.96 275.848 29.8933 274.275 30.56C272.728 31.2267 270.901 31.56 268.795 31.56ZM282.275 31L281.795 29.64L282.715 29.4C283.729 29.1067 284.409 28.72 284.755 28.24C285.102 27.76 285.275 26.9067 285.275 25.68V7.6C285.275 6.34667 285.102 5.49333 284.755 5.04C284.409 4.56 283.729 4.17333 282.715 3.88L281.795 3.64L282.275 2.28H291.035L291.555 2.92L291.035 3.64C290.369 4.52 289.902 5.45333 289.635 6.44C289.369 7.4 289.235 8.69333 289.235 10.32V15.2H302.315V7.6C302.315 6.34667 302.142 5.49333 301.795 5.04C301.449 4.56 300.769 4.17333 299.755 3.88L298.835 3.64L299.315 2.28H308.075L308.595 2.92L308.075 3.64C307.409 4.52 306.942 5.45333 306.675 6.44C306.409 7.4 306.275 8.69333 306.275 10.32V25.96C306.275 27.1333 306.435 27.9467 306.755 28.4C307.102 28.8267 307.755 29.1867 308.715 29.48L309.555 29.72L309.115 31H299.315L298.835 29.64L299.755 29.4C300.769 29.1067 301.449 28.72 301.795 28.24C302.142 27.76 302.315 26.9067 302.315 25.68V17.64H289.235V25.96C289.235 27.1333 289.395 27.9467 289.715 28.4C290.062 28.8267 290.715 29.1867 291.675 29.48L292.515 29.72L292.075 31H282.275ZM313.447 31L312.967 29.64L313.927 29.4C314.914 29.1333 315.581 28.76 315.927 28.28C316.274 27.7733 316.447 26.9067 316.447 25.68V7.6C316.447 6.4 316.274 5.54666 315.927 5.04C315.581 4.53333 314.914 4.14667 313.927 3.88L312.967 3.64L313.447 2.28H322.247L322.767 2.92L322.247 3.64C321.581 4.54667 321.101 5.49333 320.807 6.48C320.541 7.44 320.407 8.72 320.407 10.32V23.68C320.407 24.9333 320.554 25.92 320.847 26.64C321.167 27.36 321.567 27.88 322.047 28.2C322.527 28.52 323.021 28.72 323.527 28.8C324.034 28.88 324.474 28.92 324.847 28.92C326.767 28.92 328.247 28.3067 329.287 27.08C330.327 25.8533 330.847 24.2933 330.847 22.4C330.847 21.2533 330.581 20.2133 330.047 19.28C329.514 18.3467 328.767 17.6 327.807 17.04C326.874 16.48 325.767 16.2 324.487 16.2C323.661 16.2 323.074 16.2667 322.727 16.4C322.381 16.5067 322.087 16.56 321.847 16.56C321.661 16.56 321.514 16.4667 321.407 16.28C321.327 16.0933 321.287 15.88 321.287 15.64C321.287 15.1333 321.687 14.7733 322.487 14.56C323.287 14.3467 324.181 14.24 325.167 14.24C327.194 14.24 328.941 14.6267 330.407 15.4C331.874 16.1733 333.007 17.2 333.807 18.48C334.607 19.7333 335.007 21.1067 335.007 22.6C335.007 24.2267 334.674 25.68 334.007 26.96C333.341 28.2133 332.247 29.2 330.727 29.92C329.207 30.64 327.167 31 324.607 31H313.447ZM348.234 20.92C348.234 20.44 348.314 19.9333 348.474 19.4C348.634 18.84 348.901 18.4133 349.274 18.12L359.794 17.72C359.794 18.2 359.714 18.72 359.554 19.28C359.421 19.8133 359.154 20.2267 358.754 20.52L348.234 20.92ZM373.388 31L372.868 30.36L373.388 29.64C374.055 28.76 374.522 27.84 374.788 26.88C375.082 25.8933 375.228 24.5867 375.228 22.96V10.32C375.228 8.72 375.082 7.42667 374.788 6.44C374.522 5.45333 374.055 4.52 373.388 3.64L372.868 2.92L373.388 2.28H396.828L397.348 2.92L396.828 3.64C396.162 4.52 395.682 5.45333 395.388 6.44C395.122 7.42667 394.988 8.72 394.988 10.32V25.96C394.988 27.1333 395.148 27.9467 395.468 28.4C395.815 28.8267 396.468 29.1867 397.428 29.48L398.308 29.72L397.868 31H388.108L387.588 29.64L388.468 29.4C389.162 29.1867 389.695 28.96 390.068 28.72C390.442 28.48 390.695 28.1333 390.828 27.68C390.988 27.2 391.068 26.5333 391.068 25.68V7.6C391.068 6.34667 390.895 5.52 390.548 5.12C390.228 4.72 389.535 4.52 388.468 4.52H381.708C380.668 4.52 379.975 4.72 379.628 5.12C379.308 5.52 379.148 6.34667 379.148 7.6V25.68C379.148 26.5333 379.215 27.2 379.348 27.68C379.508 28.1333 379.775 28.48 380.148 28.72C380.522 28.96 381.042 29.1867 381.708 29.4L382.668 29.64L382.188 31H373.388ZM413.663 31.56C410.677 31.56 408.197 30.8933 406.223 29.56C404.277 28.2267 402.823 26.44 401.863 24.2C400.903 21.9333 400.423 19.4267 400.423 16.68C400.423 14.6267 400.69 12.6933 401.223 10.88C401.757 9.06667 402.57 7.48 403.663 6.12C404.783 4.73333 406.17 3.65333 407.823 2.88C409.477 2.10667 411.423 1.72 413.663 1.72C415.903 1.72 417.85 2.10667 419.503 2.88C421.157 3.65333 422.53 4.73333 423.623 6.12C424.743 7.48 425.57 9.06667 426.103 10.88C426.663 12.6933 426.943 14.6267 426.943 16.68C426.943 19.4267 426.45 21.9333 425.463 24.2C424.503 26.44 423.037 28.2267 421.063 29.56C419.117 30.8933 416.65 31.56 413.663 31.56ZM413.503 29.2C415.423 29.2 417.063 28.6533 418.423 27.56C419.783 26.44 420.81 24.9467 421.503 23.08C422.223 21.1867 422.583 19.0933 422.583 16.8C422.583 15.8133 422.49 14.7467 422.303 13.6C422.143 12.4267 421.863 11.28 421.463 10.16C421.063 9.01333 420.53 7.98667 419.863 7.08C419.197 6.14667 418.37 5.4 417.383 4.84C416.397 4.28 415.223 4 413.863 4C411.917 4 410.263 4.6 408.903 5.8C407.543 6.97333 406.503 8.54667 405.783 10.52C405.09 12.4667 404.743 14.6267 404.743 17C404.743 19.2667 405.063 21.32 405.703 23.16C406.37 25 407.357 26.4667 408.663 27.56C409.97 28.6533 411.583 29.2 413.503 29.2ZM429.759 38.72L428.399 38.24V29.28C430.106 29.04 431.466 28.3733 432.479 27.28C433.493 26.1867 434.266 24.6933 434.799 22.8C435.359 20.9067 435.773 18.6533 436.039 16.04C436.333 13.4267 436.586 10.48 436.799 7.2C436.853 6.10667 436.613 5.33333 436.079 4.88C435.573 4.4 434.933 4.06667 434.159 3.88L433.279 3.64L433.759 2.28H453.279L453.719 2.92L453.279 3.64C452.613 4.52 452.133 5.45333 451.839 6.44C451.546 7.42667 451.399 8.72 451.399 10.32V26.8C451.399 27.3867 451.613 27.8667 452.039 28.24C452.466 28.6133 453.013 28.8933 453.679 29.08C454.346 29.24 455.039 29.32 455.759 29.32V38.24L454.399 38.72L454.159 37.76C453.786 36.3467 453.373 35.1333 452.919 34.12C452.466 33.1067 451.866 32.3333 451.119 31.8C450.399 31.2667 449.426 31 448.199 31H435.959C434.759 31 433.786 31.2667 433.039 31.8C432.319 32.3333 431.719 33.1067 431.239 34.12C430.786 35.1333 430.359 36.3467 429.959 37.76L429.759 38.72ZM433.919 28.72H444.879C445.946 28.72 446.639 28.5333 446.959 28.16C447.306 27.7867 447.479 26.96 447.479 25.68V7.6C447.479 6.34667 447.306 5.52 446.959 5.12C446.639 4.72 445.946 4.52 444.879 4.52H442.439C441.693 4.52 441.093 4.62666 440.639 4.84C440.186 5.02667 439.933 5.45333 439.879 6.12C439.453 12.6267 438.799 17.7467 437.919 21.48C437.039 25.2133 435.706 27.6267 433.919 28.72ZM457.71 31L457.23 29.64L458.15 29.4C459.163 29.1067 459.843 28.72 460.19 28.24C460.536 27.76 460.71 26.9067 460.71 25.68V5.92C460.71 5.28 460.416 4.96 459.83 4.96H457.51L457.03 3.48C457.723 3.21333 458.603 2.94667 459.67 2.68C460.763 2.41333 461.936 2.18666 463.19 2C464.47 1.81333 465.723 1.72 466.95 1.72C469.536 1.72 471.616 2.08 473.19 2.8C474.79 3.49333 475.95 4.44 476.67 5.64C477.416 6.84 477.79 8.16 477.79 9.6C477.79 11.0133 477.443 12.3333 476.75 13.56C476.083 14.7867 475.03 15.7467 473.59 16.44C475.403 17.0267 476.803 17.9333 477.79 19.16C478.776 20.36 479.27 21.68 479.27 23.12C479.27 24.64 478.923 26 478.23 27.2C477.563 28.3733 476.47 29.3067 474.95 30C473.43 30.6667 471.403 31 468.87 31H457.71ZM469.11 28.92C471.03 28.92 472.51 28.36 473.55 27.24C474.59 26.0933 475.11 24.6533 475.11 22.92C475.11 21.9067 474.856 20.9867 474.35 20.16C473.843 19.3067 473.11 18.6267 472.15 18.12C471.216 17.6133 470.083 17.36 468.75 17.36C468.27 17.36 467.79 17.3067 467.31 17.2C466.83 17.0933 466.443 16.9733 466.15 16.84C465.936 16.7333 465.776 16.6 465.67 16.44C465.59 16.28 465.55 16.12 465.55 15.96C465.55 15.48 465.736 15.24 466.11 15.24C466.27 15.24 466.483 15.2933 466.75 15.4C467.043 15.48 467.496 15.52 468.11 15.52C469.95 15.52 471.363 14.9733 472.35 13.88C473.336 12.7867 473.83 11.3867 473.83 9.68C473.83 8.05333 473.283 6.69333 472.19 5.6C471.096 4.50666 469.483 3.96 467.35 3.96C466.55 3.96 465.963 4.06666 465.59 4.28C465.216 4.46667 464.963 4.70667 464.83 5C464.723 5.29333 464.67 5.56 464.67 5.8V23.68C464.67 24.9333 464.816 25.92 465.11 26.64C465.43 27.3333 465.83 27.8533 466.31 28.2C466.79 28.52 467.27 28.72 467.75 28.8C468.256 28.88 468.71 28.92 469.11 28.92ZM482.404 31L481.924 29.64L482.884 29.4C483.551 29.1867 484.071 28.96 484.444 28.72C484.818 28.48 485.071 28.1333 485.204 27.68C485.364 27.2 485.444 26.5333 485.444 25.68V7.6C485.444 6.34667 485.271 5.48 484.924 5C484.578 4.52 483.898 4.14667 482.884 3.88L481.924 3.64L482.404 2.28H491.204L491.724 2.92L491.204 3.64C490.538 4.52 490.071 5.45333 489.804 6.44C489.538 7.42667 489.404 8.72 489.404 10.32V21.92L502.884 7.28C502.858 6.16 502.658 5.37333 502.284 4.92C501.938 4.46667 501.284 4.12 500.324 3.88L499.444 3.64L499.924 2.28H508.644L509.244 2.92L508.644 3.64C507.951 4.49333 507.471 5.42667 507.204 6.44C506.938 7.42667 506.804 8.72 506.804 10.32V25.96C506.804 27.1333 506.978 27.9467 507.324 28.4C507.671 28.8533 508.338 29.2133 509.324 29.48L510.124 29.72L509.724 31H499.924L499.444 29.64L500.324 29.4C501.338 29.1333 502.018 28.7733 502.364 28.32C502.711 27.84 502.884 26.96 502.884 25.68V10.52L489.404 25.2V25.96C489.404 27.1333 489.564 27.9467 489.884 28.4C490.231 28.8267 490.871 29.1867 491.804 29.48L492.644 29.72L492.244 31H482.404ZM512.862 31L512.342 30.36L512.862 29.64C513.502 28.7333 513.969 27.8 514.262 26.84C514.556 25.88 514.702 24.5867 514.702 22.96V10.32C514.702 8.72 514.556 7.44 514.262 6.48C513.969 5.49333 513.502 4.54667 512.862 3.64L512.342 2.92L512.862 2.28H524.662C526.902 2.28 528.409 2.01333 529.182 1.48L529.942 0.959998L530.582 1.48V8.56L529.182 9.04L528.982 8.12C528.769 7.13333 528.502 6.38667 528.182 5.88C527.862 5.37333 527.422 5.02667 526.862 4.84C526.329 4.62666 525.582 4.52 524.622 4.52H521.182C520.142 4.52 519.449 4.72 519.102 5.12C518.782 5.52 518.622 6.34667 518.622 7.6V25.68C518.622 26.5333 518.689 27.2 518.822 27.68C518.982 28.1333 519.249 28.48 519.622 28.72C519.996 28.96 520.516 29.1867 521.182 29.4L522.142 29.64L521.662 31H512.862ZM532.534 35.92L531.374 35.16L533.214 31.56C533.534 30.92 533.694 30.3733 533.694 29.92C533.694 29.3867 533.387 28.8933 532.774 28.44L532.054 27.96L531.854 27L532.534 26.72C532.907 26.5867 533.28 26.48 533.654 26.4C534.054 26.2933 534.427 26.24 534.774 26.24C535.494 26.24 536.107 26.44 536.614 26.84C537.12 27.24 537.374 27.9333 537.374 28.92C537.374 29.7467 537.054 30.5867 536.414 31.44C535.8 32.2933 535.027 33.2267 534.094 34.24L532.534 35.92Z" fill="#655D54"/>
</svg>
