<svg width="163" height="36" viewBox="0 0 163 36" fill="none" xmlns="http://www.w3.org/2000/svg">
<path d="M33.2783 36H23.7324C23.0651 34.112 22.4141 32.3949 21.7793 30.8486C21.1445 29.2861 20.4935 27.7725 19.8262 26.3076C18.7357 23.8499 17.6289 22.1898 16.5059 21.3271C15.3991 20.4645 13.9017 20.0332 12.0137 20.0332H10.2314V31.1172C10.2314 31.6543 10.3291 32.1344 10.5244 32.5576C10.736 32.9808 11.1104 33.3226 11.6475 33.583C11.9079 33.6969 12.388 33.8353 13.0879 33.998C13.804 34.1608 14.3981 34.2503 14.8701 34.2666V36H0.490234V34.2666C0.864583 34.234 1.40983 34.1852 2.12598 34.1201C2.84212 34.055 3.34668 33.9574 3.63965 33.8271C4.12793 33.6156 4.47786 33.3063 4.68945 32.8994C4.91732 32.4762 5.03125 31.9717 5.03125 31.3857V6.38574C5.03125 5.83236 4.93359 5.35221 4.73828 4.94531C4.55924 4.53841 4.19303 4.20475 3.63965 3.94434C3.2002 3.73275 2.67936 3.54557 2.07715 3.38281C1.47493 3.22005 0.945964 3.1224 0.490234 3.08984V1.35645H14.8701V3.08984C14.4144 3.10612 13.8447 3.17936 13.1611 3.30957C12.4775 3.43978 11.973 3.56185 11.6475 3.67578C11.0941 3.87109 10.7197 4.19661 10.5244 4.65234C10.3291 5.10807 10.2314 5.60449 10.2314 6.1416V18.0068H12.502C13.1042 18.0068 13.6901 17.8766 14.2598 17.6162C14.8457 17.3558 15.3828 16.9733 15.8711 16.4688C16.571 15.7526 17.1325 14.8818 17.5557 13.8564C17.9788 12.8148 18.4346 11.5615 18.9229 10.0967C19.3786 8.74577 19.8506 7.49251 20.3389 6.33691C20.8271 5.18132 21.5433 4.11523 22.4873 3.13867C23.1221 2.48763 23.8708 1.97493 24.7334 1.60059C25.596 1.22624 26.5319 1.03906 27.541 1.03906C28.2409 1.03906 28.8512 1.12858 29.3721 1.30762C29.8929 1.47038 30.3324 1.70638 30.6904 2.01562C31.016 2.29232 31.2601 2.61784 31.4229 2.99219C31.5856 3.36654 31.667 3.77344 31.667 4.21289C31.667 4.57096 31.61 4.9209 31.4961 5.2627C31.3984 5.60449 31.252 5.88932 31.0566 6.11719C30.8288 6.39388 30.5765 6.61361 30.2998 6.77637C30.0231 6.92285 29.6325 6.99609 29.1279 6.99609C28.5908 6.99609 28.1188 6.90658 27.7119 6.72754C27.3213 6.5485 26.9795 6.30436 26.6865 5.99512C26.3936 5.68587 26.125 5.3278 25.8809 4.9209C25.653 4.49772 25.4333 4.07454 25.2217 3.65137C24.766 3.96061 24.3753 4.3431 24.0498 4.79883C23.7406 5.25456 23.4639 5.74284 23.2197 6.26367C22.9756 6.78451 22.7559 7.33789 22.5605 7.92383C22.3815 8.50977 22.1699 9.16081 21.9258 9.87695C21.7305 10.4792 21.5026 11.1546 21.2422 11.9033C20.9818 12.6357 20.6807 13.3193 20.3389 13.9541C19.9808 14.6377 19.5576 15.3213 19.0693 16.0049C18.5973 16.6885 18.0277 17.3314 17.3604 17.9336V18.2754C19.167 18.7799 20.6644 19.5856 21.8525 20.6924C23.057 21.7992 24.0661 23.2233 24.8799 24.9648C25.3356 25.9577 25.832 27.0319 26.3691 28.1875C26.9225 29.3268 27.3783 30.2952 27.7363 31.0928C28.2409 32.1833 28.7292 32.9157 29.2012 33.29C29.6732 33.6481 30.1533 33.8678 30.6416 33.9492C31.0648 34.0143 31.5205 34.0794 32.0088 34.1445C32.4971 34.1934 32.9202 34.234 33.2783 34.2666V36ZM67.458 36H53.0293V34.2666C54.2988 34.1852 55.3486 34.0225 56.1787 33.7783C57.0251 33.5342 57.4482 33.2331 57.4482 32.875C57.4482 32.7285 57.432 32.5495 57.3994 32.3379C57.3669 32.1263 57.318 31.9391 57.2529 31.7764L54.3721 24.0127H42.2383C41.7826 25.152 41.4082 26.1449 41.1152 26.9912C40.8385 27.8376 40.5863 28.6188 40.3584 29.335C40.1468 30.0348 40.0003 30.6045 39.9189 31.0439C39.8376 31.4834 39.7969 31.8415 39.7969 32.1182C39.7969 32.7692 40.3096 33.2738 41.335 33.6318C42.3604 33.9899 43.516 34.2015 44.8018 34.2666V36H31.7646V34.2666C32.1878 34.234 32.7168 34.1445 33.3516 33.998C33.9863 33.8353 34.5072 33.6237 34.9141 33.3633C35.5651 32.9238 36.0697 32.4681 36.4277 31.9961C36.7858 31.5078 37.1357 30.8405 37.4775 29.9941C39.2191 25.6484 41.1396 20.7656 43.2393 15.3457C45.3389 9.92578 47.2106 5.09993 48.8545 0.868164H50.8076L62.3555 30.751C62.5996 31.3857 62.8763 31.8984 63.1855 32.2891C63.4948 32.6797 63.9261 33.0622 64.4795 33.4365C64.8538 33.6644 65.3421 33.8597 65.9443 34.0225C66.5465 34.1689 67.0511 34.2503 67.458 34.2666V36ZM53.4932 21.8398L48.2441 8.41211L43.0928 21.8398H53.4932ZM95.2168 9.90137C95.2168 11.708 94.8587 13.3112 94.1426 14.7109C93.4427 16.0944 92.4661 17.2419 91.2129 18.1533C89.9759 19.0648 88.6169 19.7321 87.1357 20.1553C85.6546 20.5785 84.084 20.79 82.4238 20.79H78.542V31.2881C78.542 31.8577 78.6315 32.3623 78.8105 32.8018C79.0059 33.2249 79.3965 33.5505 79.9824 33.7783C80.2754 33.8923 80.7881 33.998 81.5205 34.0957C82.2692 34.1934 82.9528 34.2503 83.5713 34.2666V36H68.7031V34.2666C69.0938 34.234 69.6553 34.1771 70.3877 34.0957C71.1364 34.0143 71.6572 33.9085 71.9502 33.7783C72.4385 33.5667 72.7884 33.2575 73 32.8506C73.2279 32.4437 73.3418 31.9229 73.3418 31.2881V6.28809C73.3418 5.71842 73.2604 5.20573 73.0977 4.75C72.9349 4.29427 72.5524 3.95247 71.9502 3.72461C71.3317 3.51302 70.7132 3.36654 70.0947 3.28516C69.4925 3.1875 68.9717 3.1224 68.5322 3.08984V1.35645H84.3525C87.5752 1.35645 90.1875 2.1377 92.1895 3.7002C94.2077 5.24642 95.2168 7.31348 95.2168 9.90137ZM87.7949 15.8096C88.3483 15.0283 88.7145 14.2227 88.8936 13.3926C89.0726 12.5462 89.1621 11.7894 89.1621 11.1221C89.1621 10.1943 89.0482 9.25033 88.8203 8.29004C88.6087 7.32975 88.2344 6.49154 87.6973 5.77539C87.1276 5.01042 86.3789 4.41634 85.4512 3.99316C84.5234 3.56999 83.3678 3.3584 81.9844 3.3584H78.542V18.666H81.0322C82.79 18.666 84.2142 18.3975 85.3047 17.8604C86.4115 17.307 87.2415 16.6234 87.7949 15.8096ZM127.37 10.7559H125.686C125.539 10.1699 125.271 9.47819 124.88 8.68066C124.506 7.86686 124.082 7.10189 123.61 6.38574C123.122 5.63704 122.585 4.986 121.999 4.43262C121.429 3.86296 120.876 3.53743 120.339 3.45605C119.834 3.39095 119.2 3.34212 118.435 3.30957C117.67 3.27702 116.962 3.26074 116.311 3.26074H114.895V30.9707C114.895 31.5078 115.008 32.0042 115.236 32.46C115.464 32.8994 115.863 33.2412 116.433 33.4854C116.726 33.5993 117.336 33.7539 118.264 33.9492C119.208 34.1445 119.94 34.2503 120.461 34.2666V36H104.104V34.2666C104.559 34.234 105.251 34.1689 106.179 34.0713C107.123 33.9736 107.774 33.8516 108.132 33.7051C108.669 33.4935 109.06 33.1924 109.304 32.8018C109.564 32.3949 109.694 31.8577 109.694 31.1904V3.26074H108.278C107.774 3.26074 107.147 3.27702 106.398 3.30957C105.65 3.32585 104.934 3.37467 104.25 3.45605C103.713 3.52116 103.151 3.84668 102.565 4.43262C101.996 5.00228 101.467 5.65332 100.979 6.38574C100.49 7.11816 100.059 7.89941 99.6846 8.72949C99.3102 9.54329 99.0498 10.2188 98.9033 10.7559H97.1943V1.35645H127.37V10.7559ZM162.478 36H148.049V34.2666C149.318 34.1852 150.368 34.0225 151.198 33.7783C152.045 33.5342 152.468 33.2331 152.468 32.875C152.468 32.7285 152.451 32.5495 152.419 32.3379C152.386 32.1263 152.338 31.9391 152.272 31.7764L149.392 24.0127H137.258C136.802 25.152 136.428 26.1449 136.135 26.9912C135.858 27.8376 135.606 28.6188 135.378 29.335C135.166 30.0348 135.02 30.6045 134.938 31.0439C134.857 31.4834 134.816 31.8415 134.816 32.1182C134.816 32.7692 135.329 33.2738 136.354 33.6318C137.38 33.9899 138.535 34.2015 139.821 34.2666V36H126.784V34.2666C127.207 34.234 127.736 34.1445 128.371 33.998C129.006 33.8353 129.527 33.6237 129.934 33.3633C130.585 32.9238 131.089 32.4681 131.447 31.9961C131.805 31.5078 132.155 30.8405 132.497 29.9941C134.239 25.6484 136.159 20.7656 138.259 15.3457C140.358 9.92578 142.23 5.09993 143.874 0.868164H145.827L157.375 30.751C157.619 31.3857 157.896 31.8984 158.205 32.2891C158.514 32.6797 158.946 33.0622 159.499 33.4365C159.873 33.6644 160.362 33.8597 160.964 34.0225C161.566 34.1689 162.071 34.2503 162.478 34.2666V36ZM148.513 21.8398L143.264 8.41211L138.112 21.8398H148.513Z" fill="#655D54"/>
</svg>
