<svg width="189" height="14" viewBox="0 0 189 14" fill="none" xmlns="http://www.w3.org/2000/svg">
<path d="M7.756 11.196C7.31733 11.196 6.94867 11.0793 6.65 10.846C6.36067 10.6033 6.10867 10.2627 5.894 9.824L4.62 7.276C4.47067 6.968 4.27933 6.73 4.046 6.562C3.81267 6.394 3.53733 6.25867 3.22 6.156C3.17333 6.13733 3.15 6.086 3.15 6.002C3.15 5.92733 3.16867 5.85267 3.206 5.778C3.24333 5.70333 3.32267 5.666 3.444 5.666H3.766L6.048 2.754C6.20667 2.558 6.29067 2.32933 6.3 2.068C6.31867 1.80667 6.258 1.58267 6.118 1.396L5.964 1.172L6.216 0.947999H8.624L8.792 1.424L8.456 1.508C8.25067 1.54533 8.064 1.62467 7.896 1.746C7.728 1.858 7.55067 2.03067 7.364 2.264L4.536 5.876C4.99333 5.96 5.37133 6.12333 5.67 6.366C5.96867 6.60867 6.23467 6.954 6.468 7.402L7.784 10.006C7.85867 10.1367 7.938 10.2393 8.022 10.314C8.106 10.3887 8.20867 10.426 8.33 10.426C8.42333 10.426 8.512 10.412 8.596 10.384C8.68933 10.356 8.78267 10.3047 8.876 10.23L9.1 10.636C8.904 10.8413 8.694 10.986 8.47 11.07C8.246 11.154 8.008 11.196 7.756 11.196ZM0.378 11L0.21 10.524L0.546 10.44C0.779333 10.3653 0.961333 10.286 1.092 10.202C1.22267 10.118 1.31133 9.99667 1.358 9.838C1.414 9.67 1.442 9.43667 1.442 9.138V2.81C1.442 2.37133 1.38133 2.068 1.26 1.9C1.13867 1.732 0.900667 1.60133 0.546 1.508L0.21 1.424L0.378 0.947999H3.458L3.64 1.172L3.458 1.424C3.22467 1.732 3.06133 2.05867 2.968 2.404C2.87467 2.74933 2.828 3.202 2.828 3.762V9.236C2.828 9.64667 2.884 9.93133 2.996 10.09C3.11733 10.2393 3.34133 10.3653 3.668 10.468L3.962 10.552L3.822 11H0.378ZM9.18619 11L9.01819 10.524L9.34019 10.44C9.59219 10.3747 9.79285 10.2953 9.94219 10.202C10.0915 10.1087 10.2175 9.98267 10.3202 9.824C10.4322 9.656 10.5349 9.42733 10.6282 9.138L12.8262 2.81C12.8729 2.66067 12.9102 2.53467 12.9382 2.432C12.9662 2.32 12.9802 2.21733 12.9802 2.124C12.9802 1.94667 12.9289 1.816 12.8262 1.732C12.7235 1.63867 12.5649 1.564 12.3502 1.508L12.0282 1.424L12.1962 0.947999H14.8982L17.7122 9.068C17.8242 9.376 17.9362 9.628 18.0482 9.824C18.1695 10.02 18.3049 10.188 18.4542 10.328C18.6035 10.468 18.7762 10.6173 18.9722 10.776L18.7902 11H15.6402L15.4722 10.524L15.7942 10.44C16.0089 10.384 16.1675 10.314 16.2702 10.23C16.3729 10.1367 16.4242 10.0013 16.4242 9.824C16.4242 9.73067 16.4102 9.63267 16.3822 9.53C16.3542 9.418 16.3169 9.28733 16.2702 9.138L15.5982 7.178H12.3642L12.0282 8.2C11.9255 8.51733 11.8462 8.79267 11.7902 9.026C11.7342 9.25933 11.7062 9.474 11.7062 9.67C11.7062 9.98733 11.7715 10.272 11.9022 10.524L12.0282 10.776L11.7622 11H9.18619ZM12.6582 6.31H15.3042L13.9602 2.39L12.6582 6.31ZM31.867 11.196C31.4283 11.196 31.0596 11.0793 30.761 10.846C30.4716 10.6127 30.215 10.272 29.991 9.824L28.731 7.276C28.5816 6.968 28.3903 6.73 28.157 6.562C27.9236 6.394 27.6483 6.25867 27.331 6.156C27.303 6.14667 27.2843 6.128 27.275 6.1C27.2656 6.06267 27.261 6.03 27.261 6.002C27.261 5.92733 27.275 5.85267 27.303 5.778C27.3403 5.70333 27.4243 5.666 27.555 5.666H27.863L30.159 2.754C30.3176 2.54867 30.4016 2.32 30.411 2.068C30.4296 1.80667 30.369 1.58267 30.229 1.396L30.075 1.172L30.327 0.947999H32.735L32.889 1.424L32.567 1.508C32.3616 1.54533 32.175 1.62467 32.007 1.746C31.839 1.858 31.6616 2.03067 31.475 2.264L28.647 5.876C29.095 5.96 29.4683 6.12333 29.767 6.366C30.075 6.60867 30.341 6.954 30.565 7.402L31.895 10.006C31.9696 10.1367 32.049 10.2393 32.133 10.314C32.217 10.3887 32.3196 10.426 32.441 10.426C32.5343 10.426 32.623 10.412 32.707 10.384C32.8003 10.356 32.8936 10.3047 32.987 10.23L33.211 10.636C33.015 10.8413 32.805 10.986 32.581 11.07C32.357 11.154 32.119 11.196 31.867 11.196ZM20.611 11.196C20.359 11.196 20.121 11.154 19.897 11.07C19.673 10.986 19.463 10.8413 19.267 10.636L19.491 10.23C19.5936 10.3047 19.687 10.356 19.771 10.384C19.855 10.412 19.9436 10.426 20.037 10.426C20.1676 10.426 20.275 10.3887 20.359 10.314C20.443 10.2393 20.5176 10.1367 20.583 10.006L21.913 7.402C22.137 6.954 22.3983 6.60867 22.697 6.366C23.005 6.12333 23.383 5.96 23.831 5.876L21.003 2.264C20.8256 2.03067 20.6483 1.858 20.471 1.746C20.303 1.62467 20.1163 1.54533 19.911 1.508L19.589 1.424L19.743 0.947999H22.151L22.403 1.172L22.249 1.396C22.109 1.58267 22.0436 1.80667 22.053 2.068C22.0716 2.32 22.1603 2.54867 22.319 2.754L24.615 5.666H24.923C25.0536 5.666 25.133 5.70333 25.161 5.778C25.1983 5.85267 25.217 5.92733 25.217 6.002C25.217 6.03 25.2123 6.06267 25.203 6.1C25.1936 6.128 25.175 6.14667 25.147 6.156C24.8296 6.25867 24.5543 6.394 24.321 6.562C24.097 6.73 23.9056 6.968 23.747 7.276L22.487 9.824C22.263 10.272 22.0016 10.6127 21.703 10.846C21.4136 11.0793 21.0496 11.196 20.611 11.196ZM24.797 11L24.643 10.524L24.937 10.44C25.1796 10.3373 25.343 10.2067 25.427 10.048C25.511 9.88933 25.553 9.586 25.553 9.138V2.81C25.553 2.37133 25.5203 2.068 25.455 1.9C25.399 1.732 25.2776 1.60133 25.091 1.508L24.797 1.424L24.937 0.947999H27.429L27.597 1.172L27.429 1.424C27.2516 1.732 27.1256 2.05867 27.051 2.404C26.9763 2.74933 26.939 3.202 26.939 3.762V9.236C26.939 9.64667 26.9763 9.93133 27.051 10.09C27.1256 10.2393 27.2703 10.3653 27.485 10.468L27.779 10.552L27.625 11H24.797ZM33.8357 13.702L33.3597 13.534V10.398C33.957 10.314 34.433 10.0807 34.7877 9.698C35.1424 9.31533 35.413 8.79267 35.5997 8.13C35.7957 7.46733 35.9404 6.67867 36.0337 5.764C36.1364 4.84933 36.225 3.818 36.2997 2.67C36.3184 2.28733 36.2344 2.01667 36.0477 1.858C35.8704 1.69 35.6464 1.57333 35.3757 1.508L35.0677 1.424L35.2357 0.947999H42.0677L42.2217 1.172L42.0677 1.424C41.8344 1.732 41.6664 2.05867 41.5637 2.404C41.461 2.74933 41.4097 3.202 41.4097 3.762V9.53C41.4097 9.73533 41.4844 9.90333 41.6337 10.034C41.783 10.1647 41.9744 10.2627 42.2077 10.328C42.441 10.384 42.6837 10.412 42.9357 10.412V13.534L42.4597 13.702L42.3757 13.366C42.245 12.8713 42.1004 12.4467 41.9417 12.092C41.783 11.7373 41.573 11.4667 41.3117 11.28C41.0597 11.0933 40.719 11 40.2897 11H36.0057C35.5857 11 35.245 11.0933 34.9837 11.28C34.7317 11.4667 34.5217 11.7373 34.3537 12.092C34.195 12.4467 34.0457 12.8713 33.9057 13.366L33.8357 13.702ZM35.2917 10.202H39.1277C39.501 10.202 39.7437 10.1367 39.8557 10.006C39.977 9.87533 40.0377 9.586 40.0377 9.138V2.81C40.0377 2.37133 39.977 2.082 39.8557 1.942C39.7437 1.802 39.501 1.732 39.1277 1.732H38.2737C38.0124 1.732 37.8024 1.76933 37.6437 1.844C37.485 1.90933 37.3964 2.05867 37.3777 2.292C37.2284 4.56933 36.9997 6.36133 36.6917 7.668C36.3837 8.97467 35.917 9.81933 35.2917 10.202ZM42.7643 11L42.5963 10.524L42.9183 10.44C43.1703 10.3747 43.371 10.2953 43.5203 10.202C43.6696 10.1087 43.7956 9.98267 43.8983 9.824C44.0103 9.656 44.113 9.42733 44.2063 9.138L46.4043 2.81C46.451 2.66067 46.4883 2.53467 46.5163 2.432C46.5443 2.32 46.5583 2.21733 46.5583 2.124C46.5583 1.94667 46.507 1.816 46.4043 1.732C46.3016 1.63867 46.143 1.564 45.9283 1.508L45.6063 1.424L45.7743 0.947999H48.4763L51.2903 9.068C51.4023 9.376 51.5143 9.628 51.6263 9.824C51.7476 10.02 51.883 10.188 52.0323 10.328C52.1816 10.468 52.3543 10.6173 52.5503 10.776L52.3683 11H49.2183L49.0503 10.524L49.3723 10.44C49.587 10.384 49.7456 10.314 49.8483 10.23C49.951 10.1367 50.0023 10.0013 50.0023 9.824C50.0023 9.73067 49.9883 9.63267 49.9603 9.53C49.9323 9.418 49.895 9.28733 49.8483 9.138L49.1763 7.178H45.9423L45.6063 8.2C45.5036 8.51733 45.4243 8.79267 45.3683 9.026C45.3123 9.25933 45.2843 9.474 45.2843 9.67C45.2843 9.98733 45.3496 10.272 45.4803 10.524L45.6063 10.776L45.3403 11H42.7643ZM46.2363 6.31H48.8823L47.5383 2.39L46.2363 6.31ZM54.1331 11.196C53.9091 11.196 53.6897 11.154 53.4751 11.07C53.2604 10.986 53.0504 10.8413 52.8451 10.636L53.0691 10.23C53.1811 10.3047 53.2791 10.356 53.3631 10.384C53.4471 10.412 53.5357 10.426 53.6291 10.426C53.7504 10.426 53.8531 10.384 53.9371 10.3C54.0211 10.2067 54.0957 10.1087 54.1611 10.006L55.6871 7.346C55.7617 7.19667 55.8364 7.066 55.9111 6.954C55.9951 6.842 56.1024 6.74867 56.2331 6.674C55.4957 6.48733 54.9544 6.128 54.6091 5.596C54.2637 5.064 54.0911 4.47133 54.0911 3.818C54.0911 3.24867 54.2217 2.73533 54.4831 2.278C54.7537 1.82067 55.1831 1.45667 55.7711 1.186C56.3591 0.906 57.1291 0.766 58.0811 0.766C58.5197 0.766 58.9584 0.798666 59.3971 0.863999C59.8357 0.929333 60.2417 1.00867 60.6151 1.102C60.9977 1.19533 61.3104 1.28867 61.5531 1.382L61.3711 1.914H60.5591C60.4564 1.914 60.3771 1.93733 60.3211 1.984C60.2744 2.02133 60.2511 2.10533 60.2511 2.236V9.138C60.2511 9.56733 60.3117 9.87067 60.4331 10.048C60.5637 10.216 60.8064 10.3467 61.1611 10.44L61.4551 10.524L61.3011 11H58.2491L58.0811 10.776L58.2491 10.524C58.4637 10.216 58.6224 9.894 58.7251 9.558C58.8277 9.222 58.8791 8.76467 58.8791 8.186V2.18C58.8791 2.096 58.8557 2.00733 58.8091 1.914C58.7624 1.81133 58.6597 1.72267 58.5011 1.648C58.3517 1.57333 58.1137 1.536 57.7871 1.536C57.2924 1.536 56.8771 1.64333 56.5411 1.858C56.2051 2.06333 55.9531 2.34333 55.7851 2.698C55.6171 3.04333 55.5331 3.43533 55.5331 3.874C55.5331 4.518 55.7151 5.04067 56.0791 5.442C56.4524 5.84333 56.9797 6.044 57.6611 6.044C57.8757 6.044 58.0297 6.03 58.1231 6.002C58.2257 5.974 58.3004 5.96 58.3471 5.96C58.4217 5.96 58.4731 5.99267 58.5011 6.058C58.5291 6.12333 58.5431 6.198 58.5431 6.282C58.5431 6.32867 58.5291 6.38467 58.5011 6.45C58.4731 6.51533 58.4031 6.57133 58.2911 6.618C58.0297 6.71133 57.8337 6.80467 57.7031 6.898C57.5724 6.982 57.4511 7.11733 57.3391 7.304L56.0791 9.558C55.8924 9.894 55.7104 10.188 55.5331 10.44C55.3651 10.6827 55.1691 10.8693 54.9451 11C54.7304 11.1307 54.4597 11.196 54.1331 11.196ZM78.7752 11.196C78.3365 11.196 77.9678 11.0793 77.6692 10.846C77.3798 10.6127 77.1232 10.272 76.8992 9.824L75.6392 7.276C75.4898 6.968 75.2985 6.73 75.0652 6.562C74.8318 6.394 74.5565 6.25867 74.2392 6.156C74.2112 6.14667 74.1925 6.128 74.1832 6.1C74.1738 6.06267 74.1692 6.03 74.1692 6.002C74.1692 5.92733 74.1832 5.85267 74.2112 5.778C74.2485 5.70333 74.3325 5.666 74.4632 5.666H74.7712L77.0672 2.754C77.2258 2.54867 77.3098 2.32 77.3192 2.068C77.3378 1.80667 77.2772 1.58267 77.1372 1.396L76.9832 1.172L77.2352 0.947999H79.6432L79.7972 1.424L79.4752 1.508C79.2698 1.54533 79.0832 1.62467 78.9152 1.746C78.7472 1.858 78.5698 2.03067 78.3832 2.264L75.5552 5.876C76.0032 5.96 76.3765 6.12333 76.6752 6.366C76.9832 6.60867 77.2492 6.954 77.4732 7.402L78.8032 10.006C78.8778 10.1367 78.9572 10.2393 79.0412 10.314C79.1252 10.3887 79.2278 10.426 79.3492 10.426C79.4425 10.426 79.5312 10.412 79.6152 10.384C79.7085 10.356 79.8018 10.3047 79.8952 10.23L80.1192 10.636C79.9232 10.8413 79.7132 10.986 79.4892 11.07C79.2652 11.154 79.0272 11.196 78.7752 11.196ZM67.5192 11.196C67.2672 11.196 67.0292 11.154 66.8052 11.07C66.5812 10.986 66.3712 10.8413 66.1752 10.636L66.3992 10.23C66.5018 10.3047 66.5952 10.356 66.6792 10.384C66.7632 10.412 66.8518 10.426 66.9452 10.426C67.0758 10.426 67.1832 10.3887 67.2672 10.314C67.3512 10.2393 67.4258 10.1367 67.4912 10.006L68.8212 7.402C69.0452 6.954 69.3065 6.60867 69.6052 6.366C69.9132 6.12333 70.2912 5.96 70.7392 5.876L67.9112 2.264C67.7338 2.03067 67.5565 1.858 67.3792 1.746C67.2112 1.62467 67.0245 1.54533 66.8192 1.508L66.4972 1.424L66.6512 0.947999H69.0592L69.3112 1.172L69.1572 1.396C69.0172 1.58267 68.9518 1.80667 68.9612 2.068C68.9798 2.32 69.0685 2.54867 69.2272 2.754L71.5232 5.666H71.8312C71.9618 5.666 72.0412 5.70333 72.0692 5.778C72.1065 5.85267 72.1252 5.92733 72.1252 6.002C72.1252 6.03 72.1205 6.06267 72.1112 6.1C72.1018 6.128 72.0832 6.14667 72.0552 6.156C71.7378 6.25867 71.4625 6.394 71.2292 6.562C71.0052 6.73 70.8138 6.968 70.6552 7.276L69.3952 9.824C69.1712 10.272 68.9098 10.6127 68.6112 10.846C68.3218 11.0793 67.9578 11.196 67.5192 11.196ZM71.7052 11L71.5512 10.524L71.8452 10.44C72.0878 10.3373 72.2512 10.2067 72.3352 10.048C72.4192 9.88933 72.4612 9.586 72.4612 9.138V2.81C72.4612 2.37133 72.4285 2.068 72.3632 1.9C72.3072 1.732 72.1858 1.60133 71.9992 1.508L71.7052 1.424L71.8452 0.947999H74.3372L74.5052 1.172L74.3372 1.424C74.1598 1.732 74.0338 2.05867 73.9592 2.404C73.8845 2.74933 73.8472 3.202 73.8472 3.762V9.236C73.8472 9.64667 73.8845 9.93133 73.9592 10.09C74.0338 10.2393 74.1785 10.3653 74.3932 10.468L74.6872 10.552L74.5332 11H71.7052ZM80.5759 11L80.4079 10.524L80.7439 10.44C80.9772 10.3653 81.1592 10.286 81.2899 10.202C81.4206 10.118 81.5092 9.99667 81.5559 9.838C81.6119 9.67 81.6399 9.43667 81.6399 9.138V2.81C81.6399 2.37133 81.5792 2.068 81.4579 1.9C81.3366 1.732 81.0986 1.60133 80.7439 1.508L80.4079 1.424L80.5759 0.947999H83.6559L83.8379 1.172L83.6559 1.424C83.4226 1.732 83.2592 2.05867 83.1659 2.404C83.0726 2.74933 83.0259 3.202 83.0259 3.762V7.822L87.7439 2.698C87.7346 2.306 87.6646 2.03067 87.5339 1.872C87.4126 1.71333 87.1839 1.592 86.8479 1.508L86.5399 1.424L86.7079 0.947999H89.7599L89.9699 1.172L89.7599 1.424C89.5172 1.72267 89.3492 2.04933 89.2559 2.404C89.1626 2.74933 89.1159 3.202 89.1159 3.762V9.236C89.1159 9.64667 89.1766 9.93133 89.2979 10.09C89.4192 10.2487 89.6526 10.3747 89.9979 10.468L90.2779 10.552L90.1379 11H86.7079L86.5399 10.524L86.8479 10.44C87.2026 10.3467 87.4406 10.2207 87.5619 10.062C87.6832 9.894 87.7439 9.586 87.7439 9.138V3.832L83.0259 8.97V9.236C83.0259 9.64667 83.0819 9.93133 83.1939 10.09C83.3152 10.2393 83.5392 10.3653 83.8659 10.468L84.1599 10.552L84.0199 11H80.5759ZM94.0781 11.196C93.5181 11.196 92.9908 11.112 92.4961 10.944C92.0015 10.776 91.5955 10.524 91.2781 10.188C90.9701 9.852 90.8161 9.432 90.8161 8.928C90.8161 8.48933 90.9515 8.13467 91.2221 7.864C91.4928 7.59333 91.8288 7.458 92.2301 7.458C92.3328 7.458 92.4075 7.46733 92.4541 7.486C92.5008 7.49533 92.5241 7.542 92.5241 7.626C92.5241 7.69133 92.4681 7.81267 92.3561 7.99C92.2535 8.16733 92.2021 8.44267 92.2021 8.816C92.2021 9.31067 92.3515 9.698 92.6501 9.978C92.9488 10.258 93.4108 10.398 94.0361 10.398C94.7175 10.398 95.2495 10.216 95.6321 9.852C96.0148 9.488 96.2061 8.97933 96.2061 8.326C96.2061 7.91533 96.1315 7.53733 95.9821 7.192C95.8328 6.83733 95.5948 6.55267 95.2681 6.338C94.9508 6.12333 94.5308 6.016 94.0081 6.016C93.7748 6.016 93.5975 6.03 93.4761 6.058C93.3548 6.086 93.2521 6.1 93.1681 6.1C93.0561 6.1 93.0001 6.00667 93.0001 5.82C93.0001 5.68 93.0655 5.582 93.1961 5.526C93.3268 5.46067 93.5368 5.4 93.8261 5.344C94.3488 5.24133 94.7455 5.09667 95.0161 4.91C95.2868 4.714 95.4688 4.48067 95.5621 4.21C95.6648 3.93 95.7161 3.622 95.7161 3.286C95.7161 2.73533 95.5668 2.306 95.2681 1.998C94.9695 1.69 94.5728 1.536 94.0781 1.536C93.6861 1.536 93.3408 1.58733 93.0421 1.69C92.7528 1.79267 92.5055 1.97933 92.3001 2.25C92.1041 2.51133 91.9455 2.89867 91.8241 3.412L91.7541 3.72L91.2921 3.566V0.78L91.5161 0.611999L91.7541 0.78C91.8381 0.845333 91.9221 0.891999 92.0061 0.92C92.0995 0.938666 92.1928 0.947999 92.2861 0.947999C92.5195 0.947999 92.7808 0.915333 93.0701 0.85C93.3688 0.784666 93.7655 0.751999 94.2601 0.751999C94.7828 0.751999 95.2681 0.840666 95.7161 1.018C96.1735 1.19533 96.5421 1.466 96.8221 1.83C97.1021 2.194 97.2421 2.656 97.2421 3.216C97.2421 3.78533 97.0695 4.266 96.7241 4.658C96.3788 5.05 95.8841 5.358 95.2401 5.582C96.1641 5.778 96.8081 6.114 97.1721 6.59C97.5455 7.066 97.7321 7.67733 97.7321 8.424C97.7321 8.96533 97.5781 9.446 97.2701 9.866C96.9715 10.286 96.5468 10.6127 95.9961 10.846C95.4548 11.0793 94.8155 11.196 94.0781 11.196ZM98.7964 11L98.6284 10.524L98.9504 10.44C99.305 10.3373 99.543 10.202 99.6644 10.034C99.7857 9.866 99.8464 9.56733 99.8464 9.138V2.81C99.8464 2.37133 99.7857 2.07267 99.6644 1.914C99.543 1.746 99.305 1.61067 98.9504 1.508L98.6284 1.424L98.7964 0.947999H101.862L102.044 1.172L101.862 1.424C101.629 1.732 101.466 2.05867 101.372 2.404C101.279 2.74 101.232 3.19267 101.232 3.762V5.47H105.81V2.81C105.81 2.37133 105.75 2.07267 105.628 1.914C105.507 1.746 105.269 1.61067 104.914 1.508L104.592 1.424L104.76 0.947999H107.826L108.008 1.172L107.826 1.424C107.593 1.732 107.43 2.05867 107.336 2.404C107.243 2.74 107.196 3.19267 107.196 3.762V9.236C107.196 9.64667 107.252 9.93133 107.364 10.09C107.486 10.2393 107.714 10.3653 108.05 10.468L108.344 10.552L108.19 11H104.76L104.592 10.524L104.914 10.44C105.269 10.3373 105.507 10.202 105.628 10.034C105.75 9.866 105.81 9.56733 105.81 9.138V6.324H101.232V9.236C101.232 9.64667 101.288 9.93133 101.4 10.09C101.522 10.2393 101.75 10.3653 102.086 10.468L102.38 10.552L102.226 11H98.7964ZM109.707 11L109.539 10.524L109.875 10.44C110.22 10.3467 110.453 10.216 110.575 10.048C110.696 9.87067 110.757 9.56733 110.757 9.138V2.81C110.757 2.39 110.696 2.09133 110.575 1.914C110.453 1.73667 110.22 1.60133 109.875 1.508L109.539 1.424L109.707 0.947999H112.787L112.969 1.172L112.787 1.424C112.553 1.74133 112.385 2.07267 112.283 2.418C112.189 2.754 112.143 3.202 112.143 3.762V8.438C112.143 8.87667 112.194 9.222 112.297 9.474C112.409 9.726 112.549 9.908 112.717 10.02C112.885 10.132 113.057 10.202 113.235 10.23C113.412 10.258 113.566 10.272 113.697 10.272C114.369 10.272 114.887 10.0573 115.251 9.628C115.615 9.19867 115.797 8.65267 115.797 7.99C115.797 7.58867 115.703 7.22467 115.517 6.898C115.33 6.57133 115.069 6.31 114.733 6.114C114.406 5.918 114.019 5.82 113.571 5.82C113.281 5.82 113.076 5.84333 112.955 5.89C112.833 5.92733 112.731 5.946 112.647 5.946C112.581 5.946 112.53 5.91333 112.493 5.848C112.465 5.78267 112.451 5.708 112.451 5.624C112.451 5.44667 112.591 5.32067 112.871 5.246C113.151 5.17133 113.463 5.134 113.809 5.134C114.518 5.134 115.129 5.26933 115.643 5.54C116.156 5.81067 116.553 6.17 116.833 6.618C117.113 7.05667 117.253 7.53733 117.253 8.06C117.253 8.62933 117.136 9.138 116.903 9.586C116.669 10.0247 116.287 10.37 115.755 10.622C115.223 10.874 114.509 11 113.613 11H109.707ZM121.882 7.472C121.882 7.304 121.91 7.12667 121.966 6.94C122.022 6.744 122.115 6.59467 122.246 6.492L125.928 6.352C125.928 6.52 125.9 6.702 125.844 6.898C125.797 7.08467 125.704 7.22933 125.564 7.332L121.882 7.472ZM130.686 11L130.504 10.776L130.686 10.524C130.919 10.216 131.083 9.894 131.176 9.558C131.279 9.21267 131.33 8.75533 131.33 8.186V3.762C131.33 3.202 131.279 2.74933 131.176 2.404C131.083 2.05867 130.919 1.732 130.686 1.424L130.504 1.172L130.686 0.947999H138.89L139.072 1.172L138.89 1.424C138.657 1.732 138.489 2.05867 138.386 2.404C138.293 2.74933 138.246 3.202 138.246 3.762V9.236C138.246 9.64667 138.302 9.93133 138.414 10.09C138.535 10.2393 138.764 10.3653 139.1 10.468L139.408 10.552L139.254 11H135.838L135.656 10.524L135.964 10.44C136.207 10.3653 136.393 10.286 136.524 10.202C136.655 10.118 136.743 9.99667 136.79 9.838C136.846 9.67 136.874 9.43667 136.874 9.138V2.81C136.874 2.37133 136.813 2.082 136.692 1.942C136.58 1.802 136.337 1.732 135.964 1.732H133.598C133.234 1.732 132.991 1.802 132.87 1.942C132.758 2.082 132.702 2.37133 132.702 2.81V9.138C132.702 9.43667 132.725 9.67 132.772 9.838C132.828 9.99667 132.921 10.118 133.052 10.202C133.183 10.286 133.365 10.3653 133.598 10.44L133.934 10.524L133.766 11H130.686ZM144.782 11.196C143.737 11.196 142.869 10.9627 142.178 10.496C141.497 10.0293 140.988 9.404 140.652 8.62C140.316 7.82667 140.148 6.94933 140.148 5.988C140.148 5.26933 140.242 4.59267 140.428 3.958C140.615 3.32333 140.9 2.768 141.282 2.292C141.674 1.80667 142.16 1.42867 142.738 1.158C143.317 0.887333 143.998 0.751999 144.782 0.751999C145.566 0.751999 146.248 0.887333 146.826 1.158C147.405 1.42867 147.886 1.80667 148.268 2.292C148.66 2.768 148.95 3.32333 149.136 3.958C149.332 4.59267 149.43 5.26933 149.43 5.988C149.43 6.94933 149.258 7.82667 148.912 8.62C148.576 9.404 148.063 10.0293 147.372 10.496C146.691 10.9627 145.828 11.196 144.782 11.196ZM144.726 10.37C145.398 10.37 145.972 10.1787 146.448 9.796C146.924 9.404 147.284 8.88133 147.526 8.228C147.778 7.56533 147.904 6.83267 147.904 6.03C147.904 5.68467 147.872 5.31133 147.806 4.91C147.75 4.49933 147.652 4.098 147.512 3.706C147.372 3.30467 147.186 2.94533 146.952 2.628C146.719 2.30133 146.43 2.04 146.084 1.844C145.739 1.648 145.328 1.55 144.852 1.55C144.171 1.55 143.592 1.76 143.116 2.18C142.64 2.59067 142.276 3.14133 142.024 3.832C141.782 4.51333 141.66 5.26933 141.66 6.1C141.66 6.89333 141.772 7.612 141.996 8.256C142.23 8.9 142.575 9.41333 143.032 9.796C143.49 10.1787 144.054 10.37 144.726 10.37ZM150.416 13.702L149.94 13.534V10.398C150.537 10.314 151.013 10.0807 151.368 9.698C151.722 9.31533 151.993 8.79267 152.18 8.13C152.376 7.46733 152.52 6.67867 152.614 5.764C152.716 4.84933 152.805 3.818 152.88 2.67C152.898 2.28733 152.814 2.01667 152.628 1.858C152.45 1.69 152.226 1.57333 151.956 1.508L151.648 1.424L151.816 0.947999H158.648L158.802 1.172L158.648 1.424C158.414 1.732 158.246 2.05867 158.144 2.404C158.041 2.74933 157.99 3.202 157.99 3.762V9.53C157.99 9.73533 158.064 9.90333 158.214 10.034C158.363 10.1647 158.554 10.2627 158.788 10.328C159.021 10.384 159.264 10.412 159.516 10.412V13.534L159.04 13.702L158.956 13.366C158.825 12.8713 158.68 12.4467 158.522 12.092C158.363 11.7373 158.153 11.4667 157.892 11.28C157.64 11.0933 157.299 11 156.87 11H152.586C152.166 11 151.825 11.0933 151.564 11.28C151.312 11.4667 151.102 11.7373 150.934 12.092C150.775 12.4467 150.626 12.8713 150.486 13.366L150.416 13.702ZM151.872 10.202H155.708C156.081 10.202 156.324 10.1367 156.436 10.006C156.557 9.87533 156.618 9.586 156.618 9.138V2.81C156.618 2.37133 156.557 2.082 156.436 1.942C156.324 1.802 156.081 1.732 155.708 1.732H154.854C154.592 1.732 154.382 1.76933 154.224 1.844C154.065 1.90933 153.976 2.05867 153.958 2.292C153.808 4.56933 153.58 6.36133 153.272 7.668C152.964 8.97467 152.497 9.81933 151.872 10.202ZM160.198 11L160.03 10.524L160.352 10.44C160.707 10.3373 160.945 10.202 161.066 10.034C161.188 9.866 161.248 9.56733 161.248 9.138V2.222C161.248 1.998 161.146 1.886 160.94 1.886H160.128L159.96 1.368C160.203 1.27467 160.511 1.18133 160.884 1.088C161.267 0.994666 161.678 0.915333 162.116 0.85C162.564 0.784666 163.003 0.751999 163.432 0.751999C164.338 0.751999 165.066 0.877999 165.616 1.13C166.176 1.37267 166.582 1.704 166.834 2.124C167.096 2.544 167.226 3.006 167.226 3.51C167.226 4.00467 167.105 4.46667 166.862 4.896C166.629 5.32533 166.26 5.66133 165.756 5.904C166.391 6.10933 166.881 6.42667 167.226 6.856C167.572 7.276 167.744 7.738 167.744 8.242C167.744 8.774 167.623 9.25 167.38 9.67C167.147 10.0807 166.764 10.4073 166.232 10.65C165.7 10.8833 164.991 11 164.104 11H160.198ZM164.188 10.272C164.86 10.272 165.378 10.076 165.742 9.684C166.106 9.28267 166.288 8.77867 166.288 8.172C166.288 7.81733 166.2 7.49533 166.022 7.206C165.845 6.90733 165.588 6.66933 165.252 6.492C164.926 6.31467 164.529 6.226 164.062 6.226C163.894 6.226 163.726 6.20733 163.558 6.17C163.39 6.13267 163.255 6.09067 163.152 6.044C163.078 6.00667 163.022 5.96 162.984 5.904C162.956 5.848 162.942 5.792 162.942 5.736C162.942 5.568 163.008 5.484 163.138 5.484C163.194 5.484 163.269 5.50267 163.362 5.54C163.465 5.568 163.624 5.582 163.838 5.582C164.482 5.582 164.977 5.39067 165.322 5.008C165.668 4.62533 165.84 4.13533 165.84 3.538C165.84 2.96867 165.649 2.49267 165.266 2.11C164.884 1.72733 164.319 1.536 163.572 1.536C163.292 1.536 163.087 1.57333 162.956 1.648C162.826 1.71333 162.737 1.79733 162.69 1.9C162.653 2.00267 162.634 2.096 162.634 2.18V8.438C162.634 8.87667 162.686 9.222 162.788 9.474C162.9 9.71667 163.04 9.89867 163.208 10.02C163.376 10.132 163.544 10.202 163.712 10.23C163.89 10.258 164.048 10.272 164.188 10.272ZM168.842 11L168.674 10.524L169.01 10.44C169.243 10.3653 169.425 10.286 169.556 10.202C169.686 10.118 169.775 9.99667 169.822 9.838C169.878 9.67 169.906 9.43667 169.906 9.138V2.81C169.906 2.37133 169.845 2.068 169.724 1.9C169.602 1.732 169.364 1.60133 169.01 1.508L168.674 1.424L168.842 0.947999H171.922L172.104 1.172L171.922 1.424C171.688 1.732 171.525 2.05867 171.432 2.404C171.338 2.74933 171.292 3.202 171.292 3.762V7.822L176.01 2.698C176 2.306 175.93 2.03067 175.8 1.872C175.678 1.71333 175.45 1.592 175.114 1.508L174.806 1.424L174.974 0.947999H178.026L178.236 1.172L178.026 1.424C177.783 1.72267 177.615 2.04933 177.522 2.404C177.428 2.74933 177.382 3.202 177.382 3.762V9.236C177.382 9.64667 177.442 9.93133 177.564 10.09C177.685 10.2487 177.918 10.3747 178.264 10.468L178.544 10.552L178.404 11H174.974L174.806 10.524L175.114 10.44C175.468 10.3467 175.706 10.2207 175.828 10.062C175.949 9.894 176.01 9.586 176.01 9.138V3.832L171.292 8.97V9.236C171.292 9.64667 171.348 9.93133 171.46 10.09C171.581 10.2393 171.805 10.3653 172.132 10.468L172.426 10.552L172.286 11H168.842ZM179.502 11L179.32 10.776L179.502 10.524C179.726 10.2067 179.889 9.88 179.992 9.544C180.094 9.208 180.146 8.75533 180.146 8.186V3.762C180.146 3.202 180.094 2.754 179.992 2.418C179.889 2.07267 179.726 1.74133 179.502 1.424L179.32 1.172L179.502 0.947999H183.632C184.416 0.947999 184.943 0.854666 185.214 0.668L185.48 0.485999L185.704 0.668V3.146L185.214 3.314L185.144 2.992C185.069 2.64667 184.976 2.38533 184.864 2.208C184.752 2.03067 184.598 1.90933 184.402 1.844C184.215 1.76933 183.954 1.732 183.618 1.732H182.414C182.05 1.732 181.807 1.802 181.686 1.942C181.574 2.082 181.518 2.37133 181.518 2.81V9.138C181.518 9.43667 181.541 9.67 181.588 9.838C181.644 9.99667 181.737 10.118 181.868 10.202C181.998 10.286 182.18 10.3653 182.414 10.44L182.75 10.524L182.582 11H179.502ZM186.387 12.722L185.981 12.456L186.625 11.196C186.737 10.972 186.793 10.7807 186.793 10.622C186.793 10.4353 186.685 10.2627 186.471 10.104L186.219 9.936L186.149 9.6L186.387 9.502C186.517 9.45533 186.648 9.418 186.779 9.39C186.919 9.35267 187.049 9.334 187.171 9.334C187.423 9.334 187.637 9.404 187.815 9.544C187.992 9.684 188.081 9.92667 188.081 10.272C188.081 10.5613 187.969 10.8553 187.745 11.154C187.53 11.4527 187.259 11.7793 186.933 12.134L186.387 12.722Z" fill="#A09081"/>
</svg>
