<svg width="226" height="16" viewBox="0 0 226 16" fill="none" xmlns="http://www.w3.org/2000/svg">
<path d="M7.202 13.182C6.79467 13.182 6.45233 13.0737 6.175 12.857C5.90633 12.6317 5.67233 12.3153 5.473 11.908L4.29 9.542C4.15133 9.256 3.97367 9.035 3.757 8.879C3.54033 8.723 3.28467 8.59733 2.99 8.502C2.94667 8.48467 2.925 8.437 2.925 8.359C2.925 8.28967 2.94233 8.22033 2.977 8.151C3.01167 8.08167 3.08533 8.047 3.198 8.047H3.497L5.616 5.343C5.76333 5.161 5.84133 4.94867 5.85 4.706C5.86733 4.46333 5.811 4.25533 5.681 4.082L5.538 3.874L5.772 3.666H8.008L8.164 4.108L7.852 4.186C7.66133 4.22067 7.488 4.29433 7.332 4.407C7.176 4.511 7.01133 4.67133 6.838 4.888L4.212 8.242C4.63667 8.32 4.98767 8.47167 5.265 8.697C5.54233 8.92233 5.78933 9.243 6.006 9.659L7.228 12.077C7.29733 12.1983 7.371 12.2937 7.449 12.363C7.527 12.4323 7.62233 12.467 7.735 12.467C7.82167 12.467 7.904 12.454 7.982 12.428C8.06867 12.402 8.15533 12.3543 8.242 12.285L8.45 12.662C8.268 12.8527 8.073 12.987 7.865 13.065C7.657 13.143 7.436 13.182 7.202 13.182ZM0.351 13L0.195 12.558L0.507 12.48C0.723667 12.4107 0.892667 12.337 1.014 12.259C1.13533 12.181 1.21767 12.0683 1.261 11.921C1.313 11.765 1.339 11.5483 1.339 11.271V5.395C1.339 4.98767 1.28267 4.706 1.17 4.55C1.05733 4.394 0.836333 4.27267 0.507 4.186L0.195 4.108L0.351 3.666H3.211L3.38 3.874L3.211 4.108C2.99433 4.394 2.84267 4.69733 2.756 5.018C2.66933 5.33867 2.626 5.759 2.626 6.279V11.362C2.626 11.7433 2.678 12.0077 2.782 12.155C2.89467 12.2937 3.10267 12.4107 3.406 12.506L3.679 12.584L3.549 13H0.351ZM8.53003 13L8.37403 12.558L8.67303 12.48C8.90703 12.4193 9.09336 12.3457 9.23203 12.259C9.3707 12.1723 9.4877 12.0553 9.58303 11.908C9.68703 11.752 9.78236 11.5397 9.86903 11.271L11.91 5.395C11.9534 5.25633 11.988 5.13933 12.014 5.044C12.04 4.94 12.053 4.84467 12.053 4.758C12.053 4.59333 12.0054 4.472 11.91 4.394C11.8147 4.30733 11.6674 4.238 11.468 4.186L11.169 4.108L11.325 3.666H13.834L16.447 11.206C16.551 11.492 16.655 11.726 16.759 11.908C16.8717 12.09 16.9974 12.246 17.136 12.376C17.2747 12.506 17.435 12.6447 17.617 12.792L17.448 13H14.523L14.367 12.558L14.666 12.48C14.8654 12.428 15.0127 12.363 15.108 12.285C15.2034 12.1983 15.251 12.0727 15.251 11.908C15.251 11.8213 15.238 11.7303 15.212 11.635C15.186 11.531 15.1514 11.4097 15.108 11.271L14.484 9.451H11.481L11.169 10.4C11.0737 10.6947 11 10.9503 10.948 11.167C10.896 11.3837 10.87 11.583 10.87 11.765C10.87 12.0597 10.9307 12.324 11.052 12.558L11.169 12.792L10.922 13H8.53003ZM11.754 8.645H14.211L12.963 5.005L11.754 8.645ZM29.5907 13.182C29.1834 13.182 28.8411 13.0737 28.5637 12.857C28.2951 12.6403 28.0567 12.324 27.8487 11.908L26.6787 9.542C26.5401 9.256 26.3624 9.035 26.1457 8.879C25.9291 8.723 25.6734 8.59733 25.3787 8.502C25.3527 8.49333 25.3354 8.476 25.3267 8.45C25.3181 8.41533 25.3137 8.385 25.3137 8.359C25.3137 8.28967 25.3267 8.22033 25.3527 8.151C25.3874 8.08167 25.4654 8.047 25.5867 8.047H25.8727L28.0047 5.343C28.1521 5.15233 28.2301 4.94 28.2387 4.706C28.2561 4.46333 28.1997 4.25533 28.0697 4.082L27.9267 3.874L28.1607 3.666H30.3967L30.5397 4.108L30.2407 4.186C30.0501 4.22067 29.8767 4.29433 29.7207 4.407C29.5647 4.511 29.4001 4.67133 29.2267 4.888L26.6007 8.242C27.0167 8.32 27.3634 8.47167 27.6407 8.697C27.9267 8.92233 28.1737 9.243 28.3817 9.659L29.6167 12.077C29.6861 12.1983 29.7597 12.2937 29.8377 12.363C29.9157 12.4323 30.0111 12.467 30.1237 12.467C30.2104 12.467 30.2927 12.454 30.3707 12.428C30.4574 12.402 30.5441 12.3543 30.6307 12.285L30.8387 12.662C30.6567 12.8527 30.4617 12.987 30.2537 13.065C30.0457 13.143 29.8247 13.182 29.5907 13.182ZM19.1387 13.182C18.9047 13.182 18.6837 13.143 18.4757 13.065C18.2677 12.987 18.0727 12.8527 17.8907 12.662L18.0987 12.285C18.1941 12.3543 18.2807 12.402 18.3587 12.428C18.4367 12.454 18.5191 12.467 18.6057 12.467C18.7271 12.467 18.8267 12.4323 18.9047 12.363C18.9827 12.2937 19.0521 12.1983 19.1127 12.077L20.3477 9.659C20.5557 9.243 20.7984 8.92233 21.0757 8.697C21.3617 8.47167 21.7127 8.32 22.1287 8.242L19.5027 4.888C19.3381 4.67133 19.1734 4.511 19.0087 4.407C18.8527 4.29433 18.6794 4.22067 18.4887 4.186L18.1897 4.108L18.3327 3.666H20.5687L20.8027 3.874L20.6597 4.082C20.5297 4.25533 20.4691 4.46333 20.4777 4.706C20.4951 4.94 20.5774 5.15233 20.7247 5.343L22.8567 8.047H23.1427C23.2641 8.047 23.3377 8.08167 23.3637 8.151C23.3984 8.22033 23.4157 8.28967 23.4157 8.359C23.4157 8.385 23.4114 8.41533 23.4027 8.45C23.3941 8.476 23.3767 8.49333 23.3507 8.502C23.0561 8.59733 22.8004 8.723 22.5837 8.879C22.3757 9.035 22.1981 9.256 22.0507 9.542L20.8807 11.908C20.6727 12.324 20.4301 12.6403 20.1527 12.857C19.8841 13.0737 19.5461 13.182 19.1387 13.182ZM23.0257 13L22.8827 12.558L23.1557 12.48C23.3811 12.3847 23.5327 12.2633 23.6107 12.116C23.6887 11.9687 23.7277 11.687 23.7277 11.271V5.395C23.7277 4.98767 23.6974 4.706 23.6367 4.55C23.5847 4.394 23.4721 4.27267 23.2987 4.186L23.0257 4.108L23.1557 3.666H25.4697L25.6257 3.874L25.4697 4.108C25.3051 4.394 25.1881 4.69733 25.1187 5.018C25.0494 5.33867 25.0147 5.759 25.0147 6.279V11.362C25.0147 11.7433 25.0494 12.0077 25.1187 12.155C25.1881 12.2937 25.3224 12.4107 25.5217 12.506L25.7947 12.584L25.6517 13H23.0257ZM31.4189 15.509L30.9769 15.353V12.441C31.5315 12.363 31.9735 12.1463 32.3029 11.791C32.6322 11.4357 32.8835 10.9503 33.0569 10.335C33.2389 9.71967 33.3732 8.98733 33.4599 8.138C33.5552 7.28867 33.6375 6.331 33.7069 5.265C33.7242 4.90967 33.6462 4.65833 33.4729 4.511C33.3082 4.355 33.1002 4.24667 32.8489 4.186L32.5629 4.108L32.7189 3.666H39.0629L39.2059 3.874L39.0629 4.108C38.8462 4.394 38.6902 4.69733 38.5949 5.018C38.4995 5.33867 38.4519 5.759 38.4519 6.279V11.635C38.4519 11.8257 38.5212 11.9817 38.6599 12.103C38.7985 12.2243 38.9762 12.3153 39.1929 12.376C39.4095 12.428 39.6349 12.454 39.8689 12.454V15.353L39.4269 15.509L39.3489 15.197C39.2275 14.7377 39.0932 14.3433 38.9459 14.014C38.7985 13.6847 38.6035 13.4333 38.3609 13.26C38.1269 13.0867 37.8105 13 37.4119 13H33.4339C33.0439 13 32.7275 13.0867 32.4849 13.26C32.2509 13.4333 32.0559 13.6847 31.8999 14.014C31.7525 14.3433 31.6139 14.7377 31.4839 15.197L31.4189 15.509ZM32.7709 12.259H36.3329C36.6795 12.259 36.9049 12.1983 37.0089 12.077C37.1215 11.9557 37.1779 11.687 37.1779 11.271V5.395C37.1779 4.98767 37.1215 4.719 37.0089 4.589C36.9049 4.459 36.6795 4.394 36.3329 4.394H35.5399C35.2972 4.394 35.1022 4.42867 34.9549 4.498C34.8075 4.55867 34.7252 4.69733 34.7079 4.914C34.5692 7.02867 34.3569 8.69267 34.0709 9.906C33.7849 11.1193 33.3515 11.9037 32.7709 12.259ZM44.5197 13.182C43.5491 13.182 42.7431 12.9653 42.1017 12.532C41.4691 12.0987 40.9967 11.518 40.6847 10.79C40.3727 10.0533 40.2167 9.23867 40.2167 8.346C40.2167 7.67867 40.3034 7.05033 40.4767 6.461C40.6501 5.87167 40.9144 5.356 41.2697 4.914C41.6337 4.46333 42.0844 4.11233 42.6217 3.861C43.1591 3.60967 43.7917 3.484 44.5197 3.484C45.2477 3.484 45.8804 3.60967 46.4177 3.861C46.9551 4.11233 47.4014 4.46333 47.7567 4.914C48.1207 5.356 48.3894 5.87167 48.5627 6.461C48.7447 7.05033 48.8357 7.67867 48.8357 8.346C48.8357 9.23867 48.6754 10.0533 48.3547 10.79C48.0427 11.518 47.5661 12.0987 46.9247 12.532C46.2921 12.9653 45.4904 13.182 44.5197 13.182ZM44.4677 12.415C45.0917 12.415 45.6247 12.2373 46.0667 11.882C46.5087 11.518 46.8424 11.0327 47.0677 10.426C47.3017 9.81067 47.4187 9.13033 47.4187 8.385C47.4187 8.06433 47.3884 7.71767 47.3277 7.345C47.2757 6.96367 47.1847 6.591 47.0547 6.227C46.9247 5.85433 46.7514 5.52067 46.5347 5.226C46.3181 4.92267 46.0494 4.68 45.7287 4.498C45.4081 4.316 45.0267 4.225 44.5847 4.225C43.9521 4.225 43.4147 4.42 42.9727 4.81C42.5307 5.19133 42.1927 5.70267 41.9587 6.344C41.7334 6.97667 41.6207 7.67867 41.6207 8.45C41.6207 9.18667 41.7247 9.854 41.9327 10.452C42.1494 11.05 42.4701 11.5267 42.8947 11.882C43.3194 12.2373 43.8437 12.415 44.4677 12.415ZM56.1469 13.325L56.0429 13.182C55.9476 13.0607 55.7656 13 55.4969 13H50.0239L49.8809 12.584L50.1539 12.506C50.4659 12.4107 50.6739 12.2937 50.7779 12.155C50.8906 12.0077 50.9469 11.7433 50.9469 11.362V6.279C50.9469 5.75033 50.8992 5.33 50.8039 5.018C50.7172 4.706 50.5699 4.40267 50.3619 4.108L50.1929 3.874L50.3619 3.666H54.3399C55.0852 3.666 55.5792 3.575 55.8219 3.393L56.0559 3.224L56.2639 3.393V5.707L55.8219 5.863L55.7439 5.564C55.6659 5.252 55.5749 5.01367 55.4709 4.849C55.3669 4.68433 55.2282 4.57167 55.0549 4.511C54.8816 4.44167 54.6389 4.407 54.3269 4.407H53.0659C52.7279 4.407 52.5026 4.472 52.3899 4.602C52.2859 4.72333 52.2339 4.98767 52.2339 5.395V7.891H53.8849C54.0842 7.891 54.2619 7.84767 54.4179 7.761C54.5826 7.67433 54.7472 7.51833 54.9119 7.293L55.0159 7.15L55.2759 7.293V9.516L54.8339 9.672L54.7559 9.373C54.6779 9.06967 54.5349 8.87033 54.3269 8.775C54.1276 8.67967 53.7982 8.632 53.3389 8.632H52.2339V11.271C52.2339 11.6697 52.2859 11.934 52.3899 12.064C52.5026 12.194 52.7279 12.259 53.0659 12.259H54.4699C54.7819 12.259 55.0246 12.2287 55.1979 12.168C55.3712 12.0987 55.5099 11.9817 55.6139 11.817C55.7179 11.6437 55.8089 11.4053 55.8869 11.102L55.9649 10.803L56.4069 10.959V13.182L56.1469 13.325ZM61.1095 13L60.9535 12.558L61.2655 12.48C61.4822 12.4107 61.6512 12.337 61.7725 12.259C61.8939 12.181 61.9762 12.0683 62.0195 11.921C62.0715 11.765 62.0975 11.5483 62.0975 11.271V5.395C62.0975 4.98767 62.0412 4.706 61.9285 4.55C61.8159 4.394 61.5949 4.27267 61.2655 4.186L60.9535 4.108L61.1095 3.666H63.9695L64.1385 3.874L63.9695 4.108C63.7529 4.394 63.6012 4.69733 63.5145 5.018C63.4279 5.33867 63.3845 5.759 63.3845 6.279V10.049L67.7655 5.291C67.7569 4.927 67.6919 4.67133 67.5705 4.524C67.4579 4.37667 67.2455 4.264 66.9335 4.186L66.6475 4.108L66.8035 3.666H69.6375L69.8325 3.874L69.6375 4.108C69.4122 4.38533 69.2562 4.68867 69.1695 5.018C69.0829 5.33867 69.0395 5.759 69.0395 6.279V11.362C69.0395 11.7433 69.0959 12.0077 69.2085 12.155C69.3212 12.3023 69.5379 12.4193 69.8585 12.506L70.1185 12.584L69.9885 13H66.8035L66.6475 12.558L66.9335 12.48C67.2629 12.3933 67.4839 12.2763 67.5965 12.129C67.7092 11.973 67.7655 11.687 67.7655 11.271V6.344L63.3845 11.115V11.362C63.3845 11.7433 63.4365 12.0077 63.5405 12.155C63.6532 12.2937 63.8612 12.4107 64.1645 12.506L64.4375 12.584L64.3075 13H61.1095ZM70.6573 13L70.5143 12.558L70.8133 12.48C71.1427 12.3847 71.3723 12.259 71.5023 12.103C71.6323 11.947 71.7103 11.6697 71.7363 11.271L72.0873 6.123C72.096 6.08833 72.1047 6.006 72.1133 5.876C72.122 5.73733 72.1307 5.59433 72.1393 5.447C72.148 5.29967 72.1523 5.19133 72.1523 5.122C72.1523 4.81867 72.096 4.60633 71.9833 4.485C71.8793 4.355 71.6843 4.25533 71.3983 4.186L71.0993 4.108L71.2423 3.666H73.6083L76.2863 10.205L79.0423 3.666H80.9143L81.1093 3.874L80.9533 4.108C80.7887 4.342 80.6673 4.58467 80.5893 4.836C80.52 5.07867 80.4853 5.382 80.4853 5.746C80.4853 5.798 80.4897 5.90633 80.4983 6.071C80.507 6.23567 80.5157 6.40033 80.5243 6.565C80.5417 6.72967 80.5503 6.84667 80.5503 6.916L80.8103 10.478C80.8537 11.0067 80.9403 11.453 81.0703 11.817C81.2003 12.1723 81.4127 12.4973 81.7073 12.792L81.5383 13H78.6913L78.5353 12.558L78.8343 12.48C79.1117 12.3933 79.3023 12.285 79.4063 12.155C79.519 12.0163 79.5753 11.8127 79.5753 11.544C79.5753 11.4833 79.571 11.4053 79.5623 11.31C79.5623 11.2147 79.558 11.1323 79.5493 11.063L79.1723 5.642L76.4553 12.064H75.7533L73.0363 5.642L72.7503 9.646C72.7417 9.79333 72.7287 9.958 72.7113 10.14C72.7027 10.322 72.694 10.4867 72.6853 10.634C72.6767 10.7727 72.6723 10.868 72.6723 10.92C72.6723 11.284 72.707 11.5917 72.7763 11.843C72.8543 12.0857 72.9757 12.324 73.1403 12.558L73.2963 12.792L73.1013 13H70.6573ZM83.617 13.182C83.409 13.182 83.2053 13.143 83.006 13.065C82.8067 12.987 82.6117 12.8527 82.421 12.662L82.629 12.285C82.733 12.3543 82.824 12.402 82.902 12.428C82.98 12.454 83.0623 12.467 83.149 12.467C83.2617 12.467 83.357 12.428 83.435 12.35C83.513 12.2633 83.5823 12.1723 83.643 12.077L85.06 9.607C85.1293 9.46833 85.1987 9.347 85.268 9.243C85.346 9.139 85.4457 9.05233 85.567 8.983C84.8823 8.80967 84.3797 8.476 84.059 7.982C83.7383 7.488 83.578 6.93767 83.578 6.331C83.578 5.80233 83.6993 5.32567 83.942 4.901C84.1933 4.47633 84.592 4.13833 85.138 3.887C85.684 3.627 86.399 3.497 87.283 3.497C87.6903 3.497 88.0977 3.52733 88.505 3.588C88.9123 3.64867 89.2893 3.72233 89.636 3.809C89.9913 3.89567 90.2817 3.98233 90.507 4.069L90.338 4.563H89.584C89.4887 4.563 89.415 4.58467 89.363 4.628C89.3197 4.66267 89.298 4.74067 89.298 4.862V11.271C89.298 11.6697 89.3543 11.9513 89.467 12.116C89.5883 12.272 89.8137 12.3933 90.143 12.48L90.416 12.558L90.273 13H87.439L87.283 12.792L87.439 12.558C87.6383 12.272 87.7857 11.973 87.881 11.661C87.9763 11.349 88.024 10.9243 88.024 10.387V4.81C88.024 4.732 88.0023 4.64967 87.959 4.563C87.9157 4.46767 87.8203 4.38533 87.673 4.316C87.5343 4.24667 87.3133 4.212 87.01 4.212C86.5507 4.212 86.165 4.31167 85.853 4.511C85.541 4.70167 85.307 4.96167 85.151 5.291C84.995 5.61167 84.917 5.97567 84.917 6.383C84.917 6.981 85.086 7.46633 85.424 7.839C85.7707 8.21167 86.2603 8.398 86.893 8.398C87.0923 8.398 87.2353 8.385 87.322 8.359C87.4173 8.333 87.4867 8.32 87.53 8.32C87.5993 8.32 87.647 8.35033 87.673 8.411C87.699 8.47167 87.712 8.541 87.712 8.619C87.712 8.66233 87.699 8.71433 87.673 8.775C87.647 8.83567 87.582 8.88767 87.478 8.931C87.2353 9.01767 87.0533 9.10433 86.932 9.191C86.8107 9.269 86.698 9.39467 86.594 9.568L85.424 11.661C85.2507 11.973 85.0817 12.246 84.917 12.48C84.761 12.7053 84.579 12.8787 84.371 13C84.1717 13.1213 83.9203 13.182 83.617 13.182ZM95.0979 9.724C95.0979 9.568 95.1239 9.40333 95.1759 9.23C95.2279 9.048 95.3146 8.90933 95.4359 8.814L98.8549 8.684C98.8549 8.84 98.8289 9.009 98.7769 9.191C98.7336 9.36433 98.6469 9.49867 98.5169 9.594L95.0979 9.724ZM103.611 13L103.455 12.558L103.754 12.48C104.083 12.3847 104.304 12.259 104.417 12.103C104.53 11.947 104.586 11.6697 104.586 11.271V4.849C104.586 4.641 104.491 4.537 104.3 4.537H103.546L103.39 4.056C103.615 3.96933 103.901 3.88267 104.248 3.796C104.603 3.70933 104.985 3.63567 105.392 3.575C105.808 3.51433 106.215 3.484 106.614 3.484C107.455 3.484 108.131 3.601 108.642 3.835C109.162 4.06033 109.539 4.368 109.773 4.758C110.016 5.148 110.137 5.577 110.137 6.045C110.137 6.50433 110.024 6.93333 109.799 7.332C109.582 7.73067 109.24 8.04267 108.772 8.268C109.361 8.45867 109.816 8.75333 110.137 9.152C110.458 9.542 110.618 9.971 110.618 10.439C110.618 10.933 110.505 11.375 110.28 11.765C110.063 12.1463 109.708 12.4497 109.214 12.675C108.72 12.8917 108.061 13 107.238 13H103.611ZM107.316 12.324C107.94 12.324 108.421 12.142 108.759 11.778C109.097 11.4053 109.266 10.9373 109.266 10.374C109.266 10.0447 109.184 9.74567 109.019 9.477C108.854 9.19967 108.616 8.97867 108.304 8.814C108.001 8.64933 107.632 8.567 107.199 8.567C107.043 8.567 106.887 8.54967 106.731 8.515C106.575 8.48033 106.449 8.44133 106.354 8.398C106.285 8.36333 106.233 8.32 106.198 8.268C106.172 8.216 106.159 8.164 106.159 8.112C106.159 7.956 106.22 7.878 106.341 7.878C106.393 7.878 106.462 7.89533 106.549 7.93C106.644 7.956 106.792 7.969 106.991 7.969C107.589 7.969 108.048 7.79133 108.369 7.436C108.69 7.08067 108.85 6.62567 108.85 6.071C108.85 5.54233 108.672 5.10033 108.317 4.745C107.962 4.38967 107.437 4.212 106.744 4.212C106.484 4.212 106.293 4.24667 106.172 4.316C106.051 4.37667 105.968 4.45467 105.925 4.55C105.89 4.64533 105.873 4.732 105.873 4.81V10.621C105.873 11.0283 105.921 11.349 106.016 11.583C106.12 11.8083 106.25 11.9773 106.406 12.09C106.562 12.194 106.718 12.259 106.874 12.285C107.039 12.311 107.186 12.324 107.316 12.324ZM115.594 13L115.438 12.558L115.737 12.48C116.066 12.3847 116.287 12.259 116.4 12.103C116.513 11.947 116.569 11.6697 116.569 11.271V5.395C116.569 4.98767 116.513 4.71033 116.4 4.563C116.287 4.407 116.066 4.28133 115.737 4.186L115.438 4.108L115.594 3.666H118.441L118.61 3.874L118.441 4.108C118.224 4.394 118.073 4.69733 117.986 5.018C117.899 5.33 117.856 5.75033 117.856 6.279V7.865H122.107V5.395C122.107 4.98767 122.051 4.71033 121.938 4.563C121.825 4.407 121.604 4.28133 121.275 4.186L120.976 4.108L121.132 3.666H123.979L124.148 3.874L123.979 4.108C123.762 4.394 123.611 4.69733 123.524 5.018C123.437 5.33 123.394 5.75033 123.394 6.279V11.362C123.394 11.7433 123.446 12.0077 123.55 12.155C123.663 12.2937 123.875 12.4107 124.187 12.506L124.46 12.584L124.317 13H121.132L120.976 12.558L121.275 12.48C121.604 12.3847 121.825 12.259 121.938 12.103C122.051 11.947 122.107 11.6697 122.107 11.271V8.658H117.856V11.362C117.856 11.7433 117.908 12.0077 118.012 12.155C118.125 12.2937 118.337 12.4107 118.649 12.506L118.922 12.584L118.779 13H115.594ZM124.997 13L124.841 12.558L125.14 12.48C125.374 12.4193 125.56 12.3457 125.699 12.259C125.837 12.1723 125.954 12.0553 126.05 11.908C126.154 11.752 126.249 11.5397 126.336 11.271L128.377 5.395C128.42 5.25633 128.455 5.13933 128.481 5.044C128.507 4.94 128.52 4.84467 128.52 4.758C128.52 4.59333 128.472 4.472 128.377 4.394C128.281 4.30733 128.134 4.238 127.935 4.186L127.636 4.108L127.792 3.666H130.301L132.914 11.206C133.018 11.492 133.122 11.726 133.226 11.908C133.338 12.09 133.464 12.246 133.603 12.376C133.741 12.506 133.902 12.6447 134.084 12.792L133.915 13H130.99L130.834 12.558L131.133 12.48C131.332 12.428 131.479 12.363 131.575 12.285C131.67 12.1983 131.718 12.0727 131.718 11.908C131.718 11.8213 131.705 11.7303 131.679 11.635C131.653 11.531 131.618 11.4097 131.575 11.271L130.951 9.451H127.948L127.636 10.4C127.54 10.6947 127.467 10.9503 127.415 11.167C127.363 11.3837 127.337 11.583 127.337 11.765C127.337 12.0597 127.397 12.324 127.519 12.558L127.636 12.792L127.389 13H124.997ZM128.221 8.645H130.678L129.43 5.005L128.221 8.645ZM134.904 13L134.748 12.558L135.06 12.48C135.276 12.4107 135.441 12.337 135.554 12.259C135.675 12.181 135.757 12.0683 135.801 11.921C135.853 11.765 135.879 11.5483 135.879 11.271V5.395C135.879 4.98767 135.822 4.706 135.71 4.55C135.597 4.394 135.38 4.27267 135.06 4.186L134.748 4.108L134.904 3.666H137.764L137.933 3.874L137.764 4.108C137.564 4.40267 137.417 4.71033 137.322 5.031C137.226 5.343 137.179 5.759 137.179 6.279V11.271C137.179 11.687 137.231 11.9557 137.335 12.077C137.439 12.1983 137.66 12.259 137.998 12.259H139.896C140.242 12.259 140.476 12.1983 140.598 12.077C140.719 11.9557 140.78 11.687 140.78 11.271V5.395C140.78 4.98767 140.723 4.706 140.611 4.55C140.498 4.394 140.277 4.27267 139.948 4.186L139.636 4.108L139.805 3.666H142.613L142.769 3.874L142.613 4.108C142.396 4.394 142.24 4.69733 142.145 5.018C142.049 5.33867 142.002 5.759 142.002 6.279V11.362C142.002 11.726 142.045 11.9687 142.132 12.09C142.218 12.2027 142.396 12.259 142.665 12.259H144.797C145.135 12.259 145.356 12.1983 145.46 12.077C145.564 11.9557 145.616 11.687 145.616 11.271V5.395C145.616 4.98767 145.559 4.706 145.447 4.55C145.343 4.394 145.126 4.27267 144.797 4.186L144.485 4.108L144.628 3.666H147.488L147.657 3.874L147.488 4.108C147.288 4.40267 147.141 4.71033 147.046 5.031C146.959 5.343 146.916 5.759 146.916 6.279V11.362C146.916 11.7433 146.968 12.0077 147.072 12.155C147.176 12.3023 147.384 12.4193 147.696 12.506L147.969 12.584L147.826 13H134.904ZM155.399 13.325L155.295 13.182C155.2 13.0607 155.018 13 154.749 13H149.276L149.133 12.584L149.406 12.506C149.718 12.4107 149.926 12.2937 150.03 12.155C150.143 12.0077 150.199 11.7433 150.199 11.362V6.279C150.199 5.75033 150.151 5.33 150.056 5.018C149.969 4.706 149.822 4.40267 149.614 4.108L149.445 3.874L149.614 3.666H153.592C154.337 3.666 154.831 3.575 155.074 3.393L155.308 3.224L155.516 3.393V5.707L155.074 5.863L154.996 5.564C154.918 5.252 154.827 5.01367 154.723 4.849C154.619 4.68433 154.48 4.57167 154.307 4.511C154.134 4.44167 153.891 4.407 153.579 4.407H152.318C151.98 4.407 151.755 4.472 151.642 4.602C151.538 4.72333 151.486 4.98767 151.486 5.395V7.891H153.137C153.336 7.891 153.514 7.84767 153.67 7.761C153.835 7.67433 153.999 7.51833 154.164 7.293L154.268 7.15L154.528 7.293V9.516L154.086 9.672L154.008 9.373C153.93 9.06967 153.787 8.87033 153.579 8.775C153.38 8.67967 153.05 8.632 152.591 8.632H151.486V11.271C151.486 11.6697 151.538 11.934 151.642 12.064C151.755 12.194 151.98 12.259 152.318 12.259H153.722C154.034 12.259 154.277 12.2287 154.45 12.168C154.623 12.0987 154.762 11.9817 154.866 11.817C154.97 11.6437 155.061 11.4053 155.139 11.102L155.217 10.803L155.659 10.959V13.182L155.399 13.325ZM156.781 13L156.625 12.558L156.937 12.48C157.154 12.4107 157.323 12.337 157.444 12.259C157.566 12.181 157.648 12.0683 157.691 11.921C157.743 11.765 157.769 11.5483 157.769 11.271V5.395C157.769 4.98767 157.713 4.706 157.6 4.55C157.488 4.394 157.267 4.27267 156.937 4.186L156.625 4.108L156.781 3.666H159.641L159.81 3.874L159.641 4.108C159.425 4.394 159.273 4.69733 159.186 5.018C159.1 5.33867 159.056 5.759 159.056 6.279V10.049L163.437 5.291C163.429 4.927 163.364 4.67133 163.242 4.524C163.13 4.37667 162.917 4.264 162.605 4.186L162.319 4.108L162.475 3.666H165.309L165.504 3.874L165.309 4.108C165.084 4.38533 164.928 4.68867 164.841 5.018C164.755 5.33867 164.711 5.759 164.711 6.279V11.362C164.711 11.7433 164.768 12.0077 164.88 12.155C164.993 12.3023 165.21 12.4193 165.53 12.506L165.79 12.584L165.66 13H162.475L162.319 12.558L162.605 12.48C162.935 12.3933 163.156 12.2763 163.268 12.129C163.381 11.973 163.437 11.687 163.437 11.271V6.344L159.056 11.115V11.362C159.056 11.7433 159.108 12.0077 159.212 12.155C159.325 12.2937 159.533 12.4107 159.836 12.506L160.109 12.584L159.979 13H156.781ZM161.214 2.574C160.53 2.574 159.979 2.47433 159.563 2.275C159.147 2.067 158.939 1.76367 158.939 1.365C158.939 1.079 159.048 0.853666 159.264 0.689C159.481 0.524333 159.724 0.442 159.992 0.442C160.07 0.442 160.135 0.463666 160.187 0.507C160.239 0.541666 160.265 0.580666 160.265 0.624C160.265 0.684666 160.231 0.758333 160.161 0.844999C160.092 0.931666 160.057 1.08767 160.057 1.313C160.057 1.50367 160.135 1.67267 160.291 1.82C160.456 1.95867 160.764 2.028 161.214 2.028C161.648 2.028 161.951 1.963 162.124 1.833C162.306 1.69433 162.397 1.52967 162.397 1.339C162.397 1.105 162.358 0.944666 162.28 0.858C162.211 0.762666 162.176 0.684666 162.176 0.624C162.176 0.580666 162.202 0.541666 162.254 0.507C162.306 0.463666 162.376 0.442 162.462 0.442C162.722 0.442 162.956 0.524333 163.164 0.689C163.372 0.853666 163.476 1.079 163.476 1.365C163.476 1.76367 163.273 2.067 162.865 2.275C162.458 2.47433 161.908 2.574 161.214 2.574ZM169.974 13L169.805 12.792L169.974 12.558C170.191 12.272 170.343 11.973 170.429 11.661C170.525 11.3403 170.572 10.9157 170.572 10.387V6.279C170.572 5.759 170.525 5.33867 170.429 5.018C170.343 4.69733 170.191 4.394 169.974 4.108L169.805 3.874L169.974 3.666H177.592L177.761 3.874L177.592 4.108C177.376 4.394 177.22 4.69733 177.124 5.018C177.038 5.33867 176.994 5.759 176.994 6.279V11.362C176.994 11.7433 177.046 12.0077 177.15 12.155C177.263 12.2937 177.475 12.4107 177.787 12.506L178.073 12.584L177.93 13H174.758L174.589 12.558L174.875 12.48C175.101 12.4107 175.274 12.337 175.395 12.259C175.517 12.181 175.599 12.0683 175.642 11.921C175.694 11.765 175.72 11.5483 175.72 11.271V5.395C175.72 4.98767 175.664 4.719 175.551 4.589C175.447 4.459 175.222 4.394 174.875 4.394H172.678C172.34 4.394 172.115 4.459 172.002 4.589C171.898 4.719 171.846 4.98767 171.846 5.395V11.271C171.846 11.5483 171.868 11.765 171.911 11.921C171.963 12.0683 172.05 12.181 172.171 12.259C172.293 12.337 172.462 12.4107 172.678 12.48L172.99 12.558L172.834 13H169.974ZM178.254 13L178.098 12.558L178.397 12.48C178.631 12.4193 178.817 12.3457 178.956 12.259C179.094 12.1723 179.211 12.0553 179.307 11.908C179.411 11.752 179.506 11.5397 179.593 11.271L181.634 5.395C181.677 5.25633 181.712 5.13933 181.738 5.044C181.764 4.94 181.777 4.84467 181.777 4.758C181.777 4.59333 181.729 4.472 181.634 4.394C181.538 4.30733 181.391 4.238 181.192 4.186L180.893 4.108L181.049 3.666H183.558L186.171 11.206C186.275 11.492 186.379 11.726 186.483 11.908C186.595 12.09 186.721 12.246 186.86 12.376C186.998 12.506 187.159 12.6447 187.341 12.792L187.172 13H184.247L184.091 12.558L184.39 12.48C184.589 12.428 184.736 12.363 184.832 12.285C184.927 12.1983 184.975 12.0727 184.975 11.908C184.975 11.8213 184.962 11.7303 184.936 11.635C184.91 11.531 184.875 11.4097 184.832 11.271L184.208 9.451H181.205L180.893 10.4C180.797 10.6947 180.724 10.9503 180.672 11.167C180.62 11.3837 180.594 11.583 180.594 11.765C180.594 12.0597 180.654 12.324 180.776 12.558L180.893 12.792L180.646 13H178.254ZM181.478 8.645H183.935L182.687 5.005L181.478 8.645ZM187.822 13L187.679 12.558L187.978 12.48C188.308 12.3847 188.537 12.259 188.667 12.103C188.797 11.947 188.875 11.6697 188.901 11.271L189.252 6.123C189.261 6.08833 189.27 6.006 189.278 5.876C189.287 5.73733 189.296 5.59433 189.304 5.447C189.313 5.29967 189.317 5.19133 189.317 5.122C189.317 4.81867 189.261 4.60633 189.148 4.485C189.044 4.355 188.849 4.25533 188.563 4.186L188.264 4.108L188.407 3.666H190.773L193.451 10.205L196.207 3.666H198.079L198.274 3.874L198.118 4.108C197.954 4.342 197.832 4.58467 197.754 4.836C197.685 5.07867 197.65 5.382 197.65 5.746C197.65 5.798 197.655 5.90633 197.663 6.071C197.672 6.23567 197.681 6.40033 197.689 6.565C197.707 6.72967 197.715 6.84667 197.715 6.916L197.975 10.478C198.019 11.0067 198.105 11.453 198.235 11.817C198.365 12.1723 198.578 12.4973 198.872 12.792L198.703 13H195.856L195.7 12.558L195.999 12.48C196.277 12.3933 196.467 12.285 196.571 12.155C196.684 12.0163 196.74 11.8127 196.74 11.544C196.74 11.4833 196.736 11.4053 196.727 11.31C196.727 11.2147 196.723 11.1323 196.714 11.063L196.337 5.642L193.62 12.064H192.918L190.201 5.642L189.915 9.646C189.907 9.79333 189.894 9.958 189.876 10.14C189.868 10.322 189.859 10.4867 189.85 10.634C189.842 10.7727 189.837 10.868 189.837 10.92C189.837 11.284 189.872 11.5917 189.941 11.843C190.019 12.0857 190.141 12.324 190.305 12.558L190.461 12.792L190.266 13H187.822ZM200.782 13.182C200.574 13.182 200.37 13.143 200.171 13.065C199.972 12.987 199.777 12.8527 199.586 12.662L199.794 12.285C199.898 12.3543 199.989 12.402 200.067 12.428C200.145 12.454 200.227 12.467 200.314 12.467C200.427 12.467 200.522 12.428 200.6 12.35C200.678 12.2633 200.747 12.1723 200.808 12.077L202.225 9.607C202.294 9.46833 202.364 9.347 202.433 9.243C202.511 9.139 202.611 9.05233 202.732 8.983C202.047 8.80967 201.545 8.476 201.224 7.982C200.903 7.488 200.743 6.93767 200.743 6.331C200.743 5.80233 200.864 5.32567 201.107 4.901C201.358 4.47633 201.757 4.13833 202.303 3.887C202.849 3.627 203.564 3.497 204.448 3.497C204.855 3.497 205.263 3.52733 205.67 3.588C206.077 3.64867 206.454 3.72233 206.801 3.809C207.156 3.89567 207.447 3.98233 207.672 4.069L207.503 4.563H206.749C206.654 4.563 206.58 4.58467 206.528 4.628C206.485 4.66267 206.463 4.74067 206.463 4.862V11.271C206.463 11.6697 206.519 11.9513 206.632 12.116C206.753 12.272 206.979 12.3933 207.308 12.48L207.581 12.558L207.438 13H204.604L204.448 12.792L204.604 12.558C204.803 12.272 204.951 11.973 205.046 11.661C205.141 11.349 205.189 10.9243 205.189 10.387V4.81C205.189 4.732 205.167 4.64967 205.124 4.563C205.081 4.46767 204.985 4.38533 204.838 4.316C204.699 4.24667 204.478 4.212 204.175 4.212C203.716 4.212 203.33 4.31167 203.018 4.511C202.706 4.70167 202.472 4.96167 202.316 5.291C202.16 5.61167 202.082 5.97567 202.082 6.383C202.082 6.981 202.251 7.46633 202.589 7.839C202.936 8.21167 203.425 8.398 204.058 8.398C204.257 8.398 204.4 8.385 204.487 8.359C204.582 8.333 204.652 8.32 204.695 8.32C204.764 8.32 204.812 8.35033 204.838 8.411C204.864 8.47167 204.877 8.541 204.877 8.619C204.877 8.66233 204.864 8.71433 204.838 8.775C204.812 8.83567 204.747 8.88767 204.643 8.931C204.4 9.01767 204.218 9.10433 204.097 9.191C203.976 9.269 203.863 9.39467 203.759 9.568L202.589 11.661C202.416 11.973 202.247 12.246 202.082 12.48C201.926 12.7053 201.744 12.8787 201.536 13C201.337 13.1213 201.085 13.182 200.782 13.182ZM210.893 13L210.724 12.792L210.893 12.558C211.11 12.272 211.261 11.973 211.348 11.661C211.435 11.3403 211.478 10.9157 211.478 10.387V5.395C211.478 4.98767 211.448 4.72333 211.387 4.602C211.335 4.472 211.218 4.407 211.036 4.407H210.451C210.148 4.407 209.905 4.44167 209.723 4.511C209.55 4.57167 209.411 4.68433 209.307 4.849C209.212 5.01367 209.121 5.252 209.034 5.564L208.956 5.863L208.514 5.707V3.393L208.722 3.224L208.956 3.393C209.199 3.575 209.693 3.666 210.438 3.666H213.805C214.55 3.666 215.044 3.575 215.287 3.393L215.521 3.224L215.729 3.393V5.707L215.287 5.863L215.209 5.564C215.131 5.252 215.04 5.01367 214.936 4.849C214.832 4.68433 214.693 4.57167 214.52 4.511C214.347 4.44167 214.104 4.407 213.792 4.407H213.207C213.025 4.407 212.904 4.472 212.843 4.602C212.791 4.72333 212.765 4.98767 212.765 5.395V11.271C212.765 11.6697 212.821 11.947 212.934 12.103C213.055 12.259 213.276 12.3847 213.597 12.48L213.896 12.558L213.74 13H210.893ZM216.284 13L216.128 12.558L216.44 12.48C216.657 12.4107 216.826 12.337 216.947 12.259C217.069 12.181 217.151 12.0683 217.194 11.921C217.246 11.765 217.272 11.5483 217.272 11.271V5.395C217.272 4.98767 217.216 4.706 217.103 4.55C216.991 4.394 216.77 4.27267 216.44 4.186L216.128 4.108L216.284 3.666H219.144L219.313 3.874L219.144 4.108C218.928 4.394 218.776 4.69733 218.689 5.018C218.603 5.33867 218.559 5.759 218.559 6.279V10.049L222.94 5.291C222.932 4.927 222.867 4.67133 222.745 4.524C222.633 4.37667 222.42 4.264 222.108 4.186L221.822 4.108L221.978 3.666H224.812L225.007 3.874L224.812 4.108C224.587 4.38533 224.431 4.68867 224.344 5.018C224.258 5.33867 224.214 5.759 224.214 6.279V11.362C224.214 11.7433 224.271 12.0077 224.383 12.155C224.496 12.3023 224.713 12.4193 225.033 12.506L225.293 12.584L225.163 13H221.978L221.822 12.558L222.108 12.48C222.438 12.3933 222.659 12.2763 222.771 12.129C222.884 11.973 222.94 11.687 222.94 11.271V6.344L218.559 11.115V11.362C218.559 11.7433 218.611 12.0077 218.715 12.155C218.828 12.2937 219.036 12.4107 219.339 12.506L219.612 12.584L219.482 13H216.284Z" fill="#A09081"/>
</svg>
