<svg width="106" height="12" viewBox="0 0 106 12" fill="none" xmlns="http://www.w3.org/2000/svg">
<path d="M8.31 11.21C7.84 11.21 7.445 11.085 7.125 10.835C6.815 10.575 6.545 10.21 6.315 9.74L4.95 7.01C4.79 6.68 4.585 6.425 4.335 6.245C4.085 6.065 3.79 5.92 3.45 5.81C3.4 5.79 3.375 5.735 3.375 5.645C3.375 5.565 3.395 5.485 3.435 5.405C3.475 5.325 3.56 5.285 3.69 5.285H4.035L6.48 2.165C6.65 1.955 6.74 1.71 6.75 1.43C6.77 1.15 6.705 0.91 6.555 0.709999L6.39 0.47L6.66 0.229999H9.24L9.42 0.74L9.06 0.83C8.84 0.87 8.64 0.955 8.46 1.085C8.28 1.205 8.09 1.39 7.89 1.64L4.86 5.51C5.35 5.6 5.755 5.775 6.075 6.035C6.395 6.295 6.68 6.665 6.93 7.145L8.34 9.935C8.42 10.075 8.505 10.185 8.595 10.265C8.685 10.345 8.795 10.385 8.925 10.385C9.025 10.385 9.12 10.37 9.21 10.34C9.31 10.31 9.41 10.255 9.51 10.175L9.75 10.61C9.54 10.83 9.315 10.985 9.075 11.075C8.835 11.165 8.58 11.21 8.31 11.21ZM0.405 11L0.225 10.49L0.585 10.4C0.835 10.32 1.03 10.235 1.17 10.145C1.31 10.055 1.405 9.925 1.455 9.755C1.515 9.575 1.545 9.325 1.545 9.005V2.225C1.545 1.755 1.48 1.43 1.35 1.25C1.22 1.07 0.965 0.929999 0.585 0.83L0.225 0.74L0.405 0.229999H3.705L3.9 0.47L3.705 0.74C3.455 1.07 3.28 1.42 3.18 1.79C3.08 2.16 3.03 2.645 3.03 3.245V9.11C3.03 9.55 3.09 9.855 3.21 10.025C3.34 10.185 3.58 10.32 3.93 10.43L4.245 10.52L4.095 11H0.405ZM10.7423 11L10.5773 10.535L10.8773 10.43C11.2273 10.33 11.4623 10.205 11.5823 10.055C11.7023 9.895 11.7623 9.6 11.7623 9.17V5.375C11.7623 4.945 11.7023 4.65 11.5823 4.49C11.4623 4.33 11.2273 4.2 10.8773 4.1L10.5773 3.995L10.7423 3.545H13.7273L13.9073 3.755L13.7273 3.995C13.5073 4.295 13.3473 4.62 13.2473 4.97C13.1573 5.31 13.1123 5.76 13.1123 6.32V6.815H16.7273V5.375C16.7273 4.945 16.6673 4.65 16.5473 4.49C16.4273 4.33 16.1923 4.2 15.8423 4.1L15.5123 3.995L15.6923 3.545H18.6773L18.8723 3.755L18.6773 3.995C18.4573 4.295 18.3023 4.62 18.2123 4.97C18.1223 5.31 18.0773 5.76 18.0773 6.32V9.275C18.0773 9.685 18.1323 9.96 18.2423 10.1C18.3623 10.24 18.5823 10.36 18.9023 10.46L19.1723 10.55L19.0373 11H15.6923L15.5123 10.535L15.8423 10.43C16.1923 10.33 16.4273 10.205 16.5473 10.055C16.6673 9.895 16.7273 9.6 16.7273 9.17V7.685H13.1123V9.275C13.1123 9.685 13.1723 9.96 13.2923 10.1C13.4123 10.24 13.6323 10.36 13.9523 10.46L14.2523 10.55L14.1023 11H10.7423ZM20.6736 11L20.5236 10.535L20.8236 10.43C21.1736 10.33 21.4036 10.205 21.5136 10.055C21.6336 9.895 21.6936 9.6 21.6936 9.17V5.375C21.6936 4.945 21.6336 4.65 21.5136 4.49C21.4036 4.33 21.1736 4.2 20.8236 4.1L20.5236 3.995L20.6736 3.545H23.6886L23.8686 3.755L23.6886 3.995C23.4686 4.305 23.3086 4.63 23.2086 4.97C23.1086 5.3 23.0586 5.75 23.0586 6.32V8.435L26.6736 5.015C26.6236 4.695 26.5336 4.48 26.4036 4.37C26.2836 4.26 26.1086 4.17 25.8786 4.1L25.5786 3.995L25.7286 3.545H28.7436L28.9086 3.755L28.7436 3.995C28.5236 4.305 28.3636 4.63 28.2636 4.97C28.1636 5.3 28.1136 5.75 28.1136 6.32V9.275C28.1136 9.555 28.1386 9.77 28.1886 9.92C28.2386 10.06 28.3236 10.17 28.4436 10.25C28.5736 10.32 28.7436 10.39 28.9536 10.46L29.2536 10.55L29.1036 11H25.7286L25.5786 10.535L25.8786 10.43C26.2286 10.33 26.4636 10.205 26.5836 10.055C26.7036 9.895 26.7636 9.6 26.7636 9.17V6.155L23.1336 9.56C23.1836 9.89 23.2686 10.11 23.3886 10.22C23.5186 10.33 23.6936 10.41 23.9136 10.46L24.1986 10.55L24.0636 11H20.6736ZM30.7668 11L30.6018 10.775L30.7668 10.535C30.9168 10.335 31.0368 10.14 31.1268 9.95C31.2268 9.76 31.2968 9.545 31.3368 9.305C31.3768 9.055 31.3968 8.74 31.3968 8.36V6.41C31.3968 5.85 31.3468 5.395 31.2468 5.045C31.1568 4.695 30.9968 4.38 30.7668 4.1L30.6018 3.83L30.7668 3.62H34.4418C34.8418 3.62 35.1718 3.6 35.4318 3.56C35.6918 3.52 35.8918 3.45 36.0318 3.35L36.2568 3.155L36.4818 3.35V5.81L36.0318 5.96L35.9268 5.645C35.8468 5.305 35.7518 5.05 35.6418 4.88C35.5318 4.7 35.3818 4.58 35.1918 4.52C35.0118 4.45 34.7568 4.415 34.4268 4.415H33.6168C33.2568 4.415 33.0168 4.48 32.8968 4.61C32.7868 4.74 32.7318 5.02 32.7318 5.45V9.17C32.7318 9.6 32.7918 9.895 32.9118 10.055C33.0318 10.205 33.2668 10.33 33.6168 10.43L33.9318 10.535L33.7668 11H30.7668ZM40.2155 11.21C39.7455 11.21 39.3055 11.075 38.8955 10.805C38.4855 10.535 38.1555 10.13 37.9055 9.59C37.6555 9.05 37.5305 8.375 37.5305 7.565C37.5305 6.695 37.6855 5.945 37.9955 5.315C38.3155 4.685 38.7655 4.2 39.3455 3.86C39.9355 3.52 40.6255 3.35 41.4155 3.35C41.8855 3.35 42.3755 3.405 42.8855 3.515C43.3955 3.615 43.9055 3.685 44.4155 3.725L44.5805 3.92L44.4005 4.19C44.3405 4.28 44.2905 4.37 44.2505 4.46C44.2205 4.54 44.2055 4.645 44.2055 4.775V9.68C44.2055 9.99 44.3555 10.145 44.6555 10.145C44.9055 10.145 45.1555 10.055 45.4055 9.875L45.6905 10.265C45.4305 10.555 45.1505 10.785 44.8505 10.955C44.5605 11.125 44.2855 11.21 44.0255 11.21C43.6155 11.21 43.3205 11.085 43.1405 10.835C42.9605 10.585 42.8705 10.18 42.8705 9.62C42.4405 10.23 42.0055 10.65 41.5655 10.88C41.1355 11.1 40.6855 11.21 40.2155 11.21ZM40.8155 10.055C41.1955 10.055 41.5605 9.945 41.9105 9.725C42.2705 9.505 42.5905 9.16 42.8705 8.69V4.64C42.4105 4.33 41.9205 4.175 41.4005 4.175C40.6705 4.175 40.1055 4.45 39.7055 5C39.3055 5.54 39.1055 6.3 39.1055 7.28C39.1055 7.96 39.1855 8.505 39.3455 8.915C39.5055 9.315 39.7155 9.605 39.9755 9.785C40.2455 9.965 40.5255 10.055 40.8155 10.055ZM50.5041 11L50.3091 10.76L50.5041 10.49C50.7541 10.16 50.9291 9.815 51.0291 9.455C51.1391 9.085 51.1941 8.595 51.1941 7.985V3.245C51.1941 2.645 51.1391 2.16 51.0291 1.79C50.9291 1.42 50.7541 1.07 50.5041 0.74L50.3091 0.47L50.5041 0.229999H59.2941L59.4891 0.47L59.2941 0.74C59.0441 1.07 58.8641 1.42 58.7541 1.79C58.6541 2.16 58.6041 2.645 58.6041 3.245V9.11C58.6041 9.55 58.6641 9.855 58.7841 10.025C58.9141 10.185 59.1591 10.32 59.5191 10.43L59.8491 10.52L59.6841 11H56.0241L55.8291 10.49L56.1591 10.4C56.4191 10.32 56.6191 10.235 56.7591 10.145C56.8991 10.055 56.9941 9.925 57.0441 9.755C57.1041 9.575 57.1341 9.325 57.1341 9.005V2.225C57.1341 1.755 57.0691 1.445 56.9391 1.295C56.8191 1.145 56.5591 1.07 56.1591 1.07H53.6241C53.2341 1.07 52.9741 1.145 52.8441 1.295C52.7241 1.445 52.6641 1.755 52.6641 2.225V9.005C52.6641 9.325 52.6891 9.575 52.7391 9.755C52.7991 9.925 52.8991 10.055 53.0391 10.145C53.1791 10.235 53.3741 10.32 53.6241 10.4L53.9841 10.49L53.8041 11H50.5041ZM63.4772 11.21C63.0072 11.21 62.5672 11.075 62.1572 10.805C61.7472 10.535 61.4172 10.13 61.1672 9.59C60.9172 9.05 60.7922 8.375 60.7922 7.565C60.7922 6.695 60.9472 5.945 61.2572 5.315C61.5772 4.685 62.0272 4.2 62.6072 3.86C63.1972 3.52 63.8872 3.35 64.6772 3.35C65.1472 3.35 65.6372 3.405 66.1472 3.515C66.6572 3.615 67.1672 3.685 67.6772 3.725L67.8422 3.92L67.6622 4.19C67.6022 4.28 67.5522 4.37 67.5122 4.46C67.4822 4.54 67.4672 4.645 67.4672 4.775V9.68C67.4672 9.99 67.6172 10.145 67.9172 10.145C68.1672 10.145 68.4172 10.055 68.6672 9.875L68.9522 10.265C68.6922 10.555 68.4122 10.785 68.1122 10.955C67.8222 11.125 67.5472 11.21 67.2872 11.21C66.8772 11.21 66.5822 11.085 66.4022 10.835C66.2222 10.585 66.1322 10.18 66.1322 9.62C65.7022 10.23 65.2672 10.65 64.8272 10.88C64.3972 11.1 63.9472 11.21 63.4772 11.21ZM64.0772 10.055C64.4572 10.055 64.8222 9.945 65.1722 9.725C65.5322 9.505 65.8522 9.16 66.1322 8.69V4.64C65.6722 4.33 65.1822 4.175 64.6622 4.175C63.9322 4.175 63.3672 4.45 62.9672 5C62.5672 5.54 62.3672 6.3 62.3672 7.28C62.3672 7.96 62.4472 8.505 62.6072 8.915C62.7672 9.315 62.9772 9.605 63.2372 9.785C63.5072 9.965 63.7872 10.055 64.0772 10.055ZM69.5749 11L69.3949 10.535L69.7399 10.43C70.0899 10.33 70.3249 10.19 70.4449 10.01C70.5649 9.82 70.6499 9.54 70.6999 9.17L71.2999 5.105C71.3499 4.815 71.2999 4.595 71.1499 4.445C71.0099 4.285 70.7849 4.17 70.4749 4.1L70.1899 3.995L70.3099 3.545H72.8449L74.9899 8.12L77.1799 3.545H79.1299L79.3549 3.755L79.1599 3.995C78.9799 4.245 78.8349 4.515 78.7249 4.805C78.6249 5.095 78.6099 5.415 78.6799 5.765L79.1899 8.315C79.2999 8.875 79.4099 9.35 79.5199 9.74C79.6299 10.12 79.8399 10.47 80.1499 10.79L79.9699 11H76.9399L76.7899 10.535L77.0749 10.43C77.4449 10.33 77.6849 10.16 77.7949 9.92C77.9149 9.68 77.9349 9.35 77.8549 8.93L77.2549 5.195L75.0049 10.01H74.5399L72.2749 5.195L71.7049 8.795C71.6549 9.135 71.6799 9.45 71.7799 9.74C71.8799 10.03 72.0099 10.295 72.1699 10.535L72.3499 10.79L72.1549 11H69.5749ZM81.861 11.21C81.641 11.21 81.426 11.165 81.216 11.075C81.006 10.985 80.801 10.845 80.601 10.655L80.826 10.235C80.926 10.305 81.016 10.355 81.096 10.385C81.186 10.415 81.281 10.43 81.381 10.43C81.501 10.43 81.596 10.395 81.666 10.325C81.746 10.255 81.826 10.155 81.906 10.025L82.746 8.57C82.856 8.37 82.976 8.2 83.106 8.06C83.236 7.92 83.386 7.805 83.556 7.715C82.946 7.575 82.471 7.32 82.131 6.95C81.791 6.58 81.621 6.13 81.621 5.6C81.621 4.91 81.901 4.365 82.461 3.965C83.021 3.565 83.926 3.365 85.176 3.365C85.636 3.365 86.096 3.395 86.556 3.455C87.026 3.515 87.456 3.59 87.846 3.68C88.246 3.77 88.571 3.865 88.821 3.965L88.656 4.49H87.846C87.746 4.49 87.671 4.51 87.621 4.55C87.571 4.59 87.546 4.675 87.546 4.805V9.14C87.546 9.57 87.606 9.87 87.726 10.04C87.846 10.2 88.076 10.33 88.416 10.43L88.746 10.535L88.596 11H85.551L85.386 10.79L85.551 10.535C85.781 10.245 85.941 9.93 86.031 9.59C86.131 9.24 86.181 8.785 86.181 8.225V4.775C86.181 4.685 86.156 4.595 86.106 4.505C86.066 4.405 85.966 4.32 85.806 4.25C85.646 4.18 85.396 4.145 85.056 4.145C84.376 4.145 83.871 4.29 83.541 4.58C83.221 4.86 83.061 5.23 83.061 5.69C83.061 6.15 83.201 6.51 83.481 6.77C83.761 7.03 84.156 7.16 84.666 7.16C84.886 7.16 85.046 7.145 85.146 7.115C85.246 7.075 85.316 7.055 85.356 7.055C85.486 7.055 85.551 7.14 85.551 7.31C85.551 7.42 85.481 7.52 85.341 7.61C85.211 7.7 85.031 7.755 84.801 7.775C84.621 7.895 84.476 8.06 84.366 8.27L83.316 10.16C83.106 10.56 82.906 10.835 82.716 10.985C82.526 11.135 82.241 11.21 81.861 11.21ZM91.617 11L91.437 10.775L91.617 10.535C91.847 10.235 92.007 9.915 92.097 9.575C92.187 9.235 92.232 8.785 92.232 8.225V5.45C92.232 5.02 92.197 4.74 92.127 4.61C92.067 4.48 91.942 4.415 91.752 4.415H91.602C91.272 4.415 91.012 4.45 90.822 4.52C90.642 4.58 90.497 4.7 90.387 4.88C90.277 5.05 90.177 5.305 90.087 5.645L89.997 5.96L89.532 5.81V3.35L89.772 3.155L89.997 3.35C90.137 3.45 90.337 3.52 90.597 3.56C90.857 3.6 91.187 3.62 91.587 3.62H94.242C94.652 3.62 94.982 3.6 95.232 3.56C95.492 3.52 95.687 3.45 95.817 3.35L96.042 3.155L96.282 3.35V5.81L95.817 5.96L95.742 5.645C95.652 5.305 95.552 5.05 95.442 4.88C95.332 4.7 95.187 4.58 95.007 4.52C94.827 4.45 94.572 4.415 94.242 4.415H94.062C93.872 4.415 93.742 4.48 93.672 4.61C93.612 4.74 93.582 5.02 93.582 5.45V9.17C93.582 9.6 93.642 9.895 93.762 10.055C93.882 10.205 94.112 10.33 94.452 10.43L94.797 10.535L94.617 11H91.617ZM97.1385 11L96.9885 10.535L97.2885 10.43C97.6385 10.33 97.8685 10.205 97.9785 10.055C98.0985 9.895 98.1585 9.6 98.1585 9.17V5.375C98.1585 4.945 98.0985 4.65 97.9785 4.49C97.8685 4.33 97.6385 4.2 97.2885 4.1L96.9885 3.995L97.1385 3.545H100.153L100.333 3.755L100.153 3.995C99.9335 4.305 99.7735 4.63 99.6735 4.97C99.5735 5.3 99.5235 5.75 99.5235 6.32V8.435L103.138 5.015C103.088 4.695 102.998 4.48 102.868 4.37C102.748 4.26 102.573 4.17 102.343 4.1L102.043 3.995L102.193 3.545H105.208L105.373 3.755L105.208 3.995C104.988 4.305 104.828 4.63 104.728 4.97C104.628 5.3 104.578 5.75 104.578 6.32V9.275C104.578 9.555 104.603 9.77 104.653 9.92C104.703 10.06 104.788 10.17 104.908 10.25C105.038 10.32 105.208 10.39 105.418 10.46L105.718 10.55L105.568 11H102.193L102.043 10.535L102.343 10.43C102.693 10.33 102.928 10.205 103.048 10.055C103.168 9.895 103.228 9.6 103.228 9.17V6.155L99.5985 9.56C99.6485 9.89 99.7335 10.11 99.8535 10.22C99.9835 10.33 100.158 10.41 100.378 10.46L100.663 10.55L100.528 11H97.1385Z" fill="white"/>
</svg>
