<svg width="177" height="19" viewBox="0 0 177 19" fill="none" xmlns="http://www.w3.org/2000/svg">
<path d="M13.85 18.35C13.0667 18.35 12.4083 18.1417 11.875 17.725C11.3583 17.2917 10.9083 16.6833 10.525 15.9L8.25 11.35C7.98333 10.8 7.64167 10.375 7.225 10.075C6.80833 9.775 6.31667 9.53333 5.75 9.35C5.66667 9.31667 5.625 9.225 5.625 9.075C5.625 8.94167 5.65833 8.80833 5.725 8.675C5.79167 8.54167 5.93333 8.475 6.15 8.475H6.725L10.8 3.275C11.0833 2.925 11.2333 2.51667 11.25 2.05C11.2833 1.58333 11.175 1.18333 10.925 0.849999L10.65 0.449999L11.1 0.0499986H15.4L15.7 0.9L15.1 1.05C14.7333 1.11667 14.4 1.25833 14.1 1.475C13.8 1.675 13.4833 1.98333 13.15 2.4L8.1 8.85C8.91667 9 9.59167 9.29167 10.125 9.725C10.6583 10.1583 11.1333 10.775 11.55 11.575L13.9 16.225C14.0333 16.4583 14.175 16.6417 14.325 16.775C14.475 16.9083 14.6583 16.975 14.875 16.975C15.0417 16.975 15.2 16.95 15.35 16.9C15.5167 16.85 15.6833 16.7583 15.85 16.625L16.25 17.35C15.9 17.7167 15.525 17.975 15.125 18.125C14.725 18.275 14.3 18.35 13.85 18.35ZM0.675 18L0.375 17.15L0.975 17C1.39167 16.8667 1.71667 16.725 1.95 16.575C2.18333 16.425 2.34167 16.2083 2.425 15.925C2.525 15.625 2.575 15.2083 2.575 14.675V3.375C2.575 2.59167 2.46667 2.05 2.25 1.75C2.03333 1.45 1.60833 1.21667 0.975 1.05L0.375 0.9L0.675 0.0499986H6.175L6.5 0.449999L6.175 0.9C5.75833 1.45 5.46667 2.03333 5.3 2.65C5.13333 3.26667 5.05 4.075 5.05 5.075V14.85C5.05 15.5833 5.15 16.0917 5.35 16.375C5.56667 16.6417 5.96667 16.8667 6.55 17.05L7.075 17.2L6.825 18H0.675ZM17.9039 18L17.6289 17.225L18.1289 17.05C18.7122 16.8833 19.1039 16.675 19.3039 16.425C19.5039 16.1583 19.6039 15.6667 19.6039 14.95V8.625C19.6039 7.90833 19.5039 7.41667 19.3039 7.15C19.1039 6.88333 18.7122 6.66667 18.1289 6.5L17.6289 6.325L17.9039 5.575H22.8789L23.1789 5.925L22.8789 6.325C22.5122 6.825 22.2456 7.36667 22.0789 7.95C21.9289 8.51667 21.8539 9.26667 21.8539 10.2V11.025H27.8789V8.625C27.8789 7.90833 27.7789 7.41667 27.5789 7.15C27.3789 6.88333 26.9872 6.66667 26.4039 6.5L25.8539 6.325L26.1539 5.575H31.1289L31.4539 5.925L31.1289 6.325C30.7622 6.825 30.5039 7.36667 30.3539 7.95C30.2039 8.51667 30.1289 9.26667 30.1289 10.2V15.125C30.1289 15.8083 30.2206 16.2667 30.4039 16.5C30.6039 16.7333 30.9706 16.9333 31.5039 17.1L31.9539 17.25L31.7289 18H26.1539L25.8539 17.225L26.4039 17.05C26.9872 16.8833 27.3789 16.675 27.5789 16.425C27.7789 16.1583 27.8789 15.6667 27.8789 14.95V12.475H21.8539V15.125C21.8539 15.8083 21.9539 16.2667 22.1539 16.5C22.3539 16.7333 22.7206 16.9333 23.2539 17.1L23.7539 17.25L23.5039 18H17.9039ZM34.4561 18L34.2061 17.225L34.7061 17.05C35.2894 16.8833 35.6727 16.675 35.8561 16.425C36.0561 16.1583 36.1561 15.6667 36.1561 14.95V8.625C36.1561 7.90833 36.0561 7.41667 35.8561 7.15C35.6727 6.88333 35.2894 6.66667 34.7061 6.5L34.2061 6.325L34.4561 5.575H39.4811L39.7811 5.925L39.4811 6.325C39.1144 6.84167 38.8477 7.38333 38.6811 7.95C38.5144 8.5 38.4311 9.25 38.4311 10.2V13.725L44.4561 8.025C44.3727 7.49167 44.2227 7.13333 44.0061 6.95C43.8061 6.76667 43.5144 6.61667 43.1311 6.5L42.6311 6.325L42.8811 5.575H47.9061L48.1811 5.925L47.9061 6.325C47.5394 6.84167 47.2727 7.38333 47.1061 7.95C46.9394 8.5 46.8561 9.25 46.8561 10.2V15.125C46.8561 15.5917 46.8977 15.95 46.9811 16.2C47.0644 16.4333 47.2061 16.6167 47.4061 16.75C47.6227 16.8667 47.9061 16.9833 48.2561 17.1L48.7561 17.25L48.5061 18H42.8811L42.6311 17.225L43.1311 17.05C43.7144 16.8833 44.1061 16.675 44.3061 16.425C44.5061 16.1583 44.6061 15.6667 44.6061 14.95V9.925L38.5561 15.6C38.6394 16.15 38.7811 16.5167 38.9811 16.7C39.1977 16.8833 39.4894 17.0167 39.8561 17.1L40.3311 17.25L40.1061 18H34.4561ZM51.2779 18L51.0029 17.625L51.2779 17.225C51.5279 16.8917 51.7279 16.5667 51.8779 16.25C52.0446 15.9333 52.1613 15.575 52.2279 15.175C52.2946 14.7583 52.3279 14.2333 52.3279 13.6V10.35C52.3279 9.41667 52.2446 8.65833 52.0779 8.075C51.9279 7.49167 51.6613 6.96667 51.2779 6.5L51.0029 6.05L51.2779 5.7H57.4029C58.0696 5.7 58.6196 5.66667 59.0529 5.6C59.4863 5.53333 59.8196 5.41667 60.0529 5.25L60.4279 4.925L60.8029 5.25V9.35L60.0529 9.6L59.8779 9.075C59.7446 8.50833 59.5863 8.08333 59.4029 7.8C59.2196 7.5 58.9696 7.3 58.6529 7.2C58.3529 7.08333 57.9279 7.025 57.3779 7.025H56.0279C55.4279 7.025 55.0279 7.13333 54.8279 7.35C54.6446 7.56667 54.5529 8.03333 54.5529 8.75V14.95C54.5529 15.6667 54.6529 16.1583 54.8529 16.425C55.0529 16.675 55.4446 16.8833 56.0279 17.05L56.5529 17.225L56.2779 18H51.2779ZM67.0258 18.35C66.2424 18.35 65.5091 18.125 64.8258 17.675C64.1424 17.225 63.5924 16.55 63.1758 15.65C62.7591 14.75 62.5508 13.625 62.5508 12.275C62.5508 10.825 62.8091 9.575 63.3258 8.525C63.8591 7.475 64.6091 6.66667 65.5758 6.1C66.5591 5.53333 67.7091 5.25 69.0258 5.25C69.8091 5.25 70.6258 5.34167 71.4758 5.525C72.3258 5.69167 73.1758 5.80833 74.0258 5.875L74.3008 6.2L74.0008 6.65C73.9008 6.8 73.8174 6.95 73.7508 7.1C73.7008 7.23333 73.6758 7.40833 73.6758 7.625V15.8C73.6758 16.3167 73.9258 16.575 74.4258 16.575C74.8424 16.575 75.2591 16.425 75.6758 16.125L76.1508 16.775C75.7174 17.2583 75.2508 17.6417 74.7508 17.925C74.2674 18.2083 73.8091 18.35 73.3758 18.35C72.6924 18.35 72.2008 18.1417 71.9008 17.725C71.6008 17.3083 71.4508 16.6333 71.4508 15.7C70.7341 16.7167 70.0091 17.4167 69.2758 17.8C68.5591 18.1667 67.8091 18.35 67.0258 18.35ZM68.0258 16.425C68.6591 16.425 69.2674 16.2417 69.8508 15.875C70.4508 15.5083 70.9841 14.9333 71.4508 14.15V7.4C70.6841 6.88333 69.8674 6.625 69.0008 6.625C67.7841 6.625 66.8424 7.08333 66.1758 8C65.5091 8.9 65.1758 10.1667 65.1758 11.8C65.1758 12.9333 65.3091 13.8417 65.5758 14.525C65.8424 15.1917 66.1924 15.675 66.6258 15.975C67.0758 16.275 67.5424 16.425 68.0258 16.425ZM84.1734 18L83.8484 17.6L84.1734 17.15C84.5901 16.6 84.8818 16.025 85.0484 15.425C85.2318 14.8083 85.3234 13.9917 85.3234 12.975V5.075C85.3234 4.075 85.2318 3.26667 85.0484 2.65C84.8818 2.03333 84.5901 1.45 84.1734 0.9L83.8484 0.449999L84.1734 0.0499986H98.8234L99.1484 0.449999L98.8234 0.9C98.4068 1.45 98.1068 2.03333 97.9234 2.65C97.7568 3.26667 97.6734 4.075 97.6734 5.075V14.85C97.6734 15.5833 97.7734 16.0917 97.9734 16.375C98.1901 16.6417 98.5984 16.8667 99.1984 17.05L99.7484 17.2L99.4734 18H93.3734L93.0484 17.15L93.5984 17C94.0318 16.8667 94.3651 16.725 94.5984 16.575C94.8318 16.425 94.9901 16.2083 95.0734 15.925C95.1734 15.625 95.2234 15.2083 95.2234 14.675V3.375C95.2234 2.59167 95.1151 2.075 94.8984 1.825C94.6984 1.575 94.2651 1.45 93.5984 1.45H89.3734C88.7234 1.45 88.2901 1.575 88.0734 1.825C87.8734 2.075 87.7734 2.59167 87.7734 3.375V14.675C87.7734 15.2083 87.8151 15.625 87.8984 15.925C87.9984 16.2083 88.1651 16.425 88.3984 16.575C88.6318 16.725 88.9568 16.8667 89.3734 17L89.9734 17.15L89.6734 18H84.1734ZM105.795 18.35C105.012 18.35 104.279 18.125 103.595 17.675C102.912 17.225 102.362 16.55 101.945 15.65C101.529 14.75 101.32 13.625 101.32 12.275C101.32 10.825 101.579 9.575 102.095 8.525C102.629 7.475 103.379 6.66667 104.345 6.1C105.329 5.53333 106.479 5.25 107.795 5.25C108.579 5.25 109.395 5.34167 110.245 5.525C111.095 5.69167 111.945 5.80833 112.795 5.875L113.07 6.2L112.77 6.65C112.67 6.8 112.587 6.95 112.52 7.1C112.47 7.23333 112.445 7.40833 112.445 7.625V15.8C112.445 16.3167 112.695 16.575 113.195 16.575C113.612 16.575 114.029 16.425 114.445 16.125L114.92 16.775C114.487 17.2583 114.02 17.6417 113.52 17.925C113.037 18.2083 112.579 18.35 112.145 18.35C111.462 18.35 110.97 18.1417 110.67 17.725C110.37 17.3083 110.22 16.6333 110.22 15.7C109.504 16.7167 108.779 17.4167 108.045 17.8C107.329 18.1667 106.579 18.35 105.795 18.35ZM106.795 16.425C107.429 16.425 108.037 16.2417 108.62 15.875C109.22 15.5083 109.754 14.9333 110.22 14.15V7.4C109.454 6.88333 108.637 6.625 107.77 6.625C106.554 6.625 105.612 7.08333 104.945 8C104.279 8.9 103.945 10.1667 103.945 11.8C103.945 12.9333 104.079 13.8417 104.345 14.525C104.612 15.1917 104.962 15.675 105.395 15.975C105.845 16.275 106.312 16.425 106.795 16.425ZM115.958 18L115.658 17.225L116.233 17.05C116.817 16.8833 117.208 16.65 117.408 16.35C117.608 16.0333 117.75 15.5667 117.833 14.95L118.833 8.175C118.917 7.69167 118.833 7.325 118.583 7.075C118.35 6.80833 117.975 6.61667 117.458 6.5L116.983 6.325L117.183 5.575H121.408L124.983 13.2L128.633 5.575H131.883L132.258 5.925L131.933 6.325C131.633 6.74167 131.392 7.19167 131.208 7.675C131.042 8.15833 131.017 8.69167 131.133 9.275L131.983 13.525C132.167 14.4583 132.35 15.25 132.533 15.9C132.717 16.5333 133.067 17.1167 133.583 17.65L133.283 18H128.233L127.983 17.225L128.458 17.05C129.075 16.8833 129.475 16.6 129.658 16.2C129.858 15.8 129.892 15.25 129.758 14.55L128.758 8.325L125.008 16.35H124.233L120.458 8.325L119.508 14.325C119.425 14.8917 119.467 15.4167 119.633 15.9C119.8 16.3833 120.017 16.825 120.283 17.225L120.583 17.65L120.258 18H115.958ZM136.435 18.35C136.068 18.35 135.71 18.275 135.36 18.125C135.01 17.975 134.668 17.7417 134.335 17.425L134.71 16.725C134.877 16.8417 135.027 16.925 135.16 16.975C135.31 17.025 135.468 17.05 135.635 17.05C135.835 17.05 135.993 16.9917 136.11 16.875C136.243 16.7583 136.377 16.5917 136.51 16.375L137.91 13.95C138.093 13.6167 138.293 13.3333 138.51 13.1C138.727 12.8667 138.977 12.675 139.26 12.525C138.243 12.2917 137.452 11.8667 136.885 11.25C136.318 10.6333 136.035 9.88333 136.035 9C136.035 7.85 136.502 6.94167 137.435 6.275C138.368 5.60833 139.877 5.275 141.96 5.275C142.727 5.275 143.493 5.325 144.26 5.425C145.043 5.525 145.76 5.65 146.41 5.8C147.077 5.95 147.618 6.10833 148.035 6.275L147.76 7.15H146.41C146.243 7.15 146.118 7.18333 146.035 7.25C145.952 7.31667 145.91 7.45833 145.91 7.675V14.9C145.91 15.6167 146.01 16.1167 146.21 16.4C146.41 16.6667 146.793 16.8833 147.36 17.05L147.91 17.225L147.66 18H142.585L142.31 17.65L142.585 17.225C142.968 16.7417 143.235 16.2167 143.385 15.65C143.552 15.0667 143.635 14.3083 143.635 13.375V7.625C143.635 7.475 143.593 7.325 143.51 7.175C143.443 7.00833 143.277 6.86667 143.01 6.75C142.743 6.63333 142.327 6.575 141.76 6.575C140.627 6.575 139.785 6.81667 139.235 7.3C138.702 7.76667 138.435 8.38333 138.435 9.15C138.435 9.91667 138.668 10.5167 139.135 10.95C139.602 11.3833 140.26 11.6 141.11 11.6C141.477 11.6 141.743 11.575 141.91 11.525C142.077 11.4583 142.193 11.425 142.26 11.425C142.477 11.425 142.585 11.5667 142.585 11.85C142.585 12.0333 142.468 12.2 142.235 12.35C142.018 12.5 141.718 12.5917 141.335 12.625C141.035 12.825 140.793 13.1 140.61 13.45L138.86 16.6C138.51 17.2667 138.177 17.725 137.86 17.975C137.543 18.225 137.068 18.35 136.435 18.35ZM152.695 18L152.395 17.625L152.695 17.225C153.078 16.725 153.345 16.1917 153.495 15.625C153.645 15.0583 153.72 14.3083 153.72 13.375V8.75C153.72 8.03333 153.662 7.56667 153.545 7.35C153.445 7.13333 153.237 7.025 152.92 7.025H152.67C152.12 7.025 151.687 7.08333 151.37 7.2C151.07 7.3 150.828 7.5 150.645 7.8C150.462 8.08333 150.295 8.50833 150.145 9.075L149.995 9.6L149.22 9.35V5.25L149.62 4.925L149.995 5.25C150.228 5.41667 150.562 5.53333 150.995 5.6C151.428 5.66667 151.978 5.7 152.645 5.7H157.07C157.753 5.7 158.303 5.66667 158.72 5.6C159.153 5.53333 159.478 5.41667 159.695 5.25L160.07 4.925L160.47 5.25V9.35L159.695 9.6L159.57 9.075C159.42 8.50833 159.253 8.08333 159.07 7.8C158.887 7.5 158.645 7.3 158.345 7.2C158.045 7.08333 157.62 7.025 157.07 7.025H156.77C156.453 7.025 156.237 7.13333 156.12 7.35C156.02 7.56667 155.97 8.03333 155.97 8.75V14.95C155.97 15.6667 156.07 16.1583 156.27 16.425C156.47 16.675 156.853 16.8833 157.42 17.05L157.995 17.225L157.695 18H152.695ZM161.897 18L161.647 17.225L162.147 17.05C162.731 16.8833 163.114 16.675 163.297 16.425C163.497 16.1583 163.597 15.6667 163.597 14.95V8.625C163.597 7.90833 163.497 7.41667 163.297 7.15C163.114 6.88333 162.731 6.66667 162.147 6.5L161.647 6.325L161.897 5.575H166.922L167.222 5.925L166.922 6.325C166.556 6.84167 166.289 7.38333 166.122 7.95C165.956 8.5 165.872 9.25 165.872 10.2V13.725L171.897 8.025C171.814 7.49167 171.664 7.13333 171.447 6.95C171.247 6.76667 170.956 6.61667 170.572 6.5L170.072 6.325L170.322 5.575H175.347L175.622 5.925L175.347 6.325C174.981 6.84167 174.714 7.38333 174.547 7.95C174.381 8.5 174.297 9.25 174.297 10.2V15.125C174.297 15.5917 174.339 15.95 174.422 16.2C174.506 16.4333 174.647 16.6167 174.847 16.75C175.064 16.8667 175.347 16.9833 175.697 17.1L176.197 17.25L175.947 18H170.322L170.072 17.225L170.572 17.05C171.156 16.8833 171.547 16.675 171.747 16.425C171.947 16.1583 172.047 15.6667 172.047 14.95V9.925L165.997 15.6C166.081 16.15 166.222 16.5167 166.422 16.7C166.639 16.8833 166.931 17.0167 167.297 17.1L167.772 17.25L167.547 18H161.897Z" fill="black"/>
</svg>
