<svg width="102" height="15" viewBox="0 0 102 15" fill="none" xmlns="http://www.w3.org/2000/svg">
<path d="M9.972 14.252C9.408 14.252 8.934 14.102 8.55 13.802C8.178 13.49 7.854 13.052 7.578 12.488L5.94 9.212C5.748 8.816 5.502 8.51 5.202 8.294C4.902 8.078 4.548 7.904 4.14 7.772C4.08 7.748 4.05 7.682 4.05 7.574C4.05 7.478 4.074 7.382 4.122 7.286C4.17 7.19 4.272 7.142 4.428 7.142H4.842L7.776 3.398C7.98 3.146 8.088 2.852 8.1 2.516C8.124 2.18 8.046 1.892 7.866 1.652L7.668 1.364L7.992 1.076H11.088L11.304 1.688L10.872 1.796C10.608 1.844 10.368 1.946 10.152 2.102C9.936 2.246 9.708 2.468 9.468 2.768L5.832 7.412C6.42 7.52 6.906 7.73 7.29 8.042C7.674 8.354 8.016 8.798 8.316 9.374L10.008 12.722C10.104 12.89 10.206 13.022 10.314 13.118C10.422 13.214 10.554 13.262 10.71 13.262C10.83 13.262 10.944 13.244 11.052 13.208C11.172 13.172 11.292 13.106 11.412 13.01L11.7 13.532C11.448 13.796 11.178 13.982 10.89 14.09C10.602 14.198 10.296 14.252 9.972 14.252ZM0.486 14L0.27 13.388L0.702 13.28C1.002 13.184 1.236 13.082 1.404 12.974C1.572 12.866 1.686 12.71 1.746 12.506C1.818 12.29 1.854 11.99 1.854 11.606V3.47C1.854 2.906 1.776 2.516 1.62 2.3C1.464 2.084 1.158 1.916 0.702 1.796L0.27 1.688L0.486 1.076H4.446L4.68 1.364L4.446 1.688C4.146 2.084 3.936 2.504 3.816 2.948C3.696 3.392 3.636 3.974 3.636 4.694V11.732C3.636 12.26 3.708 12.626 3.852 12.83C4.008 13.022 4.296 13.184 4.716 13.316L5.094 13.424L4.914 14H0.486ZM18.4708 14.252C17.1268 14.252 16.0108 13.952 15.1228 13.352C14.2468 12.752 13.5928 11.948 13.1608 10.94C12.7288 9.92 12.5128 8.792 12.5128 7.556C12.5128 6.632 12.6328 5.762 12.8728 4.946C13.1128 4.13 13.4788 3.416 13.9708 2.804C14.4748 2.18 15.0988 1.694 15.8428 1.346C16.5868 0.997999 17.4628 0.823999 18.4708 0.823999C19.4788 0.823999 20.3548 0.997999 21.0988 1.346C21.8428 1.694 22.4608 2.18 22.9528 2.804C23.4568 3.416 23.8288 4.13 24.0688 4.946C24.3208 5.762 24.4468 6.632 24.4468 7.556C24.4468 8.792 24.2248 9.92 23.7808 10.94C23.3488 11.948 22.6888 12.752 21.8008 13.352C20.9248 13.952 19.8148 14.252 18.4708 14.252ZM18.3988 13.19C19.2628 13.19 20.0008 12.944 20.6128 12.452C21.2248 11.948 21.6868 11.276 21.9988 10.436C22.3228 9.584 22.4848 8.642 22.4848 7.61C22.4848 7.166 22.4428 6.686 22.3588 6.17C22.2868 5.642 22.1608 5.126 21.9808 4.622C21.8008 4.106 21.5608 3.644 21.2608 3.236C20.9608 2.816 20.5888 2.48 20.1448 2.228C19.7008 1.976 19.1728 1.85 18.5608 1.85C17.6848 1.85 16.9408 2.12 16.3288 2.66C15.7168 3.188 15.2488 3.896 14.9248 4.784C14.6128 5.66 14.4568 6.632 14.4568 7.7C14.4568 8.72 14.6008 9.644 14.8888 10.472C15.1888 11.3 15.6328 11.96 16.2208 12.452C16.8088 12.944 17.5348 13.19 18.3988 13.19ZM26.02 14L25.804 13.388L26.218 13.28C26.674 13.148 26.98 12.974 27.136 12.758C27.292 12.542 27.37 12.158 27.37 11.606V3.47C27.37 2.906 27.292 2.522 27.136 2.318C26.98 2.102 26.674 1.928 26.218 1.796L25.804 1.688L26.02 1.076H29.962L30.196 1.364L29.962 1.688C29.662 2.084 29.452 2.504 29.332 2.948C29.212 3.38 29.152 3.962 29.152 4.694V6.89H35.038V3.47C35.038 2.906 34.96 2.522 34.804 2.318C34.648 2.102 34.342 1.928 33.886 1.796L33.472 1.688L33.688 1.076H37.63L37.864 1.364L37.63 1.688C37.33 2.084 37.12 2.504 37 2.948C36.88 3.38 36.82 3.962 36.82 4.694V11.732C36.82 12.26 36.892 12.626 37.036 12.83C37.192 13.022 37.486 13.184 37.918 13.316L38.296 13.424L38.098 14H33.688L33.472 13.388L33.886 13.28C34.342 13.148 34.648 12.974 34.804 12.758C34.96 12.542 35.038 12.158 35.038 11.606V7.988H29.152V11.732C29.152 12.26 29.224 12.626 29.368 12.83C29.524 13.022 29.818 13.184 30.25 13.316L30.628 13.424L30.43 14H26.02ZM42.7653 14L42.5313 13.712L42.7653 13.388C43.0653 12.992 43.2753 12.578 43.3953 12.146C43.5153 11.702 43.5753 11.114 43.5753 10.382V3.47C43.5753 2.906 43.5333 2.54 43.4493 2.372C43.3773 2.192 43.2153 2.102 42.9633 2.102H42.1533C41.7333 2.102 41.3973 2.15 41.1453 2.246C40.9053 2.33 40.7133 2.486 40.5693 2.714C40.4373 2.942 40.3113 3.272 40.1913 3.704L40.0833 4.118L39.4713 3.902V0.698L39.7593 0.463999L40.0833 0.698C40.4193 0.949999 41.1033 1.076 42.1353 1.076H46.7973C47.8293 1.076 48.5133 0.949999 48.8493 0.698L49.1733 0.463999L49.4613 0.698V3.902L48.8493 4.118L48.7413 3.704C48.6333 3.272 48.5073 2.942 48.3633 2.714C48.2193 2.486 48.0273 2.33 47.7873 2.246C47.5473 2.15 47.2113 2.102 46.7793 2.102H45.9693C45.7173 2.102 45.5493 2.192 45.4653 2.372C45.3933 2.54 45.3573 2.906 45.3573 3.47V11.606C45.3573 12.158 45.4353 12.542 45.5913 12.758C45.7593 12.974 46.0653 13.148 46.5093 13.28L46.9233 13.388L46.7073 14H42.7653ZM49.7444 14L49.5284 13.388L49.9424 13.28C50.2664 13.196 50.5244 13.094 50.7164 12.974C50.9084 12.854 51.0704 12.692 51.2024 12.488C51.3464 12.272 51.4784 11.978 51.5984 11.606L54.4244 3.47C54.4844 3.278 54.5324 3.116 54.5684 2.984C54.6044 2.84 54.6224 2.708 54.6224 2.588C54.6224 2.36 54.5564 2.192 54.4244 2.084C54.2924 1.964 54.0884 1.868 53.8124 1.796L53.3984 1.688L53.6144 1.076H57.0884L60.7064 11.516C60.8504 11.912 60.9944 12.236 61.1384 12.488C61.2944 12.74 61.4684 12.956 61.6604 13.136C61.8524 13.316 62.0744 13.508 62.3264 13.712L62.0924 14H58.0424L57.8264 13.388L58.2404 13.28C58.5164 13.208 58.7204 13.118 58.8524 13.01C58.9844 12.89 59.0504 12.716 59.0504 12.488C59.0504 12.368 59.0324 12.242 58.9964 12.11C58.9604 11.966 58.9124 11.798 58.8524 11.606L57.9884 9.086H53.8304L53.3984 10.4C53.2664 10.808 53.1644 11.162 53.0924 11.462C53.0204 11.762 52.9844 12.038 52.9844 12.29C52.9844 12.698 53.0684 13.064 53.2364 13.388L53.3984 13.712L53.0564 14H49.7444ZM54.2084 7.97H57.6104L55.8824 2.93L54.2084 7.97ZM72.4974 14.252C71.9334 14.252 71.4594 14.102 71.0754 13.802C70.7034 13.49 70.3794 13.052 70.1034 12.488L68.4654 9.212C68.2734 8.816 68.0274 8.51 67.7274 8.294C67.4274 8.078 67.0734 7.904 66.6654 7.772C66.6054 7.748 66.5754 7.682 66.5754 7.574C66.5754 7.478 66.5994 7.382 66.6474 7.286C66.6954 7.19 66.7974 7.142 66.9534 7.142H67.3674L70.3014 3.398C70.5054 3.146 70.6134 2.852 70.6254 2.516C70.6494 2.18 70.5714 1.892 70.3914 1.652L70.1934 1.364L70.5174 1.076H73.6134L73.8294 1.688L73.3974 1.796C73.1334 1.844 72.8934 1.946 72.6774 2.102C72.4614 2.246 72.2334 2.468 71.9934 2.768L68.3574 7.412C68.9454 7.52 69.4314 7.73 69.8154 8.042C70.1994 8.354 70.5414 8.798 70.8414 9.374L72.5334 12.722C72.6294 12.89 72.7314 13.022 72.8394 13.118C72.9474 13.214 73.0794 13.262 73.2354 13.262C73.3554 13.262 73.4694 13.244 73.5774 13.208C73.6974 13.172 73.8174 13.106 73.9374 13.01L74.2254 13.532C73.9734 13.796 73.7034 13.982 73.4154 14.09C73.1274 14.198 72.8214 14.252 72.4974 14.252ZM63.0114 14L62.7954 13.388L63.2274 13.28C63.5274 13.184 63.7614 13.082 63.9294 12.974C64.0974 12.866 64.2114 12.71 64.2714 12.506C64.3434 12.29 64.3794 11.99 64.3794 11.606V3.47C64.3794 2.906 64.3014 2.516 64.1454 2.3C63.9894 2.084 63.6834 1.916 63.2274 1.796L62.7954 1.688L63.0114 1.076H66.9714L67.2054 1.364L66.9714 1.688C66.6714 2.084 66.4614 2.504 66.3414 2.948C66.2214 3.392 66.1614 3.974 66.1614 4.694V11.732C66.1614 12.26 66.2334 12.626 66.3774 12.83C66.5334 13.022 66.8214 13.184 67.2414 13.316L67.6194 13.424L67.4394 14H63.0114ZM78.0622 14L77.8282 13.712L78.0622 13.388C78.3622 12.992 78.5722 12.578 78.6922 12.146C78.8122 11.702 78.8722 11.114 78.8722 10.382V3.47C78.8722 2.906 78.8302 2.54 78.7462 2.372C78.6742 2.192 78.5122 2.102 78.2602 2.102H77.4502C77.0302 2.102 76.6942 2.15 76.4422 2.246C76.2022 2.33 76.0102 2.486 75.8662 2.714C75.7342 2.942 75.6082 3.272 75.4882 3.704L75.3802 4.118L74.7682 3.902V0.698L75.0562 0.463999L75.3802 0.698C75.7162 0.949999 76.4002 1.076 77.4322 1.076H82.0942C83.1262 1.076 83.8102 0.949999 84.1462 0.698L84.4702 0.463999L84.7582 0.698V3.902L84.1462 4.118L84.0382 3.704C83.9302 3.272 83.8042 2.942 83.6602 2.714C83.5162 2.486 83.3242 2.33 83.0842 2.246C82.8442 2.15 82.5082 2.102 82.0762 2.102H81.2662C81.0142 2.102 80.8462 2.192 80.7622 2.372C80.6902 2.54 80.6542 2.906 80.6542 3.47V11.606C80.6542 12.158 80.7322 12.542 80.8882 12.758C81.0562 12.974 81.3622 13.148 81.8062 13.28L82.2202 13.388L82.0042 14H78.0622ZM86.0493 14L85.8333 13.388L86.2653 13.28C86.7093 13.16 87.0093 12.992 87.1653 12.776C87.3213 12.548 87.3993 12.158 87.3993 11.606V3.47C87.3993 2.93 87.3213 2.546 87.1653 2.318C87.0093 2.09 86.7093 1.916 86.2653 1.796L85.8333 1.688L86.0493 1.076H90.0093L90.2433 1.364L90.0093 1.688C89.7093 2.096 89.4993 2.522 89.3793 2.966C89.2593 3.398 89.1993 3.974 89.1993 4.694V10.706C89.1993 11.27 89.2653 11.714 89.3973 12.038C89.5413 12.362 89.7213 12.596 89.9373 12.74C90.1533 12.884 90.3693 12.974 90.5853 13.01C90.8133 13.046 91.0173 13.064 91.1973 13.064C91.9413 13.064 92.5293 12.788 92.9613 12.236C93.4053 11.684 93.6273 10.982 93.6273 10.13C93.6273 9.614 93.5133 9.146 93.2853 8.726C93.0573 8.306 92.7453 7.97 92.3493 7.718C91.9533 7.466 91.5093 7.34 91.0173 7.34C90.6453 7.34 90.3813 7.37 90.2253 7.43C90.0693 7.478 89.9373 7.502 89.8293 7.502C89.7453 7.502 89.6793 7.46 89.6313 7.376C89.5953 7.292 89.5773 7.196 89.5773 7.088C89.5773 6.86 89.7573 6.698 90.1173 6.602C90.4773 6.506 90.8793 6.458 91.3233 6.458C92.1633 6.458 92.8953 6.632 93.5193 6.98C94.1433 7.328 94.6293 7.79 94.9773 8.366C95.3253 8.93 95.4993 9.548 95.4993 10.22C95.4993 10.952 95.3493 11.606 95.0493 12.182C94.7493 12.746 94.2753 13.19 93.6273 13.514C92.9793 13.838 92.1273 14 91.0713 14H86.0493ZM96.5253 14L96.3273 13.388L96.7413 13.28C97.1853 13.148 97.4913 12.98 97.6593 12.776C97.8273 12.572 97.9113 12.182 97.9113 11.606V3.47C97.9113 2.906 97.8273 2.516 97.6593 2.3C97.4913 2.084 97.1853 1.916 96.7413 1.796L96.3273 1.688L96.5253 1.076H100.503L100.719 1.364L100.503 1.688C100.203 2.084 99.9873 2.504 99.8553 2.948C99.7353 3.392 99.6753 3.974 99.6753 4.694V11.732C99.6753 12.26 99.7473 12.626 99.8913 12.83C100.047 13.022 100.335 13.184 100.755 13.316L101.151 13.424L100.953 14H96.5253Z" fill="#655D54"/>
</svg>
