<svg width="96" height="14" viewBox="0 0 96 14" fill="none" xmlns="http://www.w3.org/2000/svg">
<path d="M9.418 13.238C8.88533 13.238 8.43767 13.0963 8.075 12.813C7.72367 12.5183 7.41767 12.1047 7.157 11.572L5.61 8.478C5.42867 8.104 5.19633 7.815 4.913 7.611C4.62967 7.407 4.29533 7.24267 3.91 7.118C3.85333 7.09533 3.825 7.033 3.825 6.931C3.825 6.84033 3.84767 6.74967 3.893 6.659C3.93833 6.56833 4.03467 6.523 4.182 6.523H4.573L7.344 2.987C7.53667 2.749 7.63867 2.47133 7.65 2.154C7.67267 1.83667 7.599 1.56467 7.429 1.338L7.242 1.066L7.548 0.793999H10.472L10.676 1.372L10.268 1.474C10.0187 1.51933 9.792 1.61567 9.588 1.763C9.384 1.899 9.16867 2.10867 8.942 2.392L5.508 6.778C6.06333 6.88 6.52233 7.07833 6.885 7.373C7.24767 7.66767 7.57067 8.087 7.854 8.631L9.452 11.793C9.54267 11.9517 9.639 12.0763 9.741 12.167C9.843 12.2577 9.96767 12.303 10.115 12.303C10.2283 12.303 10.336 12.286 10.438 12.252C10.5513 12.218 10.6647 12.1557 10.778 12.065L11.05 12.558C10.812 12.8073 10.557 12.983 10.285 13.085C10.013 13.187 9.724 13.238 9.418 13.238ZM0.459 13L0.255 12.422L0.663 12.32C0.946333 12.2293 1.16733 12.133 1.326 12.031C1.48467 11.929 1.59233 11.7817 1.649 11.589C1.717 11.385 1.751 11.1017 1.751 10.739V3.055C1.751 2.52233 1.67733 2.154 1.53 1.95C1.38267 1.746 1.09367 1.58733 0.663 1.474L0.255 1.372L0.459 0.793999H4.199L4.42 1.066L4.199 1.372C3.91567 1.746 3.71733 2.14267 3.604 2.562C3.49067 2.98133 3.434 3.531 3.434 4.211V10.858C3.434 11.3567 3.502 11.7023 3.638 11.895C3.78533 12.0763 4.05733 12.2293 4.454 12.354L4.811 12.456L4.641 13H0.459ZM17.4447 13.238C16.1753 13.238 15.1213 12.9547 14.2827 12.388C13.4553 11.8213 12.8377 11.062 12.4297 10.11C12.0217 9.14667 11.8177 8.08133 11.8177 6.914C11.8177 6.04133 11.931 5.21967 12.1577 4.449C12.3843 3.67833 12.73 3.004 13.1947 2.426C13.6707 1.83667 14.26 1.37767 14.9627 1.049C15.6653 0.720333 16.4927 0.555999 17.4447 0.555999C18.3967 0.555999 19.224 0.720333 19.9267 1.049C20.6293 1.37767 21.213 1.83667 21.6777 2.426C22.1537 3.004 22.505 3.67833 22.7317 4.449C22.9697 5.21967 23.0887 6.04133 23.0887 6.914C23.0887 8.08133 22.879 9.14667 22.4597 10.11C22.0517 11.062 21.4283 11.8213 20.5897 12.388C19.7623 12.9547 18.714 13.238 17.4447 13.238ZM17.3767 12.235C18.1927 12.235 18.8897 12.0027 19.4677 11.538C20.0457 11.062 20.482 10.4273 20.7767 9.634C21.0827 8.82933 21.2357 7.93967 21.2357 6.965C21.2357 6.54567 21.196 6.09233 21.1167 5.605C21.0487 5.10633 20.9297 4.619 20.7597 4.143C20.5897 3.65567 20.363 3.21933 20.0797 2.834C19.7963 2.43733 19.445 2.12 19.0257 1.882C18.6063 1.644 18.1077 1.525 17.5297 1.525C16.7023 1.525 15.9997 1.78 15.4217 2.29C14.8437 2.78867 14.4017 3.45733 14.0957 4.296C13.801 5.12333 13.6537 6.04133 13.6537 7.05C13.6537 8.01333 13.7897 8.886 14.0617 9.668C14.345 10.45 14.7643 11.0733 15.3197 11.538C15.875 12.0027 16.5607 12.235 17.3767 12.235ZM24.5744 13L24.3704 12.422L24.7614 12.32C25.1921 12.1953 25.4811 12.031 25.6284 11.827C25.7758 11.623 25.8494 11.2603 25.8494 10.739V3.055C25.8494 2.52233 25.7758 2.15967 25.6284 1.967C25.4811 1.763 25.1921 1.59867 24.7614 1.474L24.3704 1.372L24.5744 0.793999H28.2974L28.5184 1.066L28.2974 1.372C28.0141 1.746 27.8158 2.14267 27.7024 2.562C27.5891 2.97 27.5324 3.51967 27.5324 4.211V6.285H33.0914V3.055C33.0914 2.52233 33.0178 2.15967 32.8704 1.967C32.7231 1.763 32.4341 1.59867 32.0034 1.474L31.6124 1.372L31.8164 0.793999H35.5394L35.7604 1.066L35.5394 1.372C35.2561 1.746 35.0578 2.14267 34.9444 2.562C34.8311 2.97 34.7744 3.51967 34.7744 4.211V10.858C34.7744 11.3567 34.8424 11.7023 34.9784 11.895C35.1258 12.0763 35.4034 12.2293 35.8114 12.354L36.1684 12.456L35.9814 13H31.8164L31.6124 12.422L32.0034 12.32C32.4341 12.1953 32.7231 12.031 32.8704 11.827C33.0178 11.623 33.0914 11.2603 33.0914 10.739V7.322H27.5324V10.858C27.5324 11.3567 27.6004 11.7023 27.7364 11.895C27.8838 12.0763 28.1614 12.2293 28.5694 12.354L28.9264 12.456L28.7394 13H24.5744ZM40.3895 13L40.1685 12.728L40.3895 12.422C40.6728 12.048 40.8711 11.657 40.9845 11.249C41.0978 10.8297 41.1545 10.2743 41.1545 9.583V3.055C41.1545 2.52233 41.1148 2.17667 41.0355 2.018C40.9675 1.848 40.8145 1.763 40.5765 1.763H39.8115C39.4148 1.763 39.0975 1.80833 38.8595 1.899C38.6328 1.97833 38.4515 2.12567 38.3155 2.341C38.1908 2.55633 38.0718 2.868 37.9585 3.276L37.8565 3.667L37.2785 3.463V0.437L37.5505 0.215999L37.8565 0.437C38.1738 0.674999 38.8198 0.793999 39.7945 0.793999H44.1975C45.1721 0.793999 45.8181 0.674999 46.1355 0.437L46.4415 0.215999L46.7135 0.437V3.463L46.1355 3.667L46.0335 3.276C45.9315 2.868 45.8125 2.55633 45.6765 2.341C45.5405 2.12567 45.3591 1.97833 45.1325 1.899C44.9058 1.80833 44.5885 1.763 44.1805 1.763H43.4155C43.1775 1.763 43.0188 1.848 42.9395 2.018C42.8715 2.17667 42.8375 2.52233 42.8375 3.055V10.739C42.8375 11.2603 42.9111 11.623 43.0585 11.827C43.2171 12.031 43.5061 12.1953 43.9255 12.32L44.3165 12.422L44.1125 13H40.3895ZM46.9808 13L46.7768 12.422L47.1678 12.32C47.4738 12.2407 47.7175 12.1443 47.8988 12.031C48.0802 11.9177 48.2332 11.7647 48.3578 11.572C48.4938 11.368 48.6185 11.0903 48.7318 10.739L51.4008 3.055C51.4575 2.87367 51.5028 2.72067 51.5368 2.596C51.5708 2.46 51.5878 2.33533 51.5878 2.222C51.5878 2.00667 51.5255 1.848 51.4008 1.746C51.2762 1.63267 51.0835 1.542 50.8228 1.474L50.4318 1.372L50.6358 0.793999H53.9168L57.3338 10.654C57.4698 11.028 57.6058 11.334 57.7418 11.572C57.8892 11.81 58.0535 12.014 58.2348 12.184C58.4162 12.354 58.6258 12.5353 58.8638 12.728L58.6428 13H54.8178L54.6138 12.422L55.0048 12.32C55.2655 12.252 55.4582 12.167 55.5828 12.065C55.7075 11.9517 55.7698 11.7873 55.7698 11.572C55.7698 11.4587 55.7528 11.3397 55.7188 11.215C55.6848 11.079 55.6395 10.9203 55.5828 10.739L54.7668 8.359H50.8398L50.4318 9.6C50.3072 9.98533 50.2108 10.3197 50.1428 10.603C50.0748 10.8863 50.0408 11.147 50.0408 11.385C50.0408 11.7703 50.1202 12.116 50.2788 12.422L50.4318 12.728L50.1088 13H46.9808ZM51.1968 7.305H54.4098L52.7778 2.545L51.1968 7.305ZM68.4698 13.238C67.9371 13.238 67.4894 13.0963 67.1268 12.813C66.7754 12.5183 66.4694 12.1047 66.2088 11.572L64.6618 8.478C64.4804 8.104 64.2481 7.815 63.9648 7.611C63.6814 7.407 63.3471 7.24267 62.9618 7.118C62.9051 7.09533 62.8768 7.033 62.8768 6.931C62.8768 6.84033 62.8994 6.74967 62.9448 6.659C62.9901 6.56833 63.0864 6.523 63.2338 6.523H63.6248L66.3958 2.987C66.5884 2.749 66.6904 2.47133 66.7018 2.154C66.7244 1.83667 66.6508 1.56467 66.4808 1.338L66.2938 1.066L66.5998 0.793999H69.5238L69.7278 1.372L69.3198 1.474C69.0704 1.51933 68.8438 1.61567 68.6398 1.763C68.4358 1.899 68.2204 2.10867 67.9938 2.392L64.5598 6.778C65.1151 6.88 65.5741 7.07833 65.9368 7.373C66.2994 7.66767 66.6224 8.087 66.9058 8.631L68.5038 11.793C68.5944 11.9517 68.6908 12.0763 68.7928 12.167C68.8948 12.2577 69.0194 12.303 69.1668 12.303C69.2801 12.303 69.3878 12.286 69.4898 12.252C69.6031 12.218 69.7164 12.1557 69.8298 12.065L70.1018 12.558C69.8638 12.8073 69.6088 12.983 69.3368 13.085C69.0648 13.187 68.7758 13.238 68.4698 13.238ZM59.5108 13L59.3068 12.422L59.7148 12.32C59.9981 12.2293 60.2191 12.133 60.3778 12.031C60.5364 11.929 60.6441 11.7817 60.7008 11.589C60.7688 11.385 60.8028 11.1017 60.8028 10.739V3.055C60.8028 2.52233 60.7291 2.154 60.5818 1.95C60.4344 1.746 60.1454 1.58733 59.7148 1.474L59.3068 1.372L59.5108 0.793999H63.2508L63.4718 1.066L63.2508 1.372C62.9674 1.746 62.7691 2.14267 62.6558 2.562C62.5424 2.98133 62.4858 3.531 62.4858 4.211V10.858C62.4858 11.3567 62.5538 11.7023 62.6898 11.895C62.8371 12.0763 63.1091 12.2293 63.5058 12.354L63.8628 12.456L63.6928 13H59.5108ZM73.7254 13L73.5044 12.728L73.7254 12.422C74.0087 12.048 74.2071 11.657 74.3204 11.249C74.4337 10.8297 74.4904 10.2743 74.4904 9.583V3.055C74.4904 2.52233 74.4507 2.17667 74.3714 2.018C74.3034 1.848 74.1504 1.763 73.9124 1.763H73.1474C72.7507 1.763 72.4334 1.80833 72.1954 1.899C71.9687 1.97833 71.7874 2.12567 71.6514 2.341C71.5267 2.55633 71.4077 2.868 71.2944 3.276L71.1924 3.667L70.6144 3.463V0.437L70.8864 0.215999L71.1924 0.437C71.5097 0.674999 72.1557 0.793999 73.1304 0.793999H77.5334C78.5081 0.793999 79.1541 0.674999 79.4714 0.437L79.7774 0.215999L80.0494 0.437V3.463L79.4714 3.667L79.3694 3.276C79.2674 2.868 79.1484 2.55633 79.0124 2.341C78.8764 2.12567 78.6951 1.97833 78.4684 1.899C78.2417 1.80833 77.9244 1.763 77.5164 1.763H76.7514C76.5134 1.763 76.3547 1.848 76.2754 2.018C76.2074 2.17667 76.1734 2.52233 76.1734 3.055V10.739C76.1734 11.2603 76.2471 11.623 76.3944 11.827C76.5531 12.031 76.8421 12.1953 77.2614 12.32L77.6524 12.422L77.4484 13H73.7254ZM81.2688 13L81.0648 12.422L81.4728 12.32C81.8921 12.2067 82.1754 12.048 82.3228 11.844C82.4701 11.6287 82.5438 11.2603 82.5438 10.739V3.055C82.5438 2.545 82.4701 2.18233 82.3228 1.967C82.1754 1.75167 81.8921 1.58733 81.4728 1.474L81.0648 1.372L81.2688 0.793999H85.0088L85.2298 1.066L85.0088 1.372C84.7254 1.75733 84.5271 2.15967 84.4138 2.579C84.3004 2.987 84.2438 3.531 84.2438 4.211V9.889C84.2438 10.4217 84.3061 10.841 84.4308 11.147C84.5668 11.453 84.7368 11.674 84.9408 11.81C85.1448 11.946 85.3488 12.031 85.5528 12.065C85.7681 12.099 85.9608 12.116 86.1308 12.116C86.8334 12.116 87.3888 11.8553 87.7968 11.334C88.2161 10.8127 88.4258 10.1497 88.4258 9.345C88.4258 8.85767 88.3181 8.41567 88.1028 8.019C87.8874 7.62233 87.5928 7.305 87.2188 7.067C86.8448 6.829 86.4254 6.71 85.9608 6.71C85.6094 6.71 85.3601 6.73833 85.2128 6.795C85.0654 6.84033 84.9408 6.863 84.8388 6.863C84.7594 6.863 84.6971 6.82333 84.6518 6.744C84.6178 6.66467 84.6008 6.574 84.6008 6.472C84.6008 6.25667 84.7708 6.10367 85.1108 6.013C85.4508 5.92233 85.8304 5.877 86.2498 5.877C87.0431 5.877 87.7344 6.04133 88.3238 6.37C88.9131 6.69867 89.3721 7.135 89.7008 7.679C90.0294 8.21167 90.1938 8.79533 90.1938 9.43C90.1938 10.1213 90.0521 10.739 89.7688 11.283C89.4854 11.8157 89.0378 12.235 88.4258 12.541C87.8138 12.847 87.0091 13 86.0118 13H81.2688ZM91.1628 13L90.9758 12.422L91.3668 12.32C91.7861 12.1953 92.0751 12.0367 92.2338 11.844C92.3924 11.6513 92.4718 11.283 92.4718 10.739V3.055C92.4718 2.52233 92.3924 2.154 92.2338 1.95C92.0751 1.746 91.7861 1.58733 91.3668 1.474L90.9758 1.372L91.1628 0.793999H94.9198L95.1238 1.066L94.9198 1.372C94.6364 1.746 94.4324 2.14267 94.3078 2.562C94.1944 2.98133 94.1378 3.531 94.1378 4.211V10.858C94.1378 11.3567 94.2058 11.7023 94.3418 11.895C94.4891 12.0763 94.7611 12.2293 95.1578 12.354L95.5318 12.456L95.3448 13H91.1628Z" fill="#A09081"/>
</svg>
