<svg width="287" height="37" viewBox="0 0 287 37" fill="none" xmlns="http://www.w3.org/2000/svg">
<path d="M33.2783 36H23.7324C23.0651 34.112 22.4141 32.3949 21.7793 30.8486C21.1445 29.2861 20.4935 27.7725 19.8262 26.3076C18.7357 23.8499 17.6289 22.1898 16.5059 21.3271C15.3991 20.4645 13.9017 20.0332 12.0137 20.0332H10.2314V31.1172C10.2314 31.6543 10.3291 32.1344 10.5244 32.5576C10.736 32.9808 11.1104 33.3226 11.6475 33.583C11.9079 33.6969 12.388 33.8353 13.0879 33.998C13.804 34.1608 14.3981 34.2503 14.8701 34.2666V36H0.490234V34.2666C0.864583 34.234 1.40983 34.1852 2.12598 34.1201C2.84212 34.055 3.34668 33.9574 3.63965 33.8271C4.12793 33.6156 4.47786 33.3063 4.68945 32.8994C4.91732 32.4762 5.03125 31.9717 5.03125 31.3857V6.38574C5.03125 5.83236 4.93359 5.35221 4.73828 4.94531C4.55924 4.53841 4.19303 4.20475 3.63965 3.94434C3.2002 3.73275 2.67936 3.54557 2.07715 3.38281C1.47493 3.22005 0.945964 3.1224 0.490234 3.08984V1.35645H14.8701V3.08984C14.4144 3.10612 13.8447 3.17936 13.1611 3.30957C12.4775 3.43978 11.973 3.56185 11.6475 3.67578C11.0941 3.87109 10.7197 4.19661 10.5244 4.65234C10.3291 5.10807 10.2314 5.60449 10.2314 6.1416V18.0068H12.502C13.1042 18.0068 13.6901 17.8766 14.2598 17.6162C14.8457 17.3558 15.3828 16.9733 15.8711 16.4688C16.571 15.7526 17.1325 14.8818 17.5557 13.8564C17.9788 12.8148 18.4346 11.5615 18.9229 10.0967C19.3786 8.74577 19.8506 7.49251 20.3389 6.33691C20.8271 5.18132 21.5433 4.11523 22.4873 3.13867C23.1221 2.48763 23.8708 1.97493 24.7334 1.60059C25.596 1.22624 26.5319 1.03906 27.541 1.03906C28.2409 1.03906 28.8512 1.12858 29.3721 1.30762C29.8929 1.47038 30.3324 1.70638 30.6904 2.01562C31.016 2.29232 31.2601 2.61784 31.4229 2.99219C31.5856 3.36654 31.667 3.77344 31.667 4.21289C31.667 4.57096 31.61 4.9209 31.4961 5.2627C31.3984 5.60449 31.252 5.88932 31.0566 6.11719C30.8288 6.39388 30.5765 6.61361 30.2998 6.77637C30.0231 6.92285 29.6325 6.99609 29.1279 6.99609C28.5908 6.99609 28.1188 6.90658 27.7119 6.72754C27.3213 6.5485 26.9795 6.30436 26.6865 5.99512C26.3936 5.68587 26.125 5.3278 25.8809 4.9209C25.653 4.49772 25.4333 4.07454 25.2217 3.65137C24.766 3.96061 24.3753 4.3431 24.0498 4.79883C23.7406 5.25456 23.4639 5.74284 23.2197 6.26367C22.9756 6.78451 22.7559 7.33789 22.5605 7.92383C22.3815 8.50977 22.1699 9.16081 21.9258 9.87695C21.7305 10.4792 21.5026 11.1546 21.2422 11.9033C20.9818 12.6357 20.6807 13.3193 20.3389 13.9541C19.9808 14.6377 19.5576 15.3213 19.0693 16.0049C18.5973 16.6885 18.0277 17.3314 17.3604 17.9336V18.2754C19.167 18.7799 20.6644 19.5856 21.8525 20.6924C23.057 21.7992 24.0661 23.2233 24.8799 24.9648C25.3356 25.9577 25.832 27.0319 26.3691 28.1875C26.9225 29.3268 27.3783 30.2952 27.7363 31.0928C28.2409 32.1833 28.7292 32.9157 29.2012 33.29C29.6732 33.6481 30.1533 33.8678 30.6416 33.9492C31.0648 34.0143 31.5205 34.0794 32.0088 34.1445C32.4971 34.1934 32.9202 34.234 33.2783 34.2666V36ZM63.1367 5.45801C64.6667 7.05306 65.863 8.98177 66.7256 11.2441C67.5882 13.4902 68.0195 15.9805 68.0195 18.7148C68.0195 21.4655 67.5801 23.9639 66.7012 26.21C65.8223 28.4561 64.6016 30.3685 63.0391 31.9473C61.5254 33.5098 59.7676 34.7142 57.7656 35.5605C55.7637 36.4069 53.6315 36.8301 51.3691 36.8301C48.9603 36.8301 46.7305 36.3825 44.6797 35.4873C42.6452 34.5758 40.8955 33.3145 39.4307 31.7031C37.9658 30.1243 36.8102 28.2119 35.9639 25.9658C35.1338 23.7035 34.7188 21.2865 34.7188 18.7148C34.7188 15.8991 35.1582 13.3926 36.0371 11.1953C36.916 8.98177 38.1286 7.06934 39.6748 5.45801C41.2048 3.86296 42.9788 2.64225 44.9971 1.7959C47.0316 0.949544 49.1556 0.526367 51.3691 0.526367C53.6641 0.526367 55.8288 0.957682 57.8633 1.82031C59.8978 2.68294 61.6556 3.89551 63.1367 5.45801ZM59.499 30.0186C60.4105 28.5374 61.0697 26.861 61.4766 24.9893C61.8997 23.1175 62.1113 21.026 62.1113 18.7148C62.1113 16.3385 61.8753 14.1576 61.4033 12.1719C60.9476 10.1862 60.2721 8.49349 59.377 7.09375C58.4818 5.71029 57.3587 4.63607 56.0078 3.87109C54.6569 3.08984 53.1107 2.69922 51.3691 2.69922C49.416 2.69922 47.7559 3.14681 46.3887 4.04199C45.0215 4.93717 43.9066 6.13346 43.0439 7.63086C42.2301 9.06315 41.6198 10.7396 41.2129 12.6602C40.8223 14.5807 40.627 16.599 40.627 18.7148C40.627 21.0586 40.8385 23.1745 41.2617 25.0625C41.6849 26.9505 42.3522 28.627 43.2637 30.0918C44.1426 31.5241 45.2493 32.6471 46.584 33.4609C47.9186 34.2585 49.5137 34.6572 51.3691 34.6572C53.1107 34.6572 54.6813 34.2503 56.0811 33.4365C57.4808 32.6227 58.6201 31.4834 59.499 30.0186ZM108.229 36H93.8496V34.2666C94.2402 34.234 94.8018 34.1852 95.5342 34.1201C96.2829 34.055 96.7956 33.9574 97.0723 33.8271C97.5605 33.6318 97.9186 33.3389 98.1465 32.9482C98.3743 32.5413 98.4883 32.0205 98.4883 31.3857V19.0566H82.2041V31.1172C82.2041 31.6868 82.2936 32.167 82.4727 32.5576C82.668 32.9482 83.0423 33.29 83.5957 33.583C83.8724 33.7295 84.3607 33.876 85.0605 34.0225C85.7767 34.1689 86.3382 34.2503 86.7451 34.2666V36H72.3652V34.2666C72.7559 34.234 73.3174 34.1852 74.0498 34.1201C74.7985 34.055 75.3112 33.9574 75.5879 33.8271C76.0762 33.6318 76.4342 33.3389 76.6621 32.9482C76.89 32.5413 77.0039 32.0205 77.0039 31.3857V6.38574C77.0039 5.86491 76.8981 5.3929 76.6865 4.96973C76.4749 4.53027 76.1087 4.18848 75.5879 3.94434C75.1484 3.73275 74.6113 3.54557 73.9766 3.38281C73.3581 3.22005 72.821 3.1224 72.3652 3.08984V1.35645H86.7451V3.08984C86.2894 3.10612 85.7279 3.17936 85.0605 3.30957C84.4095 3.43978 83.9212 3.56185 83.5957 3.67578C83.0423 3.87109 82.668 4.19661 82.4727 4.65234C82.2936 5.10807 82.2041 5.60449 82.2041 6.1416V16.8838H98.4883V6.38574C98.4883 5.86491 98.3825 5.3929 98.1709 4.96973C97.9593 4.53027 97.5931 4.18848 97.0723 3.94434C96.6328 3.73275 96.0957 3.54557 95.4609 3.38281C94.8424 3.22005 94.3053 3.1224 93.8496 3.08984V1.35645H108.229V3.08984C107.774 3.10612 107.212 3.17936 106.545 3.30957C105.894 3.43978 105.406 3.56185 105.08 3.67578C104.527 3.87109 104.152 4.19661 103.957 4.65234C103.778 5.10807 103.688 5.60449 103.688 6.1416V31.1172C103.688 31.6868 103.778 32.167 103.957 32.5576C104.152 32.9482 104.527 33.29 105.08 33.583C105.357 33.7295 105.845 33.876 106.545 34.0225C107.261 34.1689 107.823 34.2503 108.229 34.2666V36ZM141.286 10.7559H139.602C139.455 10.1699 139.187 9.47819 138.796 8.68066C138.422 7.86686 137.998 7.10189 137.526 6.38574C137.038 5.63704 136.501 4.986 135.915 4.43262C135.345 3.86296 134.792 3.53743 134.255 3.45605C133.75 3.39095 133.116 3.34212 132.351 3.30957C131.586 3.27702 130.878 3.26074 130.227 3.26074H128.811V30.9707C128.811 31.5078 128.924 32.0042 129.152 32.46C129.38 32.8994 129.779 33.2412 130.349 33.4854C130.642 33.5993 131.252 33.7539 132.18 33.9492C133.124 34.1445 133.856 34.2503 134.377 34.2666V36H118.02V34.2666C118.475 34.234 119.167 34.1689 120.095 34.0713C121.039 33.9736 121.69 33.8516 122.048 33.7051C122.585 33.4935 122.976 33.1924 123.22 32.8018C123.48 32.3949 123.61 31.8577 123.61 31.1904V3.26074H122.194C121.69 3.26074 121.063 3.27702 120.314 3.30957C119.566 3.32585 118.85 3.37467 118.166 3.45605C117.629 3.52116 117.067 3.84668 116.481 4.43262C115.912 5.00228 115.383 5.65332 114.895 6.38574C114.406 7.11816 113.975 7.89941 113.601 8.72949C113.226 9.54329 112.966 10.2188 112.819 10.7559H111.11V1.35645H141.286V10.7559ZM176.394 36H161.965V34.2666C163.234 34.1852 164.284 34.0225 165.114 33.7783C165.961 33.5342 166.384 33.2331 166.384 32.875C166.384 32.7285 166.368 32.5495 166.335 32.3379C166.302 32.1263 166.254 31.9391 166.188 31.7764L163.308 24.0127H151.174C150.718 25.152 150.344 26.1449 150.051 26.9912C149.774 27.8376 149.522 28.6188 149.294 29.335C149.082 30.0348 148.936 30.6045 148.854 31.0439C148.773 31.4834 148.732 31.8415 148.732 32.1182C148.732 32.7692 149.245 33.2738 150.271 33.6318C151.296 33.9899 152.451 34.2015 153.737 34.2666V36H140.7V34.2666C141.123 34.234 141.652 34.1445 142.287 33.998C142.922 33.8353 143.443 33.6237 143.85 33.3633C144.501 32.9238 145.005 32.4681 145.363 31.9961C145.721 31.5078 146.071 30.8405 146.413 29.9941C148.155 25.6484 150.075 20.7656 152.175 15.3457C154.274 9.92578 156.146 5.09993 157.79 0.868164H159.743L171.291 30.751C171.535 31.3857 171.812 31.8984 172.121 32.2891C172.43 32.6797 172.862 33.0622 173.415 33.4365C173.789 33.6644 174.278 33.8597 174.88 34.0225C175.482 34.1689 175.987 34.2503 176.394 34.2666V36ZM162.429 21.8398L157.18 8.41211L152.028 21.8398H162.429ZM210.524 36H200.979C200.311 34.112 199.66 32.3949 199.025 30.8486C198.391 29.2861 197.74 27.7725 197.072 26.3076C195.982 23.8499 194.875 22.1898 193.752 21.3271C192.645 20.4645 191.148 20.0332 189.26 20.0332H187.478V31.1172C187.478 31.6543 187.575 32.1344 187.771 32.5576C187.982 32.9808 188.356 33.3226 188.894 33.583C189.154 33.6969 189.634 33.8353 190.334 33.998C191.05 34.1608 191.644 34.2503 192.116 34.2666V36H177.736V34.2666C178.111 34.234 178.656 34.1852 179.372 34.1201C180.088 34.055 180.593 33.9574 180.886 33.8271C181.374 33.6156 181.724 33.3063 181.936 32.8994C182.163 32.4762 182.277 31.9717 182.277 31.3857V6.38574C182.277 5.83236 182.18 5.35221 181.984 4.94531C181.805 4.53841 181.439 4.20475 180.886 3.94434C180.446 3.73275 179.925 3.54557 179.323 3.38281C178.721 3.22005 178.192 3.1224 177.736 3.08984V1.35645H192.116V3.08984C191.66 3.10612 191.091 3.17936 190.407 3.30957C189.724 3.43978 189.219 3.56185 188.894 3.67578C188.34 3.87109 187.966 4.19661 187.771 4.65234C187.575 5.10807 187.478 5.60449 187.478 6.1416V18.0068H189.748C190.35 18.0068 190.936 17.8766 191.506 17.6162C192.092 17.3558 192.629 16.9733 193.117 16.4688C193.817 15.7526 194.379 14.8818 194.802 13.8564C195.225 12.8148 195.681 11.5615 196.169 10.0967C196.625 8.74577 197.097 7.49251 197.585 6.33691C198.073 5.18132 198.789 4.11523 199.733 3.13867C200.368 2.48763 201.117 1.97493 201.979 1.60059C202.842 1.22624 203.778 1.03906 204.787 1.03906C205.487 1.03906 206.097 1.12858 206.618 1.30762C207.139 1.47038 207.578 1.70638 207.937 2.01562C208.262 2.29232 208.506 2.61784 208.669 2.99219C208.832 3.36654 208.913 3.77344 208.913 4.21289C208.913 4.57096 208.856 4.9209 208.742 5.2627C208.645 5.60449 208.498 5.88932 208.303 6.11719C208.075 6.39388 207.823 6.61361 207.546 6.77637C207.269 6.92285 206.879 6.99609 206.374 6.99609C205.837 6.99609 205.365 6.90658 204.958 6.72754C204.567 6.5485 204.226 6.30436 203.933 5.99512C203.64 5.68587 203.371 5.3278 203.127 4.9209C202.899 4.49772 202.679 4.07454 202.468 3.65137C202.012 3.96061 201.621 4.3431 201.296 4.79883C200.987 5.25456 200.71 5.74284 200.466 6.26367C200.222 6.78451 200.002 7.33789 199.807 7.92383C199.628 8.50977 199.416 9.16081 199.172 9.87695C198.977 10.4792 198.749 11.1546 198.488 11.9033C198.228 12.6357 197.927 13.3193 197.585 13.9541C197.227 14.6377 196.804 15.3213 196.315 16.0049C195.843 16.6885 195.274 17.3314 194.606 17.9336V18.2754C196.413 18.7799 197.91 19.5856 199.099 20.6924C200.303 21.7992 201.312 23.2233 202.126 24.9648C202.582 25.9577 203.078 27.0319 203.615 28.1875C204.169 29.3268 204.624 30.2952 204.982 31.0928C205.487 32.1833 205.975 32.9157 206.447 33.29C206.919 33.6481 207.399 33.8678 207.888 33.9492C208.311 34.0143 208.767 34.0794 209.255 34.1445C209.743 34.1934 210.166 34.234 210.524 34.2666V36ZM240.554 10.7559H238.869C238.723 10.1699 238.454 9.47819 238.063 8.68066C237.689 7.86686 237.266 7.10189 236.794 6.38574C236.306 5.63704 235.769 4.986 235.183 4.43262C234.613 3.86296 234.06 3.53743 233.522 3.45605C233.018 3.39095 232.383 3.34212 231.618 3.30957C230.853 3.27702 230.145 3.26074 229.494 3.26074H228.078V30.9707C228.078 31.5078 228.192 32.0042 228.42 32.46C228.648 32.8994 229.047 33.2412 229.616 33.4854C229.909 33.5993 230.52 33.7539 231.447 33.9492C232.391 34.1445 233.124 34.2503 233.645 34.2666V36H217.287V34.2666C217.743 34.234 218.435 34.1689 219.362 34.0713C220.306 33.9736 220.957 33.8516 221.315 33.7051C221.853 33.4935 222.243 33.1924 222.487 32.8018C222.748 32.3949 222.878 31.8577 222.878 31.1904V3.26074H221.462C220.957 3.26074 220.331 3.27702 219.582 3.30957C218.833 3.32585 218.117 3.37467 217.434 3.45605C216.896 3.52116 216.335 3.84668 215.749 4.43262C215.179 5.00228 214.65 5.65332 214.162 6.38574C213.674 7.11816 213.243 7.89941 212.868 8.72949C212.494 9.54329 212.233 10.2188 212.087 10.7559H210.378V1.35645H240.554V10.7559ZM265.432 25.3799C265.432 23.1663 264.691 21.4085 263.21 20.1064C261.729 18.7881 259.784 18.1289 257.375 18.1289C256.252 18.1289 255.357 18.1452 254.689 18.1777C254.038 18.194 253.542 18.2103 253.2 18.2266V30.9219C253.2 31.9961 253.518 32.7936 254.152 33.3145C254.787 33.819 256.04 34.0713 257.912 34.0713C260.337 34.0713 262.193 33.3307 263.479 31.8496C264.781 30.3522 265.432 28.1956 265.432 25.3799ZM271.486 25.7949C271.486 27.5365 271.136 29.0664 270.437 30.3848C269.753 31.7031 268.825 32.7773 267.653 33.6074C266.547 34.3887 265.301 34.9827 263.918 35.3896C262.551 35.7965 261.143 36 259.694 36H243.288V34.2666C243.679 34.234 244.248 34.1689 244.997 34.0713C245.746 33.9574 246.283 33.8271 246.608 33.6807C247.113 33.4528 247.471 33.1517 247.683 32.7773C247.894 32.3867 248 31.8903 248 31.2881V6.4834C248 5.93001 247.902 5.44173 247.707 5.01855C247.528 4.59538 247.162 4.25358 246.608 3.99316C246.234 3.79785 245.705 3.61068 245.021 3.43164C244.354 3.23633 243.801 3.1224 243.361 3.08984V1.35645H258.034V3.08984C257.578 3.10612 256.976 3.1875 256.228 3.33398C255.495 3.48047 254.966 3.61068 254.641 3.72461C254.087 3.91992 253.705 4.25358 253.493 4.72559C253.298 5.19759 253.2 5.70215 253.2 6.23926V16.0781C253.998 16.0618 254.795 16.0456 255.593 16.0293C256.39 16.013 257.163 16.0049 257.912 16.0049C259.67 16.0049 261.379 16.1758 263.039 16.5176C264.699 16.8431 266.164 17.3965 267.434 18.1777C268.687 18.9427 269.672 19.96 270.388 21.2295C271.12 22.4827 271.486 24.0046 271.486 25.7949ZM277.126 6.38574C277.126 5.86491 277.02 5.3929 276.809 4.96973C276.597 4.53027 276.231 4.18848 275.71 3.94434C275.271 3.73275 274.733 3.54557 274.099 3.38281C273.48 3.22005 272.943 3.1224 272.487 3.08984V1.35645H286.867V3.08984C286.411 3.10612 285.85 3.17936 285.183 3.30957C284.532 3.43978 284.043 3.56185 283.718 3.67578C283.164 3.87109 282.79 4.19661 282.595 4.65234C282.416 5.10807 282.326 5.60449 282.326 6.1416V31.1172C282.326 31.6868 282.416 32.167 282.595 32.5576C282.79 32.9482 283.164 33.29 283.718 33.583C283.994 33.7295 284.483 33.876 285.183 34.0225C285.899 34.1689 286.46 34.2503 286.867 34.2666V36H272.487V34.2666C272.878 34.234 273.439 34.1852 274.172 34.1201C274.921 34.055 275.433 33.9574 275.71 33.8271C276.198 33.6318 276.556 33.3389 276.784 32.9482C277.012 32.5413 277.126 32.0205 277.126 31.3857V6.38574Z" fill="#655D54"/>
</svg>
