<svg width="190" height="21" viewBox="0 0 190 21" fill="none" xmlns="http://www.w3.org/2000/svg">
<path d="M2.76 20.28C2.21333 20.28 1.72667 20.1133 1.3 19.78C0.886667 19.4467 0.68 18.9467 0.68 18.28C0.68 17.88 0.78 17.5733 0.98 17.36C1.16667 17.1467 1.38667 17.04 1.64 17.04C1.94667 17.04 2.16 17.28 2.28 17.76C2.33333 17.9867 2.42 18.2 2.54 18.4C2.66 18.6 2.83333 18.7 3.06 18.7C3.58 18.7 4.02 18.36 4.38 17.68C4.74 17 5.05333 15.9 5.32 14.38C5.6 12.8467 5.85333 10.8267 6.08 8.32C6.13333 7.73333 6.02667 7.29333 5.76 7C5.50667 6.70667 5.14 6.51333 4.66 6.42L4.18 6.32L4.44 5.64H13.42L13.66 5.96L13.42 6.32C13.0867 6.76 12.8467 7.22667 12.7 7.72C12.5667 8.21333 12.5 8.86 12.5 9.66V17.48C12.5 18.0667 12.58 18.4733 12.74 18.7C12.9 18.9133 13.2267 19.0933 13.72 19.24L14.12 19.36L13.92 20H9.02L8.78 19.32L9.24 19.2C9.57333 19.0933 9.83333 18.98 10.02 18.86C10.2067 18.74 10.3333 18.5667 10.4 18.34C10.48 18.1 10.52 17.7667 10.52 17.34V8.3C10.52 7.67333 10.4333 7.26 10.26 7.06C10.1 6.86 9.76 6.76 9.24 6.76H8.66C8.3 6.76 8.00667 6.81333 7.78 6.92C7.56667 7.01333 7.44667 7.22667 7.42 7.56C7.24667 9.65333 7.04667 11.4333 6.82 12.9C6.59333 14.3667 6.34 15.5867 6.06 16.56C5.79333 17.52 5.48667 18.2733 5.14 18.82C4.80667 19.3533 4.44 19.7333 4.04 19.96C3.65333 20.1733 3.22667 20.28 2.76 20.28ZM14.9366 20L14.6966 19.32L15.1766 19.2C15.5099 19.0933 15.7699 18.98 15.9566 18.86C16.1432 18.74 16.2699 18.5667 16.3366 18.34C16.4166 18.1 16.4566 17.7667 16.4566 17.34V8.3C16.4566 7.67333 16.3699 7.24 16.1966 7C16.0232 6.76 15.6832 6.57333 15.1766 6.44L14.6966 6.32L14.9366 5.64H19.3366L19.5966 5.96L19.3366 6.32C19.0032 6.76 18.7699 7.22667 18.6366 7.72C18.5032 8.21333 18.4366 8.86 18.4366 9.66V15.46L25.1766 8.14C25.1632 7.58 25.0632 7.18667 24.8766 6.96C24.7032 6.73333 24.3766 6.56 23.8966 6.44L23.4566 6.32L23.6966 5.64H28.0566L28.3566 5.96L28.0566 6.32C27.7099 6.74667 27.4699 7.21333 27.3366 7.72C27.2032 8.21333 27.1366 8.86 27.1366 9.66V17.48C27.1366 18.0667 27.2232 18.4733 27.3966 18.7C27.5699 18.9267 27.9032 19.1067 28.3966 19.24L28.7966 19.36L28.5966 20H23.6966L23.4566 19.32L23.8966 19.2C24.4032 19.0667 24.7432 18.8867 24.9166 18.66C25.0899 18.42 25.1766 17.98 25.1766 17.34V9.76L18.4366 17.1V17.48C18.4366 18.0667 18.5166 18.4733 18.6766 18.7C18.8499 18.9133 19.1699 19.0933 19.6366 19.24L20.0566 19.36L19.8566 20H14.9366ZM36.1255 20L35.8655 19.32L36.3655 19.2C36.6988 19.0933 36.9521 18.98 37.1255 18.86C37.3121 18.74 37.4388 18.5667 37.5055 18.34C37.5855 18.1 37.6255 17.7667 37.6255 17.34V13.34C37.0921 13.74 36.5255 14.08 35.9255 14.36C35.3388 14.64 34.5988 14.78 33.7055 14.78C32.5988 14.78 31.7388 14.52 31.1255 14C30.5121 13.4667 30.2055 12.6733 30.2055 11.62V9.14C30.2055 8.59333 30.1855 8.15333 30.1455 7.82C30.1188 7.47333 30.0588 7.18667 29.9655 6.96C29.8721 6.73333 29.7455 6.51333 29.5855 6.3L29.3055 5.96L29.5855 5.62L32.1855 5.34V11.1C32.1855 11.8733 32.3788 12.44 32.7655 12.8C33.1655 13.1467 33.7521 13.32 34.5255 13.32C35.3255 13.32 35.9521 13.18 36.4055 12.9C36.8721 12.6067 37.2788 12.2933 37.6255 11.96V8.3C37.6255 7.67333 37.5388 7.24 37.3655 7C37.2055 6.76 36.8721 6.57333 36.3655 6.44L35.8655 6.32L36.1255 5.64H40.5055L40.7655 5.96L40.5055 6.32C40.1721 6.76 39.9388 7.22667 39.8055 7.72C39.6855 8.21333 39.6255 8.86 39.6255 9.66V17.48C39.6255 18.0667 39.7055 18.4733 39.8655 18.7C40.0255 18.9133 40.3455 19.0933 40.8255 19.24L41.2655 19.36L41.0255 20H36.1255ZM42.7041 20L42.4641 19.32L42.9241 19.2C43.4307 19.0533 43.7707 18.86 43.9441 18.62C44.1174 18.38 44.2041 17.9533 44.2041 17.34V8.3C44.2041 7.67333 44.1174 7.24667 43.9441 7.02C43.7707 6.78 43.4307 6.58667 42.9241 6.44L42.4641 6.32L42.7041 5.64H47.0841L47.3441 5.96L47.0841 6.32C46.7507 6.76 46.5174 7.22667 46.3841 7.72C46.2507 8.2 46.1841 8.84667 46.1841 9.66V12.1H52.7241V8.3C52.7241 7.67333 52.6374 7.24667 52.4641 7.02C52.2907 6.78 51.9507 6.58667 51.4441 6.44L50.9841 6.32L51.2241 5.64H55.6041L55.8641 5.96L55.6041 6.32C55.2707 6.76 55.0374 7.22667 54.9041 7.72C54.7707 8.2 54.7041 8.84667 54.7041 9.66V17.48C54.7041 18.0667 54.7841 18.4733 54.9441 18.7C55.1174 18.9133 55.4441 19.0933 55.9241 19.24L56.3441 19.36L56.1241 20H51.2241L50.9841 19.32L51.4441 19.2C51.9507 19.0533 52.2907 18.86 52.4641 18.62C52.6374 18.38 52.7241 17.9533 52.7241 17.34V13.32H46.1841V17.48C46.1841 18.0667 46.2641 18.4733 46.4241 18.7C46.5974 18.9133 46.9241 19.0933 47.4041 19.24L47.8241 19.36L47.6041 20H42.7041ZM58.29 20L58.05 19.32L58.53 19.2C59.0233 19.0667 59.3567 18.88 59.53 18.64C59.7033 18.3867 59.79 17.9533 59.79 17.34V8.3C59.79 7.7 59.7033 7.27333 59.53 7.02C59.3567 6.76667 59.0233 6.57333 58.53 6.44L58.05 6.32L58.29 5.64H62.69L62.95 5.96L62.69 6.32C62.3567 6.77333 62.1233 7.24667 61.99 7.74C61.8567 8.22 61.79 8.86 61.79 9.66V16.34C61.79 16.9667 61.8633 17.46 62.01 17.82C62.17 18.18 62.37 18.44 62.61 18.6C62.85 18.76 63.09 18.86 63.33 18.9C63.5833 18.94 63.81 18.96 64.01 18.96C64.8367 18.96 65.49 18.6533 65.97 18.04C66.4633 17.4267 66.71 16.6467 66.71 15.7C66.71 15.1267 66.5833 14.6067 66.33 14.14C66.0767 13.6733 65.73 13.3 65.29 13.02C64.85 12.74 64.3567 12.6 63.81 12.6C63.3967 12.6 63.1033 12.6333 62.93 12.7C62.7567 12.7533 62.61 12.78 62.49 12.78C62.3967 12.78 62.3233 12.7333 62.27 12.64C62.23 12.5467 62.21 12.44 62.21 12.32C62.21 12.0667 62.41 11.8867 62.81 11.78C63.21 11.6733 63.6567 11.62 64.15 11.62C65.0833 11.62 65.8967 11.8133 66.59 12.2C67.2833 12.5867 67.8233 13.1 68.21 13.74C68.5967 14.3667 68.79 15.0533 68.79 15.8C68.79 16.6133 68.6233 17.34 68.29 17.98C67.9567 18.6067 67.43 19.1 66.71 19.46C65.99 19.82 65.0433 20 63.87 20H58.29ZM69.93 20L69.71 19.32L70.17 19.2C70.6633 19.0533 71.0033 18.8667 71.19 18.64C71.3767 18.4133 71.47 17.98 71.47 17.34V8.3C71.47 7.67333 71.3767 7.24 71.19 7C71.0033 6.76 70.6633 6.57333 70.17 6.44L69.71 6.32L69.93 5.64H74.35L74.59 5.96L74.35 6.32C74.0167 6.76 73.7767 7.22667 73.63 7.72C73.4967 8.21333 73.43 8.86 73.43 9.66V17.48C73.43 18.0667 73.51 18.4733 73.67 18.7C73.8433 18.9133 74.1633 19.0933 74.63 19.24L75.07 19.36L74.85 20H69.93ZM76.4209 20L76.1809 19.32L76.6609 19.2C76.9943 19.0933 77.2543 18.98 77.4409 18.86C77.6276 18.74 77.7543 18.5667 77.8209 18.34C77.9009 18.1 77.9409 17.7667 77.9409 17.34V8.3C77.9409 7.67333 77.8543 7.24 77.6809 7C77.5076 6.76 77.1676 6.57333 76.6609 6.44L76.1809 6.32L76.4209 5.64H80.8209L81.0809 5.96L80.8209 6.32C80.4876 6.76 80.2543 7.22667 80.1209 7.72C79.9876 8.21333 79.9209 8.86 79.9209 9.66V15.46L86.6609 8.14C86.6476 7.58 86.5476 7.18667 86.3609 6.96C86.1876 6.73333 85.8609 6.56 85.3809 6.44L84.9409 6.32L85.1809 5.64H89.5409L89.8409 5.96L89.5409 6.32C89.1943 6.74667 88.9543 7.21333 88.8209 7.72C88.6876 8.21333 88.6209 8.86 88.6209 9.66V17.48C88.6209 18.0667 88.7076 18.4733 88.8809 18.7C89.0543 18.9267 89.3876 19.1067 89.8809 19.24L90.2809 19.36L90.0809 20H85.1809L84.9409 19.32L85.3809 19.2C85.8876 19.0667 86.2276 18.8867 86.4009 18.66C86.5743 18.42 86.6609 17.98 86.6609 17.34V9.76L79.9209 17.1V17.48C79.9209 18.0667 80.0009 18.4733 80.1609 18.7C80.3343 18.9133 80.6543 19.0933 81.1209 19.24L81.5409 19.36L81.3409 20H76.4209ZM83.2409 3.96C82.1876 3.96 81.3409 3.80667 80.7009 3.5C80.0609 3.18 79.7409 2.71333 79.7409 2.1C79.7409 1.66 79.9076 1.31333 80.2409 1.06C80.5743 0.806666 80.9476 0.68 81.3609 0.68C81.4809 0.68 81.5809 0.713333 81.6609 0.779999C81.7409 0.833333 81.7809 0.893333 81.7809 0.96C81.7809 1.05333 81.7276 1.16667 81.6209 1.3C81.5143 1.43333 81.4609 1.67333 81.4609 2.02C81.4609 2.31333 81.5809 2.57333 81.8209 2.8C82.0743 3.01333 82.5476 3.12 83.2409 3.12C83.9076 3.12 84.3743 3.02 84.6409 2.82C84.9209 2.60667 85.0609 2.35333 85.0609 2.06C85.0609 1.7 85.0009 1.45333 84.8809 1.32C84.7743 1.17333 84.7209 1.05333 84.7209 0.96C84.7209 0.893333 84.7609 0.833333 84.8409 0.779999C84.9209 0.713333 85.0276 0.68 85.1609 0.68C85.5609 0.68 85.9209 0.806666 86.2409 1.06C86.5609 1.31333 86.7209 1.66 86.7209 2.1C86.7209 2.71333 86.4076 3.18 85.7809 3.5C85.1543 3.80667 84.3076 3.96 83.2409 3.96ZM107.178 20.28C106.551 20.28 106.024 20.1133 105.598 19.78C105.184 19.4333 104.824 18.9467 104.518 18.32L102.698 14.68C102.484 14.24 102.211 13.9 101.878 13.66C101.544 13.42 101.151 13.2267 100.698 13.08C100.631 13.0533 100.598 12.98 100.598 12.86C100.598 12.7533 100.624 12.6467 100.678 12.54C100.731 12.4333 100.844 12.38 101.018 12.38H101.478L104.738 8.22C104.964 7.94 105.084 7.61333 105.098 7.24C105.124 6.86667 105.038 6.54667 104.838 6.28L104.618 5.96L104.978 5.64H108.418L108.658 6.32L108.178 6.44C107.884 6.49333 107.618 6.60667 107.378 6.78C107.138 6.94 106.884 7.18667 106.618 7.52L102.578 12.68C103.231 12.8 103.771 13.0333 104.198 13.38C104.624 13.7267 105.004 14.22 105.338 14.86L107.218 18.58C107.324 18.7667 107.438 18.9133 107.558 19.02C107.678 19.1267 107.824 19.18 107.998 19.18C108.131 19.18 108.258 19.16 108.378 19.12C108.511 19.08 108.644 19.0067 108.778 18.9L109.098 19.48C108.818 19.7733 108.518 19.98 108.198 20.1C107.878 20.22 107.538 20.28 107.178 20.28ZM96.6377 20L96.3977 19.32L96.8777 19.2C97.211 19.0933 97.471 18.98 97.6577 18.86C97.8443 18.74 97.971 18.5667 98.0377 18.34C98.1177 18.1 98.1577 17.7667 98.1577 17.34V8.3C98.1577 7.67333 98.071 7.24 97.8977 7C97.7243 6.76 97.3843 6.57333 96.8777 6.44L96.3977 6.32L96.6377 5.64H101.038L101.298 5.96L101.038 6.32C100.704 6.76 100.471 7.22667 100.338 7.72C100.204 8.21333 100.138 8.86 100.138 9.66V17.48C100.138 18.0667 100.218 18.4733 100.378 18.7C100.551 18.9133 100.871 19.0933 101.338 19.24L101.758 19.36L101.558 20H96.6377ZM109.221 20L108.981 19.32L109.441 19.2C109.801 19.1067 110.087 18.9933 110.301 18.86C110.514 18.7267 110.694 18.5467 110.841 18.32C111.001 18.08 111.147 17.7533 111.281 17.34L114.421 8.3C114.487 8.08667 114.541 7.90667 114.581 7.76C114.621 7.6 114.641 7.45333 114.641 7.32C114.641 7.06667 114.567 6.88 114.421 6.76C114.274 6.62667 114.047 6.52 113.741 6.44L113.281 6.32L113.521 5.64H117.381L121.401 17.24C121.561 17.68 121.721 18.04 121.881 18.32C122.054 18.6 122.247 18.84 122.461 19.04C122.674 19.24 122.921 19.4533 123.201 19.68L122.941 20H118.441L118.201 19.32L118.661 19.2C118.967 19.12 119.194 19.02 119.341 18.9C119.487 18.7667 119.561 18.5733 119.561 18.32C119.561 18.1867 119.541 18.0467 119.501 17.9C119.461 17.74 119.407 17.5533 119.341 17.34L118.381 14.54H113.761L113.281 16C113.134 16.4533 113.021 16.8467 112.941 17.18C112.861 17.5133 112.821 17.82 112.821 18.1C112.821 18.5533 112.914 18.96 113.101 19.32L113.281 19.68L112.901 20H109.221ZM114.181 13.3H117.961L116.041 7.7L114.181 13.3ZM124.482 20L124.222 19.32L124.682 19.2C125.015 19.0933 125.275 18.98 125.462 18.86C125.649 18.74 125.775 18.5667 125.842 18.34C125.922 18.1 125.962 17.7667 125.962 17.34V9.66C125.962 8.86 125.895 8.21333 125.762 7.72C125.629 7.22667 125.402 6.76 125.082 6.32L124.822 5.96L125.082 5.64H131.202C131.775 5.64 132.249 5.61333 132.622 5.56C132.995 5.49333 133.275 5.38667 133.462 5.24L133.822 4.98L134.162 5.24V8.78L133.462 9.02L133.362 8.56C133.229 8.08 133.082 7.71333 132.922 7.46C132.762 7.19333 132.549 7.01333 132.282 6.92C132.015 6.81333 131.649 6.76 131.182 6.76H129.222C128.702 6.76 128.362 6.86 128.202 7.06C128.042 7.26 127.962 7.67333 127.962 8.3V16.34C127.962 16.9667 128.035 17.46 128.182 17.82C128.342 18.18 128.535 18.44 128.762 18.6C129.002 18.76 129.242 18.86 129.482 18.9C129.735 18.94 129.962 18.96 130.162 18.96C131.122 18.96 131.862 18.6533 132.382 18.04C132.902 17.4267 133.162 16.6467 133.162 15.7C133.162 15.1267 133.029 14.6067 132.762 14.14C132.509 13.6733 132.149 13.3 131.682 13.02C131.215 12.74 130.662 12.6 130.022 12.6C129.609 12.6 129.309 12.6333 129.122 12.7C128.949 12.7533 128.795 12.78 128.662 12.78C128.569 12.78 128.495 12.7333 128.442 12.64C128.402 12.5467 128.382 12.44 128.382 12.32C128.382 12.0667 128.582 11.8867 128.982 11.78C129.382 11.6733 129.829 11.62 130.322 11.62C131.335 11.62 132.209 11.8133 132.942 12.2C133.675 12.5867 134.242 13.1 134.642 13.74C135.042 14.3667 135.242 15.0533 135.242 15.8C135.242 16.6133 135.075 17.34 134.742 17.98C134.409 18.6067 133.862 19.1 133.102 19.46C132.355 19.82 131.342 20 130.062 20H124.482ZM136.323 20L136.083 19.32L136.563 19.2C136.897 19.0933 137.157 18.98 137.343 18.86C137.53 18.74 137.657 18.5667 137.723 18.34C137.803 18.1 137.843 17.7667 137.843 17.34V8.3C137.843 7.67333 137.757 7.24 137.583 7C137.41 6.76 137.07 6.57333 136.563 6.44L136.083 6.32L136.323 5.64H140.723L140.983 5.96L140.723 6.32C140.39 6.76 140.157 7.22667 140.023 7.72C139.89 8.21333 139.823 8.86 139.823 9.66V15.46L146.563 8.14C146.55 7.58 146.45 7.18667 146.263 6.96C146.09 6.73333 145.763 6.56 145.283 6.44L144.843 6.32L145.083 5.64H149.443L149.743 5.96L149.443 6.32C149.097 6.74667 148.857 7.21333 148.723 7.72C148.59 8.21333 148.523 8.86 148.523 9.66V17.48C148.523 18.0667 148.61 18.4733 148.783 18.7C148.957 18.9267 149.29 19.1067 149.783 19.24L150.183 19.36L149.983 20H145.083L144.843 19.32L145.283 19.2C145.79 19.0667 146.13 18.8867 146.303 18.66C146.477 18.42 146.563 17.98 146.563 17.34V9.76L139.823 17.1V17.48C139.823 18.0667 139.903 18.4733 140.063 18.7C140.237 18.9133 140.557 19.0933 141.023 19.24L141.443 19.36L141.243 20H136.323ZM151.532 20L151.292 19.32L151.752 19.2C152.259 19.0533 152.599 18.86 152.772 18.62C152.946 18.38 153.032 17.9533 153.032 17.34V8.3C153.032 7.67333 152.946 7.24667 152.772 7.02C152.599 6.78 152.259 6.58667 151.752 6.44L151.292 6.32L151.532 5.64H155.912L156.172 5.96L155.912 6.32C155.579 6.76 155.346 7.22667 155.212 7.72C155.079 8.2 155.012 8.84667 155.012 9.66V12.1H161.552V8.3C161.552 7.67333 161.466 7.24667 161.292 7.02C161.119 6.78 160.779 6.58667 160.272 6.44L159.812 6.32L160.052 5.64H164.432L164.692 5.96L164.432 6.32C164.099 6.76 163.866 7.22667 163.732 7.72C163.599 8.2 163.532 8.84667 163.532 9.66V17.48C163.532 18.0667 163.612 18.4733 163.772 18.7C163.946 18.9133 164.272 19.0933 164.752 19.24L165.172 19.36L164.952 20H160.052L159.812 19.32L160.272 19.2C160.779 19.0533 161.119 18.86 161.292 18.62C161.466 18.38 161.552 17.9533 161.552 17.34V13.32H155.012V17.48C155.012 18.0667 155.092 18.4733 155.252 18.7C155.426 18.9133 155.752 19.0933 156.232 19.24L156.652 19.36L156.432 20H151.532ZM176.618 20.5L176.458 20.28C176.311 20.0933 176.031 20 175.618 20H167.198L166.978 19.36L167.398 19.24C167.878 19.0933 168.198 18.9133 168.358 18.7C168.531 18.4733 168.618 18.0667 168.618 17.48V9.66C168.618 8.84667 168.545 8.2 168.398 7.72C168.265 7.24 168.038 6.77333 167.718 6.32L167.458 5.96L167.718 5.64H173.838C174.985 5.64 175.745 5.5 176.118 5.22L176.478 4.96L176.798 5.22V8.78L176.118 9.02L175.998 8.56C175.878 8.08 175.738 7.71333 175.578 7.46C175.418 7.20667 175.205 7.03333 174.938 6.94C174.671 6.83333 174.298 6.78 173.818 6.78H171.878C171.358 6.78 171.011 6.88 170.838 7.08C170.678 7.26667 170.598 7.67333 170.598 8.3V12.14H173.138C173.445 12.14 173.718 12.0733 173.958 11.94C174.211 11.8067 174.465 11.5667 174.718 11.22L174.878 11L175.278 11.22V14.64L174.598 14.88L174.478 14.42C174.358 13.9533 174.138 13.6467 173.818 13.5C173.511 13.3533 173.005 13.28 172.298 13.28H170.598V17.34C170.598 17.9533 170.678 18.36 170.838 18.56C171.011 18.76 171.358 18.86 171.878 18.86H174.038C174.518 18.86 174.891 18.8133 175.158 18.72C175.425 18.6133 175.638 18.4333 175.798 18.18C175.958 17.9133 176.098 17.5467 176.218 17.08L176.338 16.62L177.018 16.86V20.28L176.618 20.5ZM182.345 20L182.085 19.68L182.345 19.32C182.678 18.88 182.912 18.42 183.045 17.94C183.178 17.4467 183.245 16.7933 183.245 15.98V8.3C183.245 7.67333 183.198 7.26667 183.105 7.08C183.025 6.88 182.845 6.78 182.565 6.78H181.665C181.198 6.78 180.825 6.83333 180.545 6.94C180.278 7.03333 180.065 7.20667 179.905 7.46C179.758 7.71333 179.618 8.08 179.485 8.56L179.365 9.02L178.685 8.78V5.22L179.005 4.96L179.365 5.22C179.738 5.5 180.498 5.64 181.645 5.64H186.825C187.972 5.64 188.732 5.5 189.105 5.22L189.465 4.96L189.785 5.22V8.78L189.105 9.02L188.985 8.56C188.865 8.08 188.725 7.71333 188.565 7.46C188.405 7.20667 188.192 7.03333 187.925 6.94C187.658 6.83333 187.285 6.78 186.805 6.78H185.905C185.625 6.78 185.438 6.88 185.345 7.08C185.265 7.26667 185.225 7.67333 185.225 8.3V17.34C185.225 17.9533 185.312 18.38 185.485 18.62C185.672 18.86 186.012 19.0533 186.505 19.2L186.965 19.32L186.725 20H182.345Z" fill="#655D54"/>
</svg>
