<svg width="202" height="21" viewBox="0 0 202 21" fill="none" xmlns="http://www.w3.org/2000/svg">
<path d="M0.884 17L0.68 16.422L1.071 16.32C1.50167 16.1953 1.79067 16.031 1.938 15.827C2.08533 15.623 2.159 15.2603 2.159 14.739V7.055C2.159 6.52233 2.08533 6.15967 1.938 5.967C1.79067 5.763 1.50167 5.59867 1.071 5.474L0.68 5.372L0.884 4.794H4.607L4.828 5.066L4.607 5.372C4.32367 5.746 4.12533 6.14267 4.012 6.562C3.89867 6.97 3.842 7.51967 3.842 8.211V10.285H9.401V7.055C9.401 6.52233 9.32733 6.15967 9.18 5.967C9.03267 5.763 8.74367 5.59867 8.313 5.474L7.922 5.372L8.126 4.794H11.849L12.07 5.066L11.849 5.372C11.5657 5.746 11.3673 6.14267 11.254 6.562C11.1407 6.97 11.084 7.51967 11.084 8.211V14.858C11.084 15.3567 11.152 15.7023 11.288 15.895C11.4353 16.0763 11.713 16.2293 12.121 16.354L12.478 16.456L12.291 17H8.126L7.922 16.422L8.313 16.32C8.74367 16.1953 9.03267 16.031 9.18 15.827C9.32733 15.623 9.401 15.2603 9.401 14.739V11.322H3.842V14.858C3.842 15.3567 3.91 15.7023 4.046 15.895C4.19333 16.0763 4.471 16.2293 4.879 16.354L5.236 16.456L5.049 17H0.884ZM22.207 17.425L22.071 17.238C21.9464 17.0793 21.7084 17 21.357 17H14.2L14.013 16.456L14.37 16.354C14.778 16.2293 15.05 16.0763 15.186 15.895C15.3334 15.7023 15.407 15.3567 15.407 14.858V8.211C15.407 7.51967 15.3447 6.97 15.22 6.562C15.1067 6.154 14.914 5.75733 14.642 5.372L14.421 5.066L14.642 4.794H19.844C20.8187 4.794 21.4647 4.675 21.782 4.437L22.088 4.216L22.36 4.437V7.463L21.782 7.667L21.68 7.276C21.578 6.868 21.459 6.55633 21.323 6.341C21.187 6.12567 21.0057 5.97833 20.779 5.899C20.5524 5.80833 20.235 5.763 19.827 5.763H18.178C17.736 5.763 17.4414 5.848 17.294 6.018C17.158 6.17667 17.09 6.52233 17.09 7.055V10.319H19.249C19.5097 10.319 19.742 10.2623 19.946 10.149C20.1614 10.0357 20.3767 9.83167 20.592 9.537L20.728 9.35L21.068 9.537V12.444L20.49 12.648L20.388 12.257C20.286 11.8603 20.099 11.5997 19.827 11.475C19.5664 11.3503 19.1357 11.288 18.535 11.288H17.09V14.739C17.09 15.2603 17.158 15.606 17.294 15.776C17.4414 15.946 17.736 16.031 18.178 16.031H20.014C20.422 16.031 20.7394 15.9913 20.966 15.912C21.1927 15.8213 21.374 15.6683 21.51 15.453C21.646 15.2263 21.765 14.9147 21.867 14.518L21.969 14.127L22.547 14.331V17.238L22.207 17.425ZM24.015 17L23.811 16.422L24.219 16.32C24.5024 16.2293 24.7234 16.133 24.882 16.031C25.0407 15.929 25.1484 15.7817 25.205 15.589C25.273 15.385 25.307 15.1017 25.307 14.739V7.055C25.307 6.52233 25.2334 6.154 25.086 5.95C24.9387 5.746 24.6497 5.58733 24.219 5.474L23.811 5.372L24.015 4.794H27.755L27.976 5.066L27.755 5.372C27.4717 5.746 27.2734 6.14267 27.16 6.562C27.0467 6.98133 26.99 7.531 26.99 8.211V13.141L32.719 6.919C32.7077 6.443 32.6227 6.10867 32.464 5.916C32.3167 5.72333 32.039 5.576 31.631 5.474L31.257 5.372L31.461 4.794H35.167L35.422 5.066L35.167 5.372C34.8724 5.73467 34.6684 6.13133 34.555 6.562C34.4417 6.98133 34.385 7.531 34.385 8.211V14.858C34.385 15.3567 34.4587 15.7023 34.606 15.895C34.7534 16.0877 35.0367 16.2407 35.456 16.354L35.796 16.456L35.626 17H31.461L31.257 16.422L31.631 16.32C32.0617 16.2067 32.3507 16.0537 32.498 15.861C32.6454 15.657 32.719 15.283 32.719 14.739V8.296L26.99 14.535V14.858C26.99 15.3567 27.058 15.7023 27.194 15.895C27.3414 16.0763 27.6134 16.2293 28.01 16.354L28.367 16.456L28.197 17H24.015ZM40.4106 17.238C39.7306 17.238 39.0903 17.136 38.4896 16.932C37.8889 16.728 37.3959 16.422 37.0106 16.014C36.6366 15.606 36.4496 15.096 36.4496 14.484C36.4496 13.9513 36.6139 13.5207 36.9426 13.192C37.2713 12.8633 37.6793 12.699 38.1666 12.699C38.2913 12.699 38.3819 12.7103 38.4386 12.733C38.4953 12.7443 38.5236 12.801 38.5236 12.903C38.5236 12.9823 38.4556 13.1297 38.3196 13.345C38.1949 13.5603 38.1326 13.8947 38.1326 14.348C38.1326 14.9487 38.3139 15.419 38.6766 15.759C39.0393 16.099 39.6003 16.269 40.3596 16.269C41.1869 16.269 41.8329 16.048 42.2976 15.606C42.7623 15.164 42.9946 14.5463 42.9946 13.753C42.9946 13.2543 42.9039 12.7953 42.7226 12.376C42.5413 11.9453 42.2523 11.5997 41.8556 11.339C41.4703 11.0783 40.9603 10.948 40.3256 10.948C40.0423 10.948 39.8269 10.965 39.6796 10.999C39.5323 11.033 39.4076 11.05 39.3056 11.05C39.1696 11.05 39.1016 10.9367 39.1016 10.71C39.1016 10.54 39.1809 10.421 39.3396 10.353C39.4983 10.2737 39.7533 10.2 40.1046 10.132C40.7393 10.0073 41.2209 9.83167 41.5496 9.605C41.8783 9.367 42.0993 9.08367 42.2126 8.755C42.3373 8.415 42.3996 8.041 42.3996 7.633C42.3996 6.96433 42.2183 6.443 41.8556 6.069C41.4929 5.695 41.0113 5.508 40.4106 5.508C39.9346 5.508 39.5153 5.57033 39.1526 5.695C38.8013 5.81967 38.5009 6.04633 38.2516 6.375C38.0136 6.69233 37.8209 7.16267 37.6736 7.786L37.5886 8.16L37.0276 7.973V4.59L37.2996 4.386L37.5886 4.59C37.6906 4.66933 37.7926 4.726 37.8946 4.76C38.0079 4.78267 38.1213 4.794 38.2346 4.794C38.5179 4.794 38.8353 4.75433 39.1866 4.675C39.5493 4.59567 40.0309 4.556 40.6316 4.556C41.2663 4.556 41.8556 4.66367 42.3996 4.879C42.9549 5.09433 43.4026 5.423 43.7426 5.865C44.0826 6.307 44.2526 6.868 44.2526 7.548C44.2526 8.23933 44.0429 8.823 43.6236 9.299C43.2043 9.775 42.6036 10.149 41.8216 10.421C42.9436 10.659 43.7256 11.067 44.1676 11.645C44.6209 12.223 44.8476 12.9653 44.8476 13.872C44.8476 14.5293 44.6606 15.113 44.2866 15.623C43.9239 16.133 43.4083 16.5297 42.7396 16.813C42.0823 17.0963 41.3059 17.238 40.4106 17.238ZM46.2249 17L46.0209 16.422L46.4119 16.32C46.8425 16.1953 47.1315 16.031 47.2789 15.827C47.4262 15.623 47.4999 15.2603 47.4999 14.739V6.341C47.4999 6.069 47.3752 5.933 47.1259 5.933H46.1399L45.9359 5.304C46.2305 5.19067 46.6045 5.07733 47.0579 4.964C47.5225 4.85067 48.0212 4.75433 48.5539 4.675C49.0979 4.59567 49.6305 4.556 50.1519 4.556C51.2512 4.556 52.1352 4.709 52.8039 5.015C53.4839 5.30967 53.9769 5.712 54.2829 6.222C54.6002 6.732 54.7589 7.293 54.7589 7.905C54.7589 8.50567 54.6115 9.06667 54.3169 9.588C54.0335 10.1093 53.5859 10.5173 52.9739 10.812C53.7445 11.0613 54.3395 11.4467 54.7589 11.968C55.1782 12.478 55.3879 13.039 55.3879 13.651C55.3879 14.297 55.2405 14.875 54.9459 15.385C54.6625 15.8837 54.1979 16.2803 53.5519 16.575C52.9059 16.8583 52.0445 17 50.9679 17H46.2249ZM51.0699 16.116C51.8859 16.116 52.5149 15.878 52.9569 15.402C53.3989 14.9147 53.6199 14.3027 53.6199 13.566C53.6199 13.1353 53.5122 12.7443 53.2969 12.393C53.0815 12.0303 52.7699 11.7413 52.3619 11.526C51.9652 11.3107 51.4835 11.203 50.9169 11.203C50.7129 11.203 50.5089 11.1803 50.3049 11.135C50.1009 11.0897 49.9365 11.0387 49.8119 10.982C49.7212 10.9367 49.6532 10.88 49.6079 10.812C49.5739 10.744 49.5569 10.676 49.5569 10.608C49.5569 10.404 49.6362 10.302 49.7949 10.302C49.8629 10.302 49.9535 10.3247 50.0669 10.37C50.1915 10.404 50.3842 10.421 50.6449 10.421C51.4269 10.421 52.0275 10.1887 52.4469 9.724C52.8662 9.25933 53.0759 8.66433 53.0759 7.939C53.0759 7.24767 52.8435 6.66967 52.3789 6.205C51.9142 5.74033 51.2285 5.508 50.3219 5.508C49.9819 5.508 49.7325 5.55333 49.5739 5.644C49.4152 5.72333 49.3075 5.82533 49.2509 5.95C49.2055 6.07467 49.1829 6.188 49.1829 6.29V13.889C49.1829 14.4217 49.2452 14.841 49.3699 15.147C49.5059 15.4417 49.6759 15.6627 49.8799 15.81C50.0839 15.946 50.2879 16.031 50.4919 16.065C50.7072 16.099 50.8999 16.116 51.0699 16.116ZM65.2881 17.425L65.1521 17.238C65.0274 17.0793 64.7894 17 64.4381 17H57.2811L57.0941 16.456L57.4511 16.354C57.8591 16.2293 58.1311 16.0763 58.2671 15.895C58.4144 15.7023 58.4881 15.3567 58.4881 14.858V8.211C58.4881 7.51967 58.4258 6.97 58.3011 6.562C58.1878 6.154 57.9951 5.75733 57.7231 5.372L57.5021 5.066L57.7231 4.794H62.9251C63.8998 4.794 64.5458 4.675 64.8631 4.437L65.1691 4.216L65.4411 4.437V7.463L64.8631 7.667L64.7611 7.276C64.6591 6.868 64.5401 6.55633 64.4041 6.341C64.2681 6.12567 64.0868 5.97833 63.8601 5.899C63.6334 5.80833 63.3161 5.763 62.9081 5.763H61.2591C60.8171 5.763 60.5224 5.848 60.3751 6.018C60.2391 6.17667 60.1711 6.52233 60.1711 7.055V10.319H62.3301C62.5908 10.319 62.8231 10.2623 63.0271 10.149C63.2424 10.0357 63.4578 9.83167 63.6731 9.537L63.8091 9.35L64.1491 9.537V12.444L63.5711 12.648L63.4691 12.257C63.3671 11.8603 63.1801 11.5997 62.9081 11.475C62.6474 11.3503 62.2168 11.288 61.6161 11.288H60.1711V14.739C60.1711 15.2603 60.2391 15.606 60.3751 15.776C60.5224 15.946 60.8171 16.031 61.2591 16.031H63.0951C63.5031 16.031 63.8204 15.9913 64.0471 15.912C64.2738 15.8213 64.4551 15.6683 64.5911 15.453C64.7271 15.2263 64.8461 14.9147 64.9481 14.518L65.0501 14.127L65.6281 14.331V17.238L65.2881 17.425ZM72.7401 17.238C71.8221 17.238 71.0231 17.0737 70.3431 16.745C69.6631 16.4163 69.0964 15.963 68.6431 15.385C68.1897 14.807 67.8497 14.1383 67.6231 13.379C67.4077 12.6083 67.3001 11.7867 67.3001 10.914C67.3001 10.0413 67.4077 9.21967 67.6231 8.449C67.8497 7.67833 68.1897 7.004 68.6431 6.426C69.0964 5.83667 69.6687 5.37767 70.3601 5.049C71.0514 4.72033 71.8617 4.556 72.7911 4.556C73.5391 4.556 74.2021 4.66367 74.7801 4.879C75.3581 5.083 75.8057 5.372 76.1231 5.746C76.4517 6.12 76.6161 6.55633 76.6161 7.055C76.6161 7.64433 76.4404 8.126 76.0891 8.5C75.7491 8.86267 75.3184 9.044 74.7971 9.044C74.5591 9.044 74.4401 8.976 74.4401 8.84C74.4401 8.78333 74.4797 8.69833 74.5591 8.585C74.6497 8.46033 74.7347 8.296 74.8141 8.092C74.9047 7.87667 74.9501 7.61033 74.9501 7.293C74.9501 6.76033 74.7517 6.32967 74.3551 6.001C73.9584 5.67233 73.4371 5.508 72.7911 5.508C72.1224 5.508 71.5614 5.66667 71.1081 5.984C70.6547 6.30133 70.2864 6.72633 70.0031 7.259C69.7311 7.78033 69.5327 8.364 69.4081 9.01C69.2834 9.64467 69.2211 10.2793 69.2211 10.914C69.2211 11.8547 69.3684 12.716 69.6631 13.498C69.9577 14.28 70.3771 14.9033 70.9211 15.368C71.4764 15.8327 72.1337 16.065 72.8931 16.065C73.6411 16.065 74.2814 15.929 74.8141 15.657C75.3467 15.3737 75.7717 14.9997 76.0891 14.535C76.1231 14.4897 76.1627 14.467 76.2081 14.467C76.3101 14.467 76.4234 14.518 76.5481 14.62C76.6841 14.722 76.7521 14.8297 76.7521 14.943C76.7521 14.977 76.7351 15.0223 76.7011 15.079C76.2591 15.7363 75.7151 16.2633 75.0691 16.66C74.4231 17.0453 73.6467 17.238 72.7401 17.238ZM80.6483 17L80.4273 16.728L80.6483 16.422C80.9316 16.048 81.1299 15.657 81.2433 15.249C81.3566 14.8297 81.4133 14.2743 81.4133 13.583V7.055C81.4133 6.52233 81.3736 6.17667 81.2943 6.018C81.2263 5.848 81.0733 5.763 80.8353 5.763H80.0703C79.6736 5.763 79.3563 5.80833 79.1183 5.899C78.8916 5.97833 78.7103 6.12567 78.5743 6.341C78.4496 6.55633 78.3306 6.868 78.2173 7.276L78.1153 7.667L77.5373 7.463V4.437L77.8093 4.216L78.1153 4.437C78.4326 4.675 79.0786 4.794 80.0533 4.794H84.4563C85.4309 4.794 86.0769 4.675 86.3943 4.437L86.7003 4.216L86.9723 4.437V7.463L86.3943 7.667L86.2923 7.276C86.1903 6.868 86.0713 6.55633 85.9353 6.341C85.7993 6.12567 85.6179 5.97833 85.3913 5.899C85.1646 5.80833 84.8473 5.763 84.4393 5.763H83.6743C83.4363 5.763 83.2776 5.848 83.1983 6.018C83.1303 6.17667 83.0963 6.52233 83.0963 7.055V14.739C83.0963 15.2603 83.1699 15.623 83.3173 15.827C83.4759 16.031 83.7649 16.1953 84.1843 16.32L84.5753 16.422L84.3713 17H80.6483ZM88.1916 17L87.9876 16.422L88.3786 16.32C88.8093 16.1953 89.0983 16.031 89.2456 15.827C89.393 15.623 89.4666 15.2603 89.4666 14.739V7.055C89.4666 6.52233 89.393 6.15967 89.2456 5.967C89.0983 5.763 88.8093 5.59867 88.3786 5.474L87.9876 5.372L88.1916 4.794H91.9146L92.1356 5.066L91.9146 5.372C91.6313 5.746 91.433 6.14267 91.3196 6.562C91.2063 6.97 91.1496 7.51967 91.1496 8.211V10.285H96.7086V7.055C96.7086 6.52233 96.635 6.15967 96.4876 5.967C96.3403 5.763 96.0513 5.59867 95.6206 5.474L95.2296 5.372L95.4336 4.794H99.1566L99.3776 5.066L99.1566 5.372C98.8733 5.746 98.675 6.14267 98.5616 6.562C98.4483 6.97 98.3916 7.51967 98.3916 8.211V14.858C98.3916 15.3567 98.4596 15.7023 98.5956 15.895C98.743 16.0763 99.0206 16.2293 99.4286 16.354L99.7856 16.456L99.5986 17H95.4336L95.2296 16.422L95.6206 16.32C96.0513 16.1953 96.3403 16.031 96.4876 15.827C96.635 15.623 96.7086 15.2603 96.7086 14.739V11.322H91.1496V14.858C91.1496 15.3567 91.2176 15.7023 91.3536 15.895C91.501 16.0763 91.7786 16.2293 92.1866 16.354L92.5436 16.456L92.3566 17H88.1916ZM101.44 17L101.236 16.422L101.644 16.32C102.063 16.2067 102.346 16.048 102.494 15.844C102.641 15.6287 102.715 15.2603 102.715 14.739V7.055C102.715 6.545 102.641 6.18233 102.494 5.967C102.346 5.75167 102.063 5.58733 101.644 5.474L101.236 5.372L101.44 4.794H105.18L105.401 5.066L105.18 5.372C104.896 5.75733 104.698 6.15967 104.585 6.579C104.471 6.987 104.415 7.531 104.415 8.211V13.889C104.415 14.4217 104.477 14.841 104.602 15.147C104.738 15.453 104.908 15.674 105.112 15.81C105.316 15.946 105.52 16.031 105.724 16.065C105.939 16.099 106.132 16.116 106.302 16.116C107.004 16.116 107.56 15.8553 107.968 15.334C108.387 14.8127 108.597 14.1497 108.597 13.345C108.597 12.8577 108.489 12.4157 108.274 12.019C108.058 11.6223 107.764 11.305 107.39 11.067C107.016 10.829 106.596 10.71 106.132 10.71C105.78 10.71 105.531 10.7383 105.384 10.795C105.236 10.8403 105.112 10.863 105.01 10.863C104.93 10.863 104.868 10.8233 104.823 10.744C104.789 10.6647 104.772 10.574 104.772 10.472C104.772 10.2567 104.942 10.1037 105.282 10.013C105.622 9.92233 106.001 9.877 106.421 9.877C107.214 9.877 107.905 10.0413 108.495 10.37C109.084 10.6987 109.543 11.135 109.872 11.679C110.2 12.2117 110.365 12.7953 110.365 13.43C110.365 14.1213 110.223 14.739 109.94 15.283C109.656 15.8157 109.209 16.235 108.597 16.541C107.985 16.847 107.18 17 106.183 17H101.44ZM111.334 17L111.147 16.422L111.538 16.32C111.957 16.1953 112.246 16.0367 112.405 15.844C112.563 15.6513 112.643 15.283 112.643 14.739V7.055C112.643 6.52233 112.563 6.154 112.405 5.95C112.246 5.746 111.957 5.58733 111.538 5.474L111.147 5.372L111.334 4.794H115.091L115.295 5.066L115.091 5.372C114.807 5.746 114.603 6.14267 114.479 6.562C114.365 6.98133 114.309 7.531 114.309 8.211V14.858C114.309 15.3567 114.377 15.7023 114.513 15.895C114.66 16.0763 114.932 16.2293 115.329 16.354L115.703 16.456L115.516 17H111.334ZM116.851 17L116.647 16.422L117.055 16.32C117.338 16.2293 117.559 16.133 117.718 16.031C117.877 15.929 117.984 15.7817 118.041 15.589C118.109 15.385 118.143 15.1017 118.143 14.739V7.055C118.143 6.52233 118.069 6.154 117.922 5.95C117.775 5.746 117.486 5.58733 117.055 5.474L116.647 5.372L116.851 4.794H120.591L120.812 5.066L120.591 5.372C120.308 5.746 120.109 6.14267 119.996 6.562C119.883 6.98133 119.826 7.531 119.826 8.211V13.141L125.555 6.919C125.544 6.443 125.459 6.10867 125.3 5.916C125.153 5.72333 124.875 5.576 124.467 5.474L124.093 5.372L124.297 4.794H128.003L128.258 5.066L128.003 5.372C127.708 5.73467 127.504 6.13133 127.391 6.562C127.278 6.98133 127.221 7.531 127.221 8.211V14.858C127.221 15.3567 127.295 15.7023 127.442 15.895C127.589 16.0877 127.873 16.2407 128.292 16.354L128.632 16.456L128.462 17H124.297L124.093 16.422L124.467 16.32C124.898 16.2067 125.187 16.0537 125.334 15.861C125.481 15.657 125.555 15.283 125.555 14.739V8.296L119.826 14.535V14.858C119.826 15.3567 119.894 15.7023 120.03 15.895C120.177 16.0763 120.449 16.2293 120.846 16.354L121.203 16.456L121.033 17H116.851ZM122.648 3.366C121.753 3.366 121.033 3.23567 120.489 2.975C119.945 2.703 119.673 2.30633 119.673 1.785C119.673 1.411 119.815 1.11633 120.098 0.901C120.381 0.685666 120.699 0.578 121.05 0.578C121.152 0.578 121.237 0.606333 121.305 0.663C121.373 0.708333 121.407 0.759333 121.407 0.816C121.407 0.895333 121.362 0.991666 121.271 1.105C121.18 1.21833 121.135 1.42233 121.135 1.717C121.135 1.96633 121.237 2.18733 121.441 2.38C121.656 2.56133 122.059 2.652 122.648 2.652C123.215 2.652 123.611 2.567 123.838 2.397C124.076 2.21567 124.195 2.00033 124.195 1.751C124.195 1.445 124.144 1.23533 124.042 1.122C123.951 0.997333 123.906 0.895333 123.906 0.816C123.906 0.759333 123.94 0.708333 124.008 0.663C124.076 0.606333 124.167 0.578 124.28 0.578C124.62 0.578 124.926 0.685666 125.198 0.901C125.47 1.11633 125.606 1.411 125.606 1.785C125.606 2.30633 125.34 2.703 124.807 2.975C124.274 3.23567 123.555 3.366 122.648 3.366ZM139.611 17.238C138.693 17.238 137.894 17.0737 137.214 16.745C136.534 16.4163 135.968 15.963 135.514 15.385C135.061 14.807 134.721 14.1383 134.494 13.379C134.279 12.6083 134.171 11.7867 134.171 10.914C134.171 10.0413 134.279 9.21967 134.494 8.449C134.721 7.67833 135.061 7.004 135.514 6.426C135.968 5.83667 136.54 5.37767 137.231 5.049C137.923 4.72033 138.733 4.556 139.662 4.556C140.41 4.556 141.073 4.66367 141.651 4.879C142.229 5.083 142.677 5.372 142.994 5.746C143.323 6.12 143.487 6.55633 143.487 7.055C143.487 7.64433 143.312 8.126 142.96 8.5C142.62 8.86267 142.19 9.044 141.668 9.044C141.43 9.044 141.311 8.976 141.311 8.84C141.311 8.78333 141.351 8.69833 141.43 8.585C141.521 8.46033 141.606 8.296 141.685 8.092C141.776 7.87667 141.821 7.61033 141.821 7.293C141.821 6.76033 141.623 6.32967 141.226 6.001C140.83 5.67233 140.308 5.508 139.662 5.508C138.994 5.508 138.433 5.66667 137.979 5.984C137.526 6.30133 137.158 6.72633 136.874 7.259C136.602 7.78033 136.404 8.364 136.279 9.01C136.155 9.64467 136.092 10.2793 136.092 10.914C136.092 11.8547 136.24 12.716 136.534 13.498C136.829 14.28 137.248 14.9033 137.792 15.368C138.348 15.8327 139.005 16.065 139.764 16.065C140.512 16.065 141.153 15.929 141.685 15.657C142.218 15.3737 142.643 14.9997 142.96 14.535C142.994 14.4897 143.034 14.467 143.079 14.467C143.181 14.467 143.295 14.518 143.419 14.62C143.555 14.722 143.623 14.8297 143.623 14.943C143.623 14.977 143.606 15.0223 143.572 15.079C143.13 15.7363 142.586 16.2633 141.94 16.66C141.294 17.0453 140.518 17.238 139.611 17.238ZM150.29 17.238C149.021 17.238 147.967 16.9547 147.128 16.388C146.301 15.8213 145.683 15.062 145.275 14.11C144.867 13.1467 144.663 12.0813 144.663 10.914C144.663 10.0413 144.777 9.21967 145.003 8.449C145.23 7.67833 145.576 7.004 146.04 6.426C146.516 5.83667 147.106 5.37767 147.808 5.049C148.511 4.72033 149.338 4.556 150.29 4.556C151.242 4.556 152.07 4.72033 152.772 5.049C153.475 5.37767 154.059 5.83667 154.523 6.426C154.999 7.004 155.351 7.67833 155.577 8.449C155.815 9.21967 155.934 10.0413 155.934 10.914C155.934 12.0813 155.725 13.1467 155.305 14.11C154.897 15.062 154.274 15.8213 153.435 16.388C152.608 16.9547 151.56 17.238 150.29 17.238ZM150.222 16.235C151.038 16.235 151.735 16.0027 152.313 15.538C152.891 15.062 153.328 14.4273 153.622 13.634C153.928 12.8293 154.081 11.9397 154.081 10.965C154.081 10.5457 154.042 10.0923 153.962 9.605C153.894 9.10633 153.775 8.619 153.605 8.143C153.435 7.65567 153.209 7.21933 152.925 6.834C152.642 6.43733 152.291 6.12 151.871 5.882C151.452 5.644 150.953 5.525 150.375 5.525C149.548 5.525 148.845 5.78 148.267 6.29C147.689 6.78867 147.247 7.45733 146.941 8.296C146.647 9.12333 146.499 10.0413 146.499 11.05C146.499 12.0133 146.635 12.886 146.907 13.668C147.191 14.45 147.61 15.0733 148.165 15.538C148.721 16.0027 149.406 16.235 150.222 16.235ZM158.032 17.238C157.567 17.238 157.154 17.0963 156.791 16.813C156.44 16.5297 156.264 16.1047 156.264 15.538C156.264 15.198 156.349 14.9373 156.519 14.756C156.678 14.5747 156.865 14.484 157.08 14.484C157.341 14.484 157.522 14.688 157.624 15.096C157.669 15.2887 157.743 15.47 157.845 15.64C157.947 15.81 158.094 15.895 158.287 15.895C158.729 15.895 159.103 15.606 159.409 15.028C159.715 14.45 159.981 13.515 160.208 12.223C160.446 10.9197 160.661 9.20267 160.854 7.072C160.899 6.57333 160.809 6.19933 160.582 5.95C160.367 5.70067 160.055 5.53633 159.647 5.457L159.239 5.372L159.46 4.794H167.093L167.297 5.066L167.093 5.372C166.81 5.746 166.606 6.14267 166.481 6.562C166.368 6.98133 166.311 7.531 166.311 8.211V14.858C166.311 15.3567 166.379 15.7023 166.515 15.895C166.651 16.0763 166.929 16.2293 167.348 16.354L167.688 16.456L167.518 17H163.353L163.149 16.422L163.54 16.32C163.823 16.2293 164.044 16.133 164.203 16.031C164.362 15.929 164.469 15.7817 164.526 15.589C164.594 15.385 164.628 15.1017 164.628 14.739V7.055C164.628 6.52233 164.554 6.171 164.407 6.001C164.271 5.831 163.982 5.746 163.54 5.746H163.047C162.741 5.746 162.492 5.79133 162.299 5.882C162.118 5.96133 162.016 6.14267 161.993 6.426C161.846 8.20533 161.676 9.71833 161.483 10.965C161.29 12.2117 161.075 13.2487 160.837 14.076C160.61 14.892 160.35 15.5323 160.055 15.997C159.772 16.4503 159.46 16.7733 159.12 16.966C158.791 17.1473 158.429 17.238 158.032 17.238ZM168.586 20.281L168.008 20.077V16.269C168.734 16.167 169.312 15.8837 169.742 15.419C170.173 14.9543 170.502 14.3197 170.728 13.515C170.966 12.7103 171.142 11.7527 171.255 10.642C171.38 9.53133 171.488 8.279 171.578 6.885C171.601 6.42033 171.499 6.09167 171.272 5.899C171.057 5.695 170.785 5.55333 170.456 5.474L170.082 5.372L170.286 4.794H178.582L178.769 5.066L178.582 5.372C178.299 5.746 178.095 6.14267 177.97 6.562C177.846 6.98133 177.783 7.531 177.783 8.211V15.215C177.783 15.4643 177.874 15.6683 178.055 15.827C178.237 15.9857 178.469 16.1047 178.752 16.184C179.036 16.252 179.33 16.286 179.636 16.286V20.077L179.058 20.281L178.956 19.873C178.798 19.2723 178.622 18.7567 178.429 18.326C178.237 17.8953 177.982 17.5667 177.664 17.34C177.358 17.1133 176.945 17 176.423 17H171.221C170.711 17 170.298 17.1133 169.98 17.34C169.674 17.5667 169.419 17.8953 169.215 18.326C169.023 18.7567 168.841 19.2723 168.671 19.873L168.586 20.281ZM170.354 16.031H175.012C175.466 16.031 175.76 15.9517 175.896 15.793C176.044 15.6343 176.117 15.283 176.117 14.739V7.055C176.117 6.52233 176.044 6.171 175.896 6.001C175.76 5.831 175.466 5.746 175.012 5.746H173.975C173.658 5.746 173.403 5.79133 173.21 5.882C173.018 5.96133 172.91 6.14267 172.887 6.426C172.706 9.19133 172.428 11.3673 172.054 12.954C171.68 14.5407 171.114 15.5663 170.354 16.031ZM179.428 17L179.224 16.422L179.615 16.32C179.921 16.2407 180.165 16.1443 180.346 16.031C180.527 15.9177 180.68 15.7647 180.805 15.572C180.941 15.368 181.066 15.0903 181.179 14.739L183.848 7.055C183.905 6.87367 183.95 6.72067 183.984 6.596C184.018 6.46 184.035 6.33533 184.035 6.222C184.035 6.00667 183.973 5.848 183.848 5.746C183.723 5.63267 183.531 5.542 183.27 5.474L182.879 5.372L183.083 4.794H186.364L189.781 14.654C189.917 15.028 190.053 15.334 190.189 15.572C190.336 15.81 190.501 16.014 190.682 16.184C190.863 16.354 191.073 16.5353 191.311 16.728L191.09 17H187.265L187.061 16.422L187.452 16.32C187.713 16.252 187.905 16.167 188.03 16.065C188.155 15.9517 188.217 15.7873 188.217 15.572C188.217 15.4587 188.2 15.3397 188.166 15.215C188.132 15.079 188.087 14.9203 188.03 14.739L187.214 12.359H183.287L182.879 13.6C182.754 13.9853 182.658 14.3197 182.59 14.603C182.522 14.8863 182.488 15.147 182.488 15.385C182.488 15.7703 182.567 16.116 182.726 16.422L182.879 16.728L182.556 17H179.428ZM183.644 11.305H186.857L185.225 6.545L183.644 11.305ZM194.95 17L194.729 16.728L194.95 16.422C195.233 16.048 195.432 15.657 195.545 15.249C195.658 14.8297 195.715 14.2743 195.715 13.583V7.055C195.715 6.52233 195.675 6.17667 195.596 6.018C195.528 5.848 195.375 5.763 195.137 5.763H194.372C193.975 5.763 193.658 5.80833 193.42 5.899C193.193 5.97833 193.012 6.12567 192.876 6.341C192.751 6.55633 192.632 6.868 192.519 7.276L192.417 7.667L191.839 7.463V4.437L192.111 4.216L192.417 4.437C192.734 4.675 193.38 4.794 194.355 4.794H198.758C199.733 4.794 200.379 4.675 200.696 4.437L201.002 4.216L201.274 4.437V7.463L200.696 7.667L200.594 7.276C200.492 6.868 200.373 6.55633 200.237 6.341C200.101 6.12567 199.92 5.97833 199.693 5.899C199.466 5.80833 199.149 5.763 198.741 5.763H197.976C197.738 5.763 197.579 5.848 197.5 6.018C197.432 6.17667 197.398 6.52233 197.398 7.055V14.739C197.398 15.2603 197.472 15.623 197.619 15.827C197.778 16.031 198.067 16.1953 198.486 16.32L198.877 16.422L198.673 17H194.95Z" fill="#A09081"/>
</svg>
