<svg width="93" height="14" viewBox="0 0 93 14" fill="none" xmlns="http://www.w3.org/2000/svg">
<path d="M6.222 13.238C4.95267 13.238 3.89867 12.9547 3.06 12.388C2.23267 11.8213 1.615 11.062 1.207 10.11C0.799 9.14667 0.595 8.08133 0.595 6.914C0.595 6.04133 0.708333 5.21967 0.935 4.449C1.16167 3.67833 1.50733 3.004 1.972 2.426C2.448 1.83667 3.03733 1.37767 3.74 1.049C4.44267 0.720333 5.27 0.555999 6.222 0.555999C7.174 0.555999 8.00133 0.720333 8.704 1.049C9.40667 1.37767 9.99033 1.83667 10.455 2.426C10.931 3.004 11.2823 3.67833 11.509 4.449C11.747 5.21967 11.866 6.04133 11.866 6.914C11.866 8.08133 11.6563 9.14667 11.237 10.11C10.829 11.062 10.2057 11.8213 9.367 12.388C8.53967 12.9547 7.49133 13.238 6.222 13.238ZM6.154 12.235C6.97 12.235 7.667 12.0027 8.245 11.538C8.823 11.062 9.25933 10.4273 9.554 9.634C9.86 8.82933 10.013 7.93967 10.013 6.965C10.013 6.54567 9.97333 6.09233 9.894 5.605C9.826 5.10633 9.707 4.619 9.537 4.143C9.367 3.65567 9.14033 3.21933 8.857 2.834C8.57367 2.43733 8.22233 2.12 7.803 1.882C7.38367 1.644 6.885 1.525 6.307 1.525C5.47967 1.525 4.777 1.78 4.199 2.29C3.621 2.78867 3.179 3.45733 2.873 4.296C2.57833 5.12333 2.431 6.04133 2.431 7.05C2.431 8.01333 2.567 8.886 2.839 9.668C3.12233 10.45 3.54167 11.0733 4.097 11.538C4.65233 12.0027 5.338 12.235 6.154 12.235ZM17.6764 13L17.4554 12.728L17.6764 12.422C17.9597 12.048 18.1581 11.657 18.2714 11.249C18.3961 10.8297 18.4584 10.2743 18.4584 9.583V4.211C18.4584 3.531 18.3961 2.98133 18.2714 2.562C18.1581 2.14267 17.9597 1.746 17.6764 1.372L17.4554 1.066L17.6764 0.793999H27.6384L27.8594 1.066L27.6384 1.372C27.3551 1.746 27.1511 2.14267 27.0264 2.562C26.9131 2.98133 26.8564 3.531 26.8564 4.211V10.858C26.8564 11.3567 26.9244 11.7023 27.0604 11.895C27.2077 12.0763 27.4854 12.2293 27.8934 12.354L28.2674 12.456L28.0804 13H23.9324L23.7114 12.422L24.0854 12.32C24.3801 12.2293 24.6067 12.133 24.7654 12.031C24.9241 11.929 25.0317 11.7817 25.0884 11.589C25.1564 11.385 25.1904 11.1017 25.1904 10.739V3.055C25.1904 2.52233 25.1167 2.171 24.9694 2.001C24.8334 1.831 24.5387 1.746 24.0854 1.746H21.2124C20.7704 1.746 20.4757 1.831 20.3284 2.001C20.1924 2.171 20.1244 2.52233 20.1244 3.055V10.739C20.1244 11.1017 20.1527 11.385 20.2094 11.589C20.2774 11.7817 20.3907 11.929 20.5494 12.031C20.7081 12.133 20.9291 12.2293 21.2124 12.32L21.6204 12.422L21.4164 13H17.6764ZM29.4553 13L29.2513 12.422L29.6423 12.32C30.073 12.2067 30.362 12.048 30.5093 11.844C30.6566 11.6287 30.7303 11.2603 30.7303 10.739V2.341C30.7303 2.069 30.6056 1.933 30.3563 1.933H29.3703L29.1663 1.304C29.461 1.19067 29.835 1.07733 30.2883 0.964C30.753 0.850666 31.2516 0.754333 31.7843 0.675C32.3283 0.595666 32.8666 0.555999 33.3993 0.555999C34.578 0.555999 35.53 0.742999 36.2553 1.117C36.992 1.47967 37.5246 1.967 37.8533 2.579C38.1933 3.191 38.3633 3.86533 38.3633 4.602C38.3633 5.30467 38.216 5.962 37.9213 6.574C37.638 7.17467 37.196 7.65633 36.5953 8.019C35.9946 8.38167 35.224 8.563 34.2833 8.563C33.898 8.563 33.5523 8.51767 33.2463 8.427C32.9403 8.325 32.7873 8.172 32.7873 7.968C32.7873 7.866 32.81 7.77533 32.8553 7.696C32.9006 7.60533 32.9686 7.56 33.0593 7.56C33.1273 7.56 33.218 7.58267 33.3313 7.628C33.456 7.662 33.643 7.679 33.8923 7.679C34.765 7.679 35.4336 7.40133 35.8983 6.846C36.363 6.29067 36.5953 5.55967 36.5953 4.653C36.5953 4.06367 36.4876 3.531 36.2723 3.055C36.057 2.579 35.734 2.205 35.3033 1.933C34.8726 1.64967 34.34 1.508 33.7053 1.508C33.32 1.508 33.0366 1.55333 32.8553 1.644C32.674 1.72333 32.555 1.82533 32.4983 1.95C32.4416 2.07467 32.4133 2.188 32.4133 2.29V9.583C32.4133 10.2743 32.47 10.8297 32.5833 11.249C32.6966 11.657 32.895 12.048 33.1783 12.422L33.3993 12.728L33.1783 13H29.4553ZM44.9202 13.238C43.6509 13.238 42.5969 12.9547 41.7582 12.388C40.9309 11.8213 40.3132 11.062 39.9052 10.11C39.4972 9.14667 39.2932 8.08133 39.2932 6.914C39.2932 6.04133 39.4066 5.21967 39.6332 4.449C39.8599 3.67833 40.2056 3.004 40.6702 2.426C41.1462 1.83667 41.7356 1.37767 42.4382 1.049C43.1409 0.720333 43.9682 0.555999 44.9202 0.555999C45.8722 0.555999 46.6996 0.720333 47.4022 1.049C48.1049 1.37767 48.6886 1.83667 49.1532 2.426C49.6292 3.004 49.9806 3.67833 50.2072 4.449C50.4452 5.21967 50.5642 6.04133 50.5642 6.914C50.5642 8.08133 50.3546 9.14667 49.9352 10.11C49.5272 11.062 48.9039 11.8213 48.0652 12.388C47.2379 12.9547 46.1896 13.238 44.9202 13.238ZM44.8522 12.235C45.6682 12.235 46.3652 12.0027 46.9432 11.538C47.5212 11.062 47.9576 10.4273 48.2522 9.634C48.5582 8.82933 48.7112 7.93967 48.7112 6.965C48.7112 6.54567 48.6716 6.09233 48.5922 5.605C48.5242 5.10633 48.4052 4.619 48.2352 4.143C48.0652 3.65567 47.8386 3.21933 47.5552 2.834C47.2719 2.43733 46.9206 2.12 46.5012 1.882C46.0819 1.644 45.5832 1.525 45.0052 1.525C44.1779 1.525 43.4752 1.78 42.8972 2.29C42.3192 2.78867 41.8772 3.45733 41.5712 4.296C41.2766 5.12333 41.1292 6.04133 41.1292 7.05C41.1292 8.01333 41.2652 8.886 41.5372 9.668C41.8206 10.45 42.2399 11.0733 42.7952 11.538C43.3506 12.0027 44.0362 12.235 44.8522 12.235ZM60.125 13.425L59.989 13.238C59.8643 13.0793 59.6263 13 59.275 13H52.118L51.931 12.456L52.288 12.354C52.696 12.2293 52.968 12.0763 53.104 11.895C53.2513 11.7023 53.325 11.3567 53.325 10.858V4.211C53.325 3.51967 53.2627 2.97 53.138 2.562C53.0247 2.154 52.832 1.75733 52.56 1.372L52.339 1.066L52.56 0.793999H57.762C58.7367 0.793999 59.3827 0.674999 59.7 0.437L60.006 0.215999L60.278 0.437V3.463L59.7 3.667L59.598 3.276C59.496 2.868 59.377 2.55633 59.241 2.341C59.105 2.12567 58.9237 1.97833 58.697 1.899C58.4703 1.80833 58.153 1.763 57.745 1.763H56.096C55.654 1.763 55.3593 1.848 55.212 2.018C55.076 2.17667 55.008 2.52233 55.008 3.055V6.319H57.167C57.4277 6.319 57.66 6.26233 57.864 6.149C58.0793 6.03567 58.2947 5.83167 58.51 5.537L58.646 5.35L58.986 5.537V8.444L58.408 8.648L58.306 8.257C58.204 7.86033 58.017 7.59967 57.745 7.475C57.4843 7.35033 57.0537 7.288 56.453 7.288H55.008V10.739C55.008 11.2603 55.076 11.606 55.212 11.776C55.3593 11.946 55.654 12.031 56.096 12.031H57.932C58.34 12.031 58.6573 11.9913 58.884 11.912C59.1107 11.8213 59.292 11.6683 59.428 11.453C59.564 11.2263 59.683 10.9147 59.785 10.518L59.887 10.127L60.465 10.331V13.238L60.125 13.425ZM70.96 13.238C70.4273 13.238 69.9797 13.0963 69.617 12.813C69.2657 12.5183 68.9597 12.1047 68.699 11.572L67.152 8.478C66.9707 8.104 66.7383 7.815 66.455 7.611C66.1717 7.407 65.8373 7.24267 65.452 7.118C65.3953 7.09533 65.367 7.033 65.367 6.931C65.367 6.84033 65.3897 6.74967 65.435 6.659C65.4803 6.56833 65.5767 6.523 65.724 6.523H66.115L68.886 2.987C69.0787 2.749 69.1807 2.47133 69.192 2.154C69.2147 1.83667 69.141 1.56467 68.971 1.338L68.784 1.066L69.09 0.793999H72.014L72.218 1.372L71.81 1.474C71.5607 1.51933 71.334 1.61567 71.13 1.763C70.926 1.899 70.7107 2.10867 70.484 2.392L67.05 6.778C67.6053 6.88 68.0643 7.07833 68.427 7.373C68.7897 7.66767 69.1127 8.087 69.396 8.631L70.994 11.793C71.0847 11.9517 71.181 12.0763 71.283 12.167C71.385 12.2577 71.5097 12.303 71.657 12.303C71.7703 12.303 71.878 12.286 71.98 12.252C72.0933 12.218 72.2067 12.1557 72.32 12.065L72.592 12.558C72.354 12.8073 72.099 12.983 71.827 13.085C71.555 13.187 71.266 13.238 70.96 13.238ZM62.001 13L61.797 12.422L62.205 12.32C62.4883 12.2293 62.7093 12.133 62.868 12.031C63.0267 11.929 63.1343 11.7817 63.191 11.589C63.259 11.385 63.293 11.1017 63.293 10.739V3.055C63.293 2.52233 63.2193 2.154 63.072 1.95C62.9247 1.746 62.6357 1.58733 62.205 1.474L61.797 1.372L62.001 0.793999H65.741L65.962 1.066L65.741 1.372C65.4577 1.746 65.2593 2.14267 65.146 2.562C65.0327 2.98133 64.976 3.531 64.976 4.211V10.858C64.976 11.3567 65.044 11.7023 65.18 11.895C65.3273 12.0763 65.5993 12.2293 65.996 12.354L66.353 12.456L66.183 13H62.001ZM76.2156 13L75.9946 12.728L76.2156 12.422C76.499 12.048 76.6973 11.657 76.8106 11.249C76.924 10.8297 76.9806 10.2743 76.9806 9.583V3.055C76.9806 2.52233 76.941 2.17667 76.8616 2.018C76.7936 1.848 76.6406 1.763 76.4026 1.763H75.6376C75.241 1.763 74.9236 1.80833 74.6856 1.899C74.459 1.97833 74.2776 2.12567 74.1416 2.341C74.017 2.55633 73.898 2.868 73.7846 3.276L73.6826 3.667L73.1046 3.463V0.437L73.3766 0.215999L73.6826 0.437C74 0.674999 74.646 0.793999 75.6206 0.793999H80.0236C80.9983 0.793999 81.6443 0.674999 81.9616 0.437L82.2676 0.215999L82.5396 0.437V3.463L81.9616 3.667L81.8596 3.276C81.7576 2.868 81.6386 2.55633 81.5026 2.341C81.3666 2.12567 81.1853 1.97833 80.9586 1.899C80.732 1.80833 80.4146 1.763 80.0066 1.763H79.2416C79.0036 1.763 78.845 1.848 78.7656 2.018C78.6976 2.17667 78.6636 2.52233 78.6636 3.055V10.739C78.6636 11.2603 78.7373 11.623 78.8846 11.827C79.0433 12.031 79.3323 12.1953 79.7516 12.32L80.1426 12.422L79.9386 13H76.2156ZM91.834 13.425L91.698 13.238C91.5733 13.0793 91.3353 13 90.984 13H83.827L83.64 12.456L83.997 12.354C84.405 12.2293 84.677 12.0763 84.813 11.895C84.9603 11.7023 85.034 11.3567 85.034 10.858V4.211C85.034 3.51967 84.9717 2.97 84.847 2.562C84.7337 2.154 84.541 1.75733 84.269 1.372L84.048 1.066L84.269 0.793999H89.471C90.4457 0.793999 91.0917 0.674999 91.409 0.437L91.715 0.215999L91.987 0.437V3.463L91.409 3.667L91.307 3.276C91.205 2.868 91.086 2.55633 90.95 2.341C90.814 2.12567 90.6327 1.97833 90.406 1.899C90.1793 1.80833 89.862 1.763 89.454 1.763H87.805C87.363 1.763 87.0683 1.848 86.921 2.018C86.785 2.17667 86.717 2.52233 86.717 3.055V6.319H88.876C89.1367 6.319 89.369 6.26233 89.573 6.149C89.7883 6.03567 90.0037 5.83167 90.219 5.537L90.355 5.35L90.695 5.537V8.444L90.117 8.648L90.015 8.257C89.913 7.86033 89.726 7.59967 89.454 7.475C89.1933 7.35033 88.7627 7.288 88.162 7.288H86.717V10.739C86.717 11.2603 86.785 11.606 86.921 11.776C87.0683 11.946 87.363 12.031 87.805 12.031H89.641C90.049 12.031 90.3663 11.9913 90.593 11.912C90.8197 11.8213 91.001 11.6683 91.137 11.453C91.273 11.2263 91.392 10.9147 91.494 10.518L91.596 10.127L92.174 10.331V13.238L91.834 13.425Z" fill="#A09081"/>
</svg>
