<svg width="98" height="15" viewBox="0 0 98 15" fill="none" xmlns="http://www.w3.org/2000/svg">
<path d="M6.588 14.252C5.244 14.252 4.128 13.952 3.24 13.352C2.364 12.752 1.71 11.948 1.278 10.94C0.846 9.92 0.63 8.792 0.63 7.556C0.63 6.632 0.75 5.762 0.99 4.946C1.23 4.13 1.596 3.416 2.088 2.804C2.592 2.18 3.216 1.694 3.96 1.346C4.704 0.997999 5.58 0.823999 6.588 0.823999C7.596 0.823999 8.472 0.997999 9.216 1.346C9.96 1.694 10.578 2.18 11.07 2.804C11.574 3.416 11.946 4.13 12.186 4.946C12.438 5.762 12.564 6.632 12.564 7.556C12.564 8.792 12.342 9.92 11.898 10.94C11.466 11.948 10.806 12.752 9.918 13.352C9.042 13.952 7.932 14.252 6.588 14.252ZM6.516 13.19C7.38 13.19 8.118 12.944 8.73 12.452C9.342 11.948 9.804 11.276 10.116 10.436C10.44 9.584 10.602 8.642 10.602 7.61C10.602 7.166 10.56 6.686 10.476 6.17C10.404 5.642 10.278 5.126 10.098 4.622C9.918 4.106 9.678 3.644 9.378 3.236C9.078 2.816 8.706 2.48 8.262 2.228C7.818 1.976 7.29 1.85 6.678 1.85C5.802 1.85 5.058 2.12 4.446 2.66C3.834 3.188 3.366 3.896 3.042 4.784C2.73 5.66 2.574 6.632 2.574 7.7C2.574 8.72 2.718 9.644 3.006 10.472C3.306 11.3 3.75 11.96 4.338 12.452C4.926 12.944 5.652 13.19 6.516 13.19ZM18.7162 14L18.4822 13.712L18.7162 13.388C19.0162 12.992 19.2262 12.578 19.3462 12.146C19.4782 11.702 19.5442 11.114 19.5442 10.382V4.694C19.5442 3.974 19.4782 3.392 19.3462 2.948C19.2262 2.504 19.0162 2.084 18.7162 1.688L18.4822 1.364L18.7162 1.076H29.2642L29.4982 1.364L29.2642 1.688C28.9642 2.084 28.7482 2.504 28.6162 2.948C28.4962 3.392 28.4362 3.974 28.4362 4.694V11.732C28.4362 12.26 28.5082 12.626 28.6522 12.83C28.8082 13.022 29.1022 13.184 29.5342 13.316L29.9302 13.424L29.7322 14H25.3402L25.1062 13.388L25.5022 13.28C25.8142 13.184 26.0542 13.082 26.2222 12.974C26.3902 12.866 26.5042 12.71 26.5642 12.506C26.6362 12.29 26.6722 11.99 26.6722 11.606V3.47C26.6722 2.906 26.5942 2.534 26.4382 2.354C26.2942 2.174 25.9822 2.084 25.5022 2.084H22.4602C21.9922 2.084 21.6802 2.174 21.5242 2.354C21.3802 2.534 21.3082 2.906 21.3082 3.47V11.606C21.3082 11.99 21.3382 12.29 21.3982 12.506C21.4702 12.71 21.5902 12.866 21.7582 12.974C21.9262 13.082 22.1602 13.184 22.4602 13.28L22.8922 13.388L22.6762 14H18.7162ZM31.188 14L30.972 13.388L31.386 13.28C31.842 13.16 32.148 12.992 32.304 12.776C32.46 12.548 32.538 12.158 32.538 11.606V2.714C32.538 2.426 32.406 2.282 32.142 2.282H31.098L30.882 1.616C31.194 1.496 31.59 1.376 32.07 1.256C32.562 1.136 33.09 1.034 33.654 0.95C34.23 0.865999 34.8 0.823999 35.364 0.823999C36.612 0.823999 37.62 1.022 38.388 1.418C39.168 1.802 39.732 2.318 40.08 2.966C40.44 3.614 40.62 4.328 40.62 5.108C40.62 5.852 40.464 6.548 40.152 7.196C39.852 7.832 39.384 8.342 38.748 8.726C38.112 9.11 37.296 9.302 36.3 9.302C35.892 9.302 35.526 9.254 35.202 9.158C34.878 9.05 34.716 8.888 34.716 8.672C34.716 8.564 34.74 8.468 34.788 8.384C34.836 8.288 34.908 8.24 35.004 8.24C35.076 8.24 35.172 8.264 35.292 8.312C35.424 8.348 35.622 8.366 35.886 8.366C36.81 8.366 37.518 8.072 38.01 7.484C38.502 6.896 38.748 6.122 38.748 5.162C38.748 4.538 38.634 3.974 38.406 3.47C38.178 2.966 37.836 2.57 37.38 2.282C36.924 1.982 36.36 1.832 35.688 1.832C35.28 1.832 34.98 1.88 34.788 1.976C34.596 2.06 34.47 2.168 34.41 2.3C34.35 2.432 34.32 2.552 34.32 2.66V10.382C34.32 11.114 34.38 11.702 34.5 12.146C34.62 12.578 34.83 12.992 35.13 13.388L35.364 13.712L35.13 14H31.188ZM47.5626 14.252C46.2186 14.252 45.1026 13.952 44.2146 13.352C43.3386 12.752 42.6846 11.948 42.2526 10.94C41.8206 9.92 41.6046 8.792 41.6046 7.556C41.6046 6.632 41.7246 5.762 41.9646 4.946C42.2046 4.13 42.5706 3.416 43.0626 2.804C43.5666 2.18 44.1906 1.694 44.9346 1.346C45.6786 0.997999 46.5546 0.823999 47.5626 0.823999C48.5706 0.823999 49.4466 0.997999 50.1906 1.346C50.9346 1.694 51.5526 2.18 52.0446 2.804C52.5486 3.416 52.9206 4.13 53.1606 4.946C53.4126 5.762 53.5386 6.632 53.5386 7.556C53.5386 8.792 53.3166 9.92 52.8726 10.94C52.4406 11.948 51.7806 12.752 50.8926 13.352C50.0166 13.952 48.9066 14.252 47.5626 14.252ZM47.4906 13.19C48.3546 13.19 49.0926 12.944 49.7046 12.452C50.3166 11.948 50.7786 11.276 51.0906 10.436C51.4146 9.584 51.5766 8.642 51.5766 7.61C51.5766 7.166 51.5346 6.686 51.4506 6.17C51.3786 5.642 51.2526 5.126 51.0726 4.622C50.8926 4.106 50.6526 3.644 50.3526 3.236C50.0526 2.816 49.6806 2.48 49.2366 2.228C48.7926 1.976 48.2646 1.85 47.6526 1.85C46.7766 1.85 46.0326 2.12 45.4206 2.66C44.8086 3.188 44.3406 3.896 44.0166 4.784C43.7046 5.66 43.5486 6.632 43.5486 7.7C43.5486 8.72 43.6926 9.644 43.9806 10.472C44.2806 11.3 44.7246 11.96 45.3126 12.452C45.9006 12.944 46.6266 13.19 47.4906 13.19ZM63.6618 14.45L63.5178 14.252C63.3858 14.084 63.1338 14 62.7618 14H55.1838L54.9858 13.424L55.3638 13.316C55.7958 13.184 56.0838 13.022 56.2278 12.83C56.3838 12.626 56.4618 12.26 56.4618 11.732V4.694C56.4618 3.962 56.3958 3.38 56.2638 2.948C56.1438 2.516 55.9398 2.096 55.6518 1.688L55.4178 1.364L55.6518 1.076H61.1598C62.1918 1.076 62.8758 0.949999 63.2118 0.698L63.5358 0.463999L63.8238 0.698V3.902L63.2118 4.118L63.1038 3.704C62.9958 3.272 62.8698 2.942 62.7258 2.714C62.5818 2.486 62.3898 2.33 62.1498 2.246C61.9098 2.15 61.5738 2.102 61.1418 2.102H59.3958C58.9278 2.102 58.6158 2.192 58.4598 2.372C58.3158 2.54 58.2438 2.906 58.2438 3.47V6.926H60.5298C60.8058 6.926 61.0518 6.866 61.2678 6.746C61.4958 6.626 61.7238 6.41 61.9518 6.098L62.0958 5.9L62.4558 6.098V9.176L61.8438 9.392L61.7358 8.978C61.6278 8.558 61.4298 8.282 61.1418 8.15C60.8658 8.018 60.4098 7.952 59.7738 7.952H58.2438V11.606C58.2438 12.158 58.3158 12.524 58.4598 12.704C58.6158 12.884 58.9278 12.974 59.3958 12.974H61.3398C61.7718 12.974 62.1078 12.932 62.3478 12.848C62.5878 12.752 62.7798 12.59 62.9238 12.362C63.0678 12.122 63.1938 11.792 63.3018 11.372L63.4098 10.958L64.0218 11.174V14.252L63.6618 14.45ZM75.1341 14.252C74.5701 14.252 74.0961 14.102 73.7121 13.802C73.3401 13.49 73.0161 13.052 72.7401 12.488L71.1021 9.212C70.9101 8.816 70.6641 8.51 70.3641 8.294C70.0641 8.078 69.7101 7.904 69.3021 7.772C69.2421 7.748 69.2121 7.682 69.2121 7.574C69.2121 7.478 69.2361 7.382 69.2841 7.286C69.3321 7.19 69.4341 7.142 69.5901 7.142H70.0041L72.9381 3.398C73.1421 3.146 73.2501 2.852 73.2621 2.516C73.2861 2.18 73.2081 1.892 73.0281 1.652L72.8301 1.364L73.1541 1.076H76.2501L76.4661 1.688L76.0341 1.796C75.7701 1.844 75.5301 1.946 75.3141 2.102C75.0981 2.246 74.8701 2.468 74.6301 2.768L70.9941 7.412C71.5821 7.52 72.0681 7.73 72.4521 8.042C72.8361 8.354 73.1781 8.798 73.4781 9.374L75.1701 12.722C75.2661 12.89 75.3681 13.022 75.4761 13.118C75.5841 13.214 75.7161 13.262 75.8721 13.262C75.9921 13.262 76.1061 13.244 76.2141 13.208C76.3341 13.172 76.4541 13.106 76.5741 13.01L76.8621 13.532C76.6101 13.796 76.3401 13.982 76.0521 14.09C75.7641 14.198 75.4581 14.252 75.1341 14.252ZM65.6481 14L65.4321 13.388L65.8641 13.28C66.1641 13.184 66.3981 13.082 66.5661 12.974C66.7341 12.866 66.8481 12.71 66.9081 12.506C66.9801 12.29 67.0161 11.99 67.0161 11.606V3.47C67.0161 2.906 66.9381 2.516 66.7821 2.3C66.6261 2.084 66.3201 1.916 65.8641 1.796L65.4321 1.688L65.6481 1.076H69.6081L69.8421 1.364L69.6081 1.688C69.3081 2.084 69.0981 2.504 68.9781 2.948C68.8581 3.392 68.7981 3.974 68.7981 4.694V11.732C68.7981 12.26 68.8701 12.626 69.0141 12.83C69.1701 13.022 69.4581 13.184 69.8781 13.316L70.2561 13.424L70.0761 14H65.6481ZM80.6989 14L80.4649 13.712L80.6989 13.388C80.9989 12.992 81.2089 12.578 81.3289 12.146C81.4489 11.702 81.5089 11.114 81.5089 10.382V3.47C81.5089 2.906 81.4669 2.54 81.3829 2.372C81.3109 2.192 81.1489 2.102 80.8969 2.102H80.0869C79.6669 2.102 79.3309 2.15 79.0789 2.246C78.8389 2.33 78.6469 2.486 78.5029 2.714C78.3709 2.942 78.2449 3.272 78.1249 3.704L78.0169 4.118L77.4049 3.902V0.698L77.6929 0.463999L78.0169 0.698C78.3529 0.949999 79.0369 1.076 80.0689 1.076H84.7309C85.7629 1.076 86.4469 0.949999 86.7829 0.698L87.1069 0.463999L87.3949 0.698V3.902L86.7829 4.118L86.6749 3.704C86.5669 3.272 86.4409 2.942 86.2969 2.714C86.1529 2.486 85.9609 2.33 85.7209 2.246C85.4809 2.15 85.1449 2.102 84.7129 2.102H83.9029C83.6509 2.102 83.4829 2.192 83.3989 2.372C83.3269 2.54 83.2909 2.906 83.2909 3.47V11.606C83.2909 12.158 83.3689 12.542 83.5249 12.758C83.6929 12.974 83.9989 13.148 84.4429 13.28L84.8569 13.388L84.6409 14H80.6989ZM97.236 14.45L97.092 14.252C96.96 14.084 96.708 14 96.336 14H88.758L88.56 13.424L88.938 13.316C89.37 13.184 89.658 13.022 89.802 12.83C89.958 12.626 90.036 12.26 90.036 11.732V4.694C90.036 3.962 89.97 3.38 89.838 2.948C89.718 2.516 89.514 2.096 89.226 1.688L88.992 1.364L89.226 1.076H94.734C95.766 1.076 96.45 0.949999 96.786 0.698L97.11 0.463999L97.398 0.698V3.902L96.786 4.118L96.678 3.704C96.57 3.272 96.444 2.942 96.3 2.714C96.156 2.486 95.964 2.33 95.724 2.246C95.484 2.15 95.148 2.102 94.716 2.102H92.97C92.502 2.102 92.19 2.192 92.034 2.372C91.89 2.54 91.818 2.906 91.818 3.47V6.926H94.104C94.38 6.926 94.626 6.866 94.842 6.746C95.07 6.626 95.298 6.41 95.526 6.098L95.67 5.9L96.03 6.098V9.176L95.418 9.392L95.31 8.978C95.202 8.558 95.004 8.282 94.716 8.15C94.44 8.018 93.984 7.952 93.348 7.952H91.818V11.606C91.818 12.158 91.89 12.524 92.034 12.704C92.19 12.884 92.502 12.974 92.97 12.974H94.914C95.346 12.974 95.682 12.932 95.922 12.848C96.162 12.752 96.354 12.59 96.498 12.362C96.642 12.122 96.768 11.792 96.876 11.372L96.984 10.958L97.596 11.174V14.252L97.236 14.45Z" fill="#655D54"/>
</svg>
