<svg width="227" height="22" viewBox="0 0 227 22" fill="none" xmlns="http://www.w3.org/2000/svg">
<path d="M7.32 16.28C5.82667 16.28 4.58667 15.9467 3.6 15.28C2.62667 14.6133 1.9 13.72 1.42 12.6C0.94 11.4667 0.7 10.2133 0.7 8.84C0.7 7.81333 0.833333 6.84667 1.1 5.94C1.36667 5.03333 1.77333 4.24 2.32 3.56C2.88 2.86667 3.57333 2.32667 4.4 1.94C5.22667 1.55333 6.2 1.36 7.32 1.36C8.44 1.36 9.41333 1.55333 10.24 1.94C11.0667 2.32667 11.7533 2.86667 12.3 3.56C12.86 4.24 13.2733 5.03333 13.54 5.94C13.82 6.84667 13.96 7.81333 13.96 8.84C13.96 10.2133 13.7133 11.4667 13.22 12.6C12.74 13.72 12.0067 14.6133 11.02 15.28C10.0467 15.9467 8.81333 16.28 7.32 16.28ZM7.24 15.1C8.2 15.1 9.02 14.8267 9.7 14.28C10.38 13.72 10.8933 12.9733 11.24 12.04C11.6 11.0933 11.78 10.0467 11.78 8.9C11.78 8.40667 11.7333 7.87333 11.64 7.3C11.56 6.71333 11.42 6.14 11.22 5.58C11.02 5.00667 10.7533 4.49333 10.42 4.04C10.0867 3.57333 9.67333 3.2 9.18 2.92C8.68667 2.64 8.1 2.5 7.42 2.5C6.44667 2.5 5.62 2.8 4.94 3.4C4.26 3.98667 3.74 4.77333 3.38 5.76C3.03333 6.73333 2.86 7.81333 2.86 9C2.86 10.1333 3.02 11.16 3.34 12.08C3.67333 13 4.16667 13.7333 4.82 14.28C5.47333 14.8267 6.28 15.1 7.24 15.1ZM16.088 21.32L15.848 21.02L16.088 20.7C16.328 20.3533 16.4946 19.9933 16.588 19.62C16.6813 19.2467 16.728 18.7467 16.728 18.12V8.38C16.728 8.18 16.7013 8.03333 16.648 7.94C16.5946 7.83333 16.4813 7.76 16.308 7.72L15.268 7.5V6.84C15.4146 6.70667 15.648 6.58 15.968 6.46C16.3013 6.34 16.6546 6.24 17.028 6.16C17.4146 6.08 17.7546 6.04 18.048 6.04C18.368 6.04 18.528 6.34667 18.528 6.96V7.06C19.3946 6.22 20.3546 5.8 21.408 5.8C22.248 5.8 22.988 6.00667 23.628 6.42C24.268 6.83333 24.768 7.40667 25.128 8.14C25.488 8.86 25.668 9.69333 25.668 10.64C25.668 11.72 25.4746 12.6867 25.088 13.54C24.7146 14.38 24.1946 15.0467 23.528 15.54C22.8746 16.0333 22.1213 16.28 21.268 16.28C20.4813 16.28 19.8146 16.1 19.268 15.74C19.148 15.66 19.088 15.54 19.088 15.38C19.088 15.26 19.108 15.1467 19.148 15.04C19.2013 14.9333 19.2813 14.88 19.388 14.88C19.4946 14.88 19.6413 14.9333 19.828 15.04C20.028 15.1467 20.3546 15.2 20.808 15.2C21.3413 15.2 21.8146 15.02 22.228 14.66C22.6413 14.3 22.9613 13.8067 23.188 13.18C23.428 12.5533 23.548 11.84 23.548 11.04C23.548 10.2667 23.428 9.58667 23.188 9C22.9613 8.41333 22.6346 7.95333 22.208 7.62C21.7946 7.28667 21.3146 7.12 20.768 7.12C19.9546 7.12 19.208 7.38 18.528 7.9V19.1C18.528 19.5933 18.5813 19.9467 18.688 20.16C18.808 20.3733 19.0346 20.52 19.368 20.6L19.788 20.7L19.568 21.32H16.088ZM32.0625 16.28C31.1292 16.28 30.3158 16.0667 29.6225 15.64C28.9425 15.2133 28.4092 14.62 28.0225 13.86C27.6492 13.0867 27.4625 12.1867 27.4625 11.16C27.4625 10.08 27.6758 9.14 28.1025 8.34C28.5292 7.54 29.1292 6.92 29.9025 6.48C30.6892 6.02667 31.6025 5.8 32.6425 5.8C33.4158 5.8 34.0492 5.94 34.5425 6.22C35.0492 6.5 35.4225 6.86667 35.6625 7.32C35.9158 7.76 36.0425 8.23333 36.0425 8.74C36.0425 9.28667 35.8958 9.82 35.6025 10.34C35.3225 10.86 34.8958 11.2867 34.3225 11.62C33.7625 11.9533 33.0625 12.12 32.2225 12.12C32.0892 12.12 31.8958 12.1067 31.6425 12.08C31.4025 12.04 31.1558 11.9867 30.9025 11.92C30.6625 11.84 30.4558 11.74 30.2825 11.62C30.1092 11.5 30.0225 11.3533 30.0225 11.18C30.0225 11.0733 30.0492 10.9733 30.1025 10.88C30.1692 10.7867 30.2425 10.74 30.3225 10.74C30.4292 10.74 30.5625 10.7867 30.7225 10.88C30.8958 10.96 31.1892 11 31.6025 11C32.1758 11 32.6492 10.8933 33.0225 10.68C33.3958 10.4533 33.6758 10.1667 33.8625 9.82C34.0492 9.46 34.1425 9.09333 34.1425 8.72C34.1425 8.22667 33.9825 7.78667 33.6625 7.4C33.3425 7 32.8692 6.8 32.2425 6.8C31.3892 6.8 30.7225 7.17333 30.2425 7.92C29.7625 8.66667 29.5225 9.74667 29.5225 11.16C29.5225 12.3333 29.7692 13.26 30.2625 13.94C30.7692 14.62 31.5092 14.96 32.4825 14.96C33.0425 14.96 33.5692 14.8667 34.0625 14.68C34.5558 14.4933 35.0025 14.2067 35.4025 13.82C35.4558 13.7667 35.5158 13.74 35.5825 13.74C35.6892 13.74 35.8025 13.8067 35.9225 13.94C36.0425 14.06 36.1025 14.1867 36.1025 14.32C36.1025 14.3867 36.0758 14.4467 36.0225 14.5C34.9958 15.6867 33.6758 16.28 32.0625 16.28ZM38.2684 16L38.0484 15.38L38.4484 15.24C38.9151 15.1067 39.2284 14.94 39.3884 14.74C39.5484 14.5267 39.6284 14.1333 39.6284 13.56V8.5C39.6284 7.92667 39.5484 7.53333 39.3884 7.32C39.2284 7.10667 38.9151 6.93333 38.4484 6.8L38.0484 6.66L38.2684 6.06H42.2484L42.4884 6.34L42.2484 6.66C41.9551 7.06 41.7418 7.49333 41.6084 7.96C41.4884 8.41333 41.4284 9.01333 41.4284 9.76V10.42H46.2484V8.5C46.2484 7.92667 46.1684 7.53333 46.0084 7.32C45.8484 7.10667 45.5351 6.93333 45.0684 6.8L44.6284 6.66L44.8684 6.06H48.8484L49.1084 6.34L48.8484 6.66C48.5551 7.06 48.3484 7.49333 48.2284 7.96C48.1084 8.41333 48.0484 9.01333 48.0484 9.76V13.7C48.0484 14.2467 48.1218 14.6133 48.2684 14.8C48.4284 14.9867 48.7218 15.1467 49.1484 15.28L49.5084 15.4L49.3284 16H44.8684L44.6284 15.38L45.0684 15.24C45.5351 15.1067 45.8484 14.94 46.0084 14.74C46.1684 14.5267 46.2484 14.1333 46.2484 13.56V11.58H41.4284V13.7C41.4284 14.2467 41.5084 14.6133 41.6684 14.8C41.8284 14.9867 42.1218 15.1467 42.5484 15.28L42.9484 15.4L42.7484 16H38.2684ZM55.8502 16.28C54.8102 16.28 53.9035 16.02 53.1302 15.5C52.3568 14.98 51.7568 14.24 51.3302 13.28C50.9035 12.3067 50.6902 11.1667 50.6902 9.86C50.6902 8.71333 50.7968 7.63333 51.0102 6.62C51.2368 5.60667 51.5702 4.71333 52.0102 3.94C52.4635 3.15333 53.0302 2.54 53.7102 2.1C54.3902 1.64667 55.1968 1.42 56.1302 1.42C56.4235 1.42 56.6968 1.43333 56.9502 1.46C57.2035 1.47333 57.4502 1.48 57.6902 1.48C58.1835 1.48 58.5568 1.41333 58.8102 1.28C58.9835 1.16 59.1102 1.02 59.1902 0.859999C59.2835 0.699999 59.3568 0.559999 59.4102 0.439999C59.4768 0.319999 59.5568 0.259999 59.6502 0.259999C59.7568 0.259999 59.8702 0.393332 59.9902 0.66C60.1235 0.913333 60.1902 1.17333 60.1902 1.44C60.1902 2.08 60.0035 2.54 59.6302 2.82C59.2702 3.1 58.8035 3.24 58.2302 3.24C57.7635 3.24 57.3035 3.19333 56.8502 3.1C56.3968 3.00667 55.9435 2.93333 55.4902 2.88C55.0502 2.82667 54.6035 2.86 54.1502 2.98C53.7902 3.07333 53.5035 3.35333 53.2902 3.82C53.0768 4.28667 52.9168 4.88 52.8102 5.6C52.7168 6.32 52.6635 7.12 52.6502 8H52.8102C53.5835 6.73333 54.6835 6.1 56.1102 6.1C56.8702 6.1 57.5968 6.28667 58.2902 6.66C58.9968 7.02 59.5702 7.56667 60.0102 8.3C60.4502 9.02 60.6702 9.92667 60.6702 11.02C60.6702 12.0067 60.4768 12.9 60.0902 13.7C59.7168 14.5 59.1702 15.1333 58.4502 15.6C57.7302 16.0533 56.8635 16.28 55.8502 16.28ZM55.5702 15.2C56.1968 15.2 56.7302 15.0133 57.1702 14.64C57.6235 14.2533 57.9635 13.7533 58.1902 13.14C58.4302 12.5133 58.5502 11.8333 58.5502 11.1C58.5502 10.66 58.4968 10.2133 58.3902 9.76C58.2835 9.29333 58.1102 8.86 57.8702 8.46C57.6435 8.06 57.3368 7.74 56.9502 7.5C56.5768 7.26 56.1235 7.14 55.5902 7.14C54.7235 7.14 54.0368 7.48667 53.5302 8.18C53.0235 8.86 52.7702 9.82 52.7702 11.06C52.7702 11.82 52.8702 12.5133 53.0702 13.14C53.2835 13.7667 53.5968 14.2667 54.0102 14.64C54.4368 15.0133 54.9568 15.2 55.5702 15.2ZM67.0309 21.56C66.2576 21.56 65.6176 21.42 65.1109 21.14C64.6043 20.86 64.2243 20.5 63.9709 20.06C63.7309 19.62 63.6109 19.1667 63.6109 18.7C63.6109 18.2867 63.7043 17.8933 63.8909 17.52C64.0909 17.16 64.3776 16.86 64.7509 16.62C65.1376 16.3933 65.6043 16.28 66.1509 16.28C66.2976 16.28 66.3976 16.3 66.4509 16.34C66.5043 16.3933 66.5309 16.4467 66.5309 16.5C66.5309 16.58 66.4509 16.6933 66.2909 16.84C66.1309 17 65.9643 17.22 65.7909 17.5C65.6309 17.78 65.5509 18.1667 65.5509 18.66C65.5509 19.1667 65.7043 19.6 66.0109 19.96C66.3176 20.3333 66.7443 20.52 67.2909 20.52C67.8643 20.52 68.3243 20.3533 68.6709 20.02C69.0309 19.7 69.2909 19.2533 69.4509 18.68C69.6109 18.12 69.6909 17.48 69.6909 16.76V13.8C69.3843 14.3733 68.9243 14.8333 68.3109 15.18C67.7109 15.5267 67.0376 15.7 66.2909 15.7C65.3443 15.7 64.6043 15.4133 64.0709 14.84C63.5376 14.2533 63.2709 13.4333 63.2709 12.38V7.94C63.2709 7.64667 63.1376 7.5 62.8709 7.5H61.9909L61.8109 6.98C62.1576 6.63333 62.5776 6.34667 63.0709 6.12C63.5776 5.89333 64.0376 5.78 64.4509 5.78C64.6376 5.78 64.7909 5.84 64.9109 5.96C65.0309 6.08 65.0909 6.23333 65.0909 6.42V11.92C65.0909 13.5467 65.7176 14.36 66.9709 14.36C67.8643 14.36 68.5576 14.0267 69.0509 13.36C69.5576 12.68 69.8109 11.7467 69.8109 10.56C69.8109 9.90667 69.7909 9.34667 69.7509 8.88C69.7243 8.41333 69.6576 8.00667 69.5509 7.66C69.4443 7.3 69.2709 6.96667 69.0309 6.66L68.7909 6.34L69.0309 6.04L71.4709 5.78V16.44C71.4709 18.0933 71.0643 19.36 70.2509 20.24C69.4509 21.12 68.3776 21.56 67.0309 21.56ZM74.838 21.32L74.598 21.02L74.838 20.7C75.078 20.3533 75.2446 19.9933 75.338 19.62C75.4313 19.2467 75.478 18.7467 75.478 18.12V8.38C75.478 8.18 75.4513 8.03333 75.398 7.94C75.3446 7.83333 75.2313 7.76 75.058 7.72L74.018 7.5V6.84C74.1646 6.70667 74.398 6.58 74.718 6.46C75.0513 6.34 75.4046 6.24 75.778 6.16C76.1646 6.08 76.5046 6.04 76.798 6.04C77.118 6.04 77.278 6.34667 77.278 6.96V7.06C78.1446 6.22 79.1046 5.8 80.158 5.8C80.998 5.8 81.738 6.00667 82.378 6.42C83.018 6.83333 83.518 7.40667 83.878 8.14C84.238 8.86 84.418 9.69333 84.418 10.64C84.418 11.72 84.2246 12.6867 83.838 13.54C83.4646 14.38 82.9446 15.0467 82.278 15.54C81.6246 16.0333 80.8713 16.28 80.018 16.28C79.2313 16.28 78.5646 16.1 78.018 15.74C77.898 15.66 77.838 15.54 77.838 15.38C77.838 15.26 77.858 15.1467 77.898 15.04C77.9513 14.9333 78.0313 14.88 78.138 14.88C78.2446 14.88 78.3913 14.9333 78.578 15.04C78.778 15.1467 79.1046 15.2 79.558 15.2C80.0913 15.2 80.5646 15.02 80.978 14.66C81.3913 14.3 81.7113 13.8067 81.938 13.18C82.178 12.5533 82.298 11.84 82.298 11.04C82.298 10.2667 82.178 9.58667 81.938 9C81.7113 8.41333 81.3846 7.95333 80.958 7.62C80.5446 7.28667 80.0646 7.12 79.518 7.12C78.7046 7.12 77.958 7.38 77.278 7.9V19.1C77.278 19.5933 77.3313 19.9467 77.438 20.16C77.558 20.3733 77.7846 20.52 78.118 20.6L78.538 20.7L78.318 21.32H74.838ZM86.4325 16L86.2125 15.7L86.4325 15.38C86.6325 15.1133 86.7925 14.8533 86.9125 14.6C87.0458 14.3467 87.1392 14.06 87.1925 13.74C87.2458 13.4067 87.2725 12.9867 87.2725 12.48V9.88C87.2725 9.13333 87.2058 8.52667 87.0725 8.06C86.9525 7.59333 86.7392 7.17333 86.4325 6.8L86.2125 6.44L86.4325 6.16H91.3325C91.8658 6.16 92.3058 6.13333 92.6525 6.08C92.9992 6.02667 93.2658 5.93333 93.4525 5.8L93.7525 5.54L94.0525 5.8V9.08L93.4525 9.28L93.3125 8.86C93.2058 8.40667 93.0792 8.06667 92.9325 7.84C92.7858 7.6 92.5858 7.44 92.3325 7.36C92.0925 7.26667 91.7525 7.22 91.3125 7.22H90.2325C89.7525 7.22 89.4325 7.30667 89.2725 7.48C89.1258 7.65333 89.0525 8.02667 89.0525 8.6V13.56C89.0525 14.1333 89.1325 14.5267 89.2925 14.74C89.4525 14.94 89.7658 15.1067 90.2325 15.24L90.6525 15.38L90.4325 16H86.4325ZM100.271 16.28C99.3374 16.28 98.5041 16.0533 97.7708 15.6C97.0508 15.1467 96.4841 14.5267 96.0708 13.74C95.6574 12.9533 95.4508 12.06 95.4508 11.06C95.4508 9.99333 95.6508 9.06667 96.0508 8.28C96.4508 7.49333 97.0108 6.88667 97.7308 6.46C98.4641 6.02 99.3174 5.8 100.291 5.8C101.317 5.8 102.157 6.05333 102.811 6.56C103.477 7.05333 103.811 7.69333 103.811 8.48C103.811 9.05333 103.624 9.52667 103.251 9.9C102.891 10.26 102.424 10.44 101.851 10.44C101.597 10.44 101.471 10.3667 101.471 10.22C101.471 10.1533 101.511 10.0667 101.591 9.96C101.671 9.85333 101.751 9.69333 101.831 9.48C101.911 9.25333 101.951 8.95333 101.951 8.58C101.951 8.04667 101.777 7.62667 101.431 7.32C101.097 7 100.644 6.84 100.071 6.84C99.3108 6.84 98.6974 7.21333 98.2308 7.96C97.7641 8.70667 97.5308 9.68667 97.5308 10.9C97.5308 12.14 97.8041 13.1267 98.3508 13.86C98.9108 14.58 99.6641 14.94 100.611 14.94C101.571 14.94 102.451 14.6067 103.251 13.94C103.291 13.9 103.351 13.88 103.431 13.88C103.537 13.88 103.644 13.94 103.751 14.06C103.871 14.18 103.931 14.3067 103.931 14.44C103.931 14.52 103.911 14.58 103.871 14.62C103.404 15.1533 102.857 15.5667 102.231 15.86C101.617 16.14 100.964 16.28 100.271 16.28ZM114.587 16.28C114.013 16.28 113.547 16.12 113.187 15.8C112.827 15.4667 112.473 15.02 112.127 14.46L110.747 12.16C110.613 11.92 110.447 11.7467 110.247 11.64C110.047 11.5333 109.833 11.4333 109.607 11.34C109.567 11.3133 109.54 11.28 109.527 11.24C109.527 11.2 109.527 11.1533 109.527 11.1C109.527 11.0333 109.547 10.9533 109.587 10.86C109.627 10.7533 109.72 10.7 109.867 10.7H110.227L112.027 8.52C112.173 8.33333 112.273 8.14667 112.327 7.96C112.393 7.76 112.427 7.56667 112.427 7.38C112.427 7.14 112.38 6.90667 112.287 6.68L112.127 6.36L112.447 6.06H115.707L115.927 6.68L115.547 6.8C115.267 6.86667 115.007 6.97333 114.767 7.12C114.54 7.26667 114.307 7.49333 114.067 7.8L111.567 10.96C111.807 11.08 112.06 11.24 112.327 11.44C112.607 11.6267 112.833 11.8733 113.007 12.18L114.567 14.7C114.673 14.86 114.773 14.9933 114.867 15.1C114.96 15.1933 115.08 15.24 115.227 15.24C115.493 15.24 115.74 15.1533 115.967 14.98L116.287 15.54C116.033 15.7933 115.76 15.98 115.467 16.1C115.173 16.22 114.88 16.28 114.587 16.28ZM105.807 16L105.627 15.38L106.007 15.24C106.473 15.1067 106.787 14.94 106.947 14.74C107.107 14.5267 107.187 14.1333 107.187 13.56V8.5C107.187 7.92667 107.107 7.53333 106.947 7.32C106.787 7.10667 106.473 6.93333 106.007 6.8L105.627 6.66L105.807 6.06H109.807L110.047 6.34L109.807 6.66C109.513 7.07333 109.3 7.50667 109.167 7.96C109.047 8.41333 108.987 9.01333 108.987 9.76V13.7C108.987 14.0733 109.02 14.36 109.087 14.56C109.153 14.7467 109.267 14.8933 109.427 15C109.6 15.0933 109.827 15.1867 110.107 15.28L110.487 15.4L110.307 16H105.807ZM121.062 16.28C120.435 16.28 119.849 16.1 119.302 15.74C118.755 15.38 118.315 14.84 117.982 14.12C117.649 13.4 117.482 12.5 117.482 11.42C117.482 10.26 117.689 9.26 118.102 8.42C118.529 7.58 119.129 6.93333 119.902 6.48C120.689 6.02667 121.609 5.8 122.662 5.8C123.289 5.8 123.942 5.87333 124.622 6.02C125.302 6.15333 125.982 6.24667 126.662 6.3L126.882 6.56L126.642 6.92C126.562 7.04 126.495 7.16 126.442 7.28C126.402 7.38667 126.382 7.52667 126.382 7.7V14.24C126.382 14.6533 126.582 14.86 126.982 14.86C127.315 14.86 127.649 14.74 127.982 14.5L128.362 15.02C128.015 15.4067 127.642 15.7133 127.242 15.94C126.855 16.1667 126.489 16.28 126.142 16.28C125.595 16.28 125.202 16.1133 124.962 15.78C124.722 15.4467 124.602 14.9067 124.602 14.16C124.029 14.9733 123.449 15.5333 122.862 15.84C122.289 16.1333 121.689 16.28 121.062 16.28ZM121.862 14.74C122.369 14.74 122.855 14.5933 123.322 14.3C123.802 14.0067 124.229 13.5467 124.602 12.92V7.52C123.989 7.10667 123.335 6.9 122.642 6.9C121.669 6.9 120.915 7.26667 120.382 8C119.849 8.72 119.582 9.73333 119.582 11.04C119.582 11.9467 119.689 12.6733 119.902 13.22C120.115 13.7533 120.395 14.14 120.742 14.38C121.102 14.62 121.475 14.74 121.862 14.74ZM130.632 16.28C130.339 16.28 130.052 16.22 129.772 16.1C129.492 15.98 129.219 15.7933 128.952 15.54L129.252 14.98C129.386 15.0733 129.506 15.14 129.612 15.18C129.732 15.22 129.859 15.24 129.992 15.24C130.152 15.24 130.279 15.1933 130.372 15.1C130.479 15.0067 130.586 14.8733 130.692 14.7L131.812 12.76C131.959 12.4933 132.119 12.2667 132.292 12.08C132.466 11.8933 132.666 11.74 132.892 11.62C132.079 11.4333 131.446 11.0933 130.992 10.6C130.539 10.1067 130.312 9.50667 130.312 8.8C130.312 7.88 130.686 7.15333 131.432 6.62C132.179 6.08667 133.386 5.82 135.052 5.82C135.666 5.82 136.279 5.86 136.892 5.94C137.519 6.02 138.092 6.12 138.612 6.24C139.146 6.36 139.579 6.48667 139.912 6.62L139.692 7.32H138.612C138.479 7.32 138.379 7.34667 138.312 7.4C138.246 7.45333 138.212 7.56667 138.212 7.74V13.52C138.212 14.0933 138.292 14.4933 138.452 14.72C138.612 14.9333 138.919 15.1067 139.372 15.24L139.812 15.38L139.612 16H135.552L135.332 15.72L135.552 15.38C135.859 14.9933 136.072 14.5733 136.192 14.12C136.326 13.6533 136.392 13.0467 136.392 12.3V7.7C136.392 7.58 136.359 7.46 136.292 7.34C136.239 7.20667 136.106 7.09333 135.892 7C135.679 6.90667 135.346 6.86 134.892 6.86C133.986 6.86 133.312 7.05333 132.872 7.44C132.446 7.81333 132.232 8.30667 132.232 8.92C132.232 9.53333 132.419 10.0133 132.792 10.36C133.166 10.7067 133.692 10.88 134.372 10.88C134.666 10.88 134.879 10.86 135.012 10.82C135.146 10.7667 135.239 10.74 135.292 10.74C135.466 10.74 135.552 10.8533 135.552 11.08C135.552 11.2267 135.459 11.36 135.272 11.48C135.099 11.6 134.859 11.6733 134.552 11.7C134.312 11.86 134.119 12.08 133.972 12.36L132.572 14.88C132.292 15.4133 132.026 15.78 131.772 15.98C131.519 16.18 131.139 16.28 130.632 16.28ZM153.648 16.28C152.155 16.28 150.915 15.9467 149.928 15.28C148.955 14.6133 148.228 13.72 147.748 12.6C147.268 11.4667 147.028 10.2133 147.028 8.84C147.028 7.81333 147.161 6.84667 147.428 5.94C147.695 5.03333 148.101 4.24 148.648 3.56C149.208 2.86667 149.901 2.32667 150.728 1.94C151.555 1.55333 152.528 1.36 153.648 1.36C154.768 1.36 155.741 1.55333 156.568 1.94C157.395 2.32667 158.081 2.86667 158.628 3.56C159.188 4.24 159.601 5.03333 159.868 5.94C160.148 6.84667 160.288 7.81333 160.288 8.84C160.288 10.2133 160.041 11.4667 159.548 12.6C159.068 13.72 158.335 14.6133 157.348 15.28C156.375 15.9467 155.141 16.28 153.648 16.28ZM153.568 15.1C154.528 15.1 155.348 14.8267 156.028 14.28C156.708 13.72 157.221 12.9733 157.568 12.04C157.928 11.0933 158.108 10.0467 158.108 8.9C158.108 8.40667 158.061 7.87333 157.968 7.3C157.888 6.71333 157.748 6.14 157.548 5.58C157.348 5.00667 157.081 4.49333 156.748 4.04C156.415 3.57333 156.001 3.2 155.508 2.92C155.015 2.64 154.428 2.5 153.748 2.5C152.775 2.5 151.948 2.8 151.268 3.4C150.588 3.98667 150.068 4.77333 149.708 5.76C149.361 6.73333 149.188 7.81333 149.188 9C149.188 10.1333 149.348 11.16 149.668 12.08C150.001 13 150.495 13.7333 151.148 14.28C151.801 14.8267 152.608 15.1 153.568 15.1ZM166.436 16.28C165.396 16.28 164.489 16.02 163.716 15.5C162.943 14.98 162.343 14.24 161.916 13.28C161.489 12.3067 161.276 11.1667 161.276 9.86C161.276 8.71333 161.383 7.63333 161.596 6.62C161.823 5.60667 162.156 4.71333 162.596 3.94C163.049 3.15333 163.616 2.54 164.296 2.1C164.976 1.64667 165.783 1.42 166.716 1.42C167.009 1.42 167.283 1.43333 167.536 1.46C167.789 1.47333 168.036 1.48 168.276 1.48C168.769 1.48 169.143 1.41333 169.396 1.28C169.569 1.16 169.696 1.02 169.776 0.859999C169.869 0.699999 169.943 0.559999 169.996 0.439999C170.063 0.319999 170.143 0.259999 170.236 0.259999C170.343 0.259999 170.456 0.393332 170.576 0.66C170.709 0.913333 170.776 1.17333 170.776 1.44C170.776 2.08 170.589 2.54 170.216 2.82C169.856 3.1 169.389 3.24 168.816 3.24C168.349 3.24 167.889 3.19333 167.436 3.1C166.983 3.00667 166.529 2.93333 166.076 2.88C165.636 2.82667 165.189 2.86 164.736 2.98C164.376 3.07333 164.089 3.35333 163.876 3.82C163.663 4.28667 163.503 4.88 163.396 5.6C163.303 6.32 163.249 7.12 163.236 8H163.396C164.169 6.73333 165.269 6.1 166.696 6.1C167.456 6.1 168.183 6.28667 168.876 6.66C169.583 7.02 170.156 7.56667 170.596 8.3C171.036 9.02 171.256 9.92667 171.256 11.02C171.256 12.0067 171.063 12.9 170.676 13.7C170.303 14.5 169.756 15.1333 169.036 15.6C168.316 16.0533 167.449 16.28 166.436 16.28ZM166.156 15.2C166.783 15.2 167.316 15.0133 167.756 14.64C168.209 14.2533 168.549 13.7533 168.776 13.14C169.016 12.5133 169.136 11.8333 169.136 11.1C169.136 10.66 169.083 10.2133 168.976 9.76C168.869 9.29333 168.696 8.86 168.456 8.46C168.229 8.06 167.923 7.74 167.536 7.5C167.163 7.26 166.709 7.14 166.176 7.14C165.309 7.14 164.623 7.48667 164.116 8.18C163.609 8.86 163.356 9.82 163.356 11.06C163.356 11.82 163.456 12.5133 163.656 13.14C163.869 13.7667 164.183 14.2667 164.596 14.64C165.023 15.0133 165.543 15.2 166.156 15.2ZM173.877 16.28C173.344 16.28 172.91 16.1133 172.577 15.78C172.257 15.4467 172.097 15.0067 172.097 14.46C172.097 14.0733 172.184 13.7733 172.357 13.56C172.544 13.3467 172.784 13.24 173.077 13.24C173.224 13.24 173.33 13.3 173.397 13.42C173.464 13.5267 173.504 13.6733 173.517 13.86C173.544 14.0333 173.61 14.2067 173.717 14.38C173.824 14.5533 173.997 14.64 174.237 14.64C174.664 14.64 175.017 14.3533 175.297 13.78C175.59 13.1933 175.824 12.42 175.997 11.46C176.17 10.5 176.297 9.45333 176.377 8.32C176.404 7.93333 176.384 7.64 176.317 7.44C176.264 7.24 176.137 7.1 175.937 7.02C175.75 6.92667 175.464 6.85333 175.077 6.8L174.677 6.66L174.877 6.06H182.837L183.117 6.36L182.837 6.68C182.544 7.08 182.33 7.50667 182.197 7.96C182.077 8.41333 182.017 9.01333 182.017 9.76V13.7C182.017 14.2333 182.097 14.6 182.257 14.8C182.43 14.9867 182.73 15.1467 183.157 15.28L183.537 15.38L183.337 16H178.837L178.617 15.38L179.017 15.24C179.484 15.1067 179.804 14.9333 179.977 14.72C180.15 14.5067 180.237 14.1067 180.237 13.52V8.52C180.237 7.94667 180.157 7.57333 179.997 7.4C179.837 7.21333 179.51 7.12 179.017 7.12H178.677C178.344 7.12 178.077 7.16 177.877 7.24C177.677 7.32 177.564 7.52 177.537 7.84C177.39 9.68 177.184 11.16 176.917 12.28C176.65 13.3867 176.35 14.2333 176.017 14.82C175.684 15.3933 175.33 15.78 174.957 15.98C174.597 16.18 174.237 16.28 173.877 16.28ZM188.464 16.28C187.838 16.28 187.251 16.1 186.704 15.74C186.158 15.38 185.718 14.84 185.384 14.12C185.051 13.4 184.884 12.5 184.884 11.42C184.884 10.26 185.091 9.26 185.504 8.42C185.931 7.58 186.531 6.93333 187.304 6.48C188.091 6.02667 189.011 5.8 190.064 5.8C190.691 5.8 191.344 5.87333 192.024 6.02C192.704 6.15333 193.384 6.24667 194.064 6.3L194.284 6.56L194.044 6.92C193.964 7.04 193.898 7.16 193.844 7.28C193.804 7.38667 193.784 7.52667 193.784 7.7V14.24C193.784 14.6533 193.984 14.86 194.384 14.86C194.718 14.86 195.051 14.74 195.384 14.5L195.764 15.02C195.418 15.4067 195.044 15.7133 194.644 15.94C194.258 16.1667 193.891 16.28 193.544 16.28C192.998 16.28 192.604 16.1133 192.364 15.78C192.124 15.4467 192.004 14.9067 192.004 14.16C191.431 14.9733 190.851 15.5333 190.264 15.84C189.691 16.1333 189.091 16.28 188.464 16.28ZM189.264 14.74C189.771 14.74 190.258 14.5933 190.724 14.3C191.204 14.0067 191.631 13.5467 192.004 12.92V7.52C191.391 7.10667 190.738 6.9 190.044 6.9C189.071 6.9 188.318 7.26667 187.784 8C187.251 8.72 186.984 9.73333 186.984 11.04C186.984 11.9467 187.091 12.6733 187.304 13.22C187.518 13.7533 187.798 14.14 188.144 14.38C188.504 14.62 188.878 14.74 189.264 14.74ZM201.775 16.28C200.841 16.28 200.008 16.0533 199.275 15.6C198.555 15.1467 197.988 14.5267 197.575 13.74C197.161 12.9533 196.955 12.06 196.955 11.06C196.955 9.99333 197.155 9.06667 197.555 8.28C197.955 7.49333 198.515 6.88667 199.235 6.46C199.968 6.02 200.821 5.8 201.795 5.8C202.821 5.8 203.661 6.05333 204.315 6.56C204.981 7.05333 205.315 7.69333 205.315 8.48C205.315 9.05333 205.128 9.52667 204.755 9.9C204.395 10.26 203.928 10.44 203.355 10.44C203.101 10.44 202.975 10.3667 202.975 10.22C202.975 10.1533 203.015 10.0667 203.095 9.96C203.175 9.85333 203.255 9.69333 203.335 9.48C203.415 9.25333 203.455 8.95333 203.455 8.58C203.455 8.04667 203.281 7.62667 202.935 7.32C202.601 7 202.148 6.84 201.575 6.84C200.815 6.84 200.201 7.21333 199.735 7.96C199.268 8.70667 199.035 9.68667 199.035 10.9C199.035 12.14 199.308 13.1267 199.855 13.86C200.415 14.58 201.168 14.94 202.115 14.94C203.075 14.94 203.955 14.6067 204.755 13.94C204.795 13.9 204.855 13.88 204.935 13.88C205.041 13.88 205.148 13.94 205.255 14.06C205.375 14.18 205.435 14.3067 205.435 14.44C205.435 14.52 205.415 14.58 205.375 14.62C204.908 15.1533 204.361 15.5667 203.735 15.86C203.121 16.14 202.468 16.28 201.775 16.28ZM209.05 16L208.81 15.7L209.05 15.38C209.357 14.98 209.57 14.5533 209.69 14.1C209.81 13.6467 209.87 13.0467 209.87 12.3V8.6C209.87 8.02667 209.824 7.65333 209.73 7.48C209.65 7.30667 209.484 7.22 209.23 7.22H209.03C208.59 7.22 208.244 7.26667 207.99 7.36C207.75 7.44 207.557 7.6 207.41 7.84C207.264 8.06667 207.13 8.40667 207.01 8.86L206.89 9.28L206.27 9.08V5.8L206.59 5.54L206.89 5.8C207.077 5.93333 207.344 6.02667 207.69 6.08C208.037 6.13333 208.477 6.16 209.01 6.16H212.55C213.097 6.16 213.537 6.13333 213.87 6.08C214.217 6.02667 214.477 5.93333 214.65 5.8L214.95 5.54L215.27 5.8V9.08L214.65 9.28L214.55 8.86C214.43 8.40667 214.297 8.06667 214.15 7.84C214.004 7.6 213.81 7.44 213.57 7.36C213.33 7.26667 212.99 7.22 212.55 7.22H212.31C212.057 7.22 211.884 7.30667 211.79 7.48C211.71 7.65333 211.67 8.02667 211.67 8.6V13.56C211.67 14.1333 211.75 14.5267 211.91 14.74C212.07 14.94 212.377 15.1067 212.83 15.24L213.29 15.38L213.05 16H209.05ZM216.433 16L216.213 15.38L216.632 15.24C217.073 15.1067 217.373 14.9333 217.533 14.72C217.706 14.5067 217.793 14.12 217.793 13.56V8.5C217.793 7.95333 217.706 7.56667 217.533 7.34C217.373 7.11333 217.073 6.93333 216.632 6.8L216.213 6.66L216.433 6.06H220.433L220.673 6.34L220.433 6.66C220.139 7.07333 219.926 7.50667 219.793 7.96C219.659 8.41333 219.593 9.01333 219.593 9.76V12.3C219.593 12.9533 219.666 13.4667 219.813 13.84C219.959 14.2133 220.146 14.4867 220.373 14.66C220.613 14.82 220.866 14.92 221.133 14.96C221.399 15 221.653 15.02 221.893 15.02C222.573 15.02 223.113 14.8333 223.513 14.46C223.913 14.0733 224.113 13.58 224.113 12.98C224.113 12.4333 223.886 11.9733 223.433 11.6C222.993 11.2133 222.399 11.02 221.653 11.02C221.213 11.02 220.906 11.0533 220.733 11.12C220.573 11.1867 220.433 11.22 220.312 11.22C220.233 11.22 220.173 11.18 220.133 11.1C220.093 11.0067 220.073 10.9133 220.073 10.82C220.073 10.6467 220.173 10.5133 220.373 10.42C220.573 10.3133 220.819 10.24 221.113 10.2C221.406 10.1467 221.699 10.12 221.993 10.12C222.939 10.12 223.719 10.26 224.333 10.54C224.959 10.8067 225.426 11.16 225.733 11.6C226.039 12.04 226.193 12.52 226.193 13.04C226.193 13.6133 226.039 14.1267 225.733 14.58C225.439 15.02 224.953 15.3667 224.273 15.62C223.606 15.8733 222.706 16 221.573 16H216.433Z" fill="white"/>
</svg>
