<svg width="339" height="33" viewBox="0 0 339 33" fill="none" xmlns="http://www.w3.org/2000/svg">
<path d="M9.98 24.42C7.74 24.42 5.88 23.92 4.4 22.92C2.94 21.92 1.85 20.58 1.13 18.9C0.41 17.2 0.05 15.32 0.05 13.26C0.05 11.72 0.25 10.27 0.65 8.91C1.05 7.55 1.66 6.36 2.48 5.34C3.32 4.3 4.36 3.49 5.6 2.91C6.84 2.33 8.3 2.04 9.98 2.04C11.66 2.04 13.12 2.33 14.36 2.91C15.6 3.49 16.63 4.3 17.45 5.34C18.29 6.36 18.91 7.55 19.31 8.91C19.73 10.27 19.94 11.72 19.94 13.26C19.94 15.32 19.57 17.2 18.83 18.9C18.11 20.58 17.01 21.92 15.53 22.92C14.07 23.92 12.22 24.42 9.98 24.42ZM9.86 22.65C11.3 22.65 12.53 22.24 13.55 21.42C14.57 20.58 15.34 19.46 15.86 18.06C16.4 16.64 16.67 15.07 16.67 13.35C16.67 12.61 16.6 11.81 16.46 10.95C16.34 10.07 16.13 9.21 15.83 8.37C15.53 7.51 15.13 6.74 14.63 6.06C14.13 5.36 13.51 4.8 12.77 4.38C12.03 3.96 11.15 3.75 10.13 3.75C8.67 3.75 7.43 4.2 6.41 5.1C5.39 5.98 4.61 7.16 4.07 8.64C3.55 10.1 3.29 11.72 3.29 13.5C3.29 15.2 3.53 16.74 4.01 18.12C4.51 19.5 5.25 20.6 6.23 21.42C7.21 22.24 8.42 22.65 9.86 22.65ZM23.132 31.98L22.772 31.53L23.132 31.05C23.492 30.53 23.742 29.99 23.882 29.43C24.022 28.87 24.092 28.12 24.092 27.18V12.57C24.092 12.27 24.052 12.05 23.972 11.91C23.892 11.75 23.722 11.64 23.462 11.58L21.902 11.25V10.26C22.122 10.06 22.472 9.87 22.952 9.69C23.452 9.51 23.982 9.36 24.542 9.24C25.122 9.12 25.632 9.06 26.072 9.06C26.552 9.06 26.792 9.52 26.792 10.44V10.59C28.092 9.33 29.532 8.7 31.112 8.7C32.372 8.7 33.482 9.01 34.442 9.63C35.402 10.25 36.152 11.11 36.692 12.21C37.232 13.29 37.502 14.54 37.502 15.96C37.502 17.58 37.212 19.03 36.632 20.31C36.072 21.57 35.292 22.57 34.292 23.31C33.312 24.05 32.182 24.42 30.902 24.42C29.722 24.42 28.722 24.15 27.902 23.61C27.722 23.49 27.632 23.31 27.632 23.07C27.632 22.89 27.662 22.72 27.722 22.56C27.802 22.4 27.922 22.32 28.082 22.32C28.242 22.32 28.462 22.4 28.742 22.56C29.042 22.72 29.532 22.8 30.212 22.8C31.012 22.8 31.722 22.53 32.342 21.99C32.962 21.45 33.442 20.71 33.782 19.77C34.142 18.83 34.322 17.76 34.322 16.56C34.322 15.4 34.142 14.38 33.782 13.5C33.442 12.62 32.952 11.93 32.312 11.43C31.692 10.93 30.972 10.68 30.152 10.68C28.932 10.68 27.812 11.07 26.792 11.85V28.65C26.792 29.39 26.872 29.92 27.032 30.24C27.212 30.56 27.552 30.78 28.052 30.9L28.682 31.05L28.352 31.98H23.132ZM47.0938 24.42C45.6938 24.42 44.4738 24.1 43.4338 23.46C42.4138 22.82 41.6138 21.93 41.0338 20.79C40.4738 19.63 40.1938 18.28 40.1938 16.74C40.1938 15.12 40.5138 13.71 41.1538 12.51C41.7938 11.31 42.6938 10.38 43.8538 9.72C45.0338 9.04 46.4038 8.7 47.9638 8.7C49.1238 8.7 50.0738 8.91 50.8138 9.33C51.5738 9.75 52.1338 10.3 52.4938 10.98C52.8738 11.64 53.0638 12.35 53.0638 13.11C53.0638 13.93 52.8438 14.73 52.4038 15.51C51.9838 16.29 51.3438 16.93 50.4838 17.43C49.6438 17.93 48.5938 18.18 47.3338 18.18C47.1338 18.18 46.8438 18.16 46.4638 18.12C46.1038 18.06 45.7338 17.98 45.3538 17.88C44.9938 17.76 44.6838 17.61 44.4238 17.43C44.1638 17.25 44.0338 17.03 44.0338 16.77C44.0338 16.61 44.0738 16.46 44.1538 16.32C44.2538 16.18 44.3638 16.11 44.4838 16.11C44.6438 16.11 44.8438 16.18 45.0838 16.32C45.3438 16.44 45.7838 16.5 46.4038 16.5C47.2638 16.5 47.9738 16.34 48.5338 16.02C49.0938 15.68 49.5138 15.25 49.7938 14.73C50.0738 14.19 50.2138 13.64 50.2138 13.08C50.2138 12.34 49.9738 11.68 49.4938 11.1C49.0138 10.5 48.3038 10.2 47.3638 10.2C46.0838 10.2 45.0838 10.76 44.3638 11.88C43.6438 13 43.2838 14.62 43.2838 16.74C43.2838 18.5 43.6538 19.89 44.3938 20.91C45.1538 21.93 46.2638 22.44 47.7238 22.44C48.5638 22.44 49.3538 22.3 50.0938 22.02C50.8338 21.74 51.5038 21.31 52.1038 20.73C52.1838 20.65 52.2738 20.61 52.3738 20.61C52.5338 20.61 52.7038 20.71 52.8838 20.91C53.0638 21.09 53.1538 21.28 53.1538 21.48C53.1538 21.58 53.1138 21.67 53.0338 21.75C51.4938 23.53 49.5138 24.42 47.0938 24.42ZM56.4027 24L56.0727 23.07L56.6727 22.86C57.3727 22.66 57.8427 22.41 58.0827 22.11C58.3227 21.79 58.4427 21.2 58.4427 20.34V12.75C58.4427 11.89 58.3227 11.3 58.0827 10.98C57.8427 10.66 57.3727 10.4 56.6727 10.2L56.0727 9.99L56.4027 9.09H62.3727L62.7327 9.51L62.3727 9.99C61.9327 10.59 61.6127 11.24 61.4127 11.94C61.2327 12.62 61.1427 13.52 61.1427 14.64V15.63H68.3727V12.75C68.3727 11.89 68.2527 11.3 68.0127 10.98C67.7727 10.66 67.3027 10.4 66.6027 10.2L65.9427 9.99L66.3027 9.09H72.2727L72.6627 9.51L72.2727 9.99C71.8327 10.59 71.5227 11.24 71.3427 11.94C71.1627 12.62 71.0727 13.52 71.0727 14.64V20.55C71.0727 21.37 71.1827 21.92 71.4027 22.2C71.6427 22.48 72.0827 22.72 72.7227 22.92L73.2627 23.1L72.9927 24H66.3027L65.9427 23.07L66.6027 22.86C67.3027 22.66 67.7727 22.41 68.0127 22.11C68.2527 21.79 68.3727 21.2 68.3727 20.34V17.37H61.1427V20.55C61.1427 21.37 61.2627 21.92 61.5027 22.2C61.7427 22.48 62.1827 22.72 62.8227 22.92L63.4227 23.1L63.1227 24H56.4027ZM82.7752 24.42C81.2152 24.42 79.8552 24.03 78.6952 23.25C77.5352 22.47 76.6352 21.36 75.9952 19.92C75.3552 18.46 75.0352 16.75 75.0352 14.79C75.0352 13.07 75.1952 11.45 75.5152 9.93C75.8552 8.41 76.3552 7.07 77.0152 5.91C77.6952 4.73 78.5452 3.81 79.5652 3.15C80.5852 2.47 81.7952 2.13 83.1952 2.13C83.6352 2.13 84.0452 2.15 84.4252 2.19C84.8052 2.21 85.1752 2.22 85.5352 2.22C86.2752 2.22 86.8352 2.12 87.2152 1.92C87.4752 1.74 87.6652 1.53 87.7852 1.29C87.9252 1.05 88.0352 0.839998 88.1152 0.659998C88.2152 0.479998 88.3352 0.389998 88.4752 0.389998C88.6352 0.389998 88.8052 0.589999 88.9852 0.989999C89.1852 1.37 89.2852 1.76 89.2852 2.16C89.2852 3.12 89.0052 3.81 88.4452 4.23C87.9052 4.65 87.2052 4.86 86.3452 4.86C85.6452 4.86 84.9552 4.79 84.2752 4.65C83.5952 4.51 82.9152 4.4 82.2352 4.32C81.5752 4.24 80.9052 4.29 80.2252 4.47C79.6852 4.61 79.2552 5.03 78.9352 5.73C78.6152 6.43 78.3752 7.32 78.2152 8.4C78.0752 9.48 77.9952 10.68 77.9752 12H78.2152C79.3752 10.1 81.0252 9.15 83.1652 9.15C84.3052 9.15 85.3952 9.43 86.4352 9.99C87.4952 10.53 88.3552 11.35 89.0152 12.45C89.6752 13.53 90.0052 14.89 90.0052 16.53C90.0052 18.01 89.7152 19.35 89.1352 20.55C88.5752 21.75 87.7552 22.7 86.6752 23.4C85.5952 24.08 84.2952 24.42 82.7752 24.42ZM82.3552 22.8C83.2952 22.8 84.0952 22.52 84.7552 21.96C85.4352 21.38 85.9452 20.63 86.2852 19.71C86.6452 18.77 86.8252 17.75 86.8252 16.65C86.8252 15.99 86.7452 15.32 86.5852 14.64C86.4252 13.94 86.1652 13.29 85.8052 12.69C85.4652 12.09 85.0052 11.61 84.4252 11.25C83.8652 10.89 83.1852 10.71 82.3852 10.71C81.0852 10.71 80.0552 11.23 79.2952 12.27C78.5352 13.29 78.1552 14.73 78.1552 16.59C78.1552 17.73 78.3052 18.77 78.6052 19.71C78.9252 20.65 79.3952 21.4 80.0152 21.96C80.6552 22.52 81.4352 22.8 82.3552 22.8ZM99.5464 32.34C98.3864 32.34 97.4264 32.13 96.6664 31.71C95.9064 31.29 95.3364 30.75 94.9564 30.09C94.5964 29.43 94.4164 28.75 94.4164 28.05C94.4164 27.43 94.5564 26.84 94.8364 26.28C95.1364 25.74 95.5664 25.29 96.1264 24.93C96.7064 24.59 97.4064 24.42 98.2264 24.42C98.4464 24.42 98.5964 24.45 98.6764 24.51C98.7564 24.59 98.7964 24.67 98.7964 24.75C98.7964 24.87 98.6764 25.04 98.4364 25.26C98.1964 25.5 97.9464 25.83 97.6864 26.25C97.4464 26.67 97.3264 27.25 97.3264 27.99C97.3264 28.75 97.5564 29.4 98.0164 29.94C98.4764 30.5 99.1164 30.78 99.9364 30.78C100.796 30.78 101.486 30.53 102.006 30.03C102.546 29.55 102.936 28.88 103.176 28.02C103.416 27.18 103.536 26.22 103.536 25.14V20.7C103.076 21.56 102.386 22.25 101.466 22.77C100.566 23.29 99.5564 23.55 98.4364 23.55C97.0164 23.55 95.9064 23.12 95.1064 22.26C94.3064 21.38 93.9064 20.15 93.9064 18.57V11.91C93.9064 11.47 93.7064 11.25 93.3064 11.25H91.9864L91.7164 10.47C92.2364 9.95 92.8664 9.52 93.6064 9.18C94.3664 8.84 95.0564 8.67 95.6764 8.67C95.9564 8.67 96.1864 8.76 96.3664 8.94C96.5464 9.12 96.6364 9.35 96.6364 9.63V17.88C96.6364 20.32 97.5764 21.54 99.4564 21.54C100.796 21.54 101.836 21.04 102.576 20.04C103.336 19.02 103.716 17.62 103.716 15.84C103.716 14.86 103.686 14.02 103.626 13.32C103.586 12.62 103.486 12.01 103.326 11.49C103.166 10.95 102.906 10.45 102.546 9.99L102.186 9.51L102.546 9.06L106.206 8.67V24.66C106.206 27.14 105.596 29.04 104.376 30.36C103.176 31.68 101.566 32.34 99.5464 32.34ZM111.257 31.98L110.897 31.53L111.257 31.05C111.617 30.53 111.867 29.99 112.007 29.43C112.147 28.87 112.217 28.12 112.217 27.18V12.57C112.217 12.27 112.177 12.05 112.097 11.91C112.017 11.75 111.847 11.64 111.587 11.58L110.027 11.25V10.26C110.247 10.06 110.597 9.87 111.077 9.69C111.577 9.51 112.107 9.36 112.667 9.24C113.247 9.12 113.757 9.06 114.197 9.06C114.677 9.06 114.917 9.52 114.917 10.44V10.59C116.217 9.33 117.657 8.7 119.237 8.7C120.497 8.7 121.607 9.01 122.567 9.63C123.527 10.25 124.277 11.11 124.817 12.21C125.357 13.29 125.627 14.54 125.627 15.96C125.627 17.58 125.337 19.03 124.757 20.31C124.197 21.57 123.417 22.57 122.417 23.31C121.437 24.05 120.307 24.42 119.027 24.42C117.847 24.42 116.847 24.15 116.027 23.61C115.847 23.49 115.757 23.31 115.757 23.07C115.757 22.89 115.787 22.72 115.847 22.56C115.927 22.4 116.047 22.32 116.207 22.32C116.367 22.32 116.587 22.4 116.867 22.56C117.167 22.72 117.657 22.8 118.337 22.8C119.137 22.8 119.847 22.53 120.467 21.99C121.087 21.45 121.567 20.71 121.907 19.77C122.267 18.83 122.447 17.76 122.447 16.56C122.447 15.4 122.267 14.38 121.907 13.5C121.567 12.62 121.077 11.93 120.437 11.43C119.817 10.93 119.097 10.68 118.277 10.68C117.057 10.68 115.937 11.07 114.917 11.85V28.65C114.917 29.39 114.997 29.92 115.157 30.24C115.337 30.56 115.677 30.78 116.177 30.9L116.807 31.05L116.477 31.98H111.257ZM128.649 24L128.319 23.55L128.649 23.07C128.949 22.67 129.189 22.28 129.369 21.9C129.569 21.52 129.709 21.09 129.789 20.61C129.869 20.11 129.909 19.48 129.909 18.72V14.82C129.909 13.7 129.809 12.79 129.609 12.09C129.429 11.39 129.109 10.76 128.649 10.2L128.319 9.66L128.649 9.24H135.999C136.799 9.24 137.459 9.2 137.979 9.12C138.499 9.04 138.899 8.9 139.179 8.7L139.629 8.31L140.079 8.7V13.62L139.179 13.92L138.969 13.29C138.809 12.61 138.619 12.1 138.399 11.76C138.179 11.4 137.879 11.16 137.499 11.04C137.139 10.9 136.629 10.83 135.969 10.83H134.349C133.629 10.83 133.149 10.96 132.909 11.22C132.689 11.48 132.579 12.04 132.579 12.9V20.34C132.579 21.2 132.699 21.79 132.939 22.11C133.179 22.41 133.649 22.66 134.349 22.86L134.979 23.07L134.649 24H128.649ZM149.406 24.42C148.006 24.42 146.756 24.08 145.656 23.4C144.576 22.72 143.726 21.79 143.106 20.61C142.486 19.43 142.176 18.09 142.176 16.59C142.176 14.99 142.476 13.6 143.076 12.42C143.676 11.24 144.516 10.33 145.596 9.69C146.696 9.03 147.976 8.7 149.436 8.7C150.976 8.7 152.236 9.08 153.216 9.84C154.216 10.58 154.716 11.54 154.716 12.72C154.716 13.58 154.436 14.29 153.876 14.85C153.336 15.39 152.636 15.66 151.776 15.66C151.396 15.66 151.206 15.55 151.206 15.33C151.206 15.23 151.266 15.1 151.386 14.94C151.506 14.78 151.626 14.54 151.746 14.22C151.866 13.88 151.926 13.43 151.926 12.87C151.926 12.07 151.666 11.44 151.146 10.98C150.646 10.5 149.966 10.26 149.106 10.26C147.966 10.26 147.046 10.82 146.346 11.94C145.646 13.06 145.296 14.53 145.296 16.35C145.296 18.21 145.706 19.69 146.526 20.79C147.366 21.87 148.496 22.41 149.916 22.41C151.356 22.41 152.676 21.91 153.876 20.91C153.936 20.85 154.026 20.82 154.146 20.82C154.306 20.82 154.466 20.91 154.626 21.09C154.806 21.27 154.896 21.46 154.896 21.66C154.896 21.78 154.866 21.87 154.806 21.93C154.106 22.73 153.286 23.35 152.346 23.79C151.426 24.21 150.446 24.42 149.406 24.42ZM170.88 24.42C170.02 24.42 169.32 24.18 168.78 23.7C168.24 23.2 167.71 22.53 167.19 21.69L165.12 18.24C164.92 17.88 164.67 17.62 164.37 17.46C164.07 17.3 163.75 17.15 163.41 17.01C163.35 16.97 163.31 16.92 163.29 16.86C163.29 16.8 163.29 16.73 163.29 16.65C163.29 16.55 163.32 16.43 163.38 16.29C163.44 16.13 163.58 16.05 163.8 16.05H164.34L167.04 12.78C167.26 12.5 167.41 12.22 167.49 11.94C167.59 11.64 167.64 11.35 167.64 11.07C167.64 10.71 167.57 10.36 167.43 10.02L167.19 9.54L167.67 9.09H172.56L172.89 10.02L172.32 10.2C171.9 10.3 171.51 10.46 171.15 10.68C170.81 10.9 170.46 11.24 170.1 11.7L166.35 16.44C166.71 16.62 167.09 16.86 167.49 17.16C167.91 17.44 168.25 17.81 168.51 18.27L170.85 22.05C171.01 22.29 171.16 22.49 171.3 22.65C171.44 22.79 171.62 22.86 171.84 22.86C172.24 22.86 172.61 22.73 172.95 22.47L173.43 23.31C173.05 23.69 172.64 23.97 172.2 24.15C171.76 24.33 171.32 24.42 170.88 24.42ZM157.71 24L157.44 23.07L158.01 22.86C158.71 22.66 159.18 22.41 159.42 22.11C159.66 21.79 159.78 21.2 159.78 20.34V12.75C159.78 11.89 159.66 11.3 159.42 10.98C159.18 10.66 158.71 10.4 158.01 10.2L157.44 9.99L157.71 9.09H163.71L164.07 9.51L163.71 9.99C163.27 10.61 162.95 11.26 162.75 11.94C162.57 12.62 162.48 13.52 162.48 14.64V20.55C162.48 21.11 162.53 21.54 162.63 21.84C162.73 22.12 162.9 22.34 163.14 22.5C163.4 22.64 163.74 22.78 164.16 22.92L164.73 23.1L164.46 24H157.71ZM180.593 24.42C179.653 24.42 178.773 24.15 177.953 23.61C177.133 23.07 176.473 22.26 175.973 21.18C175.473 20.1 175.223 18.75 175.223 17.13C175.223 15.39 175.533 13.89 176.153 12.63C176.793 11.37 177.693 10.4 178.853 9.72C180.033 9.04 181.413 8.7 182.993 8.7C183.933 8.7 184.913 8.81 185.933 9.03C186.953 9.23 187.973 9.37 188.993 9.45L189.323 9.84L188.963 10.38C188.843 10.56 188.743 10.74 188.663 10.92C188.603 11.08 188.573 11.29 188.573 11.55V21.36C188.573 21.98 188.873 22.29 189.473 22.29C189.973 22.29 190.473 22.11 190.973 21.75L191.543 22.53C191.023 23.11 190.463 23.57 189.863 23.91C189.283 24.25 188.733 24.42 188.213 24.42C187.393 24.42 186.803 24.17 186.443 23.67C186.083 23.17 185.903 22.36 185.903 21.24C185.043 22.46 184.173 23.3 183.293 23.76C182.433 24.2 181.533 24.42 180.593 24.42ZM181.793 22.11C182.553 22.11 183.283 21.89 183.983 21.45C184.703 21.01 185.343 20.32 185.903 19.38V11.28C184.983 10.66 184.003 10.35 182.963 10.35C181.503 10.35 180.373 10.9 179.573 12C178.773 13.08 178.373 14.6 178.373 16.56C178.373 17.92 178.533 19.01 178.853 19.83C179.173 20.63 179.593 21.21 180.113 21.57C180.653 21.93 181.213 22.11 181.793 22.11ZM194.949 24.42C194.509 24.42 194.079 24.33 193.659 24.15C193.239 23.97 192.829 23.69 192.429 23.31L192.879 22.47C193.079 22.61 193.259 22.71 193.419 22.77C193.599 22.83 193.789 22.86 193.989 22.86C194.229 22.86 194.419 22.79 194.559 22.65C194.719 22.51 194.879 22.31 195.039 22.05L196.719 19.14C196.939 18.74 197.179 18.4 197.439 18.12C197.699 17.84 197.999 17.61 198.339 17.43C197.119 17.15 196.169 16.64 195.489 15.9C194.809 15.16 194.469 14.26 194.469 13.2C194.469 11.82 195.029 10.73 196.149 9.93C197.269 9.13 199.079 8.73 201.579 8.73C202.499 8.73 203.419 8.79 204.339 8.91C205.279 9.03 206.139 9.18 206.919 9.36C207.719 9.54 208.369 9.73 208.869 9.93L208.539 10.98H206.919C206.719 10.98 206.569 11.02 206.469 11.1C206.369 11.18 206.319 11.35 206.319 11.61V20.28C206.319 21.14 206.439 21.74 206.679 22.08C206.919 22.4 207.379 22.66 208.059 22.86L208.719 23.07L208.419 24H202.329L201.999 23.58L202.329 23.07C202.789 22.49 203.109 21.86 203.289 21.18C203.489 20.48 203.589 19.57 203.589 18.45V11.55C203.589 11.37 203.539 11.19 203.439 11.01C203.359 10.81 203.159 10.64 202.839 10.5C202.519 10.36 202.019 10.29 201.339 10.29C199.979 10.29 198.969 10.58 198.309 11.16C197.669 11.72 197.349 12.46 197.349 13.38C197.349 14.3 197.629 15.02 198.189 15.54C198.749 16.06 199.539 16.32 200.559 16.32C200.999 16.32 201.319 16.29 201.519 16.23C201.719 16.15 201.859 16.11 201.939 16.11C202.199 16.11 202.329 16.28 202.329 16.62C202.329 16.84 202.189 17.04 201.909 17.22C201.649 17.4 201.289 17.51 200.829 17.55C200.469 17.79 200.179 18.12 199.959 18.54L197.859 22.32C197.439 23.12 197.039 23.67 196.659 23.97C196.279 24.27 195.709 24.42 194.949 24.42ZM229.472 24.42C227.232 24.42 225.372 23.92 223.892 22.92C222.432 21.92 221.342 20.58 220.622 18.9C219.902 17.2 219.542 15.32 219.542 13.26C219.542 11.72 219.742 10.27 220.142 8.91C220.542 7.55 221.152 6.36 221.972 5.34C222.812 4.3 223.852 3.49 225.092 2.91C226.332 2.33 227.792 2.04 229.472 2.04C231.152 2.04 232.612 2.33 233.852 2.91C235.092 3.49 236.122 4.3 236.942 5.34C237.782 6.36 238.402 7.55 238.802 8.91C239.222 10.27 239.432 11.72 239.432 13.26C239.432 15.32 239.062 17.2 238.322 18.9C237.602 20.58 236.502 21.92 235.022 22.92C233.562 23.92 231.712 24.42 229.472 24.42ZM229.352 22.65C230.792 22.65 232.022 22.24 233.042 21.42C234.062 20.58 234.832 19.46 235.352 18.06C235.892 16.64 236.162 15.07 236.162 13.35C236.162 12.61 236.092 11.81 235.952 10.95C235.832 10.07 235.622 9.21 235.322 8.37C235.022 7.51 234.622 6.74 234.122 6.06C233.622 5.36 233.002 4.8 232.262 4.38C231.522 3.96 230.642 3.75 229.622 3.75C228.162 3.75 226.922 4.2 225.902 5.1C224.882 5.98 224.102 7.16 223.562 8.64C223.042 10.1 222.782 11.72 222.782 13.5C222.782 15.2 223.022 16.74 223.502 18.12C224.002 19.5 224.742 20.6 225.722 21.42C226.702 22.24 227.912 22.65 229.352 22.65ZM248.654 24.42C247.094 24.42 245.734 24.03 244.574 23.25C243.414 22.47 242.514 21.36 241.874 19.92C241.234 18.46 240.914 16.75 240.914 14.79C240.914 13.07 241.074 11.45 241.394 9.93C241.734 8.41 242.234 7.07 242.894 5.91C243.574 4.73 244.424 3.81 245.444 3.15C246.464 2.47 247.674 2.13 249.074 2.13C249.514 2.13 249.924 2.15 250.304 2.19C250.684 2.21 251.054 2.22 251.414 2.22C252.154 2.22 252.714 2.12 253.094 1.92C253.354 1.74 253.544 1.53 253.664 1.29C253.804 1.05 253.914 0.839998 253.994 0.659998C254.094 0.479998 254.214 0.389998 254.354 0.389998C254.514 0.389998 254.684 0.589999 254.864 0.989999C255.064 1.37 255.164 1.76 255.164 2.16C255.164 3.12 254.884 3.81 254.324 4.23C253.784 4.65 253.084 4.86 252.224 4.86C251.524 4.86 250.834 4.79 250.154 4.65C249.474 4.51 248.794 4.4 248.114 4.32C247.454 4.24 246.784 4.29 246.104 4.47C245.564 4.61 245.134 5.03 244.814 5.73C244.494 6.43 244.254 7.32 244.094 8.4C243.954 9.48 243.874 10.68 243.854 12H244.094C245.254 10.1 246.904 9.15 249.044 9.15C250.184 9.15 251.274 9.43 252.314 9.99C253.374 10.53 254.234 11.35 254.894 12.45C255.554 13.53 255.884 14.89 255.884 16.53C255.884 18.01 255.594 19.35 255.014 20.55C254.454 21.75 253.634 22.7 252.554 23.4C251.474 24.08 250.174 24.42 248.654 24.42ZM248.234 22.8C249.174 22.8 249.974 22.52 250.634 21.96C251.314 21.38 251.824 20.63 252.164 19.71C252.524 18.77 252.704 17.75 252.704 16.65C252.704 15.99 252.624 15.32 252.464 14.64C252.304 13.94 252.044 13.29 251.684 12.69C251.344 12.09 250.884 11.61 250.304 11.25C249.744 10.89 249.064 10.71 248.264 10.71C246.964 10.71 245.934 11.23 245.174 12.27C244.414 13.29 244.034 14.73 244.034 16.59C244.034 17.73 244.184 18.77 244.484 19.71C244.804 20.65 245.274 21.4 245.894 21.96C246.534 22.52 247.314 22.8 248.234 22.8ZM259.815 24.42C259.015 24.42 258.365 24.17 257.865 23.67C257.385 23.17 257.145 22.51 257.145 21.69C257.145 21.11 257.275 20.66 257.535 20.34C257.815 20.02 258.175 19.86 258.615 19.86C258.835 19.86 258.995 19.95 259.095 20.13C259.195 20.29 259.255 20.51 259.275 20.79C259.315 21.05 259.415 21.31 259.575 21.57C259.735 21.83 259.995 21.96 260.355 21.96C260.995 21.96 261.525 21.53 261.945 20.67C262.385 19.79 262.735 18.63 262.995 17.19C263.255 15.75 263.445 14.18 263.565 12.48C263.605 11.9 263.575 11.46 263.475 11.16C263.395 10.86 263.205 10.65 262.905 10.53C262.625 10.39 262.195 10.28 261.615 10.2L261.015 9.99L261.315 9.09H273.255L273.675 9.54L273.255 10.02C272.815 10.62 272.495 11.26 272.295 11.94C272.115 12.62 272.025 13.52 272.025 14.64V20.55C272.025 21.35 272.145 21.9 272.385 22.2C272.645 22.48 273.095 22.72 273.735 22.92L274.305 23.07L274.005 24H267.255L266.925 23.07L267.525 22.86C268.225 22.66 268.705 22.4 268.965 22.08C269.225 21.76 269.355 21.16 269.355 20.28V12.78C269.355 11.92 269.235 11.36 268.995 11.1C268.755 10.82 268.265 10.68 267.525 10.68H267.015C266.515 10.68 266.115 10.74 265.815 10.86C265.515 10.98 265.345 11.28 265.305 11.76C265.085 14.52 264.775 16.74 264.375 18.42C263.975 20.08 263.525 21.35 263.025 22.23C262.525 23.09 261.995 23.67 261.435 23.97C260.895 24.27 260.355 24.42 259.815 24.42ZM281.697 24.42C280.757 24.42 279.877 24.15 279.057 23.61C278.237 23.07 277.577 22.26 277.077 21.18C276.577 20.1 276.327 18.75 276.327 17.13C276.327 15.39 276.637 13.89 277.257 12.63C277.897 11.37 278.797 10.4 279.957 9.72C281.137 9.04 282.517 8.7 284.097 8.7C285.037 8.7 286.017 8.81 287.037 9.03C288.057 9.23 289.077 9.37 290.097 9.45L290.427 9.84L290.067 10.38C289.947 10.56 289.847 10.74 289.767 10.92C289.707 11.08 289.677 11.29 289.677 11.55V21.36C289.677 21.98 289.977 22.29 290.577 22.29C291.077 22.29 291.577 22.11 292.077 21.75L292.647 22.53C292.127 23.11 291.567 23.57 290.967 23.91C290.387 24.25 289.837 24.42 289.317 24.42C288.497 24.42 287.907 24.17 287.547 23.67C287.187 23.17 287.007 22.36 287.007 21.24C286.147 22.46 285.277 23.3 284.397 23.76C283.537 24.2 282.637 24.42 281.697 24.42ZM282.897 22.11C283.657 22.11 284.387 21.89 285.087 21.45C285.807 21.01 286.447 20.32 287.007 19.38V11.28C286.087 10.66 285.107 10.35 284.067 10.35C282.607 10.35 281.477 10.9 280.677 12C279.877 13.08 279.477 14.6 279.477 16.56C279.477 17.92 279.637 19.01 279.957 19.83C280.277 20.63 280.697 21.21 281.217 21.57C281.757 21.93 282.317 22.11 282.897 22.11ZM301.662 24.42C300.262 24.42 299.012 24.08 297.912 23.4C296.832 22.72 295.982 21.79 295.362 20.61C294.742 19.43 294.432 18.09 294.432 16.59C294.432 14.99 294.732 13.6 295.332 12.42C295.932 11.24 296.772 10.33 297.852 9.69C298.952 9.03 300.232 8.7 301.692 8.7C303.232 8.7 304.492 9.08 305.472 9.84C306.472 10.58 306.972 11.54 306.972 12.72C306.972 13.58 306.692 14.29 306.132 14.85C305.592 15.39 304.892 15.66 304.032 15.66C303.652 15.66 303.462 15.55 303.462 15.33C303.462 15.23 303.522 15.1 303.642 14.94C303.762 14.78 303.882 14.54 304.002 14.22C304.122 13.88 304.182 13.43 304.182 12.87C304.182 12.07 303.922 11.44 303.402 10.98C302.902 10.5 302.222 10.26 301.362 10.26C300.222 10.26 299.302 10.82 298.602 11.94C297.902 13.06 297.552 14.53 297.552 16.35C297.552 18.21 297.962 19.69 298.782 20.79C299.622 21.87 300.752 22.41 302.172 22.41C303.612 22.41 304.932 21.91 306.132 20.91C306.192 20.85 306.282 20.82 306.402 20.82C306.562 20.82 306.722 20.91 306.882 21.09C307.062 21.27 307.152 21.46 307.152 21.66C307.152 21.78 307.122 21.87 307.062 21.93C306.362 22.73 305.542 23.35 304.602 23.79C303.682 24.21 302.702 24.42 301.662 24.42ZM312.576 24L312.216 23.55L312.576 23.07C313.036 22.47 313.356 21.83 313.536 21.15C313.716 20.47 313.806 19.57 313.806 18.45V12.9C313.806 12.04 313.736 11.48 313.596 11.22C313.476 10.96 313.226 10.83 312.846 10.83H312.546C311.886 10.83 311.366 10.9 310.986 11.04C310.626 11.16 310.336 11.4 310.116 11.76C309.896 12.1 309.696 12.61 309.516 13.29L309.336 13.92L308.406 13.62V8.7L308.886 8.31L309.336 8.7C309.616 8.9 310.016 9.04 310.536 9.12C311.056 9.2 311.716 9.24 312.516 9.24H317.826C318.646 9.24 319.306 9.2 319.806 9.12C320.326 9.04 320.716 8.9 320.976 8.7L321.426 8.31L321.906 8.7V13.62L320.976 13.92L320.826 13.29C320.646 12.61 320.446 12.1 320.226 11.76C320.006 11.4 319.716 11.16 319.356 11.04C318.996 10.9 318.486 10.83 317.826 10.83H317.466C317.086 10.83 316.826 10.96 316.686 11.22C316.566 11.48 316.506 12.04 316.506 12.9V20.34C316.506 21.2 316.626 21.79 316.866 22.11C317.106 22.41 317.566 22.66 318.246 22.86L318.936 23.07L318.576 24H312.576ZM323.649 24L323.319 23.07L323.949 22.86C324.609 22.66 325.059 22.4 325.299 22.08C325.559 21.76 325.689 21.18 325.689 20.34V12.75C325.689 11.93 325.559 11.35 325.299 11.01C325.059 10.67 324.609 10.4 323.949 10.2L323.319 9.99L323.649 9.09H329.649L330.009 9.51L329.649 9.99C329.209 10.61 328.889 11.26 328.689 11.94C328.489 12.62 328.389 13.52 328.389 14.64V18.45C328.389 19.43 328.499 20.2 328.719 20.76C328.939 21.32 329.219 21.73 329.559 21.99C329.919 22.23 330.299 22.38 330.699 22.44C331.099 22.5 331.479 22.53 331.839 22.53C332.859 22.53 333.669 22.25 334.269 21.69C334.869 21.11 335.169 20.37 335.169 19.47C335.169 18.65 334.829 17.96 334.149 17.4C333.489 16.82 332.599 16.53 331.479 16.53C330.819 16.53 330.359 16.58 330.099 16.68C329.859 16.78 329.649 16.83 329.469 16.83C329.349 16.83 329.259 16.77 329.199 16.65C329.139 16.51 329.109 16.37 329.109 16.23C329.109 15.97 329.259 15.77 329.559 15.63C329.859 15.47 330.229 15.36 330.669 15.3C331.109 15.22 331.549 15.18 331.989 15.18C333.409 15.18 334.579 15.39 335.499 15.81C336.439 16.21 337.139 16.74 337.599 17.4C338.059 18.06 338.289 18.78 338.289 19.56C338.289 20.42 338.059 21.19 337.599 21.87C337.159 22.53 336.429 23.05 335.409 23.43C334.409 23.81 333.059 24 331.359 24H323.649Z" fill="black"/>
</svg>
