<svg width="167" height="20" viewBox="0 0 167 20" fill="none" xmlns="http://www.w3.org/2000/svg">
<path d="M0.775 19L0.45 18.6L0.775 18.15C1.19167 17.6 1.48333 17.025 1.65 16.425C1.83333 15.8083 1.925 14.9917 1.925 13.975V6.075C1.925 5.075 1.83333 4.26667 1.65 3.65C1.48333 3.03333 1.19167 2.45 0.775 1.9L0.45 1.45L0.775 1.05H15.425L15.75 1.45L15.425 1.9C15.0083 2.45 14.7083 3.03333 14.525 3.65C14.3583 4.26667 14.275 5.075 14.275 6.075V15.85C14.275 16.5833 14.375 17.0917 14.575 17.375C14.7917 17.6417 15.2 17.8667 15.8 18.05L16.35 18.2L16.075 19H9.975L9.65 18.15L10.2 18C10.6333 17.8667 10.9667 17.725 11.2 17.575C11.4333 17.425 11.5917 17.2083 11.675 16.925C11.775 16.625 11.825 16.2083 11.825 15.675V4.375C11.825 3.59167 11.7167 3.075 11.5 2.825C11.3 2.575 10.8667 2.45 10.2 2.45H5.975C5.325 2.45 4.89167 2.575 4.675 2.825C4.475 3.075 4.375 3.59167 4.375 4.375V15.675C4.375 16.2083 4.41667 16.625 4.5 16.925C4.6 17.2083 4.76667 17.425 5 17.575C5.23333 17.725 5.55833 17.8667 5.975 18L6.575 18.15L6.275 19H0.775ZM29.9719 19.625L29.7719 19.35C29.5885 19.1167 29.2385 19 28.7219 19H18.1969L17.9219 18.2L18.4469 18.05C19.0469 17.8667 19.4469 17.6417 19.6469 17.375C19.8635 17.0917 19.9719 16.5833 19.9719 15.85V6.075C19.9719 5.05833 19.8802 4.25 19.6969 3.65C19.5302 3.05 19.2469 2.46667 18.8469 1.9L18.5219 1.45L18.8469 1.05H26.4969C27.9302 1.05 28.8802 0.874999 29.3469 0.524999L29.7969 0.199999L30.1969 0.524999V4.975L29.3469 5.275L29.1969 4.7C29.0469 4.1 28.8719 3.64167 28.6719 3.325C28.4719 3.00833 28.2052 2.79167 27.8719 2.675C27.5385 2.54167 27.0719 2.475 26.4719 2.475H24.0469C23.3969 2.475 22.9635 2.6 22.7469 2.85C22.5469 3.08333 22.4469 3.59167 22.4469 4.375V9.175H25.6219C26.0052 9.175 26.3469 9.09167 26.6469 8.925C26.9635 8.75833 27.2802 8.45833 27.5969 8.025L27.7969 7.75L28.2969 8.025V12.3L27.4469 12.6L27.2969 12.025C27.1469 11.4417 26.8719 11.0583 26.4719 10.875C26.0885 10.6917 25.4552 10.6 24.5719 10.6H22.4469V15.675C22.4469 16.4417 22.5469 16.95 22.7469 17.2C22.9635 17.45 23.3969 17.575 24.0469 17.575H26.7469C27.3469 17.575 27.8135 17.5167 28.1469 17.4C28.4802 17.2667 28.7469 17.0417 28.9469 16.725C29.1469 16.3917 29.3219 15.9333 29.4719 15.35L29.6219 14.775L30.4719 15.075V19.35L29.9719 19.625ZM40.8307 19L40.5057 18.15L41.1307 18C41.5473 17.8667 41.864 17.725 42.0807 17.575C42.314 17.425 42.4723 17.2083 42.5557 16.925C42.6557 16.625 42.7057 16.2083 42.7057 15.675V10.675C42.039 11.175 41.3307 11.6 40.5807 11.95C39.8473 12.3 38.9223 12.475 37.8057 12.475C36.4223 12.475 35.3473 12.15 34.5807 11.5C33.814 10.8333 33.4307 9.84167 33.4307 8.525V5.425C33.4307 4.74167 33.4057 4.19167 33.3557 3.775C33.3223 3.34167 33.2473 2.98333 33.1307 2.7C33.014 2.41667 32.8557 2.14167 32.6557 1.875L32.3057 1.45L32.6557 1.025L35.9057 0.674999V7.875C35.9057 8.84167 36.1473 9.55 36.6307 10C37.1307 10.4333 37.864 10.65 38.8307 10.65C39.8307 10.65 40.614 10.475 41.1807 10.125C41.764 9.75833 42.2723 9.36667 42.7057 8.95V4.375C42.7057 3.59167 42.5973 3.05 42.3807 2.75C42.1807 2.45 41.764 2.21667 41.1307 2.05L40.5057 1.9L40.8307 1.05H46.3057L46.6307 1.45L46.3057 1.9C45.889 2.45 45.5973 3.03333 45.4307 3.65C45.2807 4.26667 45.2057 5.075 45.2057 6.075V15.85C45.2057 16.5833 45.3057 17.0917 45.5057 17.375C45.7057 17.6417 46.1057 17.8667 46.7057 18.05L47.2557 18.2L46.9557 19H40.8307ZM47.6539 19L47.3539 18.15L47.9289 18C48.3789 17.8833 48.7372 17.7417 49.0039 17.575C49.2706 17.4083 49.4956 17.1833 49.6789 16.9C49.8789 16.6 50.0622 16.1917 50.2289 15.675L54.1539 4.375C54.2372 4.10833 54.3039 3.88333 54.3539 3.7C54.4039 3.5 54.4289 3.31667 54.4289 3.15C54.4289 2.83333 54.3372 2.6 54.1539 2.45C53.9706 2.28333 53.6872 2.15 53.3039 2.05L52.7289 1.9L53.0289 1.05H57.8539L62.8789 15.55C63.0789 16.1 63.2789 16.55 63.4789 16.9C63.6956 17.25 63.9372 17.55 64.2039 17.8C64.4706 18.05 64.7789 18.3167 65.1289 18.6L64.8039 19H59.1789L58.8789 18.15L59.4539 18C59.8372 17.9 60.1206 17.775 60.3039 17.625C60.4872 17.4583 60.5789 17.2167 60.5789 16.9C60.5789 16.7333 60.5539 16.5583 60.5039 16.375C60.4539 16.175 60.3872 15.9417 60.3039 15.675L59.1039 12.175H53.3289L52.7289 14C52.5456 14.5667 52.4039 15.0583 52.3039 15.475C52.2039 15.8917 52.1539 16.275 52.1539 16.625C52.1539 17.1917 52.2706 17.7 52.5039 18.15L52.7289 18.6L52.2539 19H47.6539ZM53.8539 10.625H58.5789L56.1789 3.625L53.8539 10.625ZM70.4803 19L70.1553 18.6L70.4803 18.15C70.8969 17.6 71.1886 17.025 71.3553 16.425C71.5219 15.8083 71.6053 14.9917 71.6053 13.975V4.375C71.6053 3.59167 71.5469 3.08333 71.4303 2.85C71.3303 2.6 71.1053 2.475 70.7553 2.475H69.6303C69.0469 2.475 68.5803 2.54167 68.2303 2.675C67.8969 2.79167 67.6303 3.00833 67.4303 3.325C67.2469 3.64167 67.0719 4.1 66.9053 4.7L66.7553 5.275L65.9053 4.975V0.524999L66.3053 0.199999L66.7553 0.524999C67.2219 0.874999 68.1719 1.05 69.6053 1.05H76.0803C77.5136 1.05 78.4636 0.874999 78.9303 0.524999L79.3803 0.199999L79.7803 0.524999V4.975L78.9303 5.275L78.7803 4.7C78.6303 4.1 78.4553 3.64167 78.2553 3.325C78.0553 3.00833 77.7886 2.79167 77.4553 2.675C77.1219 2.54167 76.6553 2.475 76.0553 2.475H74.9303C74.5803 2.475 74.3469 2.6 74.2303 2.85C74.1303 3.08333 74.0803 3.59167 74.0803 4.375V15.675C74.0803 16.4417 74.1886 16.975 74.4053 17.275C74.6386 17.575 75.0636 17.8167 75.6803 18L76.2553 18.15L75.9553 19H70.4803ZM81.5734 19L81.2734 18.15L81.8734 18C82.4901 17.8333 82.9068 17.6 83.1234 17.3C83.3401 16.9833 83.4484 16.4417 83.4484 15.675V4.375C83.4484 3.625 83.3401 3.09167 83.1234 2.775C82.9068 2.45833 82.4901 2.21667 81.8734 2.05L81.2734 1.9L81.5734 1.05H87.0734L87.3984 1.45L87.0734 1.9C86.6568 2.46667 86.3568 3.05833 86.1734 3.675C86.0068 4.275 85.9234 5.075 85.9234 6.075V14.425C85.9234 15.2083 86.0151 15.825 86.1984 16.275C86.3984 16.725 86.6484 17.05 86.9484 17.25C87.2484 17.45 87.5568 17.575 87.8734 17.625C88.1901 17.675 88.4651 17.7 88.6984 17.7C89.8984 17.7 90.8234 17.3167 91.4734 16.55C92.1234 15.7833 92.4484 14.8083 92.4484 13.625C92.4484 12.9083 92.2818 12.2583 91.9484 11.675C91.6151 11.0917 91.1484 10.625 90.5484 10.275C89.9651 9.925 89.2734 9.75 88.4734 9.75C87.9568 9.75 87.5901 9.79167 87.3734 9.875C87.1568 9.94167 86.9734 9.975 86.8234 9.975C86.7068 9.975 86.6151 9.91667 86.5484 9.8C86.4984 9.68333 86.4734 9.55 86.4734 9.4C86.4734 9.08333 86.7234 8.85833 87.2234 8.725C87.7234 8.59167 88.2818 8.525 88.8984 8.525C90.1651 8.525 91.2568 8.76667 92.1734 9.25C93.0901 9.73333 93.7984 10.375 94.2984 11.175C94.7984 11.9583 95.0484 12.8167 95.0484 13.75C95.0484 14.7667 94.8401 15.675 94.4234 16.475C94.0068 17.2583 93.3234 17.875 92.3734 18.325C91.4234 18.775 90.1484 19 88.5484 19H81.5734ZM103.915 19L103.615 18.15L104.19 18C104.824 17.8167 105.249 17.575 105.465 17.275C105.682 16.975 105.79 16.4417 105.79 15.675V3.325C105.79 2.925 105.607 2.725 105.24 2.725H103.79L103.49 1.8C103.924 1.63333 104.474 1.46667 105.14 1.3C105.824 1.13333 106.557 0.991666 107.34 0.874999C108.14 0.758332 108.924 0.699999 109.69 0.699999C111.307 0.699999 112.607 0.924999 113.59 1.375C114.59 1.80833 115.315 2.4 115.765 3.15C116.232 3.9 116.465 4.725 116.465 5.625C116.465 6.50833 116.249 7.33333 115.815 8.1C115.399 8.86667 114.74 9.46667 113.84 9.9C114.974 10.2667 115.849 10.8333 116.465 11.6C117.082 12.35 117.39 13.175 117.39 14.075C117.39 15.025 117.174 15.875 116.74 16.625C116.324 17.3583 115.64 17.9417 114.69 18.375C113.74 18.7917 112.474 19 110.89 19H103.915ZM111.04 17.7C112.24 17.7 113.165 17.35 113.815 16.65C114.465 15.9333 114.79 15.0333 114.79 13.95C114.79 13.3167 114.632 12.7417 114.315 12.225C113.999 11.6917 113.54 11.2667 112.94 10.95C112.357 10.6333 111.649 10.475 110.815 10.475C110.515 10.475 110.215 10.4417 109.915 10.375C109.615 10.3083 109.374 10.2333 109.19 10.15C109.057 10.0833 108.957 10 108.89 9.9C108.84 9.8 108.815 9.7 108.815 9.6C108.815 9.3 108.932 9.15 109.165 9.15C109.265 9.15 109.399 9.18333 109.565 9.25C109.749 9.3 110.032 9.325 110.415 9.325C111.565 9.325 112.449 8.98333 113.065 8.3C113.682 7.61667 113.99 6.74167 113.99 5.675C113.99 4.65833 113.649 3.80833 112.965 3.125C112.282 2.44167 111.274 2.1 109.94 2.1C109.44 2.1 109.074 2.16667 108.84 2.3C108.607 2.41667 108.449 2.56667 108.365 2.75C108.299 2.93333 108.265 3.1 108.265 3.25V14.425C108.265 15.2083 108.357 15.825 108.54 16.275C108.74 16.7083 108.99 17.0333 109.29 17.25C109.59 17.45 109.89 17.575 110.19 17.625C110.507 17.675 110.79 17.7 111.04 17.7ZM127.649 19.35C126.299 19.35 125.124 19.1083 124.124 18.625C123.124 18.1417 122.291 17.475 121.624 16.625C120.958 15.775 120.458 14.7917 120.124 13.675C119.808 12.5417 119.649 11.3333 119.649 10.05C119.649 8.76667 119.808 7.55833 120.124 6.425C120.458 5.29167 120.958 4.3 121.624 3.45C122.291 2.58333 123.133 1.90833 124.149 1.425C125.166 0.941666 126.358 0.699999 127.724 0.699999C128.824 0.699999 129.799 0.858332 130.649 1.175C131.499 1.475 132.158 1.9 132.624 2.45C133.108 3 133.349 3.64167 133.349 4.375C133.349 5.24167 133.091 5.95 132.574 6.5C132.074 7.03333 131.441 7.3 130.674 7.3C130.324 7.3 130.149 7.2 130.149 7C130.149 6.91667 130.208 6.79167 130.324 6.625C130.458 6.44167 130.583 6.2 130.699 5.9C130.833 5.58333 130.899 5.19167 130.899 4.725C130.899 3.94167 130.608 3.30833 130.024 2.825C129.441 2.34167 128.674 2.1 127.724 2.1C126.741 2.1 125.916 2.33333 125.249 2.8C124.583 3.26667 124.041 3.89167 123.624 4.675C123.224 5.44167 122.933 6.3 122.749 7.25C122.566 8.18333 122.474 9.11667 122.474 10.05C122.474 11.4333 122.691 12.7 123.124 13.85C123.558 15 124.174 15.9167 124.974 16.6C125.791 17.2833 126.758 17.625 127.874 17.625C128.974 17.625 129.916 17.425 130.699 17.025C131.483 16.6083 132.108 16.0583 132.574 15.375C132.624 15.3083 132.683 15.275 132.749 15.275C132.899 15.275 133.066 15.35 133.249 15.5C133.449 15.65 133.549 15.8083 133.549 15.975C133.549 16.025 133.524 16.0917 133.474 16.175C132.824 17.1417 132.024 17.9167 131.074 18.5C130.124 19.0667 128.983 19.35 127.649 19.35ZM147.379 19.625L147.179 19.35C146.996 19.1167 146.646 19 146.129 19H135.604L135.329 18.2L135.854 18.05C136.454 17.8667 136.854 17.6417 137.054 17.375C137.271 17.0917 137.379 16.5833 137.379 15.85V6.075C137.379 5.05833 137.287 4.25 137.104 3.65C136.937 3.05 136.654 2.46667 136.254 1.9L135.929 1.45L136.254 1.05H143.904C145.337 1.05 146.287 0.874999 146.754 0.524999L147.204 0.199999L147.604 0.524999V4.975L146.754 5.275L146.604 4.7C146.454 4.1 146.279 3.64167 146.079 3.325C145.879 3.00833 145.612 2.79167 145.279 2.675C144.946 2.54167 144.479 2.475 143.879 2.475H141.454C140.804 2.475 140.371 2.6 140.154 2.85C139.954 3.08333 139.854 3.59167 139.854 4.375V9.175H143.029C143.412 9.175 143.754 9.09167 144.054 8.925C144.371 8.75833 144.687 8.45833 145.004 8.025L145.204 7.75L145.704 8.025V12.3L144.854 12.6L144.704 12.025C144.554 11.4417 144.279 11.0583 143.879 10.875C143.496 10.6917 142.862 10.6 141.979 10.6H139.854V15.675C139.854 16.4417 139.954 16.95 140.154 17.2C140.371 17.45 140.804 17.575 141.454 17.575H144.154C144.754 17.575 145.221 17.5167 145.554 17.4C145.887 17.2667 146.154 17.0417 146.354 16.725C146.554 16.3917 146.729 15.9333 146.879 15.35L147.029 14.775L147.879 15.075V19.35L147.379 19.625ZM150.013 19L149.713 18.15L150.288 18C150.655 17.9 150.996 17.7583 151.313 17.575C151.63 17.3917 151.938 17.0833 152.238 16.65L156.713 10.175L152.438 4.1C152.121 3.66667 151.771 3.20833 151.388 2.725C151.005 2.24167 150.596 1.81667 150.163 1.45L150.488 1.05H156.413L156.713 1.9L156.138 2.05C155.771 2.15 155.513 2.3 155.363 2.5C155.23 2.68333 155.163 2.89167 155.163 3.125C155.163 3.39167 155.221 3.65833 155.338 3.925C155.471 4.19167 155.596 4.41667 155.713 4.6L158.288 8.275L160.863 4.425C161.096 4.075 161.238 3.80833 161.288 3.625C161.355 3.425 161.388 3.225 161.388 3.025C161.388 2.825 161.346 2.625 161.263 2.425C161.196 2.20833 161.13 2.03333 161.063 1.9L160.838 1.45L161.313 1.05H165.913L166.213 1.9L165.638 2.05C165.271 2.15 164.93 2.29167 164.613 2.475C164.296 2.65833 163.988 2.96667 163.688 3.4L159.313 9.725L163.813 16.1C164.146 16.5667 164.471 17 164.788 17.4C165.105 17.8 165.505 18.2 165.988 18.6L165.663 19H159.738L159.438 18.15L160.013 18C160.38 17.9 160.63 17.7583 160.763 17.575C160.913 17.375 160.988 17.1583 160.988 16.925C160.988 16.6583 160.93 16.3917 160.813 16.125C160.696 15.8583 160.571 15.6333 160.438 15.45L157.713 11.625L155.063 15.625C154.846 15.975 154.705 16.25 154.638 16.45C154.571 16.6333 154.538 16.825 154.538 17.025C154.538 17.225 154.571 17.4333 154.638 17.65C154.721 17.85 154.796 18.0167 154.863 18.15L155.088 18.6L154.613 19H150.013Z" fill="#968E85"/>
</svg>
