<svg width="273" height="18" viewBox="0 0 273 18" fill="none" xmlns="http://www.w3.org/2000/svg">
<path d="M0.682 17L0.396 16.648L0.682 16.252C1.04867 15.768 1.30533 15.262 1.452 14.734C1.61333 14.1913 1.694 13.4727 1.694 12.578V5.626C1.694 4.746 1.61333 4.03467 1.452 3.492C1.30533 2.94933 1.04867 2.436 0.682 1.952L0.396 1.556L0.682 1.204H13.574L13.86 1.556L13.574 1.952C13.2073 2.436 12.9433 2.94933 12.782 3.492C12.6353 4.03467 12.562 4.746 12.562 5.626V14.228C12.562 14.8733 12.65 15.3207 12.826 15.57C13.0167 15.8047 13.376 16.0027 13.904 16.164L14.388 16.296L14.146 17H8.778L8.492 16.252L8.976 16.12C9.35733 16.0027 9.65067 15.878 9.856 15.746C10.0613 15.614 10.2007 15.4233 10.274 15.174C10.362 14.91 10.406 14.5433 10.406 14.074V4.13C10.406 3.44067 10.3107 2.986 10.12 2.766C9.944 2.546 9.56267 2.436 8.976 2.436H5.258C4.686 2.436 4.30467 2.546 4.114 2.766C3.938 2.986 3.85 3.44067 3.85 4.13V14.074C3.85 14.5433 3.88667 14.91 3.96 15.174C4.048 15.4233 4.19467 15.614 4.4 15.746C4.60533 15.878 4.89133 16.0027 5.258 16.12L5.786 16.252L5.522 17H0.682ZM22.8333 17.308C21.1906 17.308 19.8266 16.9413 18.7413 16.208C17.6706 15.4747 16.8713 14.492 16.3433 13.26C15.8153 12.0133 15.5513 10.6347 15.5513 9.124C15.5513 7.99467 15.6979 6.93133 15.9913 5.934C16.2846 4.93667 16.7319 4.064 17.3333 3.316C17.9493 2.55333 18.7119 1.95933 19.6213 1.534C20.5306 1.10867 21.6013 0.895999 22.8333 0.895999C24.0653 0.895999 25.1359 1.10867 26.0453 1.534C26.9546 1.95933 27.7099 2.55333 28.3113 3.316C28.9273 4.064 29.3819 4.93667 29.6753 5.934C29.9833 6.93133 30.1373 7.99467 30.1373 9.124C30.1373 10.6347 29.8659 12.0133 29.3233 13.26C28.7953 14.492 27.9886 15.4747 26.9032 16.208C25.8326 16.9413 24.4759 17.308 22.8333 17.308ZM22.7453 16.01C23.8013 16.01 24.7033 15.7093 25.4513 15.108C26.1993 14.492 26.7639 13.6707 27.1453 12.644C27.5413 11.6027 27.7393 10.4513 27.7393 9.19C27.7393 8.64733 27.6879 8.06067 27.5853 7.43C27.4973 6.78467 27.3433 6.154 27.1233 5.538C26.9033 4.90733 26.6099 4.34267 26.2433 3.844C25.8766 3.33067 25.4219 2.92 24.8793 2.612C24.3366 2.304 23.6913 2.15 22.9433 2.15C21.8726 2.15 20.9633 2.48 20.2153 3.14C19.4673 3.78533 18.8953 4.65067 18.4993 5.736C18.1179 6.80667 17.9273 7.99467 17.9273 9.3C17.9273 10.5467 18.1033 11.676 18.4553 12.688C18.8219 13.7 19.3646 14.5067 20.0833 15.108C20.8019 15.7093 21.6893 16.01 22.7453 16.01ZM43.104 17.308C42.4147 17.308 41.8353 17.1247 41.366 16.758C40.9113 16.3767 40.5153 15.8413 40.178 15.152L38.176 11.148C37.9413 10.664 37.6407 10.29 37.274 10.026C36.9073 9.762 36.4747 9.54933 35.976 9.388C35.9027 9.35867 35.866 9.278 35.866 9.146C35.866 9.02867 35.8953 8.91133 35.954 8.794C36.0127 8.67667 36.1373 8.618 36.328 8.618H36.834L40.42 4.042C40.6693 3.734 40.8013 3.37467 40.816 2.964C40.8453 2.55333 40.75 2.20133 40.53 1.908L40.288 1.556L40.684 1.204H44.468L44.732 1.952L44.204 2.084C43.8813 2.14267 43.588 2.26733 43.324 2.458C43.06 2.634 42.7813 2.90533 42.488 3.272L38.044 8.948C38.7627 9.08 39.3567 9.33667 39.826 9.718C40.2953 10.0993 40.7133 10.642 41.08 11.346L43.148 15.438C43.2653 15.6433 43.39 15.8047 43.522 15.922C43.654 16.0393 43.8153 16.098 44.006 16.098C44.1527 16.098 44.292 16.076 44.424 16.032C44.5707 15.988 44.7173 15.9073 44.864 15.79L45.216 16.428C44.908 16.7507 44.578 16.978 44.226 17.11C43.874 17.242 43.5 17.308 43.104 17.308ZM31.51 17L31.246 16.252L31.774 16.12C32.1407 16.0027 32.4267 15.878 32.632 15.746C32.8373 15.614 32.9767 15.4233 33.05 15.174C33.138 14.91 33.182 14.5433 33.182 14.074V4.13C33.182 3.44067 33.0867 2.964 32.896 2.7C32.7053 2.436 32.3313 2.23067 31.774 2.084L31.246 1.952L31.51 1.204H36.35L36.636 1.556L36.35 1.952C35.9833 2.436 35.7267 2.94933 35.58 3.492C35.4333 4.03467 35.36 4.746 35.36 5.626V14.228C35.36 14.8733 35.448 15.3207 35.624 15.57C35.8147 15.8047 36.1667 16.0027 36.68 16.164L37.142 16.296L36.922 17H31.51ZM45.3515 17L45.0875 16.252L45.5935 16.12C45.9895 16.0173 46.3048 15.8927 46.5395 15.746C46.7741 15.5993 46.9721 15.4013 47.1335 15.152C47.3095 14.888 47.4708 14.5287 47.6175 14.074L51.0715 4.13C51.1448 3.89533 51.2035 3.69733 51.2475 3.536C51.2915 3.36 51.3135 3.19867 51.3135 3.052C51.3135 2.77333 51.2328 2.568 51.0715 2.436C50.9101 2.28933 50.6608 2.172 50.3235 2.084L49.8175 1.952L50.0815 1.204H54.3275L58.7495 13.964C58.9255 14.448 59.1015 14.844 59.2775 15.152C59.4681 15.46 59.6808 15.724 59.9155 15.944C60.1501 16.164 60.4215 16.3987 60.7295 16.648L60.4435 17H55.4935L55.2295 16.252L55.7355 16.12C56.0728 16.032 56.3221 15.922 56.4835 15.79C56.6448 15.6433 56.7255 15.4307 56.7255 15.152C56.7255 15.0053 56.7035 14.8513 56.6595 14.69C56.6155 14.514 56.5568 14.3087 56.4835 14.074L55.4275 10.994H50.3455L49.8175 12.6C49.6561 13.0987 49.5315 13.5313 49.4435 13.898C49.3555 14.2647 49.3115 14.602 49.3115 14.91C49.3115 15.4087 49.4141 15.856 49.6195 16.252L49.8175 16.648L49.3995 17H45.3515ZM50.8075 9.63H54.9655L52.8535 3.47L50.8075 9.63ZM66.6047 17.308C65.7247 17.308 64.896 17.176 64.1187 16.912C63.3413 16.648 62.7033 16.252 62.2047 15.724C61.7207 15.196 61.4787 14.536 61.4787 13.744C61.4787 13.0547 61.6913 12.4973 62.1167 12.072C62.542 11.6467 63.07 11.434 63.7007 11.434C63.862 11.434 63.9793 11.4487 64.0527 11.478C64.126 11.4927 64.1627 11.566 64.1627 11.698C64.1627 11.8007 64.0747 11.9913 63.8987 12.27C63.7373 12.5487 63.6567 12.9813 63.6567 13.568C63.6567 14.3453 63.8913 14.954 64.3607 15.394C64.83 15.834 65.556 16.054 66.5387 16.054C67.6093 16.054 68.4453 15.768 69.0467 15.196C69.648 14.624 69.9487 13.8247 69.9487 12.798C69.9487 12.1527 69.8313 11.5587 69.5967 11.016C69.362 10.4587 68.988 10.0113 68.4747 9.674C67.976 9.33667 67.316 9.168 66.4947 9.168C66.128 9.168 65.8493 9.19 65.6587 9.234C65.468 9.278 65.3067 9.3 65.1747 9.3C64.9987 9.3 64.9107 9.15333 64.9107 8.86C64.9107 8.64 65.0133 8.486 65.2187 8.398C65.424 8.29533 65.754 8.2 66.2087 8.112C67.03 7.95067 67.6533 7.72333 68.0787 7.43C68.504 7.122 68.79 6.75533 68.9367 6.33C69.098 5.89 69.1787 5.406 69.1787 4.878C69.1787 4.01267 68.944 3.338 68.4747 2.854C68.0053 2.37 67.382 2.128 66.6047 2.128C65.9887 2.128 65.446 2.20867 64.9767 2.37C64.522 2.53133 64.1333 2.82467 63.8107 3.25C63.5027 3.66067 63.2533 4.26933 63.0627 5.076L62.9527 5.56L62.2267 5.318V0.94L62.5787 0.675999L62.9527 0.94C63.0847 1.04267 63.2167 1.116 63.3487 1.16C63.4953 1.18933 63.642 1.204 63.7887 1.204C64.1553 1.204 64.566 1.15267 65.0207 1.05C65.49 0.947332 66.1133 0.895999 66.8907 0.895999C67.712 0.895999 68.4747 1.03533 69.1787 1.314C69.8973 1.59267 70.4767 2.018 70.9167 2.59C71.3567 3.162 71.5767 3.888 71.5767 4.768C71.5767 5.66267 71.3053 6.418 70.7627 7.034C70.22 7.65 69.4427 8.134 68.4307 8.486C69.8827 8.794 70.8947 9.322 71.4667 10.07C72.0533 10.818 72.3467 11.7787 72.3467 12.952C72.3467 13.8027 72.1047 14.558 71.6207 15.218C71.1513 15.878 70.484 16.3913 69.6187 16.758C68.768 17.1247 67.7633 17.308 66.6047 17.308ZM72.787 17L72.523 16.252L73.029 16.12C73.425 16.0173 73.7403 15.8927 73.975 15.746C74.2097 15.5993 74.4077 15.4013 74.569 15.152C74.745 14.888 74.9063 14.5287 75.053 14.074L78.507 4.13C78.5803 3.89533 78.639 3.69733 78.683 3.536C78.727 3.36 78.749 3.19867 78.749 3.052C78.749 2.77333 78.6683 2.568 78.507 2.436C78.3457 2.28933 78.0963 2.172 77.759 2.084L77.253 1.952L77.517 1.204H81.763L86.185 13.964C86.361 14.448 86.537 14.844 86.713 15.152C86.9037 15.46 87.1163 15.724 87.351 15.944C87.5857 16.164 87.857 16.3987 88.165 16.648L87.879 17H82.929L82.665 16.252L83.171 16.12C83.5083 16.032 83.7577 15.922 83.919 15.79C84.0803 15.6433 84.161 15.4307 84.161 15.152C84.161 15.0053 84.139 14.8513 84.095 14.69C84.051 14.514 83.9923 14.3087 83.919 14.074L82.863 10.994H77.781L77.253 12.6C77.0917 13.0987 76.967 13.5313 76.879 13.898C76.791 14.2647 76.747 14.602 76.747 14.91C76.747 15.4087 76.8497 15.856 77.055 16.252L77.253 16.648L76.835 17H72.787ZM78.243 9.63H82.401L80.289 3.47L78.243 9.63ZM92.8742 17L92.5882 16.648L92.8742 16.252C93.2409 15.768 93.4975 15.262 93.6442 14.734C93.7909 14.1913 93.8642 13.4727 93.8642 12.578V4.13C93.8642 3.44067 93.8129 2.99333 93.7102 2.788C93.6222 2.568 93.4242 2.458 93.1162 2.458H92.1262C91.6129 2.458 91.2022 2.51667 90.8942 2.634C90.6009 2.73667 90.3662 2.92733 90.1902 3.206C90.0289 3.48467 89.8749 3.888 89.7282 4.416L89.5962 4.922L88.8482 4.658V0.742L89.2002 0.455999L89.5962 0.742C90.0069 1.05 90.8429 1.204 92.1042 1.204H97.8022C99.0635 1.204 99.8995 1.05 100.31 0.742L100.706 0.455999L101.058 0.742V4.658L100.31 4.922L100.178 4.416C100.046 3.888 99.8922 3.48467 99.7162 3.206C99.5402 2.92733 99.3055 2.73667 99.0122 2.634C98.7189 2.51667 98.3082 2.458 97.7802 2.458H96.7902C96.4822 2.458 96.2769 2.568 96.1742 2.788C96.0862 2.99333 96.0422 3.44067 96.0422 4.13V14.074C96.0422 14.7487 96.1375 15.218 96.3282 15.482C96.5335 15.746 96.9075 15.9587 97.4502 16.12L97.9562 16.252L97.6922 17H92.8742ZM102.636 17L102.372 16.252L102.9 16.12C103.443 15.9733 103.81 15.768 104 15.504C104.191 15.2253 104.286 14.7487 104.286 14.074V4.13C104.286 3.47 104.191 3.00067 104 2.722C103.81 2.44333 103.443 2.23067 102.9 2.084L102.372 1.952L102.636 1.204H107.476L107.762 1.556L107.476 1.952C107.11 2.45067 106.846 2.97133 106.684 3.514C106.538 4.042 106.464 4.746 106.464 5.626V12.974C106.464 13.6633 106.545 14.206 106.706 14.602C106.882 14.998 107.102 15.284 107.366 15.46C107.63 15.636 107.902 15.746 108.18 15.79C108.459 15.834 108.701 15.856 108.906 15.856C109.962 15.856 110.776 15.5187 111.348 14.844C111.92 14.1693 112.206 13.3113 112.206 12.27C112.206 11.6393 112.06 11.0673 111.766 10.554C111.473 10.0407 111.062 9.63 110.534 9.322C110.021 9.014 109.412 8.86 108.708 8.86C108.254 8.86 107.931 8.89667 107.74 8.97C107.55 9.02867 107.388 9.058 107.256 9.058C107.154 9.058 107.073 9.00667 107.014 8.904C106.97 8.80133 106.948 8.684 106.948 8.552C106.948 8.27333 107.168 8.07533 107.608 7.958C108.048 7.84067 108.54 7.782 109.082 7.782C110.197 7.782 111.158 7.99467 111.964 8.42C112.771 8.84533 113.394 9.41 113.834 10.114C114.274 10.8033 114.494 11.5587 114.494 12.38C114.494 13.2747 114.311 14.074 113.944 14.778C113.578 15.4673 112.976 16.01 112.14 16.406C111.304 16.802 110.182 17 108.774 17H102.636ZM122.297 17L122.033 16.252L122.539 16.12C123.096 15.9587 123.47 15.746 123.661 15.482C123.852 15.218 123.947 14.7487 123.947 14.074V3.206C123.947 2.854 123.786 2.678 123.463 2.678H122.187L121.923 1.864C122.304 1.71733 122.788 1.57067 123.375 1.424C123.976 1.27733 124.622 1.15267 125.311 1.05C126.015 0.947332 126.704 0.895999 127.379 0.895999C128.802 0.895999 129.946 1.094 130.811 1.49C131.691 1.87133 132.329 2.392 132.725 3.052C133.136 3.712 133.341 4.438 133.341 5.23C133.341 6.00733 133.15 6.73333 132.769 7.408C132.402 8.08267 131.823 8.61067 131.031 8.992C132.028 9.31467 132.798 9.81333 133.341 10.488C133.884 11.148 134.155 11.874 134.155 12.666C134.155 13.502 133.964 14.25 133.583 14.91C133.216 15.5553 132.615 16.0687 131.779 16.45C130.943 16.8167 129.828 17 128.435 17H122.297ZM128.567 15.856C129.623 15.856 130.437 15.548 131.009 14.932C131.581 14.3013 131.867 13.5093 131.867 12.556C131.867 11.9987 131.728 11.4927 131.449 11.038C131.17 10.5687 130.767 10.1947 130.239 9.916C129.726 9.63733 129.102 9.498 128.369 9.498C128.105 9.498 127.841 9.46867 127.577 9.41C127.313 9.35133 127.1 9.28533 126.939 9.212C126.822 9.15333 126.734 9.08 126.675 8.992C126.631 8.904 126.609 8.816 126.609 8.728C126.609 8.464 126.712 8.332 126.917 8.332C127.005 8.332 127.122 8.36133 127.269 8.42C127.43 8.464 127.68 8.486 128.017 8.486C129.029 8.486 129.806 8.18533 130.349 7.584C130.892 6.98267 131.163 6.21267 131.163 5.274C131.163 4.37933 130.862 3.63133 130.261 3.03C129.66 2.42867 128.772 2.128 127.599 2.128C127.159 2.128 126.836 2.18667 126.631 2.304C126.426 2.40667 126.286 2.53867 126.213 2.7C126.154 2.86133 126.125 3.008 126.125 3.14V12.974C126.125 13.6633 126.206 14.206 126.367 14.602C126.543 14.9833 126.763 15.2693 127.027 15.46C127.291 15.636 127.555 15.746 127.819 15.79C128.098 15.834 128.347 15.856 128.567 15.856ZM143.183 17.308C141.995 17.308 140.961 17.0953 140.081 16.67C139.201 16.2447 138.468 15.658 137.881 14.91C137.294 14.162 136.854 13.2967 136.561 12.314C136.282 11.3167 136.143 10.2533 136.143 9.124C136.143 7.99467 136.282 6.93133 136.561 5.934C136.854 4.93667 137.294 4.064 137.881 3.316C138.468 2.55333 139.208 1.95933 140.103 1.534C140.998 1.10867 142.046 0.895999 143.249 0.895999C144.217 0.895999 145.075 1.03533 145.823 1.314C146.571 1.578 147.15 1.952 147.561 2.436C147.986 2.92 148.199 3.48467 148.199 4.13C148.199 4.89267 147.972 5.516 147.517 6C147.077 6.46933 146.52 6.704 145.845 6.704C145.537 6.704 145.383 6.616 145.383 6.44C145.383 6.36667 145.434 6.25667 145.537 6.11C145.654 5.94867 145.764 5.736 145.867 5.472C145.984 5.19333 146.043 4.84867 146.043 4.438C146.043 3.74867 145.786 3.19133 145.273 2.766C144.76 2.34067 144.085 2.128 143.249 2.128C142.384 2.128 141.658 2.33333 141.071 2.744C140.484 3.15467 140.008 3.70467 139.641 4.394C139.289 5.06867 139.032 5.824 138.871 6.66C138.71 7.48133 138.629 8.30267 138.629 9.124C138.629 10.3413 138.82 11.456 139.201 12.468C139.582 13.48 140.125 14.2867 140.829 14.888C141.548 15.4893 142.398 15.79 143.381 15.79C144.349 15.79 145.178 15.614 145.867 15.262C146.556 14.8953 147.106 14.4113 147.517 13.81C147.561 13.7513 147.612 13.722 147.671 13.722C147.803 13.722 147.95 13.788 148.111 13.92C148.287 14.052 148.375 14.1913 148.375 14.338C148.375 14.382 148.353 14.4407 148.309 14.514C147.737 15.3647 147.033 16.0467 146.197 16.56C145.361 17.0587 144.356 17.308 143.183 17.308ZM160.545 17.55L160.369 17.308C160.208 17.1027 159.9 17 159.445 17H150.183L149.941 16.296L150.403 16.164C150.931 16.0027 151.283 15.8047 151.459 15.57C151.65 15.3207 151.745 14.8733 151.745 14.228V5.626C151.745 4.73133 151.665 4.02 151.503 3.492C151.357 2.964 151.107 2.45067 150.755 1.952L150.469 1.556L150.755 1.204H157.487C158.749 1.204 159.585 1.05 159.995 0.742L160.391 0.455999L160.743 0.742V4.658L159.995 4.922L159.863 4.416C159.731 3.888 159.577 3.48467 159.401 3.206C159.225 2.92733 158.991 2.73667 158.697 2.634C158.404 2.51667 157.993 2.458 157.465 2.458H155.331C154.759 2.458 154.378 2.568 154.187 2.788C154.011 2.99333 153.923 3.44067 153.923 4.13V8.354H156.717C157.055 8.354 157.355 8.28067 157.619 8.134C157.898 7.98733 158.177 7.72333 158.455 7.342L158.631 7.1L159.071 7.342V11.104L158.323 11.368L158.191 10.862C158.059 10.3487 157.817 10.0113 157.465 9.85C157.128 9.68867 156.571 9.608 155.793 9.608H153.923V14.074C153.923 14.7487 154.011 15.196 154.187 15.416C154.378 15.636 154.759 15.746 155.331 15.746H157.707C158.235 15.746 158.646 15.6947 158.939 15.592C159.233 15.4747 159.467 15.2767 159.643 14.998C159.819 14.7047 159.973 14.3013 160.105 13.788L160.237 13.282L160.985 13.546V17.308L160.545 17.55ZM168.944 17L168.68 16.252L169.208 16.12C169.574 16.0027 169.86 15.878 170.066 15.746C170.271 15.614 170.41 15.4233 170.484 15.174C170.572 14.91 170.616 14.5433 170.616 14.074V4.13C170.616 3.44067 170.52 2.964 170.33 2.7C170.139 2.436 169.765 2.23067 169.208 2.084L168.68 1.952L168.944 1.204H173.784L174.07 1.556L173.784 1.952C173.417 2.436 173.16 2.94933 173.014 3.492C172.867 4.03467 172.794 4.746 172.794 5.626V12.006L180.208 3.954C180.193 3.338 180.083 2.90533 179.878 2.656C179.687 2.40667 179.328 2.216 178.8 2.084L178.316 1.952L178.58 1.204H183.376L183.706 1.556L183.376 1.952C182.994 2.42133 182.73 2.93467 182.584 3.492C182.437 4.03467 182.364 4.746 182.364 5.626V14.228C182.364 14.8733 182.459 15.3207 182.65 15.57C182.84 15.8193 183.207 16.0173 183.75 16.164L184.19 16.296L183.97 17H178.58L178.316 16.252L178.8 16.12C179.357 15.9733 179.731 15.7753 179.922 15.526C180.112 15.262 180.208 14.778 180.208 14.074V5.736L172.794 13.81V14.228C172.794 14.8733 172.882 15.3207 173.058 15.57C173.248 15.8047 173.6 16.0027 174.114 16.164L174.576 16.296L174.356 17H168.944ZM192.339 17.308C191.151 17.308 190.117 17.0953 189.237 16.67C188.357 16.2447 187.624 15.658 187.037 14.91C186.451 14.162 186.011 13.2967 185.717 12.314C185.439 11.3167 185.299 10.2533 185.299 9.124C185.299 7.99467 185.439 6.93133 185.717 5.934C186.011 4.93667 186.451 4.064 187.037 3.316C187.624 2.55333 188.365 1.95933 189.259 1.534C190.154 1.10867 191.203 0.895999 192.405 0.895999C193.373 0.895999 194.231 1.03533 194.979 1.314C195.727 1.578 196.307 1.952 196.717 2.436C197.143 2.92 197.355 3.48467 197.355 4.13C197.355 4.89267 197.128 5.516 196.673 6C196.233 6.46933 195.676 6.704 195.001 6.704C194.693 6.704 194.539 6.616 194.539 6.44C194.539 6.36667 194.591 6.25667 194.693 6.11C194.811 5.94867 194.921 5.736 195.023 5.472C195.141 5.19333 195.199 4.84867 195.199 4.438C195.199 3.74867 194.943 3.19133 194.429 2.766C193.916 2.34067 193.241 2.128 192.405 2.128C191.54 2.128 190.814 2.33333 190.227 2.744C189.641 3.15467 189.164 3.70467 188.797 4.394C188.445 5.06867 188.189 5.824 188.027 6.66C187.866 7.48133 187.785 8.30267 187.785 9.124C187.785 10.3413 187.976 11.456 188.357 12.468C188.739 13.48 189.281 14.2867 189.985 14.888C190.704 15.4893 191.555 15.79 192.537 15.79C193.505 15.79 194.334 15.614 195.023 15.262C195.713 14.8953 196.263 14.4113 196.673 13.81C196.717 13.7513 196.769 13.722 196.827 13.722C196.959 13.722 197.106 13.788 197.267 13.92C197.443 14.052 197.531 14.1913 197.531 14.338C197.531 14.382 197.509 14.4407 197.465 14.514C196.893 15.3647 196.189 16.0467 195.353 16.56C194.517 17.0587 193.513 17.308 192.339 17.308ZM202.573 17L202.287 16.648L202.573 16.252C202.94 15.768 203.197 15.262 203.343 14.734C203.49 14.1913 203.563 13.4727 203.563 12.578V4.13C203.563 3.44067 203.512 2.99333 203.409 2.788C203.321 2.568 203.123 2.458 202.815 2.458H201.825C201.312 2.458 200.901 2.51667 200.593 2.634C200.3 2.73667 200.065 2.92733 199.889 3.206C199.728 3.48467 199.574 3.888 199.427 4.416L199.295 4.922L198.547 4.658V0.742L198.899 0.455999L199.295 0.742C199.706 1.05 200.542 1.204 201.803 1.204H207.501C208.763 1.204 209.599 1.05 210.009 0.742L210.405 0.455999L210.757 0.742V4.658L210.009 4.922L209.877 4.416C209.745 3.888 209.591 3.48467 209.415 3.206C209.239 2.92733 209.005 2.73667 208.711 2.634C208.418 2.51667 208.007 2.458 207.479 2.458H206.489C206.181 2.458 205.976 2.568 205.873 2.788C205.785 2.99333 205.741 3.44067 205.741 4.13V14.074C205.741 14.7487 205.837 15.218 206.027 15.482C206.233 15.746 206.607 15.9587 207.149 16.12L207.655 16.252L207.391 17H202.573ZM219.243 17.308C217.601 17.308 216.237 16.9413 215.151 16.208C214.081 15.4747 213.281 14.492 212.753 13.26C212.225 12.0133 211.961 10.6347 211.961 9.124C211.961 7.99467 212.108 6.93133 212.401 5.934C212.695 4.93667 213.142 4.064 213.743 3.316C214.359 2.55333 215.122 1.95933 216.031 1.534C216.941 1.10867 218.011 0.895999 219.243 0.895999C220.475 0.895999 221.546 1.10867 222.455 1.534C223.365 1.95933 224.12 2.55333 224.721 3.316C225.337 4.064 225.792 4.93667 226.085 5.934C226.393 6.93133 226.547 7.99467 226.547 9.124C226.547 10.6347 226.276 12.0133 225.733 13.26C225.205 14.492 224.399 15.4747 223.313 16.208C222.243 16.9413 220.886 17.308 219.243 17.308ZM219.155 16.01C220.211 16.01 221.113 15.7093 221.861 15.108C222.609 14.492 223.174 13.6707 223.555 12.644C223.951 11.6027 224.149 10.4513 224.149 9.19C224.149 8.64733 224.098 8.06067 223.995 7.43C223.907 6.78467 223.753 6.154 223.533 5.538C223.313 4.90733 223.02 4.34267 222.653 3.844C222.287 3.33067 221.832 2.92 221.289 2.612C220.747 2.304 220.101 2.15 219.353 2.15C218.283 2.15 217.373 2.48 216.625 3.14C215.877 3.78533 215.305 4.65067 214.909 5.736C214.528 6.80667 214.337 7.99467 214.337 9.3C214.337 10.5467 214.513 11.676 214.865 12.688C215.232 13.7 215.775 14.5067 216.493 15.108C217.212 15.7093 218.099 16.01 219.155 16.01ZM228.47 17L228.206 16.252L228.712 16.12C229.27 15.9733 229.644 15.768 229.834 15.504C230.025 15.2253 230.12 14.7487 230.12 14.074V3.206C230.12 2.854 229.959 2.678 229.636 2.678H228.36L228.096 1.864C228.478 1.71733 228.962 1.57067 229.548 1.424C230.15 1.27733 230.795 1.15267 231.484 1.05C232.188 0.947332 232.885 0.895999 233.574 0.895999C235.1 0.895999 236.332 1.138 237.27 1.622C238.224 2.09133 238.913 2.722 239.338 3.514C239.778 4.306 239.998 5.17867 239.998 6.132C239.998 7.04133 239.808 7.892 239.426 8.684C239.06 9.46133 238.488 10.0847 237.71 10.554C236.933 11.0233 235.936 11.258 234.718 11.258C234.22 11.258 233.772 11.1993 233.376 11.082C232.98 10.95 232.782 10.752 232.782 10.488C232.782 10.356 232.812 10.2387 232.87 10.136C232.929 10.0187 233.017 9.96 233.134 9.96C233.222 9.96 233.34 9.98933 233.486 10.048C233.648 10.092 233.89 10.114 234.212 10.114C235.342 10.114 236.207 9.75467 236.808 9.036C237.41 8.31733 237.71 7.37133 237.71 6.198C237.71 5.43533 237.571 4.746 237.292 4.13C237.014 3.514 236.596 3.03 236.038 2.678C235.481 2.31133 234.792 2.128 233.97 2.128C233.472 2.128 233.105 2.18667 232.87 2.304C232.636 2.40667 232.482 2.53867 232.408 2.7C232.335 2.86133 232.298 3.008 232.298 3.14V12.578C232.298 13.4727 232.372 14.1913 232.518 14.734C232.665 15.262 232.922 15.768 233.288 16.252L233.574 16.648L233.288 17H228.47ZM240.938 17L240.674 16.252L241.202 16.12C241.568 16.0027 241.854 15.878 242.06 15.746C242.265 15.614 242.404 15.4233 242.478 15.174C242.566 14.91 242.61 14.5433 242.61 14.074V4.13C242.61 3.44067 242.514 2.964 242.324 2.7C242.133 2.436 241.759 2.23067 241.202 2.084L240.674 1.952L240.938 1.204H245.778L246.064 1.556L245.778 1.952C245.411 2.436 245.154 2.94933 245.008 3.492C244.861 4.03467 244.788 4.746 244.788 5.626V12.006L252.202 3.954C252.187 3.338 252.077 2.90533 251.872 2.656C251.681 2.40667 251.322 2.216 250.794 2.084L250.31 1.952L250.574 1.204H255.37L255.7 1.556L255.37 1.952C254.988 2.42133 254.724 2.93467 254.578 3.492C254.431 4.03467 254.358 4.746 254.358 5.626V14.228C254.358 14.8733 254.453 15.3207 254.644 15.57C254.834 15.8193 255.201 16.0173 255.744 16.164L256.184 16.296L255.964 17H250.574L250.31 16.252L250.794 16.12C251.351 15.9733 251.725 15.7753 251.916 15.526C252.106 15.262 252.202 14.778 252.202 14.074V5.736L244.788 13.81V14.228C244.788 14.8733 244.876 15.3207 245.052 15.57C245.242 15.8047 245.594 16.0027 246.108 16.164L246.57 16.296L246.35 17H240.938ZM257.029 17L256.765 16.252L257.293 16.12C257.66 16.0027 257.946 15.878 258.151 15.746C258.357 15.614 258.496 15.4233 258.569 15.174C258.657 14.91 258.701 14.5433 258.701 14.074V4.13C258.701 3.44067 258.606 2.964 258.415 2.7C258.225 2.436 257.851 2.23067 257.293 2.084L256.765 1.952L257.029 1.204H261.869L262.155 1.556L261.869 1.952C261.503 2.436 261.246 2.94933 261.099 3.492C260.953 4.03467 260.879 4.746 260.879 5.626V12.006L268.293 3.954C268.279 3.338 268.169 2.90533 267.963 2.656C267.773 2.40667 267.413 2.216 266.885 2.084L266.401 1.952L266.665 1.204H271.461L271.791 1.556L271.461 1.952C271.08 2.42133 270.816 2.93467 270.669 3.492C270.523 4.03467 270.449 4.746 270.449 5.626V14.228C270.449 14.8733 270.545 15.3207 270.735 15.57C270.926 15.8193 271.293 16.0173 271.835 16.164L272.275 16.296L272.055 17H266.665L266.401 16.252L266.885 16.12C267.443 15.9733 267.817 15.7753 268.007 15.526C268.198 15.262 268.293 14.778 268.293 14.074V5.736L260.879 13.81V14.228C260.879 14.8733 260.967 15.3207 261.143 15.57C261.334 15.8047 261.686 16.0027 262.199 16.164L262.661 16.296L262.441 17H257.029Z" fill="#968E85"/>
</svg>
