<svg width="124" height="17" viewBox="0 0 124 17" fill="none" xmlns="http://www.w3.org/2000/svg">
<path d="M0.527 13L0.306 12.728L0.527 12.422C0.810333 12.048 1.00867 11.657 1.122 11.249C1.24667 10.8297 1.309 10.2743 1.309 9.583V4.211C1.309 3.531 1.24667 2.98133 1.122 2.562C1.00867 2.14267 0.810333 1.746 0.527 1.372L0.306 1.066L0.527 0.793999H10.489L10.71 1.066L10.489 1.372C10.2057 1.746 10.0017 2.14267 9.877 2.562C9.76367 2.98133 9.707 3.531 9.707 4.211V10.858C9.707 11.3567 9.775 11.7023 9.911 11.895C10.0583 12.0763 10.336 12.2293 10.744 12.354L11.118 12.456L10.931 13H6.783L6.562 12.422L6.936 12.32C7.23067 12.2293 7.45733 12.133 7.616 12.031C7.77467 11.929 7.88233 11.7817 7.939 11.589C8.007 11.385 8.041 11.1017 8.041 10.739V3.055C8.041 2.52233 7.96733 2.171 7.82 2.001C7.684 1.831 7.38933 1.746 6.936 1.746H4.063C3.621 1.746 3.32633 1.831 3.179 2.001C3.043 2.171 2.975 2.52233 2.975 3.055V10.739C2.975 11.1017 3.00333 11.385 3.06 11.589C3.128 11.7817 3.24133 11.929 3.4 12.031C3.55867 12.133 3.77967 12.2293 4.063 12.32L4.471 12.422L4.267 13H0.527ZM17.6439 13.238C16.3745 13.238 15.3205 12.9547 14.4819 12.388C13.6545 11.8213 13.0369 11.062 12.6289 10.11C12.2209 9.14667 12.0169 8.08133 12.0169 6.914C12.0169 6.04133 12.1302 5.21967 12.3569 4.449C12.5835 3.67833 12.9292 3.004 13.3939 2.426C13.8699 1.83667 14.4592 1.37767 15.1619 1.049C15.8645 0.720333 16.6919 0.555999 17.6439 0.555999C18.5959 0.555999 19.4232 0.720333 20.1259 1.049C20.8285 1.37767 21.4122 1.83667 21.8769 2.426C22.3529 3.004 22.7042 3.67833 22.9309 4.449C23.1689 5.21967 23.2879 6.04133 23.2879 6.914C23.2879 8.08133 23.0782 9.14667 22.6589 10.11C22.2509 11.062 21.6275 11.8213 20.7889 12.388C19.9615 12.9547 18.9132 13.238 17.6439 13.238ZM17.5759 12.235C18.3919 12.235 19.0889 12.0027 19.6669 11.538C20.2449 11.062 20.6812 10.4273 20.9759 9.634C21.2819 8.82933 21.4349 7.93967 21.4349 6.965C21.4349 6.54567 21.3952 6.09233 21.3159 5.605C21.2479 5.10633 21.1289 4.619 20.9589 4.143C20.7889 3.65567 20.5622 3.21933 20.2789 2.834C19.9955 2.43733 19.6442 2.12 19.2249 1.882C18.8055 1.644 18.3069 1.525 17.7289 1.525C16.9015 1.525 16.1989 1.78 15.6209 2.29C15.0429 2.78867 14.6009 3.45733 14.2949 4.296C14.0002 5.12333 13.8529 6.04133 13.8529 7.05C13.8529 8.01333 13.9889 8.886 14.2609 9.668C14.5442 10.45 14.9635 11.0733 15.5189 11.538C16.0742 12.0027 16.7599 12.235 17.5759 12.235ZM24.4846 16.281L23.9066 16.077V12.269C24.632 12.167 25.21 11.8837 25.6406 11.419C26.0713 10.9543 26.4 10.3197 26.6266 9.515C26.8646 8.71033 27.0403 7.75267 27.1536 6.642C27.2783 5.53133 27.386 4.279 27.4766 2.885C27.4993 2.42033 27.3973 2.09167 27.1706 1.899C26.9553 1.695 26.6833 1.55333 26.3546 1.474L25.9806 1.372L26.1846 0.793999H34.4806L34.6676 1.066L34.4806 1.372C34.1973 1.746 33.9933 2.14267 33.8686 2.562C33.744 2.98133 33.6816 3.531 33.6816 4.211V11.215C33.6816 11.4643 33.7723 11.6683 33.9536 11.827C34.135 11.9857 34.3673 12.1047 34.6506 12.184C34.934 12.252 35.2286 12.286 35.5346 12.286V16.077L34.9566 16.281L34.8546 15.873C34.696 15.2723 34.5203 14.7567 34.3276 14.326C34.135 13.8953 33.88 13.5667 33.5626 13.34C33.2566 13.1133 32.843 13 32.3216 13H27.1196C26.6096 13 26.196 13.1133 25.8786 13.34C25.5726 13.5667 25.3176 13.8953 25.1136 14.326C24.921 14.7567 24.7396 15.2723 24.5696 15.873L24.4846 16.281ZM26.2526 12.031H30.9106C31.364 12.031 31.6586 11.9517 31.7946 11.793C31.942 11.6343 32.0156 11.283 32.0156 10.739V3.055C32.0156 2.52233 31.942 2.171 31.7946 2.001C31.6586 1.831 31.364 1.746 30.9106 1.746H29.8736C29.5563 1.746 29.3013 1.79133 29.1086 1.882C28.916 1.96133 28.8083 2.14267 28.7856 2.426C28.6043 5.19133 28.3266 7.36733 27.9526 8.954C27.5786 10.5407 27.012 11.5663 26.2526 12.031ZM35.9215 13L35.7005 12.728L35.9215 12.422C36.2049 12.048 36.4032 11.657 36.5165 11.249C36.6412 10.8297 36.7035 10.2743 36.7035 9.583V4.211C36.7035 3.531 36.6412 2.98133 36.5165 2.562C36.4032 2.14267 36.2049 1.746 35.9215 1.372L35.7005 1.066L35.9215 0.793999H45.8835L46.1045 1.066L45.8835 1.372C45.6002 1.746 45.3962 2.14267 45.2715 2.562C45.1582 2.98133 45.1015 3.531 45.1015 4.211V10.858C45.1015 11.3567 45.1695 11.7023 45.3055 11.895C45.4529 12.0763 45.7305 12.2293 46.1385 12.354L46.5125 12.456L46.3255 13H42.1775L41.9565 12.422L42.3305 12.32C42.6252 12.2293 42.8519 12.133 43.0105 12.031C43.1692 11.929 43.2769 11.7817 43.3335 11.589C43.4015 11.385 43.4355 11.1017 43.4355 10.739V3.055C43.4355 2.52233 43.3619 2.171 43.2145 2.001C43.0785 1.831 42.7839 1.746 42.3305 1.746H39.4575C39.0155 1.746 38.7209 1.831 38.5735 2.001C38.4375 2.171 38.3695 2.52233 38.3695 3.055V10.739C38.3695 11.1017 38.3979 11.385 38.4545 11.589C38.5225 11.7817 38.6359 11.929 38.7945 12.031C38.9532 12.133 39.1742 12.2293 39.4575 12.32L39.8655 12.422L39.6615 13H35.9215ZM47.2074 13L47.0034 12.422L47.4114 12.32C47.6947 12.2293 47.9157 12.133 48.0744 12.031C48.2331 11.929 48.3407 11.7817 48.3974 11.589C48.4654 11.385 48.4994 11.1017 48.4994 10.739V3.055C48.4994 2.52233 48.4257 2.154 48.2784 1.95C48.1311 1.746 47.8421 1.58733 47.4114 1.474L47.0034 1.372L47.2074 0.793999H50.9474L51.1684 1.066L50.9474 1.372C50.6641 1.746 50.4657 2.14267 50.3524 2.562C50.2391 2.98133 50.1824 3.531 50.1824 4.211V9.141L55.9114 2.919C55.9001 2.443 55.8151 2.10867 55.6564 1.916C55.5091 1.72333 55.2314 1.576 54.8234 1.474L54.4494 1.372L54.6534 0.793999H58.3594L58.6144 1.066L58.3594 1.372C58.0647 1.73467 57.8607 2.13133 57.7474 2.562C57.6341 2.98133 57.5774 3.531 57.5774 4.211V10.858C57.5774 11.3567 57.6511 11.7023 57.7984 11.895C57.9457 12.0877 58.2291 12.2407 58.6484 12.354L58.9884 12.456L58.8184 13H54.6534L54.4494 12.422L54.8234 12.32C55.2541 12.2067 55.5431 12.0537 55.6904 11.861C55.8377 11.657 55.9114 11.283 55.9114 10.739V4.296L50.1824 10.535V10.858C50.1824 11.3567 50.2504 11.7023 50.3864 11.895C50.5337 12.0763 50.8057 12.2293 51.2024 12.354L51.5594 12.456L51.3894 13H47.2074ZM65.286 13.238C64.368 13.238 63.569 13.0737 62.889 12.745C62.209 12.4163 61.6423 11.963 61.189 11.385C60.7356 10.807 60.3956 10.1383 60.169 9.379C59.9536 8.60833 59.846 7.78667 59.846 6.914C59.846 6.04133 59.9536 5.21967 60.169 4.449C60.3956 3.67833 60.7356 3.004 61.189 2.426C61.6423 1.83667 62.2146 1.37767 62.906 1.049C63.5973 0.720333 64.4076 0.555999 65.337 0.555999C66.085 0.555999 66.748 0.663666 67.326 0.878999C67.904 1.083 68.3516 1.372 68.669 1.746C68.9976 2.12 69.162 2.55633 69.162 3.055C69.162 3.64433 68.9863 4.126 68.635 4.5C68.295 4.86267 67.8643 5.044 67.343 5.044C67.105 5.044 66.986 4.976 66.986 4.84C66.986 4.78333 67.0256 4.69833 67.105 4.585C67.1956 4.46033 67.2806 4.296 67.36 4.092C67.4506 3.87667 67.496 3.61033 67.496 3.293C67.496 2.76033 67.2976 2.32967 66.901 2.001C66.5043 1.67233 65.983 1.508 65.337 1.508C64.6683 1.508 64.1073 1.66667 63.654 1.984C63.2006 2.30133 62.8323 2.72633 62.549 3.259C62.277 3.78033 62.0786 4.364 61.954 5.01C61.8293 5.64467 61.767 6.27933 61.767 6.914C61.767 7.85467 61.9143 8.716 62.209 9.498C62.5036 10.28 62.923 10.9033 63.467 11.368C64.0223 11.8327 64.6796 12.065 65.439 12.065C66.187 12.065 66.8273 11.929 67.36 11.657C67.8926 11.3737 68.3176 10.9997 68.635 10.535C68.669 10.4897 68.7086 10.467 68.754 10.467C68.856 10.467 68.9693 10.518 69.094 10.62C69.23 10.722 69.298 10.8297 69.298 10.943C69.298 10.977 69.281 11.0223 69.247 11.079C68.805 11.7363 68.261 12.2633 67.615 12.66C66.969 13.0453 66.1926 13.238 65.286 13.238ZM69.6752 13L69.4712 12.422L69.8622 12.32C70.1682 12.2407 70.4118 12.1443 70.5932 12.031C70.7745 11.9177 70.9275 11.7647 71.0522 11.572C71.1882 11.368 71.3128 11.0903 71.4262 10.739L74.0952 3.055C74.1518 2.87367 74.1972 2.72067 74.2312 2.596C74.2652 2.46 74.2822 2.33533 74.2822 2.222C74.2822 2.00667 74.2198 1.848 74.0952 1.746C73.9705 1.63267 73.7778 1.542 73.5172 1.474L73.1262 1.372L73.3302 0.793999H76.6112L80.0282 10.654C80.1642 11.028 80.3002 11.334 80.4362 11.572C80.5835 11.81 80.7478 12.014 80.9292 12.184C81.1105 12.354 81.3202 12.5353 81.5582 12.728L81.3372 13H77.5122L77.3082 12.422L77.6992 12.32C77.9598 12.252 78.1525 12.167 78.2772 12.065C78.4018 11.9517 78.4642 11.7873 78.4642 11.572C78.4642 11.4587 78.4472 11.3397 78.4132 11.215C78.3792 11.079 78.3338 10.9203 78.2772 10.739L77.4612 8.359H73.5342L73.1262 9.6C73.0015 9.98533 72.9052 10.3197 72.8372 10.603C72.7692 10.8863 72.7352 11.147 72.7352 11.385C72.7352 11.7703 72.8145 12.116 72.9732 12.422L73.1262 12.728L72.8032 13H69.6752ZM73.8912 7.305H77.1042L75.4722 2.545L73.8912 7.305ZM85.1971 13L84.9761 12.728L85.1971 12.422C85.4804 12.048 85.6788 11.657 85.7921 11.249C85.9054 10.8297 85.9621 10.2743 85.9621 9.583V3.055C85.9621 2.52233 85.9224 2.17667 85.8431 2.018C85.7751 1.848 85.6221 1.763 85.3841 1.763H84.6191C84.2224 1.763 83.9051 1.80833 83.6671 1.899C83.4404 1.97833 83.2591 2.12567 83.1231 2.341C82.9984 2.55633 82.8794 2.868 82.7661 3.276L82.6641 3.667L82.0861 3.463V0.437L82.3581 0.215999L82.6641 0.437C82.9814 0.674999 83.6274 0.793999 84.6021 0.793999H89.0051C89.9798 0.793999 90.6258 0.674999 90.9431 0.437L91.2491 0.215999L91.5211 0.437V3.463L90.9431 3.667L90.8411 3.276C90.7391 2.868 90.6201 2.55633 90.4841 2.341C90.3481 2.12567 90.1668 1.97833 89.9401 1.899C89.7134 1.80833 89.3961 1.763 88.9881 1.763H88.2231C87.9851 1.763 87.8264 1.848 87.7471 2.018C87.6791 2.17667 87.6451 2.52233 87.6451 3.055V10.739C87.6451 11.2603 87.7188 11.623 87.8661 11.827C88.0248 12.031 88.3138 12.1953 88.7331 12.32L89.1241 12.422L88.9201 13H85.1971ZM92.7404 13L92.5364 12.422L92.9444 12.32C93.3638 12.2067 93.6471 12.048 93.7944 11.844C93.9418 11.6287 94.0154 11.2603 94.0154 10.739V3.055C94.0154 2.545 93.9418 2.18233 93.7944 1.967C93.6471 1.75167 93.3638 1.58733 92.9444 1.474L92.5364 1.372L92.7404 0.793999H96.4804L96.7014 1.066L96.4804 1.372C96.1971 1.75733 95.9931 2.15967 95.8684 2.579C95.7551 2.987 95.6984 3.531 95.6984 4.211V9.889C95.6984 10.4217 95.7608 10.841 95.8854 11.147C96.0214 11.453 96.1914 11.674 96.3954 11.81C96.5994 11.946 96.8091 12.031 97.0244 12.065C97.2398 12.099 97.4268 12.116 97.5854 12.116C98.4014 12.116 99.0304 11.8553 99.4724 11.334C99.9144 10.8127 100.135 10.1497 100.135 9.345C100.135 8.85767 100.022 8.41567 99.7954 8.019C99.5688 7.62233 99.2514 7.305 98.8434 7.067C98.4468 6.829 97.9764 6.71 97.4324 6.71C97.0811 6.71 96.8318 6.73833 96.6844 6.795C96.5371 6.84033 96.4124 6.863 96.3104 6.863C96.2311 6.863 96.1688 6.82333 96.1234 6.744C96.0894 6.66467 96.0724 6.574 96.0724 6.472C96.0724 6.25667 96.2424 6.10367 96.5824 6.013C96.9224 5.92233 97.3021 5.877 97.7214 5.877C98.5828 5.877 99.3251 6.04133 99.9484 6.37C100.572 6.69867 101.053 7.135 101.393 7.679C101.733 8.21167 101.903 8.79533 101.903 9.43C101.903 10.1213 101.762 10.739 101.478 11.283C101.195 11.8157 100.73 12.235 100.084 12.541C99.4384 12.847 98.5714 13 97.4834 13H92.7404ZM108.317 13.238C107.399 13.238 106.6 13.0737 105.92 12.745C105.24 12.4163 104.674 11.963 104.22 11.385C103.767 10.807 103.427 10.1383 103.2 9.379C102.985 8.60833 102.877 7.78667 102.877 6.914C102.877 6.04133 102.985 5.21967 103.2 4.449C103.427 3.67833 103.767 3.004 104.22 2.426C104.674 1.83667 105.246 1.37767 105.937 1.049C106.629 0.720333 107.439 0.555999 108.368 0.555999C109.116 0.555999 109.779 0.663666 110.357 0.878999C110.935 1.083 111.383 1.372 111.7 1.746C112.029 2.12 112.193 2.55633 112.193 3.055C112.193 3.64433 112.018 4.126 111.666 4.5C111.326 4.86267 110.896 5.044 110.374 5.044C110.136 5.044 110.017 4.976 110.017 4.84C110.017 4.78333 110.057 4.69833 110.136 4.585C110.227 4.46033 110.312 4.296 110.391 4.092C110.482 3.87667 110.527 3.61033 110.527 3.293C110.527 2.76033 110.329 2.32967 109.932 2.001C109.536 1.67233 109.014 1.508 108.368 1.508C107.7 1.508 107.139 1.66667 106.685 1.984C106.232 2.30133 105.864 2.72633 105.58 3.259C105.308 3.78033 105.11 4.364 104.985 5.01C104.861 5.64467 104.798 6.27933 104.798 6.914C104.798 7.85467 104.946 8.716 105.24 9.498C105.535 10.28 105.954 10.9033 106.498 11.368C107.054 11.8327 107.711 12.065 108.47 12.065C109.218 12.065 109.859 11.929 110.391 11.657C110.924 11.3737 111.349 10.9997 111.666 10.535C111.7 10.4897 111.74 10.467 111.785 10.467C111.887 10.467 112.001 10.518 112.125 10.62C112.261 10.722 112.329 10.8297 112.329 10.943C112.329 10.977 112.312 11.0223 112.278 11.079C111.836 11.7363 111.292 12.2633 110.646 12.66C110 13.0453 109.224 13.238 108.317 13.238ZM114.508 13.238C114.236 13.238 113.97 13.187 113.709 13.085C113.449 12.983 113.194 12.8073 112.944 12.558L113.216 12.065C113.352 12.1557 113.471 12.218 113.573 12.252C113.675 12.286 113.783 12.303 113.896 12.303C114.044 12.303 114.168 12.252 114.27 12.15C114.372 12.0367 114.463 11.9177 114.542 11.793L116.395 8.563C116.486 8.38167 116.577 8.223 116.667 8.087C116.769 7.951 116.9 7.83767 117.058 7.747C116.163 7.52033 115.506 7.084 115.086 6.438C114.667 5.792 114.457 5.07233 114.457 4.279C114.457 3.58767 114.616 2.96433 114.933 2.409C115.262 1.85367 115.783 1.41167 116.497 1.083C117.211 0.743 118.146 0.573 119.302 0.573C119.835 0.573 120.368 0.612666 120.9 0.691999C121.433 0.771333 121.926 0.867666 122.379 0.981C122.844 1.09433 123.224 1.20767 123.518 1.321L123.297 1.967H122.311C122.187 1.967 122.09 1.99533 122.022 2.052C121.966 2.09733 121.937 2.19933 121.937 2.358V10.739C121.937 11.2603 122.011 11.6287 122.158 11.844C122.317 12.048 122.612 12.2067 123.042 12.32L123.399 12.422L123.212 13H119.506L119.302 12.728L119.506 12.422C119.767 12.048 119.96 11.657 120.084 11.249C120.209 10.841 120.271 10.2857 120.271 9.583V2.29C120.271 2.188 120.243 2.08033 120.186 1.967C120.13 1.84233 120.005 1.73467 119.812 1.644C119.631 1.55333 119.342 1.508 118.945 1.508C118.345 1.508 117.84 1.63833 117.432 1.899C117.024 2.14833 116.718 2.48833 116.514 2.919C116.31 3.33833 116.208 3.81433 116.208 4.347C116.208 5.129 116.429 5.76367 116.871 6.251C117.325 6.73833 117.965 6.982 118.792 6.982C119.053 6.982 119.24 6.965 119.353 6.931C119.478 6.897 119.569 6.88 119.625 6.88C119.716 6.88 119.778 6.91967 119.812 6.999C119.846 7.07833 119.863 7.169 119.863 7.271C119.863 7.32767 119.846 7.39567 119.812 7.475C119.778 7.55433 119.693 7.62233 119.557 7.679C119.24 7.79233 119.002 7.90567 118.843 8.019C118.685 8.121 118.537 8.28533 118.401 8.512L116.871 11.249C116.645 11.657 116.424 12.014 116.208 12.32C116.004 12.6147 115.766 12.8413 115.494 13C115.234 13.1587 114.905 13.238 114.508 13.238Z" fill="white"/>
</svg>
