<svg width="366" height="17" viewBox="0 0 366 17" fill="none" xmlns="http://www.w3.org/2000/svg">
<path d="M0.496 13L0.288 12.744L0.496 12.456C0.762667 12.104 0.949333 11.736 1.056 11.352C1.17333 10.9573 1.232 10.4347 1.232 9.784V4.728C1.232 4.088 1.17333 3.57067 1.056 3.176C0.949333 2.78133 0.762667 2.408 0.496 2.056L0.288 1.768L0.496 1.512H9.872L10.08 1.768L9.872 2.056C9.60533 2.408 9.41333 2.78133 9.296 3.176C9.18933 3.57067 9.136 4.088 9.136 4.728V10.984C9.136 11.4533 9.2 11.7787 9.328 11.96C9.46667 12.1307 9.728 12.2747 10.112 12.392L10.464 12.488L10.288 13H6.384L6.176 12.456L6.528 12.36C6.80533 12.2747 7.01867 12.184 7.168 12.088C7.31733 11.992 7.41867 11.8533 7.472 11.672C7.536 11.48 7.568 11.2133 7.568 10.872V3.64C7.568 3.13867 7.49867 2.808 7.36 2.648C7.232 2.488 6.95467 2.408 6.528 2.408H3.824C3.408 2.408 3.13067 2.488 2.992 2.648C2.864 2.808 2.8 3.13867 2.8 3.64V10.872C2.8 11.2133 2.82667 11.48 2.88 11.672C2.944 11.8533 3.05067 11.992 3.2 12.088C3.34933 12.184 3.55733 12.2747 3.824 12.36L4.208 12.456L4.016 13H0.496ZM16.606 13.224C15.4113 13.224 14.4193 12.9573 13.63 12.424C12.8513 11.8907 12.27 11.176 11.886 10.28C11.502 9.37333 11.31 8.37067 11.31 7.272C11.31 6.45067 11.4167 5.67733 11.63 4.952C11.8433 4.22667 12.1687 3.592 12.606 3.048C13.054 2.49333 13.6087 2.06133 14.27 1.752C14.9313 1.44267 15.71 1.288 16.606 1.288C17.502 1.288 18.2807 1.44267 18.942 1.752C19.6033 2.06133 20.1527 2.49333 20.59 3.048C21.038 3.592 21.3687 4.22667 21.582 4.952C21.806 5.67733 21.918 6.45067 21.918 7.272C21.918 8.37067 21.7207 9.37333 21.326 10.28C20.942 11.176 20.3553 11.8907 19.566 12.424C18.7873 12.9573 17.8007 13.224 16.606 13.224ZM16.542 12.28C17.31 12.28 17.966 12.0613 18.51 11.624C19.054 11.176 19.4647 10.5787 19.742 9.832C20.03 9.07467 20.174 8.23733 20.174 7.32C20.174 6.92533 20.1367 6.49867 20.062 6.04C19.998 5.57067 19.886 5.112 19.726 4.664C19.566 4.20533 19.3527 3.79467 19.086 3.432C18.8193 3.05867 18.4887 2.76 18.094 2.536C17.6993 2.312 17.23 2.2 16.686 2.2C15.9073 2.2 15.246 2.44 14.702 2.92C14.158 3.38933 13.742 4.01867 13.454 4.808C13.1767 5.58667 13.038 6.45067 13.038 7.4C13.038 8.30667 13.166 9.128 13.422 9.864C13.6887 10.6 14.0833 11.1867 14.606 11.624C15.1287 12.0613 15.774 12.28 16.542 12.28ZM23.0444 16.088L22.5004 15.896V12.312C23.183 12.216 23.727 11.9493 24.1324 11.512C24.5377 11.0747 24.847 10.4773 25.0604 9.72C25.2844 8.96267 25.4497 8.06133 25.5564 7.016C25.6737 5.97067 25.775 4.792 25.8604 3.48C25.8817 3.04267 25.7857 2.73333 25.5724 2.552C25.3697 2.36 25.1137 2.22667 24.8044 2.152L24.4524 2.056L24.6444 1.512H32.4524L32.6284 1.768L32.4524 2.056C32.1857 2.408 31.9937 2.78133 31.8764 3.176C31.759 3.57067 31.7004 4.088 31.7004 4.728V11.32C31.7004 11.5547 31.7857 11.7467 31.9564 11.896C32.127 12.0453 32.3457 12.1573 32.6124 12.232C32.879 12.296 33.1564 12.328 33.4444 12.328V15.896L32.9004 16.088L32.8044 15.704C32.655 15.1387 32.4897 14.6533 32.3084 14.248C32.127 13.8427 31.887 13.5333 31.5884 13.32C31.3004 13.1067 30.911 13 30.4204 13H25.5244C25.0444 13 24.655 13.1067 24.3564 13.32C24.0684 13.5333 23.8284 13.8427 23.6364 14.248C23.455 14.6533 23.2844 15.1387 23.1244 15.704L23.0444 16.088ZM24.7084 12.088H29.0924C29.519 12.088 29.7964 12.0133 29.9244 11.864C30.063 11.7147 30.1324 11.384 30.1324 10.872V3.64C30.1324 3.13867 30.063 2.808 29.9244 2.648C29.7964 2.488 29.519 2.408 29.0924 2.408H28.1164C27.8177 2.408 27.5777 2.45067 27.3964 2.536C27.215 2.61067 27.1137 2.78133 27.0924 3.048C26.9217 5.65067 26.6604 7.69867 26.3084 9.192C25.9564 10.6853 25.423 11.6507 24.7084 12.088ZM33.8085 13L33.6005 12.744L33.8085 12.456C34.0752 12.104 34.2618 11.736 34.3685 11.352C34.4858 10.9573 34.5445 10.4347 34.5445 9.784V4.728C34.5445 4.088 34.4858 3.57067 34.3685 3.176C34.2618 2.78133 34.0752 2.408 33.8085 2.056L33.6005 1.768L33.8085 1.512H43.1845L43.3925 1.768L43.1845 2.056C42.9178 2.408 42.7258 2.78133 42.6085 3.176C42.5018 3.57067 42.4485 4.088 42.4485 4.728V10.984C42.4485 11.4533 42.5125 11.7787 42.6405 11.96C42.7792 12.1307 43.0405 12.2747 43.4245 12.392L43.7765 12.488L43.6005 13H39.6965L39.4885 12.456L39.8405 12.36C40.1178 12.2747 40.3312 12.184 40.4805 12.088C40.6298 11.992 40.7312 11.8533 40.7845 11.672C40.8485 11.48 40.8805 11.2133 40.8805 10.872V3.64C40.8805 3.13867 40.8112 2.808 40.6725 2.648C40.5445 2.488 40.2672 2.408 39.8405 2.408H37.1365C36.7205 2.408 36.4432 2.488 36.3045 2.648C36.1765 2.808 36.1125 3.13867 36.1125 3.64V10.872C36.1125 11.2133 36.1392 11.48 36.1925 11.672C36.2565 11.8533 36.3632 11.992 36.5125 12.088C36.6618 12.184 36.8698 12.2747 37.1365 12.36L37.5205 12.456L37.3285 13H33.8085ZM44.4305 13L44.2385 12.456L44.6225 12.36C44.8892 12.2747 45.0972 12.184 45.2465 12.088C45.3958 11.992 45.4972 11.8533 45.5505 11.672C45.6145 11.48 45.6465 11.2133 45.6465 10.872V3.64C45.6465 3.13867 45.5772 2.792 45.4385 2.6C45.2998 2.408 45.0278 2.25867 44.6225 2.152L44.2385 2.056L44.4305 1.512H47.9505L48.1585 1.768L47.9505 2.056C47.6838 2.408 47.4972 2.78133 47.3905 3.176C47.2838 3.57067 47.2305 4.088 47.2305 4.728V9.368L52.6225 3.512C52.6118 3.064 52.5318 2.74933 52.3825 2.568C52.2438 2.38667 51.9825 2.248 51.5985 2.152L51.2465 2.056L51.4385 1.512H54.9265L55.1665 1.768L54.9265 2.056C54.6492 2.39733 54.4572 2.77067 54.3505 3.176C54.2438 3.57067 54.1905 4.088 54.1905 4.728V10.984C54.1905 11.4533 54.2598 11.7787 54.3985 11.96C54.5372 12.1413 54.8038 12.2853 55.1985 12.392L55.5185 12.488L55.3585 13H51.4385L51.2465 12.456L51.5985 12.36C52.0038 12.2533 52.2758 12.1093 52.4145 11.928C52.5532 11.736 52.6225 11.384 52.6225 10.872V4.808L47.2305 10.68V10.984C47.2305 11.4533 47.2945 11.7787 47.4225 11.96C47.5612 12.1307 47.8172 12.2747 48.1905 12.392L48.5265 12.488L48.3665 13H44.4305ZM56.5976 13L56.4056 12.456L56.7896 12.36C57.0563 12.2747 57.259 12.184 57.3976 12.088C57.547 11.992 57.6483 11.8533 57.7016 11.672C57.7656 11.48 57.7976 11.2133 57.7976 10.872V3.64C57.7976 3.13867 57.7283 2.792 57.5896 2.6C57.451 2.408 57.1843 2.25867 56.7896 2.152L56.4056 2.056L56.5976 1.512H60.1176L60.3256 1.768L60.1176 2.056C59.8723 2.41867 59.691 2.79733 59.5736 3.192C59.4563 3.576 59.3976 4.088 59.3976 4.728V10.872C59.3976 11.384 59.4616 11.7147 59.5896 11.864C59.7176 12.0133 59.9896 12.088 60.4056 12.088H62.7416C63.1683 12.088 63.4563 12.0133 63.6056 11.864C63.755 11.7147 63.8296 11.384 63.8296 10.872V3.64C63.8296 3.13867 63.7603 2.792 63.6216 2.6C63.483 2.408 63.211 2.25867 62.8056 2.152L62.4216 2.056L62.6296 1.512H66.0856L66.2776 1.768L66.0856 2.056C65.819 2.408 65.627 2.78133 65.5096 3.176C65.3923 3.57067 65.3336 4.088 65.3336 4.728V10.984C65.3336 11.432 65.387 11.7307 65.4936 11.88C65.6003 12.0187 65.819 12.088 66.1496 12.088H68.7736C69.1896 12.088 69.4616 12.0133 69.5896 11.864C69.7176 11.7147 69.7816 11.384 69.7816 10.872V3.64C69.7816 3.13867 69.7123 2.792 69.5736 2.6C69.4456 2.408 69.179 2.25867 68.7736 2.152L68.3896 2.056L68.5656 1.512H72.0856L72.2936 1.768L72.0856 2.056C71.8403 2.41867 71.659 2.79733 71.5416 3.192C71.435 3.576 71.3816 4.088 71.3816 4.728V10.984C71.3816 11.4533 71.4456 11.7787 71.5736 11.96C71.7016 12.1413 71.9576 12.2853 72.3416 12.392L72.6776 12.488L72.5016 13H56.5976ZM73.7586 13L73.5666 12.456L73.9506 12.36C74.2173 12.2747 74.4253 12.184 74.5746 12.088C74.724 11.992 74.8253 11.8533 74.8786 11.672C74.9426 11.48 74.9746 11.2133 74.9746 10.872V3.64C74.9746 3.13867 74.9053 2.792 74.7666 2.6C74.628 2.408 74.356 2.25867 73.9506 2.152L73.5666 2.056L73.7586 1.512H77.2786L77.4866 1.768L77.2786 2.056C77.012 2.408 76.8253 2.78133 76.7186 3.176C76.612 3.57067 76.5586 4.088 76.5586 4.728V9.368L81.9506 3.512C81.94 3.064 81.86 2.74933 81.7106 2.568C81.572 2.38667 81.3106 2.248 80.9266 2.152L80.5746 2.056L80.7666 1.512H84.2546L84.4946 1.768L84.2546 2.056C83.9773 2.39733 83.7853 2.77067 83.6786 3.176C83.572 3.57067 83.5186 4.088 83.5186 4.728V10.984C83.5186 11.4533 83.588 11.7787 83.7266 11.96C83.8653 12.1413 84.132 12.2853 84.5266 12.392L84.8466 12.488L84.6866 13H80.7666L80.5746 12.456L80.9266 12.36C81.332 12.2533 81.604 12.1093 81.7426 11.928C81.8813 11.736 81.9506 11.384 81.9506 10.872V4.808L76.5586 10.68V10.984C76.5586 11.4533 76.6226 11.7787 76.7506 11.96C76.8893 12.1307 77.1453 12.2747 77.5186 12.392L77.8546 12.488L77.6946 13H73.7586ZM88.3418 13L88.1338 12.744L88.3418 12.456C88.6084 12.104 88.7951 11.736 88.9018 11.352C89.0084 10.9573 89.0618 10.4347 89.0618 9.784V3.64C89.0618 3.13867 89.0244 2.81333 88.9498 2.664C88.8858 2.504 88.7418 2.424 88.5178 2.424H87.7978C87.4244 2.424 87.1258 2.46667 86.9018 2.552C86.6884 2.62667 86.5178 2.76533 86.3898 2.968C86.2724 3.17067 86.1604 3.464 86.0538 3.848L85.9578 4.216L85.4138 4.024V1.176L85.6698 0.967999L85.9578 1.176C86.2564 1.4 86.8644 1.512 87.7818 1.512H91.9258C92.8431 1.512 93.4511 1.4 93.7498 1.176L94.0378 0.967999L94.2938 1.176V4.024L93.7498 4.216L93.6538 3.848C93.5578 3.464 93.4458 3.17067 93.3177 2.968C93.1898 2.76533 93.0191 2.62667 92.8058 2.552C92.5924 2.46667 92.2938 2.424 91.9098 2.424H91.1898C90.9658 2.424 90.8164 2.504 90.7418 2.664C90.6778 2.81333 90.6458 3.13867 90.6458 3.64V10.872C90.6458 11.3627 90.7151 11.704 90.8538 11.896C91.0031 12.088 91.2751 12.2427 91.6698 12.36L92.0378 12.456L91.8458 13H88.3418ZM103.041 13.4L102.913 13.224C102.796 13.0747 102.572 13 102.241 13H95.5054L95.3294 12.488L95.6654 12.392C96.0494 12.2747 96.3054 12.1307 96.4334 11.96C96.572 11.7787 96.6414 11.4533 96.6414 10.984V4.728C96.6414 4.07733 96.5827 3.56 96.4654 3.176C96.3587 2.792 96.1774 2.41867 95.9214 2.056L95.7134 1.768L95.9214 1.512H100.817C101.735 1.512 102.343 1.4 102.641 1.176L102.929 0.967999L103.185 1.176V4.024L102.641 4.216L102.545 3.848C102.449 3.464 102.337 3.17067 102.209 2.968C102.081 2.76533 101.911 2.62667 101.697 2.552C101.484 2.46667 101.185 2.424 100.801 2.424H99.2494C98.8334 2.424 98.556 2.504 98.4174 2.664C98.2894 2.81333 98.2254 3.13867 98.2254 3.64V6.712H100.257C100.503 6.712 100.721 6.65867 100.913 6.552C101.116 6.44533 101.319 6.25333 101.521 5.976L101.649 5.8L101.969 5.976V8.712L101.425 8.904L101.329 8.536C101.233 8.16267 101.057 7.91733 100.801 7.8C100.556 7.68267 100.151 7.624 99.5854 7.624H98.2254V10.872C98.2254 11.3627 98.2894 11.688 98.4174 11.848C98.556 12.008 98.8334 12.088 99.2494 12.088H100.977C101.361 12.088 101.66 12.0507 101.873 11.976C102.087 11.8907 102.257 11.7467 102.385 11.544C102.513 11.3307 102.625 11.0373 102.721 10.664L102.817 10.296L103.361 10.488V13.224L103.041 13.4ZM110.055 13.224C109.191 13.224 108.439 13.0693 107.799 12.76C107.159 12.4507 106.626 12.024 106.199 11.48C105.772 10.936 105.452 10.3067 105.239 9.592C105.036 8.86667 104.935 8.09333 104.935 7.272C104.935 6.45067 105.036 5.67733 105.239 4.952C105.452 4.22667 105.772 3.592 106.199 3.048C106.626 2.49333 107.164 2.06133 107.815 1.752C108.466 1.44267 109.228 1.288 110.103 1.288C110.807 1.288 111.431 1.38933 111.975 1.592C112.519 1.784 112.94 2.056 113.239 2.408C113.548 2.76 113.703 3.17067 113.703 3.64C113.703 4.19467 113.538 4.648 113.207 5C112.887 5.34133 112.482 5.512 111.991 5.512C111.767 5.512 111.655 5.448 111.655 5.32C111.655 5.26667 111.692 5.18667 111.767 5.08C111.852 4.96267 111.932 4.808 112.007 4.616C112.092 4.41333 112.135 4.16267 112.135 3.864C112.135 3.36267 111.948 2.95733 111.575 2.648C111.202 2.33867 110.711 2.184 110.103 2.184C109.474 2.184 108.946 2.33333 108.519 2.632C108.092 2.93067 107.746 3.33067 107.479 3.832C107.223 4.32267 107.036 4.872 106.919 5.48C106.802 6.07733 106.743 6.67467 106.743 7.272C106.743 8.15733 106.882 8.968 107.159 9.704C107.436 10.44 107.831 11.0267 108.343 11.464C108.866 11.9013 109.484 12.12 110.199 12.12C110.903 12.12 111.506 11.992 112.007 11.736C112.508 11.4693 112.908 11.1173 113.207 10.68C113.239 10.6373 113.276 10.616 113.319 10.616C113.415 10.616 113.522 10.664 113.639 10.76C113.767 10.856 113.831 10.9573 113.831 11.064C113.831 11.096 113.815 11.1387 113.783 11.192C113.367 11.8107 112.855 12.3067 112.247 12.68C111.639 13.0427 110.908 13.224 110.055 13.224ZM115.082 13L114.89 12.456L115.274 12.36C115.669 12.2533 115.935 12.104 116.074 11.912C116.213 11.7093 116.282 11.3627 116.282 10.872V3.64C116.282 3.16 116.213 2.81867 116.074 2.616C115.935 2.41333 115.669 2.25867 115.274 2.152L114.89 2.056L115.082 1.512H118.602L118.81 1.768L118.602 2.056C118.335 2.41867 118.143 2.79733 118.026 3.192C117.919 3.576 117.866 4.088 117.866 4.728V10.072C117.866 10.5733 117.925 10.968 118.042 11.256C118.17 11.544 118.33 11.752 118.522 11.88C118.714 12.008 118.911 12.088 119.114 12.12C119.317 12.152 119.493 12.168 119.642 12.168C120.41 12.168 121.002 11.9227 121.418 11.432C121.834 10.9413 122.042 10.3173 122.042 9.56C122.042 9.10133 121.935 8.68533 121.722 8.312C121.509 7.93867 121.21 7.64 120.826 7.416C120.453 7.192 120.01 7.08 119.498 7.08C119.167 7.08 118.933 7.10667 118.794 7.16C118.655 7.20267 118.538 7.224 118.442 7.224C118.367 7.224 118.309 7.18667 118.266 7.112C118.234 7.03733 118.218 6.952 118.218 6.856C118.218 6.65333 118.378 6.50933 118.698 6.424C119.018 6.33867 119.375 6.296 119.77 6.296C120.581 6.296 121.279 6.45067 121.866 6.76C122.453 7.06933 122.906 7.48 123.226 7.992C123.546 8.49333 123.706 9.04267 123.706 9.64C123.706 10.2907 123.573 10.872 123.306 11.384C123.039 11.8853 122.602 12.28 121.994 12.568C121.386 12.856 120.57 13 119.546 13H115.082ZM129.301 13L129.109 12.456L129.477 12.36C129.882 12.2427 130.154 12.088 130.293 11.896C130.431 11.704 130.501 11.3627 130.501 10.872V3.64C130.501 3.13867 130.431 2.79733 130.293 2.616C130.154 2.424 129.882 2.26933 129.477 2.152L129.109 2.056L129.301 1.512H132.805L133.013 1.768L132.805 2.056C132.538 2.408 132.351 2.78133 132.245 3.176C132.138 3.56 132.085 4.07733 132.085 4.728V6.68H137.317V3.64C137.317 3.13867 137.247 2.79733 137.109 2.616C136.97 2.424 136.698 2.26933 136.293 2.152L135.925 2.056L136.117 1.512H139.621L139.829 1.768L139.621 2.056C139.354 2.408 139.167 2.78133 139.061 3.176C138.954 3.56 138.901 4.07733 138.901 4.728V10.984C138.901 11.4533 138.965 11.7787 139.093 11.96C139.231 12.1307 139.493 12.2747 139.877 12.392L140.213 12.488L140.037 13H136.117L135.925 12.456L136.293 12.36C136.698 12.2427 136.97 12.088 137.109 11.896C137.247 11.704 137.317 11.3627 137.317 10.872V7.656H132.085V10.984C132.085 11.4533 132.149 11.7787 132.277 11.96C132.415 12.1307 132.677 12.2747 133.061 12.392L133.397 12.488L133.221 13H129.301ZM140.873 13L140.681 12.456L141.05 12.36C141.338 12.2853 141.567 12.1947 141.738 12.088C141.908 11.9813 142.052 11.8373 142.17 11.656C142.298 11.464 142.415 11.2027 142.522 10.872L145.034 3.64C145.087 3.46933 145.13 3.32533 145.161 3.208C145.194 3.08 145.21 2.96267 145.21 2.856C145.21 2.65333 145.151 2.504 145.034 2.408C144.916 2.30133 144.735 2.216 144.49 2.152L144.122 2.056L144.314 1.512H147.402L150.618 10.792C150.746 11.144 150.874 11.432 151.002 11.656C151.14 11.88 151.295 12.072 151.466 12.232C151.636 12.392 151.834 12.5627 152.058 12.744L151.85 13H148.25L148.058 12.456L148.426 12.36C148.671 12.296 148.852 12.216 148.97 12.12C149.087 12.0133 149.146 11.8587 149.146 11.656C149.146 11.5493 149.13 11.4373 149.098 11.32C149.066 11.192 149.023 11.0427 148.97 10.872L148.202 8.632H144.506L144.122 9.8C144.004 10.1627 143.914 10.4773 143.85 10.744C143.786 11.0107 143.754 11.256 143.754 11.48C143.754 11.8427 143.828 12.168 143.978 12.456L144.122 12.744L143.818 13H140.873ZM144.842 7.64H147.866L146.33 3.16L144.842 7.64ZM157.473 13L157.281 12.456L157.649 12.36C158.054 12.2427 158.326 12.088 158.465 11.896C158.603 11.704 158.673 11.3627 158.673 10.872V3.64C158.673 3.13867 158.603 2.79733 158.465 2.616C158.326 2.424 158.054 2.26933 157.649 2.152L157.281 2.056L157.473 1.512H160.977L161.185 1.768L160.977 2.056C160.71 2.408 160.523 2.78133 160.417 3.176C160.31 3.56 160.257 4.07733 160.257 4.728V6.68H165.489V3.64C165.489 3.13867 165.419 2.79733 165.281 2.616C165.142 2.424 164.87 2.26933 164.465 2.152L164.097 2.056L164.289 1.512H167.793L168.001 1.768L167.793 2.056C167.526 2.408 167.339 2.78133 167.233 3.176C167.126 3.56 167.073 4.07733 167.073 4.728V10.984C167.073 11.4533 167.137 11.7787 167.265 11.96C167.403 12.1307 167.665 12.2747 168.049 12.392L168.385 12.488L168.209 13H164.289L164.097 12.456L164.465 12.36C164.87 12.2427 165.142 12.088 165.281 11.896C165.419 11.704 165.489 11.3627 165.489 10.872V7.656H160.257V10.984C160.257 11.4533 160.321 11.7787 160.449 11.96C160.587 12.1307 160.849 12.2747 161.233 12.392L161.569 12.488L161.393 13H157.473ZM174.965 13.224C173.771 13.224 172.779 12.9573 171.989 12.424C171.211 11.8907 170.629 11.176 170.245 10.28C169.861 9.37333 169.669 8.37067 169.669 7.272C169.669 6.45067 169.776 5.67733 169.989 4.952C170.203 4.22667 170.528 3.592 170.965 3.048C171.413 2.49333 171.968 2.06133 172.629 1.752C173.291 1.44267 174.069 1.288 174.965 1.288C175.861 1.288 176.64 1.44267 177.301 1.752C177.963 2.06133 178.512 2.49333 178.949 3.048C179.397 3.592 179.728 4.22667 179.941 4.952C180.165 5.67733 180.277 6.45067 180.277 7.272C180.277 8.37067 180.08 9.37333 179.685 10.28C179.301 11.176 178.715 11.8907 177.925 12.424C177.147 12.9573 176.16 13.224 174.965 13.224ZM174.901 12.28C175.669 12.28 176.325 12.0613 176.869 11.624C177.413 11.176 177.824 10.5787 178.101 9.832C178.389 9.07467 178.533 8.23733 178.533 7.32C178.533 6.92533 178.496 6.49867 178.421 6.04C178.357 5.57067 178.245 5.112 178.085 4.664C177.925 4.20533 177.712 3.79467 177.445 3.432C177.179 3.05867 176.848 2.76 176.453 2.536C176.059 2.312 175.589 2.2 175.045 2.2C174.267 2.2 173.605 2.44 173.061 2.92C172.517 3.38933 172.101 4.01867 171.813 4.808C171.536 5.58667 171.397 6.45067 171.397 7.4C171.397 8.30667 171.525 9.128 171.781 9.864C172.048 10.6 172.443 11.1867 172.965 11.624C173.488 12.0613 174.133 12.28 174.901 12.28ZM181.756 13L181.564 12.456L181.932 12.36C182.337 12.2427 182.609 12.088 182.748 11.896C182.886 11.704 182.956 11.3627 182.956 10.872V2.968C182.956 2.712 182.838 2.584 182.604 2.584H181.676L181.484 1.992C181.761 1.88533 182.113 1.77867 182.54 1.672C182.977 1.56533 183.446 1.47467 183.948 1.4C184.46 1.32533 184.961 1.288 185.452 1.288C186.486 1.288 187.318 1.432 187.948 1.72C188.588 1.99733 189.052 2.376 189.34 2.856C189.638 3.336 189.788 3.864 189.788 4.44C189.788 5.00533 189.649 5.53333 189.372 6.024C189.105 6.51467 188.684 6.89867 188.108 7.176C188.833 7.41067 189.393 7.77333 189.788 8.264C190.182 8.744 190.38 9.272 190.38 9.848C190.38 10.456 190.241 11 189.964 11.48C189.697 11.9493 189.26 12.3227 188.652 12.6C188.044 12.8667 187.233 13 186.22 13H181.756ZM186.316 12.168C187.084 12.168 187.676 11.944 188.092 11.496C188.508 11.0373 188.716 10.4613 188.716 9.768C188.716 9.36267 188.614 8.99467 188.412 8.664C188.209 8.32267 187.916 8.05067 187.532 7.848C187.158 7.64533 186.705 7.544 186.172 7.544C185.98 7.544 185.788 7.52267 185.596 7.48C185.404 7.43733 185.249 7.38933 185.132 7.336C185.046 7.29333 184.982 7.24 184.94 7.176C184.908 7.112 184.892 7.048 184.892 6.984C184.892 6.792 184.966 6.696 185.116 6.696C185.18 6.696 185.265 6.71733 185.372 6.76C185.489 6.792 185.67 6.808 185.916 6.808C186.652 6.808 187.217 6.58933 187.612 6.152C188.006 5.71467 188.204 5.15467 188.204 4.472C188.204 3.82133 187.985 3.27733 187.548 2.84C187.11 2.40267 186.465 2.184 185.612 2.184C185.292 2.184 185.057 2.22667 184.908 2.312C184.758 2.38667 184.657 2.48267 184.604 2.6C184.561 2.71733 184.54 2.824 184.54 2.92V10.072C184.54 10.5733 184.598 10.968 184.716 11.256C184.844 11.5333 185.004 11.7413 185.196 11.88C185.388 12.008 185.58 12.088 185.772 12.12C185.974 12.152 186.156 12.168 186.316 12.168ZM197.122 13.224C195.927 13.224 194.935 12.9573 194.146 12.424C193.367 11.8907 192.786 11.176 192.402 10.28C192.018 9.37333 191.826 8.37067 191.826 7.272C191.826 6.45067 191.932 5.67733 192.146 4.952C192.359 4.22667 192.684 3.592 193.122 3.048C193.57 2.49333 194.124 2.06133 194.786 1.752C195.447 1.44267 196.226 1.288 197.122 1.288C198.018 1.288 198.796 1.44267 199.458 1.752C200.119 2.06133 200.668 2.49333 201.106 3.048C201.554 3.592 201.884 4.22667 202.098 4.952C202.322 5.67733 202.434 6.45067 202.434 7.272C202.434 8.37067 202.236 9.37333 201.842 10.28C201.458 11.176 200.871 11.8907 200.082 12.424C199.303 12.9573 198.316 13.224 197.122 13.224ZM197.058 12.28C197.826 12.28 198.482 12.0613 199.026 11.624C199.57 11.176 199.98 10.5787 200.258 9.832C200.546 9.07467 200.69 8.23733 200.69 7.32C200.69 6.92533 200.652 6.49867 200.578 6.04C200.514 5.57067 200.402 5.112 200.242 4.664C200.082 4.20533 199.868 3.79467 199.602 3.432C199.335 3.05867 199.004 2.76 198.61 2.536C198.215 2.312 197.746 2.2 197.202 2.2C196.423 2.2 195.762 2.44 195.218 2.92C194.674 3.38933 194.258 4.01867 193.97 4.808C193.692 5.58667 193.554 6.45067 193.554 7.4C193.554 8.30667 193.682 9.128 193.938 9.864C194.204 10.6 194.599 11.1867 195.122 11.624C195.644 12.0613 196.29 12.28 197.058 12.28ZM208.68 13.224C207.816 13.224 207.064 13.0693 206.424 12.76C205.784 12.4507 205.251 12.024 204.824 11.48C204.397 10.936 204.077 10.3067 203.864 9.592C203.661 8.86667 203.56 8.09333 203.56 7.272C203.56 6.45067 203.661 5.67733 203.864 4.952C204.077 4.22667 204.397 3.592 204.824 3.048C205.251 2.49333 205.789 2.06133 206.44 1.752C207.091 1.44267 207.853 1.288 208.728 1.288C209.432 1.288 210.056 1.38933 210.6 1.592C211.144 1.784 211.565 2.056 211.864 2.408C212.173 2.76 212.328 3.17067 212.328 3.64C212.328 4.19467 212.163 4.648 211.832 5C211.512 5.34133 211.107 5.512 210.616 5.512C210.392 5.512 210.28 5.448 210.28 5.32C210.28 5.26667 210.317 5.18667 210.392 5.08C210.477 4.96267 210.557 4.808 210.632 4.616C210.717 4.41333 210.76 4.16267 210.76 3.864C210.76 3.36267 210.573 2.95733 210.2 2.648C209.827 2.33867 209.336 2.184 208.728 2.184C208.099 2.184 207.571 2.33333 207.144 2.632C206.717 2.93067 206.371 3.33067 206.104 3.832C205.848 4.32267 205.661 4.872 205.544 5.48C205.427 6.07733 205.368 6.67467 205.368 7.272C205.368 8.15733 205.507 8.968 205.784 9.704C206.061 10.44 206.456 11.0267 206.968 11.464C207.491 11.9013 208.109 12.12 208.824 12.12C209.528 12.12 210.131 11.992 210.632 11.736C211.133 11.4693 211.533 11.1173 211.832 10.68C211.864 10.6373 211.901 10.616 211.944 10.616C212.04 10.616 212.147 10.664 212.264 10.76C212.392 10.856 212.456 10.9573 212.456 11.064C212.456 11.096 212.44 11.1387 212.408 11.192C211.992 11.8107 211.48 12.3067 210.872 12.68C210.264 13.0427 209.533 13.224 208.68 13.224ZM216.123 13L215.915 12.744L216.123 12.456C216.39 12.104 216.576 11.736 216.683 11.352C216.79 10.9573 216.843 10.4347 216.843 9.784V3.64C216.843 3.13867 216.806 2.81333 216.731 2.664C216.667 2.504 216.523 2.424 216.299 2.424H215.579C215.206 2.424 214.907 2.46667 214.683 2.552C214.47 2.62667 214.299 2.76533 214.171 2.968C214.054 3.17067 213.942 3.464 213.835 3.848L213.739 4.216L213.195 4.024V1.176L213.451 0.967999L213.739 1.176C214.038 1.4 214.646 1.512 215.563 1.512H219.707C220.624 1.512 221.232 1.4 221.531 1.176L221.819 0.967999L222.075 1.176V4.024L221.531 4.216L221.435 3.848C221.339 3.464 221.227 3.17067 221.099 2.968C220.971 2.76533 220.8 2.62667 220.587 2.552C220.374 2.46667 220.075 2.424 219.691 2.424H218.971C218.747 2.424 218.598 2.504 218.523 2.664C218.459 2.81333 218.427 3.13867 218.427 3.64V10.872C218.427 11.3627 218.496 11.704 218.635 11.896C218.784 12.088 219.056 12.2427 219.451 12.36L219.819 12.456L219.627 13H216.123ZM222.759 13L222.567 12.456L222.951 12.36C223.217 12.2747 223.425 12.184 223.575 12.088C223.724 11.992 223.825 11.8533 223.879 11.672C223.943 11.48 223.975 11.2133 223.975 10.872V3.64C223.975 3.13867 223.905 2.792 223.767 2.6C223.628 2.408 223.356 2.25867 222.951 2.152L222.567 2.056L222.759 1.512H226.279L226.487 1.768L226.279 2.056C226.012 2.408 225.825 2.78133 225.719 3.176C225.612 3.57067 225.559 4.088 225.559 4.728V9.368L230.951 3.512C230.94 3.064 230.86 2.74933 230.711 2.568C230.572 2.38667 230.311 2.248 229.927 2.152L229.575 2.056L229.767 1.512H233.255L233.495 1.768L233.255 2.056C232.977 2.39733 232.785 2.77067 232.679 3.176C232.572 3.57067 232.519 4.088 232.519 4.728V10.984C232.519 11.4533 232.588 11.7787 232.727 11.96C232.865 12.1413 233.132 12.2853 233.527 12.392L233.847 12.488L233.687 13H229.767L229.575 12.456L229.927 12.36C230.332 12.2533 230.604 12.1093 230.743 11.928C230.881 11.736 230.951 11.384 230.951 10.872V4.808L225.559 10.68V10.984C225.559 11.4533 225.623 11.7787 225.751 11.96C225.889 12.1307 226.145 12.2747 226.519 12.392L226.855 12.488L226.695 13H222.759ZM238.868 13L238.676 12.456L239.06 12.36C239.327 12.2747 239.535 12.184 239.684 12.088C239.833 11.992 239.935 11.8533 239.988 11.672C240.052 11.48 240.084 11.2133 240.084 10.872V3.64C240.084 3.13867 240.015 2.792 239.876 2.6C239.737 2.408 239.465 2.25867 239.06 2.152L238.676 2.056L238.868 1.512H242.388L242.596 1.768L242.388 2.056C242.121 2.408 241.935 2.78133 241.828 3.176C241.721 3.57067 241.668 4.088 241.668 4.728V9.368L247.06 3.512C247.049 3.064 246.969 2.74933 246.82 2.568C246.681 2.38667 246.42 2.248 246.036 2.152L245.684 2.056L245.876 1.512H249.364L249.604 1.768L249.364 2.056C249.087 2.39733 248.895 2.77067 248.788 3.176C248.681 3.57067 248.628 4.088 248.628 4.728V10.984C248.628 11.4533 248.697 11.7787 248.836 11.96C248.975 12.1413 249.241 12.2853 249.636 12.392L249.956 12.488L249.796 13H245.876L245.684 12.456L246.036 12.36C246.441 12.2533 246.713 12.1093 246.852 11.928C246.991 11.736 247.06 11.384 247.06 10.872V4.808L241.668 10.68V10.984C241.668 11.4533 241.732 11.7787 241.86 11.96C241.999 12.1307 242.255 12.2747 242.628 12.392L242.964 12.488L242.804 13H238.868ZM260.465 13.224C259.271 13.224 258.279 12.9573 257.489 12.424C256.711 11.8907 256.129 11.176 255.745 10.28C255.361 9.37333 255.169 8.37067 255.169 7.272C255.169 6.45067 255.276 5.67733 255.489 4.952C255.703 4.22667 256.028 3.592 256.465 3.048C256.913 2.49333 257.468 2.06133 258.129 1.752C258.791 1.44267 259.569 1.288 260.465 1.288C261.361 1.288 262.14 1.44267 262.801 1.752C263.463 2.06133 264.012 2.49333 264.449 3.048C264.897 3.592 265.228 4.22667 265.441 4.952C265.665 5.67733 265.777 6.45067 265.777 7.272C265.777 8.37067 265.58 9.37333 265.185 10.28C264.801 11.176 264.215 11.8907 263.425 12.424C262.647 12.9573 261.66 13.224 260.465 13.224ZM260.401 12.28C261.169 12.28 261.825 12.0613 262.369 11.624C262.913 11.176 263.324 10.5787 263.601 9.832C263.889 9.07467 264.033 8.23733 264.033 7.32C264.033 6.92533 263.996 6.49867 263.921 6.04C263.857 5.57067 263.745 5.112 263.585 4.664C263.425 4.20533 263.212 3.79467 262.945 3.432C262.679 3.05867 262.348 2.76 261.953 2.536C261.559 2.312 261.089 2.2 260.545 2.2C259.767 2.2 259.105 2.44 258.561 2.92C258.017 3.38933 257.601 4.01867 257.313 4.808C257.036 5.58667 256.897 6.45067 256.897 7.4C256.897 8.30667 257.025 9.128 257.281 9.864C257.548 10.6 257.943 11.1867 258.465 11.624C258.988 12.0613 259.633 12.28 260.401 12.28ZM267.192 13L266.984 12.456L267.352 12.36C267.618 12.2747 267.826 12.184 267.976 12.088C268.125 11.992 268.226 11.8533 268.28 11.672C268.344 11.48 268.376 11.2133 268.376 10.872V4.728C268.376 4.088 268.322 3.57067 268.216 3.176C268.109 2.78133 267.928 2.408 267.672 2.056L267.464 1.768L267.672 1.512H272.568C273.026 1.512 273.405 1.49067 273.704 1.448C274.002 1.39467 274.226 1.30933 274.376 1.192L274.664 0.983999L274.936 1.192V4.024L274.376 4.216L274.296 3.848C274.189 3.464 274.072 3.17067 273.944 2.968C273.816 2.75467 273.645 2.61067 273.432 2.536C273.218 2.45067 272.925 2.408 272.552 2.408H270.984C270.568 2.408 270.296 2.488 270.168 2.648C270.04 2.808 269.976 3.13867 269.976 3.64V10.072C269.976 10.5733 270.034 10.968 270.152 11.256C270.28 11.544 270.434 11.752 270.616 11.88C270.808 12.008 271 12.088 271.192 12.12C271.394 12.152 271.576 12.168 271.736 12.168C272.504 12.168 273.096 11.9227 273.512 11.432C273.928 10.9413 274.136 10.3173 274.136 9.56C274.136 9.10133 274.029 8.68533 273.816 8.312C273.613 7.93867 273.325 7.64 272.952 7.416C272.578 7.192 272.136 7.08 271.624 7.08C271.293 7.08 271.053 7.10667 270.904 7.16C270.765 7.20267 270.642 7.224 270.536 7.224C270.461 7.224 270.402 7.18667 270.36 7.112C270.328 7.03733 270.312 6.952 270.312 6.856C270.312 6.65333 270.472 6.50933 270.792 6.424C271.112 6.33867 271.469 6.296 271.864 6.296C272.674 6.296 273.373 6.45067 273.96 6.76C274.546 7.06933 275 7.48 275.32 7.992C275.64 8.49333 275.8 9.04267 275.8 9.64C275.8 10.2907 275.666 10.872 275.4 11.384C275.133 11.8853 274.696 12.28 274.088 12.568C273.49 12.856 272.68 13 271.656 13H267.192ZM277.129 13L276.937 12.456L277.305 12.36C277.71 12.2427 277.982 12.088 278.121 11.896C278.26 11.704 278.329 11.3627 278.329 10.872V3.64C278.329 3.13867 278.26 2.79733 278.121 2.616C277.982 2.424 277.71 2.26933 277.305 2.152L276.937 2.056L277.129 1.512H280.633L280.841 1.768L280.633 2.056C280.366 2.408 280.18 2.78133 280.073 3.176C279.966 3.56 279.913 4.07733 279.913 4.728V6.68H285.145V3.64C285.145 3.13867 285.076 2.79733 284.937 2.616C284.798 2.424 284.526 2.26933 284.121 2.152L283.753 2.056L283.945 1.512H287.449L287.657 1.768L287.449 2.056C287.182 2.408 286.996 2.78133 286.889 3.176C286.782 3.56 286.729 4.07733 286.729 4.728V10.984C286.729 11.4533 286.793 11.7787 286.921 11.96C287.06 12.1307 287.321 12.2747 287.705 12.392L288.041 12.488L287.865 13H283.945L283.753 12.456L284.121 12.36C284.526 12.2427 284.798 12.088 284.937 11.896C285.076 11.704 285.145 11.3627 285.145 10.872V7.656H279.913V10.984C279.913 11.4533 279.977 11.7787 280.105 11.96C280.244 12.1307 280.505 12.2747 280.889 12.392L281.225 12.488L281.049 13H277.129ZM294.622 13.224C293.427 13.224 292.435 12.9573 291.646 12.424C290.867 11.8907 290.286 11.176 289.902 10.28C289.518 9.37333 289.326 8.37067 289.326 7.272C289.326 6.45067 289.432 5.67733 289.646 4.952C289.859 4.22667 290.184 3.592 290.622 3.048C291.07 2.49333 291.624 2.06133 292.286 1.752C292.947 1.44267 293.726 1.288 294.622 1.288C295.518 1.288 296.296 1.44267 296.958 1.752C297.619 2.06133 298.168 2.49333 298.606 3.048C299.054 3.592 299.384 4.22667 299.598 4.952C299.822 5.67733 299.934 6.45067 299.934 7.272C299.934 8.37067 299.736 9.37333 299.342 10.28C298.958 11.176 298.371 11.8907 297.582 12.424C296.803 12.9573 295.816 13.224 294.622 13.224ZM294.558 12.28C295.326 12.28 295.982 12.0613 296.526 11.624C297.07 11.176 297.48 10.5787 297.758 9.832C298.046 9.07467 298.19 8.23733 298.19 7.32C298.19 6.92533 298.152 6.49867 298.078 6.04C298.014 5.57067 297.902 5.112 297.742 4.664C297.582 4.20533 297.368 3.79467 297.102 3.432C296.835 3.05867 296.504 2.76 296.11 2.536C295.715 2.312 295.246 2.2 294.702 2.2C293.923 2.2 293.262 2.44 292.718 2.92C292.174 3.38933 291.758 4.01867 291.47 4.808C291.192 5.58667 291.054 6.45067 291.054 7.4C291.054 8.30667 291.182 9.128 291.438 9.864C291.704 10.6 292.099 11.1867 292.622 11.624C293.144 12.0613 293.79 12.28 294.558 12.28ZM301.412 13L301.22 12.456L301.588 12.36C301.993 12.2427 302.265 12.088 302.404 11.896C302.543 11.704 302.612 11.3627 302.612 10.872V2.968C302.612 2.712 302.495 2.584 302.26 2.584H301.332L301.14 1.992C301.417 1.88533 301.769 1.77867 302.196 1.672C302.633 1.56533 303.103 1.47467 303.604 1.4C304.116 1.32533 304.617 1.288 305.108 1.288C306.143 1.288 306.975 1.432 307.604 1.72C308.244 1.99733 308.708 2.376 308.996 2.856C309.295 3.336 309.444 3.864 309.444 4.44C309.444 5.00533 309.305 5.53333 309.028 6.024C308.761 6.51467 308.34 6.89867 307.764 7.176C308.489 7.41067 309.049 7.77333 309.444 8.264C309.839 8.744 310.036 9.272 310.036 9.848C310.036 10.456 309.897 11 309.62 11.48C309.353 11.9493 308.916 12.3227 308.308 12.6C307.7 12.8667 306.889 13 305.876 13H301.412ZM305.972 12.168C306.74 12.168 307.332 11.944 307.748 11.496C308.164 11.0373 308.372 10.4613 308.372 9.768C308.372 9.36267 308.271 8.99467 308.068 8.664C307.865 8.32267 307.572 8.05067 307.188 7.848C306.815 7.64533 306.361 7.544 305.828 7.544C305.636 7.544 305.444 7.52267 305.252 7.48C305.06 7.43733 304.905 7.38933 304.788 7.336C304.703 7.29333 304.639 7.24 304.596 7.176C304.564 7.112 304.548 7.048 304.548 6.984C304.548 6.792 304.623 6.696 304.772 6.696C304.836 6.696 304.921 6.71733 305.028 6.76C305.145 6.792 305.327 6.808 305.572 6.808C306.308 6.808 306.873 6.58933 307.268 6.152C307.663 5.71467 307.86 5.15467 307.86 4.472C307.86 3.82133 307.641 3.27733 307.204 2.84C306.767 2.40267 306.121 2.184 305.268 2.184C304.948 2.184 304.713 2.22667 304.564 2.312C304.415 2.38667 304.313 2.48267 304.26 2.6C304.217 2.71733 304.196 2.824 304.196 2.92V10.072C304.196 10.5733 304.255 10.968 304.372 11.256C304.5 11.5333 304.66 11.7413 304.852 11.88C305.044 12.008 305.236 12.088 305.428 12.12C305.631 12.152 305.812 12.168 305.972 12.168ZM312.33 13.224C311.893 13.224 311.503 13.0907 311.162 12.824C310.831 12.5573 310.666 12.1573 310.666 11.624C310.666 11.304 310.746 11.0587 310.906 10.888C311.055 10.7173 311.231 10.632 311.434 10.632C311.679 10.632 311.85 10.824 311.946 11.208C311.989 11.3893 312.058 11.56 312.154 11.72C312.25 11.88 312.389 11.96 312.57 11.96C312.986 11.96 313.338 11.688 313.626 11.144C313.914 10.6 314.165 9.72 314.378 8.504C314.602 7.27733 314.805 5.66133 314.986 3.656C315.029 3.18667 314.943 2.83467 314.73 2.6C314.527 2.36533 314.234 2.21067 313.85 2.136L313.466 2.056L313.674 1.512H320.858L321.05 1.768L320.858 2.056C320.591 2.408 320.399 2.78133 320.282 3.176C320.175 3.57067 320.122 4.088 320.122 4.728V10.984C320.122 11.4533 320.186 11.7787 320.314 11.96C320.442 12.1307 320.703 12.2747 321.098 12.392L321.418 12.488L321.258 13H317.338L317.146 12.456L317.514 12.36C317.781 12.2747 317.989 12.184 318.138 12.088C318.287 11.992 318.389 11.8533 318.442 11.672C318.506 11.48 318.538 11.2133 318.538 10.872V3.64C318.538 3.13867 318.469 2.808 318.33 2.648C318.202 2.488 317.93 2.408 317.514 2.408H317.05C316.762 2.408 316.527 2.45067 316.346 2.536C316.175 2.61067 316.079 2.78133 316.058 3.048C315.919 4.72267 315.759 6.14667 315.578 7.32C315.397 8.49333 315.194 9.46933 314.97 10.248C314.757 11.016 314.511 11.6187 314.234 12.056C313.967 12.4827 313.674 12.7867 313.354 12.968C313.045 13.1387 312.703 13.224 312.33 13.224ZM330.135 13.4L330.007 13.224C329.89 13.0747 329.666 13 329.335 13H322.599L322.423 12.488L322.759 12.392C323.143 12.2747 323.399 12.1307 323.527 11.96C323.666 11.7787 323.735 11.4533 323.735 10.984V4.728C323.735 4.07733 323.676 3.56 323.559 3.176C323.452 2.792 323.271 2.41867 323.015 2.056L322.807 1.768L323.015 1.512H327.911C328.828 1.512 329.436 1.4 329.735 1.176L330.023 0.967999L330.279 1.176V4.024L329.735 4.216L329.639 3.848C329.543 3.464 329.431 3.17067 329.303 2.968C329.175 2.76533 329.004 2.62667 328.791 2.552C328.578 2.46667 328.279 2.424 327.895 2.424H326.343C325.927 2.424 325.65 2.504 325.511 2.664C325.383 2.81333 325.319 3.13867 325.319 3.64V6.712H327.351C327.596 6.712 327.815 6.65867 328.007 6.552C328.21 6.44533 328.412 6.25333 328.615 5.976L328.743 5.8L329.063 5.976V8.712L328.519 8.904L328.423 8.536C328.327 8.16267 328.151 7.91733 327.895 7.8C327.65 7.68267 327.244 7.624 326.679 7.624H325.319V10.872C325.319 11.3627 325.383 11.688 325.511 11.848C325.65 12.008 325.927 12.088 326.343 12.088H328.071C328.455 12.088 328.754 12.0507 328.967 11.976C329.18 11.8907 329.351 11.7467 329.479 11.544C329.607 11.3307 329.719 11.0373 329.815 10.664L329.911 10.296L330.455 10.488V13.224L330.135 13.4ZM332.301 13L332.109 12.456L332.477 12.36C332.882 12.2427 333.154 12.088 333.293 11.896C333.431 11.704 333.501 11.3627 333.501 10.872V3.64C333.501 3.13867 333.431 2.79733 333.293 2.616C333.154 2.424 332.882 2.26933 332.477 2.152L332.109 2.056L332.301 1.512H335.805L336.013 1.768L335.805 2.056C335.538 2.408 335.351 2.78133 335.245 3.176C335.138 3.56 335.085 4.07733 335.085 4.728V6.68H340.317V3.64C340.317 3.13867 340.247 2.79733 340.109 2.616C339.97 2.424 339.698 2.26933 339.293 2.152L338.925 2.056L339.117 1.512H342.621L342.829 1.768L342.621 2.056C342.354 2.408 342.167 2.78133 342.061 3.176C341.954 3.56 341.901 4.07733 341.901 4.728V10.984C341.901 11.4533 341.965 11.7787 342.093 11.96C342.231 12.1307 342.493 12.2747 342.877 12.392L343.213 12.488L343.037 13H339.117L338.925 12.456L339.293 12.36C339.698 12.2427 339.97 12.088 340.109 11.896C340.247 11.704 340.317 11.3627 340.317 10.872V7.656H335.085V10.984C335.085 11.4533 335.149 11.7787 335.277 11.96C335.415 12.1307 335.677 12.2747 336.061 12.392L336.397 12.488L336.221 13H332.301ZM344.306 13L344.114 12.456L344.498 12.36C344.764 12.2747 344.972 12.184 345.122 12.088C345.271 11.992 345.372 11.8533 345.426 11.672C345.49 11.48 345.522 11.2133 345.522 10.872V3.64C345.522 3.13867 345.452 2.792 345.314 2.6C345.175 2.408 344.903 2.25867 344.498 2.152L344.114 2.056L344.306 1.512H347.826L348.034 1.768L347.826 2.056C347.559 2.408 347.372 2.78133 347.266 3.176C347.159 3.57067 347.106 4.088 347.106 4.728V9.368L352.498 3.512C352.487 3.064 352.407 2.74933 352.258 2.568C352.119 2.38667 351.858 2.248 351.474 2.152L351.122 2.056L351.314 1.512H354.802L355.042 1.768L354.802 2.056C354.524 2.39733 354.332 2.77067 354.226 3.176C354.119 3.57067 354.066 4.088 354.066 4.728V10.984C354.066 11.4533 354.135 11.7787 354.274 11.96C354.412 12.1413 354.679 12.2853 355.074 12.392L355.394 12.488L355.234 13H351.314L351.122 12.456L351.474 12.36C351.879 12.2533 352.151 12.1093 352.29 11.928C352.428 11.736 352.498 11.384 352.498 10.872V4.808L347.106 10.68V10.984C347.106 11.4533 347.17 11.7787 347.298 11.96C347.436 12.1307 347.692 12.2747 348.066 12.392L348.402 12.488L348.242 13H344.306ZM357.273 13.224C357.017 13.224 356.766 13.176 356.521 13.08C356.275 12.984 356.035 12.8187 355.801 12.584L356.057 12.12C356.185 12.2053 356.297 12.264 356.393 12.296C356.489 12.328 356.59 12.344 356.697 12.344C356.835 12.344 356.953 12.296 357.049 12.2C357.145 12.0933 357.23 11.9813 357.305 11.864L359.049 8.824C359.134 8.65333 359.219 8.504 359.305 8.376C359.401 8.248 359.523 8.14133 359.673 8.056C358.83 7.84267 358.211 7.432 357.817 6.824C357.422 6.216 357.225 5.53867 357.225 4.792C357.225 4.14133 357.374 3.55467 357.673 3.032C357.982 2.50933 358.473 2.09333 359.145 1.784C359.817 1.464 360.697 1.304 361.785 1.304C362.286 1.304 362.787 1.34133 363.289 1.416C363.79 1.49067 364.254 1.58133 364.681 1.688C365.118 1.79467 365.475 1.90133 365.753 2.008L365.545 2.616H364.617C364.499 2.616 364.409 2.64267 364.345 2.696C364.291 2.73867 364.265 2.83467 364.265 2.984V10.872C364.265 11.3627 364.334 11.7093 364.473 11.912C364.622 12.104 364.899 12.2533 365.305 12.36L365.641 12.456L365.465 13H361.977L361.785 12.744L361.977 12.456C362.222 12.104 362.403 11.736 362.521 11.352C362.638 10.968 362.697 10.4453 362.697 9.784V2.92C362.697 2.824 362.67 2.72267 362.617 2.616C362.563 2.49867 362.446 2.39733 362.265 2.312C362.094 2.22667 361.822 2.184 361.449 2.184C360.883 2.184 360.409 2.30667 360.025 2.552C359.641 2.78667 359.353 3.10667 359.161 3.512C358.969 3.90667 358.873 4.35467 358.873 4.856C358.873 5.592 359.081 6.18933 359.497 6.648C359.923 7.10667 360.526 7.336 361.305 7.336C361.55 7.336 361.726 7.32 361.833 7.288C361.95 7.256 362.035 7.24 362.089 7.24C362.174 7.24 362.233 7.27733 362.265 7.352C362.297 7.42667 362.313 7.512 362.313 7.608C362.313 7.66133 362.297 7.72533 362.265 7.8C362.233 7.87467 362.153 7.93867 362.025 7.992C361.726 8.09867 361.502 8.20533 361.353 8.312C361.203 8.408 361.065 8.56267 360.937 8.776L359.497 11.352C359.283 11.736 359.075 12.072 358.873 12.36C358.681 12.6373 358.457 12.8507 358.201 13C357.955 13.1493 357.646 13.224 357.273 13.224Z" fill="white"/>
</svg>
