<svg width="218" height="20" viewBox="0 0 218 20" fill="none" xmlns="http://www.w3.org/2000/svg">
<path d="M0.496 16L0.288 15.744L0.496 15.456C0.762667 15.104 0.949333 14.736 1.056 14.352C1.17333 13.9573 1.232 13.4347 1.232 12.784V7.728C1.232 7.088 1.17333 6.57067 1.056 6.176C0.949333 5.78133 0.762667 5.408 0.496 5.056L0.288 4.768L0.496 4.512H9.872L10.08 4.768L9.872 5.056C9.60533 5.408 9.41333 5.78133 9.296 6.176C9.18933 6.57067 9.136 7.088 9.136 7.728V13.984C9.136 14.4533 9.2 14.7787 9.328 14.96C9.46667 15.1307 9.728 15.2747 10.112 15.392L10.464 15.488L10.288 16H6.384L6.176 15.456L6.528 15.36C6.80533 15.2747 7.01867 15.184 7.168 15.088C7.31733 14.992 7.41867 14.8533 7.472 14.672C7.536 14.48 7.568 14.2133 7.568 13.872V6.64C7.568 6.13867 7.49867 5.808 7.36 5.648C7.232 5.488 6.95467 5.408 6.528 5.408H3.824C3.408 5.408 3.13067 5.488 2.992 5.648C2.864 5.808 2.8 6.13867 2.8 6.64V13.872C2.8 14.2133 2.82667 14.48 2.88 14.672C2.944 14.8533 3.05067 14.992 3.2 15.088C3.34933 15.184 3.55733 15.2747 3.824 15.36L4.208 15.456L4.016 16H0.496ZM11.582 16L11.39 15.456L11.758 15.36C12.1633 15.2533 12.4353 15.104 12.574 14.912C12.7127 14.7093 12.782 14.3627 12.782 13.872V5.968C12.782 5.712 12.6647 5.584 12.43 5.584H11.502L11.31 4.992C11.5873 4.88533 11.9393 4.77867 12.366 4.672C12.8033 4.56533 13.2727 4.47467 13.774 4.4C14.286 4.32533 14.7927 4.288 15.294 4.288C16.4033 4.288 17.2993 4.464 17.982 4.816C18.6753 5.15733 19.1767 5.616 19.486 6.192C19.806 6.768 19.966 7.40267 19.966 8.096C19.966 8.75733 19.8273 9.376 19.55 9.952C19.2833 10.5173 18.8673 10.9707 18.302 11.312C17.7367 11.6533 17.0113 11.824 16.126 11.824C15.7633 11.824 15.438 11.7813 15.15 11.696C14.862 11.6 14.718 11.456 14.718 11.264C14.718 11.168 14.7393 11.0827 14.782 11.008C14.8247 10.9227 14.8887 10.88 14.974 10.88C15.038 10.88 15.1233 10.9013 15.23 10.944C15.3473 10.976 15.5233 10.992 15.758 10.992C16.5793 10.992 17.2087 10.7307 17.646 10.208C18.0833 9.68533 18.302 8.99733 18.302 8.144C18.302 7.58933 18.2007 7.088 17.998 6.64C17.7953 6.192 17.4913 5.84 17.086 5.584C16.6807 5.31733 16.1793 5.184 15.582 5.184C15.2193 5.184 14.9527 5.22667 14.782 5.312C14.6113 5.38667 14.4993 5.48267 14.446 5.6C14.3927 5.71733 14.366 5.824 14.366 5.92V12.784C14.366 13.4347 14.4193 13.9573 14.526 14.352C14.6327 14.736 14.8193 15.104 15.086 15.456L15.294 15.744L15.086 16H11.582ZM20.6493 16L20.4573 15.456L20.8413 15.36C21.1079 15.2747 21.3159 15.184 21.4653 15.088C21.6146 14.992 21.7159 14.8533 21.7693 14.672C21.8333 14.48 21.8653 14.2133 21.8653 13.872V6.64C21.8653 6.13867 21.7959 5.792 21.6573 5.6C21.5186 5.408 21.2466 5.25867 20.8413 5.152L20.4573 5.056L20.6493 4.512H24.1693L24.3773 4.768L24.1693 5.056C23.9026 5.408 23.7159 5.78133 23.6093 6.176C23.5026 6.57067 23.4493 7.088 23.4493 7.728V12.368L28.8413 6.512C28.8306 6.064 28.7506 5.74933 28.6013 5.568C28.4626 5.38667 28.2013 5.248 27.8173 5.152L27.4653 5.056L27.6573 4.512H31.1453L31.3853 4.768L31.1453 5.056C30.8679 5.39733 30.6759 5.77067 30.5693 6.176C30.4626 6.57067 30.4093 7.088 30.4093 7.728V13.984C30.4093 14.4533 30.4786 14.7787 30.6173 14.96C30.7559 15.1413 31.0226 15.2853 31.4173 15.392L31.7373 15.488L31.5773 16H27.6573L27.4653 15.456L27.8173 15.36C28.2226 15.2533 28.4946 15.1093 28.6333 14.928C28.7719 14.736 28.8413 14.384 28.8413 13.872V7.808L23.4493 13.68V13.984C23.4493 14.4533 23.5133 14.7787 23.6413 14.96C23.7799 15.1307 24.0359 15.2747 24.4093 15.392L24.7453 15.488L24.5853 16H20.6493ZM37.6644 16.224C36.8004 16.224 36.0484 16.0693 35.4084 15.76C34.7684 15.4507 34.235 15.024 33.8084 14.48C33.3817 13.936 33.0617 13.3067 32.8484 12.592C32.6457 11.8667 32.5444 11.0933 32.5444 10.272C32.5444 9.45067 32.6457 8.67733 32.8484 7.952C33.0617 7.22667 33.3817 6.592 33.8084 6.048C34.235 5.49333 34.7737 5.06133 35.4244 4.752C36.075 4.44267 36.8377 4.288 37.7124 4.288C38.4164 4.288 39.0404 4.38933 39.5844 4.592C40.1284 4.784 40.5497 5.056 40.8484 5.408C41.1577 5.76 41.3124 6.17067 41.3124 6.64C41.3124 7.19467 41.147 7.648 40.8164 8C40.4964 8.34133 40.091 8.512 39.6004 8.512C39.3764 8.512 39.2644 8.448 39.2644 8.32C39.2644 8.26667 39.3017 8.18667 39.3764 8.08C39.4617 7.96267 39.5417 7.808 39.6164 7.616C39.7017 7.41333 39.7444 7.16267 39.7444 6.864C39.7444 6.36267 39.5577 5.95733 39.1844 5.648C38.811 5.33867 38.3204 5.184 37.7124 5.184C37.083 5.184 36.555 5.33333 36.1284 5.632C35.7017 5.93067 35.355 6.33067 35.0884 6.832C34.8324 7.32267 34.6457 7.872 34.5284 8.48C34.411 9.07733 34.3524 9.67467 34.3524 10.272C34.3524 11.1573 34.491 11.968 34.7684 12.704C35.0457 13.44 35.4404 14.0267 35.9524 14.464C36.475 14.9013 37.0937 15.12 37.8084 15.12C38.5124 15.12 39.115 14.992 39.6164 14.736C40.1177 14.4693 40.5177 14.1173 40.8164 13.68C40.8484 13.6373 40.8857 13.616 40.9284 13.616C41.0244 13.616 41.131 13.664 41.2484 13.76C41.3764 13.856 41.4404 13.9573 41.4404 14.064C41.4404 14.096 41.4244 14.1387 41.3924 14.192C40.9764 14.8107 40.4644 15.3067 39.8564 15.68C39.2484 16.0427 38.5177 16.224 37.6644 16.224ZM47.7154 16.224C46.5207 16.224 45.5287 15.9573 44.7394 15.424C43.9607 14.8907 43.3794 14.176 42.9954 13.28C42.6114 12.3733 42.4194 11.3707 42.4194 10.272C42.4194 9.45067 42.526 8.67733 42.7394 7.952C42.9527 7.22667 43.278 6.592 43.7154 6.048C44.1634 5.49333 44.718 5.06133 45.3794 4.752C46.0407 4.44267 46.8194 4.288 47.7154 4.288C48.6114 4.288 49.39 4.44267 50.0514 4.752C50.7127 5.06133 51.262 5.49333 51.6994 6.048C52.1474 6.592 52.478 7.22667 52.6914 7.952C52.9154 8.67733 53.0274 9.45067 53.0274 10.272C53.0274 11.3707 52.83 12.3733 52.4354 13.28C52.0514 14.176 51.4647 14.8907 50.6754 15.424C49.8967 15.9573 48.91 16.224 47.7154 16.224ZM47.6514 15.28C48.4194 15.28 49.0754 15.0613 49.6194 14.624C50.1634 14.176 50.574 13.5787 50.8514 12.832C51.1394 12.0747 51.2834 11.2373 51.2834 10.32C51.2834 9.92533 51.246 9.49867 51.1714 9.04C51.1074 8.57067 50.9954 8.112 50.8354 7.664C50.6754 7.20533 50.462 6.79467 50.1954 6.432C49.9287 6.05867 49.598 5.76 49.2034 5.536C48.8087 5.312 48.3394 5.2 47.7954 5.2C47.0167 5.2 46.3554 5.44 45.8114 5.92C45.2674 6.38933 44.8514 7.01867 44.5634 7.808C44.286 8.58667 44.1474 9.45067 44.1474 10.4C44.1474 11.3067 44.2754 12.128 44.5314 12.864C44.798 13.6 45.1927 14.1867 45.7154 14.624C46.238 15.0613 46.8834 15.28 47.6514 15.28ZM62.0258 16.4L61.8978 16.224C61.7804 16.0747 61.5564 16 61.2258 16H54.4898L54.3138 15.488L54.6497 15.392C55.0338 15.2747 55.2898 15.1307 55.4178 14.96C55.5564 14.7787 55.6258 14.4533 55.6258 13.984V7.728C55.6258 7.07733 55.5671 6.56 55.4498 6.176C55.3431 5.792 55.1618 5.41867 54.9058 5.056L54.6978 4.768L54.9058 4.512H59.8018C60.7191 4.512 61.3271 4.4 61.6258 4.176L61.9138 3.968L62.1698 4.176V7.024L61.6258 7.216L61.5298 6.848C61.4338 6.464 61.3218 6.17067 61.1938 5.968C61.0658 5.76533 60.8951 5.62667 60.6818 5.552C60.4684 5.46667 60.1698 5.424 59.7858 5.424H58.2338C57.8178 5.424 57.5404 5.504 57.4018 5.664C57.2738 5.81333 57.2098 6.13867 57.2098 6.64V9.712H59.2418C59.4871 9.712 59.7058 9.65867 59.8978 9.552C60.1004 9.44533 60.3031 9.25333 60.5058 8.976L60.6338 8.8L60.9538 8.976V11.712L60.4098 11.904L60.3138 11.536C60.2178 11.1627 60.0418 10.9173 59.7858 10.8C59.5404 10.6827 59.1351 10.624 58.5698 10.624H57.2098V13.872C57.2098 14.3627 57.2738 14.688 57.4018 14.848C57.5404 15.008 57.8178 15.088 58.2338 15.088H59.9618C60.3458 15.088 60.6444 15.0507 60.8578 14.976C61.0711 14.8907 61.2418 14.7467 61.3698 14.544C61.4978 14.3307 61.6098 14.0373 61.7058 13.664L61.8018 13.296L62.3458 13.488V16.224L62.0258 16.4ZM63.9194 19.088L63.3754 18.896V15.312C64.058 15.216 64.602 14.9493 65.0074 14.512C65.4127 14.0747 65.722 13.4773 65.9354 12.72C66.1594 11.9627 66.3247 11.0613 66.4314 10.016C66.5487 8.97067 66.65 7.792 66.7354 6.48C66.7567 6.04267 66.6607 5.73333 66.4474 5.552C66.2447 5.36 65.9887 5.22667 65.6794 5.152L65.3274 5.056L65.5194 4.512H73.3274L73.5034 4.768L73.3274 5.056C73.0607 5.408 72.8687 5.78133 72.7514 6.176C72.634 6.57067 72.5754 7.088 72.5754 7.728V14.32C72.5754 14.5547 72.6607 14.7467 72.8314 14.896C73.002 15.0453 73.2207 15.1573 73.4874 15.232C73.754 15.296 74.0314 15.328 74.3194 15.328V18.896L73.7754 19.088L73.6794 18.704C73.53 18.1387 73.3647 17.6533 73.1834 17.248C73.002 16.8427 72.762 16.5333 72.4634 16.32C72.1754 16.1067 71.786 16 71.2954 16H66.3994C65.9194 16 65.53 16.1067 65.2314 16.32C64.9434 16.5333 64.7034 16.8427 64.5114 17.248C64.33 17.6533 64.1594 18.1387 63.9994 18.704L63.9194 19.088ZM65.5834 15.088H69.9674C70.394 15.088 70.6714 15.0133 70.7994 14.864C70.938 14.7147 71.0074 14.384 71.0074 13.872V6.64C71.0074 6.13867 70.938 5.808 70.7994 5.648C70.6714 5.488 70.394 5.408 69.9674 5.408H68.9914C68.6927 5.408 68.4527 5.45067 68.2714 5.536C68.09 5.61067 67.9887 5.78133 67.9674 6.048C67.7967 8.65067 67.5354 10.6987 67.1834 12.192C66.8314 13.6853 66.298 14.6507 65.5834 15.088ZM74.5555 16L74.3635 15.456L74.7475 15.36C75.0142 15.2747 75.2222 15.184 75.3715 15.088C75.5208 14.992 75.6222 14.8533 75.6755 14.672C75.7395 14.48 75.7715 14.2133 75.7715 13.872V6.64C75.7715 6.13867 75.7022 5.792 75.5635 5.6C75.4248 5.408 75.1528 5.25867 74.7475 5.152L74.3635 5.056L74.5555 4.512H78.0755L78.2835 4.768L78.0755 5.056C77.8088 5.408 77.6222 5.78133 77.5155 6.176C77.4088 6.57067 77.3555 7.088 77.3555 7.728V12.368L82.7475 6.512C82.7368 6.064 82.6568 5.74933 82.5075 5.568C82.3688 5.38667 82.1075 5.248 81.7235 5.152L81.3715 5.056L81.5635 4.512H85.0515L85.2915 4.768L85.0515 5.056C84.7742 5.39733 84.5822 5.77067 84.4755 6.176C84.3688 6.57067 84.3155 7.088 84.3155 7.728V13.984C84.3155 14.4533 84.3848 14.7787 84.5235 14.96C84.6622 15.1413 84.9288 15.2853 85.3235 15.392L85.6435 15.488L85.4835 16H81.5635L81.3715 15.456L81.7235 15.36C82.1288 15.2533 82.4008 15.1093 82.5395 14.928C82.6782 14.736 82.7475 14.384 82.7475 13.872V7.808L77.3555 13.68V13.984C77.3555 14.4533 77.4195 14.7787 77.5475 14.96C77.6862 15.1307 77.9422 15.2747 78.3155 15.392L78.6515 15.488L78.4915 16H74.5555ZM86.7226 16L86.5306 15.456L86.8986 15.36C87.304 15.2427 87.576 15.088 87.7146 14.896C87.8533 14.704 87.9226 14.3627 87.9226 13.872V6.64C87.9226 6.13867 87.8533 5.79733 87.7146 5.616C87.576 5.424 87.304 5.26933 86.8986 5.152L86.5306 5.056L86.7226 4.512H90.2266L90.4346 4.768L90.2266 5.056C89.96 5.408 89.7733 5.78133 89.6666 6.176C89.56 6.56 89.5066 7.07733 89.5066 7.728V9.68H94.7386V6.64C94.7386 6.13867 94.6693 5.79733 94.5306 5.616C94.392 5.424 94.12 5.26933 93.7146 5.152L93.3466 5.056L93.5386 4.512H97.0426L97.2506 4.768L97.0426 5.056C96.776 5.408 96.5893 5.78133 96.4826 6.176C96.376 6.56 96.3226 7.07733 96.3226 7.728V13.984C96.3226 14.4533 96.3866 14.7787 96.5146 14.96C96.6533 15.1307 96.9146 15.2747 97.2986 15.392L97.6346 15.488L97.4586 16H93.5386L93.3466 15.456L93.7146 15.36C94.12 15.2427 94.392 15.088 94.5306 14.896C94.6693 14.704 94.7386 14.3627 94.7386 13.872V10.656H89.5066V13.984C89.5066 14.4533 89.5706 14.7787 89.6986 14.96C89.8373 15.1307 90.0986 15.2747 90.4826 15.392L90.8186 15.488L90.6426 16H86.7226ZM99.9914 16.224C99.7354 16.224 99.4847 16.176 99.2394 16.08C98.994 15.984 98.754 15.8187 98.5194 15.584L98.7754 15.12C98.9034 15.2053 99.0154 15.264 99.1114 15.296C99.2074 15.328 99.3087 15.344 99.4154 15.344C99.554 15.344 99.6714 15.296 99.7674 15.2C99.8634 15.0933 99.9487 14.9813 100.023 14.864L101.767 11.824C101.853 11.6533 101.938 11.504 102.023 11.376C102.119 11.248 102.242 11.1413 102.391 11.056C101.549 10.8427 100.93 10.432 100.535 9.824C100.141 9.216 99.9434 8.53867 99.9434 7.792C99.9434 7.14133 100.093 6.55467 100.391 6.032C100.701 5.50933 101.191 5.09333 101.863 4.784C102.535 4.464 103.415 4.304 104.503 4.304C105.005 4.304 105.506 4.34133 106.007 4.416C106.509 4.49067 106.973 4.58133 107.399 4.688C107.837 4.79467 108.194 4.90133 108.471 5.008L108.263 5.616H107.335C107.218 5.616 107.127 5.64267 107.063 5.696C107.01 5.73867 106.983 5.83467 106.983 5.984V13.872C106.983 14.3627 107.053 14.7093 107.191 14.912C107.341 15.104 107.618 15.2533 108.023 15.36L108.359 15.456L108.183 16H104.695L104.503 15.744L104.695 15.456C104.941 15.104 105.122 14.736 105.239 14.352C105.357 13.968 105.415 13.4453 105.415 12.784V5.92C105.415 5.824 105.389 5.72267 105.335 5.616C105.282 5.49867 105.165 5.39733 104.983 5.312C104.813 5.22667 104.541 5.184 104.167 5.184C103.602 5.184 103.127 5.30667 102.743 5.552C102.359 5.78667 102.071 6.10667 101.879 6.512C101.687 6.90667 101.591 7.35467 101.591 7.856C101.591 8.592 101.799 9.18933 102.215 9.648C102.642 10.1067 103.245 10.336 104.023 10.336C104.269 10.336 104.445 10.32 104.551 10.288C104.669 10.256 104.754 10.24 104.807 10.24C104.893 10.24 104.951 10.2773 104.983 10.352C105.015 10.4267 105.031 10.512 105.031 10.608C105.031 10.6613 105.015 10.7253 104.983 10.8C104.951 10.8747 104.871 10.9387 104.743 10.992C104.445 11.0987 104.221 11.2053 104.071 11.312C103.922 11.408 103.783 11.5627 103.655 11.776L102.215 14.352C102.002 14.736 101.794 15.072 101.591 15.36C101.399 15.6373 101.175 15.8507 100.919 16C100.674 16.1493 100.365 16.224 99.9914 16.224ZM109.556 16L109.364 15.456L109.748 15.36C110.014 15.2747 110.222 15.184 110.372 15.088C110.521 14.992 110.622 14.8533 110.676 14.672C110.74 14.48 110.772 14.2133 110.772 13.872V6.64C110.772 6.13867 110.702 5.792 110.564 5.6C110.425 5.408 110.153 5.25867 109.748 5.152L109.364 5.056L109.556 4.512H113.076L113.284 4.768L113.076 5.056C112.809 5.408 112.622 5.78133 112.516 6.176C112.409 6.57067 112.356 7.088 112.356 7.728V12.368L117.748 6.512C117.737 6.064 117.657 5.74933 117.508 5.568C117.369 5.38667 117.108 5.248 116.724 5.152L116.372 5.056L116.564 4.512H120.052L120.292 4.768L120.052 5.056C119.774 5.39733 119.582 5.77067 119.476 6.176C119.369 6.57067 119.316 7.088 119.316 7.728V13.984C119.316 14.4533 119.385 14.7787 119.524 14.96C119.662 15.1413 119.929 15.2853 120.324 15.392L120.644 15.488L120.484 16H116.564L116.372 15.456L116.724 15.36C117.129 15.2533 117.401 15.1093 117.54 14.928C117.678 14.736 117.748 14.384 117.748 13.872V7.808L112.356 13.68V13.984C112.356 14.4533 112.42 14.7787 112.548 14.96C112.686 15.1307 112.942 15.2747 113.316 15.392L113.652 15.488L113.492 16H109.556ZM115.012 3.168C114.169 3.168 113.492 3.04533 112.98 2.8C112.468 2.544 112.212 2.17067 112.212 1.68C112.212 1.328 112.345 1.05067 112.612 0.848C112.878 0.645333 113.177 0.544 113.508 0.544C113.604 0.544 113.684 0.570666 113.748 0.624C113.812 0.666666 113.844 0.714666 113.844 0.768C113.844 0.842666 113.801 0.933332 113.716 1.04C113.63 1.14667 113.588 1.33867 113.588 1.616C113.588 1.85067 113.684 2.05867 113.876 2.24C114.078 2.41067 114.457 2.496 115.012 2.496C115.545 2.496 115.918 2.416 116.132 2.256C116.356 2.08533 116.468 1.88267 116.468 1.648C116.468 1.36 116.42 1.16267 116.324 1.056C116.238 0.938666 116.196 0.842666 116.196 0.768C116.196 0.714666 116.228 0.666666 116.292 0.624C116.356 0.570666 116.441 0.544 116.548 0.544C116.868 0.544 117.156 0.645333 117.411 0.848C117.668 1.05067 117.796 1.328 117.796 1.68C117.796 2.17067 117.545 2.544 117.044 2.8C116.542 3.04533 115.865 3.168 115.012 3.168ZM124.139 16L123.931 15.744L124.139 15.456C124.405 15.104 124.592 14.736 124.699 14.352C124.805 13.9573 124.859 13.4347 124.859 12.784V6.64C124.859 6.13867 124.821 5.81333 124.747 5.664C124.683 5.504 124.539 5.424 124.315 5.424H123.595C123.221 5.424 122.923 5.46667 122.699 5.552C122.485 5.62667 122.315 5.76533 122.187 5.968C122.069 6.17067 121.957 6.464 121.851 6.848L121.755 7.216L121.211 7.024V4.176L121.467 3.968L121.755 4.176C122.053 4.4 122.661 4.512 123.579 4.512H127.723C128.64 4.512 129.248 4.4 129.547 4.176L129.835 3.968L130.091 4.176V7.024L129.547 7.216L129.451 6.848C129.355 6.464 129.243 6.17067 129.115 5.968C128.987 5.76533 128.816 5.62667 128.603 5.552C128.389 5.46667 128.091 5.424 127.707 5.424H126.987C126.763 5.424 126.613 5.504 126.539 5.664C126.475 5.81333 126.443 6.13867 126.443 6.64V13.872C126.443 14.3627 126.512 14.704 126.651 14.896C126.8 15.088 127.072 15.2427 127.467 15.36L127.835 15.456L127.643 16H124.139ZM138.838 16.4L138.71 16.224C138.593 16.0747 138.369 16 138.038 16H131.302L131.126 15.488L131.462 15.392C131.846 15.2747 132.102 15.1307 132.23 14.96C132.369 14.7787 132.438 14.4533 132.438 13.984V7.728C132.438 7.07733 132.38 6.56 132.262 6.176C132.156 5.792 131.974 5.41867 131.718 5.056L131.51 4.768L131.718 4.512H136.614C137.532 4.512 138.14 4.4 138.438 4.176L138.726 3.968L138.982 4.176V7.024L138.438 7.216L138.342 6.848C138.246 6.464 138.134 6.17067 138.006 5.968C137.878 5.76533 137.708 5.62667 137.494 5.552C137.281 5.46667 136.982 5.424 136.598 5.424H135.046C134.63 5.424 134.353 5.504 134.214 5.664C134.086 5.81333 134.022 6.13867 134.022 6.64V9.712H136.054C136.3 9.712 136.518 9.65867 136.71 9.552C136.913 9.44533 137.116 9.25333 137.318 8.976L137.446 8.8L137.766 8.976V11.712L137.222 11.904L137.126 11.536C137.03 11.1627 136.854 10.9173 136.598 10.8C136.353 10.6827 135.948 10.624 135.382 10.624H134.022V13.872C134.022 14.3627 134.086 14.688 134.214 14.848C134.353 15.008 134.63 15.088 135.046 15.088H136.774C137.158 15.088 137.457 15.0507 137.67 14.976C137.884 14.8907 138.054 14.7467 138.182 14.544C138.31 14.3307 138.422 14.0373 138.518 13.664L138.614 13.296L139.158 13.488V16.224L138.838 16.4ZM145.852 16.224C144.988 16.224 144.236 16.0693 143.596 15.76C142.956 15.4507 142.423 15.024 141.996 14.48C141.569 13.936 141.249 13.3067 141.036 12.592C140.833 11.8667 140.732 11.0933 140.732 10.272C140.732 9.45067 140.833 8.67733 141.036 7.952C141.249 7.22667 141.569 6.592 141.996 6.048C142.423 5.49333 142.961 5.06133 143.612 4.752C144.263 4.44267 145.025 4.288 145.9 4.288C146.604 4.288 147.228 4.38933 147.772 4.592C148.316 4.784 148.737 5.056 149.036 5.408C149.345 5.76 149.5 6.17067 149.5 6.64C149.5 7.19467 149.335 7.648 149.004 8C148.684 8.34133 148.279 8.512 147.788 8.512C147.564 8.512 147.452 8.448 147.452 8.32C147.452 8.26667 147.489 8.18667 147.564 8.08C147.649 7.96267 147.729 7.808 147.804 7.616C147.889 7.41333 147.932 7.16267 147.932 6.864C147.932 6.36267 147.745 5.95733 147.372 5.648C146.999 5.33867 146.508 5.184 145.9 5.184C145.271 5.184 144.743 5.33333 144.316 5.632C143.889 5.93067 143.543 6.33067 143.276 6.832C143.02 7.32267 142.833 7.872 142.716 8.48C142.599 9.07733 142.54 9.67467 142.54 10.272C142.54 11.1573 142.679 11.968 142.956 12.704C143.233 13.44 143.628 14.0267 144.14 14.464C144.663 14.9013 145.281 15.12 145.996 15.12C146.7 15.12 147.303 14.992 147.804 14.736C148.305 14.4693 148.705 14.1173 149.004 13.68C149.036 13.6373 149.073 13.616 149.116 13.616C149.212 13.616 149.319 13.664 149.436 13.76C149.564 13.856 149.628 13.9573 149.628 14.064C149.628 14.096 149.612 14.1387 149.58 14.192C149.164 14.8107 148.652 15.3067 148.044 15.68C147.436 16.0427 146.705 16.224 145.852 16.224ZM150.879 16L150.687 15.456L151.071 15.36C151.466 15.2533 151.732 15.104 151.871 14.912C152.01 14.7093 152.079 14.3627 152.079 13.872V6.64C152.079 6.16 152.01 5.81867 151.871 5.616C151.732 5.41333 151.466 5.25867 151.071 5.152L150.687 5.056L150.879 4.512H154.399L154.607 4.768L154.399 5.056C154.132 5.41867 153.94 5.79733 153.823 6.192C153.716 6.576 153.663 7.088 153.663 7.728V13.072C153.663 13.5733 153.722 13.968 153.839 14.256C153.967 14.544 154.127 14.752 154.319 14.88C154.511 15.008 154.708 15.088 154.911 15.12C155.114 15.152 155.29 15.168 155.439 15.168C156.207 15.168 156.799 14.9227 157.215 14.432C157.631 13.9413 157.839 13.3173 157.839 12.56C157.839 12.1013 157.732 11.6853 157.519 11.312C157.306 10.9387 157.007 10.64 156.623 10.416C156.25 10.192 155.807 10.08 155.295 10.08C154.964 10.08 154.73 10.1067 154.591 10.16C154.452 10.2027 154.335 10.224 154.239 10.224C154.164 10.224 154.106 10.1867 154.063 10.112C154.031 10.0373 154.015 9.952 154.015 9.856C154.015 9.65333 154.175 9.50933 154.495 9.424C154.815 9.33867 155.172 9.296 155.567 9.296C156.378 9.296 157.076 9.45067 157.663 9.76C158.25 10.0693 158.703 10.48 159.023 10.992C159.343 11.4933 159.503 12.0427 159.503 12.64C159.503 13.2907 159.37 13.872 159.103 14.384C158.836 14.8853 158.399 15.28 157.791 15.568C157.183 15.856 156.367 16 155.343 16H150.879ZM173.13 16.224C172.628 16.224 172.207 16.0907 171.866 15.824C171.535 15.5467 171.247 15.1573 171.002 14.656L169.546 11.744C169.375 11.392 169.156 11.12 168.89 10.928C168.623 10.736 168.308 10.5813 167.946 10.464C167.892 10.4427 167.866 10.384 167.866 10.288C167.866 10.2027 167.887 10.1173 167.93 10.032C167.972 9.94667 168.063 9.904 168.202 9.904H168.57L171.178 6.576C171.359 6.352 171.455 6.09067 171.466 5.792C171.487 5.49333 171.418 5.23733 171.258 5.024L171.082 4.768L171.37 4.512H174.122L174.314 5.056L173.93 5.152C173.695 5.19467 173.482 5.28533 173.29 5.424C173.098 5.552 172.895 5.74933 172.682 6.016L169.45 10.144C169.972 10.24 170.404 10.4267 170.746 10.704C171.087 10.9813 171.391 11.376 171.658 11.888L173.162 14.864C173.247 15.0133 173.338 15.1307 173.434 15.216C173.53 15.3013 173.647 15.344 173.786 15.344C173.892 15.344 173.994 15.328 174.09 15.296C174.196 15.264 174.303 15.2053 174.41 15.12L174.666 15.584C174.442 15.8187 174.202 15.984 173.946 16.08C173.69 16.176 173.418 16.224 173.13 16.224ZM164.698 16L164.506 15.456L164.89 15.36C165.156 15.2747 165.364 15.184 165.514 15.088C165.663 14.992 165.764 14.8533 165.818 14.672C165.882 14.48 165.914 14.2133 165.914 13.872V6.64C165.914 6.13867 165.844 5.792 165.706 5.6C165.567 5.408 165.295 5.25867 164.89 5.152L164.506 5.056L164.698 4.512H168.218L168.426 4.768L168.218 5.056C167.951 5.408 167.764 5.78133 167.658 6.176C167.551 6.57067 167.498 7.088 167.498 7.728V13.984C167.498 14.4533 167.562 14.7787 167.69 14.96C167.828 15.1307 168.084 15.2747 168.458 15.392L168.794 15.488L168.634 16H164.698ZM180.066 16L179.874 15.456L180.242 15.36C180.648 15.2427 180.92 15.088 181.058 14.896C181.197 14.704 181.266 14.3627 181.266 13.872V6.64C181.266 6.13867 181.197 5.79733 181.058 5.616C180.92 5.424 180.648 5.26933 180.242 5.152L179.874 5.056L180.066 4.512H183.57L183.778 4.768L183.57 5.056C183.304 5.408 183.117 5.78133 183.01 6.176C182.904 6.56 182.85 7.07733 182.85 7.728V9.68H188.082V6.64C188.082 6.13867 188.013 5.79733 187.874 5.616C187.736 5.424 187.464 5.26933 187.058 5.152L186.69 5.056L186.882 4.512H190.386L190.594 4.768L190.386 5.056C190.12 5.408 189.933 5.78133 189.826 6.176C189.72 6.56 189.666 7.07733 189.666 7.728V13.984C189.666 14.4533 189.73 14.7787 189.858 14.96C189.997 15.1307 190.258 15.2747 190.642 15.392L190.978 15.488L190.802 16H186.882L186.69 15.456L187.058 15.36C187.464 15.2427 187.736 15.088 187.874 14.896C188.013 14.704 188.082 14.3627 188.082 13.872V10.656H182.85V13.984C182.85 14.4533 182.914 14.7787 183.042 14.96C183.181 15.1307 183.442 15.2747 183.826 15.392L184.162 15.488L183.986 16H180.066ZM191.639 16L191.447 15.456L191.815 15.36C192.103 15.2853 192.332 15.1947 192.503 15.088C192.674 14.9813 192.818 14.8373 192.935 14.656C193.063 14.464 193.18 14.2027 193.287 13.872L195.799 6.64C195.852 6.46933 195.895 6.32533 195.927 6.208C195.959 6.08 195.975 5.96267 195.975 5.856C195.975 5.65333 195.916 5.504 195.799 5.408C195.682 5.30133 195.5 5.216 195.255 5.152L194.887 5.056L195.079 4.512H198.167L201.383 13.792C201.511 14.144 201.639 14.432 201.767 14.656C201.906 14.88 202.06 15.072 202.231 15.232C202.402 15.392 202.599 15.5627 202.823 15.744L202.615 16H199.015L198.823 15.456L199.191 15.36C199.436 15.296 199.618 15.216 199.735 15.12C199.852 15.0133 199.911 14.8587 199.911 14.656C199.911 14.5493 199.895 14.4373 199.863 14.32C199.831 14.192 199.788 14.0427 199.735 13.872L198.967 11.632H195.271L194.887 12.8C194.77 13.1627 194.679 13.4773 194.615 13.744C194.551 14.0107 194.519 14.256 194.519 14.48C194.519 14.8427 194.594 15.168 194.743 15.456L194.887 15.744L194.583 16H191.639ZM195.607 10.64H198.631L197.095 6.16L195.607 10.64ZM203.416 16L203.24 15.456L203.608 15.36C204.013 15.2427 204.296 15.088 204.456 14.896C204.616 14.704 204.712 14.3627 204.744 13.872L205.176 7.536C205.187 7.49333 205.197 7.392 205.208 7.232C205.219 7.06133 205.229 6.88533 205.24 6.704C205.251 6.52267 205.256 6.38933 205.256 6.304C205.256 5.93067 205.187 5.66933 205.048 5.52C204.92 5.36 204.68 5.23733 204.328 5.152L203.96 5.056L204.136 4.512H207.048L210.344 12.56L213.736 4.512H216.04L216.28 4.768L216.088 5.056C215.885 5.344 215.736 5.64267 215.64 5.952C215.555 6.25067 215.512 6.624 215.512 7.072C215.512 7.136 215.517 7.26933 215.528 7.472C215.539 7.67467 215.549 7.87733 215.56 8.08C215.581 8.28267 215.592 8.42667 215.592 8.512L215.912 12.896C215.965 13.5467 216.072 14.096 216.232 14.544C216.392 14.9813 216.653 15.3813 217.016 15.744L216.808 16H213.304L213.112 15.456L213.48 15.36C213.821 15.2533 214.056 15.12 214.184 14.96C214.323 14.7893 214.392 14.5387 214.392 14.208C214.392 14.1333 214.387 14.0373 214.376 13.92C214.376 13.8027 214.371 13.7013 214.36 13.616L213.896 6.944L210.552 14.848H209.688L206.344 6.944L205.992 11.872C205.981 12.0533 205.965 12.256 205.944 12.48C205.933 12.704 205.923 12.9067 205.912 13.088C205.901 13.2587 205.896 13.376 205.896 13.44C205.896 13.888 205.939 14.2667 206.024 14.576C206.12 14.8747 206.269 15.168 206.472 15.456L206.664 15.744L206.424 16H203.416Z" fill="white"/>
</svg>
