<svg width="375" height="20" viewBox="0 0 375 20" fill="none" xmlns="http://www.w3.org/2000/svg">
<path d="M1.3 19L1 18.15L1.575 18C2.20833 17.8333 2.63333 17.6 2.85 17.3C3.06667 16.9833 3.175 16.4417 3.175 15.675V3.325C3.175 2.925 2.99167 2.725 2.625 2.725H1.175L0.875 1.8C1.30833 1.63333 1.85833 1.46667 2.525 1.3C3.20833 1.13333 3.94167 0.991666 4.725 0.874999C5.525 0.758332 6.31667 0.699999 7.1 0.699999C8.83333 0.699999 10.2333 0.974999 11.3 1.525C12.3833 2.05833 13.1667 2.775 13.65 3.675C14.15 4.575 14.4 5.56667 14.4 6.65C14.4 7.68333 14.1833 8.65 13.75 9.55C13.3333 10.4333 12.6833 11.1417 11.8 11.675C10.9167 12.2083 9.78333 12.475 8.4 12.475C7.83333 12.475 7.325 12.4083 6.875 12.275C6.425 12.125 6.2 11.9 6.2 11.6C6.2 11.45 6.23333 11.3167 6.3 11.2C6.36667 11.0667 6.46667 11 6.6 11C6.7 11 6.83333 11.0333 7 11.1C7.18333 11.15 7.45833 11.175 7.825 11.175C9.10833 11.175 10.0917 10.7667 10.775 9.95C11.4583 9.13333 11.8 8.05833 11.8 6.725C11.8 5.85833 11.6417 5.075 11.325 4.375C11.0083 3.675 10.5333 3.125 9.9 2.725C9.26667 2.30833 8.48333 2.1 7.55 2.1C6.98333 2.1 6.56667 2.16667 6.3 2.3C6.03333 2.41667 5.85833 2.56667 5.775 2.75C5.69167 2.93333 5.65 3.1 5.65 3.25V13.975C5.65 14.9917 5.73333 15.8083 5.9 16.425C6.06667 17.025 6.35833 17.6 6.775 18.15L7.1 18.6L6.775 19H1.3ZM14.7926 19L14.4926 18.15L15.0676 18C15.5176 17.8833 15.8759 17.7417 16.1426 17.575C16.4092 17.4083 16.6342 17.1833 16.8176 16.9C17.0176 16.6 17.2009 16.1917 17.3676 15.675L21.2926 4.375C21.3759 4.10833 21.4426 3.88333 21.4926 3.7C21.5426 3.5 21.5676 3.31667 21.5676 3.15C21.5676 2.83333 21.4759 2.6 21.2926 2.45C21.1092 2.28333 20.8259 2.15 20.4426 2.05L19.8676 1.9L20.1676 1.05H24.9926L30.0176 15.55C30.2176 16.1 30.4176 16.55 30.6176 16.9C30.8342 17.25 31.0759 17.55 31.3426 17.8C31.6092 18.05 31.9176 18.3167 32.2676 18.6L31.9426 19H26.3176L26.0176 18.15L26.5926 18C26.9759 17.9 27.2592 17.775 27.4426 17.625C27.6259 17.4583 27.7176 17.2167 27.7176 16.9C27.7176 16.7333 27.6926 16.5583 27.6426 16.375C27.5926 16.175 27.5259 15.9417 27.4426 15.675L26.2426 12.175H20.4676L19.8676 14C19.6842 14.5667 19.5426 15.0583 19.4426 15.475C19.3426 15.8917 19.2926 16.275 19.2926 16.625C19.2926 17.1917 19.4092 17.7 19.6426 18.15L19.8676 18.6L19.3926 19H14.7926ZM20.9926 10.625H25.7176L23.3176 3.625L20.9926 10.625ZM41.4189 19.35C40.0689 19.35 38.8939 19.1083 37.8939 18.625C36.8939 18.1417 36.0606 17.475 35.3939 16.625C34.7273 15.775 34.2273 14.7917 33.8939 13.675C33.5773 12.5417 33.4189 11.3333 33.4189 10.05C33.4189 8.76667 33.5773 7.55833 33.8939 6.425C34.2273 5.29167 34.7273 4.3 35.3939 3.45C36.0606 2.58333 36.9023 1.90833 37.9189 1.425C38.9356 0.941666 40.1273 0.699999 41.4939 0.699999C42.5939 0.699999 43.5689 0.858332 44.4189 1.175C45.2689 1.475 45.9273 1.9 46.3939 2.45C46.8773 3 47.1189 3.64167 47.1189 4.375C47.1189 5.24167 46.8606 5.95 46.3439 6.5C45.8439 7.03333 45.2106 7.3 44.4439 7.3C44.0939 7.3 43.9189 7.2 43.9189 7C43.9189 6.91667 43.9773 6.79167 44.0939 6.625C44.2273 6.44167 44.3523 6.2 44.4689 5.9C44.6023 5.58333 44.6689 5.19167 44.6689 4.725C44.6689 3.94167 44.3773 3.30833 43.7939 2.825C43.2106 2.34167 42.4439 2.1 41.4939 2.1C40.5106 2.1 39.6856 2.33333 39.0189 2.8C38.3523 3.26667 37.8106 3.89167 37.3939 4.675C36.9939 5.44167 36.7023 6.3 36.5189 7.25C36.3356 8.18333 36.2439 9.11667 36.2439 10.05C36.2439 11.4333 36.4606 12.7 36.8939 13.85C37.3273 15 37.9439 15.9167 38.7439 16.6C39.5606 17.2833 40.5273 17.625 41.6439 17.625C42.7439 17.625 43.6856 17.425 44.4689 17.025C45.2523 16.6083 45.8773 16.0583 46.3439 15.375C46.3939 15.3083 46.4523 15.275 46.5189 15.275C46.6689 15.275 46.8356 15.35 47.0189 15.5C47.2189 15.65 47.3189 15.8083 47.3189 15.975C47.3189 16.025 47.2939 16.0917 47.2439 16.175C46.5939 17.1417 45.7939 17.9167 44.8439 18.5C43.8939 19.0667 42.7523 19.35 41.4189 19.35ZM56.8486 19.35C55.4986 19.35 54.3236 19.1083 53.3236 18.625C52.3236 18.1417 51.4903 17.475 50.8236 16.625C50.157 15.775 49.657 14.7917 49.3236 13.675C49.007 12.5417 48.8486 11.3333 48.8486 10.05C48.8486 8.76667 49.007 7.55833 49.3236 6.425C49.657 5.29167 50.157 4.3 50.8236 3.45C51.4903 2.58333 52.332 1.90833 53.3486 1.425C54.3653 0.941666 55.557 0.699999 56.9236 0.699999C58.0236 0.699999 58.9986 0.858332 59.8486 1.175C60.6986 1.475 61.357 1.9 61.8236 2.45C62.307 3 62.5486 3.64167 62.5486 4.375C62.5486 5.24167 62.2903 5.95 61.7736 6.5C61.2736 7.03333 60.6403 7.3 59.8736 7.3C59.5236 7.3 59.3486 7.2 59.3486 7C59.3486 6.91667 59.407 6.79167 59.5236 6.625C59.657 6.44167 59.782 6.2 59.8986 5.9C60.032 5.58333 60.0986 5.19167 60.0986 4.725C60.0986 3.94167 59.807 3.30833 59.2236 2.825C58.6403 2.34167 57.8736 2.1 56.9236 2.1C55.9403 2.1 55.1153 2.33333 54.4486 2.8C53.782 3.26667 53.2403 3.89167 52.8236 4.675C52.4236 5.44167 52.132 6.3 51.9486 7.25C51.7653 8.18333 51.6736 9.11667 51.6736 10.05C51.6736 11.4333 51.8903 12.7 52.3236 13.85C52.757 15 53.3736 15.9167 54.1736 16.6C54.9903 17.2833 55.957 17.625 57.0736 17.625C58.1736 17.625 59.1153 17.425 59.8986 17.025C60.682 16.6083 61.307 16.0583 61.7736 15.375C61.8236 15.3083 61.882 15.275 61.9486 15.275C62.0986 15.275 62.2653 15.35 62.4486 15.5C62.6486 15.65 62.7486 15.8083 62.7486 15.975C62.7486 16.025 62.7236 16.0917 62.6736 16.175C62.0236 17.1417 61.2236 17.9167 60.2736 18.5C59.3236 19.0667 58.182 19.35 56.8486 19.35ZM77.2533 19.35C76.47 19.35 75.8117 19.1417 75.2783 18.725C74.7617 18.2917 74.3117 17.6833 73.9283 16.9L71.6533 12.35C71.3867 11.8 71.045 11.375 70.6283 11.075C70.2117 10.775 69.72 10.5333 69.1533 10.35C69.07 10.3167 69.0283 10.225 69.0283 10.075C69.0283 9.94167 69.0617 9.80833 69.1283 9.675C69.195 9.54167 69.3367 9.475 69.5533 9.475H70.1283L74.2033 4.275C74.4867 3.925 74.6367 3.51667 74.6533 3.05C74.6867 2.58333 74.5783 2.18333 74.3283 1.85L74.0533 1.45L74.5033 1.05H78.8033L79.1033 1.9L78.5033 2.05C78.1367 2.11667 77.8033 2.25833 77.5033 2.475C77.2033 2.675 76.8867 2.98333 76.5533 3.4L71.5033 9.85C72.32 10 72.995 10.2917 73.5283 10.725C74.0617 11.1583 74.5367 11.775 74.9533 12.575L77.3033 17.225C77.4367 17.4583 77.5783 17.6417 77.7283 17.775C77.8783 17.9083 78.0617 17.975 78.2783 17.975C78.445 17.975 78.6033 17.95 78.7533 17.9C78.92 17.85 79.0867 17.7583 79.2533 17.625L79.6533 18.35C79.3033 18.7167 78.9283 18.975 78.5283 19.125C78.1283 19.275 77.7033 19.35 77.2533 19.35ZM64.0783 19L63.7783 18.15L64.3783 18C64.795 17.8667 65.12 17.725 65.3533 17.575C65.5867 17.425 65.745 17.2083 65.8283 16.925C65.9283 16.625 65.9783 16.2083 65.9783 15.675V4.375C65.9783 3.59167 65.87 3.05 65.6533 2.75C65.4367 2.45 65.0117 2.21667 64.3783 2.05L63.7783 1.9L64.0783 1.05H69.5783L69.9033 1.45L69.5783 1.9C69.1617 2.45 68.87 3.03333 68.7033 3.65C68.5367 4.26667 68.4533 5.075 68.4533 6.075V15.85C68.4533 16.5833 68.5533 17.0917 68.7533 17.375C68.97 17.6417 69.37 17.8667 69.9533 18.05L70.4783 18.2L70.2283 19H64.0783ZM79.8072 19L79.5072 18.15L80.0822 18C80.5322 17.8833 80.8906 17.7417 81.1572 17.575C81.4239 17.4083 81.6489 17.1833 81.8322 16.9C82.0322 16.6 82.2156 16.1917 82.3822 15.675L86.3072 4.375C86.3906 4.10833 86.4572 3.88333 86.5072 3.7C86.5572 3.5 86.5822 3.31667 86.5822 3.15C86.5822 2.83333 86.4906 2.6 86.3072 2.45C86.1239 2.28333 85.8406 2.15 85.4572 2.05L84.8822 1.9L85.1822 1.05H90.0072L95.0322 15.55C95.2322 16.1 95.4322 16.55 95.6322 16.9C95.8489 17.25 96.0906 17.55 96.3572 17.8C96.6239 18.05 96.9322 18.3167 97.2822 18.6L96.9572 19H91.3322L91.0322 18.15L91.6072 18C91.9906 17.9 92.2739 17.775 92.4572 17.625C92.6406 17.4583 92.7322 17.2167 92.7322 16.9C92.7322 16.7333 92.7072 16.5583 92.6572 16.375C92.6072 16.175 92.5406 15.9417 92.4572 15.675L91.2572 12.175H85.4822L84.8822 14C84.6989 14.5667 84.5572 15.0583 84.4572 15.475C84.3572 15.8917 84.3072 16.275 84.3072 16.625C84.3072 17.1917 84.4239 17.7 84.6572 18.15L84.8822 18.6L84.4072 19H79.8072ZM86.0072 10.625H90.7322L88.3322 3.625L86.0072 10.625ZM103.959 19.35C102.959 19.35 102.017 19.2 101.134 18.9C100.25 18.6 99.5253 18.15 98.9586 17.55C98.4086 16.95 98.1336 16.2 98.1336 15.3C98.1336 14.5167 98.3753 13.8833 98.8586 13.4C99.3419 12.9167 99.9419 12.675 100.659 12.675C100.842 12.675 100.975 12.6917 101.059 12.725C101.142 12.7417 101.184 12.825 101.184 12.975C101.184 13.0917 101.084 13.3083 100.884 13.625C100.7 13.9417 100.609 14.4333 100.609 15.1C100.609 15.9833 100.875 16.675 101.409 17.175C101.942 17.675 102.767 17.925 103.884 17.925C105.1 17.925 106.05 17.6 106.734 16.95C107.417 16.3 107.759 15.3917 107.759 14.225C107.759 13.4917 107.625 12.8167 107.359 12.2C107.092 11.5667 106.667 11.0583 106.084 10.675C105.517 10.2917 104.767 10.1 103.834 10.1C103.417 10.1 103.1 10.125 102.884 10.175C102.667 10.225 102.484 10.25 102.334 10.25C102.134 10.25 102.034 10.0833 102.034 9.75C102.034 9.5 102.15 9.325 102.384 9.225C102.617 9.10833 102.992 9 103.509 8.9C104.442 8.71667 105.15 8.45833 105.634 8.125C106.117 7.775 106.442 7.35833 106.609 6.875C106.792 6.375 106.884 5.825 106.884 5.225C106.884 4.24167 106.617 3.475 106.084 2.925C105.55 2.375 104.842 2.1 103.959 2.1C103.259 2.1 102.642 2.19167 102.109 2.375C101.592 2.55833 101.15 2.89167 100.784 3.375C100.434 3.84167 100.15 4.53333 99.9336 5.45L99.8086 6L98.9836 5.725V0.75L99.3836 0.449999L99.8086 0.75C99.9586 0.866666 100.109 0.949999 100.259 0.999999C100.425 1.03333 100.592 1.05 100.759 1.05C101.175 1.05 101.642 0.991666 102.159 0.874999C102.692 0.758332 103.4 0.699999 104.284 0.699999C105.217 0.699999 106.084 0.858332 106.884 1.175C107.7 1.49167 108.359 1.975 108.859 2.625C109.359 3.275 109.609 4.1 109.609 5.1C109.609 6.11667 109.3 6.975 108.684 7.675C108.067 8.375 107.184 8.925 106.034 9.325C107.684 9.675 108.834 10.275 109.484 11.125C110.15 11.975 110.484 13.0667 110.484 14.4C110.484 15.3667 110.209 16.225 109.659 16.975C109.125 17.725 108.367 18.3083 107.384 18.725C106.417 19.1417 105.275 19.35 103.959 19.35ZM110.984 19L110.684 18.15L111.259 18C111.709 17.8833 112.067 17.7417 112.334 17.575C112.601 17.4083 112.826 17.1833 113.009 16.9C113.209 16.6 113.392 16.1917 113.559 15.675L117.484 4.375C117.567 4.10833 117.634 3.88333 117.684 3.7C117.734 3.5 117.759 3.31667 117.759 3.15C117.759 2.83333 117.667 2.6 117.484 2.45C117.301 2.28333 117.017 2.15 116.634 2.05L116.059 1.9L116.359 1.05H121.184L126.209 15.55C126.409 16.1 126.609 16.55 126.809 16.9C127.026 17.25 127.267 17.55 127.534 17.8C127.801 18.05 128.109 18.3167 128.459 18.6L128.134 19H122.509L122.209 18.15L122.784 18C123.167 17.9 123.451 17.775 123.634 17.625C123.817 17.4583 123.909 17.2167 123.909 16.9C123.909 16.7333 123.884 16.5583 123.834 16.375C123.784 16.175 123.717 15.9417 123.634 15.675L122.434 12.175H116.659L116.059 14C115.876 14.5667 115.734 15.0583 115.634 15.475C115.534 15.8917 115.484 16.275 115.484 16.625C115.484 17.1917 115.601 17.7 115.834 18.15L116.059 18.6L115.584 19H110.984ZM117.184 10.625H121.909L119.509 3.625L117.184 10.625ZM133.81 19L133.485 18.6L133.81 18.15C134.227 17.6 134.519 17.025 134.685 16.425C134.852 15.8083 134.935 14.9917 134.935 13.975V4.375C134.935 3.59167 134.877 3.08333 134.76 2.85C134.66 2.6 134.435 2.475 134.085 2.475H132.96C132.377 2.475 131.91 2.54167 131.56 2.675C131.227 2.79167 130.96 3.00833 130.76 3.325C130.577 3.64167 130.402 4.1 130.235 4.7L130.085 5.275L129.235 4.975V0.524999L129.635 0.199999L130.085 0.524999C130.552 0.874999 131.502 1.05 132.935 1.05H139.41C140.844 1.05 141.794 0.874999 142.26 0.524999L142.71 0.199999L143.11 0.524999V4.975L142.26 5.275L142.11 4.7C141.96 4.1 141.785 3.64167 141.585 3.325C141.385 3.00833 141.119 2.79167 140.785 2.675C140.452 2.54167 139.985 2.475 139.385 2.475H138.26C137.91 2.475 137.677 2.6 137.56 2.85C137.46 3.08333 137.41 3.59167 137.41 4.375V15.675C137.41 16.4417 137.519 16.975 137.735 17.275C137.969 17.575 138.394 17.8167 139.01 18L139.585 18.15L139.285 19H133.81ZM144.904 19L144.604 18.15L145.204 18C145.82 17.8333 146.237 17.6 146.454 17.3C146.67 16.9833 146.779 16.4417 146.779 15.675V4.375C146.779 3.625 146.67 3.09167 146.454 2.775C146.237 2.45833 145.82 2.21667 145.204 2.05L144.604 1.9L144.904 1.05H150.404L150.729 1.45L150.404 1.9C149.987 2.46667 149.687 3.05833 149.504 3.675C149.337 4.275 149.254 5.075 149.254 6.075V14.425C149.254 15.2083 149.345 15.825 149.529 16.275C149.729 16.725 149.979 17.05 150.279 17.25C150.579 17.45 150.887 17.575 151.204 17.625C151.52 17.675 151.795 17.7 152.029 17.7C153.229 17.7 154.154 17.3167 154.804 16.55C155.454 15.7833 155.779 14.8083 155.779 13.625C155.779 12.9083 155.612 12.2583 155.279 11.675C154.945 11.0917 154.479 10.625 153.879 10.275C153.295 9.925 152.604 9.75 151.804 9.75C151.287 9.75 150.92 9.79167 150.704 9.875C150.487 9.94167 150.304 9.975 150.154 9.975C150.037 9.975 149.945 9.91667 149.879 9.8C149.829 9.68333 149.804 9.55 149.804 9.4C149.804 9.08333 150.054 8.85833 150.554 8.725C151.054 8.59167 151.612 8.525 152.229 8.525C153.495 8.525 154.587 8.76667 155.504 9.25C156.42 9.73333 157.129 10.375 157.629 11.175C158.129 11.9583 158.379 12.8167 158.379 13.75C158.379 14.7667 158.17 15.675 157.754 16.475C157.337 17.2583 156.654 17.875 155.704 18.325C154.754 18.775 153.479 19 151.879 19H144.904ZM174.695 19.35C173.345 19.35 172.17 19.1083 171.17 18.625C170.17 18.1417 169.337 17.475 168.67 16.625C168.004 15.775 167.504 14.7917 167.17 13.675C166.854 12.5417 166.695 11.3333 166.695 10.05C166.695 8.76667 166.854 7.55833 167.17 6.425C167.504 5.29167 168.004 4.3 168.67 3.45C169.337 2.58333 170.179 1.90833 171.195 1.425C172.212 0.941666 173.404 0.699999 174.77 0.699999C175.87 0.699999 176.845 0.858332 177.695 1.175C178.545 1.475 179.204 1.9 179.67 2.45C180.154 3 180.395 3.64167 180.395 4.375C180.395 5.24167 180.137 5.95 179.62 6.5C179.12 7.03333 178.487 7.3 177.72 7.3C177.37 7.3 177.195 7.2 177.195 7C177.195 6.91667 177.254 6.79167 177.37 6.625C177.504 6.44167 177.629 6.2 177.745 5.9C177.879 5.58333 177.945 5.19167 177.945 4.725C177.945 3.94167 177.654 3.30833 177.07 2.825C176.487 2.34167 175.72 2.1 174.77 2.1C173.787 2.1 172.962 2.33333 172.295 2.8C171.629 3.26667 171.087 3.89167 170.67 4.675C170.27 5.44167 169.979 6.3 169.795 7.25C169.612 8.18333 169.52 9.11667 169.52 10.05C169.52 11.4333 169.737 12.7 170.17 13.85C170.604 15 171.22 15.9167 172.02 16.6C172.837 17.2833 173.804 17.625 174.92 17.625C176.02 17.625 176.962 17.425 177.745 17.025C178.529 16.6083 179.154 16.0583 179.62 15.375C179.67 15.3083 179.729 15.275 179.795 15.275C179.945 15.275 180.112 15.35 180.295 15.5C180.495 15.65 180.595 15.8083 180.595 15.975C180.595 16.025 180.57 16.0917 180.52 16.175C179.87 17.1417 179.07 17.9167 178.12 18.5C177.17 19.0667 176.029 19.35 174.695 19.35ZM182.675 19L182.375 18.15L182.95 18C183.583 17.8167 184.008 17.575 184.225 17.275C184.442 16.975 184.55 16.4417 184.55 15.675V3.325C184.55 2.925 184.367 2.725 184 2.725H182.55L182.25 1.8C182.683 1.63333 183.233 1.46667 183.9 1.3C184.583 1.13333 185.317 0.991666 186.1 0.874999C186.9 0.758332 187.683 0.699999 188.45 0.699999C190.067 0.699999 191.367 0.924999 192.35 1.375C193.35 1.80833 194.075 2.4 194.525 3.15C194.992 3.9 195.225 4.725 195.225 5.625C195.225 6.50833 195.008 7.33333 194.575 8.1C194.158 8.86667 193.5 9.46667 192.6 9.9C193.733 10.2667 194.608 10.8333 195.225 11.6C195.842 12.35 196.15 13.175 196.15 14.075C196.15 15.025 195.933 15.875 195.5 16.625C195.083 17.3583 194.4 17.9417 193.45 18.375C192.5 18.7917 191.233 19 189.65 19H182.675ZM189.8 17.7C191 17.7 191.925 17.35 192.575 16.65C193.225 15.9333 193.55 15.0333 193.55 13.95C193.55 13.3167 193.392 12.7417 193.075 12.225C192.758 11.6917 192.3 11.2667 191.7 10.95C191.117 10.6333 190.408 10.475 189.575 10.475C189.275 10.475 188.975 10.4417 188.675 10.375C188.375 10.3083 188.133 10.2333 187.95 10.15C187.817 10.0833 187.717 10 187.65 9.9C187.6 9.8 187.575 9.7 187.575 9.6C187.575 9.3 187.692 9.15 187.925 9.15C188.025 9.15 188.158 9.18333 188.325 9.25C188.508 9.3 188.792 9.325 189.175 9.325C190.325 9.325 191.208 8.98333 191.825 8.3C192.442 7.61667 192.75 6.74167 192.75 5.675C192.75 4.65833 192.408 3.80833 191.725 3.125C191.042 2.44167 190.033 2.1 188.7 2.1C188.2 2.1 187.833 2.16667 187.6 2.3C187.367 2.41667 187.208 2.56667 187.125 2.75C187.058 2.93333 187.025 3.1 187.025 3.25V14.425C187.025 15.2083 187.117 15.825 187.3 16.275C187.5 16.7083 187.75 17.0333 188.05 17.25C188.35 17.45 188.65 17.575 188.95 17.625C189.267 17.675 189.55 17.7 189.8 17.7ZM206.684 19.35C204.818 19.35 203.268 18.9333 202.034 18.1C200.818 17.2667 199.909 16.15 199.309 14.75C198.709 13.3333 198.409 11.7667 198.409 10.05C198.409 8.76667 198.576 7.55833 198.909 6.425C199.243 5.29167 199.751 4.3 200.434 3.45C201.134 2.58333 202.001 1.90833 203.034 1.425C204.068 0.941666 205.284 0.699999 206.684 0.699999C208.084 0.699999 209.301 0.941666 210.334 1.425C211.368 1.90833 212.226 2.58333 212.909 3.45C213.609 4.3 214.126 5.29167 214.459 6.425C214.809 7.55833 214.984 8.76667 214.984 10.05C214.984 11.7667 214.676 13.3333 214.059 14.75C213.459 16.15 212.543 17.2667 211.309 18.1C210.093 18.9333 208.551 19.35 206.684 19.35ZM206.584 17.875C207.784 17.875 208.809 17.5333 209.659 16.85C210.509 16.15 211.151 15.2167 211.584 14.05C212.034 12.8667 212.259 11.5583 212.259 10.125C212.259 9.50833 212.201 8.84167 212.084 8.125C211.984 7.39167 211.809 6.675 211.559 5.975C211.309 5.25833 210.976 4.61667 210.559 4.05C210.143 3.46667 209.626 3 209.009 2.65C208.393 2.3 207.659 2.125 206.809 2.125C205.593 2.125 204.559 2.5 203.709 3.25C202.859 3.98333 202.209 4.96667 201.759 6.2C201.326 7.41667 201.109 8.76667 201.109 10.25C201.109 11.6667 201.309 12.95 201.709 14.1C202.126 15.25 202.743 16.1667 203.559 16.85C204.376 17.5333 205.384 17.875 206.584 17.875ZM233.119 19.35C231.402 19.35 229.969 18.9667 228.819 18.2C227.669 17.4167 226.794 16.3667 226.194 15.05C225.611 13.7333 225.286 12.2667 225.219 10.65H221.544V15.85C221.544 16.5833 221.644 17.0917 221.844 17.375C222.061 17.6417 222.461 17.8667 223.044 18.05L223.569 18.2L223.319 19H217.169L216.869 18.15L217.469 18C217.886 17.8667 218.202 17.725 218.419 17.575C218.652 17.425 218.819 17.2083 218.919 16.925C219.019 16.625 219.069 16.2083 219.069 15.675V4.375C219.069 3.59167 218.952 3.05 218.719 2.75C218.502 2.45 218.086 2.21667 217.469 2.05L216.869 1.9L217.169 1.05H222.669L222.994 1.45L222.669 1.9C222.252 2.45 221.961 3.03333 221.794 3.65C221.627 4.26667 221.544 5.075 221.544 6.075V9.125H225.244C225.344 7.55833 225.694 6.14167 226.294 4.875C226.911 3.60833 227.786 2.6 228.919 1.85C230.052 1.1 231.452 0.725 233.119 0.725C234.902 0.725 236.377 1.14167 237.544 1.975C238.711 2.80833 239.586 3.93333 240.169 5.35C240.752 6.75 241.044 8.31667 241.044 10.05C241.044 11.7667 240.752 13.3333 240.169 14.75C239.586 16.15 238.711 17.2667 237.544 18.1C236.377 18.9333 234.902 19.35 233.119 19.35ZM233.019 17.9C234.152 17.9 235.111 17.55 235.894 16.85C236.694 16.15 237.294 15.2167 237.694 14.05C238.111 12.8667 238.319 11.5583 238.319 10.125C238.319 9.34167 238.236 8.49167 238.069 7.575C237.919 6.64167 237.652 5.76667 237.269 4.95C236.886 4.11667 236.369 3.44167 235.719 2.925C235.069 2.39167 234.252 2.125 233.269 2.125C232.119 2.125 231.144 2.5 230.344 3.25C229.544 3.98333 228.936 4.96667 228.519 6.2C228.119 7.43333 227.919 8.79167 227.919 10.275C227.919 11.675 228.102 12.9583 228.469 14.125C228.852 15.275 229.419 16.1917 230.169 16.875C230.936 17.5583 231.886 17.9 233.019 17.9ZM249.379 19L249.079 18.15L249.679 18C250.095 17.8667 250.42 17.725 250.654 17.575C250.887 17.425 251.045 17.2083 251.129 16.925C251.229 16.625 251.279 16.2083 251.279 15.675V4.375C251.279 3.59167 251.17 3.05 250.954 2.75C250.737 2.45 250.312 2.21667 249.679 2.05L249.079 1.9L249.379 1.05H254.879L255.204 1.45L254.879 1.9C254.462 2.45 254.17 3.03333 254.004 3.65C253.837 4.26667 253.754 5.075 253.754 6.075V13.325L262.179 4.175C262.162 3.475 262.037 2.98333 261.804 2.7C261.587 2.41667 261.179 2.2 260.579 2.05L260.029 1.9L260.329 1.05H265.779L266.154 1.45L265.779 1.9C265.345 2.43333 265.045 3.01667 264.879 3.65C264.712 4.26667 264.629 5.075 264.629 6.075V15.85C264.629 16.5833 264.737 17.0917 264.954 17.375C265.17 17.6583 265.587 17.8833 266.204 18.05L266.704 18.2L266.454 19H260.329L260.029 18.15L260.579 18C261.212 17.8333 261.637 17.6083 261.854 17.325C262.07 17.025 262.179 16.475 262.179 15.675V6.2L253.754 15.375V15.85C253.754 16.5833 253.854 17.0917 254.054 17.375C254.27 17.6417 254.67 17.8667 255.254 18.05L255.779 18.2L255.529 19H249.379ZM275.965 19.35C274.615 19.35 273.44 19.1083 272.44 18.625C271.44 18.1417 270.607 17.475 269.94 16.625C269.273 15.775 268.773 14.7917 268.44 13.675C268.123 12.5417 267.965 11.3333 267.965 10.05C267.965 8.76667 268.123 7.55833 268.44 6.425C268.773 5.29167 269.273 4.3 269.94 3.45C270.607 2.58333 271.448 1.90833 272.465 1.425C273.482 0.941666 274.673 0.699999 276.04 0.699999C277.14 0.699999 278.115 0.858332 278.965 1.175C279.815 1.475 280.473 1.9 280.94 2.45C281.423 3 281.665 3.64167 281.665 4.375C281.665 5.24167 281.407 5.95 280.89 6.5C280.39 7.03333 279.757 7.3 278.99 7.3C278.64 7.3 278.465 7.2 278.465 7C278.465 6.91667 278.523 6.79167 278.64 6.625C278.773 6.44167 278.898 6.2 279.015 5.9C279.148 5.58333 279.215 5.19167 279.215 4.725C279.215 3.94167 278.923 3.30833 278.34 2.825C277.757 2.34167 276.99 2.1 276.04 2.1C275.057 2.1 274.232 2.33333 273.565 2.8C272.898 3.26667 272.357 3.89167 271.94 4.675C271.54 5.44167 271.248 6.3 271.065 7.25C270.882 8.18333 270.79 9.11667 270.79 10.05C270.79 11.4333 271.007 12.7 271.44 13.85C271.873 15 272.49 15.9167 273.29 16.6C274.107 17.2833 275.073 17.625 276.19 17.625C277.29 17.625 278.232 17.425 279.015 17.025C279.798 16.6083 280.423 16.0583 280.89 15.375C280.94 15.3083 280.998 15.275 281.065 15.275C281.215 15.275 281.382 15.35 281.565 15.5C281.765 15.65 281.865 15.8083 281.865 15.975C281.865 16.025 281.84 16.0917 281.79 16.175C281.14 17.1417 280.34 17.9167 279.39 18.5C278.44 19.0667 277.298 19.35 275.965 19.35ZM287.595 19L287.27 18.6L287.595 18.15C288.011 17.6 288.303 17.025 288.47 16.425C288.636 15.8083 288.72 14.9917 288.72 13.975V4.375C288.72 3.59167 288.661 3.08333 288.545 2.85C288.445 2.6 288.22 2.475 287.87 2.475H286.745C286.161 2.475 285.695 2.54167 285.345 2.675C285.011 2.79167 284.745 3.00833 284.545 3.325C284.361 3.64167 284.186 4.1 284.02 4.7L283.87 5.275L283.02 4.975V0.524999L283.42 0.199999L283.87 0.524999C284.336 0.874999 285.286 1.05 286.72 1.05H293.195C294.628 1.05 295.578 0.874999 296.045 0.524999L296.495 0.199999L296.895 0.524999V4.975L296.045 5.275L295.895 4.7C295.745 4.1 295.57 3.64167 295.37 3.325C295.17 3.00833 294.903 2.79167 294.57 2.675C294.236 2.54167 293.77 2.475 293.17 2.475H292.045C291.695 2.475 291.461 2.6 291.345 2.85C291.245 3.08333 291.195 3.59167 291.195 4.375V15.675C291.195 16.4417 291.303 16.975 291.52 17.275C291.753 17.575 292.178 17.8167 292.795 18L293.37 18.15L293.07 19H287.595ZM306.538 19.35C304.671 19.35 303.121 18.9333 301.888 18.1C300.671 17.2667 299.763 16.15 299.163 14.75C298.563 13.3333 298.263 11.7667 298.263 10.05C298.263 8.76667 298.429 7.55833 298.763 6.425C299.096 5.29167 299.604 4.3 300.288 3.45C300.988 2.58333 301.854 1.90833 302.888 1.425C303.921 0.941666 305.138 0.699999 306.538 0.699999C307.938 0.699999 309.154 0.941666 310.188 1.425C311.221 1.90833 312.079 2.58333 312.763 3.45C313.463 4.3 313.979 5.29167 314.313 6.425C314.663 7.55833 314.838 8.76667 314.838 10.05C314.838 11.7667 314.529 13.3333 313.913 14.75C313.313 16.15 312.396 17.2667 311.163 18.1C309.946 18.9333 308.404 19.35 306.538 19.35ZM306.438 17.875C307.638 17.875 308.663 17.5333 309.513 16.85C310.363 16.15 311.004 15.2167 311.438 14.05C311.888 12.8667 312.113 11.5583 312.113 10.125C312.113 9.50833 312.054 8.84167 311.938 8.125C311.838 7.39167 311.663 6.675 311.413 5.975C311.163 5.25833 310.829 4.61667 310.413 4.05C309.996 3.46667 309.479 3 308.863 2.65C308.246 2.3 307.513 2.125 306.663 2.125C305.446 2.125 304.413 2.5 303.563 3.25C302.713 3.98333 302.063 4.96667 301.613 6.2C301.179 7.41667 300.963 8.76667 300.963 10.25C300.963 11.6667 301.163 12.95 301.563 14.1C301.979 15.25 302.596 16.1667 303.413 16.85C304.229 17.5333 305.238 17.875 306.438 17.875ZM317.023 19L316.723 18.15L317.298 18C317.931 17.8333 318.356 17.6 318.573 17.3C318.789 16.9833 318.898 16.4417 318.898 15.675V3.325C318.898 2.925 318.714 2.725 318.348 2.725H316.898L316.598 1.8C317.031 1.63333 317.581 1.46667 318.248 1.3C318.931 1.13333 319.664 0.991666 320.448 0.874999C321.248 0.758332 322.039 0.699999 322.823 0.699999C324.556 0.699999 325.956 0.974999 327.023 1.525C328.106 2.05833 328.889 2.775 329.373 3.675C329.873 4.575 330.123 5.56667 330.123 6.65C330.123 7.68333 329.906 8.65 329.473 9.55C329.056 10.4333 328.406 11.1417 327.523 11.675C326.639 12.2083 325.506 12.475 324.123 12.475C323.556 12.475 323.048 12.4083 322.598 12.275C322.148 12.125 321.923 11.9 321.923 11.6C321.923 11.45 321.956 11.3167 322.023 11.2C322.089 11.0667 322.189 11 322.323 11C322.423 11 322.556 11.0333 322.723 11.1C322.906 11.15 323.181 11.175 323.548 11.175C324.831 11.175 325.814 10.7667 326.498 9.95C327.181 9.13333 327.523 8.05833 327.523 6.725C327.523 5.85833 327.364 5.075 327.048 4.375C326.731 3.675 326.256 3.125 325.623 2.725C324.989 2.30833 324.206 2.1 323.273 2.1C322.706 2.1 322.289 2.16667 322.023 2.3C321.756 2.41667 321.581 2.56667 321.498 2.75C321.414 2.93333 321.373 3.1 321.373 3.25V13.975C321.373 14.9917 321.456 15.8083 321.623 16.425C321.789 17.025 322.081 17.6 322.498 18.15L322.823 18.6L322.498 19H317.023ZM331.19 19L330.89 18.15L331.49 18C331.907 17.8667 332.232 17.725 332.465 17.575C332.699 17.425 332.857 17.2083 332.94 16.925C333.04 16.625 333.09 16.2083 333.09 15.675V4.375C333.09 3.59167 332.982 3.05 332.765 2.75C332.549 2.45 332.124 2.21667 331.49 2.05L330.89 1.9L331.19 1.05H336.69L337.015 1.45L336.69 1.9C336.274 2.45 335.982 3.03333 335.815 3.65C335.649 4.26667 335.565 5.075 335.565 6.075V13.325L343.99 4.175C343.974 3.475 343.849 2.98333 343.615 2.7C343.399 2.41667 342.99 2.2 342.39 2.05L341.84 1.9L342.14 1.05H347.59L347.965 1.45L347.59 1.9C347.157 2.43333 346.857 3.01667 346.69 3.65C346.524 4.26667 346.44 5.075 346.44 6.075V15.85C346.44 16.5833 346.549 17.0917 346.765 17.375C346.982 17.6583 347.399 17.8833 348.015 18.05L348.515 18.2L348.265 19H342.14L341.84 18.15L342.39 18C343.024 17.8333 343.449 17.6083 343.665 17.325C343.882 17.025 343.99 16.475 343.99 15.675V6.2L335.565 15.375V15.85C335.565 16.5833 335.665 17.0917 335.865 17.375C336.082 17.6417 336.482 17.8667 337.065 18.05L337.59 18.2L337.34 19H331.19ZM366.151 19.35C364.435 19.35 363.001 18.9667 361.851 18.2C360.701 17.4167 359.826 16.3667 359.226 15.05C358.643 13.7333 358.318 12.2667 358.251 10.65H354.576V15.85C354.576 16.5833 354.676 17.0917 354.876 17.375C355.093 17.6417 355.493 17.8667 356.076 18.05L356.601 18.2L356.351 19H350.201L349.901 18.15L350.501 18C350.918 17.8667 351.235 17.725 351.451 17.575C351.685 17.425 351.851 17.2083 351.951 16.925C352.051 16.625 352.101 16.2083 352.101 15.675V4.375C352.101 3.59167 351.985 3.05 351.751 2.75C351.535 2.45 351.118 2.21667 350.501 2.05L349.901 1.9L350.201 1.05H355.701L356.026 1.45L355.701 1.9C355.285 2.45 354.993 3.03333 354.826 3.65C354.66 4.26667 354.576 5.075 354.576 6.075V9.125H358.276C358.376 7.55833 358.726 6.14167 359.326 4.875C359.943 3.60833 360.818 2.6 361.951 1.85C363.085 1.1 364.485 0.725 366.151 0.725C367.935 0.725 369.41 1.14167 370.576 1.975C371.743 2.80833 372.618 3.93333 373.201 5.35C373.785 6.75 374.076 8.31667 374.076 10.05C374.076 11.7667 373.785 13.3333 373.201 14.75C372.618 16.15 371.743 17.2667 370.576 18.1C369.41 18.9333 367.935 19.35 366.151 19.35ZM366.051 17.9C367.185 17.9 368.143 17.55 368.926 16.85C369.726 16.15 370.326 15.2167 370.726 14.05C371.143 12.8667 371.351 11.5583 371.351 10.125C371.351 9.34167 371.268 8.49167 371.101 7.575C370.951 6.64167 370.685 5.76667 370.301 4.95C369.918 4.11667 369.401 3.44167 368.751 2.925C368.101 2.39167 367.285 2.125 366.301 2.125C365.151 2.125 364.176 2.5 363.376 3.25C362.576 3.98333 361.968 4.96667 361.551 6.2C361.151 7.43333 360.951 8.79167 360.951 10.275C360.951 11.675 361.135 12.9583 361.501 14.125C361.885 15.275 362.451 16.1917 363.201 16.875C363.968 17.5583 364.918 17.9 366.051 17.9Z" fill="#968E85"/>
</svg>
